<svg xmlns="http://www.w3.org/2000/svg" xmlns:xlink="http://www.w3.org/1999/xlink" width="94.001" height="89.148" viewBox="0 0 94.001 89.148">
  <defs>
    <clipPath id="clip-path">
      <rect id="Rectángulo_456684" data-name="Rectángulo 456684" width="88.313" height="89.148" fill="#366400"/>
    </clipPath>
    <clipPath id="clip-path-2">
      <rect id="Rectángulo_458720" data-name="Rectángulo 458720" width="82.893" height="45.649" transform="translate(0 0)" fill="none"/>
    </clipPath>
  </defs>
  <g id="Grupo_1208317" data-name="Grupo 1208317" transform="translate(-732.426 -8039.08)">
    <rect id="Rectángulo_458462" data-name="Rectángulo 458462" width="94" height="81.3" transform="translate(732.426 8044.754)" fill="none"/>
    <g id="Grupo_1207806" data-name="Grupo 1207806" transform="translate(738.113 8039.08)">
      <g id="Grupo_1206514" data-name="Grupo 1206514">
        <g id="Grupo_1206513" data-name="Grupo 1206513" clip-path="url(#clip-path)">
          <path id="Trazado_1294880" data-name="Trazado 1294880" d="M176.057,89.8c-.11-.7-.574-.307-.466-.326-.027.412.389.264.466.326" transform="translate(-87.744 -44.67)" fill="#366400"/>
          <path id="Trazado_1294881" data-name="Trazado 1294881" d="M172.207,75.519l.19.09-.586-.9Z" transform="translate(-85.863 -37.338)" fill="#366400"/>
          <path id="Trazado_1294882" data-name="Trazado 1294882" d="M170.265,67.7l.674.365c-.2-.651-.471-1.389-.747-2.067a6.861,6.861,0,0,1-.543-1.8c-.525.769.758,2.127.734,3.285Z" transform="translate(-84.719 -32.086)" fill="#366400"/>
          <path id="Trazado_1294883" data-name="Trazado 1294883" d="M170.394,57.408c-.055-.128-.125-.307-.226-.617-.18.3-.495-.6.213.777a1.188,1.188,0,0,1,.013-.16" transform="translate(-84.928 -28.372)" fill="#366400"/>
          <path id="Trazado_1294884" data-name="Trazado 1294884" d="M170.847,57.911c.268.626.055-.5,0,0" transform="translate(-85.381 -28.875)" fill="#366400"/>
          <path id="Trazado_1294885" data-name="Trazado 1294885" d="M168.716,51.806c-.506-.787-.572-.538-.6.05l.594.712c.074-.237-.224-.983.007-.762" transform="translate(-84.015 -25.642)" fill="#366400"/>
          <path id="Trazado_1294886" data-name="Trazado 1294886" d="M166.752,51.7c.029-.1,0-.226-.294-.366l.152.181.143.185" transform="translate(-83.188 -25.652)" fill="#366400"/>
          <path id="Trazado_1294887" data-name="Trazado 1294887" d="M167.219,52.433c-.225.017.038.105.346.421l-.6-.793c-.051.167-.256.276.257.372" transform="translate(-83.398 -26.018)" fill="#366400"/>
          <path id="Trazado_1294888" data-name="Trazado 1294888" d="M168.149,54.74c.069.513.205,1.142-.357.425.713,1.516,1.109,1.1.357-.425" transform="translate(-83.854 -27.356)" fill="#366400"/>
          <path id="Trazado_1294889" data-name="Trazado 1294889" d="M168.531,65.174a1.867,1.867,0,0,1-.172-.693c-.045-.267-.1-.489-.2-.436l0,.333c0,.167-.01.335-.01.335Z" transform="translate(-84.034 -32.003)" fill="#366400"/>
          <path id="Trazado_1294890" data-name="Trazado 1294890" d="M163.307,43.358c-.07-.351-.343-.938-.176-1.1-.159.034-.181.468-.311.625,0,0,.128.114.248.233l.239.24" transform="translate(-81.37 -21.119)" fill="#366400"/>
          <path id="Trazado_1294891" data-name="Trazado 1294891" d="M162.072,42.826l-.748-.683c.444.748.635.817.748.683" transform="translate(-80.622 -21.061)" fill="#366400"/>
          <path id="Trazado_1294892" data-name="Trazado 1294892" d="M165.339,52.075l.576.608-.642-.745c-.156-.187-.331-.364-.456-.5l-.211-.222.144.266s.309.286.589.591" transform="translate(-82.262 -25.596)" fill="#366400"/>
          <path id="Trazado_1294893" data-name="Trazado 1294893" d="M159.4,35.99l-.506-.253-.521-.234.414.237Z" transform="translate(-79.145 -17.743)" fill="#366400"/>
          <path id="Trazado_1294894" data-name="Trazado 1294894" d="M154.809,30.58c.5.13,0-.753.428-.533a5.234,5.234,0,0,0-1.585-1.013,3.485,3.485,0,0,1,1.157,1.545" transform="translate(-76.788 -14.51)" fill="#366400"/>
          <path id="Trazado_1294895" data-name="Trazado 1294895" d="M151.959,28.207a6.69,6.69,0,0,0,.847.415,3.2,3.2,0,0,0-.847-.415" transform="translate(-75.942 -14.096)" fill="#366400"/>
          <path id="Trazado_1294896" data-name="Trazado 1294896" d="M159.286,37.542l-.124.564.218.317a1.061,1.061,0,0,0-.094-.881" transform="translate(-79.541 -18.762)" fill="#366400"/>
          <path id="Trazado_1294897" data-name="Trazado 1294897" d="M158.7,37.98l-.462-.69L158.7,38Z" transform="translate(-79.081 -18.636)" fill="#366400"/>
          <path id="Trazado_1294898" data-name="Trazado 1294898" d="M159.645,39.383l-.055-.08c-.013.055-.012.081.055.08" transform="translate(-79.752 -19.642)" fill="#366400"/>
          <path id="Trazado_1294899" data-name="Trazado 1294899" d="M161.082,46.184c.453.2.308-.468,1.043.09-.492-.377-1.291-1.251-1.043-.09" transform="translate(-80.478 -22.79)" fill="#366400"/>
          <path id="Trazado_1294900" data-name="Trazado 1294900" d="M159.375,40.841s.128.223.243.454l.235.457c.084-.078.122-.325.374-.152l-.423-.384c-.208-.193-.428-.376-.428-.376" transform="translate(-79.648 -20.41)" fill="#366400"/>
          <path id="Trazado_1294901" data-name="Trazado 1294901" d="M158.572,40.179l.4.331-.19-.33Z" transform="translate(-79.247 -20.08)" fill="#366400"/>
          <path id="Trazado_1294902" data-name="Trazado 1294902" d="M152.611,30.437a5.679,5.679,0,0,1-1.174-.949c.355.479.719.971,1.1,1.411.155-.027.506.011.077-.462" transform="translate(-75.681 -14.737)" fill="#366400"/>
          <path id="Trazado_1294903" data-name="Trazado 1294903" d="M156.351,34.862l-.081-.063c.01.071.031.117.081.063" transform="translate(-78.096 -17.391)" fill="#366400"/>
          <path id="Trazado_1294904" data-name="Trazado 1294904" d="M143.543,22.024l.016.117.063-.043Z" transform="translate(-71.736 -11.007)" fill="#366400"/>
          <path id="Trazado_1294905" data-name="Trazado 1294905" d="M153.57,32.434a1.346,1.346,0,0,0,.747.628,8.932,8.932,0,0,1-.751-.755c-.07.012-.1.033,0,.127" transform="translate(-76.712 -16.145)" fill="#366400"/>
          <path id="Trazado_1294906" data-name="Trazado 1294906" d="M149.529,26.293c.108.224.245.462.383.714-.056-.264-.243-.738-.383-.714" transform="translate(-74.727 -13.14)" fill="#366400"/>
          <path id="Trazado_1294907" data-name="Trazado 1294907" d="M156.268,34.337c.019.014.038.025.056.041-.019-.173-.043-.13-.056-.041" transform="translate(-78.095 -17.121)" fill="#366400"/>
          <path id="Trazado_1294908" data-name="Trazado 1294908" d="M155.7,34.116a2.7,2.7,0,0,0-.568-.3,4.943,4.943,0,0,0,.569.491.667.667,0,0,1,0-.192" transform="translate(-77.527 -16.9)" fill="#366400"/>
          <path id="Trazado_1294909" data-name="Trazado 1294909" d="M144.991,23.308l.23.228-.144-.056.338.254a5.835,5.835,0,0,1-.727-1.377c-.662-.317-.865-.3-.987-.229l.765.7.525.481" transform="translate(-71.815 -11.038)" fill="#366400"/>
          <path id="Trazado_1294910" data-name="Trazado 1294910" d="M148.483,26.69c-.527.055-1.385-.483-1.268.265.878.823.846.35,1.489.741-1.436-1.351.566.245-.246-.96a7.921,7.921,0,0,1,.824.7c-.209-.3-.4-.591-.571-.884l.013.052.007.006-.007,0c.022.1.018.144-.027.052a.148.148,0,0,1-.036-.024.424.424,0,0,1-.178.049c-.335-.48.017-.145.178-.049a.3.3,0,0,0,.063-.028V26.6s-.385-.324-.794-.621l-.8-.6a12.692,12.692,0,0,0,1.356,1.311" transform="translate(-73.527 -12.683)" fill="#366400"/>
          <path id="Trazado_1294911" data-name="Trazado 1294911" d="M158.43,45.805a.108.108,0,0,1,.053-.1c-.112-.076-.167-.1-.053.1" transform="translate(-79.144 -22.813)" fill="#366400"/>
          <path id="Trazado_1294912" data-name="Trazado 1294912" d="M158.718,41.726l.048-.1c-.026-.017-.041.024-.048.1" transform="translate(-79.32 -20.8)" fill="#366400"/>
          <path id="Trazado_1294913" data-name="Trazado 1294913" d="M158.63,43.595c.1.4-.177.107-.286.2.245.165.768.649.494-.189l-.123-.084a4.967,4.967,0,0,1-.312-1.69,3.191,3.191,0,0,0-.314,1.269.946.946,0,0,1,.54.495" transform="translate(-79.006 -20.905)" fill="#366400"/>
          <path id="Trazado_1294914" data-name="Trazado 1294914" d="M152.416,34.434l-.609-.542.251.86.145-.175c.516.758.594.441.8.419l-.182-.178c-.109-.107-.253-.25-.409-.384" transform="translate(-75.866 -16.938)" fill="#366400"/>
          <path id="Trazado_1294915" data-name="Trazado 1294915" d="M143.289,20.927s-.284-.04-.579-.062l-.581-.048.7.314Z" transform="translate(-71.029 -10.403)" fill="#366400"/>
          <path id="Trazado_1294916" data-name="Trazado 1294916" d="M140.046,18.169s-.15-.041-.3-.075l-.3-.071.308.413Z" transform="translate(-69.684 -9.007)" fill="#366400"/>
          <path id="Trazado_1294917" data-name="Trazado 1294917" d="M36.927,14.908l.425.243a2.692,2.692,0,0,1,1.051-.6c-.794.069-1.8.031-1.475.354" transform="translate(-18.423 -7.273)" fill="#366400"/>
          <path id="Trazado_1294918" data-name="Trazado 1294918" d="M97.9,1.925A6.867,6.867,0,0,0,96.4,1.472c.713.341,1.248.786,1.492.453" transform="translate(-48.178 -0.736)" fill="#366400"/>
          <path id="Trazado_1294919" data-name="Trazado 1294919" d="M9.262,132.844c.217.221.357.287.437.232-.216-.228-.376-.338-.437-.232" transform="translate(-4.629 -66.369)" fill="#366400"/>
          <path id="Trazado_1294920" data-name="Trazado 1294920" d="M94.627,1.194a2.182,2.182,0,0,0-1.777-.148c.106.052.211.082.318.127a5.615,5.615,0,0,1,1.46.021" transform="translate(-46.402 -0.458)" fill="#366400"/>
          <path id="Trazado_1294921" data-name="Trazado 1294921" d="M173.616,102.744a2.728,2.728,0,0,0,.072-.827c0,.2-.039.523-.072.827" transform="translate(-86.765 -50.933)" fill="#366400"/>
          <path id="Trazado_1294922" data-name="Trazado 1294922" d="M125.312,9.49c.429.175.089-.016,0,0" transform="translate(-62.625 -4.742)" fill="#366400"/>
          <path id="Trazado_1294923" data-name="Trazado 1294923" d="M127.423,14.545a.285.285,0,0,0-.258.105.362.362,0,0,1,.258-.105" transform="translate(-63.551 -7.269)" fill="#366400"/>
          <path id="Trazado_1294924" data-name="Trazado 1294924" d="M125.911,10.083a3.766,3.766,0,0,0-.468-.383,4.389,4.389,0,0,0,.468.383" transform="translate(-62.69 -4.848)" fill="#366400"/>
          <path id="Trazado_1294925" data-name="Trazado 1294925" d="M126.395,10.014l.341.222c.085-.038.059-.1-.341-.222" transform="translate(-63.166 -5.005)" fill="#366400"/>
          <path id="Trazado_1294926" data-name="Trazado 1294926" d="M124.716,9.247,124.12,9a4.652,4.652,0,0,1,.662.35c-.07-.064-.094-.1-.066-.105" transform="translate(-62.029 -4.499)" fill="#366400"/>
          <path id="Trazado_1294927" data-name="Trazado 1294927" d="M86.851,51.811c-.151.39-.427-.076-.677-.032,0,0,.064-.149.155-.374l.335-.829L87,49.737c.092-.23.14-.386.14-.386-.312-.263-.272-.937-.23-1.589s.033-1.281-.272-1.42l.094.8c-.362-.545-.779-.186-1.242.259l-.143.135c.045-.8.073-1.6.073-2.4A41.892,41.892,0,0,0,72.176,14.527a.345.345,0,0,0,.081.045l.127-.189c-.378-.343-.738-.5-.589-.219-.333-.305-.676-.6-1.019-.894.851.284,1.234-1.036,1.047-2.135-.137.118-.228.219-1.171-.219.164.371,1.379,1.816.51,1.539-1.12-.7-.742-.783-1.108-1.355.106.636-1.359-.217-1.832.133a41.973,41.973,0,0,0-6.668-4.006c.069-.034.094-.09.033-.187l-.693-.231c-.434-.673,1.508.024.748-.542a11.64,11.64,0,0,1,1.648.287,5.386,5.386,0,0,1,.873.308,4.569,4.569,0,0,1,.844.556l-.079.662c.066-.168-.611-.774-1.044-.8.32.023.685.475,1.081.864s.821.734,1.3.571l-.3-.445c-.149-.228-.313-.435-.313-.435.517.114,1.11.233,1.715.4a3.742,3.742,0,0,1,1.654.892c-.127-.831-.272-.114-.621-1.221.178,1.156-2.747-1.8-2.167-.333a2.212,2.212,0,0,0-.838-1.144,4.808,4.808,0,0,1-1.116-1.159c-.06.2.207.541-.708-.041a1.093,1.093,0,0,1-.291.052l-.058-.047.043.049c-.055.006-.062.01.016.018a1.215,1.215,0,0,1,.347.523A3.218,3.218,0,0,1,62.2,5.59a7.728,7.728,0,0,0-1.384-.34c-.532-.346.331-.105.106-.444l-.459-.01L60,4.806c.1-.444-1.291-1.312.206-1l-1.256-.516A4.882,4.882,0,0,0,56.562,2.3c-.594-.271-1.694.036-1.063-.151L54.439,2l-1.066-.1.006-.114a18.757,18.757,0,0,0-3.216-.374,9.94,9.94,0,0,1-3.4-.692c-.356.031-.717.064-1.134.07A7.816,7.816,0,0,1,44.154.719L43.929.325A11.932,11.932,0,0,1,42.17.249C41.549.2,40.989.181,40.806.408A1.894,1.894,0,0,0,39.64.015a6.421,6.421,0,0,0-1.663.117c-.59.107-1.2.217-1.752.351a9.351,9.351,0,0,1-1.469.267l.037.509a9,9,0,0,0-1.607.424c-.272.093-.549.194-.838.3s-.582.255-.895.395l.2.409a6.049,6.049,0,0,1-2.063.61c-.412.076-.848.149-1.29.245a8.815,8.815,0,0,0-1.3.427c.053-.205.507-.336.851-.36a3.79,3.79,0,0,0-1.694.321,9.312,9.312,0,0,0-1.482.9c-.478.324-.917.7-1.381.982a4.221,4.221,0,0,1-1.463.59,1.8,1.8,0,0,1-1.049.6.351.351,0,0,0,.1-.082,1.985,1.985,0,0,0-.18.1,6.05,6.05,0,0,0-.716.159,3.517,3.517,0,0,0,.621-.1,8.219,8.219,0,0,0-1.2.971l-.469-.272c-.036.031-.068.05-.1.084-.574.158-.252.433.2.573a2.711,2.711,0,0,0-.453.664c-.812-.365-1.063,1.049-2.035.78-.029.279-.544.78-1.01,1.316a2.568,2.568,0,0,0-.709,1.37,2.908,2.908,0,0,0-1.282,1.244l-.617-.258-.207.766-.176.779c-.833.333-1.24.445-1.006-.483a15.223,15.223,0,0,1-.835,1.645,5.692,5.692,0,0,0-.623,1.484l-.256-.316c-.365.488-.538,1.567-1.021,1.652-.7.316-1.712,1.664-2.752,3.31C5.03,24.154,3.994,26.1,2.986,27.577c.676-.074.382.238.034.642s-.746.911-.35,1.138c-.331.089-.658.494-.672-.125a11.318,11.318,0,0,1-.755,2.058,2.424,2.424,0,0,0-.184,1.79C.735,33.2.775,32.6.568,32.729c.017.158.074.619-.137.757S.28,33.17.244,32.858a3.585,3.585,0,0,0-.136,1.113,1.53,1.53,0,0,0,.24.708,2.043,2.043,0,0,0,1,.684,2.314,2.314,0,0,0-.482,1.031,1.756,1.756,0,0,0,.268.985c-.312.262-.675.746-.569-.382l-.219.85L.2,38.467c-.04.219-.077.446-.108.669-.124.892-.16,1.722.17,1.785C.083,41.1.145,41.8.206,41.967c-.077.7-.125,1.087-.139,1.468s-.031.76-.018,1.455l.115-.384c.744.553.17,1.145.29,2.259l-.08-.029a5.45,5.45,0,0,0-.136,1.3,1.855,1.855,0,0,0,.089.532,1.6,1.6,0,0,1,.074.525c-.008.261-.036.646-.108,1.294l.459-.193c.528.057.445.616.305,1.352a4.171,4.171,0,0,0,.061,2.327l.174-.572c.233.359.019.964-.255,1.606a4.411,4.411,0,0,0-.55,1.733c-.035.2-.222-.236-.345-.466-.005,2.256.682.113,1.256,1.609-.237.382-.945-.119-.678.943-.043.3.47.972.981,1.747A4.8,4.8,0,0,1,2.781,62.91c.105-.4.216-.792.7-.2a11.79,11.79,0,0,1,.563,2.037c.209.738.477,1.447,1.1,1.683.01.16-.023.241-.077.278.316.321.721.9,1.18,1.39a3.714,3.714,0,0,0,1.233,1.02,1.188,1.188,0,0,0,.178,1.3,6.632,6.632,0,0,0,1.223,1.34,12.052,12.052,0,0,1,1.19,1.153c.277.335.359.633.067.879,0,0,.446.5.91.974L12,75.7l-.16.059a4.713,4.713,0,0,0,1.429,1.212,3.429,3.429,0,0,0,1.086.346c.225.333-.085.253-.164.291a8.736,8.736,0,0,0,1.86,1.757,7.671,7.671,0,0,0,2.186.828l-.114.528c.312.047.92.73,1.8,1.463.218.186.449.38.694.569s.516.355.789.52a5.949,5.949,0,0,0,1.746.763.4.4,0,0,1-.343.074,20.656,20.656,0,0,1,3.957,2.11c1.26.729,2.438,1.142,3.188.445,0,0,.459.049.925.057l.923.031c-2.175-.764.545-.66-.278-1.206a2.754,2.754,0,0,1,1.229.6c.278.231.311.44-.235.342l-.143-.135c-.645.837,2.7,1,2.512,1.584,2.255.432,4.5.781,6.731,1.017a34.125,34.125,0,0,0,6.627.064l-.286-.333-.283-.341s.094,0,.233-.015l.511-.05.743-.074c.411.12.606.5-.471.607.621.344,1.748-.575,1.742-.753,2.12-.077-.67.986-.036.891l.864-.21-.211-.049c.327-.211.49-.4.73-.553a3.446,3.446,0,0,1,1.188-.42c.827-.04.511.346.832.3.01.051.123.05.489-.092,0,0,.119-.02.292-.066l.638-.159.93-.232-.893-.347c.729-.5,1.709-.465.689-.845.748.3,2.463-.16,4.036-.809.791-.311,1.533-.7,2.147-.969a5.921,5.921,0,0,1,1.272-.534,6.028,6.028,0,0,1,.671-.615,8.185,8.185,0,0,1,.723-.548c.507-.345,1.079-.64,1.685-1.014-.363.09-.878-.352.181-.936.173.676.739.517,1.4.164a4.423,4.423,0,0,1,2.142-.775c-.548.024.126-.555.722-1.117s1.075-1.155.26-1.039c.844-.587.371.343,1.171.067a13.454,13.454,0,0,1,1.314-1.436l1.558-1.394c.268-.24.551-.473.819-.726l.8-.785A12.154,12.154,0,0,0,78.3,72.062c-.111-.144-.636.09-.442-.581l.263-.113c.161-.067.369-.162.572-.262l.826-.4c.274-.556-.491-1.013.6-1.6-.208.051-.518.12-.349-.248A24.114,24.114,0,0,0,84.054,60.9c1.031-2.883,1.835-5.785,3.118-8.679-.482.761-.417.21-.321-.411M70.657,13.165q-.625-.534-1.272-1.042a2.067,2.067,0,0,1,1.272,1.042M69.141,11.9c0,.008-.014.013-.022.019l-.093-.073.115.055M57.872,3.206a.22.22,0,0,0-.042.011c-.647-.417-.42-.262.042-.011M50.1,2.761a9.416,9.416,0,0,1,1.451-.124c1.637.1.575.676.877.61a5.226,5.226,0,0,0,1.71.232,5.112,5.112,0,0,0,1.1-.152,2.626,2.626,0,0,1,2.356.464c.779.832-.311,1.025-.225,1.463A3.968,3.968,0,0,1,55.9,4.664,4.815,4.815,0,0,0,54.729,4.1l.97.54a3.074,3.074,0,0,1-1.718-.323,1.468,1.468,0,0,0,.385.254A41.82,41.82,0,0,0,48.4,3.418a3.143,3.143,0,0,1,.53-.3A5.253,5.253,0,0,1,50.1,2.761m-8.436-.044c-.044.146.11.319.227.432q-.641.023-1.277.064a3.16,3.16,0,0,1,1.05-.5m-8.735.331c.085.007.716.049,1.388.125a6.37,6.37,0,0,1,1.676.368.457.457,0,0,1,.2.2c-.509.088-1.018.179-1.52.285l-.189-.738-.022.787c-.5.108-.992.217-1.481.342a2.222,2.222,0,0,1-.05-1.368M25.32,5.634l.465.151.582-.469c.292-.236.6-.448.6-.448-.225.47-.624,1.252-1.062,2.06q-1.06.486-2.088,1.026a4.954,4.954,0,0,1,1.5-2.32m-10.5,7.034a.549.549,0,0,0,.037.192c-.086-.069-.237-.008-.037-.192m-2.311,2.7a1.83,1.83,0,0,0,.65.608c-.25.259-.5.516-.745.782.013-.25.029-.484.044-.686.031-.422.052-.7.052-.7M1.631,35.815c.151-.187.325.038.521.374-.025-.128-.05-.25-.078-.346.148-.223.282-.289.406-.26-.065.28-.135.558-.194.84l-.135-.234c.03.137.057.286.087.441-.026.126-.045.255-.07.382a6.489,6.489,0,0,0-.547.605s-.007-.451-.014-.9.023-.9.023-.9m52.3,51.993-.321-.056c.622-.286.469-.122.321.056" transform="translate(0 0)" fill="#366400"/>
          <path id="Trazado_1294928" data-name="Trazado 1294928" d="M132.764,13.488c.036-.094-.018-.289.145-.232-.086-.042-.223-.107-.372-.167l-.467-.2a1.734,1.734,0,0,1,.694.595" transform="translate(-66.002 -6.443)" fill="#366400"/>
          <path id="Trazado_1294929" data-name="Trazado 1294929" d="M133.841,13.665a.462.462,0,0,1,.042.021l-.042-.021" transform="translate(-66.887 -6.829)" fill="#366400"/>
          <path id="Trazado_1294930" data-name="Trazado 1294930" d="M133.747,13.619l.047.023a.48.48,0,0,0-.047-.023" transform="translate(-66.84 -6.806)" fill="#366400"/>
          <path id="Trazado_1294931" data-name="Trazado 1294931" d="M133.724,17.4c-.162.391.439.573,1.026.915a.8.8,0,0,1-.1-.069c.489-.354-.213-.624-.928-.846" transform="translate(-66.816 -8.697)" fill="#366400"/>
          <path id="Trazado_1294932" data-name="Trazado 1294932" d="M136.589,19.745c.2-.139-.18-.186-.516-.354a3.385,3.385,0,0,1,.516.354" transform="translate(-68.003 -9.691)" fill="#366400"/>
          <path id="Trazado_1294933" data-name="Trazado 1294933" d="M121.69,8.461c.258.231.4-.39.5-.161.544-.33-2.269-.324-.5.161" transform="translate(-60.52 -4.034)" fill="#366400"/>
          <path id="Trazado_1294934" data-name="Trazado 1294934" d="M132.74,19.678l.077-.546-.533.138Z" transform="translate(-66.109 -9.561)" fill="#366400"/>
          <path id="Trazado_1294935" data-name="Trazado 1294935" d="M124.531,14.337l.879.606c.025-.082.168-.064.334-.021-.574-.313-1.17-.73-1.213-.585" transform="translate(-62.235 -7.15)" fill="#366400"/>
          <path id="Trazado_1294936" data-name="Trazado 1294936" d="M127.741,15.885a4.408,4.408,0,0,0-.785-.349,2.493,2.493,0,0,0,.785.349" transform="translate(-63.446 -7.764)" fill="#366400"/>
          <path id="Trazado_1294937" data-name="Trazado 1294937" d="M101.247,7.053c.293-.07.728-.059.585-.253l-1.167-.063c-.144.149.148.308.581.316" transform="translate(-50.29 -3.367)" fill="#366400"/>
          <path id="Trazado_1294938" data-name="Trazado 1294938" d="M175.39,94.4s.077-.228.131-.457l.119-.46-.358.583Z" transform="translate(-87.597 -46.717)" fill="#366400"/>
          <path id="Trazado_1294939" data-name="Trazado 1294939" d="M174.759,90.773l-.574-.554c.024.206.07.607-.081.76Z" transform="translate(-87.009 -45.087)" fill="#366400"/>
        </g>
      </g>
    </g>
    <g id="Grupo_1208257" data-name="Grupo 1208257" transform="translate(743.533 8063.58)">
      <g id="Grupo_1208256" data-name="Grupo 1208256" clip-path="url(#clip-path-2)">
        <path id="Trazado_1404730" data-name="Trazado 1404730" d="M.861,5.443c23.207.97,55.2-6.193,78.351-4.343-10.169,3.935-34.624,11.73-45.2,14.4L19.52,19.151a5.751,5.751,0,0,1-1.894.257,5.522,5.522,0,0,1-2.169-.838C7.645,14.132,5.764,11.6.234,4.522" fill="#e7edee"/>
        <path id="Trazado_1404731" data-name="Trazado 1404731" d="M28.655,31.04c-4.29,4.192-6.563,10.433-11.707,13.518a.812.812,0,0,1-.588.163c-.362-.092-.423-.573-.408-.946l.921-23.693,60.688-18.4Z" fill="#d3dee0"/>
        <path id="Trazado_1404732" data-name="Trazado 1404732" d="M40.258,36,19.08,43.73l9.575-12.691Z" fill="#8da9ae"/>
        <path id="Trazado_1404733" data-name="Trazado 1404733" d="M79.212,1.1C66.854,9.114,41.738,22.28,30.1,31.307A113.889,113.889,0,0,0,47.316,43.449a.681.681,0,0,0,.491.132c.174-.045.28-.215.369-.371C55.055,31.137,72.333,13.174,79.212,1.1" fill="#e7edee"/>
        <path id="Trazado_1404734" data-name="Trazado 1404734" d="M.234,4.523c.1-.083,1.572,1.733,4.314,4.9a33.909,33.909,0,0,0,5.527,5.152,44.323,44.323,0,0,0,3.969,2.57c.721.414,1.492.866,2.246,1.258a3.169,3.169,0,0,0,2.3.373c3.631-.942,7.6-1.972,11.864-3.076,4.295-1.079,8.805-2.338,13.563-3.779C53.507,9.032,63.922,5.72,74.707,1.9q2.13-.765,4.21-1.559l.23,1.574A132.82,132.82,0,0,0,63.313,1.79C58.2,2,53.273,2.413,48.589,2.831c-9.366.855-17.774,1.77-24.849,2.3s-12.8.767-16.759.681c-1.976.012-3.509-.122-4.545-.181A6.055,6.055,0,0,1,.861,5.444,61.011,61.011,0,0,1,6.975,5.2C10.909,5.1,16.6,4.7,23.642,4.014S39.068,2.3,48.45,1.358C53.142.9,58.084.447,63.24.208a130.139,130.139,0,0,1,16.037.08l3.616.275-3.387,1.3q-2.1.807-4.248,1.575c-10.837,3.84-21.269,7.108-30.816,9.925-4.766,1.4-9.367,2.632-13.66,3.649-4.311,1.047-8.251,2.037-11.987,2.9a4.176,4.176,0,0,1-1.6.006,5.355,5.355,0,0,1-1.41-.538c-.823-.45-1.544-.9-2.28-1.345A42.892,42.892,0,0,1,9.524,15.3,32.313,32.313,0,0,1,4.062,9.831C2.741,8.182,1.788,6.856,1.143,5.954A6.647,6.647,0,0,1,.234,4.523" fill="#362927"/>
        <path id="Trazado_1404735" data-name="Trazado 1404735" d="M79.212,1.1a4.224,4.224,0,0,1-.553,1.234c-.395.794-1.06,1.915-1.954,3.337-1.8,2.835-4.626,6.788-8.3,11.519-3.655,4.742-8.16,10.265-12.9,16.564-1.173,1.582-2.355,3.215-3.52,4.908l-1.71,2.594-.81,1.346-.406.677-.206.343a1.593,1.593,0,0,1-.512.583,1.232,1.232,0,0,1-1.1.1,3.187,3.187,0,0,1-.474-.244l-.708-.41-1.416-.838c-.942-.573-1.887-1.156-2.826-1.765Q39,39.231,36.213,37.189c-2.316-1.7-4.529-3.463-6.639-5.266l-.76-.649.79-.607c3.264-2.507,6.591-4.673,9.815-6.709s6.365-3.913,9.361-5.664c5.99-3.507,11.394-6.536,15.9-9.078L75.3,3.207A28.028,28.028,0,0,1,79.212,1.1,22.775,22.775,0,0,1,75.606,3.71c-2.4,1.584-5.936,3.78-10.378,6.443L49.517,19.532c-2.966,1.787-6.073,3.694-9.263,5.739s-6.477,4.218-9.657,6.676l.029-1.256c2.086,1.771,4.27,3.508,6.553,5.181q2.739,2.01,5.523,3.81c.924.6,1.854,1.179,2.78,1.747l1.393.833.7.407c.118.071.245.143.24.136-.172.437-.042.506-.122.378a.912.912,0,0,0-.112-.134c-.032-.04-.2-.17-.154-.14l.052-.083.21-.345.421-.695q.423-.691.84-1.377l1.761-2.63c1.2-1.709,2.4-3.348,3.6-4.93,4.836-6.293,9.43-11.734,13.193-16.376,3.778-4.628,6.727-8.451,8.675-11.157A51.2,51.2,0,0,1,79.212,1.1" fill="#362927"/>
        <path id="Trazado_1404736" data-name="Trazado 1404736" d="M28.655,31.04c.157.175-1.445,1.953-3.51,5.279a48.712,48.712,0,0,1-4.047,5.7,16.767,16.767,0,0,1-3.164,2.849l-.47.314a2.043,2.043,0,0,1-.754.339,1.247,1.247,0,0,1-1.291-.548,1.872,1.872,0,0,1-.276-.916c-.015-.277,0-.451.007-.63l.021-.553c.014-.37.028-.743.042-1.117.466-11.987,1.209-21.69,1.66-21.673s.438,9.749-.028,21.736q-.04,1.083-.08,2.138a.629.629,0,0,0,.016.126l.006.021a1.18,1.18,0,0,0-.207.106c-.112.071-.134.132-.118.1,0,.014.02-.015-.007-.176-.065-.259-.055-.188-.009-.216a1.582,1.582,0,0,0,.179-.108l.42-.273a16.284,16.284,0,0,0,2.935-2.527c1.71-1.844,3.017-3.786,4.218-5.35,2.34-3.207,4.319-4.789,4.457-4.618" fill="#362927"/>
        <path id="Trazado_1404737" data-name="Trazado 1404737" d="M37.839,36.518c.123.161-.831,1.167-2.724,2.321a35.592,35.592,0,0,1-7.883,3.313l-8.059,2.377c-2.041.628-3.3,1.068-3.413.854-.1-.187,1.006-1.006,3-1.932a64.77,64.77,0,0,1,7.988-2.859,74.4,74.4,0,0,0,7.838-2.779c1.943-.844,3.109-1.495,3.255-1.295" fill="#362927"/>
        <path id="Trazado_1404738" data-name="Trazado 1404738" d="M41.61,19.453c.009.446-2.363.855-5.291.682s-5.237-.848-5.177-1.291,2.413-.5,5.272-.34,5.188.494,5.2.949" fill="#362927"/>
        <path id="Trazado_1404739" data-name="Trazado 1404739" d="M37.783,23.088c-.031.45-2.187.673-4.818.5s-4.738-.682-4.708-1.132,2.187-.673,4.816-.5,4.74.682,4.71,1.132" fill="#362927"/>
        <path id="Trazado_1404740" data-name="Trazado 1404740" d="M35.456,25.579c-.039.454-2.382.621-5.241.6s-5.2-.229-5.231-.683,2.313-.976,5.244-.95,5.267.586,5.228,1.031" fill="#362927"/>
        <path id="Trazado_1404741" data-name="Trazado 1404741" d="M29.625,28.868c0,.454-1.549.811-3.448.942s-3.479-.019-3.543-.468,1.467-1.03,3.433-1.162,3.561.24,3.558.688" fill="#362927"/>
        <path id="Trazado_1404742" data-name="Trazado 1404742" d="M24.045,33.109c.141.423-.836,1.126-2.233,1.3s-2.516-.264-2.483-.709,1.057-.755,2.281-.912,2.294-.11,2.435.323" fill="#362927"/>
        <path id="Trazado_1404743" data-name="Trazado 1404743" d="M52.177,32.508c-.347-.305,2.905-4.521,6.658-9.876l2.635-3.787c.806-1.157,1.512-2.245,2.255-3.1a6.811,6.811,0,0,1,2.07-1.721c.581-.284.948-.309.99-.213.094.219-1.043.863-2.138,2.629-.563.862-1.16,2-1.914,3.227s-1.608,2.552-2.562,3.908c-3.814,5.44-7.668,9.231-7.994,8.936" fill="#362927"/>
        <path id="Trazado_1404744" data-name="Trazado 1404744" d="M34.9,7.622c.014.451-5.986,1.161-13.4,1.586s-13.456.4-13.494-.045S13.97,8,21.408,7.577s13.48-.406,13.494.045" fill="#362927"/>
      </g>
    </g>
  </g>
</svg>
