<svg xmlns="http://www.w3.org/2000/svg" xmlns:xlink="http://www.w3.org/1999/xlink" width="396" height="419" viewBox="0 0 396 419">
  <defs>
    <clipPath id="clip-path">
      <rect id="Rectángulo_458739" data-name="Rectángulo 458739" width="386.328" height="356.28" fill="none"/>
    </clipPath>
    <clipPath id="clip-path-2">
      <rect id="Rectángulo_458727" data-name="Rectángulo 458727" width="386.329" height="356.279" fill="none"/>
    </clipPath>
    <clipPath id="clip-path-3">
      <path id="Trazado_1404860" data-name="Trazado 1404860" d="M111.68,845.211a1.03,1.03,0,0,0-1.03,1.03v4.15h9.427v-4.15a1.03,1.03,0,0,0-1.03-1.03Z" transform="translate(-110.65 -845.211)" fill="none"/>
    </clipPath>
    <linearGradient id="linear-gradient" x1="-3.621" y1="9.468" x2="-3.588" y2="9.468" gradientUnits="objectBoundingBox">
      <stop offset="0" stop-color="#83ddba"/>
      <stop offset="1" stop-color="#1db17f"/>
    </linearGradient>
    <clipPath id="clip-path-5">
      <rect id="Rectángulo_458730" data-name="Rectángulo 458730" width="28.185" height="28.185" fill="none"/>
    </clipPath>
    <clipPath id="clip-path-6">
      <path id="Trazado_1404861" data-name="Trazado 1404861" d="M162.66,895.738a14.093,14.093,0,1,1-14.093-14.093,14.093,14.093,0,0,1,14.093,14.093" transform="translate(-134.475 -881.645)" fill="none"/>
    </clipPath>
    <linearGradient id="linear-gradient-2" x1="-1.227" y1="1.652" x2="-1.218" y2="1.652" xlink:href="#linear-gradient"/>
    <clipPath id="clip-path-7">
      <path id="Trazado_1404863" data-name="Trazado 1404863" d="M133.268,894.734a13.17,13.17,0,1,0,13.17-13.169,13.169,13.169,0,0,0-13.17,13.169" transform="translate(-133.268 -881.565)" fill="none"/>
    </clipPath>
    <linearGradient id="linear-gradient-3" x1="-1.307" y1="1.762" x2="-1.297" y2="1.762" xlink:href="#linear-gradient"/>
    <clipPath id="clip-path-9">
      <rect id="Rectángulo_458733" data-name="Rectángulo 458733" width="52.846" height="18.478" fill="none"/>
    </clipPath>
    <clipPath id="clip-path-12">
      <rect id="Rectángulo_458736" data-name="Rectángulo 458736" width="39.122" height="6.566" fill="none"/>
    </clipPath>
  </defs>
  <g id="Grupo_1208320" data-name="Grupo 1208320" transform="translate(-185.711 -10256)">
    <rect id="Rectángulo_458498" data-name="Rectángulo 458498" width="396" height="419" rx="18" transform="translate(185.711 10256)" fill="#f0b068"/>
    <rect id="Rectángulo_456786" data-name="Rectángulo 456786" width="347.287" height="359.617" transform="translate(210.779 10281.117)" fill="none"/>
    <path id="Trazado_1295831" data-name="Trazado 1295831" d="M345.506,160.022a109.808,109.808,0,0,0-27.75-56.037C303.645,88.643,284.9,78.464,265.484,71.472a160.126,160.126,0,0,0-16.2-4.873,147.558,147.558,0,0,0-79.933-17.2,124.917,124.917,0,0,0-26.182,4.847C100.4,55.1,57.162,71.356,30.326,105.8A119.909,119.909,0,0,0,10.8,142.6c-12.184,27.711-13.924,59.65-5.928,89.256,11.445,42.373,42.862,74.9,82.219,92.941,2.128.976,4.283,1.908,6.451,2.81q5.316,4.685,10.983,8.929A128.461,128.461,0,0,0,171.6,361.455c23.925,1.869,48.005-4.93,68.84-16.4,22.136-12.19,40.919-30.333,55.146-51.707,3.589-3.1,7.043-6.368,10.327-9.806,31.113-32.542,46.939-78.909,39.59-123.517M31.173,167.554c.449-1.34.949-2.662,1.448-3.983-.017.042.729-1.784.864-2.151.631-1.449,1.3-2.886,1.983-4.311.581-1.2,1.194-2.392,1.822-3.571a119.219,119.219,0,0,0,.58,23.834,126.429,126.429,0,0,0-2.341,39.722c.184,1.865.416,3.723.669,5.577a123.61,123.61,0,0,1-7.876-26.04A93.166,93.166,0,0,1,26.913,184.5a106.977,106.977,0,0,1,4.26-16.945m193.3,129.393a127.389,127.389,0,0,1-24.836,12.086,139.261,139.261,0,0,1-54.54-8.748,123.519,123.519,0,0,1-17.119-7.965,125.8,125.8,0,0,0,48.56,7.962c28.8-1.039,56.577-12.478,78.394-30.954q-2.142,3.354-4.526,6.551a143.157,143.157,0,0,1-25.933,21.067M219.666,264.2a97.036,97.036,0,0,1-12.086,4.018c-2.066.55-4.16.993-6.257,1.4-1.04.2-2.085.369-3.131.536l-.344.05q-.974.116-1.953.213a95.873,95.873,0,0,1-12.471.4c-2.066-.057-4.127-.213-6.186-.4-.8-.074-1.6-.173-2.405-.27.517.041-2.491-.4-2.839-.465a105.226,105.226,0,0,1-12.012-2.9c-1.977-.591-3.929-1.268-5.871-1.969-.971-.352-1.934-.731-2.9-1.109-.367-.15-.614-.252-.772-.315-.458-.2-.913-.4-1.368-.6a120.837,120.837,0,0,1-22.384-13.235c-.214-.159-.373-.275-.509-.374-.141-.115-.323-.259-.587-.468-.823-.651-1.63-1.322-2.437-1.994-1.615-1.344-3.18-2.747-4.727-4.169a128.824,128.824,0,0,1-9.522-9.817A112.406,112.406,0,0,1,85.868,189.9a91.892,91.892,0,0,1,5.06-63.154q1.556-1.489,3.153-2.93c-12.915,23.11-14.275,52.694-3.858,77.592,12.584,30.083,39.1,51.628,70.032,61,22.8,6.912,47.26,6.2,68.717-2.9q-1.665.94-3.354,1.833c-1.012.534-2.04,1.034-3.068,1.534-.288.139-2.871,1.294-2.884,1.324M261.2,148.42c1.525,8.576,1.508,20.992.193,29.93a123.672,123.672,0,0,1-3.637,16.264c-.6,2.071-1.24,4.122-1.943,6.16-.341.988-.715,1.965-1.088,2.941-.157.4-.321.8-.483,1.205-.049.1-.174.386-.385.869a83.56,83.56,0,0,1-5.536,10.254c-.988,1.575-2.058,3.1-3.157,4.6-.032.041-.05.067-.078.105-.1.118-.238.286-.444.541-.752.929-1.544,1.825-2.341,2.717a71.645,71.645,0,0,1-7.59,7.242c-.125.1-.517.407-.852.667q-.848.623-1.708,1.225c-1.622,1.133-3.309,2.168-5.017,3.164-1.458.848-2.956,1.619-4.467,2.364-.754.371-1.52.716-2.286,1.062l-.018.009-.457.18a78.727,78.727,0,0,1-10.413,3.262c-1.638.4-3.293.726-4.953,1.027-.481.087-.964.157-1.447.233-.421.056-1.241.171-1.5.2a91.34,91.34,0,0,1-11.071.49c-3.169-.035-6.332-.274-9.48-.625.492.031-3.222-.491-3.914-.615-2-.359-3.989-.8-5.966-1.278-3.407-.82-6.761-1.852-10.07-3.006-1.345-.47-2.674-.984-4-1.512-.346-.147-1.32-.552-1.543-.651-1.074-.477-2.133-.985-3.19-1.5a105.254,105.254,0,0,1-9.254-5.12c-1.5-.924-2.969-1.9-4.421-2.9-.727-.5-1.439-1.018-2.153-1.537-.3-.221-.6-.446-.9-.67l-.374-.3a97.235,97.235,0,0,1-7.865-7.053c-1.25-1.24-2.449-2.532-3.627-3.84-.589-.655-1.161-1.327-1.731-2-.208-.245-1.322-1.643-1.566-1.929A89.008,89.008,0,0,1,115.1,202.5c-.906-1.53-1.738-3.1-2.546-4.687-.4-.795-.786-1.6-1.165-2.411-.211-.455-.416-.913-.618-1.372l-.05-.124a81.9,81.9,0,0,1-3.365-10.38c-.464-1.8-.837-3.617-1.179-5.442-.116-.62-.209-1.244-.307-1.866.054.2-.279-2.338-.315-2.719-1.809-19,3.088-36.758,15.87-50.016,13.676-14.185,33.624-18.36,52.247-15.316,2.476.4,4.816.884,7.065,1.445-21.1-.143-40.545,14.143-50.805,32.479-12.68,22.656-8.332,48.862,7.215,68.819,14.816,19.02,39.092,29.764,63.006,24.221,21.49-4.981,35.284-24.532,41.6-44.449,6.56-20.683,5.455-43.974-4.069-63.5-10.434-21.4-31.816-34.99-55.182-39.872.337.052.676.1,1.013.152,3.848.6,7.665,1.379,11.452,2.279,3.464.823,6.885,1.807,10.275,2.892,1.681.539,3.348,1.127,5.008,1.732.827.3,1.648.62,2.468.938.291.113,1.758.724,2.226.912a118.919,118.919,0,0,1,18.29,10.018c1.44.959,2.846,1.969,4.239,2.994.164.12.289.213.4.289l.124.1c.68.534,1.346,1.085,2.012,1.636a103.967,103.967,0,0,1,8.249,7.665c2.158,2.216,4.183,4.557,6.122,6.965A96.845,96.845,0,0,1,261.2,148.42m-49.179,14.07c1.647,7.764.665,16.169-2.6,24.7a16.955,16.955,0,0,0-.856,1.783c-.445.9-.948,1.765-1.452,2.631-.483.832-1.024,1.629-1.564,2.423l-.208.31c-.089.1-.192.224-.324.383a34.589,34.589,0,0,1-3.689,3.719c-.087.076-.147.132-.215.192s-.125.088-.207.148a31.988,31.988,0,0,1-2.776,1.731c-.331.189-.671.366-1.012.537-.21.088-1.158.516-1.481.631a33.45,33.45,0,0,1-4.592,1.221c-.143.03-.4.068-.675.105-.64.057-1.282.095-1.923.124a39.452,39.452,0,0,1-5.488-.181c-.112-.02-.242-.043-.407-.071-.8-.137-1.6-.317-2.4-.5A47.647,47.647,0,0,1,175.426,201c-.432-.146-.861-.3-1.286-.467.58.218-1.09-.471-1.454-.642a52.322,52.322,0,0,1-5.1-2.822c-.528-.326-2.954-2.084-3.159-2.18-1.072-.88-2.105-1.805-3.107-2.764a47.842,47.842,0,0,1-3.352-3.619l-.139-.162-.14-.194c-.637-.872-1.218-1.784-1.787-2.7a36.955,36.955,0,0,1-1.87-3.483c.331.574-.973-2.689-1.179-3.394-.189-.657-.68-3.633-.741-3.626a35.019,35.019,0,0,1,0-4.61c.024-.249.042-.426.052-.564.094-.5.2-.993.3-1.487a34.621,34.621,0,0,1,1.247-4.192c.043-.117.081-.211.118-.3.334-.723.7-1.432,1.07-2.136a43.831,43.831,0,0,1,3.221-5.064c2.989-4.174,1.489-10.139-2.016-13.541a45.932,45.932,0,0,1,7.149-5.91,44.423,44.423,0,0,1,5.639-3.172,46.338,46.338,0,0,1,7.236-2.17c19.433-2.546,32.174,13.137,35.9,30.69M65.334,197.266q1.553,5.542,3.622,10.964-1.89-4.2-3.437-8.528c-.076-.812-.126-1.625-.185-2.437m259.809-5.525c-.985-25.234-8.3-49.9-23.174-71.255q-.653-1.317-1.343-2.622a82.934,82.934,0,0,1,7.659,8.932,86.091,86.091,0,0,1,12.7,25.146,90.4,90.4,0,0,1,4.525,27.777,110.275,110.275,0,0,1-.362,12.022" transform="translate(198.779 10295.417)" fill="#f1f1db"/>
    <g id="Grupo_1208291" data-name="Grupo 1208291" transform="translate(191.672 10257.819)">
      <g id="Grupo_1208290" data-name="Grupo 1208290" clip-path="url(#clip-path)">
        <g id="Grupo_1208264" data-name="Grupo 1208264" transform="translate(0 0.001)">
          <g id="Grupo_1208263" data-name="Grupo 1208263" clip-path="url(#clip-path-2)">
            <path id="Trazado_1404824" data-name="Trazado 1404824" d="M292.808,332.587l1.9-.868a.156.156,0,0,0,.077-.206l-.868-1.9A.156.156,0,0,1,294,329.4l1.078-.492a.156.156,0,0,1,.207.077l.868,1.9a.156.156,0,0,0,.207.077l1.9-.868a.156.156,0,0,1,.207.077l.492,1.078a.156.156,0,0,1-.077.207l-1.9.868a.156.156,0,0,0-.077.207l.868,1.9a.156.156,0,0,1-.077.207l-1.078.492a.156.156,0,0,1-.207-.077l-.868-1.9a.156.156,0,0,0-.207-.077l-1.9.868a.156.156,0,0,1-.207-.077l-.492-1.078a.156.156,0,0,1,.077-.207" transform="translate(-192.426 -216.212)" fill="#b2b283"/>
            <path id="Trazado_1404825" data-name="Trazado 1404825" d="M.091,574l1.9-.868a.156.156,0,0,0,.077-.206l-.868-1.9a.156.156,0,0,1,.077-.207l1.078-.492a.156.156,0,0,1,.207.077l.868,1.9a.156.156,0,0,0,.207.077l1.9-.868a.156.156,0,0,1,.207.077l.492,1.078a.156.156,0,0,1-.077.207l-1.9.868a.156.156,0,0,0-.077.207l.868,1.9a.156.156,0,0,1-.077.207l-1.078.492a.156.156,0,0,1-.207-.077l-.868-1.9a.156.156,0,0,0-.207-.077l-1.9.868a.156.156,0,0,1-.207-.077l-.492-1.078A.156.156,0,0,1,.091,574" transform="translate(0 -374.912)" fill="#b2b283"/>
            <path id="Trazado_1404826" data-name="Trazado 1404826" d="M983.583,378.056l.737-1.956a.156.156,0,0,0-.091-.2l-1.956-.737a.156.156,0,0,1-.091-.2l.418-1.109a.156.156,0,0,1,.2-.091l1.956.737a.156.156,0,0,0,.2-.091l.737-1.956a.156.156,0,0,1,.2-.091l1.108.418a.156.156,0,0,1,.091.2l-.737,1.956a.156.156,0,0,0,.091.2l1.956.737a.156.156,0,0,1,.091.2l-.418,1.109a.156.156,0,0,1-.2.091l-1.956-.737a.156.156,0,0,0-.2.091l-.737,1.956a.156.156,0,0,1-.2.091l-1.109-.418a.156.156,0,0,1-.091-.2" transform="translate(-645.66 -244.777)" fill="#b2b283"/>
            <path id="Trazado_1404827" data-name="Trazado 1404827" d="M731.1,446.788l-.159-1.8a.135.135,0,0,0-.146-.123l-1.8.159a.135.135,0,0,1-.147-.123l-.09-1.023a.135.135,0,0,1,.123-.147l1.805-.158a.135.135,0,0,0,.123-.147l-.159-1.8a.135.135,0,0,1,.123-.146l1.023-.09a.135.135,0,0,1,.146.123l.159,1.8a.135.135,0,0,0,.146.123l1.8-.158a.135.135,0,0,1,.147.123l.09,1.023a.135.135,0,0,1-.123.146l-1.805.159a.135.135,0,0,0-.123.146l.159,1.805a.135.135,0,0,1-.123.146l-1.023.09a.135.135,0,0,1-.146-.123" transform="translate(-479.068 -290.155)" fill="#b2b283"/>
            <path id="Trazado_1404828" data-name="Trazado 1404828" d="M727.843,144.793a3.176,3.176,0,1,1,4.208,1.57,3.179,3.179,0,0,1-4.208-1.57m.865-.4a2.225,2.225,0,1,0,1.1-2.948,2.227,2.227,0,0,0-1.1,2.948" transform="translate(-478.281 -92.23)" fill="#b2b283"/>
            <path id="Trazado_1404829" data-name="Trazado 1404829" d="M94.583,342.373a3.176,3.176,0,1,1,4.208,1.57,3.179,3.179,0,0,1-4.208-1.57m.865-.4a2.225,2.225,0,1,0,1.1-2.948,2.227,2.227,0,0,0-1.1,2.948" transform="translate(-61.989 -222.115)" fill="#b2b283"/>
            <path id="Trazado_1404830" data-name="Trazado 1404830" d="M124.179,717.259a3.068,3.068,0,1,1,4.065,1.517,3.071,3.071,0,0,1-4.065-1.517m.836-.382a2.149,2.149,0,1,0,1.062-2.847,2.151,2.151,0,0,0-1.062,2.847" transform="translate(-81.451 -468.658)" fill="#b2b283"/>
            <path id="Trazado_1404831" data-name="Trazado 1404831" d="M545.825,3.8a2.679,2.679,0,1,1,3.549,1.325A2.682,2.682,0,0,1,545.825,3.8m.73-.333a1.877,1.877,0,1,0,.928-2.486,1.879,1.879,0,0,0-.928,2.486" transform="translate(-358.655 -0.004)" fill="#b2b283"/>
            <path id="Trazado_1404832" data-name="Trazado 1404832" d="M486.45,359.5a3.068,3.068,0,1,1,4.065,1.517,3.072,3.072,0,0,1-4.065-1.517m.836-.382a2.149,2.149,0,1,0,1.062-2.847,2.151,2.151,0,0,0-1.062,2.847" transform="translate(-319.6 -233.476)" fill="#b2b283"/>
            <path id="Trazado_1404833" data-name="Trazado 1404833" d="M874.4,173.2a13.011,13.011,0,0,0-23.556,4.645,9.108,9.108,0,0,0-14.6,8.958l-17.086,5.474h105.67l-23.831-5.354a6.29,6.29,0,0,0-1.475-4.977,6.163,6.163,0,0,0-6.267-1.659A10.082,10.082,0,0,0,874.4,173.2" transform="translate(-538.496 -109.839)" fill="#f5f5e4"/>
            <path id="Trazado_1404834" data-name="Trazado 1404834" d="M57.56,239.2l65.9-3.563L109.7,232.026a5.034,5.034,0,0,0-1.412-5.066,5.109,5.109,0,0,0-6.313-.221,5.738,5.738,0,0,0-11.2-2.388,8.2,8.2,0,1,0-15.71,4.715,5.292,5.292,0,0,0-7.078.622,5.189,5.189,0,0,0-.438,5.792L57.56,239.2" transform="translate(-37.839 -143.522)" fill="#f5f5e4"/>
            <path id="Trazado_1404835" data-name="Trazado 1404835" d="M208.715,97.285l127.656-7.2-17.92-4.8a6.274,6.274,0,0,0-.185-7.574c-2.167-2.375-6.724-2.418-9.422.739a8.492,8.492,0,0,0-14.964-7.574,13.948,13.948,0,0,0-27.9,0c-3.438-6.42-10.75-9.37-16.812-7.39-7.239,2.364-11.56,11.387-8.129,19.582a7.654,7.654,0,0,0-12.378,8.5l-19.952,5.727" transform="translate(-137.205 -37.477)" fill="#f5f5e4"/>
            <path id="Trazado_1404836" data-name="Trazado 1404836" d="M469.451,518.85q-.8,1.571-1.662,3.112-1.571.944-3.177,1.88c-32.757,19.038-69.44,30.278-109.036,33.407q-11.421.9-23.177.9c-.525,0-1.05,0-1.578-.006q-1.6-.967-3.169-2c59.753.827,104.757-15.673,135.98-33.8q2.967-1.723,5.818-3.491" transform="translate(-215.392 -341.083)" fill="#595942"/>
            <path id="Trazado_1404837" data-name="Trazado 1404837" d="M482.054,578.771a98.391,98.391,0,0,1-113.917,24.4c46.073.585,83.973-10.082,113.917-24.4" transform="translate(-242.006 -380.473)" fill="#595942"/>
            <path id="Trazado_1404838" data-name="Trazado 1404838" d="M256.894,686.1s-15.914-20.3-15.626-46.206-20.017-16.814-24.856-37.877,4.08-40.874-9.583-43.434c0,0,23.245-.759,25.705,20.3,2.193,18.782,13.5,8.96,24.36,29.413s4.149,32.959,18.533,38.223a411.579,411.579,0,0,1-4.338,45.745Z" transform="translate(-135.965 -367.196)" fill="#afc199"/>
            <path id="Trazado_1404839" data-name="Trazado 1404839" d="M240.841,819.847s-13.679.967-18.582-14.853-21.771-9.219-27.6-26.714-8.88-44.184-31.254-33.809c0,0,15.943-13.59,32.156-4.184,19.409,11.261,10.65,26.864,22.256,29.753s24.61,7.295,26.752,22.756c-2.72,17.817-3.73,27.051-3.73,27.051" transform="translate(-107.42 -484.47)" fill="#366400"/>
            <path id="Trazado_1404840" data-name="Trazado 1404840" d="M206.746,745.042a25.632,25.632,0,0,1,20.394,18.945c3.983,14.587,7.693,24.982,18.967,27.24s14.219,7.808,14.695,13.746" transform="translate(-135.911 -489.777)" fill="none" stroke="#789674" stroke-miterlimit="10" stroke-width="1.737"/>
            <path id="Trazado_1404841" data-name="Trazado 1404841" d="M246.7,593.2s-.569,27.325,13.947,35.295,18.786,22.222,19.64,38.142,8.823,16.923,8.823,16.923" transform="translate(-162.174 -389.959)" fill="none" stroke="#3a6853" stroke-miterlimit="10" stroke-width="1.737"/>
            <path id="Trazado_1404842" data-name="Trazado 1404842" d="M764.472,669.679s.737,49.949,0,71.084c13.762,1.6,20.275-9.461,21.012-17.571s1.966-9.093,10.2-13.025S805.759,703.409,806.5,691s5.653-15.236,15.974-18.677,1.72-23.592,8.478-27.033,29-15.359,19.661-22.732-18.309,6.267-26.173,11.919-15.728.369-19.046,7.619-1.843,15.081-10.936,15.114c-8.478.031-14.838,4.362-17.971,10.26s-12.011,2.211-12.011,2.211" transform="translate(-502.548 -407.853)" fill="#afc199"/>
            <path id="Trazado_1404843" data-name="Trazado 1404843" d="M843.023,649.874s-19.077,8.018-27.371,27.094-25.159,17.141-31.794,35.389S767.7,729.775,767.7,729.775" transform="translate(-504.671 -427.215)" fill="none" stroke="#588453" stroke-miterlimit="10" stroke-width="1.737"/>
            <path id="Trazado_1404844" data-name="Trazado 1404844" d="M754.34,534.412a54.392,54.392,0,0,0,14.377-22.118c4.424-13.547,15.39-17.694,20.735-18.432s6.267-1.966,8.479-9.554,6.267-10.352,16.588-10.352,13.086-11.243,16.957-18.8,19.169-5.714,18.247,6.083-13.824,8.294-13.824,20.92-12.349,11.52-20.09,15.943-10.542,12.5-11.236,19.289c-1.106,10.813-16.227,6.515-18.254,17.021s-5.53,37.047-28.938,36.863c-2.212-29.122-3.041-36.863-3.041-36.863" transform="translate(-495.888 -296.24)" fill="#366400"/>
            <path id="Trazado_1404845" data-name="Trazado 1404845" d="M764.472,580.038s12.841-2.4,17.264-21.012,23.961-22.671,31.886-35.757,26.92-17.327,29.864-29.583" transform="translate(-502.548 -324.54)" fill="none" stroke="#8a9e7d" stroke-miterlimit="10" stroke-width="1.737"/>
            <path id="Trazado_1404846" data-name="Trazado 1404846" d="M759.076,508.681s7.135-.914,8.67-11.7,2.6-14.905,9.929-19.04,10.875-9.377,11.8-16.776,2.965-15.4,9.221-18.608,11.786-6.1,13.138-13.555,7.147-7.742,4.354-12.625-12.194-4.416-16.1,3.631-14.191,5.449-17.053,13.9-2.828,13.287-10.762,17.839-16.592,11.739-16.983,26.658a212.792,212.792,0,0,0,3.794,30.283" transform="translate(-496.507 -271.641)" fill="#afc199"/>
            <path id="Trazado_1404847" data-name="Trazado 1404847" d="M762.594,504.623s.33-15.351,10.22-22.385,17.868-16.656,20.3-26.583,10.519-11.858,15.11-15.93a18.021,18.021,0,0,0,5.6-8.511" transform="translate(-501.314 -283.472)" fill="none" stroke="#588453" stroke-miterlimit="10" stroke-width="1.737"/>
            <path id="Trazado_1404848" data-name="Trazado 1404848" d="M179.671,456.238c0,5.706-10.331,22.158-10.331,22.158s-10.331-16.452-10.331-22.158a10.331,10.331,0,1,1,20.662,0" transform="translate(-104.529 -293.131)" fill="#f0b068"/>
            <path id="Trazado_1404849" data-name="Trazado 1404849" d="M184.464,466.249a5.113,5.113,0,1,1-5.113-5.113,5.113,5.113,0,0,1,5.113,5.113" transform="translate(-114.54 -303.143)" fill="#fff"/>
            <path id="Trazado_1404850" data-name="Trazado 1404850" d="M507.933,211.817H390.761a8.617,8.617,0,0,0-8.617,8.617v258.12a8.617,8.617,0,0,0,8.617,8.617H507.933a8.617,8.617,0,0,0,8.617-8.617V220.434a8.617,8.617,0,0,0-8.617-8.617" transform="translate(-251.214 -139.245)" fill="#9c9c72"/>
            <path id="Trazado_1404851" data-name="Trazado 1404851" d="M510.4,230.913H495.508a.755.755,0,0,0-.755.755v5.711a3.068,3.068,0,0,1-3.068,3.068H430.151a3.068,3.068,0,0,1-3.068-3.068v-5.711a.755.755,0,0,0-.755-.755H411.434a11.83,11.83,0,0,0-11.83,11.831V481.35a11.831,11.831,0,0,0,11.831,11.831H510.4a11.831,11.831,0,0,0,11.831-11.831V242.744A11.831,11.831,0,0,0,510.4,230.913" transform="translate(-262.692 -151.799)" fill="#fff"/>
            <path id="Trazado_1404852" data-name="Trazado 1404852" d="M564.827,238.7h-26.7a.624.624,0,0,1-.624-.624v-.809a.624.624,0,0,1,.624-.624h26.7a.624.624,0,0,1,.624.624v.809a.624.624,0,0,1-.624.624" transform="translate(-353.344 -155.565)" fill="#fff"/>
            <path id="Trazado_1404853" data-name="Trazado 1404853" d="M634.147,236.225a1.781,1.781,0,1,1-1.781-1.781,1.781,1.781,0,0,1,1.781,1.781" transform="translate(-414.533 -154.12)" fill="#fff"/>
            <path id="Trazado_1404854" data-name="Trazado 1404854" d="M556.6,974.735H511.925a.609.609,0,0,1-.609-.609v-.791a.609.609,0,0,1,.609-.609H556.6a.61.61,0,0,1,.61.609v.791a.61.61,0,0,1-.61.609" transform="translate(-336.129 -639.451)" fill="#595942"/>
            <path id="Trazado_1404855" data-name="Trazado 1404855" d="M375.761,326.106h1.722v-9.534h-1.722a.709.709,0,0,0-.709.709V325.4a.709.709,0,0,0,.709.709" transform="translate(-246.552 -208.109)" fill="#595942"/>
            <path id="Trazado_1404856" data-name="Trazado 1404856" d="M375.761,393.489h1.722V373.861h-1.722a.709.709,0,0,0-.709.709V392.78a.709.709,0,0,0,.709.709" transform="translate(-246.552 -245.77)" fill="#595942"/>
            <path id="Trazado_1404857" data-name="Trazado 1404857" d="M375.761,472.055h1.722V452.427h-1.722a.709.709,0,0,0-.709.709v18.211a.709.709,0,0,0,.709.708" transform="translate(-246.552 -297.417)" fill="#595942"/>
            <path id="Trazado_1404858" data-name="Trazado 1404858" d="M776.153,428.928h-1.722V396.776h1.722a.709.709,0,0,1,.708.709V428.22a.709.709,0,0,1-.708.709" transform="translate(-509.095 -260.834)" fill="#595942"/>
            <path id="Trazado_1404859" data-name="Trazado 1404859" d="M144.3,901.219H95.055a2.493,2.493,0,0,1-2.493-2.493v-35.9a2.492,2.492,0,0,1,2.493-2.493H144.3a2.492,2.492,0,0,1,2.493,2.493v35.9a2.493,2.493,0,0,1-2.493,2.493" transform="translate(-60.848 -565.564)" fill="#366400"/>
            <rect id="Rectángulo_458726" data-name="Rectángulo 458726" width="54.232" height="5.386" transform="translate(31.714 306.687)" fill="#fff"/>
          </g>
        </g>
        <g id="Grupo_1208266" data-name="Grupo 1208266" transform="translate(37.911 289.586)">
          <g id="Grupo_1208265" data-name="Grupo 1208265" clip-path="url(#clip-path-3)">
            <rect id="Rectángulo_458728" data-name="Rectángulo 458728" width="10.344" height="7.149" transform="translate(-1.124 0.257) rotate(-12.865)" fill="url(#linear-gradient)"/>
          </g>
        </g>
        <g id="Grupo_1208273" data-name="Grupo 1208273" transform="translate(0 0.001)">
          <g id="Grupo_1208272" data-name="Grupo 1208272" clip-path="url(#clip-path-2)">
            <g id="Grupo_1208271" data-name="Grupo 1208271" transform="translate(46.074 302.068)" opacity="0.7" style="mix-blend-mode: multiply;isolation: isolate">
              <g id="Grupo_1208270" data-name="Grupo 1208270">
                <g id="Grupo_1208269" data-name="Grupo 1208269" clip-path="url(#clip-path-5)">
                  <g id="Grupo_1208268" data-name="Grupo 1208268">
                    <g id="Grupo_1208267" data-name="Grupo 1208267" clip-path="url(#clip-path-6)">
                      <rect id="Rectángulo_458729" data-name="Rectángulo 458729" width="34.831" height="34.831" transform="translate(-7.429 2.117) rotate(-15.906)" fill="url(#linear-gradient-2)"/>
                    </g>
                  </g>
                </g>
              </g>
            </g>
            <path id="Trazado_1404862" data-name="Trazado 1404862" d="M121.292,848.129h-4.874a.457.457,0,0,0-.457.457v2.724h5.788v-2.724a.457.457,0,0,0-.457-.457" transform="translate(-76.23 -557.544)" fill="#fff"/>
          </g>
        </g>
        <g id="Grupo_1208275" data-name="Grupo 1208275" transform="translate(45.66 302.042)">
          <g id="Grupo_1208274" data-name="Grupo 1208274" clip-path="url(#clip-path-7)">
            <rect id="Rectángulo_458732" data-name="Rectángulo 458732" width="32.549" height="32.549" transform="translate(-6.942 1.978) rotate(-15.906)" fill="url(#linear-gradient-3)"/>
          </g>
        </g>
        <g id="Grupo_1208289" data-name="Grupo 1208289" transform="translate(0 0.001)">
          <g id="Grupo_1208288" data-name="Grupo 1208288" clip-path="url(#clip-path-2)">
            <path id="Trazado_1404864" data-name="Trazado 1404864" d="M164.056,904.026a8.327,8.327,0,1,1-8.326-8.326,8.326,8.326,0,0,1,8.326,8.326" transform="translate(-96.9 -588.816)" fill="#fff"/>
            <path id="Trazado_1404865" data-name="Trazado 1404865" d="M464.141,396.335H430.59a2.976,2.976,0,0,1-2.976-2.976V359.808a2.976,2.976,0,0,1,2.976-2.976h33.551a2.976,2.976,0,0,1,2.976,2.976v33.551a2.976,2.976,0,0,1-2.976,2.976" transform="translate(-281.105 -234.575)" fill="#dfdfa4"/>
            <g id="Grupo_1208278" data-name="Grupo 1208278" transform="translate(197.354 134.906)" opacity="0.2">
              <g id="Grupo_1208277" data-name="Grupo 1208277">
                <g id="Grupo_1208276" data-name="Grupo 1208276" clip-path="url(#clip-path-9)">
                  <path id="Trazado_1404866" data-name="Trazado 1404866" d="M618.225,397.11h-40.66a1.549,1.549,0,0,1-1.549-1.55v-.26a1.549,1.549,0,0,1,1.549-1.549h40.66a1.55,1.55,0,0,1,1.55,1.549v.26a1.55,1.55,0,0,1-1.55,1.55" transform="translate(-576.015 -393.751)" fill="#969695"/>
                  <path id="Trazado_1404867" data-name="Trazado 1404867" d="M627.312,419.18H577.565a1.55,1.55,0,0,1-1.55-1.55v-.26a1.55,1.55,0,0,1,1.55-1.549h49.747a1.55,1.55,0,0,1,1.55,1.549v.26a1.55,1.55,0,0,1-1.55,1.55" transform="translate(-576.015 -408.259)" fill="#969695"/>
                  <path id="Trazado_1404868" data-name="Trazado 1404868" d="M605.27,441.238h-27.7a1.55,1.55,0,0,1-1.55-1.55v-.26a1.55,1.55,0,0,1,1.55-1.549h27.7a1.55,1.55,0,0,1,1.55,1.549v.26a1.55,1.55,0,0,1-1.55,1.55" transform="translate(-576.015 -422.76)" fill="#969695"/>
                </g>
              </g>
            </g>
            <path id="Trazado_1404869" data-name="Trazado 1404869" d="M579.467,362.276l-2.133,1.122.407-2.376-1.726-1.682,2.385-.347,1.067-2.162,1.067,2.162,2.385.347-1.726,1.682.407,2.376Z" transform="translate(-378.661 -234.575)" fill="#f0b068"/>
            <path id="Trazado_1404870" data-name="Trazado 1404870" d="M602.976,362.276l-2.134,1.122.407-2.376-1.726-1.682,2.385-.347,1.067-2.162,1.067,2.162,2.385.347-1.726,1.682.407,2.376Z" transform="translate(-394.115 -234.575)" fill="#f0b068"/>
            <path id="Trazado_1404871" data-name="Trazado 1404871" d="M626.484,362.276l-2.134,1.122.407-2.376-1.726-1.682,2.385-.347,1.067-2.162,1.067,2.162,2.385.347-1.726,1.682.407,2.376Z" transform="translate(-409.569 -234.575)" fill="#f0b068"/>
            <path id="Trazado_1404872" data-name="Trazado 1404872" d="M649.993,362.276l-2.134,1.122.407-2.376-1.726-1.682,2.385-.347,1.067-2.162,1.067,2.162,2.385.347-1.726,1.682.407,2.376Z" transform="translate(-425.023 -234.575)" fill="#f0b068"/>
            <path id="Trazado_1404873" data-name="Trazado 1404873" d="M673.5,362.276l-2.133,1.122.407-2.376-1.726-1.682,2.385-.347,1.067-2.162,1.067,2.162,2.385.347-1.726,1.682.407,2.376Z" transform="translate(-440.477 -234.575)" fill="#f0b068"/>
            <path id="Trazado_1404874" data-name="Trazado 1404874" d="M464.141,595.507H430.59a2.976,2.976,0,0,1-2.976-2.976V558.98A2.976,2.976,0,0,1,430.59,556h33.551a2.976,2.976,0,0,1,2.976,2.976v33.551a2.976,2.976,0,0,1-2.976,2.976" transform="translate(-281.105 -365.507)" fill="#dfdfa4"/>
            <g id="Grupo_1208281" data-name="Grupo 1208281" transform="translate(197.354 203.147)" opacity="0.2">
              <g id="Grupo_1208280" data-name="Grupo 1208280">
                <g id="Grupo_1208279" data-name="Grupo 1208279" clip-path="url(#clip-path-9)">
                  <path id="Trazado_1404875" data-name="Trazado 1404875" d="M618.225,596.283h-40.66a1.549,1.549,0,0,1-1.549-1.55v-.26a1.549,1.549,0,0,1,1.549-1.549h40.66a1.55,1.55,0,0,1,1.55,1.549v.26a1.55,1.55,0,0,1-1.55,1.55" transform="translate(-576.015 -592.924)" fill="#969695"/>
                  <path id="Trazado_1404876" data-name="Trazado 1404876" d="M627.312,618.353H577.565a1.55,1.55,0,0,1-1.55-1.55v-.26a1.55,1.55,0,0,1,1.55-1.549h49.747a1.55,1.55,0,0,1,1.55,1.549v.26a1.55,1.55,0,0,1-1.55,1.55" transform="translate(-576.015 -607.432)" fill="#969695"/>
                  <path id="Trazado_1404877" data-name="Trazado 1404877" d="M605.27,640.41h-27.7a1.55,1.55,0,0,1-1.55-1.55v-.26a1.55,1.55,0,0,1,1.55-1.549h27.7a1.55,1.55,0,0,1,1.55,1.549v.26a1.55,1.55,0,0,1-1.55,1.55" transform="translate(-576.015 -621.932)" fill="#969695"/>
                </g>
              </g>
            </g>
            <path id="Trazado_1404878" data-name="Trazado 1404878" d="M579.467,561.448l-2.133,1.122.407-2.376-1.726-1.683,2.385-.346L579.467,556l1.067,2.162,2.385.346-1.726,1.683.407,2.376Z" transform="translate(-378.661 -365.507)" fill="#f0b068"/>
            <path id="Trazado_1404879" data-name="Trazado 1404879" d="M602.976,561.448l-2.134,1.122.407-2.376-1.726-1.683,2.385-.346L602.976,556l1.067,2.162,2.385.346-1.726,1.683.407,2.376Z" transform="translate(-394.115 -365.507)" fill="#f0b068"/>
            <path id="Trazado_1404880" data-name="Trazado 1404880" d="M626.484,561.448l-2.134,1.122.407-2.376-1.726-1.683,2.385-.346L626.484,556l1.067,2.162,2.385.346-1.726,1.683.407,2.376Z" transform="translate(-409.569 -365.507)" fill="#f0b068"/>
            <path id="Trazado_1404881" data-name="Trazado 1404881" d="M649.993,561.448l-2.134,1.122.407-2.376-1.726-1.683,2.385-.346L649.993,556l1.067,2.162,2.385.346-1.726,1.683.407,2.376Z" transform="translate(-425.023 -365.507)" fill="#f0b068"/>
            <path id="Trazado_1404882" data-name="Trazado 1404882" d="M673.5,556.9l.711,1.44.092.187.207.03,1.589.231-1.15,1.121-.149.146.035.206.272,1.583-1.422-.748-.185-.1-.185.1-1.422.748.272-1.583.035-.206-.149-.146-1.15-1.121,1.589-.231.207-.03.092-.187Zm0-.9-1.067,2.161-2.385.347,1.726,1.682-.407,2.376,2.133-1.121,2.134,1.121-.407-2.376,1.726-1.682-2.385-.347Z" transform="translate(-440.477 -365.507)" fill="#f0b068"/>
            <path id="Trazado_1404883" data-name="Trazado 1404883" d="M464.141,806.934H430.59a2.976,2.976,0,0,1-2.976-2.976V770.407a2.976,2.976,0,0,1,2.976-2.976h33.551a2.976,2.976,0,0,1,2.976,2.976v33.551a2.976,2.976,0,0,1-2.976,2.976" transform="translate(-281.105 -504.495)" fill="#dfdfa4"/>
            <g id="Grupo_1208284" data-name="Grupo 1208284" transform="translate(197.354 275.585)" opacity="0.2">
              <g id="Grupo_1208283" data-name="Grupo 1208283">
                <g id="Grupo_1208282" data-name="Grupo 1208282" clip-path="url(#clip-path-9)">
                  <path id="Trazado_1404884" data-name="Trazado 1404884" d="M618.225,807.71h-40.66a1.549,1.549,0,0,1-1.549-1.55v-.26a1.549,1.549,0,0,1,1.549-1.549h40.66a1.55,1.55,0,0,1,1.55,1.549v.26a1.55,1.55,0,0,1-1.55,1.55" transform="translate(-576.015 -804.351)" fill="#969695"/>
                  <path id="Trazado_1404885" data-name="Trazado 1404885" d="M627.312,829.78H577.565a1.55,1.55,0,0,1-1.55-1.55v-.26a1.55,1.55,0,0,1,1.55-1.549h49.747a1.55,1.55,0,0,1,1.55,1.549v.26a1.55,1.55,0,0,1-1.55,1.55" transform="translate(-576.015 -818.859)" fill="#969695"/>
                  <path id="Trazado_1404886" data-name="Trazado 1404886" d="M605.27,851.837h-27.7a1.55,1.55,0,0,1-1.55-1.55v-.26a1.55,1.55,0,0,1,1.55-1.549h27.7a1.55,1.55,0,0,1,1.55,1.549v.26a1.55,1.55,0,0,1-1.55,1.55" transform="translate(-576.015 -833.359)" fill="#969695"/>
                </g>
              </g>
            </g>
            <g id="Grupo_1208287" data-name="Grupo 1208287" transform="translate(197.354 262.936)" opacity="0.2">
              <g id="Grupo_1208286" data-name="Grupo 1208286">
                <g id="Grupo_1208285" data-name="Grupo 1208285" clip-path="url(#clip-path-12)">
                  <path id="Trazado_1404887" data-name="Trazado 1404887" d="M579.467,768.328l.711,1.44.092.187.207.03,1.589.231-1.15,1.121-.149.146.035.205.272,1.583-1.422-.748-.185-.1-.185.1-1.422.748.272-1.583.035-.205-.149-.146-1.15-1.121,1.589-.231.207-.03.092-.187Zm0-.9-1.067,2.161-2.385.346,1.726,1.683L577.333,774l2.134-1.121L581.6,774l-.407-2.375,1.726-1.683-2.385-.346Z" transform="translate(-576.015 -767.431)" fill="#dfdfa4"/>
                  <path id="Trazado_1404888" data-name="Trazado 1404888" d="M602.976,768.328l.711,1.44.092.187.207.03,1.589.231-1.15,1.121-.149.146.035.205.272,1.583-1.422-.748-.185-.1-.185.1-1.422.748.272-1.583.035-.205-.149-.146-1.15-1.121,1.589-.231.207-.03.092-.187Zm0-.9-1.067,2.161-2.385.346,1.726,1.683L600.842,774l2.133-1.121L605.109,774l-.407-2.375,1.726-1.683-2.385-.346Z" transform="translate(-591.469 -767.431)" fill="#dfdfa4"/>
                  <path id="Trazado_1404889" data-name="Trazado 1404889" d="M626.484,768.328l.711,1.44.092.187.207.03,1.589.231-1.15,1.121-.149.146.035.205.272,1.583-1.422-.748-.185-.1-.185.1-1.422.748.272-1.583.035-.205-.149-.146-1.15-1.121,1.589-.231.207-.03.092-.187Zm0-.9-1.067,2.161-2.385.346,1.726,1.683L624.35,774l2.133-1.121L628.617,774l-.407-2.375,1.726-1.683-2.385-.346Z" transform="translate(-606.923 -767.431)" fill="#dfdfa4"/>
                  <path id="Trazado_1404890" data-name="Trazado 1404890" d="M649.993,768.328l.711,1.44.092.187.207.03,1.589.231-1.15,1.121-.149.146.035.205.272,1.583-1.422-.748-.185-.1-.185.1-1.422.748.272-1.583.035-.205-.149-.146-1.15-1.121,1.589-.231.207-.03.092-.187Zm0-.9-1.067,2.161-2.385.346,1.726,1.683L647.859,774l2.134-1.121L652.126,774l-.407-2.375,1.726-1.683-2.385-.346Z" transform="translate(-622.377 -767.431)" fill="#dfdfa4"/>
                  <path id="Trazado_1404891" data-name="Trazado 1404891" d="M673.5,768.328l.711,1.44.092.187.207.03,1.589.231-1.15,1.121-.149.146.035.205.272,1.583-1.422-.748-.185-.1-.185.1-1.422.748.272-1.583.035-.205-.149-.146-1.15-1.121,1.589-.231.207-.03.092-.187Zm0-.9-1.067,2.161-2.385.346,1.726,1.683L671.368,774l2.133-1.121L675.635,774l-.407-2.375,1.726-1.683-2.385-.346Z" transform="translate(-637.832 -767.431)" fill="#dfdfa4"/>
                </g>
              </g>
            </g>
            <path id="Trazado_1404892" data-name="Trazado 1404892" d="M372.48,324.166h-36.3a2.4,2.4,0,0,1-2.4-2.395v-36.3a2.4,2.4,0,0,1,2.4-2.395h36.3a2.4,2.4,0,0,1,2.395,2.395v36.3a2.4,2.4,0,0,1-2.395,2.395" transform="translate(-219.424 -186.09)" fill="#f0b068"/>
            <path id="Trazado_1404893" data-name="Trazado 1404893" d="M364.793,357.034l8.782-3.339-4.384-4.347-2.91,1.737Z" transform="translate(-239.808 -229.655)" fill="#fcf6f2"/>
            <path id="Trazado_1404894" data-name="Trazado 1404894" d="M365.472,323.736l-.679,9.278,3.443-5.811,8.737-3.286L388.7,312.808l-6.174,1.216Z" transform="translate(-239.808 -205.635)" fill="#f2eae4"/>
            <path id="Trazado_1404895" data-name="Trazado 1404895" d="M374.841,327.2l7.746,8.525,12.714-22.92Z" transform="translate(-246.413 -205.635)" fill="#fff"/>
            <path id="Trazado_1404896" data-name="Trazado 1404896" d="M354.319,323.736l-6.492-8.533,29.715-2.394Z" transform="translate(-228.654 -205.635)" fill="#fff"/>
            <rect id="Rectángulo_458737" data-name="Rectángulo 458737" width="4.287" height="49.896" transform="matrix(0.681, -0.732, 0.732, 0.681, 132.43, 254.746)" fill="#595942"/>
            <path id="Trazado_1404897" data-name="Trazado 1404897" d="M566.59,861.534l-.576.421L564.582,863l-22.7,16.551a3.315,3.315,0,0,1-4.537-.6L491.251,821.49a3.317,3.317,0,0,1,1.26-5.114l6.006-2.615L504,811.37a8.96,8.96,0,0,1,5.55-.525l23.366,5.292a9.481,9.481,0,0,1,5.32,3.337l29.1,36.5a3.881,3.881,0,0,1-.748,5.554" transform="translate(-322.459 -532.89)" fill="#366400"/>
            <path id="Trazado_1404898" data-name="Trazado 1404898" d="M564.582,869.015l-22.7,16.551a3.315,3.315,0,0,1-4.537-.6l-46.095-57.455a3.317,3.317,0,0,1,1.26-5.114l6.006-2.615s-4.694,5.546.957,10.115,14.009,4.567,15.606,13.416,13.053,11,20.636,13.086c8.479,2.335-4.607,19.911,11.366,18.157,11.3-1.239,15.074-4.018,17.5-5.538" transform="translate(-322.459 -538.907)" fill="#2b470b"/>
            <path id="Trazado_1404899" data-name="Trazado 1404899" d="M625.839,1002.35a7.756,7.756,0,1,1-7.756-7.756,7.756,7.756,0,0,1,7.756,7.756" transform="translate(-401.217 -653.827)" fill="#595942"/>
            <circle id="Elipse_13795" data-name="Elipse 13795" cx="3.609" cy="3.609" r="3.609" transform="translate(213.186 344.987) rotate(-1.145)" fill="none" stroke="#fff" stroke-miterlimit="10" stroke-width="5.791"/>
            <path id="Trazado_1404900" data-name="Trazado 1404900" d="M399.943,620.576c-1.29,8.479-4.159,18.179-3.95,20.172.292,2.828,1.636,7.588-1.258,9.311s-7.322-.46-4.582-5.806c0,0-2.045,2.542-3.243,1.252s.606-1.865,2.2-3.647,1.03-12.773,2.121-17.009c1.249-4.868,1.325-9.472-.695-13.6a15.466,15.466,0,0,0-1.058-1.832c-2.423-3.611-.368-11.335-.368-11.335l1.039-.174,6.133-1.024a28.558,28.558,0,0,1,1.179,2.753,55.34,55.34,0,0,1,2.924,11.588,34.561,34.561,0,0,1-.445,9.35" transform="translate(-254.091 -392.382)" fill="#f0b068"/>
            <path id="Trazado_1404901" data-name="Trazado 1404901" d="M400.877,599.639c-4.277,2.342-6.247,8.784-6.924,11.612a15.466,15.466,0,0,0-1.058-1.832c-2.423-3.611-.368-11.335-.368-11.335l1.038-.174,6.133-1.024a28.628,28.628,0,0,1,1.178,2.753" transform="translate(-257.505 -392.382)" fill="#ea6f0a"/>
            <path id="Trazado_1404902" data-name="Trazado 1404902" d="M370.9,559.4l10.67-2.842a2.414,2.414,0,0,0,1.787-2.457,32.478,32.478,0,0,0-3.545-12.708c-4.173-8.367-9.173-9.8-13-6.359-4.456,4.01-1.469,16.018,1.219,22.911A2.411,2.411,0,0,0,370.9,559.4" transform="translate(-239.635 -350.578)" fill="#dfdfa4"/>
            <path id="Trazado_1404903" data-name="Trazado 1404903" d="M443.545,990.427l-7.253,3.359-2.21-2.4s-2.7,3.9-4.271,4.361-13.1,1.884-15.175-1.695c-.791-1.363-1.09-2.026-.841-2.438.391-.645,2.131-.671,5.449-1.8,5.436-1.843,12.995-5.713,12.442-9.952.389-.153.78-.3,1.166-.445,2.161-.8,4.085-1.4,4.085-1.4s5.6,6.135,6.608,12.4" transform="translate(-271.964 -642.936)" fill="#162800"/>
            <path id="Trazado_1404904" data-name="Trazado 1404904" d="M238.662,1002.284l-7.984-.322-.875-3.142s-4.184,2.236-5.789,1.931-12.517-4.3-12.73-8.434a5.659,5.659,0,0,1,.127-2.279h0c.439-.914,1.9.022,5.9.615,5.679.843,14.171.847,15.614-3.176.565.056,1.133.123,1.675.189,2.1.265,3.84.568,3.84.568s2.176,8.01.217,14.05" transform="translate(-138.87 -649.149)" fill="#162800"/>
            <path id="Trazado_1404905" data-name="Trazado 1404905" d="M398.048,814.315a6.966,6.966,0,0,1-4.27,2.617h0a6.258,6.258,0,0,1-3.008-.307s-17.97-28.759-26.817-39.265c-4.681-5.557-7.511-13.693-9.137-20.125a84.786,84.786,0,0,1-1.946-10.1l12.926-18.983s2.948,6.636,7.556,24.7,7.741,28.937,15.667,42.762,9.031,18.708,9.031,18.708" transform="translate(-231.968 -478.67)" fill="#60462a"/>
            <path id="Trazado_1404906" data-name="Trazado 1404906" d="M398.048,814.315a6.966,6.966,0,0,1-4.27,2.617h0c5.064-11.115-10.227-15.674-12.192-26.978s-11.962-10.67-10.93-17.381.208-16.167-8.547-14.843a11.029,11.029,0,0,1-7.625-1.851,51.627,51.627,0,0,1-1.614-8.748l12.926-18.983s2.948,6.636,7.556,24.7,7.741,28.937,15.667,42.762,9.031,18.708,9.031,18.708" transform="translate(-231.968 -478.67)" fill="#60462a"/>
            <path id="Trazado_1404907" data-name="Trazado 1404907" d="M307.3,720.772c-6.726,11.519-13.205,25.619-20.794,46.815s-9.8,31.887-9.8,31.887-4.6,1.411-7.728-.783a5.507,5.507,0,0,1-.75-.63s3.871-37.478,9.954-60.887,10.5-36.126,10.5-36.126h12.083l10.681,3.5s2.58,4.7-4.148,16.22" transform="translate(-176.329 -460.857)" fill="#60462a"/>
            <path id="Trazado_1404908" data-name="Trazado 1404908" d="M310.064,724.736c-6.726,11.519-13.205,25.619-20.794,46.815s-9.8,31.887-9.8,31.887-4.6,1.411-7.728-.783c12.668,4.684,11.414-43.269,18.51-50.427s-2.3-21.471,6.911-25.4C305,723.48,298.27,706.8,298.27,706.8l-.1-1.782h5.363l10.681,3.5s2.58,4.7-4.148,16.22" transform="translate(-178.637 -463.462)" fill="#60462a"/>
            <path id="Trazado_1404909" data-name="Trazado 1404909" d="M353.039,493.16c-1.535,1.72-7.986,2.159-7.986,2.159l-.37-1.658.06-.952.31-4.946s3.748-8.6,7.986-9.584c0,0-.295,1.583-.563,3.744-.463,3.754-.839,9.255.563,11.238" transform="translate(-226.588 -314.346)" fill="#f0b068"/>
            <path id="Trazado_1404910" data-name="Trazado 1404910" d="M353.154,478.179s-.295,1.583-.563,3.744c-3.585.433-1.249,7.038-5.294,8.277a3.882,3.882,0,0,0-2.439,2.509l.31-4.946s3.748-8.6,7.986-9.584" transform="translate(-226.703 -314.346)" fill="#ef720c"/>
            <path id="Trazado_1404911" data-name="Trazado 1404911" d="M298.242,458.785s6.943,13.762,11.274,14.684,8.479-9.031,8.479-9.031.737.184,1.935-2.3a23.839,23.839,0,0,0,2.58-3.348l-2.027-5.683-12.257-4.424Z" transform="translate(-196.058 -294.953)" fill="#f0b068"/>
            <path id="Trazado_1404912" data-name="Trazado 1404912" d="M285.294,442.6s2.15-4.333-1.535-6.053-4.671,4.178-4.671,4.178-3.931-1.72-3.931-7.864a22.894,22.894,0,0,1-19.415,9.094,10.691,10.691,0,0,1-9.984-12.76c.8-3.821,4.034-6.75,9.984-5.672,14.254,2.58,16.1,1.475,18.185-2.333s8.971-3.318,9.832,6.143c0,0,5.268-2.5,7.126,4.054,2.888,10.184-5.591,11.214-5.591,11.214" transform="translate(-161.423 -275.418)" fill="#60462a"/>
            <path id="Trazado_1404913" data-name="Trazado 1404913" d="M285.294,460.312s2.15-4.333-1.535-6.053-4.671,4.178-4.671,4.178-3.931-1.72-3.931-7.864a22.894,22.894,0,0,1-19.415,9.094,10.691,10.691,0,0,1-9.984-12.76c.462,4.9,5.622,12.147,11.582,7.906,8.2-5.836,11.089-6.665,10.351-3.072s8.081-8.1,10.4-5.434,4.255,7.215,7.2,4.067,3.754,6.9,0,9.939" transform="translate(-161.423 -293.131)" fill="#004437"/>
            <path id="Trazado_1404914" data-name="Trazado 1404914" d="M344.436,586.307c-5.72-3-14.231-1.993-18.553-2.224h-.007c-1.337-.071-2.275-.26-2.6-.725-1.378-1.967,1.5-14.009,1.746-26.051s-2.888-20.826-1.29-26.725,6.724-12.3,6.724-12.3c4.329,1.708,6.952-.479,6.952-.479s6.505.215,9.855,3.565q.539.539.987,1.077c4.645,5.576,2.4,11.343,1.594,21.962-.86,11.3-.985,24.821.735,34.283s1.353,11.552-6.143,7.619" transform="translate(-212.271 -340.393)" fill="#dfdfa4"/>
            <path id="Trazado_1404915" data-name="Trazado 1404915" d="M350.15,591.673c-5.72-3-14.231-1.993-18.553-2.224,14.5-.249,4.408-10.663,12.5-7.73,3.488,1.264-1.044-5.54-3.046-10.136-.952-2.186.268-2.845,1.633-2.471,5.7,1.565,6.525-3.061-.6-10.432s-8.676-14.977-3.637-11.181-2.549-15.543,3.717-19.691a10.453,10.453,0,0,1,11.8,0l0,0c4.645,5.576,2.4,11.343,1.594,21.962-.86,11.3-.985,24.821.735,34.283s1.353,11.551-6.143,7.619" transform="translate(-217.985 -345.759)" fill="#dfdfa4"/>
            <path id="Trazado_1404916" data-name="Trazado 1404916" d="M200.778,575.812l-3.224-.08-8.084-14.722a.878.878,0,0,1,.791-1.3l1.7.042Z" transform="translate(-124.481 -367.943)" fill="#60462a"/>
            <path id="Trazado_1404917" data-name="Trazado 1404917" d="M259.48,595.544a95.4,95.4,0,0,1-4.21,9.156c-2.367,4.477-5.466,9.29-8.584,11.119-4.281,2.514-18.158-4.408-27.479-9.4l0,0c-4.688-2.51-8.225-4.531-8.81-4.621-1.753-.262-8.018-1.3-10.784-4.329s-2.733-5.12,2.488-4.628,7.559.185,8.971,1.905,1.966,2.7,4.669,3.256,15.085,2.69,19.078,3.8,7.1,3.7,8.754,0c.637-1.415,2.1-4.787,3.125-7.167.254-.591.481-1.12.664-1.544.28-.645.452-1.045.452-1.045Z" transform="translate(-130.018 -389.197)" fill="#f0b068"/>
            <path id="Trazado_1404918" data-name="Trazado 1404918" d="M353.323,595.544a95.415,95.415,0,0,1-4.21,9.156c-1.011-4.135-6.7-8.664-8.578-10.07.254-.591.481-1.12.664-1.544.28-.645.452-1.045.452-1.045Z" transform="translate(-223.861 -389.197)" fill="#ea6f0a"/>
            <path id="Trazado_1404919" data-name="Trazado 1404919" d="M360.255,540.936a33.858,33.858,0,0,1-4.12,13.111,2.51,2.51,0,0,1-2.955,1.131l-8.84-2.892h0l-2.088-.684a2.512,2.512,0,0,1-1.677-2.9c1.565-7.546,5.773-19.727,11.943-20.7a7.5,7.5,0,0,1,2.509,0c3.849.7,6.152,4.883,5.232,12.932" transform="translate(-223.85 -347.03)" fill="#dfdfa4"/>
            <path id="Trazado_1404920" data-name="Trazado 1404920" d="M367.589,541.138a33.857,33.857,0,0,1-4.12,13.111,2.51,2.51,0,0,1-2.955,1.131l-8.84-2.892c5.18.931,6.976-1.123,6.148-7.292s-.372-7.006,2.823-4.518,1.712-12.472,1.712-12.472c3.849.7,6.152,4.883,5.232,12.932" transform="translate(-231.183 -347.233)" fill="#dfdfa4"/>
            <path id="Trazado_1404921" data-name="Trazado 1404921" d="M677.265,700.589H569.838a3.146,3.146,0,0,1-3.146-3.146V657.4a3.146,3.146,0,0,1,3.146-3.146H677.265a3.146,3.146,0,0,1,3.146,3.146v40.039a3.146,3.146,0,0,1-3.146,3.146" transform="translate(-372.532 -430.096)" fill="#f0b068"/>
            <path id="Trazado_1404922" data-name="Trazado 1404922" d="M638.616,695.741H588.56a1.309,1.309,0,0,1,0-2.618h50.056a1.309,1.309,0,0,1,0,2.618" transform="translate(-386.047 -455.646)" fill="#fff"/>
            <path id="Trazado_1404923" data-name="Trazado 1404923" d="M647.593,720.668H588.56a1.309,1.309,0,0,1,0-2.618h59.033a1.309,1.309,0,0,1,0,2.618" transform="translate(-386.047 -472.033)" fill="#fff"/>
            <path id="Trazado_1404924" data-name="Trazado 1404924" d="M628.519,745.594H588.561a1.309,1.309,0,0,1,0-2.618h39.958a1.309,1.309,0,1,1,0,2.618" transform="translate(-386.048 -488.419)" fill="#fff"/>
            <path id="Trazado_1404925" data-name="Trazado 1404925" d="M825.37,698.984a11.928,11.928,0,1,1-11.928-11.928,11.928,11.928,0,0,1,11.928,11.928" transform="translate(-526.899 -451.658)" fill="#fff"/>
            <path id="Trazado_1404926" data-name="Trazado 1404926" d="M826.087,718.643l-3.38-3.38a.811.811,0,0,1,1.146-1.146l2.233,2.233,4.5-4.495A.811.811,0,0,1,831.729,713Z" transform="translate(-540.675 -467.804)" fill="#f0b068"/>
          </g>
        </g>
      </g>
    </g>
  </g>
</svg>
