<svg xmlns="http://www.w3.org/2000/svg" xmlns:xlink="http://www.w3.org/1999/xlink" width="83.499" height="84.288" viewBox="0 0 83.499 84.288">
  <defs>
    <clipPath id="clip-path">
      <rect id="Rectángulo_456684" data-name="Rectángulo 456684" width="83.499" height="84.288" fill="#dfdfa4"/>
    </clipPath>
    <clipPath id="clip-path-2">
      <rect id="Rectángulo_458695" data-name="Rectángulo 458695" width="72.289" height="70.93" fill="none"/>
    </clipPath>
  </defs>
  <g id="Grupo_1208302" data-name="Grupo 1208302" transform="translate(-707.711 -2047.708)">
    <g id="Grupo_1208231" data-name="Grupo 1208231">
      <g id="Grupo_1207541" data-name="Grupo 1207541" transform="translate(707.711 2047.708)">
        <g id="Grupo_1206514" data-name="Grupo 1206514">
          <g id="Grupo_1206513" data-name="Grupo 1206513" clip-path="url(#clip-path)">
            <path id="Trazado_1294880" data-name="Trazado 1294880" d="M176.031,89.78c-.1-.657-.543-.29-.44-.308-.025.39.368.25.44.308" transform="translate(-92.532 -47.108)" fill="#dfdfa4"/>
            <path id="Trazado_1294881" data-name="Trazado 1294881" d="M172.186,75.475l.179.085-.554-.848Z" transform="translate(-90.548 -39.375)" fill="#dfdfa4"/>
            <path id="Trazado_1294882" data-name="Trazado 1294882" d="M170.225,67.512l.637.345c-.193-.615-.445-1.313-.706-1.954a6.487,6.487,0,0,1-.514-1.7c-.5.727.717,2.011.694,3.106Z" transform="translate(-89.342 -33.837)" fill="#dfdfa4"/>
            <path id="Trazado_1294883" data-name="Trazado 1294883" d="M170.37,57.373c-.052-.121-.118-.29-.213-.584-.17.284-.468-.57.2.735a1.123,1.123,0,0,1,.012-.151" transform="translate(-89.563 -29.921)" fill="#dfdfa4"/>
            <path id="Trazado_1294884" data-name="Trazado 1294884" d="M170.847,57.9c.253.592.052-.471,0,0" transform="translate(-90.04 -30.451)" fill="#dfdfa4"/>
            <path id="Trazado_1294885" data-name="Trazado 1294885" d="M168.683,51.778c-.478-.744-.541-.509-.569.047l.562.674c.07-.224-.211-.93.007-.72" transform="translate(-88.6 -27.041)" fill="#dfdfa4"/>
            <path id="Trazado_1294886" data-name="Trazado 1294886" d="M166.736,51.676c.027-.1,0-.213-.278-.346l.143.171.135.175" transform="translate(-87.727 -27.052)" fill="#dfdfa4"/>
            <path id="Trazado_1294887" data-name="Trazado 1294887" d="M167.2,52.413c-.212.016.036.1.327.4l-.57-.75c-.048.158-.242.261.243.352" transform="translate(-87.949 -27.437)" fill="#dfdfa4"/>
            <path id="Trazado_1294888" data-name="Trazado 1294888" d="M168.13,54.74c.065.485.194,1.08-.338.4.674,1.434,1.048,1.043.338-.4" transform="translate(-88.43 -28.849)" fill="#dfdfa4"/>
            <path id="Trazado_1294889" data-name="Trazado 1294889" d="M168.51,65.112a1.766,1.766,0,0,1-.162-.655c-.042-.252-.1-.462-.19-.412l0,.315c0,.157-.009.317-.009.317Z" transform="translate(-88.619 -33.749)" fill="#dfdfa4"/>
            <path id="Trazado_1294890" data-name="Trazado 1294890" d="M163.28,43.3c-.066-.332-.324-.887-.166-1.038-.15.032-.171.443-.294.591,0,0,.121.107.234.22l.226.227" transform="translate(-85.81 -22.272)" fill="#dfdfa4"/>
            <path id="Trazado_1294891" data-name="Trazado 1294891" d="M162.031,42.789l-.707-.646c.42.708.6.773.707.646" transform="translate(-85.021 -22.21)" fill="#dfdfa4"/>
            <path id="Trazado_1294892" data-name="Trazado 1294892" d="M165.3,52.028l.544.575-.607-.7c-.148-.177-.313-.344-.431-.471l-.2-.21.136.252s.292.271.557.559" transform="translate(-86.751 -26.993)" fill="#dfdfa4"/>
            <path id="Trazado_1294893" data-name="Trazado 1294893" d="M159.339,35.963l-.479-.239-.493-.221.392.224Z" transform="translate(-83.464 -18.711)" fill="#dfdfa4"/>
            <path id="Trazado_1294894" data-name="Trazado 1294894" d="M154.746,30.5c.47.123,0-.712.4-.5a4.949,4.949,0,0,0-1.5-.957,3.3,3.3,0,0,1,1.094,1.461" transform="translate(-80.978 -15.302)" fill="#dfdfa4"/>
            <path id="Trazado_1294895" data-name="Trazado 1294895" d="M151.959,28.207a6.326,6.326,0,0,0,.8.392,3.027,3.027,0,0,0-.8-.392" transform="translate(-80.086 -14.866)" fill="#dfdfa4"/>
            <path id="Trazado_1294896" data-name="Trazado 1294896" d="M159.279,37.542l-.117.533.206.3a1,1,0,0,0-.089-.833" transform="translate(-83.882 -19.785)" fill="#dfdfa4"/>
            <path id="Trazado_1294897" data-name="Trazado 1294897" d="M158.677,37.942l-.437-.652.433.67Z" transform="translate(-83.396 -19.653)" fill="#dfdfa4"/>
            <path id="Trazado_1294898" data-name="Trazado 1294898" d="M159.642,39.379l-.052-.076c-.012.052-.011.076.052.076" transform="translate(-84.104 -20.714)" fill="#dfdfa4"/>
            <path id="Trazado_1294899" data-name="Trazado 1294899" d="M161.079,46.152c.429.19.291-.443.987.085-.465-.357-1.221-1.182-.987-.085" transform="translate(-84.869 -24.034)" fill="#dfdfa4"/>
            <path id="Trazado_1294900" data-name="Trazado 1294900" d="M159.375,40.841s.121.21.229.429l.222.432c.079-.074.115-.307.353-.143l-.4-.363c-.2-.183-.4-.355-.4-.355" transform="translate(-83.994 -21.524)" fill="#dfdfa4"/>
            <path id="Trazado_1294901" data-name="Trazado 1294901" d="M158.572,40.179l.38.313-.18-.312Z" transform="translate(-83.571 -21.175)" fill="#dfdfa4"/>
            <path id="Trazado_1294902" data-name="Trazado 1294902" d="M152.547,30.385a5.37,5.37,0,0,1-1.11-.9c.335.453.68.918,1.038,1.334.146-.026.478.01.072-.437" transform="translate(-79.811 -15.541)" fill="#dfdfa4"/>
            <path id="Trazado_1294903" data-name="Trazado 1294903" d="M156.346,34.859l-.076-.06c.009.067.029.11.076.06" transform="translate(-82.358 -18.34)" fill="#dfdfa4"/>
            <path id="Trazado_1294904" data-name="Trazado 1294904" d="M143.543,22.024l.015.11.06-.041Z" transform="translate(-75.65 -11.607)" fill="#dfdfa4"/>
            <path id="Trazado_1294905" data-name="Trazado 1294905" d="M153.566,32.427a1.273,1.273,0,0,0,.706.594,8.444,8.444,0,0,1-.71-.714c-.066.011-.1.031,0,.12" transform="translate(-80.898 -17.027)" fill="#dfdfa4"/>
            <path id="Trazado_1294906" data-name="Trazado 1294906" d="M149.529,26.293c.1.211.231.437.362.675-.052-.249-.23-.7-.362-.675" transform="translate(-78.805 -13.857)" fill="#dfdfa4"/>
            <path id="Trazado_1294907" data-name="Trazado 1294907" d="M156.268,34.333c.018.013.035.023.053.038-.018-.163-.04-.123-.053-.038" transform="translate(-82.357 -18.055)" fill="#dfdfa4"/>
            <path id="Trazado_1294908" data-name="Trazado 1294908" d="M155.669,34.1a2.554,2.554,0,0,0-.537-.283,4.675,4.675,0,0,0,.538.464.631.631,0,0,1,0-.182" transform="translate(-81.758 -17.822)" fill="#dfdfa4"/>
            <path id="Trazado_1294909" data-name="Trazado 1294909" d="M144.921,23.242l.218.215L145,23.4l.319.24a5.516,5.516,0,0,1-.688-1.3c-.626-.3-.818-.281-.933-.216l.724.66.5.455" transform="translate(-75.734 -11.64)" fill="#dfdfa4"/>
            <path id="Trazado_1294910" data-name="Trazado 1294910" d="M148.409,26.619c-.5.052-1.309-.457-1.2.25.831.778.8.331,1.408.7-1.357-1.277.535.232-.232-.908a7.49,7.49,0,0,1,.779.661c-.2-.28-.38-.559-.54-.836l.012.049.007.005-.006,0c.02.095.017.136-.026.049a.14.14,0,0,1-.034-.023.4.4,0,0,1-.168.046c-.317-.454.016-.137.168-.046a.288.288,0,0,0,.059-.026v-.009s-.364-.306-.751-.587l-.76-.57a12,12,0,0,0,1.282,1.24" transform="translate(-77.539 -13.375)" fill="#dfdfa4"/>
            <path id="Trazado_1294911" data-name="Trazado 1294911" d="M158.426,45.8a.1.1,0,0,1,.05-.1c-.105-.071-.158-.09-.05.1" transform="translate(-83.463 -24.057)" fill="#dfdfa4"/>
            <path id="Trazado_1294912" data-name="Trazado 1294912" d="M158.718,41.72l.045-.1c-.024-.016-.039.022-.045.1" transform="translate(-83.648 -21.935)" fill="#dfdfa4"/>
            <path id="Trazado_1294913" data-name="Trazado 1294913" d="M158.6,43.5c.1.377-.167.1-.27.188.231.156.726.614.467-.179l-.116-.079a4.7,4.7,0,0,1-.295-1.6,3.017,3.017,0,0,0-.3,1.2.9.9,0,0,1,.511.468" transform="translate(-83.317 -22.046)" fill="#dfdfa4"/>
            <path id="Trazado_1294914" data-name="Trazado 1294914" d="M152.383,34.4l-.576-.512.237.813.137-.166c.488.717.562.417.76.4l-.172-.168c-.1-.1-.239-.236-.386-.363" transform="translate(-80.006 -17.862)" fill="#dfdfa4"/>
            <path id="Trazado_1294915" data-name="Trazado 1294915" d="M143.225,20.921s-.269-.038-.547-.058l-.549-.045.662.3Z" transform="translate(-74.905 -10.971)" fill="#dfdfa4"/>
            <path id="Trazado_1294916" data-name="Trazado 1294916" d="M140.013,18.161s-.142-.038-.288-.07l-.288-.067.291.391Z" transform="translate(-73.486 -9.499)" fill="#dfdfa4"/>
            <path id="Trazado_1294917" data-name="Trazado 1294917" d="M36.923,14.889l.4.229a2.545,2.545,0,0,1,.993-.564c-.751.065-1.7.029-1.395.335" transform="translate(-19.429 -7.67)" fill="#dfdfa4"/>
            <path id="Trazado_1294918" data-name="Trazado 1294918" d="M97.814,1.9A6.493,6.493,0,0,0,96.4,1.472c.674.322,1.18.744,1.411.429" transform="translate(-50.807 -0.776)" fill="#dfdfa4"/>
            <path id="Trazado_1294919" data-name="Trazado 1294919" d="M9.262,132.842c.2.209.338.271.413.219-.2-.215-.355-.32-.413-.219" transform="translate(-4.881 -69.99)" fill="#dfdfa4"/>
            <path id="Trazado_1294920" data-name="Trazado 1294920" d="M94.53,1.179a2.063,2.063,0,0,0-1.68-.14c.1.049.2.078.3.12a5.309,5.309,0,0,1,1.38.019" transform="translate(-48.934 -0.484)" fill="#dfdfa4"/>
            <path id="Trazado_1294921" data-name="Trazado 1294921" d="M173.616,102.7a2.579,2.579,0,0,0,.068-.782c0,.19-.037.494-.068.782" transform="translate(-91.5 -53.713)" fill="#dfdfa4"/>
            <path id="Trazado_1294922" data-name="Trazado 1294922" d="M125.312,9.49c.405.166.084-.015,0,0" transform="translate(-66.042 -5.001)" fill="#dfdfa4"/>
            <path id="Trazado_1294923" data-name="Trazado 1294923" d="M127.409,14.545a.27.27,0,0,0-.244.1.342.342,0,0,1,.244-.1" transform="translate(-67.019 -7.666)" fill="#dfdfa4"/>
            <path id="Trazado_1294924" data-name="Trazado 1294924" d="M125.886,10.062a3.56,3.56,0,0,0-.443-.362,4.15,4.15,0,0,0,.443.362" transform="translate(-66.111 -5.112)" fill="#dfdfa4"/>
            <path id="Trazado_1294925" data-name="Trazado 1294925" d="M126.395,10.014l.322.21c.08-.036.056-.1-.322-.21" transform="translate(-66.613 -5.278)" fill="#dfdfa4"/>
            <path id="Trazado_1294926" data-name="Trazado 1294926" d="M124.684,9.233,124.12,9a4.4,4.4,0,0,1,.626.331c-.066-.061-.089-.1-.062-.1" transform="translate(-65.414 -4.744)" fill="#dfdfa4"/>
            <path id="Trazado_1294927" data-name="Trazado 1294927" d="M82.116,48.987c-.142.369-.4-.071-.64-.03,0,0,.061-.141.147-.354l.317-.784.317-.793c.087-.218.132-.365.132-.365-.295-.249-.257-.886-.218-1.5s.031-1.211-.257-1.343l.088.756c-.342-.516-.736-.175-1.174.245l-.135.127c.042-.752.069-1.508.069-2.271A39.608,39.608,0,0,0,68.242,13.735a.326.326,0,0,0,.077.042l.12-.179c-.357-.324-.7-.47-.557-.207-.315-.289-.639-.567-.963-.846.805.269,1.167-.98.99-2.018-.13.111-.216.207-1.107-.207.155.351,1.3,1.717.482,1.455-1.059-.66-.7-.74-1.048-1.281.1.6-1.285-.2-1.733.125a39.685,39.685,0,0,0-6.3-3.788c.065-.032.089-.085.031-.177l-.655-.218c-.411-.636,1.426.023.708-.513A11,11,0,0,1,59.84,6.2a5.093,5.093,0,0,1,.825.291,4.32,4.32,0,0,1,.8.526l-.074.626c.062-.159-.578-.732-.987-.76.3.022.648.449,1.022.817s.776.694,1.229.54l-.285-.421c-.14-.215-.3-.411-.3-.411.489.107,1.049.22,1.622.381a3.538,3.538,0,0,1,1.564.844c-.12-.786-.257-.107-.587-1.154.168,1.093-2.6-1.7-2.049-.315a2.092,2.092,0,0,0-.793-1.082,4.546,4.546,0,0,1-1.055-1.1c-.056.186.2.511-.67-.038a1.034,1.034,0,0,1-.275.049l-.055-.044.04.046c-.052.006-.058.009.015.017a1.149,1.149,0,0,1,.328.495,3.043,3.043,0,0,1-1.345-.222A7.307,7.307,0,0,0,57.5,4.964c-.5-.327.313-.1.1-.42l-.434-.009-.438.009c.095-.42-1.22-1.24.194-.95l-1.187-.488a4.616,4.616,0,0,0-2.261-.931c-.561-.256-1.6.034-1-.143l-1-.143-1.007-.1.006-.107a17.735,17.735,0,0,0-3.04-.353A9.4,9.4,0,0,1,44.217.676c-.337.029-.678.06-1.072.066a7.39,7.39,0,0,1-1.4-.062L41.535.307A11.281,11.281,0,0,1,39.871.236c-.587-.044-1.116-.064-1.289.15a1.79,1.79,0,0,0-1.1-.371,6.071,6.071,0,0,0-1.573.11c-.558.1-1.132.2-1.656.332a8.841,8.841,0,0,1-1.389.252l.035.481a8.512,8.512,0,0,0-1.519.4c-.257.088-.519.184-.793.288s-.55.241-.846.373l.189.387a5.719,5.719,0,0,1-1.951.577c-.389.071-.8.141-1.22.231a8.335,8.335,0,0,0-1.231.4c.05-.194.479-.317.8-.341a3.584,3.584,0,0,0-1.6.3,8.8,8.8,0,0,0-1.4.856c-.452.306-.867.661-1.306.929a3.99,3.99,0,0,1-1.383.558,1.7,1.7,0,0,1-.992.565.332.332,0,0,0,.09-.078,1.877,1.877,0,0,0-.17.092,5.72,5.72,0,0,0-.677.15,3.325,3.325,0,0,0,.587-.1,7.771,7.771,0,0,0-1.137.918L17.9,7.448c-.034.029-.064.047-.1.079-.543.149-.238.409.189.542a2.564,2.564,0,0,0-.428.628c-.768-.345-1,.992-1.924.737-.027.264-.514.738-.955,1.244a2.428,2.428,0,0,0-.671,1.3A2.75,2.75,0,0,0,12.8,13.149l-.583-.244-.2.725-.166.736c-.788.315-1.172.421-.952-.456a14.393,14.393,0,0,1-.789,1.556,5.382,5.382,0,0,0-.589,1.4l-.242-.3c-.345.462-.508,1.481-.965,1.562a9.587,9.587,0,0,0-2.6,3.13c-.957,1.575-1.937,3.413-2.89,4.811.639-.07.361.225.032.607s-.706.861-.331,1.076c-.313.084-.622.467-.636-.118a10.7,10.7,0,0,1-.714,1.946A2.292,2.292,0,0,0,1,31.277c-.306.117-.268-.456-.464-.332.016.149.07.585-.129.716s-.143-.3-.177-.594A3.389,3.389,0,0,0,.1,32.119a1.447,1.447,0,0,0,.227.67,1.932,1.932,0,0,0,.946.647,2.188,2.188,0,0,0-.455.974,1.66,1.66,0,0,0,.253.932c-.295.248-.639.705-.538-.361l-.207.8-.141.586c-.038.207-.072.421-.1.632-.117.843-.151,1.628.161,1.688-.167.172-.108.829-.051.989-.072.665-.118,1.027-.131,1.388s-.029.718-.017,1.375l.108-.363c.7.523.16,1.082.274,2.135l-.076-.027a5.153,5.153,0,0,0-.128,1.228,1.754,1.754,0,0,0,.084.5,1.516,1.516,0,0,1,.07.5c-.007.246-.034.611-.1,1.224l.434-.183c.5.054.421.582.289,1.278a3.944,3.944,0,0,0,.058,2.2l.164-.541c.22.34.018.911-.241,1.519a4.17,4.17,0,0,0-.52,1.638c-.033.185-.21-.223-.326-.44,0,2.133.645.106,1.188,1.522-.224.361-.893-.113-.641.892-.04.284.444.919.928,1.652a4.538,4.538,0,0,1,1.022,2.3c.1-.381.2-.749.66-.189a11.147,11.147,0,0,1,.532,1.925c.2.7.451,1.368,1.044,1.591.009.151-.022.228-.072.263.3.3.682.85,1.116,1.314a3.512,3.512,0,0,0,1.165.964,1.123,1.123,0,0,0,.168,1.226A6.27,6.27,0,0,0,8.4,67.842a11.4,11.4,0,0,1,1.125,1.09c.262.316.34.6.063.831,0,0,.422.469.861.921l.9.885-.151.055a4.456,4.456,0,0,0,1.351,1.146,3.241,3.241,0,0,0,1.026.327c.212.315-.08.239-.155.275a8.26,8.26,0,0,0,1.759,1.662,7.253,7.253,0,0,0,2.066.783l-.107.5c.295.044.87.691,1.7,1.383.206.176.424.359.656.538s.488.335.746.492a5.624,5.624,0,0,0,1.651.722.379.379,0,0,1-.324.07,19.531,19.531,0,0,1,3.741,1.995c1.191.69,2.3,1.08,3.014.42,0,0,.434.046.875.053l.873.029c-2.056-.722.515-.624-.263-1.14a2.6,2.6,0,0,1,1.162.57c.263.219.294.416-.222.324l-.135-.127c-.61.791,2.549.943,2.375,1.5,2.132.409,4.252.738,6.364.961a32.264,32.264,0,0,0,6.266.061l-.271-.315-.268-.322s.088,0,.22-.014l.483-.047.7-.07c.389.113.573.473-.445.574.587.325,1.653-.543,1.647-.712,2-.073-.633.932-.034.842l.817-.2-.2-.046c.309-.2.463-.375.691-.523a3.258,3.258,0,0,1,1.123-.4c.782-.038.483.327.787.284.009.048.116.047.463-.087,0,0,.112-.018.276-.062l.6-.15.879-.219-.845-.328c.689-.47,1.616-.44.651-.8.707.281,2.329-.151,3.816-.765.748-.294,1.449-.662,2.03-.916a5.6,5.6,0,0,1,1.2-.5,5.7,5.7,0,0,1,.634-.581,7.738,7.738,0,0,1,.683-.518c.479-.326,1.02-.605,1.593-.959-.343.085-.83-.332.171-.885.164.639.7.489,1.327.155a4.182,4.182,0,0,1,2.025-.733c-.518.022.119-.525.683-1.056s1.016-1.092.245-.982c.8-.555.35.324,1.107.063a12.722,12.722,0,0,1,1.243-1.358l1.473-1.318c.254-.227.521-.447.774-.687l.752-.742a11.491,11.491,0,0,0,1.379-1.655c-.1-.136-.6.085-.418-.549l.249-.107c.152-.063.349-.153.541-.247l.781-.38c.259-.526-.464-.957.57-1.515-.2.048-.49.114-.33-.234a22.8,22.8,0,0,0,4.043-7.519c.975-2.726,1.735-5.47,2.948-8.206-.456.72-.394.2-.3-.389M66.805,12.447q-.591-.5-1.2-.985a1.954,1.954,0,0,1,1.2.985m-1.434-1.2c0,.008-.013.012-.021.018l-.088-.069.109.052M54.717,3.032a.207.207,0,0,0-.039.01c-.612-.394-.4-.248.039-.01m-7.35-.421a8.9,8.9,0,0,1,1.372-.117c1.548.1.544.639.829.577a4.941,4.941,0,0,0,1.617.219,4.833,4.833,0,0,0,1.043-.144,2.483,2.483,0,0,1,2.227.439c.736.787-.294.969-.213,1.383a3.752,3.752,0,0,1-1.4-.559,4.552,4.552,0,0,0-1.1-.537l.918.51a2.906,2.906,0,0,1-1.625-.305,1.388,1.388,0,0,0,.364.24,39.54,39.54,0,0,0-5.639-1.086,2.971,2.971,0,0,1,.5-.281,4.967,4.967,0,0,1,1.1-.34m-7.976-.042c-.041.138.1.3.214.409Q39,3,38.4,3.038a2.987,2.987,0,0,1,.993-.469m-8.259.313c.08.007.677.046,1.313.118a6.023,6.023,0,0,1,1.584.348.432.432,0,0,1,.187.189c-.481.083-.962.169-1.437.27l-.178-.7-.02.744c-.469.1-.938.205-1.4.324a2.1,2.1,0,0,1-.047-1.294M23.94,5.327l.44.143.55-.443c.276-.223.565-.423.565-.423-.212.444-.59,1.183-1,1.947q-1,.46-1.974.97A4.684,4.684,0,0,1,23.94,5.327m-9.931,6.651a.519.519,0,0,0,.035.182c-.081-.065-.224-.007-.035-.182M11.824,14.53a1.73,1.73,0,0,0,.614.575c-.236.245-.475.488-.7.739.012-.236.027-.457.041-.649.029-.4.049-.665.049-.665M1.542,33.863c.142-.176.307.035.493.353-.023-.121-.047-.236-.073-.327.14-.211.267-.273.384-.246-.061.265-.127.527-.184.794l-.127-.221c.028.129.053.271.082.417-.025.119-.043.241-.066.361a6.136,6.136,0,0,0-.517.572s-.006-.426-.013-.852.021-.851.021-.851M50.988,83.021l-.3-.052c.588-.271.444-.115.3.052" transform="translate(0 0)" fill="#dfdfa4"/>
            <path id="Trazado_1294928" data-name="Trazado 1294928" d="M132.726,13.455c.034-.089-.017-.273.137-.219-.081-.04-.211-.1-.351-.158l-.442-.186a1.64,1.64,0,0,1,.656.562" transform="translate(-69.604 -6.795)" fill="#dfdfa4"/>
            <path id="Trazado_1294929" data-name="Trazado 1294929" d="M133.841,13.665a.437.437,0,0,1,.039.02l-.039-.02" transform="translate(-70.537 -7.202)" fill="#dfdfa4"/>
            <path id="Trazado_1294930" data-name="Trazado 1294930" d="M133.747,13.619l.044.021a.455.455,0,0,0-.044-.021" transform="translate(-70.488 -7.178)" fill="#dfdfa4"/>
            <path id="Trazado_1294931" data-name="Trazado 1294931" d="M133.723,17.4c-.153.37.415.542.97.865a.753.753,0,0,1-.092-.065c.462-.335-.2-.59-.877-.8" transform="translate(-70.462 -9.172)" fill="#dfdfa4"/>
            <path id="Trazado_1294932" data-name="Trazado 1294932" d="M136.561,19.726c.187-.131-.17-.176-.488-.335a3.2,3.2,0,0,1,.488.335" transform="translate(-71.714 -10.219)" fill="#dfdfa4"/>
            <path id="Trazado_1294933" data-name="Trazado 1294933" d="M121.658,8.44c.244.219.377-.368.476-.152.515-.312-2.145-.306-.476.152" transform="translate(-63.823 -4.254)" fill="#dfdfa4"/>
            <path id="Trazado_1294934" data-name="Trazado 1294934" d="M132.715,19.648l.072-.516-.5.131Z" transform="translate(-69.716 -10.083)" fill="#dfdfa4"/>
            <path id="Trazado_1294935" data-name="Trazado 1294935" d="M124.531,14.335l.831.573c.024-.077.159-.06.315-.02-.543-.3-1.106-.69-1.147-.553" transform="translate(-65.631 -7.54)" fill="#dfdfa4"/>
            <path id="Trazado_1294936" data-name="Trazado 1294936" d="M127.7,15.866a4.167,4.167,0,0,0-.742-.33,2.357,2.357,0,0,0,.742.33" transform="translate(-66.909 -8.188)" fill="#dfdfa4"/>
            <path id="Trazado_1294937" data-name="Trazado 1294937" d="M101.214,7.035c.277-.066.689-.056.553-.239l-1.1-.059c-.136.141.14.291.55.3" transform="translate(-53.034 -3.551)" fill="#dfdfa4"/>
            <path id="Trazado_1294938" data-name="Trazado 1294938" d="M175.384,94.348s.072-.215.124-.432l.112-.435-.339.551Z" transform="translate(-92.377 -49.267)" fill="#dfdfa4"/>
            <path id="Trazado_1294939" data-name="Trazado 1294939" d="M174.723,90.743l-.543-.524c.023.194.066.574-.076.719Z" transform="translate(-91.757 -47.547)" fill="#dfdfa4"/>
          </g>
        </g>
      </g>
      <g id="Grupo_1208230" data-name="Grupo 1208230" transform="translate(-4 13.846)">
        <g id="Grupo_1208229" data-name="Grupo 1208229" transform="translate(717.711 2038.154)">
          <g id="Grupo_1208228" data-name="Grupo 1208228" clip-path="url(#clip-path-2)">
            <path id="Trazado_1404586" data-name="Trazado 1404586" d="M221.424,6.363a3.171,3.171,0,0,1-.4.012c-.047,0-.094-.007-.141-.011l-.044-.007c-.232-.057-.462-.11-.69-.184-.51-.165-1-.376-1.519-.524A8.007,8.007,0,0,0,215,5.509a.855.855,0,0,0-.212.068,1.085,1.085,0,0,0-.657-.2,1.209,1.209,0,0,0-1.182,1.182q-.264,4.256-.528,8.512c-.043.69-.093,1.381-.128,2.071a3.954,3.954,0,0,0,.391,2.135,3.73,3.73,0,0,0,1.429,1.3c.108.066.213.135.319.2a.032.032,0,0,1,0-.01.091.091,0,0,0,.02.022l.019.012c.061.039.063.049.045.044l.04.034a2.342,2.342,0,0,0,1.051.7,2.229,2.229,0,0,0,1.771-.534,4.387,4.387,0,0,0,1.594-.342l1.234-.466a.987.987,0,0,0,.351-.046,1.22,1.22,0,0,0,.467-.27,1.183,1.183,0,0,0,.7-1.4,1.279,1.279,0,0,0-.192-.367q.652-5.289,1.07-10.6a1.185,1.185,0,0,0-1.182-1.182m-4.676,13.008a2.172,2.172,0,0,1-1.716-1.447,1.56,1.56,0,0,1,1.276-1.917.628.628,0,0,1,.34-.008c1.007-.5,1.879.99,1.917,1.859a1.569,1.569,0,0,1-1.817,1.513" transform="translate(-164.121 -4.149)" fill="#fae5c8"/>
            <path id="Trazado_1404587" data-name="Trazado 1404587" d="M221.755,73.27a.146.146,0,0,0,.082.067l-.064-.055-.018-.012" transform="translate(-171.441 -56.646)" fill="#fae5c8"/>
            <path id="Trazado_1404588" data-name="Trazado 1404588" d="M20.782,128.509q-.1-3.273-.26-6.543a2.075,2.075,0,0,0-.386-1.1,75.951,75.951,0,0,1-.038-7.981q.09-1.6.291-3.195.095-.664.21-1.325a1.954,1.954,0,0,0-.186-1.422,1.9,1.9,0,0,0-1.1-.848,4.06,4.06,0,0,0-2.165.018,1.8,1.8,0,0,0-.371.157,1.18,1.18,0,0,0-2.09.387l-.4,2.658a1.028,1.028,0,0,0-.731.78c0,.02-.025.124-.031.17-.024.041-.052.081-.076.118-.012.018-.024.035-.035.049l.015-.017-.017.019c-.036.048-.059.067-.021.024-.053.06-.105.121-.16.18l0,0a1.425,1.425,0,0,0-.257.179c-.1.09-.206.178-.311.265-.038.031-.133.1-.146.114-.185.135-.372.266-.565.389-.083.053-.167.1-.252.155l-.538.028a.333.333,0,0,0-.265.142,1.107,1.107,0,0,0-.637-.191A1.218,1.218,0,0,0,9.08,112.9a1.565,1.565,0,0,0,.591,1.4c-.066.227-.126.454-.18.682q.005,2.372.049,4.744c.041,2.354.1,4.708.161,7.061.071.784.123,1.57.137,2.357.013.71-.005,1.42-.03,2.13.043,2.015.076,4.031.086,6.047.043.559.092,1.118.145,1.677a1.48,1.48,0,0,0-.315,1.046c.044.477.087.954.133,1.43a5.029,5.029,0,0,0,.255,1.372,2.843,2.843,0,0,0,1.27,1.563,2.758,2.758,0,0,0,1.283.318c.13,0,.256-.007.383-.012q.081.048.159.1a9.236,9.236,0,0,1,1.125,1.157,5.331,5.331,0,0,1,.419.69,3.892,3.892,0,0,1,.129.459,1.64,1.64,0,0,0,.583.914,1.847,1.847,0,0,0,1.655,2.628,2.768,2.768,0,0,0,1.212-.255,1.8,1.8,0,0,0,.608.1,1.866,1.866,0,0,0,1.845-1.845,2.016,2.016,0,0,0-.294-.965,9.181,9.181,0,0,0,.376-2.047c.073-.869.058-1.747.067-2.619q.015-1.464.017-2.93.011-5.8-.166-11.6" transform="translate(-7.011 -81.799)" fill="#f0b068"/>
            <path id="Trazado_1404589" data-name="Trazado 1404589" d="M28.159,126.21l-.022.026.021-.024v0" transform="translate(-21.753 -97.574)" fill="#f0b068"/>
            <path id="Trazado_1404590" data-name="Trazado 1404590" d="M106.472,145.228a2.26,2.26,0,0,0,.268-.934,11.681,11.681,0,0,0-.187-3.18,1.793,1.793,0,0,0-.67-.981q.322-6.623.092-13.256-.067-1.914-.181-3.826a2.068,2.068,0,0,0-.846-1.553q.125-1.279.277-2.555c.189-1.558.415-3.114.5-4.683a37.7,37.7,0,0,0-.218-5.355c-.006-.068-.014-.135-.024-.2a1.593,1.593,0,0,0,.136-.722,2,2,0,0,0-.1-.531,1.831,1.831,0,0,0-1.336-1.9,8.113,8.113,0,0,0-2.446-.213,2.022,2.022,0,0,0-1.206.45,1.042,1.042,0,0,0-.137-.038,5.119,5.119,0,0,0-2.621.116,1.332,1.332,0,0,0-.143.057c-1.914-.164-3.828-.36-5.746-.419-4.033-.124-8.077-.076-12.111-.1l-6.283-.041a1.637,1.637,0,0,0-.63-.316,1.867,1.867,0,0,0-1.422.186,1.781,1.781,0,0,0-.848,1.1,96.805,96.805,0,0,0-.695,16.463q.153,8.187.307,16.373l.172,9.195a1.869,1.869,0,0,0,1.845,1.845,2.034,2.034,0,0,0,.69-.155,1.567,1.567,0,0,0,1.083.027,6.037,6.037,0,0,1,.906-.233,14.954,14.954,0,0,1,2.473.025c.965.068,1.927.117,2.895.1,2-.043,4-.294,5.987-.506a49.76,49.76,0,0,1,5.971-.305c1.022.014,2.045.032,3.066-.028.612-.036,1.222-.1,1.831-.164a3.8,3.8,0,0,0,2.7.407.973.973,0,0,0,.348-.146c.811-.071,1.638-.03,2.449-.029l2.86,0a1.906,1.906,0,0,0,1.813-1.458,1.6,1.6,0,0,0,.131-.364,1.932,1.932,0,0,0-.951-2.153" transform="translate(-53.995 -81.167)" fill="#f0b068"/>
            <path id="Trazado_1404591" data-name="Trazado 1404591" d="M253.935,136.865q-.173-1.118-.324-2.24a121.908,121.908,0,0,1-1.016-13.428q-.039-1.929-.016-3.859a1.847,1.847,0,0,0-.474-1.222q-.034-.78-.07-1.559c-.086-1.821-.2-3.64-.356-5.456a2.521,2.521,0,0,0-.159-.724,1.551,1.551,0,0,0,0-.237l-.02-.3a1.893,1.893,0,0,0-1.355-1.779,2.047,2.047,0,0,0-.539-.05c-.514-.382-1.085-.7-1.611-1.077q-.128-.112-.244-.235c-.091-.148-.172-.3-.266-.449a3.311,3.311,0,0,0-1.013-1.053,3.96,3.96,0,0,0-2.439-.414,11.582,11.582,0,0,0-4.253,1.15,1.862,1.862,0,0,0-.848,1.1,1.885,1.885,0,0,0,.186,1.422,2.14,2.14,0,0,0,.25.318,1.872,1.872,0,0,0-.466,1.2,120.24,120.24,0,0,0,.7,13.631c.4,4.551.654,9.1.724,13.668.04,2.589.043,5.178.045,7.768a1.845,1.845,0,0,0,.306,1,1.849,1.849,0,0,0,1.828,3.057q.661-.131,1.326-.228c1.1-.134,2.2-.17,3.313-.2a4.665,4.665,0,0,0,2.275-.58,10.994,10.994,0,0,0,1.5-1.17,9.648,9.648,0,0,0,2.275-2.6,5.488,5.488,0,0,0,.584-4.09,2.157,2.157,0,0,0,.158-1.365M244,124.1c0,.134,0,.268-.006.4-.005-.134-.009-.267-.014-.4H244m3.41,18.849.158-.079.021,0c-.028.017-.055.034-.083.05l-.1.025" transform="translate(-184.677 -79.443)" fill="#f0b068"/>
            <path id="Trazado_1404592" data-name="Trazado 1404592" d="M283.3,276.657a7.885,7.885,0,0,0,1.164-.286,17.375,17.375,0,0,0,1.772-2.216c.438-.648.915-1.386.456-2.169a1.373,1.373,0,0,0-1.543-.624,3.091,3.091,0,0,0-.869.468,1.463,1.463,0,0,0-.295.269,1.154,1.154,0,0,0-.708.346,4.388,4.388,0,0,0-1.249,3.38,1.264,1.264,0,0,0,.762,1.133c.035.015.071.027.107.039a.551.551,0,0,1,.4-.339" transform="translate(-218.024 -209.755)" fill="#c08d53"/>
            <path id="Trazado_1404593" data-name="Trazado 1404593" d="M228.162,148.3c-.026-.081-.048-.163-.066-.245a1.709,1.709,0,0,0-.228-.638q0-1.625,0-3.25a32.806,32.806,0,0,0-.152-6.527,1.785,1.785,0,0,0-.087-.371,1.193,1.193,0,0,0,.083-.444q-.019-4.094-.337-8.179a1.5,1.5,0,0,0-.084-.389c-.2-3.485.152-6.976.066-10.465a30.785,30.785,0,0,0-.233-3.19c-.01-.077-.021-.151-.035-.222q.135-3.571.1-7.146a1.251,1.251,0,0,0-.91-1.2,10.927,10.927,0,0,0-2.238-.115,1.445,1.445,0,0,0-.757.277,1.268,1.268,0,0,0-1.217,1.238c-.154,2.437.367,4.84.483,7.266a1.121,1.121,0,0,0-.058.388q.171,6.412.4,12.822a1.325,1.325,0,0,0,.1.45,1.155,1.155,0,0,0-.115.524q.077,5.139.407,10.269a45.359,45.359,0,0,0,.2,5.807,1.258,1.258,0,0,0-.312,1.182c.1.434.187.87.254,1.311,0,.031.025.193.027.213.008.072.015.145.022.217a1.053,1.053,0,0,0-.176.379,1.287,1.287,0,0,0,.57,1.4l.28.179a1.182,1.182,0,0,0,1.2.02c.357.013.714.023,1.068.013a1.6,1.6,0,0,0,.3-.038,1.154,1.154,0,0,0,.576-.017,1.24,1.24,0,0,0,.866-1.525" transform="translate(-171.66 -81.882)" fill="#c08d53"/>
            <path id="Trazado_1404594" data-name="Trazado 1404594" d="M275.125,105.135a1.409,1.409,0,0,0-.539-1.028.924.924,0,0,0-.029-.112,1.225,1.225,0,0,0-.57-.741,3.631,3.631,0,0,1-.491-.288l-.083-.072a1.307,1.307,0,0,0-.876-.363,1.246,1.246,0,0,0-.339.05,1.188,1.188,0,0,0-1.244-.379,1.258,1.258,0,0,0-.866,1.525,3.736,3.736,0,0,0,3.8,2.648,1.265,1.265,0,0,0,1.239-1.239" transform="translate(-208.769 -78.973)" fill="#c08d53"/>
            <path id="Trazado_1404595" data-name="Trazado 1404595" d="M14.1,270.432a1.253,1.253,0,0,0-1.525.866,1.333,1.333,0,0,0,.07.821,1.226,1.226,0,0,0-.06.376,4.708,4.708,0,0,0,1.161,2.758,5.3,5.3,0,0,0,2.352,1.988.92.92,0,0,0,.434.055,1.12,1.12,0,0,0,.759.263,1.261,1.261,0,0,0,1.24-1.239,6.179,6.179,0,0,0-4.43-5.887" transform="translate(-9.694 -209.04)" fill="#c08d53"/>
            <path id="Trazado_1404596" data-name="Trazado 1404596" d="M60.6,105.6a1.264,1.264,0,0,0-.57-.741,1.251,1.251,0,0,0-.955-.125,1.3,1.3,0,0,0-.305.144,3.161,3.161,0,0,0-.956.056c-.028.006-.056.013-.083.022l-.022-.014a.921.921,0,0,0-.461-.147.94.94,0,0,0-.494.022,1.255,1.255,0,0,0-.741.57,1.278,1.278,0,0,0-.125.955l.129.446c.006.02.014.04.021.06a24.711,24.711,0,0,0,.081,2.742q.082,1.355.164,2.709a1.189,1.189,0,0,0-.42.916q.021,2.972.116,5.943a1.268,1.268,0,0,0,.024.2c-.011.025-.022.051-.032.077a9.237,9.237,0,0,0-.2,3.772c.1,1.3.236,2.589.376,3.882.006.051.014.1.024.153l-.08,9.778a1.124,1.124,0,0,0,.031.267,1.268,1.268,0,0,0-.115.506q-.063,2.938.045,5.875a1.111,1.111,0,0,0-.108.514l.1,3.235a3.425,3.425,0,0,0,.224,1.452l-.057.441a.348.348,0,0,0,.346.346.33.33,0,0,0,.319-.234l.016.007a3.545,3.545,0,0,0,.983.182l.848.1c.843.1,1.356-.869,1.2-1.569-.124-.54-.234-1.083-.327-1.629-.044-.26-.084-.522-.121-.783,0-.034-.035-.277-.04-.313q-.023-.192-.043-.385-.107-1.022-.137-2.05a.881.881,0,0,0,.219-.47,21.933,21.933,0,0,0-.284-7.737,1.033,1.033,0,0,0-.167-.371,1.449,1.449,0,0,0,.066-.359,39.665,39.665,0,0,0-.011-4.717,1.089,1.089,0,0,0,.157-.611,75.2,75.2,0,0,1,.14-8.5,1.049,1.049,0,0,0-.164-.625l-.132-2.193a1.2,1.2,0,0,0,.679-1.091A75.139,75.139,0,0,1,60,108.653a.967.967,0,0,0-.066-.43c.009-.108.019-.217.027-.325a1.17,1.17,0,0,0,.295-.793c0-.03,0-.061,0-.091.017-.051.038-.162.045-.2l0,0c.058-.089.109-.179.174-.265a1.243,1.243,0,0,0,.125-.955" transform="translate(-43.045 -80.931)" fill="#c08d53"/>
            <path id="Trazado_1404597" data-name="Trazado 1404597" d="M14.76,106.957a2.4,2.4,0,0,0-.876.627c-.074.066-.149.128-.223.192l-.057.046-.081.06c-.337.242-.707.431-1.045.671a2.8,2.8,0,0,0-1.1,1.4.99.99,0,0,0-.051.4,1.173,1.173,0,0,0-.437,1.282,1.255,1.255,0,0,0,1.525.866,6.975,6.975,0,0,0,2.439-1.489,5.577,5.577,0,0,0,1.569-2.349,1.362,1.362,0,0,0-1.661-1.707" transform="translate(-8.376 -82.644)" fill="#c08d53"/>
            <path id="Trazado_1404598" data-name="Trazado 1404598" d="M126.818,66.219a1.506,1.506,0,0,0-.308-.506c-.279-1.073-1.627-1.524-2.6-1.67a1.358,1.358,0,0,0-.955.125l-.058.037-.042-.01a27.215,27.215,0,0,0-6.915-.857c-1.128.05-2.255.137-3.382.21a23.515,23.515,0,0,0-3.607.4,1.129,1.129,0,0,0-.641.427,1.061,1.061,0,0,0-.238-.086,1.262,1.262,0,0,0-1.525.866,21.1,21.1,0,0,0-.659,6.928,1.264,1.264,0,0,0,1.24,1.24,1.307,1.307,0,0,0,.2-.026,1.324,1.324,0,0,0,.856.194,1.221,1.221,0,0,0,1.075-1.217,20.27,20.27,0,0,1-.167-2.38c0-.39,0-.782.024-1.172,0-.083.01-.166.017-.249,0-.027.026-.165.028-.189l.016-.07c0-.015.034-.155.059-.233l.028-.051c.034-.066.071-.13.111-.192.014-.022.123-.146.1-.13l.037-.037c.063-.065.129-.124.195-.186l.019-.018c.062-.042.124-.083.186-.124a1.479,1.479,0,0,0,.839.083q.784-.135,1.572-.245l.2-.026.444-.054q.389-.046.778-.085,1.612-.163,3.233-.216a47.92,47.92,0,0,1,6.473.23.893.893,0,0,0,.293-.019,1.182,1.182,0,0,0,.562.341l.055.017.059.035.046.046.022.034a1.17,1.17,0,0,0,.128.175l0,.009c.009.045.016.091.024.136.007.113.02.225.026.338a11.15,11.15,0,0,1-.038,1.39,16.178,16.178,0,0,0-.1,2.86,1.268,1.268,0,0,0,1.239,1.239,1.253,1.253,0,0,0,1.239-1.239c-.2-2.029.521-4.085-.2-6.069" transform="translate(-81.822 -48.956)" fill="#c08d53"/>
            <path id="Trazado_1404599" data-name="Trazado 1404599" d="M54.065,174.314c.015-.445-.677-.445-.692,0q-.047,1.445-.02,2.89a.346.346,0,0,0,.692,0q-.028-1.445.02-2.89" transform="translate(-41.24 -134.506)" fill="#f0b068"/>
            <path id="Trazado_1404600" data-name="Trazado 1404600" d="M287.4,272.908a5.221,5.221,0,0,1-3.338,4.1c-.416.149-.237.817.184.667a5.9,5.9,0,0,0,3.821-4.584c.066-.436-.6-.623-.667-.184" transform="translate(-219.429 -210.795)" fill="#c08d53"/>
            <path id="Trazado_1404601" data-name="Trazado 1404601" d="M282.408,107.1a5.054,5.054,0,0,0-.518-1.213.316.316,0,0,0-.288-.166,6.281,6.281,0,0,0-1.635-1.768c-.355-.269-.7.331-.349.6a4.263,4.263,0,0,1,1.871,3.028c.026.442.718.445.692,0,0-.023,0-.046-.005-.068a.323.323,0,0,0,.232-.41" transform="translate(-216.063 -80.315)" fill="#c08d53"/>
            <path id="Trazado_1404602" data-name="Trazado 1404602" d="M239.531,149.593q-.535-8.208-.872-16.429-.335-8.19-.471-16.387-.077-4.63-.09-9.261a.75.75,0,0,0-1.5,0q.025,8.226.248,16.45.224,8.194.645,16.381.239,4.625.54,9.246a.767.767,0,0,0,.75.749.756.756,0,0,0,.749-.749" transform="translate(-182.917 -82.562)" fill="#c08d53"/>
            <path id="Trazado_1404603" data-name="Trazado 1404603" d="M66.857,106.847a.541.541,0,0,0-.035-.26l0-.014a.769.769,0,0,0-.523-.922.759.759,0,0,0-.922.524l-.17,1.057a.971.971,0,0,0,.049.5c-.587,5.284-.866,10.6-.941,15.914-.079,5.622.068,11.244.307,16.86.134,3.151.3,6.3.466,9.449a.766.766,0,0,0,.75.749.757.757,0,0,0,.749-.749c-.3-5.616-.584-11.233-.716-16.856s-.114-11.235.188-16.845c.169-3.144.428-6.282.8-9.409" transform="translate(-49.707 -81.666)" fill="#c08d53"/>
            <path id="Trazado_1404604" data-name="Trazado 1404604" d="M125.167,74.081c-.733-.164-1.48-.277-2.225-.375a29.429,29.429,0,0,0-4.493-.251,30.347,30.347,0,0,0-4.472.433q-1.123.192-2.229.473a3.829,3.829,0,0,0-1.806.828c-1.062,1.036-.753,2.8-.64,4.153-.231-.023-.463-.04-.7-.048a.75.75,0,1,0,0,1.5,9.3,9.3,0,0,1,1.264.128.771.771,0,0,0,.922-.524.8.8,0,0,0-.322-.844s0-.006,0-.01c-.044-.642-.105-1.286-.123-1.93a2.522,2.522,0,0,1,.243-1.4,1.932,1.932,0,0,1,1.254-.686q.971-.256,1.959-.44a28.758,28.758,0,0,1,7.845-.371q1.086.1,2.161.278c.241.041.483.084.724.131a1.086,1.086,0,0,1,.44-.284.969.969,0,0,1,.731.1,1.037,1.037,0,0,1,.436.567,1.939,1.939,0,0,1,.119.479.669.669,0,0,0,.252-.475c.087-.8-.664-1.274-1.343-1.426" transform="translate(-83.386 -56.784)" fill="#c08d53"/>
            <path id="Trazado_1404605" data-name="Trazado 1404605" d="M191.453,72.69a1.088,1.088,0,0,1-.431-.8,6.073,6.073,0,0,0-.251-1.376l0-.011a.627.627,0,0,0-.346.529,46.328,46.328,0,0,0-.148,6.422c-.2-.02-.4-.033-.6-.04a.756.756,0,0,0-.749.749.765.765,0,0,0,.749.75,6.988,6.988,0,0,1,1,.1.767.767,0,0,0,.922-.523.862.862,0,0,0-.151-.69,46.317,46.317,0,0,1,.007-5.11" transform="translate(-146.063 -54.511)" fill="#c08d53"/>
            <path id="Trazado_1404606" data-name="Trazado 1404606" d="M11.566,113.295a3.3,3.3,0,0,0,2-.379,5.009,5.009,0,0,0,1.685-1.008,5.474,5.474,0,0,0,1.423-3.365.58.58,0,0,0-.577-.577.591.591,0,0,0-.577.577,4.269,4.269,0,0,1-1.022,2.487,3.5,3.5,0,0,1-1.194.756c-.241.1-.488.184-.735.269a1.243,1.243,0,0,1-.693.128.577.577,0,0,0-.307,1.112" transform="translate(-8.625 -83.47)" fill="#c08d53"/>
            <path id="Trazado_1404607" data-name="Trazado 1404607" d="M20.885,286.64q0-.173-.02-.345c0-.009-.006-.054-.01-.086s-.011-.072-.013-.081a6.58,6.58,0,0,0-.15-.653c-.119-.425-.268-.841-.423-1.255a2.223,2.223,0,0,1-1.186,1.705c-1.021.5-1.932-.182-2.657-.861a.543.543,0,0,0-.545-.135c.147.385.27.776.413,1.164,0,0,.077.182.075.182.048.1.1.2.156.3.02.035.041.069.062.1a3.84,3.84,0,0,0,.859.435,2.532,2.532,0,0,0,.51.12.517.517,0,0,0,.41.553,2.888,2.888,0,0,0,.979.017c.111.1.213.242.332.341a.877.877,0,0,0,.975.122.855.855,0,0,1,.031-.2c.043-.153.084-.307.117-.462q.021-.1.039-.2c0-.01.012-.081.018-.117s.01-.1.01-.106q.008-.092.012-.183.009-.178,0-.356" transform="translate(-12.277 -219.733)" fill="#c08d53"/>
            <path id="Trazado_1404608" data-name="Trazado 1404608" d="M286.073,272.774a3.665,3.665,0,0,0-3.31,3.272c-.051.442.642.438.692,0a2.953,2.953,0,0,1,2.618-2.58c.439-.044.443-.737,0-.692" transform="translate(-218.605 -210.883)" fill="#c08d53"/>
            <path id="Trazado_1404609" data-name="Trazado 1404609" d="M274.177,106.678a9.225,9.225,0,0,1-1.76-1.387,5.221,5.221,0,0,1-.886-1.934.346.346,0,0,0-.667.184,5.967,5.967,0,0,0,.955,2.1,8.906,8.906,0,0,0,1.87,1.527c.347.27.84-.216.489-.489" transform="translate(-209.398 -79.716)" fill="#c08d53"/>
            <path id="Trazado_1404610" data-name="Trazado 1404610" d="M124.7,64.087a20.787,20.787,0,0,0-4.208-.2q-2.252.083-4.5.247c-1.471.107-2.941.236-4.407.4a15.487,15.487,0,0,0-2.042.335,3.139,3.139,0,0,0-1.653.817,3.919,3.919,0,0,0-.7,1.985,9.825,9.825,0,0,0-.085,2.394c.039.44.731.444.692,0a9.377,9.377,0,0,1,.028-1.983,4.62,4.62,0,0,1,.471-1.786,2.325,2.325,0,0,1,1.534-.786,15.311,15.311,0,0,1,1.914-.3q4.133-.448,8.291-.611a21.766,21.766,0,0,1,4.48.154c.436.072.623-.594.184-.667" transform="translate(-82.774 -49.375)" fill="#c08d53"/>
            <path id="Trazado_1404611" data-name="Trazado 1404611" d="M16.273,106.845c-1.681.539-2.647,2.059-3.369,3.571-.191.4.405.751.6.349.636-1.332,1.461-2.774,2.956-3.253.422-.135.242-.8-.184-.667" transform="translate(-9.947 -82.589)" fill="#c08d53"/>
            <path id="Trazado_1404612" data-name="Trazado 1404612" d="M18.075,273.687a11.528,11.528,0,0,0-1.545-1.27,5.633,5.633,0,0,0-1.691-.933,8.891,8.891,0,0,0-.99-.227c-.27-.045-.53,0-.63.291a2.9,2.9,0,0,0-.072,1.011,5.113,5.113,0,0,0,.161,1.04.346.346,0,0,0,.667-.184,4.185,4.185,0,0,1-.136-.856q-.009-.187,0-.374c0-.042.021-.136.033-.222l.167.034c.141.031.282.064.422.1a3.588,3.588,0,0,1,.683.231,8.826,8.826,0,0,1,1.25.837,9.669,9.669,0,0,1,1.194,1.011c.313.317.8-.172.489-.489" transform="translate(-10.155 -209.7)" fill="#c08d53"/>
            <path id="Trazado_1404613" data-name="Trazado 1404613" d="M58.835,134.04q-.1-8.511-.092-17.023,0-4.8.042-9.6a.346.346,0,0,0-.692,0q-.067,8.54-.028,17.081.039,8.512.185,17.023.082,4.8.2,9.6a.346.346,0,0,0,.692,0q-.206-8.538-.306-17.079" transform="translate(-44.88 -82.783)" fill="#c08d53"/>
            <path id="Trazado_1404614" data-name="Trazado 1404614" d="M225.606,135.467q-.189-8.3-.573-16.591-.216-4.648-.493-9.293c-.026-.442-.719-.446-.692,0q.29,4.858.512,9.719a.332.332,0,0,0-.291.329c-.163,5.568.256,11.127.6,16.68.08,1.285.172,2.572.152,3.86a.34.34,0,0,0-.133.255,39.483,39.483,0,0,0-.071,4.031.35.35,0,0,0,.442.324q.034,3.643.031,7.286a.346.346,0,0,0,.692,0q.008-8.3-.18-16.6" transform="translate(-173.059 -84.462)" fill="#c08d53"/>
            <path id="Trazado_1404615" data-name="Trazado 1404615" d="M30.665,276.463a.527.527,0,0,0-.519-.519l-.949.031a1.417,1.417,0,0,0-.7.021,1.546,1.546,0,0,0-.3-.054.623.623,0,0,0-.33-.128l-.734-.075a5.639,5.639,0,0,0-.584-1.755,5.188,5.188,0,0,0-1.264-1.562A8.136,8.136,0,0,0,23.3,271.3a.418.418,0,0,0-.571.324.4.4,0,0,1,.513.045c.181.208.349.427.543.624a.4.4,0,0,1,.06.079,5.347,5.347,0,0,1,.843.524,4.538,4.538,0,0,1,1.174,1.387,5.285,5.285,0,0,1,.415,3.894.36.36,0,0,0,.014.238.908.908,0,0,1,.521-.162,5.38,5.38,0,0,1,1.185.186,7.894,7.894,0,0,1,2.766.205.563.563,0,0,0,0-.1q-.051-1.039-.1-2.079" transform="translate(-17.571 -209.716)" fill="#d89e5d"/>
            <path id="Trazado_1404616" data-name="Trazado 1404616" d="M17.179,111.621a.328.328,0,0,0-.314-.267.566.566,0,0,1,.007.2c-.021.151-.043.322-.067.518a.425.425,0,0,1-.268.375,3.562,3.562,0,0,1-1.081,2.577,4.994,4.994,0,0,1-3.37,1.314c-.481.015-.483.765,0,.75a5.741,5.741,0,0,0,3.962-1.6,4.217,4.217,0,0,0,1.13-3.872" transform="translate(-9.065 -86.089)" fill="#d89e5d"/>
            <path id="Trazado_1404617" data-name="Trazado 1404617" d="M106.348,146.034a1.467,1.467,0,0,0-1.163.038.661.661,0,0,0-.089.041q-5.831-.214-11.667-.146-5.948.072-11.888.44-2.867.178-5.729.427l-1.951-.112c-.363-4.873-.7-9.748-.91-14.631-.256-5.985-.316-11.984.017-17.967a50.805,50.805,0,0,1,1.209-9.531c-.087,0-.174,0-.261-.011-.24-.019-.478-.053-.716-.086l-.2-.029s-.307-.042-.149-.022a1.358,1.358,0,0,1-.387-.107,50.069,50.069,0,0,0-1.146,8.528c-.2,3.008-.288,6.023-.3,9.037-.026,5.184.179,10.365.486,15.539a.844.844,0,0,0-.427.735,69.076,69.076,0,0,0,.981,11.348,2.627,2.627,0,0,1,1.759.16.672.672,0,0,1,.268-.086l-.009-.117a1.106,1.106,0,0,0,.743.206q5.925-.535,11.871-.777t11.9-.183q3.375.032,6.747.161a1.4,1.4,0,0,0,1.384-1.384,1.535,1.535,0,0,0-.02-.185.561.561,0,0,0,.21-.414.939.939,0,0,0-.55-.872" transform="translate(-54.897 -80.665)" fill="#d89e5d"/>
            <path id="Trazado_1404618" data-name="Trazado 1404618" d="M278.752,143.271a.33.33,0,0,0-.165-.249c-.041-2.388-.1-4.775-.179-7.162-.152-4.343-.4-8.685-.842-13.009q-.38-3.723-.963-7.422a.871.871,0,0,0-1.064-.6.8.8,0,0,0-.527.437,3.9,3.9,0,0,1-1.529-.581.306.306,0,0,0-.407.1,4.384,4.384,0,0,1-.936-1.271c-.18-.366-.727-.045-.548.32A4.245,4.245,0,0,0,275,116.3c.635,4.091,1.048,8.224,1.323,12.367.286,4.3.424,8.613.509,12.924.048,2.439.079,4.879.11,7.319a.865.865,0,1,0,1.73,0q0-.152,0-.3a.315.315,0,0,0,.238-.291,25.438,25.438,0,0,0-.153-5.043" transform="translate(-209.944 -87.627)" fill="#d89e5d"/>
            <path id="Trazado_1404619" data-name="Trazado 1404619" d="M253.367,143.847a3.285,3.285,0,0,0-1.1,2.064c-.776-.036-1.558.017-2.333.041l-2.61.08c-.134-1.829-.145-3.679-.133-5.509.019-2.937.047-5.874.035-8.812q-.035-8.854-.371-17.7-.187-4.934-.468-9.864a5.458,5.458,0,0,1-1.134.15,1,1,0,0,1-.566.382q.134,2.413.246,4.827a.817.817,0,0,0-.355.687q.265,10.825.529,21.65.075,3.052.149,6.1a.923.923,0,0,0,.22.565q0,.557-.008,1.115a61.288,61.288,0,0,0,.392,8.907.624.624,0,0,1,.077-.017,10.589,10.589,0,0,1,1.634-.115h0c-.023-.158-.044-.316-.064-.474l.044,0c1.437-.141,2.9-.016,4.322-.247.115.011.229.028.343.05a.33.33,0,0,0,.422.122.405.405,0,0,0,.156-.12c.26.177.676-.107.463-.4a1.927,1.927,0,0,1-.367-.988.372.372,0,0,0-.005-.148,2.6,2.6,0,0,1,.932-1.891c.307-.27-.143-.717-.449-.448" transform="translate(-189.083 -80.516)" fill="#d89e5d"/>
            <path id="Trazado_1404620" data-name="Trazado 1404620" d="M11.7,165.469c-.283-3.528-.37-7.068-.417-10.606-.047-3.511-.079-7.022-.118-10.533q-.033-2.985-.066-5.969a1.05,1.05,0,0,0-1.038-1.038,1.139,1.139,0,0,0-.521.154q.135,3.186.208,6.374c.048,1.967.086,3.935.123,5.9.037,1.928.1,3.858.089,5.787-.028,3.615-.3,7.278.252,10.868a.889.889,0,0,0,.45.1,1.05,1.05,0,0,0,1.038-1.038" transform="translate(-7.379 -106.165)" fill="#c08d53"/>
            <path id="Trazado_1404621" data-name="Trazado 1404621" d="M36.178,105.378a.825.825,0,0,1-.177-.035,1.042,1.042,0,0,0,1.03.949l2.81-.145a1.055,1.055,0,0,0,1.038-1.038c0-.025,0-.051-.006-.076a24.625,24.625,0,0,1-4.695.346" transform="translate(-27.833 -81.201)" fill="#c08d53"/>
            <path id="Trazado_1404622" data-name="Trazado 1404622" d="M118.993,105c-.362.021-.724.03-1.086.034a.651.651,0,0,1-.288.065c-.55,0-1.1.057-1.648.061a.582.582,0,0,1-.553-.328q-1.486.137-2.977.2c-4.662.2-9.327-.054-13.99-.056a.59.59,0,0,1-.586-.409.715.715,0,0,1-.208.042c-2.239.115-4.476-.117-6.715-.061a.6.6,0,0,1-.386-.114,1.017,1.017,0,0,0-.458.857,1.059,1.059,0,0,0,1.038,1.038l10.609.322c3.494.106,6.99.248,10.486.216,1.969-.018,3.938-.1,5.9-.277a1.061,1.061,0,0,0,1.038-1.038,1.177,1.177,0,0,0-.176-.554" transform="translate(-69.655 -80.744)" fill="#c08d53"/>
            <path id="Trazado_1404623" data-name="Trazado 1404623" d="M258.279,102.892a1.051,1.051,0,0,0-.244-.654.71.71,0,0,1-.547.308l-2.5.179c0,.01,0,.019,0,.029a1.068,1.068,0,0,0,1.038,1.038l1.219.138a1.04,1.04,0,0,0,1.038-1.038" transform="translate(-197.131 -79.041)" fill="#c08d53"/>
            <path id="Trazado_1404624" data-name="Trazado 1404624" d="M230.859,9.628a2.546,2.546,0,0,0-.564-1.081.609.609,0,0,0-.842-.013A3.285,3.285,0,0,0,228.928,8h-.769a1.108,1.108,0,0,1-.814-.352.611.611,0,0,0,.268,1,2.219,2.219,0,0,1,1.405,1.8,10.15,10.15,0,0,1-.253,3.49l-.57,3.636c-.088.559-.16,1.124-.275,1.678a2.623,2.623,0,0,1-.556,1.291,2.521,2.521,0,0,1-.351.309,2.2,2.2,0,0,0,.292-1.313,2.223,2.223,0,0,0-1.161-1.8.621.621,0,0,0-.828.217.611.611,0,0,0-.078.331.862.862,0,0,1,.312.215,1.468,1.468,0,0,1,.251.316,1.291,1.291,0,0,1,.124.308,1.091,1.091,0,0,1-.28,1.486,1.471,1.471,0,0,1-1.3.227.879.879,0,0,1-.253.026,1.276,1.276,0,0,1-.81-.336c-.011-.011-.02-.023-.03-.035a2.768,2.768,0,0,1-.187-.244.494.494,0,0,1-.031-.057c-.037-.077-.068-.154-.1-.232a1.17,1.17,0,0,1-.092-.206.611.611,0,0,0-.546.9,2.873,2.873,0,0,0,1.4,1.223l-.593,1.2a.621.621,0,0,0,.217.828.611.611,0,0,0,.828-.217l.1-.21a.665.665,0,0,0,.486-.05l1.828-.931A7.562,7.562,0,0,0,227.9,21.7a.618.618,0,0,0,.849-.007,2.18,2.18,0,0,0,.73-1.322.628.628,0,0,0-.406-.739c.1-.459.167-.933.239-1.391l.633-4.034a12.786,12.786,0,0,0,.29-3.811.517.517,0,0,0,.2-.021.619.619,0,0,0,.423-.745" transform="translate(-171.791 -5.917)" fill="#e5b585"/>
            <path id="Trazado_1404625" data-name="Trazado 1404625" d="M218.29,9.609a1.625,1.625,0,0,0-1.855.945,8.519,8.519,0,0,0-.532,2.658q-.375,2.946-.47,5.917c-.016.482.734.482.75,0q.084-2.572.375-5.132c.093-.813.175-1.639.337-2.441.112-.553.464-1.443,1.2-1.225a.375.375,0,0,0,.2-.723" transform="translate(-166.553 -7.385)" fill="#e5b585"/>
            <path id="Trazado_1404626" data-name="Trazado 1404626" d="M215.276,57.658a.375.375,0,0,0,0,.75.375.375,0,0,0,0-.75" transform="translate(-166.153 -44.576)" fill="#e5b585"/>
            <path id="Trazado_1404627" data-name="Trazado 1404627" d="M14.27,102.821c-2.693-.052-4.472,2.313-4.956,4.751A22.063,22.063,0,0,0,9.1,112.26l.1,5.84c.131,7.57.044,15.181.407,22.743.122,2.538.79,5.115,3.34,6.183a12.145,12.145,0,0,0,4.032.707c1.946.11,3.895.163,5.843.181,7.669.071,15.346-.29,23.01-.511,7.577-.218,15.19-.237,22.758-.668,2.6-.148,5.228-.788,6.676-3.146,1.335-2.175,1.338-4.944,1.2-7.409-.423-7.672-1.046-15.339-1.57-23.005-.207-3.025.019-6.732-1.92-9.282-1.96-2.577-4.916-1.982-7.743-1.647-15.036,1.781-30.158-.093-45.236.285q-2.885.072-5.764.265c-.442.029-.445.722,0,.692,13.771-.92,27.544.6,41.32.154,3.382-.111,6.761-.344,10.121-.757,1.659-.2,3.579-.678,5.164.085a5.548,5.548,0,0,1,2.695,3.71,25.908,25.908,0,0,1,.563,4.914l.371,5.424q.371,5.423.742,10.847c.218,3.194.565,6.408.614,9.61.04,2.609-.282,5.7-2.61,7.321-2.553,1.78-6.5,1.316-9.444,1.4l-10.315.3q-10.482.3-20.963.6c-3.448.094-6.9.168-10.346.12-1.8-.025-3.6-.075-5.393-.186a8.454,8.454,0,0,1-4.422-1.114c-1.521-1.073-1.9-2.984-2.015-4.727-.116-1.783-.087-3.582-.118-5.368q-.1-5.827-.2-11.654t-.2-11.68c-.055-3.159-.134-9.06,4.472-8.972a.346.346,0,0,0,0-.692" transform="translate(-7.018 -78.81)"/>
            <path id="Trazado_1404628" data-name="Trazado 1404628" d="M55.64,105.478l.137,44.49a.346.346,0,0,0,.692,0q-.068-22.245-.137-44.49a.346.346,0,0,0-.692,0" transform="translate(-43.016 -81.288)"/>
            <path id="Trazado_1404629" data-name="Trazado 1404629" d="M70.57,104.947a225.463,225.463,0,0,0-.453,44.608c.039.44.731.444.692,0a225.463,225.463,0,0,1,.453-44.608c.049-.442-.644-.439-.692,0" transform="translate(-53.52 -80.88)"/>
            <path id="Trazado_1404630" data-name="Trazado 1404630" d="M221.213,107.033q.645,21.492,1.289,42.984c.013.444.705.446.692,0q-.645-21.492-1.289-42.984c-.013-.444-.705-.446-.692,0" transform="translate(-171.023 -82.491)"/>
            <path id="Trazado_1404631" data-name="Trazado 1404631" d="M242.425,107.01q.535,21.46,1.044,42.921a.346.346,0,0,0,.692,0q-.535-21.46-1.044-42.921a.346.346,0,0,0-.692,0" transform="translate(-187.421 -82.473)"/>
            <path id="Trazado_1404632" data-name="Trazado 1404632" d="M12.535,269.662c3.519-.334,5.8,3.291,5.123,6.452-.093.434.573.62.667.184.766-3.562-1.8-7.707-5.79-7.328-.439.042-.444.734,0,.692" transform="translate(-9.435 -207.925)"/>
            <path id="Trazado_1404633" data-name="Trazado 1404633" d="M10.325,111.915a5.173,5.173,0,0,0,5.481-6.034c-.051-.437-.744-.442-.692,0,.354,3.022-1.646,5.521-4.789,5.342-.445-.025-.443.667,0,.692" transform="translate(-7.725 -81.603)"/>
            <path id="Trazado_1404634" data-name="Trazado 1404634" d="M268.393,103.521c.508,2.752,3.038,4.7,5.733,3.416.4-.191.051-.788-.349-.6-2.316,1.1-4.3-.751-4.717-3-.081-.437-.748-.252-.667.184" transform="translate(-207.493 -79.698)"/>
            <path id="Trazado_1404635" data-name="Trazado 1404635" d="M285.806,271.038a4.414,4.414,0,0,0-4.169,1.524c-.677.922-1.4,3.386-.086,4.11.39.216.739-.382.349-.6-.455-.251-.357-1.2-.3-1.626a3.17,3.17,0,0,1,.86-1.795,3.845,3.845,0,0,1,3.156-.948c.435.06.624-.606.184-.667" transform="translate(-217.105 -209.505)"/>
            <path id="Trazado_1404636" data-name="Trazado 1404636" d="M106.554,71.655a38.442,38.442,0,0,1-.173-4.108c.01-.99-.249-3.4.643-4.029a7.252,7.252,0,0,1,2.413-.616q1.3-.26,2.617-.421a35.543,35.543,0,0,1,9.169.094c1.348.192,3.259.3,4.432,1.031,1.2.745.826,2.865.839,4.132q.021,2.071.043,4.143a.346.346,0,0,0,.692,0q-.03-2.638-.055-5.276c-.011-1.054.168-2.464-.656-3.291-1-1-3.183-1.1-4.485-1.308a35.588,35.588,0,0,0-10.49-.15q-1.464.2-2.91.51a4.953,4.953,0,0,0-2.227.756c-.81.735-.65,2.293-.689,3.28a38.47,38.47,0,0,0,.145,5.254c.043.439.735.444.692,0" transform="translate(-81.707 -47.575)"/>
            <path id="Trazado_1404637" data-name="Trazado 1404637" d="M118.649,83.939a14.357,14.357,0,0,1-.224-2.913,5.657,5.657,0,0,1,.076-1.219c.228-.937.862-1.019,1.652-1.115a56.573,56.573,0,0,1,6.606-.369q1.545-.006,3.088.061c.923.04,3.383-.213,3.7.828a9.963,9.963,0,0,1,.04,2.373q.022,1.368.046,2.737a.346.346,0,0,0,.692,0c-.023-1.211-.041-2.422-.061-3.634-.013-.771.235-2.038-.5-2.55-.779-.543-2.356-.364-3.254-.413q-2.313-.126-4.632-.084-2.206.039-4.406.231c-.9.079-2.267-.013-3.042.57-.674.507-.661,1.483-.688,2.246a15.381,15.381,0,0,0,.241,3.436c.084.437.751.252.667-.184" transform="translate(-91.018 -60.016)"/>
            <path id="Trazado_1404638" data-name="Trazado 1404638" d="M175.911,63.387a4.424,4.424,0,0,0,1.528,2.464,4.8,4.8,0,0,0,3.662.307,12.587,12.587,0,0,0,5.3-2.69,5.692,5.692,0,0,0,2.542-4.907c-.033-.441-.725-.445-.692,0,.265,3.562-3.975,6.125-6.993,6.852a4.629,4.629,0,0,1-3.324-.068,3.583,3.583,0,0,1-1.355-2.142c-.137-.422-.8-.241-.667.184" transform="translate(-135.984 -45.017)"/>
            <path id="Trazado_1404639" data-name="Trazado 1404639" d="M223.184,49.772a2.352,2.352,0,0,0-.838,2.725c.431,1.218,2.043,1.467,3.131,1.12,3.452-1.1-.675-5.793-2.378-3.805-.288.336.2.828.489.489,1.073-1.253,4.475,2.659,1,2.771a1.463,1.463,0,0,1-1.658-1.115,1.6,1.6,0,0,1,.6-1.587c.394-.209.044-.806-.349-.6" transform="translate(-171.798 -38.135)"/>
            <path id="Trazado_1404640" data-name="Trazado 1404640" d="M210.132,5.784l-.511,5.43a28,28,0,0,0-.388,5.2,4.008,4.008,0,0,0,1.7,2.717c.49.4,1,.768,1.457,1.2.38.361.667.663,1.22.611a8.629,8.629,0,0,0,2.065-.771c.879-.346,1.784-.655,2.644-1.044,1.148-.519,1.084-1.514,1.22-2.65l.676-5.63.324-2.7a5.893,5.893,0,0,0,.17-2.394c-.178-.485-.548-.6-1.02-.736-.967-.284-1.962-.5-2.951-.689a42.922,42.922,0,0,0-5.891-.715.355.355,0,0,0-.334.254,5.386,5.386,0,0,0-.382,2.145.346.346,0,0,0,.692,0,4.9,4.9,0,0,1,.357-1.961l-.334.254a41.633,41.633,0,0,1,5.495.649q1.276.241,2.536.564c.546.14,1.045.126,1.186.828A6.03,6.03,0,0,1,219.9,7.7l-.649,5.4-.324,2.7c-.054.45-.106.9-.162,1.351a1.747,1.747,0,0,1-1.182,1.528,25.061,25.061,0,0,1-2.512.989,5.066,5.066,0,0,1-1.256.494,1.826,1.826,0,0,1-1.282-.638c-1.175-1.026-2.566-1.731-2.632-3.488a37.622,37.622,0,0,1,.41-4.827l.511-5.43c.042-.443-.65-.44-.692,0" transform="translate(-161.729 -2.794)"/>
            <path id="Trazado_1404641" data-name="Trazado 1404641" d="M232.6,285.572A57.538,57.538,0,0,0,245.27,284.2c2.97-.783,5.929-2.859,5.932-6.229a.346.346,0,0,0-.692,0c0,3.742-3.848,5.341-6.971,5.9A76.737,76.737,0,0,1,232.6,284.88c-.444.014-.446.706,0,.692" transform="translate(-179.571 -214.642)"/>
            <path id="Trazado_1404642" data-name="Trazado 1404642" d="M316,264.846a.346.346,0,0,0,0-.692.346.346,0,0,0,0,.692" transform="translate(-244.045 -204.221)"/>
            <path id="Trazado_1404643" data-name="Trazado 1404643" d="M98.916,62.265c.023-1.8.463-3.233,2.358-3.808a22.924,22.924,0,0,1,4.626-.542c.44-.038.444-.73,0-.692-1.886.162-4.187.035-5.878,1.015-1.52.881-1.777,2.4-1.8,4.027a.346.346,0,0,0,.692,0" transform="translate(-75.938 -44.238)"/>
            <path id="Trazado_1404644" data-name="Trazado 1404644" d="M143.8,55.518a.346.346,0,0,0,0-.692.346.346,0,0,0,0,.692" transform="translate(-110.917 -42.387)"/>
            <path id="Trazado_1404645" data-name="Trazado 1404645" d="M.044,151Q.022,158.629,0,166.26a.346.346,0,0,0,.692,0Q.714,158.629.736,151a.346.346,0,0,0-.692,0" transform="translate(0 -116.48)"/>
            <path id="Trazado_1404646" data-name="Trazado 1404646" d="M1.2,243.859a.346.346,0,0,0,0-.692.346.346,0,0,0,0,.692" transform="translate(-0.671 -187.995)"/>
            <path id="Trazado_1404647" data-name="Trazado 1404647" d="M249.81.693a7.958,7.958,0,0,1,1.558.234A1.3,1.3,0,0,1,252.481,2.2a14.98,14.98,0,0,1,.029,2.776.346.346,0,0,0,.692,0c.023-.81.023-1.62-.012-2.429A3.151,3.151,0,0,0,252.929.99c-.56-.875-2.188-.933-3.119-.989-.445-.027-.443.665,0,.692" transform="translate(-192.874 0)"/>
            <path id="Trazado_1404648" data-name="Trazado 1404648" d="M262.187,34.532a.346.346,0,0,0,0-.692.346.346,0,0,0,0,.692" transform="translate(-202.442 -26.162)"/>
            <path id="Trazado_1404649" data-name="Trazado 1404649" d="M125.342,194.868c3.269-2.611,2.306-6.035-1.606-7.9a17.57,17.57,0,0,0-13.678.063c-4.683,2.193-5.524,6.22-.981,8.781,4.781,2.694,12.445,2.107,16.264-.943" transform="translate(-82.008 -143.499)" fill="#ec6a00"/>
            <path id="Trazado_1404650" data-name="Trazado 1404650" d="M136.549,189.88c2.8-2.226,2.009-5.2-1.369-6.827a14.523,14.523,0,0,0-11.688.132c-3.824,1.924-4.31,5.341-.467,7.472,4.009,2.223,10.328,1.762,13.524-.776" transform="translate(-93.061 -140.621)" fill="#ffc431"/>
            <path id="Trazado_1404651" data-name="Trazado 1404651" d="M129.906,186.732c2.919-2.275,2.133-5.312-1.326-6.976a15.189,15.189,0,0,0-12.063.105c-4,1.956-4.586,5.456-.641,7.652C120,189.806,126.564,189.336,129.906,186.732Z" transform="translate(-87.516 -138.046)" fill="none" stroke="#01043d" stroke-linecap="round" stroke-linejoin="round" stroke-width="0.598"/>
            <path id="Trazado_1404652" data-name="Trazado 1404652" d="M126.614,185.558c3.183-2.555,2.242-5.913-1.583-7.742a16.984,16.984,0,0,0-13.335.086c-4.526,2.159-5.291,6.094-.864,8.584C115.484,189.1,122.91,188.531,126.614,185.558Z" transform="translate(-83.402 -136.451)" fill="none" stroke="#01043d" stroke-linecap="round" stroke-linejoin="round" stroke-width="0.598"/>
            <path id="Trazado_1404653" data-name="Trazado 1404653" d="M141.97,189.963c-1.161.773-2.638.383-3.913-.015l-1.553.957a7.566,7.566,0,0,0,1.954.47l-.645,1a8.114,8.114,0,0,1-2.579-.686l-1.094.674-.983-.531,1.126-.673c-1.33-.91-1.146-1.8-.121-2.37a5.065,5.065,0,0,1,4.034.034l1.4-.839a7.68,7.68,0,0,0-2.332-.531l.544-.817a8.7,8.7,0,0,1,2.839.721l.842-.5.879.432-.855.527C142.789,188.611,142.792,189.415,141.97,189.963Zm-6.391-.353c-.31.181-.388.446,0,.777l1.318-.787A1.8,1.8,0,0,0,135.578,189.61Zm4.894-1.151-1.142.7a1.681,1.681,0,0,0,1.239-.021C140.831,188.977,140.839,188.743,140.472,188.459Z" transform="translate(-102.945 -144.291)" fill="none" stroke="#01043d" stroke-linecap="round" stroke-linejoin="round" stroke-width="0.598"/>
            <line id="Línea_3829" data-name="Línea 3829" x1="0.05" y2="2.507" transform="translate(24.586 47.468)" fill="none" stroke="#01043d" stroke-linecap="round" stroke-linejoin="round" stroke-width="0.598"/>
            <line id="Línea_3830" data-name="Línea 3830" x1="0.05" y2="2.507" transform="translate(26.151 49.258)" fill="none" stroke="#01043d" stroke-linecap="round" stroke-linejoin="round" stroke-width="0.598"/>
            <line id="Línea_3831" data-name="Línea 3831" x1="0.05" y2="2.507" transform="translate(28.149 50.465)" fill="none" stroke="#01043d" stroke-linecap="round" stroke-linejoin="round" stroke-width="0.598"/>
            <line id="Línea_3832" data-name="Línea 3832" x1="0.05" y2="2.507" transform="translate(31.035 51.433)" fill="none" stroke="#01043d" stroke-linecap="round" stroke-linejoin="round" stroke-width="0.598"/>
            <line id="Línea_3833" data-name="Línea 3833" x1="0.05" y2="2.507" transform="translate(33.99 51.484)" fill="none" stroke="#01043d" stroke-linecap="round" stroke-linejoin="round" stroke-width="0.598"/>
            <line id="Línea_3834" data-name="Línea 3834" x1="0.05" y2="2.507" transform="translate(36.887 51.397)" fill="none" stroke="#01043d" stroke-linecap="round" stroke-linejoin="round" stroke-width="0.598"/>
            <line id="Línea_3835" data-name="Línea 3835" x1="0.05" y2="2.507" transform="translate(39.598 50.681)" fill="none" stroke="#01043d" stroke-linecap="round" stroke-linejoin="round" stroke-width="0.598"/>
            <line id="Línea_3836" data-name="Línea 3836" x1="0.05" y2="2.507" transform="translate(41.899 49.767)" fill="none" stroke="#01043d" stroke-linecap="round" stroke-linejoin="round" stroke-width="0.598"/>
            <line id="Línea_3837" data-name="Línea 3837" x1="0.05" y2="2.507" transform="translate(43.948 48.437)" fill="none" stroke="#01043d" stroke-linecap="round" stroke-linejoin="round" stroke-width="0.598"/>
            <line id="Línea_3838" data-name="Línea 3838" x1="0.05" y2="2.507" transform="translate(45.179 46.569)" fill="none" stroke="#01043d" stroke-linecap="round" stroke-linejoin="round" stroke-width="0.598"/>
          </g>
        </g>
      </g>
    </g>
  </g>
</svg>
