<svg xmlns="http://www.w3.org/2000/svg" width="605.074" height="49.631" viewBox="0 0 605.074 49.631">
  <path id="Unión_88" data-name="Unión 88" d="M20019.51,11748.629c-.773,0-1.549-.03-2.316-.046-2.1-.045-4.205-.137-6.3-.228-1.479-.071-2.965-.021-4.443.025a48.447,48.447,0,0,1-5.365-.031c-1.387-.111-2.8-.076-4.2-.132a5.086,5.086,0,0,1-2.051-.284,11.754,11.754,0,0,1-3.217.046c-1.133-.04-2.266-.056-3.393-.076-.262,0-.527-.01-.787-.02h-.023a38.226,38.226,0,0,1-4.461-.146.958.958,0,0,1-.648.228q-4.066-.122-8.139-.27a1.6,1.6,0,0,1-.428-.146,1.157,1.157,0,0,1-.854-.051,2.649,2.649,0,0,1-1.961-.092l-.953.122c-.191.106-.383.294-.572.3a26.382,26.382,0,0,1-4.615-.162,1.4,1.4,0,0,1-.389-.208c-.309,0-.617-.015-.928-.021a1.571,1.571,0,0,1-1.885-.07c-.311,0-.613,0-.92,0a3.351,3.351,0,0,1-2.4.056,5.8,5.8,0,0,1-2.736-.142,13.826,13.826,0,0,1-3.434.405,38.767,38.767,0,0,0-6.512.03,17.414,17.414,0,0,0-4.387-.146,25.694,25.694,0,0,1-3,.035,57.872,57.872,0,0,0-7.213-.035,53.081,53.081,0,0,1-8.369-.259c-.277-.03-.562-.056-.84-.081a2.159,2.159,0,0,1-1.98.1,1.9,1.9,0,0,1-.533-.163c-.006-.021-.016-.042-.021-.062-.111-.047-.219-.095-.33-.141-.291-.015-.582-.025-.877-.04a.879.879,0,0,1-.861.573c-.5-.021-1-.016-1.5-.011a13.391,13.391,0,0,1-3.375-.238,1.652,1.652,0,0,1-1.311-.081,29.134,29.134,0,0,1-6.752.352.254.254,0,0,0-.02.029,1.712,1.712,0,0,0-.15.567,32.689,32.689,0,0,0-8.119.2c-.227.03-.5.132-.68.061-1.258-.507-2.408.036-3.625.157-.662.071-1.34.092-2.014.1h-.324c-.771,0-1.549-.03-2.316-.046-2.1-.045-4.205-.137-6.3-.228-1.479-.071-2.963-.021-4.441.025a48.441,48.441,0,0,1-5.365-.031c-1.389-.111-2.8-.076-4.205-.132a5.063,5.063,0,0,1-2.047-.284,11.784,11.784,0,0,1-3.221.046c-1.133-.04-2.264-.056-3.391-.076-.264,0-.527-.01-.789-.02l-.176,0a.5.5,0,0,1-.246.091c-.406,0-.811.01-1.219.025a13.035,13.035,0,0,1-3.027-.137.923.923,0,0,1-.465.106c-.658-.021-1.318-.04-1.975-.062-.768.006-1.535-.027-2.3-.074l-2.316-.079a9.075,9.075,0,0,1-2.158-.074l-1.187-.064a2.545,2.545,0,0,1-1.006-.045l-1.273-.053-.117.015c-.191.106-.381.294-.572.3a26.382,26.382,0,0,1-4.615-.162,1.361,1.361,0,0,1-.387-.208c-.311,0-.619-.015-.93-.021a1.571,1.571,0,0,1-1.885-.07c-.309,0-.613,0-.918,0a3.352,3.352,0,0,1-2.4.056,5.808,5.808,0,0,1-2.738-.142,13.826,13.826,0,0,1-3.434.405,38.743,38.743,0,0,0-6.51.03,17.432,17.432,0,0,0-4.389-.146,25.694,25.694,0,0,1-3,.035,57.814,57.814,0,0,0-7.209-.035,53.052,53.052,0,0,1-8.369-.259c-.281-.03-.564-.056-.846-.081-1.043.618-1.943.116-2.863-.27-.291-.015-.584-.025-.877-.04a.879.879,0,0,1-.861.573c-.5-.021-1-.016-1.5-.011a13.391,13.391,0,0,1-3.375-.238,1.652,1.652,0,0,1-1.311-.081,36.038,36.038,0,0,1-10.416.046c-.309.035-.623.065-.941.1-.2.1-.393.278-.59.273-1.537-.035-3.082-.106-4.619-.183-.131,0-.256-.137-.381-.213a30.11,30.11,0,0,1-6.129.081,2.75,2.75,0,0,1-2.785-.03l-1.871-.046a.776.776,0,0,1-.99.062,3.327,3.327,0,0,1-1.889.086,7.821,7.821,0,0,1-4.2.025,30.625,30.625,0,0,1-6.1.035,4.735,4.735,0,0,1-3.3.1,7.649,7.649,0,0,1-2.844-.035c-.178.121-.357.335-.537.34a13.741,13.741,0,0,1-4.129-.208,4.939,4.939,0,0,1-1.893.061c-.189.106-.381.3-.564.3-.406,0-.811.01-1.215.025a11.642,11.642,0,0,1-3.383-.219,31.057,31.057,0,0,1-6.033-.061,12.3,12.3,0,0,1-2.83-.04l-1.4-.076q-3.979-.168-7.953-.33c-.061-.187-.051-.487-.2-.548-.992-.451-1.762-1.318-3.07-1.2a.85.85,0,0,1-.549-.278.333.333,0,0,1,.162-.518,1.867,1.867,0,0,0,1.145-1.806.443.443,0,0,1,.7-.269c.32.177.58.436.883.644.674.478.947.421,1.383-.259.471-.73.66-.826,1.27-.314a3.362,3.362,0,0,0,2.557.5c.465-.011.531-.157.449-.457-.08-.254-.238-.512.053-.735.428-.33.262-.522-.182-.689a5.609,5.609,0,0,0-3.414-.143c-.59.143-1.092.157-1.312-.441a1.066,1.066,0,0,0-.764-.685c-.439-.132-.861-.3-1.3-.446a.783.783,0,0,1-.625-.751,1.053,1.053,0,0,1,.813-1.09,10.759,10.759,0,0,1,1.619-.081c.25,0,.5.01.752.02a3.962,3.962,0,0,0,2.615-.472.847.847,0,0,1,.871.1,2.535,2.535,0,0,0,.787.391c.557.076.447-.451.7-.654a7.365,7.365,0,0,1,1.039-.578c-1.066-.406-2.008-.862-3.166-.457-.389.133-.752-.081-1.121-.177-1.176-.314-2.365-.6-3.547-.908a1.874,1.874,0,0,0-1.133.03c-.357.127-.729.264-1.08-.056.709-.4.48-1.07.676-1.623a.466.466,0,0,1,.7-.3c.836.593,1.395.6,1.914-.314.172-.3.852-.239,1.188-.568.189-.193.361.056.561.127.541.2,1.322.056,1.387-.233.1-.426-.16-.756-.578-.989-.465-.264-.922-.507-1.43-.01a.765.765,0,0,1-.607.172,8.192,8.192,0,0,0-4.256-.558c-.383.071-.621-.37-.795-1.187a.544.544,0,0,0-.162-.355c-1.078-.746.01-1.613-.189-2.42-.152-.639,0-.664,2.295-1.069a2.236,2.236,0,0,0,.389-.147c-.381-.608-.768-1.192-1.771-.761a1.251,1.251,0,0,1-.457.051c-.52-.011-.986-.168-.979-.654a3.635,3.635,0,0,0-.766-2.039c-.85-1.3-.6-1.588,1.26-1.729.395-.03.793-.021.967-.406s-.131-.862-.738-1.08a4.241,4.241,0,0,0-.687-.106c-.232-.046-.482-.137-.383-.375a1.221,1.221,0,0,1,.441-.446,1.52,1.52,0,0,1,1.025-.133,2,2,0,0,0,.99-.086,8.406,8.406,0,0,1,3.447-.365,28.7,28.7,0,0,0,6.051-.132,3.621,3.621,0,0,1,.924.062c.266-.006.535-.006.8,0,.584,0,1.176,0,1.76-.006.27,0,.541.006.816.011a11.045,11.045,0,0,0,1.967-.071,15.712,15.712,0,0,1,3.01-.116.992.992,0,0,1,.891-.751c.408-.071.35-.325.131-.563a2.109,2.109,0,0,0-1.33-.674c-.607-.143-1.215-.284-1.83-.422a1.041,1.041,0,0,1-.758.355,5.943,5.943,0,0,1-1.3-.106,5.021,5.021,0,0,0-1.609-.076c-.406.071-.514-.391-.578-.71-.461-.016-.91-.03-1.371-.041a1.493,1.493,0,0,1-1.223.32c-.1-.006-.2-.006-.293-.006-.607.006-1.209-.035-1.818-.076a13.21,13.21,0,0,0-3.516.092,6.07,6.07,0,0,0-3.4,0,1.089,1.089,0,0,1-.674-.1,2.629,2.629,0,0,0-2.021-.081,1.717,1.717,0,0,1-1.658-.5.292.292,0,0,1-.113-.229.256.256,0,0,1,.211-.248,10.094,10.094,0,0,1,1.369-.132c.3-.025.656.015.789-.295.17-.4-.174-.6-.479-.807a6.238,6.238,0,0,1-.57-.334c-.3-.259-.18-.381.189-.548.479-.213.479-.513.082-.634-.428-.133-.881-.214-1.43-.351-.137-.72.572-1.385.291-2.09a2.371,2.371,0,0,1,.1-1.907c.088-.2-.086-.512-.189-.755-.361-.8.021-1.4.641-1.969a1.555,1.555,0,0,1,.947-.41c1.033-.143,2.166.03,3.078-.584.293.016.586.025.877.041a7.838,7.838,0,0,1,3.379-.143l1.826.351c.238.34.559.35.988.254a49.886,49.886,0,0,1,6.91-.711c1.686-.137,3.4-.065,4.947-.821a1.468,1.468,0,0,1,.674-.142,35.679,35.679,0,0,0,3.7-.265c.938,0,1.848-.1,2.773-.183,1.09.66,1.885-.218,2.813-.38a2.9,2.9,0,0,1,.471-.016c1.559.016,3.111.056,4.67.046.463,0,.924.016,1.387.03a13.579,13.579,0,0,0,3.178-.127,1.842,1.842,0,0,1,.926.046,6.921,6.921,0,0,0,3.641-.065,6.867,6.867,0,0,1,1.611-.157,32.742,32.742,0,0,0,3.51.091,7.42,7.42,0,0,1,3.4.127,1.113,1.113,0,0,0,.688-.051,8.33,8.33,0,0,1,3.01-.167,11.989,11.989,0,0,0,2.33,0,13.457,13.457,0,0,1,2.379-.218h.291c.729.01,1.457.05,2.176.091.871.051,1.738.1,2.605.091.783-.01,1.223.584,1.885.705a1.749,1.749,0,0,0,1.109-.273,2.021,2.021,0,0,1,1.061-.289c1.949.132,3.9.167,5.848.248.412.016.789.132.914.5.189.573.553.711,1.215.518.813-.238,1.664-.37,2.469-.6a2.782,2.782,0,0,1,2.033.025,1.644,1.644,0,0,0,1.9-.319,1.952,1.952,0,0,1,2.127-.269,6.193,6.193,0,0,0,2.766.151c1.248-.142,1.252-.126,1.658.817a5.636,5.636,0,0,0,.227.563c.125.218.2.573.584.487a1.338,1.338,0,0,0,.705-.467,3.193,3.193,0,0,0,.4-.918.821.821,0,0,1,.838-.573,4.424,4.424,0,0,1,1.84.183,5.044,5.044,0,0,1,1.766.913,2.858,2.858,0,0,0,2.588.6,1.7,1.7,0,0,0,1.506-1.334c.1-.376.52-.467.932-.457,1.246.036,2.5.1,3.742.132,1.4.036,2.809.117,4.205.03a5.384,5.384,0,0,1,1.8.107c.73.192,1.58.075,2.1.715.781-.243,1.543-.538,2.342-.715a6.63,6.63,0,0,1,1.623-.087,41.286,41.286,0,0,0,4.816-.187,8.055,8.055,0,0,1,1.879.137,8.173,8.173,0,0,0,1.793.143,24.051,24.051,0,0,1,3.678-.432,4.34,4.34,0,0,0,.529,0,2.542,2.542,0,0,1,.867.076c1.281.457,2.521.929,3.893.254.1-.046.3.041.443.1a1.881,1.881,0,0,0,1.35.045,4.571,4.571,0,0,1,2.727.173,3,3,0,0,0,1.387-.071,2.747,2.747,0,0,1,1.58-.02,4.181,4.181,0,0,0,1.8.1,43.483,43.483,0,0,1,5.8-.31,20.351,20.351,0,0,0,4.6.233c1.1-.142,2.264-.532,3.416.016a.313.313,0,0,0,.129.026,5.132,5.132,0,0,1,1.074-.392,2.881,2.881,0,0,1,.471-.016c1.559.016,3.113.056,4.668.046.465,0,.926.016,1.389.03s.936.036,1.4.032a2.355,2.355,0,0,1,.354-.093,2.911,2.911,0,0,1,.471-.016l.617.008c.113-.017.225-.036.338-.059a1.827,1.827,0,0,1,.922.046l.1.032c.9.014,1.8.024,2.7.019l.236,0c.2-.038.406-.078.609-.118a6.86,6.86,0,0,1,1.609-.157,32.8,32.8,0,0,0,3.514.091,8.156,8.156,0,0,1,3.209.057,6.869,6.869,0,0,1,1.559-.148,14.874,14.874,0,0,1,2.332,0c.484,0,.977.06,1.459.068.344-.03.684-.068,1.021-.092a13.75,13.75,0,0,1,2.229-.189h.291c.727.01,1.457.05,2.176.091.871.051,1.734.1,2.605.091a1.57,1.57,0,0,1,.512.082c.107-.011.211-.025.316-.046a13.513,13.513,0,0,1,2.381-.218h.3c.719.01,1.447.05,2.176.091.861.051,1.734.1,2.605.091a2.089,2.089,0,0,1,1.1.371l.514.02a1.086,1.086,0,0,1,.791.286,3.455,3.455,0,0,0,.578-.245,2.029,2.029,0,0,1,1.068-.289c1.941.132,3.891.167,5.842.248a1.95,1.95,0,0,1,.338.041,1.971,1.971,0,0,1,2.035-.192,6.19,6.19,0,0,0,2.766.151c1.049-.119,1.219-.127,1.488.436h0a1.643,1.643,0,0,0,1.9-.319,1.954,1.954,0,0,1,2.127-.269,6.21,6.21,0,0,0,2.768.151c1.252-.142,1.252-.126,1.662.817a4.81,4.81,0,0,0,.223.563c.045.081.084.18.135.269.1-.012.205-.026.3-.045a2.005,2.005,0,0,0,.992-.438,5.7,5.7,0,0,0,.26-.683.781.781,0,0,1,.438-.492,1.194,1.194,0,0,1,.75-.178c1.246.036,2.492.1,3.742.132s2.525.1,3.783.052a1.191,1.191,0,0,1,.76-.184c1.246.036,2.49.1,3.738.132.867.022,1.74.062,2.609.067a9.548,9.548,0,0,1,1.184-.017h0c.135,0,.271-.012.406-.021a6.715,6.715,0,0,1,1.4.021c1.006-.03,2.012-.1,3.01-.187a8.038,8.038,0,0,1,1.877.137c.145.022.289.045.434.064a9.664,9.664,0,0,1,1.152-.014c.293.011.588.015.881.015a12.63,12.63,0,0,1,3.006-.354,4.287,4.287,0,0,0,.525,0,2.575,2.575,0,0,1,.871.076l.176.063a11.483,11.483,0,0,1,1.236.145,8.211,8.211,0,0,0,1.793.143c.213-.015.42-.039.631-.07l.057-.026a.237.237,0,0,1,.141,0,11.424,11.424,0,0,1,2.857-.33,4.265,4.265,0,0,0,.525,0,2.529,2.529,0,0,1,.863.076,12.649,12.649,0,0,0,1.564.488,2.66,2.66,0,0,1,1.535-.011l.086.03a3.265,3.265,0,0,0,.707-.254c.1-.046.3.041.443.1a1.9,1.9,0,0,0,1.357.045,3.457,3.457,0,0,1,1.828-.048,17.247,17.247,0,0,1,3.186-.084c.957.087,1.906.238,2.869.288,1.094-.07,2.176-.22,3.27-.291a4.774,4.774,0,0,1,.6-.03,12.679,12.679,0,0,1,1.539.033c.295.026.586.06.879.094a2.055,2.055,0,0,1,.887-.018,5.707,5.707,0,0,0,2.271.071,8.34,8.34,0,0,1,1.221-.019,7.3,7.3,0,0,1,1.623-.159,2.533,2.533,0,0,1,.328-.086,2.881,2.881,0,0,1,.471-.016c.5,0,1.008.013,1.512.021l.025,0a2.94,2.94,0,0,1,.471-.016c1.559.016,3.113.056,4.676.046.457,0,.924.016,1.389.03l.137.006a8.451,8.451,0,0,0,1.027-.133,1.837,1.837,0,0,1,.924.046c.078.027.158.051.24.072a7.824,7.824,0,0,0,.844-.118,1.862,1.862,0,0,1,.93.046,4.25,4.25,0,0,0,.514.136c.373-.055.744-.128,1.113-.2a6.886,6.886,0,0,1,1.617-.157c.336.013.674.033,1.016.053a5.788,5.788,0,0,1,.994-.053c.525.021,1.055.058,1.584.084a10.242,10.242,0,0,1,2.646-.058,7.442,7.442,0,0,1,1.938-.012,10.412,10.412,0,0,1,2.15-.021,15.55,15.55,0,0,1,2.287.007c.1,0,.2,0,.3.008l.016,0a13.4,13.4,0,0,1,2.377-.218h.3c.307,0,.615.014.922.026.262-.015.525-.023.789-.026h.3c.723.01,1.451.05,2.178.091.865.051,1.736.1,2.605.091a2.1,2.1,0,0,1,1.1.37,1.816,1.816,0,0,1,.936-.228c.475.032.949.059,1.428.081a1.481,1.481,0,0,1,.588-.081c1.941.132,3.893.167,5.842.248.41.016.793.132.912.5a1.181,1.181,0,0,0,.131.284c.52-.118,1.041-.224,1.545-.37a2.811,2.811,0,0,1,1.988.006l.02-.006a3.078,3.078,0,0,1,1.668-.105,2.817,2.817,0,0,0,.252-.188,1.956,1.956,0,0,1,2.129-.269c.059.021.117.039.176.057a2.022,2.022,0,0,1,1.832-.057,3.9,3.9,0,0,0,.645.164l.113-.013c.732-.083,1.035-.112,1.244.068.254-.015.51-.039.764-.068,1.121-.127,1.24-.128,1.547.55.008-.022.014-.045.021-.067a.815.815,0,0,1,.834-.573,5.24,5.24,0,0,1,1.58.1,1.089,1.089,0,0,1,.432-.1,4.393,4.393,0,0,1,1.836.183,4.979,4.979,0,0,1,1.77.913,2.251,2.251,0,0,0,.879.528,1.648,1.648,0,0,0,1.207-1.264c.1-.376.52-.467.93-.457.5.015,1.01.034,1.52.054a1.665,1.665,0,0,1,.5-.054c1.246.036,2.492.1,3.736.132.582.015,1.164.037,1.748.053.15-.006.3-.013.449-.022a6.546,6.546,0,0,1,1.434.027c.189-.007.383-.015.574-.027a5.381,5.381,0,0,1,1.8.107c.469.124.992.12,1.443.272.324-.1.656-.2.992-.272a6.6,6.6,0,0,1,1.619-.087c.283.01.566.015.848.015a8.963,8.963,0,0,1,1.051-.018c.977-.032,1.949-.1,2.92-.185a6.311,6.311,0,0,1,1.318.055l.689-.055a8.008,8.008,0,0,1,1.879.137l.447.067a12.711,12.711,0,0,1,3.021-.356,4.178,4.178,0,0,0,.52,0,5.022,5.022,0,0,1,.531.009,5.216,5.216,0,0,1,.957-.014,4.3,4.3,0,0,0,.527,0,2.533,2.533,0,0,1,.863.076,14.611,14.611,0,0,0,1.395.449,3.554,3.554,0,0,0,.49-.2c.1-.046.3.041.439.1a1.93,1.93,0,0,0,.941.138,3.239,3.239,0,0,0,.627-.234.408.408,0,0,1,.264.028,4.1,4.1,0,0,1,1.555.108,3.939,3.939,0,0,1,2.277.065,2.45,2.45,0,0,1,1.383.021c.068.025.137.047.2.065.078-.015.152-.03.225-.046a2.773,2.773,0,0,1,1.588-.02c.074.028.152.052.225.071a36.065,36.065,0,0,1,5.281-.292,14.009,14.009,0,0,1,2.094.007c.8.072,1.594.19,2.395.256.066-.007.129-.014.193-.022a7.317,7.317,0,0,1,2.959-.154,6.175,6.175,0,0,1,1.334-.109,2.453,2.453,0,0,1,.328-.086,2.874,2.874,0,0,1,.471-.016c1.555.016,3.113.056,4.668.046.465,0,.924.016,1.391.03a13.587,13.587,0,0,0,3.178-.127,1.819,1.819,0,0,1,.92.046,6.935,6.935,0,0,0,3.645-.065,6.879,6.879,0,0,1,1.615-.157,32.67,32.67,0,0,0,3.506.091,7.437,7.437,0,0,1,3.406.127,1.1,1.1,0,0,0,.682-.051,8.339,8.339,0,0,1,3.012-.167,12.009,12.009,0,0,0,2.332,0,13.4,13.4,0,0,1,2.377-.218h.3c.721.01,1.449.05,2.17.091.873.051,1.74.1,2.605.091.779-.01,1.229.584,1.885.705a1.749,1.749,0,0,0,1.109-.273,2.021,2.021,0,0,1,1.061-.289c1.943.132,3.9.167,5.848.248.412.016.785.132.912.5.191.573.557.711,1.217.518.811-.238,1.656-.37,2.469-.6a2.772,2.772,0,0,1,2.029.025,1.642,1.642,0,0,0,1.9-.319,1.959,1.959,0,0,1,2.131-.269,6.183,6.183,0,0,0,2.764.151c1.248-.142,1.254-.126,1.66.817.084.188.125.385.225.563.119.218.2.573.578.487a1.3,1.3,0,0,0,.709-.467,3.263,3.263,0,0,0,.408-.918.813.813,0,0,1,.832-.573,4.4,4.4,0,0,1,1.836.183,4.979,4.979,0,0,1,1.77.913,2.861,2.861,0,0,0,2.588.6,1.712,1.712,0,0,0,1.51-1.334c.1-.376.52-.467.93-.457,1.246.036,2.492.1,3.744.132,1.4.036,2.809.117,4.2.03a5.4,5.4,0,0,1,1.807.107c.727.192,1.58.075,2.1.715.779-.243,1.545-.538,2.342-.715a6.619,6.619,0,0,1,1.621-.087,41.269,41.269,0,0,0,4.816-.187,8.007,8.007,0,0,1,1.877.137,8.237,8.237,0,0,0,1.8.143,24.041,24.041,0,0,1,3.684-.432,4.181,4.181,0,0,0,.52,0,2.559,2.559,0,0,1,.869.076c1.275.457,2.516.929,3.895.254.092-.046.3.041.439.1a1.886,1.886,0,0,0,1.352.045,4.563,4.563,0,0,1,2.725.173,3.01,3.01,0,0,0,1.391-.071,2.754,2.754,0,0,1,1.582-.02,4.161,4.161,0,0,0,1.8.1,43.547,43.547,0,0,1,5.807-.31,20.31,20.31,0,0,0,4.6.233c1.1-.142,2.266-.532,3.41.016.209.1.59-.092.9-.122a3.029,3.029,0,0,1,1.139-.051,5.7,5.7,0,0,0,2.27.071,11.206,11.206,0,0,1,2.785.157,12.7,12.7,0,0,0,3.607.279,4.9,4.9,0,0,1,1.221.04,3.512,3.512,0,0,0,1.26.016,4.73,4.73,0,0,1,2.688.386,1.409,1.409,0,0,0,1.479-.173,1.568,1.568,0,0,1,1.1-.208,8.573,8.573,0,0,1,2.756.36,2.309,2.309,0,0,0,2-.127c.84-.467.889-.406,1.518.33a.877.877,0,0,0,1.348.2,1.232,1.232,0,0,0,.33-.284,1.2,1.2,0,0,1,1.607-.319,3.3,3.3,0,0,0,.889.213.846.846,0,0,0,1-.648c.162-.112.314-.219.471-.325.461,0,.92.016,1.377.025.658.527,1.551.213,2.289.451.043.446.406.686.793.924a.873.873,0,0,1,.506.852c-.271,1.273-.271,2.622-1.309,3.7-.781.816-.752.812-.1,1.679a4.046,4.046,0,0,0,1.1,1.009,2.859,2.859,0,0,1,1.127,1.477.7.7,0,0,1-.555.943,13.531,13.531,0,0,1-1.383.106,9.5,9.5,0,0,0-1.381.1.646.646,0,0,0-.564.563.487.487,0,0,0,.336.478c1.078.477,2,1.039,1.752,2.277a5.66,5.66,0,0,0-1.514.4,2.657,2.657,0,0,1-2.621.137c-.412-.167-.941-.137-1.342-.314a2.344,2.344,0,0,0-2,.011c-.562.238-1.092.466-1.682-.041a.789.789,0,0,0-1.025.213,3.082,3.082,0,0,1-2.479,1.04c.279.279.4.507.578.548a15.833,15.833,0,0,0,4.094.68,20.3,20.3,0,0,1,2.135.07,12.694,12.694,0,0,0,3.451-.086.591.591,0,0,1,.439.056c.617.624,1.523.573,2.322.781a1.589,1.589,0,0,1,1.256,1.273c.2.791.061,1.567.191,2.343.061.365-.227.67-.678.649a10.608,10.608,0,0,0-2.084.168,8.952,8.952,0,0,1-2.549.126,5.1,5.1,0,0,1-3.811-.294,1.341,1.341,0,0,0-1.312.036,3.118,3.118,0,0,1-2.676.243,2.113,2.113,0,0,0-1.943.192,1.262,1.262,0,0,1-1.49-.172,1.161,1.161,0,0,0-1.039-.335c-1.012.279-2.215.091-3.016.893a.832.832,0,0,1-1.023.122c-1.127-.467-1.135-.452-1.553.477a6.284,6.284,0,0,0-.3.751.613.613,0,0,0,.2.729.756.756,0,0,0,.844-.106,7.08,7.08,0,0,1,1.867-1.177,5.045,5.045,0,0,1,1.107-.253c.447-.016.605.359.828.624.3.345.688.618,1.176.314.621-.386.947-.117,1.33.273.422.437.07.73-.2,1.04a3.271,3.271,0,0,1-.35.264c-.389.365-.041.578.24.812a3.078,3.078,0,0,1,.271.319c-.238.061-.271.127-.113.162.02,0,.08-.1.119-.157a1.989,1.989,0,0,1,.643.208c.418.33.73.659,1.338.162a2.123,2.123,0,0,1,2.348-.391.733.733,0,0,0,.83-.177.813.813,0,0,1,.625-.238c.529.081,1.021.391,1.586.238a1.558,1.558,0,0,0,.59-.289c.6-.5,1.027-.33,1.563.137a6.064,6.064,0,0,1,1.5,1.618,3.1,3.1,0,0,0,.383.492.247.247,0,0,0,.207.045c.131-.045.324-.1.352-.187a1.058,1.058,0,0,0,.012-.578c-.088-.324-.256-.68.15-.893.316-.168.8-.4,1.066-.3a16.478,16.478,0,0,0,2.988.416c.357.056.584.314.451.573-.668,1.313-.125,2.511.59,3.738a5.088,5.088,0,0,1-1.732.233,3.145,3.145,0,0,0-2.035,0,1.036,1.036,0,0,1-.678-.025,2.222,2.222,0,0,0-2.557.208c-.293.248-.73.071-1.109-.041a2.548,2.548,0,0,0-.893-.116.427.427,0,0,0-.418.41.469.469,0,0,0,.271.508,2.657,2.657,0,0,0,1.814.051,2.608,2.608,0,0,1,1.6-.086c.4.132.7.35.34.725-.324.335-.324.705.172.73,1.27.076,2.617.568,3.8-.3a.726.726,0,0,1,.633,0c.889.74,2.025.6,3.094.669.6.041,1.109.188,1.1.791a1.659,1.659,0,0,0,.854,1.532,2.024,2.024,0,0,1,.863,1.588c.037.654.357.979,1.105,1.044a.709.709,0,0,1,.682.69l-1.84.03c-.172-.127-.34-.345-.529-.355a9.112,9.112,0,0,0-1.176.021,6.164,6.164,0,0,1-2-.111.81.81,0,0,0-.869.766c.049.5.174.989.293,1.644,1.234-.375,1.955.314,2.746.837a.459.459,0,0,1-.047.837,1.908,1.908,0,0,1-.625.243c-.5.106-.537.279-.352.69.381.831.049,1.258-.947,1.263-1.092,0-2.178-.061-3.268-.1a6.461,6.461,0,0,0-2.463.386,4.8,4.8,0,0,1-4.178-.264,1.816,1.816,0,0,0-2.117-.051,1.294,1.294,0,0,1-1.818-.162c-.316-.325-.738-.143-1.014.1a3.324,3.324,0,0,1-2.564.675,20.552,20.552,0,0,0-3.7,0,29.529,29.529,0,0,1-4.871.061c-2.02-.061-4.039-.142-6.064-.223-.559-.021-1.1-.046-1.418.461a11.754,11.754,0,0,1-3.217.046c-2.846-.106-5.7-.035-8.527-.37a.508.508,0,0,0-.189-.111,77.5,77.5,0,0,0-8.467-.4c-.344-.015-.521.233-.7.452a1.161,1.161,0,0,1-.855-.051c-.758-.71-1.1-.726-1.959-.092l-.955.122a14.311,14.311,0,0,0-5.217-.31c-.123.011-.238.157-.357.238-.311,0-.619-.015-.93-.021-.875-.572-.967-.578-1.881-.07-.307,0-.617,0-.92,0-1.074-.705-1.564-.7-2.4.056a5.791,5.791,0,0,1-2.734-.142,1,1,0,0,0-1.311-.548,11.81,11.81,0,0,1-3.936.172c-.531-.03-1.061-.31-1.58-.284-.916.046-1.824.295-2.75.351a4.3,4.3,0,0,1-1.191-.147,3.14,3.14,0,0,0-1.77-.03,6.207,6.207,0,0,1-2.309.152c-.395-.011-.779-.011-1.174-.041-3.018-.233-6.074.051-9.061-.562a.706.706,0,0,0-.449.046c-1.484.856-3.1.512-4.7.39-.619-.045-1.246-.056-1.871-.061a.835.835,0,0,0-.822.594c-.281-.03-.561-.056-.842-.081.484-.71-.393-1.192-.428-1.811-.035-.579-.426-.822-1.064-.8a1.136,1.136,0,0,0-1.242.959,13.444,13.444,0,0,0-.127,1.379c-.291-.015-.584-.025-.881-.04-.646-.122-1.391.051-1.908-.482a.574.574,0,0,0-.789-.111,2.416,2.416,0,0,1-1.721.406c-.143,0-.293,0-.436,0a.958.958,0,0,0-.881.512,1.656,1.656,0,0,1-1.312-.081c-.24-.644-.625-.948-1.531-.775a23.606,23.606,0,0,1-6.381.345,15.045,15.045,0,0,0-1.842-.011.482.482,0,0,0-.148.025.738.738,0,0,1-.328.208c-.066.081-.127.168-.186.254-.314.035-.625.065-.941.1a8.429,8.429,0,0,0-1.029-.289l-.082,0a2.579,2.579,0,0,1-.42.033c-.764,0-1.523-.027-2.285-.061a6.933,6.933,0,0,0-1.436.345,5.4,5.4,0,0,1-2.926.247,4.615,4.615,0,0,1-2.793-.26q-.375-.022-.75-.054c-.055-.025-.1-.051-.148-.076a1.221,1.221,0,0,1-1.455-.3c-.076.037-.154.079-.232.127a1.4,1.4,0,0,1-1.23.234,3.787,3.787,0,0,1-2.154.379c-.271-.013-.543-.028-.816-.043a5.624,5.624,0,0,1-1.191.043c-.385-.019-.77-.042-1.156-.061q-.272.021-.539.056a20.467,20.467,0,0,1-3.34.113c-1.184.051-2.359-.016-3.541-.053-1.633-.049-3.271-.111-4.906-.177a.9.9,0,0,0-.564.415,8.268,8.268,0,0,1-2.486.087,16.171,16.171,0,0,1-2.742-.041c-2.844-.106-5.7-.035-8.527-.37a.508.508,0,0,0-.189-.111l-.25-.034c-.082.016-.154.206-.232.313a31.035,31.035,0,0,1-6.031-.061,2.123,2.123,0,0,0-.035-.578l-.143,0a1.128,1.128,0,0,0-.461.414,1.172,1.172,0,0,1-.859-.051,3.227,3.227,0,0,0-.5-.4c-.316.008-.488.243-.652.452a1.453,1.453,0,0,1-.178.042c0,.028-.006.057-.008.085l-1.4-.076c-.006-.03-.012-.062-.018-.087l-.156.016a7.688,7.688,0,0,0-.906-.228c-.047.033-.1.068-.148.105l-.955.122a8.6,8.6,0,0,0-2.061-.371c-.381.018-.764.041-1.145.062-.127.011-.238.157-.361.238-.309,0-.617-.015-.928-.021-.146-.094-.268-.173-.377-.237l-.344.02c-.127.011-.24.157-.359.238-.309,0-.619-.015-.928-.021l-.107-.067c-.227,0-.459,0-.686,0a5.69,5.69,0,0,0-.506-.3,5.111,5.111,0,0,0-.586.295c-.3,0-.615,0-.918,0-.064-.042-.127-.082-.187-.119-.066.054-.135.111-.205.175a6.165,6.165,0,0,1-2.1.014,5.745,5.745,0,0,1-2.646-.155.958.958,0,0,0-.236-.36,12.544,12.544,0,0,1-2.258.026,18.888,18.888,0,0,1-2.752-.042,3.664,3.664,0,0,1-.734-.146c-.525.085-1.053.181-1.586.213a3.849,3.849,0,0,1-1.035-.114c-.324.051-.648.095-.973.114a4.045,4.045,0,0,1-1.105-.128,6.937,6.937,0,0,1-2.156.1l-.311-.007a10.474,10.474,0,0,1-1.7.007c-.395-.011-.783-.011-1.176-.041-2.6-.2-5.223-.019-7.807-.354a6.054,6.054,0,0,1-3.178.34,14.639,14.639,0,0,1-3.221-.112l-.176-.012a.875.875,0,0,0-.5.545c-.287-.03-.566-.056-.846-.081a.733.733,0,0,0,.141-.507l-.488-.006a.835.835,0,0,0-.822.594c-.279-.03-.555-.056-.84-.081.488-.71-.395-1.192-.43-1.811a.966.966,0,0,0-.084-.356,1.222,1.222,0,0,0-.215.519,11.972,11.972,0,0,0-.119,1.379c-.3-.015-.59-.025-.885-.04-.359-.068-.75-.045-1.119-.1,0,.048-.008.1-.012.143-.291-.015-.584-.025-.881-.04a6.714,6.714,0,0,1-1.539-.223,5,5,0,0,1-.865.035c-.148,0-.3,0-.439,0a.964.964,0,0,0-.883.512,1.658,1.658,0,0,1-1.312-.081,1.853,1.853,0,0,0-.178-.369.94.94,0,0,0-.518.45,1.656,1.656,0,0,1-1.312-.081,1.346,1.346,0,0,0-.414-.626,23.457,23.457,0,0,1-4.588.254,22.278,22.278,0,0,1-2.863-.055.934.934,0,0,0-.541.473c-.311.035-.625.065-.936.1a8.1,8.1,0,0,0-.955-.269c-.039.055-.08.11-.119.167-.314.035-.623.065-.941.1a8.429,8.429,0,0,0-1.029-.289l-.4-.016a1.649,1.649,0,0,1-.254.538,1.712,1.712,0,0,0-.15.567,32.706,32.706,0,0,0-8.121.2c-.223.03-.5.132-.678.061-1.258-.507-2.408.036-3.627.157-.66.071-1.338.092-2.016.1Zm-2.045-.862c.025,0,.049-.091.072-.137a.98.98,0,0,0-.178-.061h-.012C20017.2,11747.681,20017.244,11747.757,20017.465,11747.767Zm-130.225,0c.025,0,.049-.091.074-.137a1.052,1.052,0,0,0-.176-.061l-.021,0C19886.975,11747.683,19887.025,11747.757,19887.24,11747.767Zm-160.437-.259a6.738,6.738,0,0,0-1.734-.213A6.738,6.738,0,0,1,19726.8,11747.508Zm6.254-.208a7.949,7.949,0,0,0-1.592-.167A7.949,7.949,0,0,1,19733.057,11747.3Zm-8.053,0h0Zm14.4-.116Zm-2.426-.082c.439-.04.889-.106,1.328-.106a3.352,3.352,0,0,1,.693.066,3.286,3.286,0,0,0-.693-.066C19737.869,11746.99,19737.42,11747.054,19736.98,11747.1Zm10.582-.121h0Zm9.072-.086a3.029,3.029,0,0,0-.428-.046A3.029,3.029,0,0,1,19756.635,11746.89Zm-45.854-1.608c-.006,0-.014,0-.02,0S19710.775,11745.281,19710.781,11745.281Zm-.031-.015a.022.022,0,0,0-.014-.006A.022.022,0,0,1,19710.75,11745.267Zm-.023-.011s-.006,0-.012-.01S19710.727,11745.251,19710.727,11745.256Zm-.031-.015a.015.015,0,0,0-.012-.006A.015.015,0,0,1,19710.7,11745.241Zm-.021-.016a.035.035,0,0,1-.02,0A.035.035,0,0,0,19710.674,11745.226Zm-.031-.01a.015.015,0,0,1-.012-.006A.015.015,0,0,0,19710.643,11745.216Zm-.025-.011s-.01,0-.016,0S19710.613,11745.205,19710.617,11745.205Zm-.031-.01s-.01,0-.016,0S19710.582,11745.2,19710.586,11745.2Zm-.027-.011c-.006,0-.012,0-.016,0S19710.553,11745.185,19710.559,11745.185Zm-.023,0c-.012,0-.02,0-.023-.01S19710.523,11745.175,19710.535,11745.18Zm-.029-.01a.052.052,0,0,0-.023,0A.052.052,0,0,1,19710.506,11745.17Zm-.029-.011a.066.066,0,0,1-.031,0A.066.066,0,0,0,19710.477,11745.159Zm-.031,0c-.012,0-.021,0-.029,0C19710.424,11745.149,19710.434,11745.154,19710.445,11745.154Zm-.207-.03Zm-.6-.016c.041,0,.084,0,.129,0h-.129c-.119,0-.244,0-.363,0C19709.4,11745.108,19709.521,11745.108,19709.641,11745.108Zm-.363,0h0Zm-.055,0h0Zm-.055,0h0Zm-.059,0c-.012,0-.023,0-.033,0C19709.086,11745.094,19709.1,11745.1,19709.109,11745.1Zm-.041,0a.074.074,0,0,1-.031,0A.074.074,0,0,0,19709.068,11745.094Zm-.041,0h0Zm-.043,0h0Zm-.039,0c0-.006-.01-.006-.014-.006S19708.945,11745.078,19708.945,11745.084Zm-.037-.011h0Zm9.813-4.5a.047.047,0,0,0-.025,0A.047.047,0,0,1,19718.721,11740.574Zm-.084-.021c-.076-.01-.166-.015-.264-.02C19718.471,11740.539,19718.561,11740.544,19718.637,11740.554Zm-.285-.02h0Zm.242-3.449h0Zm8.914-1.232c-.227,0-.453-.011-.674-.025C19727.055,11735.842,19727.281,11735.853,19727.508,11735.853Zm.5,0h0Zm-8.74-.767h0Zm-.053,0a1.637,1.637,0,0,1-.508-.1A1.637,1.637,0,0,0,19719.211,11735.081Zm-3.959-.289a2.865,2.865,0,0,0,1.084.238,2.865,2.865,0,0,1-1.084-.238,1.236,1.236,0,0,0-.5-.106A1.236,1.236,0,0,1,19715.252,11734.792Zm3.174.092a1.82,1.82,0,0,0-.439-.066A1.82,1.82,0,0,1,19718.426,11734.884Zm-.488-.066h0Zm-.279-1.359h0Zm.627-2.084a.132.132,0,0,1-.043-.025A.132.132,0,0,0,19718.285,11731.374Zm-3.684-.675c-.02,0-.035,0-.053-.011C19714.566,11730.694,19714.582,11730.694,19714.6,11730.7Zm-4.764-2.846h0Zm-.061,0a2.7,2.7,0,0,1-.463-.046A2.7,2.7,0,0,0,19709.777,11727.854Zm-.48-.046-.238-.045Zm-.951-.233c.229.025.443.132.664.178-.221-.046-.436-.152-.664-.178h0Zm-7.141-.233c0-.015-.1-.05-.16-.075C19701.1,11727.433,19701.158,11727.463,19701.205,11727.341Zm-.357-.192a.674.674,0,0,0,.16.076c-.029-.1-.064-.152-.1-.152C19700.889,11727.072,19700.867,11727.1,19700.848,11727.148Zm573.283-.908c-.037.041-.068.112-.045.147.084.127.186.116.238-.03.014-.035-.035-.092-.053-.137C20274.223,11726.226,20274.152,11726.215,20274.131,11726.24Zm-559.793-1.263h0Zm-3.187-.269a.554.554,0,0,0-.137-.061A.554.554,0,0,1,19711.15,11724.709Zm-.238-.071h0Zm8.012-.1h0Zm-1.092-.517a.822.822,0,0,0-.453-.143A.822.822,0,0,1,19717.832,11724.02Zm2.24-1.025a1.872,1.872,0,0,1-.564-.151A1.872,1.872,0,0,0,19720.072,11722.994Zm-10.3-1.161a.6.6,0,0,1-.15-.041A.6.6,0,0,0,19709.768,11721.833Zm2.611-.73a.131.131,0,0,0-.037-.01A.131.131,0,0,1,19712.379,11721.1Zm-.078-.021a2.136,2.136,0,0,0-.227-.04A2.136,2.136,0,0,1,19712.3,11721.082Zm-.336-.051h0Zm-.129,0h0Zm579.516-.335c.008-.015-.111-.061-.18-.091C20291.24,11720.793,20291.311,11720.823,20291.352,11720.691Zm-.9-.983a.731.731,0,0,0-.035.542c.119.259.453.295.75.34a1.777,1.777,0,0,0-.018-.567.917.917,0,0,0-.34-.432.076.076,0,0,0-.039-.01C20290.672,11719.581,20290.471,11719.652,20290.451,11719.708Zm-14.32-4.2c-.082.2.037.36.291.351.1,0,.18-.138.27-.208-.07-.092-.123-.238-.215-.254a.1.1,0,0,0-.039,0C20276.322,11715.392,20276.156,11715.447,20276.131,11715.508Zm-554.561-1.06c-.318,0-.621-.021-.93-.036C19720.949,11714.428,19721.252,11714.448,19721.57,11714.448Zm-1.9-.071h0Zm-6.594-1.456h0Zm-5.693-.786a1.536,1.536,0,0,1-.91-.391A1.536,1.536,0,0,0,19707.381,11712.135Zm3.135-.02h0Zm-.059,0h0Zm4.914-.163h0Zm-2.369-.056a1.374,1.374,0,0,0-.342-.106A1.374,1.374,0,0,1,19713,11711.9Zm-10.98-1.41h0Zm-.039,0a1.223,1.223,0,0,1-1.094-.648A1.223,1.223,0,0,0,19701.982,11710.486Zm2.209-.126a.416.416,0,0,0-.393-.411A.416.416,0,0,1,19704.191,11710.36Zm-1.311-3.16h0Zm-.09,0a.592.592,0,0,0-.066-.011A.592.592,0,0,1,19702.791,11707.2Zm-.863-.183a4.529,4.529,0,0,0-.453-.051A4.529,4.529,0,0,1,19701.928,11707.013Zm-.514-.057h0Zm2.711-3.945h0Zm487.795-.868c.027.082.227.112.357.168.059-.106.2-.238.16-.314s-.23-.111-.357-.168C20192.02,11701.936,20191.885,11702.067,20191.92,11702.143Zm-396.945,0c.031.082.232.112.357.168.061-.106.2-.238.162-.314s-.229-.111-.357-.168C19795.076,11701.936,19794.939,11702.067,19794.975,11702.143Zm266.725-.071a1.147,1.147,0,0,0,.086-.1,1.445,1.445,0,0,0,.088-.135l-.018-.008C20061.813,11701.906,20061.729,11702,20061.7,11702.071Z" transform="translate(-19695.869 -11699.498)" fill="#bdf783" stroke="rgba(0,0,0,0)" stroke-miterlimit="10" stroke-width="1"/>
</svg>
