<svg id="Grupo_1207970" data-name="Grupo 1207970" xmlns="http://www.w3.org/2000/svg" xmlns:xlink="http://www.w3.org/1999/xlink" width="330.172" height="321.074" viewBox="0 0 330.172 321.074">
  <defs>
    <clipPath id="clip-path">
      <rect id="Rectángulo_458544" data-name="Rectángulo 458544" width="330.172" height="321.074" fill="none"/>
    </clipPath>
  </defs>
  <g id="Grupo_1207969" data-name="Grupo 1207969" clip-path="url(#clip-path)">
    <path id="Trazado_1403506" data-name="Trazado 1403506" d="M120.741,30.592H241.887a15.445,15.445,0,0,1,15.4,15.4V296.381a15.445,15.445,0,0,1-15.4,15.4H120.741a15.444,15.444,0,0,1-15.4-15.4V45.992a15.444,15.444,0,0,1,15.4-15.4" transform="translate(-12.744 -3.701)" fill="#fff" fill-rule="evenodd"/>
    <path id="Trazado_1403507" data-name="Trazado 1403507" d="M121.34,35.546A11.089,11.089,0,0,0,110.295,46.59V224.739H253.533V46.59a11.09,11.09,0,0,0-11.047-11.044Z" transform="translate(-13.343 -4.3)" fill="#c8c893" fill-rule="evenodd"/>
    <path id="Trazado_1403508" data-name="Trazado 1403508" d="M110.294,250.777v62.2a11.089,11.089,0,0,0,11.045,11.045H242.487a11.09,11.09,0,0,0,11.046-11.045v-62.2Z" transform="translate(-13.343 -30.339)" fill="#d8d8d6" fill-rule="evenodd"/>
    <path id="Trazado_1403509" data-name="Trazado 1403509" d="M329.389,365.048h-4.995a.783.783,0,1,1,0-1.566h4.995a.783.783,0,1,1,0,1.566m-10.179,0H7.874a.783.783,0,1,1,0-1.566H319.209a.783.783,0,1,1,0,1.566m-316.52,0H.783a.783.783,0,1,1,0-1.566H2.69a.783.783,0,1,1,0,1.566" transform="translate(0 -43.974)" fill="#9c9c72"/>
    <rect id="Rectángulo_458541" data-name="Rectángulo 458541" width="147.71" height="19.905" transform="translate(91.231 206.239)" fill="#fff"/>
    <path id="Trazado_1403510" data-name="Trazado 1403510" d="M118.357,263.105h32.108a1.869,1.869,0,0,1,1.864,1.864v20.715a1.869,1.869,0,0,1-1.864,1.864H118.357a1.868,1.868,0,0,1-1.864-1.864V264.969a1.868,1.868,0,0,1,1.864-1.864" transform="translate(-14.093 -31.83)" fill="#c1c1bf" fill-rule="evenodd"/>
    <path id="Trazado_1403511" data-name="Trazado 1403511" d="M118.357,297.275h32.108a1.87,1.87,0,0,1,1.864,1.864v20.714a1.87,1.87,0,0,1-1.864,1.865H118.357a1.869,1.869,0,0,1-1.864-1.865V299.139a1.869,1.869,0,0,1,1.864-1.864" transform="translate(-14.093 -35.964)" fill="#c1c1bf" fill-rule="evenodd"/>
    <path id="Trazado_1403512" data-name="Trazado 1403512" d="M173.386,269.592h75.176a.731.731,0,1,1,0,1.462H173.386a.731.731,0,0,1,0-1.462" transform="translate(-20.888 -32.615)" fill="#c1c1bf" fill-rule="evenodd"/>
    <path id="Trazado_1403513" data-name="Trazado 1403513" d="M173.386,276.176h75.176a.731.731,0,1,1,0,1.462H173.386a.731.731,0,0,1,0-1.462" transform="translate(-20.888 -33.411)" fill="#c1c1bf" fill-rule="evenodd"/>
    <path id="Trazado_1403514" data-name="Trazado 1403514" d="M173.387,282.761h53.468a.731.731,0,1,1,0,1.462H173.387a.731.731,0,0,1,0-1.462" transform="translate(-20.888 -34.208)" fill="#c1c1bf" fill-rule="evenodd"/>
    <path id="Trazado_1403515" data-name="Trazado 1403515" d="M238.352,282.761h3.1a.731.731,0,1,1,0,1.462h-3.1a.731.731,0,1,1,0-1.462" transform="translate(-28.747 -34.208)" fill="#c1c1bf" fill-rule="evenodd"/>
    <path id="Trazado_1403516" data-name="Trazado 1403516" d="M173.386,303.763h75.176a.731.731,0,1,1,0,1.462H173.386a.731.731,0,0,1,0-1.462" transform="translate(-20.888 -36.749)" fill="#c1c1bf" fill-rule="evenodd"/>
    <path id="Trazado_1403517" data-name="Trazado 1403517" d="M173.386,310.348h75.176a.731.731,0,1,1,0,1.462H173.386a.731.731,0,0,1,0-1.462" transform="translate(-20.888 -37.545)" fill="#c1c1bf" fill-rule="evenodd"/>
    <path id="Trazado_1403518" data-name="Trazado 1403518" d="M173.387,316.931h53.468a.732.732,0,0,1,0,1.464H173.387a.732.732,0,0,1,0-1.464" transform="translate(-20.888 -38.342)" fill="#c1c1bf" fill-rule="evenodd"/>
    <path id="Trazado_1403519" data-name="Trazado 1403519" d="M238.352,316.931h3.1a.732.732,0,1,1,0,1.464h-3.1a.732.732,0,0,1,0-1.464" transform="translate(-28.747 -38.342)" fill="#c1c1bf" fill-rule="evenodd"/>
    <path id="Trazado_1403520" data-name="Trazado 1403520" d="M173.386,240.9h75.176a.734.734,0,0,1,.731.731h0a.733.733,0,0,1-.731.73H173.386a.733.733,0,0,1-.729-.73h0a.733.733,0,0,1,.729-.731" transform="translate(-20.888 -29.144)" fill="#e4dae2" fill-rule="evenodd"/>
    <path id="Trazado_1403521" data-name="Trazado 1403521" d="M116.5,240.9h50.21a.733.733,0,0,1,.73.731h0a.733.733,0,0,1-.73.73H116.5a.733.733,0,0,1-.73-.73h0a.733.733,0,0,1,.73-.731" transform="translate(-14.006 -29.144)" fill="#ec797e" fill-rule="evenodd"/>
    <path id="Trazado_1403522" data-name="Trazado 1403522" d="M115.772,252.169v-5.585a.437.437,0,0,1,.424-.447.415.415,0,0,1,.274.1l3.575,2.775a.463.463,0,0,1,.091.624.4.4,0,0,1-.1.1l-3.593,2.789a.408.408,0,0,1-.591-.1.462.462,0,0,1-.083-.265Z" transform="translate(-14.006 -29.777)" fill="#ec797e" fill-rule="evenodd"/>
    <path id="Trazado_1403523" data-name="Trazado 1403523" d="M128.7,246.137h-.663a.2.2,0,0,0-.2.2v6.071a.2.2,0,0,0,.2.2h.663a.2.2,0,0,0,.2-.2v-6.071a.205.205,0,0,0-.2-.2" transform="translate(-15.465 -29.777)" fill="#e4dae2" fill-rule="evenodd"/>
    <path id="Trazado_1403524" data-name="Trazado 1403524" d="M131.242,246.137h-.663a.205.205,0,0,0-.2.2v6.071a.2.2,0,0,0,.2.2h.663a.205.205,0,0,0,.2-.2v-6.071a.206.206,0,0,0-.2-.2" transform="translate(-15.773 -29.777)" fill="#e4dae2" fill-rule="evenodd"/>
    <path id="Trazado_1403525" data-name="Trazado 1403525" d="M138.467,247.022h3.876a.525.525,0,0,1,.524.525v3.875a.526.526,0,0,1-.524.525h-3.876a.526.526,0,0,1-.525-.525v-3.875a.526.526,0,0,1,.525-.525" transform="translate(-16.688 -29.884)" fill="#e4dae2" fill-rule="evenodd"/>
    <path id="Trazado_1403526" data-name="Trazado 1403526" d="M256.662,246.784a.431.431,0,0,1,0-.861h1.312a.915.915,0,0,1,.652.272.186.186,0,0,1,.031.033.92.92,0,0,1,.24.618v1.333a.432.432,0,0,1-.863,0v-1.333a.057.057,0,0,0-.01-.036l-.007-.008a.06.06,0,0,0-.043-.018h-1.312Zm-2.384,5.132a.431.431,0,0,1,0,.862h-1.313a.916.916,0,0,1-.652-.271.272.272,0,0,1-.03-.033.912.912,0,0,1-.24-.618v-1.333a.431.431,0,0,1,.862,0v1.333a.059.059,0,0,0,.01.035l.007.008a.063.063,0,0,0,.043.017h1.313Zm2.384.862a.431.431,0,0,1,0-.862h1.312a.06.06,0,0,0,.043-.017l.007-.008a.053.053,0,0,0,.01-.035v-1.333a.432.432,0,0,1,.863,0v1.333a.92.92,0,0,1-.24.618.222.222,0,0,1-.031.033.914.914,0,0,1-.652.271Zm-2.384-6.855a.431.431,0,0,1,0,.861h-1.313a.064.064,0,0,0-.043.018l-.007.008a.127.127,0,0,0-.01.036v1.333a.431.431,0,0,1-.862,0v-1.333a.911.911,0,0,1,.24-.618.219.219,0,0,1,.03-.033.916.916,0,0,1,.652-.272Z" transform="translate(-30.492 -29.751)" fill="#e4dae2" fill-rule="evenodd"/>
    <path id="Trazado_1403527" data-name="Trazado 1403527" d="M239.413,252.246a3.1,3.1,0,0,0,.932-.539l.424.243a.413.413,0,0,0,.562-.149l.673-1.165a.411.411,0,0,0-.151-.561l-.423-.246a3.182,3.182,0,0,0,.045-.538,3.108,3.108,0,0,0-.045-.538l.423-.245a.412.412,0,0,0,.151-.562l-.673-1.164a.413.413,0,0,0-.562-.149l-.422.243a3.146,3.146,0,0,0-.934-.539v-.488a.413.413,0,0,0-.412-.411h-1.341a.413.413,0,0,0-.412.411v.488a3.126,3.126,0,0,0-.932.539l-.424-.243a.415.415,0,0,0-.563.149l-.672,1.164a.411.411,0,0,0,.151.562l.423.245a3.25,3.25,0,0,0,0,1.076l-.423.244a.413.413,0,0,0-.151.563l.672,1.163a.414.414,0,0,0,.563.15l.424-.243a3.108,3.108,0,0,0,.932.539v.488a.414.414,0,0,0,.412.412H239a.413.413,0,0,0,.412-.412Zm-1.083-1.45a1.5,1.5,0,1,1,1.5-1.5,1.5,1.5,0,0,1-1.5,1.5" transform="translate(-28.382 -29.693)" fill="#e4dae2" fill-rule="evenodd"/>
    <path id="Trazado_1403528" data-name="Trazado 1403528" d="M219.557,247.455h2.355c.482-.587.864-.985,1.017-.985h.672a.223.223,0,0,1,.223.223v5.448a.224.224,0,0,1-.223.223h-.672c-.153,0-.535-.4-1.017-.986h-2.355a.419.419,0,0,1-.419-.418v-3.087a.42.42,0,0,1,.419-.418" transform="translate(-26.511 -29.818)" fill="#e4dae2" fill-rule="evenodd"/>
    <path id="Trazado_1403529" data-name="Trazado 1403529" d="M225.573,250.757a.215.215,0,1,1-.4-.156,2.192,2.192,0,0,0,.113-.43,3.167,3.167,0,0,0,.04-.51v-.011a3.161,3.161,0,0,0-.04-.508,2.245,2.245,0,0,0-.113-.432.215.215,0,0,1,.4-.156,2.749,2.749,0,0,1,.136.519,3.692,3.692,0,0,1,.047.577v.011a3.7,3.7,0,0,1-.047.578,2.7,2.7,0,0,1-.136.517" transform="translate(-27.239 -30.053)" fill="#e4dae2" fill-rule="evenodd"/>
    <path id="Trazado_1403530" data-name="Trazado 1403530" d="M226.582,251.566a.214.214,0,1,1-.4-.163,4.161,4.161,0,0,0,.242-.862,5.725,5.725,0,0,0,.086-1v-.02a5.735,5.735,0,0,0-.086-1,4.167,4.167,0,0,0-.242-.861.215.215,0,0,1,.4-.164,4.722,4.722,0,0,1,.27.952,6.161,6.161,0,0,1,.092,1.076v.02a6.161,6.161,0,0,1-.092,1.076,4.671,4.671,0,0,1-.27.95" transform="translate(-27.362 -29.925)" fill="#e4dae2" fill-rule="evenodd"/>
    <path id="Trazado_1403531" data-name="Trazado 1403531" d="M165.3,243.11a1.6,1.6,0,1,0-1.6-1.6,1.6,1.6,0,0,0,1.6,1.6" transform="translate(-19.804 -29.025)" fill="#ea6064" fill-rule="evenodd"/>
    <path id="Trazado_1403532" data-name="Trazado 1403532" d="M174.811,200.654A11.188,11.188,0,0,1,181,193.977c5.09-2.37,2.982,8.749,2.982,8.749l-7.35,2.481a4.906,4.906,0,0,1-1.817-4.554" transform="translate(-21.145 -23.427)" fill="#ebcaa7" fill-rule="evenodd"/>
    <path id="Trazado_1403533" data-name="Trazado 1403533" d="M179.425,205.925s.047,3.208.286,5.018c0,0,.1.711-.6.614a7.881,7.881,0,0,1-3.567-2.452c-.613-1.011-1.654-5.038-.775-7.488,0,0-.672,3.113,4.656,4.307" transform="translate(-21.102 -24.391)" fill="#fde3c8" fill-rule="evenodd"/>
    <path id="Trazado_1403534" data-name="Trazado 1403534" d="M167.927,89.751a.306.306,0,1,1,.548.272c-.025.05-9.006,17.748,8.982,22.136a.306.306,0,1,1-.146.594c-18.737-4.57-9.41-22.949-9.384-23" transform="translate(-20.032 -10.837)" fill="#242a51" fill-rule="evenodd"/>
    <path id="Trazado_1403535" data-name="Trazado 1403535" d="M125.893,153.2a.9.9,0,0,0,0,.911,35.811,35.811,0,0,0,3.825,2.852,4.383,4.383,0,0,0,.19-1.224c-.093-.147-2-2.322-2-2.322Z" transform="translate(-15.215 -18.534)" fill="#ee8b83" fill-rule="evenodd"/>
    <path id="Trazado_1403536" data-name="Trazado 1403536" d="M119.041,148.642c-.1-.055-3.657-.4-3.657-.4l-.534,1.63,23.822,7.8.815-1.093-.162-1.437Z" transform="translate(-13.895 -17.934)" fill="#c08d53" fill-rule="evenodd"/>
    <path id="Trazado_1403537" data-name="Trazado 1403537" d="M147.214,156.494l-.533,1.63-4.729.516.534-1.63.846-.756Z" transform="translate(-17.173 -18.903)" fill="#60462a" fill-rule="evenodd"/>
    <path id="Trazado_1403538" data-name="Trazado 1403538" d="M144.009,155.454l-23.821-7.8-4.729.516,23.822,7.8Z" transform="translate(-13.968 -17.863)" fill="#906a3e" fill-rule="evenodd"/>
    <path id="Trazado_1403539" data-name="Trazado 1403539" d="M140.565,154.685l-18.773-6.143-2.963.322,18.775,6.144Z" transform="translate(-14.376 -17.97)" fill="#fff" fill-rule="evenodd"/>
    <path id="Trazado_1403540" data-name="Trazado 1403540" d="M166.829,174.465s-8.086-7.112-11.959-9.181l1.107-11.2s2.4,3.4,14.051,9.582l1.508.033s.58,4.169.569,4.385-3.034,9.451-3.034,9.451-1.05-.622-1.219-.982-1.022-2.087-1.022-2.087" transform="translate(-18.736 -18.641)" fill="#fcd1c8" fill-rule="evenodd"/>
    <path id="Trazado_1403541" data-name="Trazado 1403541" d="M166.829,175.022s-.258-.227-.7-.61c1.4-.881,4.16-3.48,3.9-10.191l1.508.033s.58,4.169.57,4.385-3.034,9.451-3.034,9.451-1.05-.622-1.219-.982-1.022-2.087-1.022-2.087m-4.726-3.976c-.476-.387-.969-.781-1.467-1.172l2.663-5.328.751-3.721q.506.31,1.052.636a20.02,20.02,0,0,1-3,9.584m-5.243-3.971a22.385,22.385,0,0,0-1.991-1.234l.708-7.153.682.676Z" transform="translate(-18.736 -19.198)" fill="#f8a8a0" fill-rule="evenodd"/>
    <path id="Trazado_1403542" data-name="Trazado 1403542" d="M175.768,165.767l-2.533-1.287a1.55,1.55,0,0,0-1.562.433l.716.269c.83,4.127-.955,8.422-2,12.025l-1.917-1.493a36.533,36.533,0,0,0,.511,5.614c.608,2.324,5.836,2.787,10.467,5.043.785.7,1.046-13.623-3.684-20.605" transform="translate(-20.382 -19.892)" fill="#a87b49" fill-rule="evenodd"/>
    <path id="Trazado_1403543" data-name="Trazado 1403543" d="M166.567,73.884s-18.067,3.026-26.912-5.609-8.093-18.52-2.545-22.171,18.358-4.271,25.736-4.194,3.721,31.974,3.721,31.974" transform="translate(-16.086 -5.069)" fill="#ebcaa7" fill-rule="evenodd"/>
    <path id="Trazado_1403544" data-name="Trazado 1403544" d="M200.131,71.857s18.677,11.33,29.93.028.889-26.5-11.182-28.521S195.466,45.5,195.466,45.5Z" transform="translate(-23.647 -5.179)" fill="#ebcaa7" fill-rule="evenodd"/>
    <path id="Trazado_1403545" data-name="Trazado 1403545" d="M161.533,71.5a14.766,14.766,0,0,1-.112,9.2c-3.355,11.352,5.294,9.026,5.294,9.026s-4.985,20.714,16.388,19.594,18.38-23.685,12.492-32.354c-1.219-1.793-2.673-4.211-4.366-6.9Z" transform="translate(-19.435 -8.476)" fill="#60462a" fill-rule="evenodd"/>
    <path id="Trazado_1403546" data-name="Trazado 1403546" d="M160.573,43.546l-2.527-.224s-5.332,2.729-3.883,11.2c.962,5.615,4.948,8.875,6.555,13.736l29.7-1.435c-6.485-10.32-16.441-24.665-29.842-23.282" transform="translate(-18.62 -5.241)" fill="#60462a" fill-rule="evenodd"/>
    <path id="Trazado_1403547" data-name="Trazado 1403547" d="M210.972,46.057s6.265.391,5.832,5.792c0,0,10.552,1.138,8.85,9.028,0,0,1.688-.081,1.576,2.093,7.743,2.614,5.91,15.808-4.752,15.671a3.06,3.06,0,0,1-3.336,1.9s2.115,3.368-.639,5.627c0,0,1.724,3.344-.314,5.134s-13.347,4.764-16.022-12.889,2.505-30.746,2.505-30.746Z" transform="translate(-24.365 -5.572)" fill="#60462a" fill-rule="evenodd"/>
    <path id="Trazado_1403548" data-name="Trazado 1403548" d="M188.936,91.111s2.258.064,3.239,1.492,3.867,7.318,3.867,7.318L211.12,84.314a10.728,10.728,0,0,1-3.545-3.343c-1.137-1.983-2.7-4.814-2.7-4.814Z" transform="translate(-22.857 -9.213)" fill="#f8a8a0" fill-rule="evenodd"/>
    <path id="Trazado_1403549" data-name="Trazado 1403549" d="M209.352,84.863a42.7,42.7,0,0,1,16.219,20.489c5.438,14.177,2.232,27.311,2.8,42.821.483,13.257-.371,34.723-.63,40.681l-47.935,2.314c-.232-8.379-.939-19.569-.992-20.677-.08-1.64-3.658-15.225-3.658-15.225s-6.572-7.313-4.119-15.2,15.923-32.991,20.479-37.241Z" transform="translate(-20.626 -10.267)" fill="#fff" fill-rule="evenodd"/>
    <path id="Trazado_1403550" data-name="Trazado 1403550" d="M228.366,203.165c-.043,1.011-.07,1.58-.07,1.58a11.861,11.861,0,0,1,.063,5.114l5.467,20.958H175.649s3.939-12.659,4.661-16.626a61.753,61.753,0,0,0,.121-8.71Z" transform="translate(-21.25 -24.579)" fill="#a87b49" fill-rule="evenodd"/>
    <path id="Trazado_1403551" data-name="Trazado 1403551" d="M228.818,204.469l-.014.3a11.869,11.869,0,0,1,.064,5.114l5.466,20.958H215.173a23.744,23.744,0,0,1-7.961-8.955c-11.388,2.038-24.106-2.4-27.36-3.649.44-1.641.795-3.078.967-4.022a10.921,10.921,0,0,0,.129-1.253c4.737-6.9,16.857-7.8,26.554-8.74l17.537-.846a28.442,28.442,0,0,1,3.778,1.093" transform="translate(-21.758 -24.604)" fill="#906a3e" fill-rule="evenodd"/>
    <path id="Trazado_1403552" data-name="Trazado 1403552" d="M178.262,213.15a2.7,2.7,0,0,1-.858-1.607,75.2,75.2,0,0,1-.617-8.256,2.533,2.533,0,0,1,2.4-2.372c1.247-.048,14.353,2.6,26.457-3.621l5.117,18.965s-15.073,6.587-32.5-3.11" transform="translate(-21.387 -23.868)" fill="#fde3c8" fill-rule="evenodd"/>
    <path id="Trazado_1403553" data-name="Trazado 1403553" d="M208.027,204.554l-5.863,1.628a1.632,1.632,0,0,0-1.261,1.71c.069,1.427.474,2.622,2.7,3.817s9.1,4.3,9.1,4.3Z" transform="translate(-24.305 -24.747)" fill="#ebcaa7" fill-rule="evenodd"/>
    <path id="Trazado_1403554" data-name="Trazado 1403554" d="M165.69,66.724s-2.1-1.568-3.278-1.243-2.2,3.152-1.691,5.061,3.982,8.231,7.462,4.971-2.493-8.788-2.493-8.788" transform="translate(-19.427 -7.916)" fill="#fcd1c8" fill-rule="evenodd"/>
    <path id="Trazado_1403555" data-name="Trazado 1403555" d="M167.707,68.855a.443.443,0,0,1,.177.492.241.241,0,0,1-.351.126s0,6.153-1.05,5.381A7.356,7.356,0,0,1,163.7,71.91c-.643-1.447.454-3.075-.1-3.383-.53-.294-.922.383-.957.447l0,0,0,0v0a4.023,4.023,0,0,0-.373,1.214.245.245,0,0,1-.35.212.462.462,0,0,1-.267-.456c0-.007.278-2.394,1.953-2.615,1.6-.214,4.1,1.515,4.1,1.521" transform="translate(-19.556 -8.144)" fill="#f8a8a0" fill-rule="evenodd"/>
    <path id="Trazado_1403556" data-name="Trazado 1403556" d="M179.449,33.107c24.76-3.738,22.828,16.408,23.22,32.272.139,5.627-.956,9.434-4.855,13.033-11.187,10.334-11.436,11.091-25.188,2.544a20.651,20.651,0,0,1-6.246-9.628c-4.749-15.142-11.571-33.766,13.069-38.222" transform="translate(-19.57 -3.95)" fill="#fcd1c8" fill-rule="evenodd"/>
    <path id="Trazado_1403557" data-name="Trazado 1403557" d="M162.6,58.455c-1.749-8.517-1.3-16.582,6.691-21.379,1.716-.185,3.2-.341,4.027-.517,2.978-.633,23.37,2.529,26.2,5.562s1.522,9.638-1.088,12.283-7.14,1.647-9.862-.862a14.319,14.319,0,0,0-5.52-3.23c-5.174-.237-13.127-2.534-13.127-2.534A12.8,12.8,0,0,1,162.6,58.455" transform="translate(-19.57 -4.413)" fill="#f8a8a0" fill-rule="evenodd"/>
    <path id="Trazado_1403558" data-name="Trazado 1403558" d="M162.433,58.294c-.038-.209-.072-.417-.107-.624,7.561-3.494,6.285-12.065,6.281-12.088a.306.306,0,1,1,.606-.084c0,.026,1.363,9.155-6.78,12.8m22.7-7.848a.306.306,0,0,1,.348-.5,31.21,31.21,0,0,1,4.672,4.122h0c.127.133.259.258.393.382a6.808,6.808,0,0,0,4.033,1.833,4.273,4.273,0,0,0,3.312-1.069v0c.05-.048.1-.1.153-.157a.306.306,0,0,1,.453.412c-.055.062-.115.125-.18.185h0a4.869,4.869,0,0,1-3.777,1.241,7.411,7.411,0,0,1-4.4-1.991c-.143-.127-.282-.264-.422-.408h0a30.674,30.674,0,0,0-4.581-4.044" transform="translate(-19.638 -5.472)" fill="#60462a" fill-rule="evenodd"/>
    <path id="Trazado_1403559" data-name="Trazado 1403559" d="M191.411,61.9l-2.768.629a4.067,4.067,0,0,1,1.632-4.2c2.271-1.432,4.2-.858,5.244.2s-.019,2.509-1.806,3.121-2.3.249-2.3.249" transform="translate(-22.812 -6.953)" fill="#f8a8a0" fill-rule="evenodd"/>
    <path id="Trazado_1403560" data-name="Trazado 1403560" d="M169.709,65.571a2.3,2.3,0,0,1-2.3-1.275c-.763-1.5.735-3.017,2.074-3.529s5.2-.626,4.763,4.213Z" transform="translate(-20.228 -7.323)" fill="#f8a8a0" fill-rule="evenodd"/>
    <path id="Trazado_1403561" data-name="Trazado 1403561" d="M188.445,57.96a2.264,2.264,0,0,1-1.182.177,1.915,1.915,0,0,1-1.235-1.01c-.009-.2.352.038,1.334-.621.964-.649,4.639-2.514,7.788-.687.543.317.258.717-.357.674a8.673,8.673,0,0,0-6.348,1.467" transform="translate(-22.505 -6.658)" fill="#60462a" fill-rule="evenodd"/>
    <path id="Trazado_1403562" data-name="Trazado 1403562" d="M172.267,57.964a1.858,1.858,0,0,0,1.049-.384,2.078,2.078,0,0,0,.555-1.54c-.08-.19-.272.2-1.376.033-1.086-.168-4.944-.225-6.7,2.987-.3.554.114.8.6.476a7.194,7.194,0,0,1,5.872-1.571" transform="translate(-20.046 -6.773)" fill="#60462a" fill-rule="evenodd"/>
    <path id="Trazado_1403563" data-name="Trazado 1403563" d="M179.373,65.572a.46.46,0,0,1,.911.128,55.45,55.45,0,0,0-.651,5.982,2.19,2.19,0,0,0,.932.661,2.911,2.911,0,0,0,1.371.249.461.461,0,1,1,.078.918,3.854,3.854,0,0,1-1.813-.318,2.9,2.9,0,0,1-1.407-1.131c-.248-.549.417-5.562.58-6.488" transform="translate(-21.623 -7.885)" fill="#f68b85" fill-rule="evenodd"/>
    <path id="Trazado_1403564" data-name="Trazado 1403564" d="M182.667,80.006a.415.415,0,0,1-.01-.831,10.268,10.268,0,0,0,2.685-.519.415.415,0,0,1,.261.788,11.2,11.2,0,0,1-2.936.561" transform="translate(-22.048 -9.513)" fill="#f68b85" fill-rule="evenodd"/>
    <path id="Trazado_1403565" data-name="Trazado 1403565" d="M178.055,77.529a.426.426,0,1,1,.105-.845c.018,0,6.536.868,8.585-2.684a.426.426,0,0,1,.738.425c-2.334,4.049-9.408,3.106-9.428,3.1" transform="translate(-21.496 -8.927)" fill="#f68b85" fill-rule="evenodd"/>
    <path id="Trazado_1403566" data-name="Trazado 1403566" d="M171.538,63.226h0a2.439,2.439,0,0,0-1.289.644,1.285,1.285,0,0,1-.809-.834.429.429,0,0,0-.822.244,2.053,2.053,0,0,0,.872,1.159.67.67,0,0,1-.577-.214.429.429,0,1,0-.622.592,1.457,1.457,0,0,0,1.217.489,2.433,2.433,0,0,0,.008.745l.4,2.418a2.462,2.462,0,0,0,2.825,2.016h0a2.46,2.46,0,0,0,2.02-2.821l-.4-2.416a2.462,2.462,0,0,0-2.824-2.02" transform="translate(-20.345 -7.589)" fill="#60462a" fill-rule="evenodd"/>
    <path id="Trazado_1403567" data-name="Trazado 1403567" d="M190.777,59.97h0a2.568,2.568,0,0,1,1.508.183,1.366,1.366,0,0,0,.508-1.116.452.452,0,1,1,.9-.05,2.168,2.168,0,0,1-.454,1.461.707.707,0,0,0,.5-.419.453.453,0,0,1,.829.367,1.536,1.536,0,0,1-1.035.919,2.614,2.614,0,0,1,.258.742l.46,2.544a2.591,2.591,0,0,1-5.1.925l-.461-2.544a2.6,2.6,0,0,1,2.088-3.011" transform="translate(-22.822 -7.084)" fill="#60462a" fill-rule="evenodd"/>
    <path id="Trazado_1403568" data-name="Trazado 1403568" d="M206.928,59.6a6.712,6.712,0,0,1,.848-.884,3.715,3.715,0,0,1,1.909-.953c1.216-.091,3.142,2.221,3.3,4.19s-.959,9.093-5.338,7.2-.723-9.556-.723-9.556" transform="translate(-24.861 -6.988)" fill="#fcd1c8" fill-rule="evenodd"/>
    <path id="Trazado_1403569" data-name="Trazado 1403569" d="M205.931,62.732a.446.446,0,0,0,0,.524.244.244,0,0,0,.374,0l1.6-1.565a4.711,4.711,0,0,1,.47,5.24c-.425.528.5,1.381.738,1.034a7.348,7.348,0,0,0,1.62-3.715c.115-1.576-1.469-2.739-1.049-3.216.4-.455,1,.049,1.052.1l0,0h0a4.063,4.063,0,0,1,.764,1.021.244.244,0,0,0,.4.078.456.456,0,0,0,.1-.52c0-.006-1.07-2.158-2.721-1.8-1.58.343-3.341,2.814-3.348,2.822" transform="translate(-24.903 -7.243)" fill="#f8a8a0" fill-rule="evenodd"/>
    <path id="Trazado_1403570" data-name="Trazado 1403570" d="M209.533,82.552,193.239,99.307l4.4,6.087a.968.968,0,0,0,1.155-.193c.659-.534,13.711-20.816,13.711-20.816s.115-.418-.156-.609-2.454-1.355-2.454-1.355a.34.34,0,0,0-.366.131" transform="translate(-23.378 -9.97)" fill="#fff" fill-rule="evenodd"/>
    <path id="Trazado_1403571" data-name="Trazado 1403571" d="M195.23,194.7s2.035.685,5.514,4.151,7.859,8.629,9.949,9.536-.033-6.772.112-6.944-5-5.138-7.36-6.586-10.071-2.783-12.009-6.227c0,0-.239,3.383,3.795,6.071" transform="translate(-23.159 -22.82)" fill="#60462a" fill-rule="evenodd"/>
    <path id="Trazado_1403572" data-name="Trazado 1403572" d="M184.865,176.2a38.221,38.221,0,0,1,3.368,5.387c.615,1.621,1.179,9.49,6.2,11.468A7.668,7.668,0,0,1,191,186.7c-.148-4.5-.288-7.52-.963-8.528s-1.838-3.119-1.838-3.119Z" transform="translate(-22.365 -21.177)" fill="#906a3e" fill-rule="evenodd"/>
    <path id="Trazado_1403573" data-name="Trazado 1403573" d="M181.22,170s-.93.814-.811,1.672,2.192,2.823,2.975,3.965,2.734,1.291,4.683-.747S181.22,170,181.22,170" transform="translate(-21.824 -20.566)" fill="#60462a" fill-rule="evenodd"/>
    <path id="Trazado_1403574" data-name="Trazado 1403574" d="M224.428,209.314l-4.7,5s-9.209-7.451-11.682-15.573,3.895-28.9,3.366-38.072-2.7-21.731-2.7-21.731l15.1,7.338Z" transform="translate(-25.099 -16.809)" fill="#c08d53" fill-rule="evenodd"/>
    <path id="Trazado_1403575" data-name="Trazado 1403575" d="M199.6,107.037s-2.67-.8-6.559,4.594-4.7,23.493-5.568,31.161-9.878-3.334-9.878-3.334,6.191-18.815,10.854-27.018,10.018-8.739,10.018-8.739Z" transform="translate(-21.485 -12.545)" fill="#906a3e" fill-rule="evenodd"/>
    <path id="Trazado_1403576" data-name="Trazado 1403576" d="M255.959,216.479s-5.231,1.6-15.639,1.668-18.91-5.331-19.585-6.774-4-16.376-1.756-25.594-2.153-37.372-3.1-40.8,12.544-30.35,12.544-30.35l23.489,4.057Z" transform="translate(-26.111 -13.868)" fill="#c08d53" fill-rule="evenodd"/>
    <path id="Trazado_1403577" data-name="Trazado 1403577" d="M272.953,126.765s-.895-8.678-2.486-11.115-9.042-3.988-13.517-3.251-12.789,8.253-17.5,25.57-11.11,48.336-10.758,55.607A28.077,28.077,0,0,0,238,212.624c5.187,4.541,16.117,4.534,19.8,3.489s8.117-4.384,11.037-8.6,4.656-13.15,6.18-21.118-2.059-59.627-2.059-59.627" transform="translate(-27.665 -13.576)" fill="#60462a" fill-rule="evenodd"/>
    <path id="Trazado_1403578" data-name="Trazado 1403578" d="M274.13,196.339a1.3,1.3,0,1,1,2.609-.065c0,.016.029.934-.018,2.455-1.423,7.321-3.1,14.985-5.734,18.8a24.582,24.582,0,0,1-2.866,3.411c6.489-8.745,6.01-24.538,6.009-24.6m-21.808,31.109c-1.662.168-3.607.308-5.833.376,13.343-4.491,12.584-29.5,12.582-29.576a1.3,1.3,0,1,1,2.608-.065c0,.072.635,20.682-9.357,29.264" transform="translate(-29.82 -23.591)" fill="#c08d53" fill-rule="evenodd"/>
    <path id="Trazado_1403579" data-name="Trazado 1403579" d="M275.612,128.51a13.746,13.746,0,0,0-6.076-1.875c-2.86.052-10.356,1.107-13.455,3.426s-3.9,14.5-4.705,22.87-1.646,23.415,1.788,29.842,5.192,12.329,9.121,12.833,12.577.867,15.693-4.662,8.681-34.035-2.365-62.432" transform="translate(-30.324 -15.32)" fill="#906a3e" fill-rule="evenodd"/>
    <path id="Trazado_1403580" data-name="Trazado 1403580" d="M273.351,195.579c.479-.1.955-.215,1.42-.354,1.122-5,2.21-10.489,2.972-16.3a107.783,107.783,0,0,0,.685-23.748c-1.488-16.352-6.281-27.031-6.3-27.062a.654.654,0,0,0-1.194.534c.014.031,4.72,10.519,6.188,26.642a106.512,106.512,0,0,1-.679,23.467c-.788,6-1.929,11.68-3.1,16.818" transform="translate(-32.771 -15.453)" fill="#60462a" fill-rule="evenodd"/>
    <path id="Trazado_1403581" data-name="Trazado 1403581" d="M220.749,211.665l-.014-.027c-.678-1.442-4-16.377-1.756-25.594s-2.153-37.372-3.1-40.8c-.793-2.868,8.543-22.226,11.593-28.435,6.75.036,12.695.113,12.695.113s-8.34,16.519-7.36,23.391,11.078,46.136,11.891,52.17-11.15,17.02-14.363,18.737c-2.422,1.294-6.515,2.024-9.587.442" transform="translate(-26.111 -14.132)" fill="#906a3e" fill-rule="evenodd"/>
    <path id="Trazado_1403582" data-name="Trazado 1403582" d="M275.612,128.51a13.746,13.746,0,0,0-6.076-1.875c-2.86.052-10.356,1.107-13.455,3.426s-3.9,14.5-4.705,22.87-1.646,23.415,1.788,29.842c1.161,2.175,2.13,4.286,3.057,6.151-.395-6.914,1.229-49.429,2.021-52.765s5.073-6.317,10.084-6.732a14.578,14.578,0,0,1,8.194,1.521q-.435-1.217-.908-2.437" transform="translate(-30.324 -15.32)" fill="#c08d53" fill-rule="evenodd"/>
    <path id="Trazado_1403583" data-name="Trazado 1403583" d="M267.956,106.287c.323-.1,3.458,10.031,3.55,10.334a1.01,1.01,0,0,1-.469,1.317c-.7.337-3.377-4.327-9.227-5.085s-9.978,3.561-12.342,7.579a4.944,4.944,0,0,1-3.712,1.307c-1.967-.338-10.328-3.708-16.381-3.329s-6.729-12.128-3.82-12.808,42.4.686,42.4.686" transform="translate(-27.086 -12.753)" fill="#60462a" fill-rule="evenodd"/>
    <path id="Trazado_1403584" data-name="Trazado 1403584" d="M249.456,122.283a.326.326,0,1,1,.651.03c0,.008-.18,2.808-.46,5.989a.327.327,0,0,1-.652-.055c.281-3.179.461-5.955.461-5.963" transform="translate(-30.123 -14.756)" fill="#a87b49" fill-rule="evenodd"/>
    <path id="Trazado_1403585" data-name="Trazado 1403585" d="M247.613,128.9a1.307,1.307,0,0,1,2.613.027,111.792,111.792,0,0,1-2.177,19.392,1.309,1.309,0,1,1-2.565-.52,108.93,108.93,0,0,0,2.129-18.9" transform="translate(-29.695 -15.438)" fill="#fff" fill-rule="evenodd"/>
    <path id="Trazado_1403586" data-name="Trazado 1403586" d="M159.135,38.038A4.46,4.46,0,0,0,161.58,34.4c.27-2.71,2.871-17.518,2.871-17.518s.767-3.055,3.349-3.712,16.3-2.111,19.29-1.945,4.663.2,7.952,2.211,6.783,4.583,6.783,4.583a5.513,5.513,0,0,1,1.893,3.232c.5,2.262,3.272,16.306,3.272,16.306Z" transform="translate(-19.252 -1.357)" fill="#fde3c8" fill-rule="evenodd"/>
    <path id="Trazado_1403587" data-name="Trazado 1403587" d="M159.135,40.595a4.46,4.46,0,0,0,2.445-3.637c.061-.6.235-1.8.47-3.3,0,0,23.276-3.831,43.979,1.588.544,2.736.961,4.866.961,4.866Z" transform="translate(-19.252 -3.913)" fill="#a87b49" fill-rule="evenodd"/>
    <path id="Trazado_1403588" data-name="Trazado 1403588" d="M164.246,66.243a7.306,7.306,0,0,0-.43-3.418s.469-5.173-.491-7.078c0,0,7.644-6.47,5.622-11.494s-8.894-1.013-8.894-1.013l.047,14.873,1.722,4.813s1.453-.119,2.424,3.317" transform="translate(-19.363 -5.048)" fill="#60462a" fill-rule="evenodd"/>
    <path id="Trazado_1403589" data-name="Trazado 1403589" d="M179.027,46.784c6.469,1.95,13.481,10.086,19.857,6.761,0,0,.159,5.969,2.982,8.741,0,0,1.059-4.657,4.056-5.72,0,0,1.582-2.362,1.533-3.4s-.483-4.617-1.988-5.239-26.439-1.144-26.439-1.144" transform="translate(-21.658 -5.66)" fill="#60462a" fill-rule="evenodd"/>
    <path id="Trazado_1403590" data-name="Trazado 1403590" d="M142.788,43.757a40.892,40.892,0,0,1,21.508,1.36c11.815,3.94,30.671,4.591,39.853,2.5s11.705-3.42,15.247-2.077c-12.145-10.748-62.839-6.648-76.608-1.782" transform="translate(-17.274 -4.689)" fill="#fde3c8" fill-rule="evenodd"/>
    <path id="Trazado_1403591" data-name="Trazado 1403591" d="M215.508,100.178s-8.029-3.451-14,1.592-6.6,14.668-5.588,18.64,6.534,12.3,9.444,13.894c0,0,16.049,21.386,21.2,28.378-7.024,10.352,2.495,19.307,2.495,19.307,19.832,1.11,29.073-13.146,18.808-30.76-5.725-9.825-14.275-23.972-16.756-27.455-4.807-6.758-4.16-17.474-15.606-23.595" transform="translate(-23.654 -11.98)" fill="#fff" fill-rule="evenodd"/>
    <path id="Trazado_1403592" data-name="Trazado 1403592" d="M229.293,118.9c-1.82-4.649-3.244-9.913-7.508-14.214l-14.587-.823-3.818,3.975c3.374,9.864,17.1,10.9,25.913,11.062" transform="translate(-24.605 -12.565)" fill="#e4dae2" fill-rule="evenodd"/>
    <path id="Trazado_1403593" data-name="Trazado 1403593" d="M210.646,183.385l2.117-13.478-21.253-6.6-7.893,5.382-.482,3.8s1.7.806,3.6,1.615,23.907,9.282,23.907,9.282" transform="translate(-22.155 -19.757)" fill="#fcd1c8" fill-rule="evenodd"/>
    <path id="Trazado_1403594" data-name="Trazado 1403594" d="M211.549,183.385l2.117-13.478-2.462-.765c-1.607,2.033-5.179,7.164-4.882,12.228,3.048,1.176,5.228,2.015,5.228,2.015m-15.711-19.014-3.426-1.064a10.888,10.888,0,0,1-1.814,3.841,6.731,6.731,0,0,0,5.24-2.778" transform="translate(-23.058 -19.757)" fill="#f8a8a0" fill-rule="evenodd"/>
    <path id="Trazado_1403595" data-name="Trazado 1403595" d="M215.056,170.577c-3.147,4.193-3.37,9.871-2.321,14.884,1.85,8.839,17.446,8.282,18.34,4.958,0,0-10.419-9.8-1.418-20.742-1.108-1.445-12.879-1.394-14.6.9" transform="translate(-25.668 -20.409)" fill="#a87b49" fill-rule="evenodd"/>
    <path id="Trazado_1403596" data-name="Trazado 1403596" d="M176.2,145.889a2.362,2.362,0,0,1,.274-1.19,13.951,13.951,0,0,1,3-2.517,2.916,2.916,0,0,1,2.622.324c.731.552,2.685,2.438,2.97,2.678a16.956,16.956,0,0,1,3.365,3.559c.652,1.3,1.755,11.986,1.755,11.986l-8.374,9.18s-4.822-4.076-5.85-9.944c0,0-2.372-2.06-3.3-2.9s-.342-3.041.228-3.812c0,0-.262-2.594,1.426-3.342,0,0-.512-2.895,1.883-4.026" transform="translate(-20.83 -17.18)" fill="#fcd1c8" fill-rule="evenodd"/>
    <path id="Trazado_1403597" data-name="Trazado 1403597" d="M176,160.734a.389.389,0,0,1-.331-.183,8.026,8.026,0,0,1-.911-2.153l-.367.031a.415.415,0,0,1-.423-.359.392.392,0,0,1,.358-.422l.314-.026a2.44,2.44,0,0,1,.218-1.23.391.391,0,0,1,.7.347,1.939,1.939,0,0,0-.108,1.152.459.459,0,0,1,.007.048,6.814,6.814,0,0,0,.872,2.193.392.392,0,0,1-.331.6m-3.067-6.71a.4.4,0,0,1-.308-.148.391.391,0,0,1,.062-.549,3.289,3.289,0,0,1,1.835-.626c.955-.027,3.06-.127,3.06-.127l.038.781s-2.117.1-3.077.129a2.542,2.542,0,0,0-1.362.451.394.394,0,0,1-.247.088m1.425-3.341a.392.392,0,0,1-.133-.76,8.278,8.278,0,0,1,2.278-.334c1.424-.047,3.314,0,3.334,0a.39.39,0,0,1,.382.4.4.4,0,0,1-.4.383c-.018,0-1.888-.046-3.288,0a7.641,7.641,0,0,0-2.034.287.43.43,0,0,1-.138.024m1.883-4.026a.391.391,0,0,1-.13-.76,3.94,3.94,0,0,1,1.394-.184c.194.011.61.025,1.108.042l-.031-.055a.392.392,0,0,1,.691-.371l.245.456c1.078.036,2.162.069,2.162.069l-.025.783s-3.5-.106-4.189-.142a3.3,3.3,0,0,0-1.093.139.416.416,0,0,1-.133.024" transform="translate(-20.874 -17.557)" fill="#f8a8a0"/>
    <path id="Trazado_1403598" data-name="Trazado 1403598" d="M140.583,148.965a3.1,3.1,0,0,1-2.866-.035c-1.491-.817-2.046-2.438.181-3a7.556,7.556,0,0,1,2.319-.936,21.9,21.9,0,0,1,5.427,1c1.108.488,2.14,2.52,3.876,3.888s5.914,4.334,3.609,7.829c0,0,1.987,4.743-1.39,6.477a4.625,4.625,0,0,0-2.029-.021,72.23,72.23,0,0,1-7.539,1.491,2.086,2.086,0,0,1-2.082-1.765l-4.623-2.553a1.875,1.875,0,0,1-.732-1.482,19.447,19.447,0,0,1-2.394-1.066,39.052,39.052,0,0,1-2.978-3.738s-.865-1.263.091-1.677,2.777,1.236,2.777,1.236l1.744.571s.069-.641.955-.685,1.631,1.531,1.631,1.531l3.825,1.253,1.632-.178a1.645,1.645,0,0,1,.963-.708,1.079,1.079,0,0,1,1.269.464l.864-.094.534-1.63L138,152.63l3.764-1.373.271-1.141s-.9-.716-1.455-1.151" transform="translate(-15.607 -17.541)" fill="#fcd1c8" fill-rule="evenodd"/>
    <path id="Trazado_1403599" data-name="Trazado 1403599" d="M144.723,164.986a.364.364,0,0,1-.053,0,.393.393,0,0,1-.337-.44c.285-2.134-.785-2.59-.831-2.61a.392.392,0,0,1,.178-.755c.263-1,.712-2.731.774-3.143a1.157,1.157,0,0,0-.139-.752.393.393,0,0,1,.11-.54.387.387,0,0,1,.539.1,1.924,1.924,0,0,1,.265,1.307c-.08.536-.681,2.809-.854,3.461a3.416,3.416,0,0,1,.735,3.033.392.392,0,0,1-.388.34m-4.241-.5a.393.393,0,0,1-.39-.36,6.434,6.434,0,0,1,.192-2.026c.26-.93,1.7-4.768,1.758-4.931a.392.392,0,0,1,.734.274c-.016.04-1.487,3.971-1.74,4.868a5.75,5.75,0,0,0-.163,1.751.392.392,0,0,1-.358.422l-.033,0m-2.561-3.817a.391.391,0,0,1-.379-.3l-.439-1.81v-.005l-.533-2.235a.392.392,0,0,1,.762-.181l.469,1.977a2.809,2.809,0,0,1,2.213,1.819.392.392,0,0,1-.24.5.4.4,0,0,1-.5-.24,1.964,1.964,0,0,0-1.268-1.217l.294,1.208a.391.391,0,0,1-.286.474.35.35,0,0,1-.095.011m-2.794-.219a.392.392,0,0,1-.387-.329l-.4-2.429-2.032-2.641a.391.391,0,0,1,.072-.549.4.4,0,0,1,.549.073l1.146,1.49-.1-.618a.391.391,0,0,1,.773-.125l.347,2.133,0,.026.409,2.514a.391.391,0,0,1-.323.449.375.375,0,0,1-.062.005m18.394-2.147a.392.392,0,0,1-.306-.147c-.077-.1-1.953-2.371-5.925-.939a.392.392,0,1,1-.266-.737c4.516-1.63,6.714,1.074,6.8,1.19a.391.391,0,0,1-.064.549.4.4,0,0,1-.243.083m-11.362-6.448a.392.392,0,0,1-.148-.754,12.4,12.4,0,0,0,2.874-1.795.392.392,0,1,1,.5.6,12.952,12.952,0,0,1-3.082,1.92.381.381,0,0,1-.148.029m.271-1.141a.392.392,0,0,1-.131-.761,2.176,2.176,0,0,0,.663-.376.392.392,0,1,1,.54.568,2.942,2.942,0,0,1-.942.547.389.389,0,0,1-.129.023m-1.455-1.15a.392.392,0,0,1-.227-.712c.033-.025.563-.449.486-1.7a.392.392,0,0,1,.366-.416.355.355,0,0,1,.416.366,2.6,2.6,0,0,1-.82,2.391.383.383,0,0,1-.221.069" transform="translate(-15.997 -17.752)" fill="#f8a8a0"/>
    <path id="Trazado_1403600" data-name="Trazado 1403600" d="M164.244,158.489l-.041-.013c-.549-.156-1.17.21-1.777.965.335.222.691.452,1.064.689.178-.256.3-.4.346-.4a2.55,2.55,0,0,1,.017.628c0,.133-.01.283-.018.45a16.379,16.379,0,0,1-.666,3.557l-.268.876a19.543,19.543,0,0,1-1.719,3.933c-.106.174-.2.331-.294.47-.282.437-.476.689-.542.689a5.544,5.544,0,0,1,0-1.077v-.029c-.409-.318-.819-.627-1.224-.928h0c-.04.319-.067.62-.08.9-.059,1.277.233,2.157.9,2.38l.04.012c.592.17,1.268-.268,1.918-1.145.134-.178.266-.375.4-.59a20.84,20.84,0,0,0,1.849-4.211l.282-.919a18.732,18.732,0,0,0,.7-3.583c.007-.095.012-.185.017-.273.059-1.279-.232-2.158-.9-2.38" transform="translate(-19.24 -19.168)" fill="#60462a" fill-rule="evenodd"/>
    <path id="Trazado_1403601" data-name="Trazado 1403601" d="M232.675,91.5c.461,9.54-5.138,17.8-13.013,20.084a1.942,1.942,0,0,1,.038.413l-2.944.142c-.248.024-.495.043-.745.055-9.486.458-17.637-7.616-18.527-18.18,0-.141.024-.815.666-.847Z" transform="translate(-23.891 -11.07)" fill="#a87b49" fill-rule="evenodd"/>
    <path id="Trazado_1403602" data-name="Trazado 1403602" d="M261.56,69.736c8.737-.422,16.215,7.216,16.691,17.061s-6.232,18.168-14.969,18.59l-40.895,3.979L219.7,69.736Z" transform="translate(-26.579 -8.435)" fill="#a87b49" fill-rule="evenodd"/>
    <path id="Trazado_1403603" data-name="Trazado 1403603" d="M278.543,89.5c.319,9.708-6.337,17.86-14.981,18.277l-40.895,3.979-.659-9.712c6.546-3.818,15.057-8.119,15.057-8.119l36.666-1.864a6.936,6.936,0,0,0,4.813-2.561" transform="translate(-26.858 -10.828)" fill="#906a3e" fill-rule="evenodd"/>
    <path id="Trazado_1403604" data-name="Trazado 1403604" d="M217.4,69.735c9.725-.47,18.052,8.033,18.582,18.992s-6.938,20.224-16.665,20.694-18.051-8.032-18.582-18.991S207.672,70.2,217.4,69.735" transform="translate(-24.281 -8.434)" fill="#906a3e" fill-rule="evenodd"/>
    <path id="Trazado_1403605" data-name="Trazado 1403605" d="M218.886,106.9a15,15,0,0,1-12.8-7.831.391.391,0,0,1,.677-.393,14.127,14.127,0,0,0,12.729,7.426,13.624,13.624,0,0,0,10.214-5.667.392.392,0,1,1,.629.469,14.406,14.406,0,0,1-10.8,5.98c-.215.011-.428.017-.643.017m14.121-12.537a.367.367,0,0,1-.081-.009.391.391,0,0,1-.3-.463,18.127,18.127,0,0,0,.363-4.6c-.43-8.886-7.2-15.786-15.051-15.43-7.872.38-13.925,7.921-13.5,16.811l.024.407a.39.39,0,0,1-.367.414.366.366,0,0,1-.414-.366l-.025-.419c-.449-9.319,5.937-17.228,14.238-17.629h0c8.292-.4,15.421,6.855,15.87,16.175a18.835,18.835,0,0,1-.377,4.8.393.393,0,0,1-.383.311" transform="translate(-24.635 -8.839)" fill="#a87b49"/>
    <path id="Trazado_1403606" data-name="Trazado 1403606" d="M219.3,103.559a11.005,11.005,0,0,1-7.9-3.448,13.816,13.816,0,0,1-3.833-9.032c-.346-7.184,4.581-13.28,10.983-13.59h0A10.914,10.914,0,0,1,227.039,81a.392.392,0,0,1-.011.554.387.387,0,0,1-.553-.011,10.2,10.2,0,0,0-7.882-3.27h0c-5.972.29-10.565,6.018-10.241,12.77a13.038,13.038,0,0,0,3.61,8.523,9.977,9.977,0,0,0,15.287-.739,13.011,13.011,0,0,0,2.771-8.83,13.517,13.517,0,0,0-1.189-4.972.39.39,0,1,1,.711-.323,14.245,14.245,0,0,1,1.26,5.257,13.8,13.8,0,0,1-2.943,9.36,10.956,10.956,0,0,1-8.043,4.229c-.17.009-.342.013-.513.013" transform="translate(-25.109 -9.373)" fill="#a87b49"/>
    <path id="Trazado_1403607" data-name="Trazado 1403607" d="M219.742,100.255c-4.377,0-8.066-3.874-8.3-8.813a10.077,10.077,0,0,1,.6-3.973.4.4,0,0,1,.5-.233.394.394,0,0,1,.233.5,9.3,9.3,0,0,0-.551,3.664c.227,4.643,3.739,8.249,7.843,8.062s7.252-4.138,7.029-8.781-3.742-8.258-7.841-8.062h0a6.612,6.612,0,0,0-2.491.619.4.4,0,0,1-.52-.191.39.39,0,0,1,.189-.52,7.377,7.377,0,0,1,2.785-.689h0c4.559-.211,8.417,3.732,8.66,8.805s-3.243,9.381-7.772,9.6c-.12.007-.238.009-.357.009" transform="translate(-25.578 -9.9)" fill="#a87b49"/>
    <path id="Trazado_1403608" data-name="Trazado 1403608" d="M220.076,87.568a4.2,4.2,0,1,1-3.5,4.349,3.962,3.962,0,0,1,3.5-4.349" transform="translate(-26.2 -10.593)" fill="#a87b49" fill-rule="evenodd"/>
    <path id="Trazado_1403609" data-name="Trazado 1403609" d="M249.758,121.685a.541.541,0,1,1-.516.567.538.538,0,0,1,.516-.567" transform="translate(-30.153 -14.721)" fill="#fff" fill-rule="evenodd"/>
    <path id="Trazado_1403610" data-name="Trazado 1403610" d="M249.252,128.213a.776.776,0,1,1-.738.813.777.777,0,0,1,.738-.813" transform="translate(-30.065 -15.511)" fill="#a87b49" fill-rule="evenodd"/>
    <path id="Trazado_1403611" data-name="Trazado 1403611" d="M277.056,117.8a.4.4,0,1,1-.383.423.4.4,0,0,1,.383-.423" transform="translate(-33.471 -14.251)" fill="#fff" fill-rule="evenodd"/>
    <path id="Trazado_1403612" data-name="Trazado 1403612" d="M194.868,201.459c-1.353,4.7-2.239,13.317,1.914,16.929a.577.577,0,0,1-.4,1.012,41.549,41.549,0,0,1-18.476-5.33l-.049-.031a3.5,3.5,0,0,1-1.091-1.951,31.276,31.276,0,0,1-.435-4.217c-.093-1.34-.223-2.841-.194-4.18a3.106,3.106,0,0,1,2.954-2.936,13.729,13.729,0,0,1,1.714.158c1.1.12,2.2.218,3.308.279a47.911,47.911,0,0,0,10.117-.462.578.578,0,0,1,.643.73" transform="translate(-21.308 -24.283)" fill="#eab389" fill-rule="evenodd"/>
    <path id="Trazado_1403613" data-name="Trazado 1403613" d="M269.694,138.622c-.011.036-.02.069-.033.1a1.594,1.594,0,1,1-3.013-1.043c.014-.034.026-.068.04-.1l2.1-4.955,0,0a1.231,1.231,0,1,1,2.326.806v0Zm.472-6.226a.667.667,0,1,0,.414.849.665.665,0,0,0-.414-.849m-1.669,4.825a1.04,1.04,0,1,0,.642,1.324,1.041,1.041,0,0,0-.642-1.324" transform="translate(-32.248 -15.944)" fill="#fff" fill-rule="evenodd"/>
    <path id="Trazado_1403614" data-name="Trazado 1403614" d="M270.706,130.337a.327.327,0,0,1,.638-.143,3.829,3.829,0,0,1-.708,2.794.327.327,0,0,1-.552-.35,3.165,3.165,0,0,0,.622-2.3" transform="translate(-32.668 -15.72)" fill="#a87b49" fill-rule="evenodd"/>
    <path id="Trazado_1403615" data-name="Trazado 1403615" d="M267.1,212.818c.011.034.023.069.032.1a1.594,1.594,0,1,1-3.078.827c-.011-.035-.019-.069-.026-.105l-1.045-5.277,0,0a1.231,1.231,0,1,1,2.377-.638v0ZM264,207.4a.668.668,0,1,0,.819.471A.668.668,0,0,0,264,207.4m1.327,4.933a1.04,1.04,0,1,0,1.274.733,1.038,1.038,0,0,0-1.274-.733" transform="translate(-31.81 -25.02)" fill="#fff" fill-rule="evenodd"/>
    <path id="Trazado_1403616" data-name="Trazado 1403616" d="M263.072,205.6a.327.327,0,1,1,.448-.476,3.826,3.826,0,0,1,.98,2.708.326.326,0,1,1-.652.02,3.16,3.16,0,0,0-.776-2.253" transform="translate(-31.814 -24.805)" fill="#a87b49" fill-rule="evenodd"/>
    <path id="Trazado_1403617" data-name="Trazado 1403617" d="M281.531,210.86c0,.036.006.074.007.11a1.594,1.594,0,0,1-3.188.062c0-.038,0-.074,0-.11l.256-5.373v0a1.23,1.23,0,1,1,2.46-.049l0,0Zm-1.706-6.007a.668.668,0,1,0,.679.656.668.668,0,0,0-.679-.656m.1,5.107a1.04,1.04,0,1,0,1.058,1.02,1.04,1.04,0,0,0-1.058-1.02" transform="translate(-33.674 -24.715)" fill="#fff" fill-rule="evenodd"/>
    <path id="Trazado_1403618" data-name="Trazado 1403618" d="M279.427,202.858a.327.327,0,1,1,.549-.355,3.829,3.829,0,0,1,.3,2.865.327.327,0,1,1-.639-.136,3.158,3.158,0,0,0-.211-2.373" transform="translate(-33.798 -24.48)" fill="#a87b49" fill-rule="evenodd"/>
    <path id="Trazado_1403619" data-name="Trazado 1403619" d="M184.176,204.034c2.545-.124,4.852,2.278,5.15,5.362s-1.519,5.686-4.065,5.809-4.851-2.279-5.151-5.364,1.52-5.684,4.065-5.807" transform="translate(-21.786 -24.683)" fill="#f9cda6" fill-rule="evenodd"/>
    <path id="Trazado_1403620" data-name="Trazado 1403620" d="M184.333,206.5c1.562-.076,2.978,1.4,3.163,3.292s-.934,3.491-2.5,3.566-2.979-1.4-3.164-3.293.934-3.491,2.5-3.565" transform="translate(-21.996 -24.982)" fill="#eab389" fill-rule="evenodd"/>
    <path id="Trazado_1403621" data-name="Trazado 1403621" d="M228.244,165.676a.392.392,0,0,1-.011-.784l4.642-.109.878-.8a.391.391,0,0,1,.528.577l-.218.2,2.043-.049a.4.4,0,0,1,.4.382.392.392,0,0,1-.381.4l-7.875.185Zm-19.817-23.661a.393.393,0,0,1-.3-.136l-5.02-5.874a.357.357,0,0,1-.172,0l-1.3-.319a.392.392,0,0,1-.288-.473.383.383,0,0,1,.474-.287l.459.113-1.7-1.982a.392.392,0,1,1,.6-.509l7.546,8.824a.391.391,0,0,1-.3.646" transform="translate(-24.255 -16.019)" fill="#e4dae2"/>
    <path id="Trazado_1403622" data-name="Trazado 1403622" d="M58.341,339.363a.783.783,0,0,1-.783-.784V212.741a.784.784,0,0,1,1.567,0V338.579a.784.784,0,0,1-.784.784" transform="translate(-6.963 -25.642)" fill="#9c9c72"/>
    <path id="Trazado_1403623" data-name="Trazado 1403623" d="M87.962,357.6a.784.784,0,0,1-.689-.408L57.654,303.078a.783.783,0,0,1,1.375-.752l29.618,54.114a.783.783,0,0,1-.685,1.159" transform="translate(-6.963 -36.526)" fill="#9c9c72"/>
    <path id="Trazado_1403624" data-name="Trazado 1403624" d="M62.219,356.682H53.226a.783.783,0,0,1,0-1.566h8.992a.783.783,0,1,1,0,1.566" transform="translate(-6.345 -42.961)" fill="#9c9c72"/>
    <path id="Trazado_1403625" data-name="Trazado 1403625" d="M61.169,353.878a.392.392,0,0,1-.314-.627L74.2,335.334a.392.392,0,0,1,.628.469L61.483,353.72a.39.39,0,0,1-.314.158" transform="translate(-7.353 -40.549)" fill="#9c9c72"/>
    <path id="Trazado_1403626" data-name="Trazado 1403626" d="M24.646,357.6a.783.783,0,0,1-.686-1.159l29.618-54.114a.783.783,0,0,1,1.374.752L25.335,357.192a.784.784,0,0,1-.688.408" transform="translate(-2.887 -36.526)" fill="#9c9c72"/>
    <path id="Trazado_1403627" data-name="Trazado 1403627" d="M53.786,353.878a.387.387,0,0,1-.313-.158L40.123,335.8a.392.392,0,0,1,.628-.469L54.1,353.252a.392.392,0,0,1-.314.627" transform="translate(-4.845 -40.549)" fill="#9c9c72"/>
    <path id="Trazado_1403628" data-name="Trazado 1403628" d="M60.714,303.993h-5.5a.783.783,0,0,1,0-1.566h5.5a.783.783,0,1,1,0,1.566" transform="translate(-6.585 -36.587)" fill="#9c9c72"/>
    <path id="Trazado_1403629" data-name="Trazado 1403629" d="M59.816,263.249H56.4a.783.783,0,1,1,0-1.566h3.418a.783.783,0,1,1,0,1.566" transform="translate(-6.728 -31.658)" fill="#9c9c72"/>
    <path id="Trazado_1403630" data-name="Trazado 1403630" d="M59.816,242.452H56.4a.783.783,0,1,1,0-1.566h3.418a.783.783,0,1,1,0,1.566" transform="translate(-6.728 -29.142)" fill="#9c9c72"/>
    <path id="Trazado_1403631" data-name="Trazado 1403631" d="M34.19,193.723h3.9a.387.387,0,0,1,.387.386V195a.387.387,0,0,1-.387.386h-3.9A.388.388,0,0,1,33.8,195v-.889a.388.388,0,0,1,.386-.386" transform="translate(-4.09 -23.436)" fill="#9c9c72" fill-rule="evenodd"/>
    <path id="Trazado_1403632" data-name="Trazado 1403632" d="M77.456,193.723h2.955a.386.386,0,0,1,.386.386V195a.386.386,0,0,1-.386.386H77.456A.386.386,0,0,1,77.07,195v-.889a.386.386,0,0,1,.386-.386" transform="translate(-9.324 -23.436)" fill="#9c9c72" fill-rule="evenodd"/>
    <path id="Trazado_1403633" data-name="Trazado 1403633" d="M42.648,193.723h3.9a.385.385,0,0,1,.384.386V195a.385.385,0,0,1-.384.386h-3.9a.386.386,0,0,1-.386-.386v-.889a.386.386,0,0,1,.386-.386" transform="translate(-5.113 -23.436)" fill="#9c9c72" fill-rule="evenodd"/>
    <path id="Trazado_1403634" data-name="Trazado 1403634" d="M32.376,194.971H76.033a2.7,2.7,0,0,1,2.7,2.694v22.782a2.7,2.7,0,0,1-2.7,2.7H32.376a2.7,2.7,0,0,1-2.7-2.7V197.665a2.7,2.7,0,0,1,2.7-2.694" transform="translate(-3.591 -23.587)" fill="#9c9c72" fill-rule="evenodd"/>
    <path id="Rectángulo_458542" data-name="Rectángulo 458542" d="M.482,0h30.75a.483.483,0,0,1,.483.483V23.147a.483.483,0,0,1-.483.483H.482A.482.482,0,0,1,0,23.148V.482A.482.482,0,0,1,.482,0Z" transform="translate(41.152 173.654)" fill="#fff"/>
    <path id="Trazado_1403635" data-name="Trazado 1403635" d="M37.539,207.357a4.916,4.916,0,1,1-4.915,4.916,4.916,4.916,0,0,1,4.915-4.916" transform="translate(-3.947 -25.086)" fill="#c8c893" fill-rule="evenodd"/>
    <path id="Trazado_1403636" data-name="Trazado 1403636" d="M37.918,210.484a2.167,2.167,0,1,1-2.168,2.168,2.168,2.168,0,0,1,2.168-2.168" transform="translate(-4.325 -25.464)" fill="#9c9c72" fill-rule="evenodd"/>
    <path id="Trazado_1403637" data-name="Trazado 1403637" d="M38.133,212.259a.607.607,0,1,1-.607.607.607.607,0,0,1,.607-.607" transform="translate(-4.54 -25.679)" fill="#c8c893" fill-rule="evenodd"/>
    <path id="Trazado_1403638" data-name="Trazado 1403638" d="M38.158,208.318a.423.423,0,1,1-.422.422.422.422,0,0,1,.422-.422" transform="translate(-4.565 -25.202)" fill="#9c9c72" fill-rule="evenodd"/>
    <path id="Trazado_1403639" data-name="Trazado 1403639" d="M38.158,216.617a.424.424,0,1,1-.422.423.423.423,0,0,1,.422-.423" transform="translate(-4.565 -26.206)" fill="#9c9c72" fill-rule="evenodd"/>
    <path id="Trazado_1403640" data-name="Trazado 1403640" d="M42.731,212.891a.423.423,0,1,1-.422-.424.422.422,0,0,1,.422.424" transform="translate(-5.067 -25.704)" fill="#9c9c72" fill-rule="evenodd"/>
    <path id="Trazado_1403641" data-name="Trazado 1403641" d="M34.431,212.891a.423.423,0,1,1-.423-.424.424.424,0,0,1,.423.424" transform="translate(-4.063 -25.704)" fill="#9c9c72" fill-rule="evenodd"/>
    <path id="Trazado_1403642" data-name="Trazado 1403642" d="M33.768,222.483h2.669a.267.267,0,0,1,.266.265v.608a.266.266,0,0,1-.266.265H33.768a.265.265,0,0,1-.265-.265v-.608a.265.265,0,0,1,.265-.265" transform="translate(-4.053 -26.916)" fill="#c8c893" fill-rule="evenodd"/>
    <path id="Trazado_1403643" data-name="Trazado 1403643" d="M39.555,222.483h2.668a.265.265,0,0,1,.265.265v.608a.265.265,0,0,1-.265.265H39.555a.265.265,0,0,1-.265-.265v-.608a.266.266,0,0,1,.265-.265" transform="translate(-4.753 -26.916)" fill="#c8c893" fill-rule="evenodd"/>
    <path id="Trazado_1403644" data-name="Trazado 1403644" d="M33.768,203.327h2.669a.267.267,0,0,1,.266.265v.607a.266.266,0,0,1-.266.265H33.768a.265.265,0,0,1-.265-.265v-.607a.266.266,0,0,1,.265-.265" transform="translate(-4.053 -24.598)" fill="#c8c893" fill-rule="evenodd"/>
    <path id="Trazado_1403645" data-name="Trazado 1403645" d="M39.555,203.327h2.668a.266.266,0,0,1,.265.265v.607a.265.265,0,0,1-.265.265H39.555a.265.265,0,0,1-.265-.265v-.607a.266.266,0,0,1,.265-.265" transform="translate(-4.753 -24.598)" fill="#c8c893" fill-rule="evenodd"/>
    <path id="Trazado_1403646" data-name="Trazado 1403646" d="M33.768,200.442h2.669a.266.266,0,0,1,.266.264v.609a.266.266,0,0,1-.266.263H33.768a.264.264,0,0,1-.265-.263v-.609a.265.265,0,0,1,.265-.264" transform="translate(-4.053 -24.249)" fill="#c8c893" fill-rule="evenodd"/>
    <path id="Trazado_1403647" data-name="Trazado 1403647" d="M39.555,200.442h2.668a.265.265,0,0,1,.265.264v.609a.264.264,0,0,1-.265.263H39.555a.265.265,0,0,1-.265-.263v-.609a.265.265,0,0,1,.265-.264" transform="translate(-4.753 -24.249)" fill="#c8c893" fill-rule="evenodd"/>
    <path id="Trazado_1403648" data-name="Trazado 1403648" d="M33.768,197.554h2.669a.268.268,0,0,1,.266.265v.608a.266.266,0,0,1-.266.265H33.768a.265.265,0,0,1-.265-.265v-.608a.266.266,0,0,1,.265-.265" transform="translate(-4.053 -23.9)" fill="#c8c893" fill-rule="evenodd"/>
    <path id="Trazado_1403649" data-name="Trazado 1403649" d="M39.555,197.554h2.668a.266.266,0,0,1,.265.265v.608a.265.265,0,0,1-.265.265H39.555a.265.265,0,0,1-.265-.265v-.608a.266.266,0,0,1,.265-.265" transform="translate(-4.753 -23.9)" fill="#c8c893" fill-rule="evenodd"/>
    <path id="Trazado_1403650" data-name="Trazado 1403650" d="M53.457,190.294h14.4a2.625,2.625,0,0,1,2.615,2.615,1.5,1.5,0,0,0,1.5,1.5l-13.833.757-8.788-.757a1.5,1.5,0,0,0,1.5-1.5,2.626,2.626,0,0,1,2.614-2.615" transform="translate(-5.97 -23.021)" fill="#9c9c72" fill-rule="evenodd"/>
    <path id="Trazado_1403651" data-name="Trazado 1403651" d="M67.948,192.138h1.407a.449.449,0,1,1,0,.9H67.948a.449.449,0,1,1,0-.9" transform="translate(-8.166 -23.245)" fill="#c8c893" fill-rule="evenodd"/>
    <path id="Trazado_1403652" data-name="Trazado 1403652" d="M54.757,192.138h8.819a.449.449,0,1,1,0,.9H54.757a.449.449,0,1,1,0-.9" transform="translate(-6.57 -23.245)" fill="#c8c893" fill-rule="evenodd"/>
    <path id="Trazado_1403653" data-name="Trazado 1403653" d="M65.983,198.814l-17.91,17.91v-9.419l8.49-8.491Z" transform="translate(-5.816 -24.052)" fill="#a6e3ff" fill-rule="evenodd"/>
    <path id="Trazado_1403654" data-name="Trazado 1403654" d="M77.854,202.17,59.795,220.23H50.377l21.417-21.416h6.06Z" transform="translate(-6.095 -24.052)" fill="#a6e3ff" fill-rule="evenodd"/>
    <path id="Trazado_1403655" data-name="Trazado 1403655" d="M79.912,212.961l-8.491,8.491H67.384l12.528-12.528Z" transform="translate(-8.152 -25.275)" fill="#a6e3ff" fill-rule="evenodd"/>
    <path id="Trazado_1403656" data-name="Trazado 1403656" d="M119.32,100.059l1.858-1.2.347.137-.832,1.4a4.08,4.08,0,0,1-.66.076c-.026-.034-.713-.416-.713-.416" transform="translate(-14.435 -11.96)" fill="#a6e3ff" fill-rule="evenodd"/>
    <path id="Trazado_1403657" data-name="Trazado 1403657" d="M119.32,100.059l1.858-1.2.132.052-1.648,1.232a.181.181,0,0,0-.052.079l-.29-.164" transform="translate(-14.435 -11.96)" fill="#a6e3ff" fill-rule="evenodd"/>
    <path id="Trazado_1403658" data-name="Trazado 1403658" d="M128.974,106.247l-8.287-5.684-1.372-.339a.676.676,0,0,0,.145.7c.125.142,2.906,2.5,6.142,5.23Z" transform="translate(-14.429 -12.125)" fill="#a6e3ff" fill-rule="evenodd"/>
    <path id="Trazado_1403659" data-name="Trazado 1403659" d="M119.656,100.309l-.342-.085a.678.678,0,0,0,.145.7c.126.142,2.907,2.5,6.143,5.23l.991.025c-3.592-2.874-6.743-5.4-6.854-5.5-.257-.233-.087-.375-.083-.379" transform="translate(-14.429 -12.125)" fill="#a6e3ff" fill-rule="evenodd"/>
    <path id="Trazado_1403660" data-name="Trazado 1403660" d="M59.312,78.08,61.3,76.793l.372.147-.893,1.5a4.369,4.369,0,0,1-.71.083c-.027-.037-.761-.447-.761-.447" transform="translate(-7.175 -9.29)" fill="#fff" fill-rule="evenodd"/>
    <path id="Trazado_1403661" data-name="Trazado 1403661" d="M59.312,78.08,61.3,76.793l.141.055L59.677,78.17a.2.2,0,0,0-.055.084l-.31-.175" transform="translate(-7.175 -9.29)" fill="#fff" fill-rule="evenodd"/>
    <path id="Trazado_1403662" data-name="Trazado 1403662" d="M81.114,92.568,60.777,78.621,59.3,78.257a.721.721,0,0,0,.154.755c.331.37,17.6,14.883,17.6,14.883Z" transform="translate(-7.169 -9.467)" fill="#fff" fill-rule="evenodd"/>
    <path id="Trazado_1403663" data-name="Trazado 1403663" d="M59.671,78.349l-.366-.091a.72.72,0,0,0,.153.755c.331.37,17.6,14.883,17.6,14.883l1.148-.375C76.056,91.8,60.02,78.992,59.759,78.756s-.093-.4-.088-.407" transform="translate(-7.169 -9.468)" fill="#a6e3ff" fill-rule="evenodd"/>
    <path id="Trazado_1403664" data-name="Trazado 1403664" d="M87.03,94.648c-1.813-.395-5.517-.941-8.1.386a23.232,23.232,0,0,0-5.57,4.006c-.627.721-2.1,3.358-.626,5.739s5.44,4.364,8.976,5.236,36.575,7.311,36.575,7.311a4.5,4.5,0,0,0,1.864-.185c1.013-.319,11.676-4.425,11.676-4.425a1.03,1.03,0,0,0,.587-.883,1,1,0,0,0,.81-.8,9.318,9.318,0,0,0,0-1.9s.207-1.824-4.1-3.092-42.094-11.4-42.094-11.4" transform="translate(-8.723 -11.395)" fill="#fff" fill-rule="evenodd"/>
    <path id="Trazado_1403665" data-name="Trazado 1403665" d="M74.151,107.059a18.964,18.964,0,0,0,7.732,3.782c3.535.872,36.574,7.31,36.574,7.31a4.484,4.484,0,0,0,1.864-.185c1.013-.319,11.676-4.425,11.676-4.425a1.03,1.03,0,0,0,.587-.883,1,1,0,0,0,.81-.8,5.152,5.152,0,0,0,.054-.777,1.867,1.867,0,0,0-1.515.246,33.459,33.459,0,0,1-3.612,2.061,3.889,3.889,0,0,1-2.142.09s-46.013-8.824-47.5-9.3-1.237-1.392-1.237-1.392.124-.893.208-1.383-.221-.382-.221-.382c-3.743,1.044-4.7,3.553-3.273,6.028" transform="translate(-8.894 -12.221)" fill="#a6e3ff" fill-rule="evenodd"/>
    <path id="Trazado_1403666" data-name="Trazado 1403666" d="M131.653,103.988a4.05,4.05,0,0,0,2.775-1.17c1.275-1.239,12.864-14.824,12.864-14.824a.446.446,0,0,1,.475-.036c.28.131,2.137.912,2.137.912s.156.065.025.3-10.524,17.565-10.524,17.565a.859.859,0,0,0,.031.752,10.264,10.264,0,0,0-3.931-1.723,13.108,13.108,0,0,1-3.131-.876,3.309,3.309,0,0,1-.722-.9" transform="translate(-15.927 -10.635)" fill="#a6e3ff" fill-rule="evenodd"/>
    <path id="Trazado_1403667" data-name="Trazado 1403667" d="M131.653,103.988a4.05,4.05,0,0,0,2.775-1.17c1.275-1.239,12.864-14.824,12.864-14.824a.446.446,0,0,1,.475-.036l-12.99,15.284a4.549,4.549,0,0,1-2.684,1.385,5.25,5.25,0,0,1-.44-.639" transform="translate(-15.927 -10.635)" fill="#fff" fill-rule="evenodd"/>
    <path id="Trazado_1403668" data-name="Trazado 1403668" d="M78.893,96.3a7.881,7.881,0,0,0,1.96,1.454c1.14.578,5.969,2.323,5.969,2.323s-.44,1.9-.438,1.811-4.494-1.23-6.653-2.212-2.607-2.12-2.607-2.12Z" transform="translate(-9.33 -11.65)" fill="#a6e3ff" fill-rule="evenodd"/>
    <path id="Trazado_1403669" data-name="Trazado 1403669" d="M114.292,114.891a1.678,1.678,0,0,0-.31-.823c-.253-.266-7.9-2.59-7.9-2.59a2.423,2.423,0,0,0-2.032.323c-.929.686-1.28,3.063.127,3.489s6.745,1.6,6.745,1.6Z" transform="translate(-12.489 -13.475)" fill="#fff" fill-rule="evenodd"/>
    <path id="Trazado_1403670" data-name="Trazado 1403670" d="M140.61,113.568l16.79,6.806-.911.265-18.166-6.245a.747.747,0,0,1,.263-.475,15.8,15.8,0,0,1,2.024-.352" transform="translate(-16.734 -13.739)" fill="#fff" fill-rule="evenodd"/>
    <path id="Trazado_1403671" data-name="Trazado 1403671" d="M156.49,120.688l-18.166-6.245a.748.748,0,0,1,.263-.476l17.9,6.463Z" transform="translate(-16.734 -13.788)" fill="#a6e3ff" fill-rule="evenodd"/>
    <path id="Trazado_1403672" data-name="Trazado 1403672" d="M158.982,121.007l1.188-2.27.289.008L159.9,121l-.91.265Z" transform="translate(-19.233 -14.365)" fill="#fff" fill-rule="evenodd"/>
    <path id="Trazado_1403673" data-name="Trazado 1403673" d="M155.857,131.829s-39.265-16.007-39.851-16.253-1.776-.639-1.776-.639l-4.465-1.36a.768.768,0,0,0-.638.127c-.237.225-.964.959-.964.959s-.226.312-.1.547a2.736,2.736,0,0,0,.943,1.022c.429.214,44.862,16.164,44.862,16.164Z" transform="translate(-13.069 -13.738)" fill="#fff" fill-rule="evenodd"/>
    <path id="Trazado_1403674" data-name="Trazado 1403674" d="M108.166,114.816c-.207.285-.142,1.784.156,1.931.427.214,45.547,15.8,45.547,15.8l.034-.425s-44.464-16.481-45.18-16.715-.557-.593-.557-.593" transform="translate(-13.071 -13.89)" fill="#a6e3ff" fill-rule="evenodd"/>
    <path id="Trazado_1403675" data-name="Trazado 1403675" d="M160.21,134.131l1.355-2.463a.433.433,0,0,1,.323-.208l.576-.058s.168-.021.148.178-.446,2.408-.446,2.408l-1.991.567Z" transform="translate(-19.378 -15.897)" fill="#fff" fill-rule="evenodd"/>
    <path id="Trazado_1403676" data-name="Trazado 1403676" d="M250.734,40.426,247.4,48.1a.86.86,0,0,0,.1.876.85.85,0,0,0,.809.343l8.275-1.057a24.834,24.834,0,1,0-5.854-7.835" transform="translate(-29.921 -0.597)" fill="#9c9c72" fill-rule="evenodd"/>
    <path id="Trazado_1403677" data-name="Trazado 1403677" d="M249.96,37.294l-3.02,7.8a.874.874,0,0,0,.956,1.181l8.228-1.386a24.835,24.835,0,1,0-6.163-7.6" transform="translate(-29.867 -0.11)" fill="#fff" fill-rule="evenodd"/>
    <path id="Trazado_1403678" data-name="Trazado 1403678" d="M271.832,51.241a25.53,25.53,0,0,1-16.038-5.631l-7.877,1.328A1.657,1.657,0,0,1,246.1,44.7l2.893-7.472a25.669,25.669,0,0,1,6.715-31.49.783.783,0,0,1,.985,1.217,24.1,24.1,0,0,0-6.15,29.862.785.785,0,0,1,.038.647l-3.022,7.8.227.9-.13-.773,8.227-1.386a.807.807,0,0,1,.63.171A24.054,24.054,0,1,0,263.154,3.2a.783.783,0,1,1-.564-1.461,25.617,25.617,0,1,1,9.242,49.5M258.591,5.415a.783.783,0,0,1-.419-1.446c.3-.185.593-.366.895-.538a.783.783,0,0,1,.78,1.357c-.282.162-.563.331-.839.505a.769.769,0,0,1-.416.121" transform="translate(-29.759 0)" fill="#c8c893"/>
    <path id="Trazado_1403679" data-name="Trazado 1403679" d="M285.949,23.566a2.473,2.473,0,1,1,2.474-2.474,2.477,2.477,0,0,1-2.474,2.474m0-3.851a1.377,1.377,0,1,0,1.378,1.377,1.379,1.379,0,0,0-1.378-1.377" transform="translate(-34.294 -2.253)" fill="#f0b068"/>
    <path id="Trazado_1403680" data-name="Trazado 1403680" d="M258.374,32.4a.548.548,0,0,1,0-1.1c2.747,0,4.829-.8,6.187-2.365,2.4-2.769,1.8-7.089,1.8-7.133a.541.541,0,0,1,.127-.437.549.549,0,0,1,.413-.19c1.352,0,1.887-2.366,1.893-2.39a.549.549,0,0,1,.537-.435,3.3,3.3,0,0,0,2.821-1.144c1.286-1.738.335-4.918.324-4.951a.548.548,0,0,1,1.047-.322c.047.151,1.124,3.737-.487,5.92a4.147,4.147,0,0,1-3.283,1.58c-.238.78-.887,2.386-2.254,2.759.1,1.353.106,4.9-2.1,7.454-1.577,1.824-3.94,2.75-7.022,2.75" transform="translate(-31.191 -1.398)" fill="#366400"/>
    <path id="Trazado_1403681" data-name="Trazado 1403681" d="M264.878,42.733a.529.529,0,0,1-.164-.025.549.549,0,0,1-.36-.686c.019-.062,1.961-6.086,7.977-6.381a2.647,2.647,0,0,1,.769-1.308,2.365,2.365,0,0,1,1.349-.576c0-1.827.731-4.726,3.637-5.59a.548.548,0,1,1,.313,1.05c-3.2.95-2.837,4.981-2.833,5.022a.553.553,0,0,1-.153.437.624.624,0,0,1-.431.164,1.528,1.528,0,0,0-1.15.307,1.709,1.709,0,0,0-.5,1.06.551.551,0,0,1-.546.519c-5.561,0-7.317,5.393-7.389,5.621a.551.551,0,0,1-.524.385" transform="translate(-31.978 -3.405)" fill="#366400"/>
    <path id="Trazado_1403682" data-name="Trazado 1403682" d="M288.376,41.272h-.006a.551.551,0,0,1-.542-.556,5.319,5.319,0,0,0-1.153-3.346,2.766,2.766,0,0,0-2.08-.8.548.548,0,0,1,0-1.1,3.859,3.859,0,0,1,2.864,1.128,6.387,6.387,0,0,1,1.466,4.131.549.549,0,0,1-.549.537" transform="translate(-34.364 -4.292)" fill="#366400"/>
    <path id="Trazado_1403683" data-name="Trazado 1403683" d="M273.277,44a16.364,16.364,0,1,1,8.941-30.069.783.783,0,1,1-.857,1.31,14.8,14.8,0,1,0,6.713,12.4.783.783,0,1,1,1.566,0A16.382,16.382,0,0,1,273.277,44" transform="translate(-31.081 -1.364)" fill="#366400"/>
    <path id="Trazado_1403684" data-name="Trazado 1403684" d="M285.4,29.758a1.312,1.312,0,0,1-1-.463l-3.9-4.523a6.475,6.475,0,1,1,9.808,0L286.394,29.3a1.305,1.305,0,0,1-1,.459m0-14.124a4.909,4.909,0,0,0-3.718,8.113l3.718,4.31,3.72-4.31a4.909,4.909,0,0,0-3.72-8.113" transform="translate(-33.744 -1.702)" fill="#f0b068"/>
    <path id="Trazado_1403685" data-name="Trazado 1403685" d="M324.8,278.675c.055.018.11.036.163.057a2.206,2.206,0,0,1,1.558,2.1v9.425a2.2,2.2,0,0,1-2.2,2.2H311.573l-2.575,3-.045.044a.412.412,0,0,1-.486.038.39.39,0,0,1-.166-.059.385.385,0,0,1-.165-.058.41.41,0,0,1-.165-.058.447.447,0,0,1-.166-.058.416.416,0,0,1-.164-.059.426.426,0,0,1-.167-.058,51.791,51.791,0,0,0-.331-.118,57.154,57.154,0,0,1-.331-.117,37.287,37.287,0,0,1-.331-.117,26.427,26.427,0,0,0-.331-.117.39.39,0,0,1-.165-.059.412.412,0,0,1-.166-.057.436.436,0,0,1-.166-.058.4.4,0,0,1-.165-.06.427.427,0,0,1-.166-.058.445.445,0,0,1-.165-.059.4.4,0,0,1-.26-.141l-2.14-2.495-.057-.022c-.056-.018-.113-.038-.166-.059a1.622,1.622,0,0,1-.163-.058c-.056-.017-.111-.036-.165-.057s-.114-.038-.169-.062a1.59,1.59,0,0,1-.162-.055,1.711,1.711,0,0,1-.168-.06,1.619,1.619,0,0,1-.166-.059c-.055-.016-.111-.036-.165-.057s-.112-.038-.167-.06-.11-.037-.163-.057a2.207,2.207,0,0,1-1.558-2.1v-9.423a2.2,2.2,0,0,1,2.2-2.2h19.161a2.174,2.174,0,0,1,.809.154c.056.018.112.036.166.06s.112.037.166.058.113.037.167.06.108.036.162.056.113.037.168.058.112.038.167.061.11.036.163.058.112.036.167.058.112.037.165.058.113.038.166.059a1.746,1.746,0,0,1,.166.059c.057.017.11.037.164.057s.112.038.166.06.113.036.168.058.11.036.164.058.11.036.165.059.111.036.166.057.113.038.167.06.111.037.164.058" transform="translate(-36.231 -33.561)" fill="#e2e2dc" fill-rule="evenodd"/>
    <path id="Trazado_1403686" data-name="Trazado 1403686" d="M321.532,276.348c.055.018.11.036.164.057a2.207,2.207,0,0,1,1.556,2.1v9.424a2.2,2.2,0,0,1-2.2,2.2H308.3l-2.575,3-.045.046a.795.795,0,0,1-.652-.022,27.77,27.77,0,0,1-.33-.117.42.42,0,0,1-.167-.057.407.407,0,0,1-.164-.059.439.439,0,0,1-.169-.058.4.4,0,0,1-.163-.059.4.4,0,0,1-.167-.059.442.442,0,0,1-.166-.058.419.419,0,0,1-.165-.059.413.413,0,0,1-.166-.058.4.4,0,0,1-.165-.059.379.379,0,0,1-.164-.059.411.411,0,0,1-.167-.057.416.416,0,0,1-.164-.059.431.431,0,0,1-.167-.058,114.824,114.824,0,0,1-.5-.176.424.424,0,0,1-.166-.059.4.4,0,0,1-.26-.142l-2.14-2.495-.056-.021c-.057-.018-.112-.037-.167-.059s-.108-.036-.163-.057-.11-.037-.165-.058a1.618,1.618,0,0,1-.169-.061c-.055-.016-.109-.035-.163-.055s-.112-.037-.166-.06-.113-.037-.167-.058-.112-.037-.164-.058-.113-.038-.168-.06-.111-.037-.162-.056a2.207,2.207,0,0,1-1.558-2.1v-9.423a2.2,2.2,0,0,1,2.2-2.2h19.16a2.184,2.184,0,0,1,.809.154c.056.018.112.038.166.06s.113.037.167.058a1.738,1.738,0,0,1,.168.06,1.54,1.54,0,0,1,.162.057c.055.017.112.036.166.058s.113.038.169.059.11.037.162.058.111.037.166.059.113.037.166.058.113.038.167.059.112.037.166.059.11.037.163.057.112.038.165.06.113.037.169.058.11.037.163.058.112.036.165.058.113.037.168.058.111.038.167.061.11.036.164.057" transform="translate(-35.836 -33.279)" fill="#ea6064" fill-rule="evenodd"/>
    <path id="Trazado_1403687" data-name="Trazado 1403687" d="M298.414,275.082h19.16a2.2,2.2,0,0,1,2.2,2.2V286.7a2.2,2.2,0,0,1-2.2,2.2H304.823l-2.574,3-.046.046a.413.413,0,0,1-.582-.046l-2.576-3h-.632a2.2,2.2,0,0,1-2.2-2.2V277.28a2.2,2.2,0,0,1,2.2-2.2" transform="translate(-35.836 -33.279)" fill="#f68b85" fill-rule="evenodd"/>
    <path id="Trazado_1403688" data-name="Trazado 1403688" d="M302.727,278.68a3.415,3.415,0,0,1,2.7,5.5l.22.821a.286.286,0,0,1-.2.352.27.27,0,0,1-.149,0l-.947-.253a3.3,3.3,0,0,1-.726.291,3.415,3.415,0,1,1-.9-6.71m2.007,1.408a2.838,2.838,0,1,0-.575,4.459.285.285,0,0,1,.228-.034l.579.155-.129-.48a.294.294,0,0,1,.059-.26,2.842,2.842,0,0,0-.162-3.84" transform="translate(-36.21 -33.714)" fill="#fff" fill-rule="evenodd"/>
    <path id="Trazado_1403689" data-name="Trazado 1403689" d="M313.552,281.987a3.44,3.44,0,0,1-.646,2.285,2.425,2.425,0,0,1-1.952.756,3.705,3.705,0,0,1-.7-.05v-.883a2.532,2.532,0,0,0,.623.076,2.227,2.227,0,0,0,.906-.16,1.132,1.132,0,0,0,.541-.508,2.2,2.2,0,0,0,.216-.949H312.5a1.241,1.241,0,0,1-.474.469,1.528,1.528,0,0,1-.675.133,1.362,1.362,0,0,1-1.066-.433,1.741,1.741,0,0,1-.391-1.206,1.8,1.8,0,0,1,.475-1.315,1.717,1.717,0,0,1,1.289-.483,1.859,1.859,0,0,1,1,.269,1.722,1.722,0,0,1,.659.781,2.947,2.947,0,0,1,.232,1.22m-1.876-1.393a.644.644,0,0,0-.531.234,1.03,1.03,0,0,0-.192.672.936.936,0,0,0,.173.6.632.632,0,0,0,.529.219.81.81,0,0,0,.57-.218.656.656,0,0,0,.238-.5,1.148,1.148,0,0,0-.221-.711.682.682,0,0,0-.567-.29m6.017,1.393a3.444,3.444,0,0,1-.645,2.285,2.423,2.423,0,0,1-1.951.756,3.706,3.706,0,0,1-.7-.05v-.883a2.532,2.532,0,0,0,.623.076,2.215,2.215,0,0,0,.9-.16,1.137,1.137,0,0,0,.541-.508,2.2,2.2,0,0,0,.215-.949h-.04a1.238,1.238,0,0,1-.476.469,1.518,1.518,0,0,1-.674.133,1.358,1.358,0,0,1-1.065-.433,1.729,1.729,0,0,1-.391-1.206,1.8,1.8,0,0,1,.474-1.315,1.715,1.715,0,0,1,1.288-.483,1.853,1.853,0,0,1,1,.269,1.71,1.71,0,0,1,.661.781,2.934,2.934,0,0,1,.231,1.22m-1.874-1.393a.644.644,0,0,0-.532.234,1.025,1.025,0,0,0-.192.672.936.936,0,0,0,.173.6.633.633,0,0,0,.529.219.816.816,0,0,0,.571-.218.664.664,0,0,0,.237-.5,1.133,1.133,0,0,0-.222-.711.678.678,0,0,0-.564-.29" transform="translate(-37.49 -33.84)" fill="#fff" fill-rule="evenodd"/>
    <path id="Trazado_1403690" data-name="Trazado 1403690" d="M50.07,47.991c.054.021.111.041.166.058a2.163,2.163,0,0,0,.81.156H61.371l1.523,1.777.046.045a.406.406,0,0,0,.217.095.385.385,0,0,0,.164.058,39.966,39.966,0,0,0,.33.118,27.744,27.744,0,0,1,.333.117.41.41,0,0,0,.165.058.427.427,0,0,0,.164.06.455.455,0,0,0,.168.058.41.41,0,0,0,.164.058.4.4,0,0,0,.166.059,38.889,38.889,0,0,1,.331.116.394.394,0,0,0,.165.059.415.415,0,0,0,.164.058A.433.433,0,0,0,65.64,51a590.288,590.288,0,0,0,.331.117.407.407,0,0,0,.164.059.445.445,0,0,0,.165.059.751.751,0,0,0,.7-.025l2.576-3h.632a2.2,2.2,0,0,0,2.2-2.2V36.582a2.208,2.208,0,0,0-1.557-2.1c-.054-.021-.108-.04-.164-.058s-.109-.04-.164-.057-.111-.041-.167-.058a1.557,1.557,0,0,0-.166-.06c-.054-.022-.108-.04-.165-.058s-.109-.04-.163-.057-.11-.042-.168-.06-.11-.042-.165-.059-.108-.04-.163-.056-.11-.042-.167-.06-.109-.041-.166-.059-.111-.04-.166-.058-.109-.041-.165-.058-.108-.041-.163-.059-.11-.041-.168-.058-.11-.042-.166-.06-.107-.04-.163-.057-.111-.041-.167-.059-.109-.041-.166-.059-.11-.04-.166-.059a2.193,2.193,0,0,0-.81-.155H47.568a2.205,2.205,0,0,0-2.2,2.2v9.423a2.205,2.205,0,0,0,1.558,2.1,1.661,1.661,0,0,0,.161.057c.056.021.112.042.168.059a1.753,1.753,0,0,0,.165.059c.055.022.11.041.167.058s.111.042.166.059.106.04.162.058.113.042.17.059.11.041.166.059.107.04.162.057.111.041.168.058a1.736,1.736,0,0,0,.164.059c.055.022.11.043.168.06s.11.04.165.059.107.04.163.057.113.041.168.059.109.04.164.058.11.041.166.058.11.042.165.06.109.04.164.058" transform="translate(-5.489 -4.011)" fill="#e2e2dc" fill-rule="evenodd"/>
    <path id="Trazado_1403691" data-name="Trazado 1403691" d="M53.3,45.881c.055.02.11.041.164.058a2.188,2.188,0,0,0,.81.156H64.6l1.524,1.777.045.044a2.642,2.642,0,0,0,.381.154,34.835,34.835,0,0,1,.331.118.4.4,0,0,0,.167.058.4.4,0,0,0,.164.059.419.419,0,0,0,.165.058.429.429,0,0,0,.166.059.418.418,0,0,0,.166.058.4.4,0,0,0,.165.058.41.41,0,0,0,.166.059.428.428,0,0,0,.164.058,23.476,23.476,0,0,1,.5.177,104.1,104.1,0,0,0,.331.116.409.409,0,0,0,.165.058.4.4,0,0,0,.164.058.427.427,0,0,0,.167.061.431.431,0,0,0,.165.057.415.415,0,0,0,.532-.084l2.576-3h.631a2.205,2.205,0,0,0,2.2-2.2V34.473a2.208,2.208,0,0,0-1.557-2.1c-.054-.022-.108-.04-.163-.057s-.109-.04-.164-.058-.11-.041-.166-.06-.111-.041-.166-.059-.11-.04-.167-.058-.107-.04-.162-.057-.112-.041-.169-.06-.111-.041-.166-.058-.108-.04-.163-.058-.11-.042-.165-.059-.111-.041-.167-.059-.11-.04-.165-.058-.111-.041-.167-.058-.108-.04-.163-.059-.111-.041-.169-.058-.109-.041-.165-.059-.107-.04-.163-.057a1.638,1.638,0,0,0-.167-.059c-.054-.022-.11-.041-.165-.059s-.111-.042-.167-.059a2.177,2.177,0,0,0-.81-.156H50.8a2.2,2.2,0,0,0-2.2,2.2v9.425a2.206,2.206,0,0,0,1.557,2.1c.053.02.108.04.163.057s.11.041.168.059.109.041.164.059.11.04.167.058.11.04.166.058.107.04.163.058.113.043.169.06.109.041.166.059.106.04.162.056.111.042.168.059.109.041.164.059.112.042.168.059.11.041.166.059.107.04.164.057.111.042.168.06.107.04.164.058.109.041.164.058.11.042.167.06.108.039.164.057" transform="translate(-5.879 -3.756)" fill="#ea6064" fill-rule="evenodd"/>
    <path id="Trazado_1403692" data-name="Trazado 1403692" d="M69.955,31.047H50.8a2.2,2.2,0,0,0-2.2,2.2v9.425a2.2,2.2,0,0,0,2.2,2.2H63.547l2.576,3.005.043.044a.416.416,0,0,0,.583-.044l2.575-3.005h.632a2.2,2.2,0,0,0,2.2-2.2V33.245a2.2,2.2,0,0,0-2.2-2.2" transform="translate(-5.879 -3.756)" fill="#f68b85" fill-rule="evenodd"/>
    <path id="Trazado_1403693" data-name="Trazado 1403693" d="M52.254,36.132h0a1.788,1.788,0,0,1,2.522,0l.488.487.488-.487a1.783,1.783,0,0,1,2.522,2.522l-.488.488-2.522,2.521-2.521-2.521-.489-.488a1.79,1.79,0,0,1,0-2.522" transform="translate(-6.259 -4.308)" fill="#fff" fill-rule="evenodd"/>
    <path id="Trazado_1403694" data-name="Trazado 1403694" d="M66.144,38.3a3.455,3.455,0,0,1-.645,2.286,2.429,2.429,0,0,1-1.953.754,3.711,3.711,0,0,1-.7-.05v-.882a2.55,2.55,0,0,0,.624.075,2.174,2.174,0,0,0,.9-.161,1.124,1.124,0,0,0,.541-.505,2.2,2.2,0,0,0,.217-.951h-.041a1.235,1.235,0,0,1-.476.468,1.517,1.517,0,0,1-.674.134,1.362,1.362,0,0,1-1.065-.433,1.738,1.738,0,0,1-.391-1.206,1.8,1.8,0,0,1,.474-1.316,1.719,1.719,0,0,1,1.29-.484,1.857,1.857,0,0,1,1,.27,1.741,1.741,0,0,1,.66.781,2.972,2.972,0,0,1,.231,1.221M64.27,36.912a.645.645,0,0,0-.532.233,1.03,1.03,0,0,0-.193.672.934.934,0,0,0,.175.6.632.632,0,0,0,.53.219.812.812,0,0,0,.57-.218.664.664,0,0,0,.237-.5,1.129,1.129,0,0,0-.222-.711.678.678,0,0,0-.564-.29M70.286,38.3a3.45,3.45,0,0,1-.646,2.286,2.425,2.425,0,0,1-1.952.754,3.718,3.718,0,0,1-.7-.05v-.882a2.544,2.544,0,0,0,.624.075,2.177,2.177,0,0,0,.9-.161,1.12,1.12,0,0,0,.541-.505,2.21,2.21,0,0,0,.217-.951h-.041a1.219,1.219,0,0,1-.476.468,1.516,1.516,0,0,1-.673.134,1.364,1.364,0,0,1-1.066-.433,1.738,1.738,0,0,1-.391-1.206,1.8,1.8,0,0,1,.475-1.316,1.717,1.717,0,0,1,1.287-.484,1.858,1.858,0,0,1,1.006.27,1.736,1.736,0,0,1,.66.781,2.958,2.958,0,0,1,.231,1.221m-1.873-1.392a.644.644,0,0,0-.533.233,1.03,1.03,0,0,0-.193.672.934.934,0,0,0,.174.6.631.631,0,0,0,.528.219.819.819,0,0,0,.573-.218.668.668,0,0,0,.236-.5,1.134,1.134,0,0,0-.222-.711.677.677,0,0,0-.563-.29" transform="translate(-7.559 -4.359)" fill="#fff" fill-rule="evenodd"/>
    <path id="Trazado_1403695" data-name="Trazado 1403695" d="M299.639,107.673H345.21a2.5,2.5,0,0,1,2.488,2.487v43.064a2.5,2.5,0,0,1-2.488,2.488H299.639a2.494,2.494,0,0,1-2.487-2.488V110.16a2.493,2.493,0,0,1,2.487-2.487" transform="translate(-35.949 -13.026)" fill="#fff" fill-rule="evenodd"/>
    <path id="Trazado_1403696" data-name="Trazado 1403696" d="M301.928,116.553h41.622a2.188,2.188,0,0,1,2.182,2.182v33.654a2.188,2.188,0,0,1-2.182,2.181H301.928a2.188,2.188,0,0,1-2.182-2.181V118.735a2.188,2.188,0,0,1,2.182-2.182" transform="translate(-36.263 -14.1)" fill="#c8c893" fill-rule="evenodd"/>
    <path id="Trazado_1403697" data-name="Trazado 1403697" d="M305.24,110.589a1.088,1.088,0,1,1-1.086,1.087,1.088,1.088,0,0,1,1.086-1.087" transform="translate(-36.796 -13.379)" fill="#60462a" fill-rule="evenodd"/>
    <path id="Trazado_1403698" data-name="Trazado 1403698" d="M314.135,110.589a1.088,1.088,0,1,1-1.086,1.087,1.087,1.087,0,0,1,1.086-1.087" transform="translate(-37.872 -13.379)" fill="#a87b49" fill-rule="evenodd"/>
    <path id="Trazado_1403699" data-name="Trazado 1403699" d="M323.032,110.589a1.088,1.088,0,1,1-1.086,1.087,1.086,1.086,0,0,1,1.086-1.087" transform="translate(-38.949 -13.379)" fill="#fde3c8" fill-rule="evenodd"/>
    <path id="Trazado_1403700" data-name="Trazado 1403700" d="M299.639,175.072H345.21a2.5,2.5,0,0,1,2.488,2.487v43.064a2.5,2.5,0,0,1-2.488,2.487H299.639a2.494,2.494,0,0,1-2.487-2.487V177.559a2.493,2.493,0,0,1,2.487-2.487" transform="translate(-35.949 -21.18)" fill="#fff" fill-rule="evenodd"/>
    <path id="Trazado_1403701" data-name="Trazado 1403701" d="M301.928,183.952h41.622a2.188,2.188,0,0,1,2.182,2.181v33.654a2.19,2.19,0,0,1-2.182,2.184H301.928a2.189,2.189,0,0,1-2.182-2.184V186.133a2.188,2.188,0,0,1,2.182-2.181" transform="translate(-36.263 -22.254)" fill="#c8c893" fill-rule="evenodd"/>
    <path id="Trazado_1403702" data-name="Trazado 1403702" d="M305.24,177.989a1.087,1.087,0,1,1-1.086,1.086,1.088,1.088,0,0,1,1.086-1.086" transform="translate(-36.796 -21.533)" fill="#60462a" fill-rule="evenodd"/>
    <path id="Trazado_1403703" data-name="Trazado 1403703" d="M314.135,177.989a1.087,1.087,0,1,1-1.086,1.086,1.087,1.087,0,0,1,1.086-1.086" transform="translate(-37.872 -21.533)" fill="#a87b49" fill-rule="evenodd"/>
    <path id="Trazado_1403704" data-name="Trazado 1403704" d="M323.032,177.989a1.087,1.087,0,1,1-1.086,1.086,1.086,1.086,0,0,1,1.086-1.086" transform="translate(-38.949 -21.533)" fill="#fde3c8" fill-rule="evenodd"/>
    <path id="Trazado_1403705" data-name="Trazado 1403705" d="M344.048,155.824c-11.715-9.494-33.636-27.24-34.776-28a2.7,2.7,0,0,0-3.034.087s-2.735,2.035-6.492,4.823V153.7a2.187,2.187,0,0,0,2.181,2.181h41.623a2.171,2.171,0,0,0,.5-.056" transform="translate(-36.263 -15.411)" fill="#9c9c72" fill-rule="evenodd"/>
    <path id="Trazado_1403706" data-name="Trazado 1403706" d="M309.23,155.946c.607-6.092,1.36-13.679,1.385-14.065a.988.988,0,0,0-.649-.909,33.136,33.136,0,0,1-3.552-1.084c-.824-.389-.607-1.6-.607-1.6s1.559-8.144,1.559-9.4a.833.833,0,0,0-1.128-.909s-2.736,2.034-6.493,4.823v20.966a2.187,2.187,0,0,0,2.181,2.181Z" transform="translate(-36.263 -15.477)" fill="#868662" fill-rule="evenodd"/>
    <path id="Trazado_1403707" data-name="Trazado 1403707" d="M346.466,146.819c-6.165-4.97-10.946-8.8-11.463-9.145a2.693,2.693,0,0,0-3.033.087s-20.031,14.9-26.148,19.311h38.462a2.188,2.188,0,0,0,2.182-2.181Z" transform="translate(-36.998 -16.602)" fill="#9c9c72" fill-rule="evenodd"/>
    <path id="Trazado_1403708" data-name="Trazado 1403708" d="M335.82,157.138c.294-2.964.512-5.2.526-5.406a.986.986,0,0,0-.65-.909,33.613,33.613,0,0,1-3.551-1.084c-.824-.389-.607-1.6-.607-1.6s1.56-8.144,1.56-9.4a.834.834,0,0,0-1.127-.91s-20.031,14.9-26.148,19.311Z" transform="translate(-36.998 -16.669)" fill="#868662" fill-rule="evenodd"/>
    <path id="Trazado_1403709" data-name="Trazado 1403709" d="M334.035,202.169a9.429,9.429,0,1,0-16.571,6.158l6.472,7.5a.874.874,0,0,0,1.339,0l6.472-7.5a9.4,9.4,0,0,0,2.288-6.158m-6.24,0a3.19,3.19,0,1,1-3.19-3.191,3.19,3.19,0,0,1,3.19,3.191" transform="translate(-38.13 -23.317)" fill="#fff" fill-rule="evenodd"/>
    <path id="Trazado_1403710" data-name="Trazado 1403710" d="M155.69,207.306a5.649,5.649,0,0,0-1.981.355,1.528,1.528,0,0,0-1.718-.384,2.542,2.542,0,0,0-4.08-1.823,1.579,1.579,0,0,0-.333-.334,3,3,0,0,0-2.615-4.463h-.01a3.27,3.27,0,0,0-1.527-.375,3.324,3.324,0,0,0-.969.144,1.5,1.5,0,0,0-.665-.691,5.5,5.5,0,0,0,.122-1.155,5.446,5.446,0,0,0-6.825-5.263,5.9,5.9,0,0,0-5.807,5.895c0,.045,0,.091,0,.137a3.613,3.613,0,0,0-2.579.307,4.723,4.723,0,0,0-8.3,4.257c-.047,0-.1,0-.142,0a2.326,2.326,0,0,0-2.327,2.326,2.283,2.283,0,0,0,.042.441h-.048a1.342,1.342,0,0,0-1.341,1.3,3.3,3.3,0,0,0-.622-.06,3.168,3.168,0,0,0-2.188.826c-1.51,1.429.139,1.8,1.728,1.8h43.928c1.658,0,4.024.272,2.38-1.461a5.667,5.667,0,0,0-4.125-1.773m-14.329-7.716a1.6,1.6,0,0,0-.252-.021h-.044c.007-.119.012-.238.012-.358a5.9,5.9,0,0,0-4-5.584,5,5,0,0,1,4.284,5.962m5.816,5.322a1.479,1.479,0,0,0-.731-.06,3.282,3.282,0,0,0-.713-3.625,2.548,2.548,0,0,1,1.777,2.427,2.527,2.527,0,0,1-.332,1.258" transform="translate(-13.451 -23.366)" fill="#fff" fill-rule="evenodd"/>
    <path id="Trazado_1403711" data-name="Trazado 1403711" d="M41.332,137.845a5.649,5.649,0,0,1,1.981.354,1.521,1.521,0,0,1,1.13-.5,1.539,1.539,0,0,1,.588.117,2.542,2.542,0,0,1,4.08-1.823,1.544,1.544,0,0,1,.333-.335,3,3,0,0,1,2.615-4.463h.01a3.285,3.285,0,0,1,2.495-.23,1.5,1.5,0,0,1,.666-.692,5.443,5.443,0,0,1,6.7-6.418,5.9,5.9,0,0,1,5.808,5.895c0,.046,0,.091,0,.137a3.625,3.625,0,0,1,2.578.307,4.723,4.723,0,0,1,8.3,4.258c.047,0,.1,0,.144,0a2.326,2.326,0,0,1,2.326,2.327,2.29,2.29,0,0,1-.042.441h.049a1.341,1.341,0,0,1,1.341,1.3,3.363,3.363,0,0,1,.621-.059,3.165,3.165,0,0,1,2.189.826c1.509,1.428-.139,1.8-1.729,1.8H39.586c-1.658,0-4.025.272-2.38-1.461a5.671,5.671,0,0,1,4.125-1.771m14.329-7.718a1.6,1.6,0,0,1,.253-.02h.043c-.008-.117-.011-.237-.011-.357a5.9,5.9,0,0,1,4-5.584,4.995,4.995,0,0,0-4.284,5.962m-5.816,5.322a1.5,1.5,0,0,1,.485-.079,1.432,1.432,0,0,1,.246.021,3.284,3.284,0,0,1,.713-3.626,2.541,2.541,0,0,0-1.776,2.426,2.528,2.528,0,0,0,.331,1.258" transform="translate(-4.434 -14.962)" fill="#fff" fill-rule="evenodd"/>
    <path id="Trazado_1403712" data-name="Trazado 1403712" d="M343.963,71.733a5.645,5.645,0,0,0-1.981.355,1.526,1.526,0,0,0-1.719-.383,2.541,2.541,0,0,0-4.078-1.824,1.547,1.547,0,0,0-.335-.334,3,3,0,0,0-2.615-4.464h-.008a3.3,3.3,0,0,0-2.5-.23,1.5,1.5,0,0,0-.665-.691,5.441,5.441,0,0,0-5.316-6.6,5.44,5.44,0,0,0-1.385.178,5.9,5.9,0,0,0-5.808,5.895c0,.045,0,.091,0,.137a3.628,3.628,0,0,0-.89-.111,3.576,3.576,0,0,0-1.688.418,4.724,4.724,0,0,0-8.3,4.256c-.047,0-.095,0-.144,0a2.326,2.326,0,0,0-2.325,2.326,2.217,2.217,0,0,0,.043.441h-.05a1.342,1.342,0,0,0-1.341,1.3,3.288,3.288,0,0,0-.621-.059,3.171,3.171,0,0,0-2.189.826c-1.509,1.428.139,1.8,1.728,1.8h43.93c1.656,0,4.023.272,2.379-1.461a5.673,5.673,0,0,0-4.125-1.772m-14.329-7.717a1.6,1.6,0,0,0-.252-.021h-.043c.007-.118.011-.237.011-.357a5.9,5.9,0,0,0-4-5.584,4.99,4.99,0,0,1,4.285,5.962m5.816,5.322a1.508,1.508,0,0,0-.487-.08,1.533,1.533,0,0,0-.246.021A3.282,3.282,0,0,0,334,65.655a2.547,2.547,0,0,1,1.446,3.684" transform="translate(-36.228 -6.964)" fill="#fff" fill-rule="evenodd"/>
    <path id="Trazado_1403713" data-name="Trazado 1403713" d="M66.147,174.073a6.057,6.057,0,1,0-6.057-6.057,6.07,6.07,0,0,0,6.057,6.057" transform="translate(-7.27 -19.594)" fill="#fbdec3" fill-rule="evenodd"/>
    <path id="Trazado_1403714" data-name="Trazado 1403714" d="M63.954,165.484h0a.785.785,0,0,1,.781.783v.514a.783.783,0,0,1-1.566,0v-.514a.785.785,0,0,1,.785-.783" transform="translate(-7.642 -20.02)" fill="#906a3e" fill-rule="evenodd"/>
    <path id="Trazado_1403715" data-name="Trazado 1403715" d="M69.793,165.484h0a.784.784,0,0,1,.783.783v.514a.783.783,0,1,1-1.566,0v-.514a.784.784,0,0,1,.782-.783" transform="translate(-8.349 -20.02)" fill="#906a3e" fill-rule="evenodd"/>
    <path id="Trazado_1403716" data-name="Trazado 1403716" d="M69.011,172.114a3.565,3.565,0,0,1-5.04,0l0,0a3.554,3.554,0,0,1-1.044-2.52.6.6,0,0,1,.6-.6h5.927a.6.6,0,0,1,.6.6,3.551,3.551,0,0,1-1.044,2.52Z" transform="translate(-7.612 -20.444)" fill="#906a3e" fill-rule="evenodd"/>
    <path id="Trazado_1403717" data-name="Trazado 1403717" d="M64.059,168.989H69.2v.82a.274.274,0,0,1-.274.273h-4.59a.275.275,0,0,1-.273-.273Z" transform="translate(-7.75 -20.444)" fill="#fff" fill-rule="evenodd"/>
    <path id="Trazado_1403718" data-name="Trazado 1403718" d="M69.15,172.389a3.565,3.565,0,0,1-5.04,0l0,0-.038-.039.038-.039,0,0a3.565,3.565,0,0,1,5.04,0l0,0,.038.039-.038.039Z" transform="translate(-7.751 -20.719)" fill="#ec797e" fill-rule="evenodd"/>
    <path id="Trazado_1403719" data-name="Trazado 1403719" d="M37.52,168.181h0a1.809,1.809,0,0,1,2.551,0l.236.236.236-.236a1.8,1.8,0,1,1,2.552,2.551l-2.787,2.787-2.787-2.787a1.809,1.809,0,0,1,0-2.551" transform="translate(-4.475 -20.283)" fill="#f68b85" fill-rule="evenodd"/>
    <path id="Trazado_1403720" data-name="Trazado 1403720" d="M40.7,104.907h0a1.808,1.808,0,0,1,2.551,0l.236.236.236-.236a1.8,1.8,0,1,1,2.551,2.55l-2.787,2.787L40.7,107.457a1.808,1.808,0,0,1,0-2.55" transform="translate(-4.86 -12.628)" fill="#f68b85" fill-rule="evenodd"/>
    <path id="Trazado_1403721" data-name="Trazado 1403721" d="M82.176,66.73h0a1.806,1.806,0,0,1,2.55,0l.236.236.235-.236a1.8,1.8,0,0,1,2.552,2.55l-2.786,2.787L82.176,69.28a1.8,1.8,0,0,1,0-2.55" transform="translate(-9.878 -8.009)" fill="#f68b85" fill-rule="evenodd"/>
    <path id="Trazado_1403722" data-name="Trazado 1403722" d="M340.34,43.635h0a1.807,1.807,0,0,1,2.551,0l.236.236.236-.236a1.8,1.8,0,0,1,2.551,2.549l-2.786,2.787-2.786-2.787a1.805,1.805,0,0,1,0-2.549" transform="translate(-41.11 -5.215)" fill="#f68b85" fill-rule="evenodd"/>
    <path id="Trazado_1403723" data-name="Trazado 1403723" d="M304.4,90.178h0a1.809,1.809,0,0,1,2.552,0l.236.236.236-.236a1.8,1.8,0,0,1,2.551,2.55l-2.786,2.786L304.4,92.728a1.808,1.808,0,0,1,0-2.55" transform="translate(-36.762 -10.846)" fill="#f68b85" fill-rule="evenodd"/>
    <path id="Trazado_1403724" data-name="Trazado 1403724" d="M345.643,249.129h0a1.81,1.81,0,0,1,2.551,0l.236.236.236-.236a1.8,1.8,0,0,1,2.552,2.551l-2.787,2.787-2.787-2.787a1.811,1.811,0,0,1,0-2.551" transform="translate(-41.752 -30.076)" fill="#f68b85" fill-rule="evenodd"/>
    <path id="Trazado_1403725" data-name="Trazado 1403725" d="M295.212,252.429h0a1.807,1.807,0,0,1,2.55,0l.236.236.237-.236a1.8,1.8,0,1,1,2.551,2.55L298,257.765l-2.786-2.786a1.808,1.808,0,0,1,0-2.55" transform="translate(-35.651 -30.475)" fill="#f68b85" fill-rule="evenodd"/>
    <path id="Trazado_1403726" data-name="Trazado 1403726" d="M343.64,307.926h0a1.807,1.807,0,0,1,2.55,0l.237.236.235-.236a1.8,1.8,0,0,1,2.55,2.55l-2.785,2.787-2.787-2.787a1.808,1.808,0,0,1,0-2.55" transform="translate(-41.509 -37.189)" fill="#f68b85" fill-rule="evenodd"/>
    <path id="Trazado_1403727" data-name="Trazado 1403727" d="M303.46,322.889h0a1.807,1.807,0,0,1,2.55,0l.237.236.236-.236a1.8,1.8,0,1,1,2.549,2.551l-2.785,2.786-2.787-2.786a1.809,1.809,0,0,1,0-2.551" transform="translate(-36.648 -38.999)" fill="#f68b85" fill-rule="evenodd"/>
    <path id="Trazado_1403728" data-name="Trazado 1403728" d="M142.628,274.264a6.668,6.668,0,1,0-11.718,4.355l4.577,5.3a.619.619,0,0,0,.946,0l4.576-5.3a6.649,6.649,0,0,0,1.619-4.355m-4.414,0a2.256,2.256,0,1,1-2.255-2.255,2.255,2.255,0,0,1,2.255,2.255" transform="translate(-15.642 -32.374)" fill="#9c9c72" fill-rule="evenodd"/>
    <path id="Trazado_1403729" data-name="Trazado 1403729" d="M143.192,310.029a1.332,1.332,0,1,0,1.332,1.332,1.332,1.332,0,0,0-1.332-1.332" transform="translate(-17.162 -37.507)" fill="#9c9c72" fill-rule="evenodd"/>
    <path id="Trazado_1403730" data-name="Trazado 1403730" d="M136.694,310.029a1.332,1.332,0,1,0,1.332,1.332,1.332,1.332,0,0,0-1.332-1.332" transform="translate(-16.376 -37.507)" fill="#9c9c72" fill-rule="evenodd"/>
    <path id="Trazado_1403731" data-name="Trazado 1403731" d="M130.2,310.029a1.332,1.332,0,1,0,1.331,1.332,1.331,1.331,0,0,0-1.331-1.332" transform="translate(-15.59 -37.507)" fill="#9c9c72" fill-rule="evenodd"/>
    <path id="Trazado_1403732" data-name="Trazado 1403732" d="M58.341,339.363a.783.783,0,0,1-.783-.784V212.741a.784.784,0,0,1,1.567,0V338.579a.784.784,0,0,1-.784.784" transform="translate(-6.963 -25.642)" fill="#9c9c72"/>
    <path id="Trazado_1403733" data-name="Trazado 1403733" d="M87.962,357.6a.784.784,0,0,1-.689-.408L57.654,303.078a.783.783,0,0,1,1.375-.752l29.618,54.114a.783.783,0,0,1-.685,1.159" transform="translate(-6.963 -36.526)" fill="#9c9c72"/>
    <path id="Trazado_1403734" data-name="Trazado 1403734" d="M62.219,356.682H53.226a.783.783,0,0,1,0-1.566h8.992a.783.783,0,1,1,0,1.566" transform="translate(-6.345 -42.961)" fill="#9c9c72"/>
    <path id="Trazado_1403735" data-name="Trazado 1403735" d="M61.169,353.878a.392.392,0,0,1-.314-.627L74.2,335.334a.392.392,0,0,1,.628.469L61.483,353.72a.39.39,0,0,1-.314.158" transform="translate(-7.353 -40.549)" fill="#9c9c72"/>
    <path id="Trazado_1403736" data-name="Trazado 1403736" d="M24.646,357.6a.783.783,0,0,1-.686-1.159l29.618-54.114a.783.783,0,0,1,1.374.752L25.335,357.192a.784.784,0,0,1-.688.408" transform="translate(-2.887 -36.526)" fill="#9c9c72"/>
    <path id="Trazado_1403737" data-name="Trazado 1403737" d="M53.786,353.878a.387.387,0,0,1-.313-.158L40.123,335.8a.392.392,0,0,1,.628-.469L54.1,353.252a.392.392,0,0,1-.314.627" transform="translate(-4.845 -40.549)" fill="#9c9c72"/>
    <path id="Trazado_1403738" data-name="Trazado 1403738" d="M60.714,303.993h-5.5a.783.783,0,0,1,0-1.566h5.5a.783.783,0,1,1,0,1.566" transform="translate(-6.585 -36.587)" fill="#9c9c72"/>
    <path id="Trazado_1403739" data-name="Trazado 1403739" d="M59.816,263.249H56.4a.783.783,0,1,1,0-1.566h3.418a.783.783,0,1,1,0,1.566" transform="translate(-6.728 -31.658)" fill="#9c9c72"/>
    <path id="Trazado_1403740" data-name="Trazado 1403740" d="M59.816,242.452H56.4a.783.783,0,1,1,0-1.566h3.418a.783.783,0,1,1,0,1.566" transform="translate(-6.728 -29.142)" fill="#9c9c72"/>
    <path id="Trazado_1403741" data-name="Trazado 1403741" d="M34.19,193.723h3.9a.387.387,0,0,1,.387.386V195a.387.387,0,0,1-.387.386h-3.9A.388.388,0,0,1,33.8,195v-.889a.388.388,0,0,1,.386-.386" transform="translate(-4.09 -23.436)" fill="#9c9c72" fill-rule="evenodd"/>
    <path id="Trazado_1403742" data-name="Trazado 1403742" d="M77.456,193.723h2.955a.386.386,0,0,1,.386.386V195a.386.386,0,0,1-.386.386H77.456A.386.386,0,0,1,77.07,195v-.889a.386.386,0,0,1,.386-.386" transform="translate(-9.324 -23.436)" fill="#9c9c72" fill-rule="evenodd"/>
    <path id="Trazado_1403743" data-name="Trazado 1403743" d="M42.648,193.723h3.9a.385.385,0,0,1,.384.386V195a.385.385,0,0,1-.384.386h-3.9a.386.386,0,0,1-.386-.386v-.889a.386.386,0,0,1,.386-.386" transform="translate(-5.113 -23.436)" fill="#9c9c72" fill-rule="evenodd"/>
    <path id="Trazado_1403744" data-name="Trazado 1403744" d="M32.376,194.971H76.033a2.7,2.7,0,0,1,2.7,2.694v22.782a2.7,2.7,0,0,1-2.7,2.7H32.376a2.7,2.7,0,0,1-2.7-2.7V197.665a2.7,2.7,0,0,1,2.7-2.694" transform="translate(-3.591 -23.587)" fill="#9c9c72" fill-rule="evenodd"/>
    <path id="Rectángulo_458543" data-name="Rectángulo 458543" d="M.482,0h30.75a.483.483,0,0,1,.483.483V23.147a.483.483,0,0,1-.483.483H.482A.482.482,0,0,1,0,23.148V.482A.482.482,0,0,1,.482,0Z" transform="translate(41.152 173.654)" fill="#fff"/>
    <path id="Trazado_1403745" data-name="Trazado 1403745" d="M37.539,207.357a4.916,4.916,0,1,1-4.915,4.916,4.916,4.916,0,0,1,4.915-4.916" transform="translate(-3.947 -25.086)" fill="#c8c893" fill-rule="evenodd"/>
    <path id="Trazado_1403746" data-name="Trazado 1403746" d="M37.918,210.484a2.167,2.167,0,1,1-2.168,2.168,2.168,2.168,0,0,1,2.168-2.168" transform="translate(-4.325 -25.464)" fill="#9c9c72" fill-rule="evenodd"/>
    <path id="Trazado_1403747" data-name="Trazado 1403747" d="M38.133,212.259a.607.607,0,1,1-.607.607.607.607,0,0,1,.607-.607" transform="translate(-4.54 -25.679)" fill="#c8c893" fill-rule="evenodd"/>
    <path id="Trazado_1403748" data-name="Trazado 1403748" d="M38.158,208.318a.423.423,0,1,1-.422.422.422.422,0,0,1,.422-.422" transform="translate(-4.565 -25.202)" fill="#9c9c72" fill-rule="evenodd"/>
    <path id="Trazado_1403749" data-name="Trazado 1403749" d="M38.158,216.617a.424.424,0,1,1-.422.423.423.423,0,0,1,.422-.423" transform="translate(-4.565 -26.206)" fill="#9c9c72" fill-rule="evenodd"/>
    <path id="Trazado_1403750" data-name="Trazado 1403750" d="M42.731,212.891a.423.423,0,1,1-.422-.424.422.422,0,0,1,.422.424" transform="translate(-5.067 -25.704)" fill="#9c9c72" fill-rule="evenodd"/>
    <path id="Trazado_1403751" data-name="Trazado 1403751" d="M34.431,212.891a.423.423,0,1,1-.423-.424.424.424,0,0,1,.423.424" transform="translate(-4.063 -25.704)" fill="#9c9c72" fill-rule="evenodd"/>
    <path id="Trazado_1403752" data-name="Trazado 1403752" d="M33.768,222.483h2.669a.267.267,0,0,1,.266.265v.608a.266.266,0,0,1-.266.265H33.768a.265.265,0,0,1-.265-.265v-.608a.265.265,0,0,1,.265-.265" transform="translate(-4.053 -26.916)" fill="#c8c893" fill-rule="evenodd"/>
    <path id="Trazado_1403753" data-name="Trazado 1403753" d="M39.555,222.483h2.668a.265.265,0,0,1,.265.265v.608a.265.265,0,0,1-.265.265H39.555a.265.265,0,0,1-.265-.265v-.608a.266.266,0,0,1,.265-.265" transform="translate(-4.753 -26.916)" fill="#c8c893" fill-rule="evenodd"/>
    <path id="Trazado_1403754" data-name="Trazado 1403754" d="M33.768,203.327h2.669a.267.267,0,0,1,.266.265v.607a.266.266,0,0,1-.266.265H33.768a.265.265,0,0,1-.265-.265v-.607a.266.266,0,0,1,.265-.265" transform="translate(-4.053 -24.598)" fill="#c8c893" fill-rule="evenodd"/>
    <path id="Trazado_1403755" data-name="Trazado 1403755" d="M39.555,203.327h2.668a.266.266,0,0,1,.265.265v.607a.265.265,0,0,1-.265.265H39.555a.265.265,0,0,1-.265-.265v-.607a.266.266,0,0,1,.265-.265" transform="translate(-4.753 -24.598)" fill="#c8c893" fill-rule="evenodd"/>
    <path id="Trazado_1403756" data-name="Trazado 1403756" d="M33.768,200.442h2.669a.266.266,0,0,1,.266.264v.609a.266.266,0,0,1-.266.263H33.768a.264.264,0,0,1-.265-.263v-.609a.265.265,0,0,1,.265-.264" transform="translate(-4.053 -24.249)" fill="#c8c893" fill-rule="evenodd"/>
    <path id="Trazado_1403757" data-name="Trazado 1403757" d="M39.555,200.442h2.668a.265.265,0,0,1,.265.264v.609a.264.264,0,0,1-.265.263H39.555a.265.265,0,0,1-.265-.263v-.609a.265.265,0,0,1,.265-.264" transform="translate(-4.753 -24.249)" fill="#c8c893" fill-rule="evenodd"/>
    <path id="Trazado_1403758" data-name="Trazado 1403758" d="M33.768,197.554h2.669a.268.268,0,0,1,.266.265v.608a.266.266,0,0,1-.266.265H33.768a.265.265,0,0,1-.265-.265v-.608a.266.266,0,0,1,.265-.265" transform="translate(-4.053 -23.9)" fill="#c8c893" fill-rule="evenodd"/>
    <path id="Trazado_1403759" data-name="Trazado 1403759" d="M39.555,197.554h2.668a.266.266,0,0,1,.265.265v.608a.265.265,0,0,1-.265.265H39.555a.265.265,0,0,1-.265-.265v-.608a.266.266,0,0,1,.265-.265" transform="translate(-4.753 -23.9)" fill="#c8c893" fill-rule="evenodd"/>
    <path id="Trazado_1403760" data-name="Trazado 1403760" d="M53.457,190.294h14.4a2.625,2.625,0,0,1,2.615,2.615,1.5,1.5,0,0,0,1.5,1.5l-13.833.757-8.788-.757a1.5,1.5,0,0,0,1.5-1.5,2.626,2.626,0,0,1,2.614-2.615" transform="translate(-5.97 -23.021)" fill="#9c9c72" fill-rule="evenodd"/>
    <path id="Trazado_1403761" data-name="Trazado 1403761" d="M67.948,192.138h1.407a.449.449,0,1,1,0,.9H67.948a.449.449,0,1,1,0-.9" transform="translate(-8.166 -23.245)" fill="#c8c893" fill-rule="evenodd"/>
    <path id="Trazado_1403762" data-name="Trazado 1403762" d="M54.757,192.138h8.819a.449.449,0,1,1,0,.9H54.757a.449.449,0,1,1,0-.9" transform="translate(-6.57 -23.245)" fill="#c8c893" fill-rule="evenodd"/>
    <path id="Trazado_1403763" data-name="Trazado 1403763" d="M65.983,198.814l-17.91,17.91v-9.419l8.49-8.491Z" transform="translate(-5.816 -24.052)" fill="#a6e3ff" fill-rule="evenodd"/>
    <path id="Trazado_1403764" data-name="Trazado 1403764" d="M77.854,202.17,59.795,220.23H50.377l21.417-21.416h6.06Z" transform="translate(-6.095 -24.052)" fill="#a6e3ff" fill-rule="evenodd"/>
    <path id="Trazado_1403765" data-name="Trazado 1403765" d="M79.912,212.961l-8.491,8.491H67.384l12.528-12.528Z" transform="translate(-8.152 -25.275)" fill="#a6e3ff" fill-rule="evenodd"/>
    <path id="Trazado_1403766" data-name="Trazado 1403766" d="M142.628,274.264a6.668,6.668,0,1,0-11.718,4.355l4.577,5.3a.619.619,0,0,0,.946,0l4.576-5.3a6.649,6.649,0,0,0,1.619-4.355m-4.414,0a2.256,2.256,0,1,1-2.255-2.255,2.255,2.255,0,0,1,2.255,2.255" transform="translate(-15.642 -32.374)" fill="#d8d8d6" fill-rule="evenodd"/>
    <path id="Trazado_1403767" data-name="Trazado 1403767" d="M143.192,310.029a1.332,1.332,0,1,0,1.332,1.332,1.332,1.332,0,0,0-1.332-1.332" transform="translate(-17.162 -37.507)" fill="#d8d8d6" fill-rule="evenodd"/>
    <path id="Trazado_1403768" data-name="Trazado 1403768" d="M136.694,310.029a1.332,1.332,0,1,0,1.332,1.332,1.332,1.332,0,0,0-1.332-1.332" transform="translate(-16.376 -37.507)" fill="#d8d8d6" fill-rule="evenodd"/>
    <path id="Trazado_1403769" data-name="Trazado 1403769" d="M130.2,310.029a1.332,1.332,0,1,0,1.331,1.332,1.331,1.331,0,0,0-1.331-1.332" transform="translate(-15.59 -37.507)" fill="#d8d8d6" fill-rule="evenodd"/>
    <path id="Trazado_1403770" data-name="Trazado 1403770" d="M132.159,74.8a2.273,2.273,0,0,0,2.272,2.273.273.273,0,1,1,0,.546,2.272,2.272,0,0,0-2.272,2.273.273.273,0,0,1-.547,0,2.273,2.273,0,0,0-2.272-2.273.273.273,0,0,1,0-.546,2.273,2.273,0,0,0,2.272-2.273.273.273,0,0,1,.547,0" transform="translate(-15.614 -9.016)" fill="#fff" fill-rule="evenodd"/>
    <path id="Trazado_1403771" data-name="Trazado 1403771" d="M130.054,66.5a1.353,1.353,0,0,0,1.355,1.353.162.162,0,0,1,0,.324,1.354,1.354,0,0,0-1.355,1.353.162.162,0,1,1-.324,0,1.353,1.353,0,0,0-1.353-1.353.162.162,0,1,1,0-.324,1.352,1.352,0,0,0,1.353-1.353.162.162,0,1,1,.324,0" transform="translate(-15.511 -8.025)" fill="#fff" fill-rule="evenodd"/>
    <path id="Trazado_1403772" data-name="Trazado 1403772" d="M125.891,82.935a1.351,1.351,0,0,0,1.352,1.352.162.162,0,1,1,0,.324,1.352,1.352,0,0,0-1.352,1.353.163.163,0,1,1-.325,0,1.354,1.354,0,0,0-1.353-1.353.162.162,0,1,1,0-.324,1.353,1.353,0,0,0,1.353-1.352.163.163,0,1,1,.325,0" transform="translate(-15.007 -10.014)" fill="#fff" fill-rule="evenodd"/>
    <path id="Trazado_1403773" data-name="Trazado 1403773" d="M123.624,166.178a2.272,2.272,0,0,0,2.273,2.271.274.274,0,0,1,0,.548,2.272,2.272,0,0,0-2.273,2.271.273.273,0,1,1-.546,0A2.272,2.272,0,0,0,120.805,169a.274.274,0,1,1,0-.548,2.272,2.272,0,0,0,2.273-2.271.273.273,0,1,1,.546,0" transform="translate(-14.582 -20.071)" fill="#fff" fill-rule="evenodd"/>
    <path id="Trazado_1403774" data-name="Trazado 1403774" d="M121.521,157.88a1.353,1.353,0,0,0,1.352,1.353.163.163,0,1,1,0,.325,1.353,1.353,0,0,0-1.352,1.354.163.163,0,0,1-.326,0,1.353,1.353,0,0,0-1.352-1.354.163.163,0,1,1,0-.325,1.353,1.353,0,0,0,1.352-1.353.163.163,0,0,1,.326,0" transform="translate(-14.479 -19.08)" fill="#fff" fill-rule="evenodd"/>
    <path id="Trazado_1403775" data-name="Trazado 1403775" d="M117.356,174.313a1.353,1.353,0,0,0,1.353,1.353.162.162,0,1,1,0,.324,1.353,1.353,0,0,0-1.353,1.353.162.162,0,1,1-.324,0,1.353,1.353,0,0,0-1.353-1.353.162.162,0,1,1,0-.324,1.353,1.353,0,0,0,1.353-1.353.162.162,0,1,1,.324,0" transform="translate(-13.975 -21.068)" fill="#fff" fill-rule="evenodd"/>
  </g>
</svg>
