<svg xmlns="http://www.w3.org/2000/svg" xmlns:xlink="http://www.w3.org/1999/xlink" width="88.099" height="84.288" viewBox="0 0 88.099 84.288">
  <defs>
    <clipPath id="clip-path">
      <rect id="Rectángulo_456684" data-name="Rectángulo 456684" width="83.499" height="84.288" fill="#f0b068"/>
    </clipPath>
    <clipPath id="clip-path-2">
      <rect id="Rectángulo_458552" data-name="Rectángulo 458552" width="77.619" height="62.832" fill="none"/>
    </clipPath>
    <clipPath id="clip-path-4">
      <rect id="Rectángulo_458546" data-name="Rectángulo 458546" width="56.691" height="49.456" fill="none"/>
    </clipPath>
    <clipPath id="clip-path-5">
      <rect id="Rectángulo_458547" data-name="Rectángulo 458547" width="34.868" height="62.475" fill="none"/>
    </clipPath>
    <clipPath id="clip-path-6">
      <rect id="Rectángulo_458548" data-name="Rectángulo 458548" width="27.27" height="37.444" fill="none"/>
    </clipPath>
    <clipPath id="clip-path-7">
      <rect id="Rectángulo_458549" data-name="Rectángulo 458549" width="14.941" height="11.098" fill="none"/>
    </clipPath>
    <clipPath id="clip-path-8">
      <rect id="Rectángulo_458550" data-name="Rectángulo 458550" width="6.642" height="4.081" fill="none"/>
    </clipPath>
  </defs>
  <g id="Grupo_1208295" data-name="Grupo 1208295" transform="translate(-181.901 -12080)">
    <g id="Grupo_1207369" data-name="Grupo 1207369" transform="translate(186.501 12080)">
      <g id="Grupo_1206514" data-name="Grupo 1206514">
        <g id="Grupo_1206513" data-name="Grupo 1206513" clip-path="url(#clip-path)">
          <path id="Trazado_1294880" data-name="Trazado 1294880" d="M176.031,89.78c-.1-.657-.543-.29-.44-.308-.025.39.368.25.44.308" transform="translate(-92.532 -47.108)" fill="#f0b068"/>
          <path id="Trazado_1294881" data-name="Trazado 1294881" d="M172.186,75.475l.179.085-.554-.848Z" transform="translate(-90.548 -39.375)" fill="#f0b068"/>
          <path id="Trazado_1294882" data-name="Trazado 1294882" d="M170.225,67.512l.637.345c-.193-.615-.445-1.313-.706-1.954a6.487,6.487,0,0,1-.514-1.7c-.5.727.717,2.011.694,3.106Z" transform="translate(-89.342 -33.837)" fill="#f0b068"/>
          <path id="Trazado_1294883" data-name="Trazado 1294883" d="M170.37,57.373c-.052-.121-.118-.29-.213-.584-.17.284-.468-.57.2.735a1.123,1.123,0,0,1,.012-.151" transform="translate(-89.563 -29.921)" fill="#f0b068"/>
          <path id="Trazado_1294884" data-name="Trazado 1294884" d="M170.847,57.9c.253.592.052-.471,0,0" transform="translate(-90.04 -30.451)" fill="#f0b068"/>
          <path id="Trazado_1294885" data-name="Trazado 1294885" d="M168.683,51.778c-.478-.744-.541-.509-.569.047l.562.674c.07-.224-.211-.93.007-.72" transform="translate(-88.6 -27.041)" fill="#f0b068"/>
          <path id="Trazado_1294886" data-name="Trazado 1294886" d="M166.736,51.676c.027-.1,0-.213-.278-.346l.143.171.135.175" transform="translate(-87.727 -27.052)" fill="#f0b068"/>
          <path id="Trazado_1294887" data-name="Trazado 1294887" d="M167.2,52.413c-.212.016.036.1.327.4l-.57-.75c-.048.158-.242.261.243.352" transform="translate(-87.949 -27.437)" fill="#f0b068"/>
          <path id="Trazado_1294888" data-name="Trazado 1294888" d="M168.13,54.74c.065.485.194,1.08-.338.4.674,1.434,1.048,1.043.338-.4" transform="translate(-88.43 -28.849)" fill="#f0b068"/>
          <path id="Trazado_1294889" data-name="Trazado 1294889" d="M168.51,65.112a1.766,1.766,0,0,1-.162-.655c-.042-.252-.1-.462-.19-.412l0,.315c0,.157-.009.317-.009.317Z" transform="translate(-88.619 -33.749)" fill="#f0b068"/>
          <path id="Trazado_1294890" data-name="Trazado 1294890" d="M163.28,43.3c-.066-.332-.324-.887-.166-1.038-.15.032-.171.443-.294.591,0,0,.121.107.234.22l.226.227" transform="translate(-85.81 -22.272)" fill="#f0b068"/>
          <path id="Trazado_1294891" data-name="Trazado 1294891" d="M162.031,42.789l-.707-.646c.42.708.6.773.707.646" transform="translate(-85.021 -22.21)" fill="#f0b068"/>
          <path id="Trazado_1294892" data-name="Trazado 1294892" d="M165.3,52.028l.544.575-.607-.7c-.148-.177-.313-.344-.431-.471l-.2-.21.136.252s.292.271.557.559" transform="translate(-86.751 -26.993)" fill="#f0b068"/>
          <path id="Trazado_1294893" data-name="Trazado 1294893" d="M159.339,35.963l-.479-.239-.493-.221.392.224Z" transform="translate(-83.464 -18.711)" fill="#f0b068"/>
          <path id="Trazado_1294894" data-name="Trazado 1294894" d="M154.746,30.5c.47.123,0-.712.4-.5a4.949,4.949,0,0,0-1.5-.957,3.3,3.3,0,0,1,1.094,1.461" transform="translate(-80.978 -15.302)" fill="#f0b068"/>
          <path id="Trazado_1294895" data-name="Trazado 1294895" d="M151.959,28.207a6.326,6.326,0,0,0,.8.392,3.027,3.027,0,0,0-.8-.392" transform="translate(-80.086 -14.866)" fill="#f0b068"/>
          <path id="Trazado_1294896" data-name="Trazado 1294896" d="M159.279,37.542l-.117.533.206.3a1,1,0,0,0-.089-.833" transform="translate(-83.882 -19.785)" fill="#f0b068"/>
          <path id="Trazado_1294897" data-name="Trazado 1294897" d="M158.677,37.942l-.437-.652.433.67Z" transform="translate(-83.396 -19.653)" fill="#f0b068"/>
          <path id="Trazado_1294898" data-name="Trazado 1294898" d="M159.642,39.379l-.052-.076c-.012.052-.011.076.052.076" transform="translate(-84.104 -20.714)" fill="#f0b068"/>
          <path id="Trazado_1294899" data-name="Trazado 1294899" d="M161.079,46.152c.429.19.291-.443.987.085-.465-.357-1.221-1.182-.987-.085" transform="translate(-84.869 -24.034)" fill="#f0b068"/>
          <path id="Trazado_1294900" data-name="Trazado 1294900" d="M159.375,40.841s.121.21.229.429l.222.432c.079-.074.115-.307.353-.143l-.4-.363c-.2-.183-.4-.355-.4-.355" transform="translate(-83.994 -21.524)" fill="#f0b068"/>
          <path id="Trazado_1294901" data-name="Trazado 1294901" d="M158.572,40.179l.38.313-.18-.312Z" transform="translate(-83.571 -21.175)" fill="#f0b068"/>
          <path id="Trazado_1294902" data-name="Trazado 1294902" d="M152.547,30.385a5.37,5.37,0,0,1-1.11-.9c.335.453.68.918,1.038,1.334.146-.026.478.01.072-.437" transform="translate(-79.811 -15.541)" fill="#f0b068"/>
          <path id="Trazado_1294903" data-name="Trazado 1294903" d="M156.346,34.859l-.076-.06c.009.067.029.11.076.06" transform="translate(-82.358 -18.34)" fill="#f0b068"/>
          <path id="Trazado_1294904" data-name="Trazado 1294904" d="M143.543,22.024l.015.11.06-.041Z" transform="translate(-75.65 -11.607)" fill="#f0b068"/>
          <path id="Trazado_1294905" data-name="Trazado 1294905" d="M153.566,32.427a1.273,1.273,0,0,0,.706.594,8.444,8.444,0,0,1-.71-.714c-.066.011-.1.031,0,.12" transform="translate(-80.898 -17.027)" fill="#f0b068"/>
          <path id="Trazado_1294906" data-name="Trazado 1294906" d="M149.529,26.293c.1.211.231.437.362.675-.052-.249-.23-.7-.362-.675" transform="translate(-78.805 -13.857)" fill="#f0b068"/>
          <path id="Trazado_1294907" data-name="Trazado 1294907" d="M156.268,34.333c.018.013.035.023.053.038-.018-.163-.04-.123-.053-.038" transform="translate(-82.357 -18.055)" fill="#f0b068"/>
          <path id="Trazado_1294908" data-name="Trazado 1294908" d="M155.669,34.1a2.554,2.554,0,0,0-.537-.283,4.675,4.675,0,0,0,.538.464.631.631,0,0,1,0-.182" transform="translate(-81.758 -17.822)" fill="#f0b068"/>
          <path id="Trazado_1294909" data-name="Trazado 1294909" d="M144.921,23.242l.218.215L145,23.4l.319.24a5.516,5.516,0,0,1-.688-1.3c-.626-.3-.818-.281-.933-.216l.724.66.5.455" transform="translate(-75.734 -11.64)" fill="#f0b068"/>
          <path id="Trazado_1294910" data-name="Trazado 1294910" d="M148.409,26.619c-.5.052-1.309-.457-1.2.25.831.778.8.331,1.408.7-1.357-1.277.535.232-.232-.908a7.49,7.49,0,0,1,.779.661c-.2-.28-.38-.559-.54-.836l.012.049.007.005-.006,0c.02.095.017.136-.026.049a.14.14,0,0,1-.034-.023.4.4,0,0,1-.168.046c-.317-.454.016-.137.168-.046a.288.288,0,0,0,.059-.026v-.009s-.364-.306-.751-.587l-.76-.57a12,12,0,0,0,1.282,1.24" transform="translate(-77.539 -13.375)" fill="#f0b068"/>
          <path id="Trazado_1294911" data-name="Trazado 1294911" d="M158.426,45.8a.1.1,0,0,1,.05-.1c-.105-.071-.158-.09-.05.1" transform="translate(-83.463 -24.057)" fill="#f0b068"/>
          <path id="Trazado_1294912" data-name="Trazado 1294912" d="M158.718,41.72l.045-.1c-.024-.016-.039.022-.045.1" transform="translate(-83.648 -21.935)" fill="#f0b068"/>
          <path id="Trazado_1294913" data-name="Trazado 1294913" d="M158.6,43.5c.1.377-.167.1-.27.188.231.156.726.614.467-.179l-.116-.079a4.7,4.7,0,0,1-.295-1.6,3.017,3.017,0,0,0-.3,1.2.9.9,0,0,1,.511.468" transform="translate(-83.317 -22.046)" fill="#f0b068"/>
          <path id="Trazado_1294914" data-name="Trazado 1294914" d="M152.383,34.4l-.576-.512.237.813.137-.166c.488.717.562.417.76.4l-.172-.168c-.1-.1-.239-.236-.386-.363" transform="translate(-80.006 -17.862)" fill="#f0b068"/>
          <path id="Trazado_1294915" data-name="Trazado 1294915" d="M143.225,20.921s-.269-.038-.547-.058l-.549-.045.662.3Z" transform="translate(-74.905 -10.971)" fill="#f0b068"/>
          <path id="Trazado_1294916" data-name="Trazado 1294916" d="M140.013,18.161s-.142-.038-.288-.07l-.288-.067.291.391Z" transform="translate(-73.486 -9.499)" fill="#f0b068"/>
          <path id="Trazado_1294917" data-name="Trazado 1294917" d="M36.923,14.889l.4.229a2.545,2.545,0,0,1,.993-.564c-.751.065-1.7.029-1.395.335" transform="translate(-19.429 -7.67)" fill="#f0b068"/>
          <path id="Trazado_1294918" data-name="Trazado 1294918" d="M97.814,1.9A6.493,6.493,0,0,0,96.4,1.472c.674.322,1.18.744,1.411.429" transform="translate(-50.807 -0.776)" fill="#f0b068"/>
          <path id="Trazado_1294919" data-name="Trazado 1294919" d="M9.262,132.842c.2.209.338.271.413.219-.2-.215-.355-.32-.413-.219" transform="translate(-4.881 -69.99)" fill="#f0b068"/>
          <path id="Trazado_1294920" data-name="Trazado 1294920" d="M94.53,1.179a2.063,2.063,0,0,0-1.68-.14c.1.049.2.078.3.12a5.309,5.309,0,0,1,1.38.019" transform="translate(-48.934 -0.484)" fill="#f0b068"/>
          <path id="Trazado_1294921" data-name="Trazado 1294921" d="M173.616,102.7a2.579,2.579,0,0,0,.068-.782c0,.19-.037.494-.068.782" transform="translate(-91.5 -53.713)" fill="#f0b068"/>
          <path id="Trazado_1294922" data-name="Trazado 1294922" d="M125.312,9.49c.405.166.084-.015,0,0" transform="translate(-66.042 -5.001)" fill="#f0b068"/>
          <path id="Trazado_1294923" data-name="Trazado 1294923" d="M127.409,14.545a.27.27,0,0,0-.244.1.342.342,0,0,1,.244-.1" transform="translate(-67.019 -7.666)" fill="#f0b068"/>
          <path id="Trazado_1294924" data-name="Trazado 1294924" d="M125.886,10.062a3.56,3.56,0,0,0-.443-.362,4.15,4.15,0,0,0,.443.362" transform="translate(-66.111 -5.112)" fill="#f0b068"/>
          <path id="Trazado_1294925" data-name="Trazado 1294925" d="M126.395,10.014l.322.21c.08-.036.056-.1-.322-.21" transform="translate(-66.613 -5.278)" fill="#f0b068"/>
          <path id="Trazado_1294926" data-name="Trazado 1294926" d="M124.684,9.233,124.12,9a4.4,4.4,0,0,1,.626.331c-.066-.061-.089-.1-.062-.1" transform="translate(-65.414 -4.744)" fill="#f0b068"/>
          <path id="Trazado_1294927" data-name="Trazado 1294927" d="M82.116,48.987c-.142.369-.4-.071-.64-.03,0,0,.061-.141.147-.354l.317-.784.317-.793c.087-.218.132-.365.132-.365-.295-.249-.257-.886-.218-1.5s.031-1.211-.257-1.343l.088.756c-.342-.516-.736-.175-1.174.245l-.135.127c.042-.752.069-1.508.069-2.271A39.608,39.608,0,0,0,68.242,13.735a.326.326,0,0,0,.077.042l.12-.179c-.357-.324-.7-.47-.557-.207-.315-.289-.639-.567-.963-.846.805.269,1.167-.98.99-2.018-.13.111-.216.207-1.107-.207.155.351,1.3,1.717.482,1.455-1.059-.66-.7-.74-1.048-1.281.1.6-1.285-.2-1.733.125a39.685,39.685,0,0,0-6.3-3.788c.065-.032.089-.085.031-.177l-.655-.218c-.411-.636,1.426.023.708-.513A11,11,0,0,1,59.84,6.2a5.093,5.093,0,0,1,.825.291,4.32,4.32,0,0,1,.8.526l-.074.626c.062-.159-.578-.732-.987-.76.3.022.648.449,1.022.817s.776.694,1.229.54l-.285-.421c-.14-.215-.3-.411-.3-.411.489.107,1.049.22,1.622.381a3.538,3.538,0,0,1,1.564.844c-.12-.786-.257-.107-.587-1.154.168,1.093-2.6-1.7-2.049-.315a2.092,2.092,0,0,0-.793-1.082,4.546,4.546,0,0,1-1.055-1.1c-.056.186.2.511-.67-.038a1.034,1.034,0,0,1-.275.049l-.055-.044.04.046c-.052.006-.058.009.015.017a1.149,1.149,0,0,1,.328.495,3.043,3.043,0,0,1-1.345-.222A7.307,7.307,0,0,0,57.5,4.964c-.5-.327.313-.1.1-.42l-.434-.009-.438.009c.095-.42-1.22-1.24.194-.95l-1.187-.488a4.616,4.616,0,0,0-2.261-.931c-.561-.256-1.6.034-1-.143l-1-.143-1.007-.1.006-.107a17.735,17.735,0,0,0-3.04-.353A9.4,9.4,0,0,1,44.217.676c-.337.029-.678.06-1.072.066a7.39,7.39,0,0,1-1.4-.062L41.535.307A11.281,11.281,0,0,1,39.871.236c-.587-.044-1.116-.064-1.289.15a1.79,1.79,0,0,0-1.1-.371,6.071,6.071,0,0,0-1.573.11c-.558.1-1.132.2-1.656.332a8.841,8.841,0,0,1-1.389.252l.035.481a8.512,8.512,0,0,0-1.519.4c-.257.088-.519.184-.793.288s-.55.241-.846.373l.189.387a5.719,5.719,0,0,1-1.951.577c-.389.071-.8.141-1.22.231a8.335,8.335,0,0,0-1.231.4c.05-.194.479-.317.8-.341a3.584,3.584,0,0,0-1.6.3,8.8,8.8,0,0,0-1.4.856c-.452.306-.867.661-1.306.929a3.99,3.99,0,0,1-1.383.558,1.7,1.7,0,0,1-.992.565.332.332,0,0,0,.09-.078,1.877,1.877,0,0,0-.17.092,5.72,5.72,0,0,0-.677.15,3.325,3.325,0,0,0,.587-.1,7.771,7.771,0,0,0-1.137.918L17.9,7.448c-.034.029-.064.047-.1.079-.543.149-.238.409.189.542a2.564,2.564,0,0,0-.428.628c-.768-.345-1,.992-1.924.737-.027.264-.514.738-.955,1.244a2.428,2.428,0,0,0-.671,1.3A2.75,2.75,0,0,0,12.8,13.149l-.583-.244-.2.725-.166.736c-.788.315-1.172.421-.952-.456a14.393,14.393,0,0,1-.789,1.556,5.382,5.382,0,0,0-.589,1.4l-.242-.3c-.345.462-.508,1.481-.965,1.562a9.587,9.587,0,0,0-2.6,3.13c-.957,1.575-1.937,3.413-2.89,4.811.639-.07.361.225.032.607s-.706.861-.331,1.076c-.313.084-.622.467-.636-.118a10.7,10.7,0,0,1-.714,1.946A2.292,2.292,0,0,0,1,31.277c-.306.117-.268-.456-.464-.332.016.149.07.585-.129.716s-.143-.3-.177-.594A3.389,3.389,0,0,0,.1,32.119a1.447,1.447,0,0,0,.227.67,1.932,1.932,0,0,0,.946.647,2.188,2.188,0,0,0-.455.974,1.66,1.66,0,0,0,.253.932c-.295.248-.639.705-.538-.361l-.207.8-.141.586c-.038.207-.072.421-.1.632-.117.843-.151,1.628.161,1.688-.167.172-.108.829-.051.989-.072.665-.118,1.027-.131,1.388s-.029.718-.017,1.375l.108-.363c.7.523.16,1.082.274,2.135l-.076-.027a5.153,5.153,0,0,0-.128,1.228,1.754,1.754,0,0,0,.084.5,1.516,1.516,0,0,1,.07.5c-.007.246-.034.611-.1,1.224l.434-.183c.5.054.421.582.289,1.278a3.944,3.944,0,0,0,.058,2.2l.164-.541c.22.34.018.911-.241,1.519a4.17,4.17,0,0,0-.52,1.638c-.033.185-.21-.223-.326-.44,0,2.133.645.106,1.188,1.522-.224.361-.893-.113-.641.892-.04.284.444.919.928,1.652a4.538,4.538,0,0,1,1.022,2.3c.1-.381.2-.749.66-.189a11.147,11.147,0,0,1,.532,1.925c.2.7.451,1.368,1.044,1.591.009.151-.022.228-.072.263.3.3.682.85,1.116,1.314a3.512,3.512,0,0,0,1.165.964,1.123,1.123,0,0,0,.168,1.226A6.27,6.27,0,0,0,8.4,67.842a11.4,11.4,0,0,1,1.125,1.09c.262.316.34.6.063.831,0,0,.422.469.861.921l.9.885-.151.055a4.456,4.456,0,0,0,1.351,1.146,3.241,3.241,0,0,0,1.026.327c.212.315-.08.239-.155.275a8.26,8.26,0,0,0,1.759,1.662,7.253,7.253,0,0,0,2.066.783l-.107.5c.295.044.87.691,1.7,1.383.206.176.424.359.656.538s.488.335.746.492a5.624,5.624,0,0,0,1.651.722.379.379,0,0,1-.324.07,19.531,19.531,0,0,1,3.741,1.995c1.191.69,2.3,1.08,3.014.42,0,0,.434.046.875.053l.873.029c-2.056-.722.515-.624-.263-1.14a2.6,2.6,0,0,1,1.162.57c.263.219.294.416-.222.324l-.135-.127c-.61.791,2.549.943,2.375,1.5,2.132.409,4.252.738,6.364.961a32.264,32.264,0,0,0,6.266.061l-.271-.315-.268-.322s.088,0,.22-.014l.483-.047.7-.07c.389.113.573.473-.445.574.587.325,1.653-.543,1.647-.712,2-.073-.633.932-.034.842l.817-.2-.2-.046c.309-.2.463-.375.691-.523a3.258,3.258,0,0,1,1.123-.4c.782-.038.483.327.787.284.009.048.116.047.463-.087,0,0,.112-.018.276-.062l.6-.15.879-.219-.845-.328c.689-.47,1.616-.44.651-.8.707.281,2.329-.151,3.816-.765.748-.294,1.449-.662,2.03-.916a5.6,5.6,0,0,1,1.2-.5,5.7,5.7,0,0,1,.634-.581,7.738,7.738,0,0,1,.683-.518c.479-.326,1.02-.605,1.593-.959-.343.085-.83-.332.171-.885.164.639.7.489,1.327.155a4.182,4.182,0,0,1,2.025-.733c-.518.022.119-.525.683-1.056s1.016-1.092.245-.982c.8-.555.35.324,1.107.063a12.722,12.722,0,0,1,1.243-1.358l1.473-1.318c.254-.227.521-.447.774-.687l.752-.742a11.491,11.491,0,0,0,1.379-1.655c-.1-.136-.6.085-.418-.549l.249-.107c.152-.063.349-.153.541-.247l.781-.38c.259-.526-.464-.957.57-1.515-.2.048-.49.114-.33-.234a22.8,22.8,0,0,0,4.043-7.519c.975-2.726,1.735-5.47,2.948-8.206-.456.72-.394.2-.3-.389M66.805,12.447q-.591-.5-1.2-.985a1.954,1.954,0,0,1,1.2.985m-1.434-1.2c0,.008-.013.012-.021.018l-.088-.069.109.052M54.717,3.032a.207.207,0,0,0-.039.01c-.612-.394-.4-.248.039-.01m-7.35-.421a8.9,8.9,0,0,1,1.372-.117c1.548.1.544.639.829.577a4.941,4.941,0,0,0,1.617.219,4.833,4.833,0,0,0,1.043-.144,2.483,2.483,0,0,1,2.227.439c.736.787-.294.969-.213,1.383a3.752,3.752,0,0,1-1.4-.559,4.552,4.552,0,0,0-1.1-.537l.918.51a2.906,2.906,0,0,1-1.625-.305,1.388,1.388,0,0,0,.364.24,39.54,39.54,0,0,0-5.639-1.086,2.971,2.971,0,0,1,.5-.281,4.967,4.967,0,0,1,1.1-.34m-7.976-.042c-.041.138.1.3.214.409Q39,3,38.4,3.038a2.987,2.987,0,0,1,.993-.469m-8.259.313c.08.007.677.046,1.313.118a6.023,6.023,0,0,1,1.584.348.432.432,0,0,1,.187.189c-.481.083-.962.169-1.437.27l-.178-.7-.02.744c-.469.1-.938.205-1.4.324a2.1,2.1,0,0,1-.047-1.294M23.94,5.327l.44.143.55-.443c.276-.223.565-.423.565-.423-.212.444-.59,1.183-1,1.947q-1,.46-1.974.97A4.684,4.684,0,0,1,23.94,5.327m-9.931,6.651a.519.519,0,0,0,.035.182c-.081-.065-.224-.007-.035-.182M11.824,14.53a1.73,1.73,0,0,0,.614.575c-.236.245-.475.488-.7.739.012-.236.027-.457.041-.649.029-.4.049-.665.049-.665M1.542,33.863c.142-.176.307.035.493.353-.023-.121-.047-.236-.073-.327.14-.211.267-.273.384-.246-.061.265-.127.527-.184.794l-.127-.221c.028.129.053.271.082.417-.025.119-.043.241-.066.361a6.136,6.136,0,0,0-.517.572s-.006-.426-.013-.852.021-.851.021-.851M50.988,83.021l-.3-.052c.588-.271.444-.115.3.052" transform="translate(0 0)" fill="#f0b068"/>
          <path id="Trazado_1294928" data-name="Trazado 1294928" d="M132.726,13.455c.034-.089-.017-.273.137-.219-.081-.04-.211-.1-.351-.158l-.442-.186a1.64,1.64,0,0,1,.656.562" transform="translate(-69.604 -6.795)" fill="#f0b068"/>
          <path id="Trazado_1294929" data-name="Trazado 1294929" d="M133.841,13.665a.437.437,0,0,1,.039.02l-.039-.02" transform="translate(-70.537 -7.202)" fill="#f0b068"/>
          <path id="Trazado_1294930" data-name="Trazado 1294930" d="M133.747,13.619l.044.021a.455.455,0,0,0-.044-.021" transform="translate(-70.488 -7.178)" fill="#f0b068"/>
          <path id="Trazado_1294931" data-name="Trazado 1294931" d="M133.723,17.4c-.153.37.415.542.97.865a.753.753,0,0,1-.092-.065c.462-.335-.2-.59-.877-.8" transform="translate(-70.462 -9.172)" fill="#f0b068"/>
          <path id="Trazado_1294932" data-name="Trazado 1294932" d="M136.561,19.726c.187-.131-.17-.176-.488-.335a3.2,3.2,0,0,1,.488.335" transform="translate(-71.714 -10.219)" fill="#f0b068"/>
          <path id="Trazado_1294933" data-name="Trazado 1294933" d="M121.658,8.44c.244.219.377-.368.476-.152.515-.312-2.145-.306-.476.152" transform="translate(-63.823 -4.254)" fill="#f0b068"/>
          <path id="Trazado_1294934" data-name="Trazado 1294934" d="M132.715,19.648l.072-.516-.5.131Z" transform="translate(-69.716 -10.083)" fill="#f0b068"/>
          <path id="Trazado_1294935" data-name="Trazado 1294935" d="M124.531,14.335l.831.573c.024-.077.159-.06.315-.02-.543-.3-1.106-.69-1.147-.553" transform="translate(-65.631 -7.54)" fill="#f0b068"/>
          <path id="Trazado_1294936" data-name="Trazado 1294936" d="M127.7,15.866a4.167,4.167,0,0,0-.742-.33,2.357,2.357,0,0,0,.742.33" transform="translate(-66.909 -8.188)" fill="#f0b068"/>
          <path id="Trazado_1294937" data-name="Trazado 1294937" d="M101.214,7.035c.277-.066.689-.056.553-.239l-1.1-.059c-.136.141.14.291.55.3" transform="translate(-53.034 -3.551)" fill="#f0b068"/>
          <path id="Trazado_1294938" data-name="Trazado 1294938" d="M175.384,94.348s.072-.215.124-.432l.112-.435-.339.551Z" transform="translate(-92.377 -49.267)" fill="#f0b068"/>
          <path id="Trazado_1294939" data-name="Trazado 1294939" d="M174.723,90.743l-.543-.524c.023.194.066.574-.076.719Z" transform="translate(-91.757 -47.547)" fill="#f0b068"/>
        </g>
      </g>
    </g>
    <g id="Grupo_1207991" data-name="Grupo 1207991" transform="translate(181.901 12093.168)">
      <g id="Grupo_1207990" data-name="Grupo 1207990" clip-path="url(#clip-path-2)">
        <g id="Grupo_1207989" data-name="Grupo 1207989">
          <g id="Grupo_1207988" data-name="Grupo 1207988" clip-path="url(#clip-path-2)">
            <path id="Trazado_1403805" data-name="Trazado 1403805" d="M97.6,63.662a31.449,31.449,0,0,1-4.543-.332A31.068,31.068,0,0,1,97.524,1.523a31.483,31.483,0,0,1,4.543.332A31.068,31.068,0,0,1,97.6,63.662" transform="translate(-51.359 -1.176)" fill="#90cdc2"/>
            <path id="Trazado_1403806" data-name="Trazado 1403806" d="M96.355.693a31.071,31.071,0,0,1,4.492.329,30.722,30.722,0,0,1-4.414,61.118,31.111,31.111,0,0,1-4.493-.329A30.721,30.721,0,0,1,96.355.693Zm0-.693a31.438,31.438,0,1,0,4.594.336A31.42,31.42,0,0,0,96.354,0" transform="translate(-50.19)" fill="#3c3c3b"/>
            <path id="Trazado_1403807" data-name="Trazado 1403807" d="M108.677,68.56a2.443,2.443,0,0,1-.109-1.568c.022-.13.046-.276.071-.444a11.565,11.565,0,0,1,.348-1.148,3.5,3.5,0,0,0-.362-3.713.347.347,0,0,0-.026-.034,32.581,32.581,0,0,0-2.464-2.356c-.661-.594-1.286-1.155-1.74-1.612A8.144,8.144,0,0,0,103,56.56c-1.054-.741-2.248-1.581-2.362-2.726-.149-1.49.817-1.84,2.426-2.24a8.128,8.128,0,0,0,1.48-.467,7.121,7.121,0,0,0,4.035-4.889,4.1,4.1,0,0,0-1.153-3.844,5.018,5.018,0,0,0-1.933-1.071,3.3,3.3,0,0,1-2.074-1.521,2.777,2.777,0,0,1-.27-1.088,2.423,2.423,0,0,0-.8-1.8c-.895-.778-1.206-1.164-.921-2.134l.051-.171c.213-.706.505-1.674-.683-2.157a6.968,6.968,0,0,0-2.3-.384,8.475,8.475,0,0,1-1.613-.185,6.673,6.673,0,0,1-3.651-2.051,6.611,6.611,0,0,1-.73-1.147c-.476-.855-.967-1.738-1.655-1.97a4.809,4.809,0,0,0-1.535-.3c-.841-.067-1.506-.12-1.918-.928a6.728,6.728,0,0,1-.239-3.3,29.384,29.384,0,0,1,7.337-8.333,43.668,43.668,0,0,1,8.354-4.99,6.58,6.58,0,0,1,1.8-.307,3.455,3.455,0,0,1,1.7.474c.13.064.262.129.4.192a4.025,4.025,0,0,1,2.266,2.609,9.219,9.219,0,0,0,.774,1.546,8.187,8.187,0,0,0,3.735,2.686c.34.159.691.323,1.035.5.2.117.434.24.68.37,1.672.884,2.821,1.63,2.374,3.195-.446,1.453-2.713,1.465-4.368,1.474-.289,0-.563,0-.809.012a.353.353,0,0,0-.049.005,11.262,11.262,0,0,1-1.334.091,6.016,6.016,0,0,0-2.861.491.348.348,0,0,0-.03.025,2.175,2.175,0,0,0-.577,1.649,2.624,2.624,0,0,1-.181,1.021,7.47,7.47,0,0,1-1.342,1.217c-1.231.956-2.627,2.041-1.79,4.047a.415.415,0,0,0,.021.041,16.459,16.459,0,0,0,4.089,3.573,7.93,7.93,0,0,0,2.4.609,7.337,7.337,0,0,1,2.194.542l.024.011c3.69,1.519,3.336,4.711,2.925,8.407q-.041.37-.081.742a7.035,7.035,0,0,0,1.142,4.163c.924,1.742,1.654,3.117-.249,5.3a15.658,15.658,0,0,1-1.248,1.247,7.559,7.559,0,0,0-2.532,3.587,9.587,9.587,0,0,0-.061,3.1,10.541,10.541,0,0,1,.032,2.5,14.127,14.127,0,0,1-.563,2.117,14.683,14.683,0,0,0-.684,2.733Z" transform="translate(-67.223 -6.61)" fill="#93c01f"/>
            <path id="Trazado_1403808" data-name="Trazado 1403808" d="M103.463,7.729a3.134,3.134,0,0,1,1.546.438c.134.066.269.132.411.2l.012.005a3.7,3.7,0,0,1,2.078,2.423,9.5,9.5,0,0,0,.8,1.6,8.573,8.573,0,0,0,3.878,2.809c.332.155.674.315,1.008.483.219.127.449.248.692.376,1.619.856,2.576,1.471,2.205,2.786-.379,1.21-2.494,1.221-4.039,1.23-.291,0-.566,0-.819.012a.744.744,0,0,0-.1.01,11.082,11.082,0,0,1-1.285.086,6.125,6.125,0,0,0-3.056.56.642.642,0,0,0-.059.049,2.487,2.487,0,0,0-.686,1.885,2.488,2.488,0,0,1-.134.857,7.487,7.487,0,0,1-1.256,1.124c-1.2.93-2.836,2.2-1.9,4.454a.722.722,0,0,0,.041.083,16.631,16.631,0,0,0,4.232,3.708,8.191,8.191,0,0,0,2.51.642,7.1,7.1,0,0,1,2.088.508l.048.022a4.22,4.22,0,0,1,2.783,3.131,15.761,15.761,0,0,1-.07,4.917c-.028.248-.055.5-.081.744a7.317,7.317,0,0,0,1.181,4.362c.9,1.687,1.542,2.906-.206,4.912a15.1,15.1,0,0,1-1.22,1.217,7.844,7.844,0,0,0-2.63,3.746l-.009.034a9.865,9.865,0,0,0-.065,3.2,10.281,10.281,0,0,1,.034,2.419,13.883,13.883,0,0,1-.55,2.061,17.07,17.07,0,0,0-.652,2.464l-2.441-.221a2.076,2.076,0,0,1-.026-1.187c.021-.129.045-.271.07-.435a11.349,11.349,0,0,1,.335-1.1,3.819,3.819,0,0,0-.4-4.019.691.691,0,0,0-.052-.068,32.69,32.69,0,0,0-2.494-2.386c-.65-.584-1.265-1.136-1.711-1.584a8.528,8.528,0,0,0-1.454-1.179c-.993-.7-2.118-1.49-2.217-2.477-.118-1.181.535-1.464,2.165-1.869a8.459,8.459,0,0,0,1.532-.484,7.493,7.493,0,0,0,4.24-5.143,4.491,4.491,0,0,0-1.249-4.155l-.012-.012a5.305,5.305,0,0,0-2.048-1.139,2.988,2.988,0,0,1-1.885-1.36,2.5,2.5,0,0,1-.231-.96,2.747,2.747,0,0,0-.922-2.025c-.864-.751-1.043-1-.816-1.776l.05-.168c.208-.69.6-1.975-.883-2.578a7.238,7.238,0,0,0-2.416-.409,8.223,8.223,0,0,1-1.548-.175,6.282,6.282,0,0,1-3.478-1.948,6.587,6.587,0,0,1-.685-1.083c-.505-.908-1.027-1.845-1.834-2.126a5.18,5.18,0,0,0-1.631-.319c-.887-.071-1.327-.132-1.637-.741a6.672,6.672,0,0,1-.245-2.973,29,29,0,0,1,7.242-8.225,43.525,43.525,0,0,1,8.263-4.941,6.22,6.22,0,0,1,1.682-.287m0-.693a6.9,6.9,0,0,0-1.913.326A43.22,43.22,0,0,0,93.1,12.4a29.727,29.727,0,0,0-7.435,8.445,6.709,6.709,0,0,0,.235,3.624c.777,1.525,2.349.839,3.638,1.393.91.293,1.571,2.3,2.258,3.033a6.991,6.991,0,0,0,3.817,2.147c1.249.313,2.662.061,3.87.554.967.394.66,1.125.43,1.91-.356,1.211.159,1.739,1.026,2.493.979.85.447,1.779,1.005,2.805,1.149,1.916,2.664,1.343,4.06,2.66,2.636,2.612.264,6.872-2.787,8.174-1.537.728-4.36.473-4.1,3.054.193,1.935,2.9,2.967,3.854,4.061,1.108,1.116,3.237,2.857,4.188,3.951,1.305,1.939.39,2.758-.039,4.6a3.437,3.437,0,0,0,.125,2.4l3.567.324c.1-1.734,1.047-3.62,1.274-5.177.274-1.866-.409-3.714.02-5.559.654-2.288,2.369-3.149,3.708-4.7,3.439-3.946-1.224-5.741-.81-9.653s1.14-7.778-3.057-9.506c-1.332-.672-3.267-.479-4.6-1.151a16.19,16.19,0,0,1-3.946-3.438c-1.059-2.539,1.924-3.374,3.108-4.948.447-.888-.038-1.912.7-2.6.714-.531,3.069-.344,4.049-.519,1.757-.06,4.892.24,5.5-1.737.653-2.288-1.767-3.12-3.232-3.97-1.775-.9-3.6-1.481-4.637-3.063s-.944-3.316-3.187-4.281a4.712,4.712,0,0,0-2.243-.7" transform="translate(-66.047 -5.435)" fill="#3c3c3b"/>
            <path id="Trazado_1403809" data-name="Trazado 1403809" d="M237.144,117.013a.631.631,0,0,1-.344-.118c-.743-.468-1.037-4.734-1.2-7.026a26.156,26.156,0,0,0-.312-3.14c-.524-2.018-.99-2.3-1.994-2.75a9.146,9.146,0,0,1-2.3-1.416c-1.9-1.482-1.9-1.482-2.309-3.79a3.348,3.348,0,0,0-1.557-2.481,4.308,4.308,0,0,1-1.4-1.535,1.269,1.269,0,0,1-.16-1.071c.3-.811,1.712-1.348,2.847-1.78a8.446,8.446,0,0,0,1.608-.725,2.992,2.992,0,0,0,1.009-1.665,5.252,5.252,0,0,1,.3-.764,4.334,4.334,0,0,1,2.288-1.947,11.746,11.746,0,0,1,4.5-.764,41.285,41.285,0,0,1,4.541.343,40.575,40.575,0,0,0,4.445.337,14.664,14.664,0,0,0,1.818-.1A22.254,22.254,0,0,1,251.076,96c.009,5.782-.822,10.8-1.6,12.133-.736,1.266-2.252,1.618-3.856,1.99-.288.067-.578.134-.867.208a10.667,10.667,0,0,1-1.368.14,3.866,3.866,0,0,0-2.951,1.233,6.915,6.915,0,0,0-1.1,2.045c-.56,1.3-1.405,3.262-2.2,3.262" transform="translate(-174.19 -66.46)" fill="#93c01f"/>
            <path id="Trazado_1403810" data-name="Trazado 1403810" d="M236.945,85.211a41.051,41.051,0,0,1,4.5.341,40.87,40.87,0,0,0,4.484.34,15.341,15.341,0,0,0,1.614-.079,21.947,21.947,0,0,1,2.007,9.012c.009,5.544-.795,10.659-1.551,11.959-.661,1.136-2.039,1.456-3.634,1.826-.281.065-.572.132-.862.206a10.375,10.375,0,0,1-1.314.133,4.186,4.186,0,0,0-3.161,1.319,6.642,6.642,0,0,0-1.187,2.169,18.2,18.2,0,0,1-1.081,2.232c-.495.8-.767.82-.8.82a.33.33,0,0,1-.155-.062c-.047-.044-.363-.408-.642-2.4-.188-1.341-.3-2.944-.4-4.359a26.016,26.016,0,0,0-.321-3.2l0-.006v-.006c-.536-2.064-1.025-2.455-2.187-2.973a8.722,8.722,0,0,1-2.227-1.368l-.006,0-.006,0a7.07,7.07,0,0,1-1.634-1.483,6.7,6.7,0,0,1-.541-2.091,3.678,3.678,0,0,0-1.691-2.7,3.968,3.968,0,0,1-1.3-1.423c-.256-.469-.168-.707-.139-.784.245-.664,1.632-1.191,2.645-1.576a8.647,8.647,0,0,0,1.68-.762,3.309,3.309,0,0,0,1.143-1.842,5.015,5.015,0,0,1,.275-.712,4.048,4.048,0,0,1,2.111-1.787,11.409,11.409,0,0,1,4.375-.738m0-.694a12.251,12.251,0,0,0-4.635.789,4.683,4.683,0,0,0-2.465,2.108c-.389.739-.459,1.8-1.194,2.3-1.317.894-5.786,1.5-4.4,4.028,1.125,2.064,2.483,1.472,2.919,3.911s.437,2.439,2.431,4c2.836,2.316,3.368.85,4.181,3.978.394,1.641.347,9.551,1.655,10.376a.971.971,0,0,0,.533.174c1.593,0,2.7-4.661,3.526-5.4,1.649-1.5,2.2-.944,4.158-1.291,1.979-.5,4-.726,4.95-2.362.849-1.459,1.654-6.686,1.645-12.309a22.109,22.109,0,0,0-2.3-9.76,13.917,13.917,0,0,1-2.014.134c-2.879,0-5.994-.68-8.986-.68" transform="translate(-173.012 -65.283)" fill="#3c3c3b"/>
            <g id="Grupo_1207975" data-name="Grupo 1207975" transform="translate(19.459 12.971)" style="mix-blend-mode: multiply;isolation: isolate">
              <g id="Grupo_1207974" data-name="Grupo 1207974">
                <g id="Grupo_1207973" data-name="Grupo 1207973" clip-path="url(#clip-path-4)">
                  <path id="Trazado_1403811" data-name="Trazado 1403811" d="M109.062,106.3a4.123,4.123,0,0,0,.549-1.081,6.88,6.88,0,0,0,.281-1.27c.038-.289.075-.577.094-.867,0,.06.027-.887.032-.482-.028-2.275-.325-4.728-1.8-6.555-1.071-1.322-2.2-2.686-1.916-4.529a5.541,5.541,0,0,1,2.072-3.451c.469-.391.974-.729,1.462-1.1.17-.129.342-.26.5-.4a2.038,2.038,0,0,1,.239-.288c.016-.06.035-.143.056-.26a9.071,9.071,0,0,0,.155-1.134,7.659,7.659,0,0,0-.169-1.946,9.544,9.544,0,0,0-1.784-3.962,40.515,40.515,0,0,0-3.095-2.971,7.906,7.906,0,0,1-2.34-4.621,8.574,8.574,0,0,0-.3-1.672c.015.037-.387-.741-.217-.511a.737.737,0,0,1-.139-.226c-.031-.022-.071-.051-.126-.1a8.282,8.282,0,0,0-2.415-.988,12.947,12.947,0,0,1-3.745-1.54,10.886,10.886,0,0,1-2.735-3.124c-.485-.673-1.482-.824-2.349-1.085a5.724,5.724,0,0,1-3.4-2.3A5.026,5.026,0,0,1,87.27,57a25.36,25.36,0,0,0-1.6,2.44,6.709,6.709,0,0,0,.235,3.624,1.882,1.882,0,0,0,1.576,1.053c.409.06.845.067,1.274.13a3.114,3.114,0,0,1,.788.21c.91.292,1.571,2.3,2.258,3.033a6.99,6.99,0,0,0,3.817,2.147,4.93,4.93,0,0,0,.492.1c.777.114,1.6.083,2.379.2a4.285,4.285,0,0,1,1,.26c.967.394.66,1.125.43,1.91-.356,1.211.159,1.739,1.026,2.493.979.85.447,1.779,1.005,2.805,1.149,1.916,2.664,1.343,4.06,2.66,2.636,2.612.264,6.872-2.787,8.174-1.537.728-4.36.473-4.1,3.054.193,1.935,2.9,2.967,3.854,4.061,1.108,1.116,3.237,2.858,4.188,3.951,1.305,1.939.39,2.758-.039,4.6a3.438,3.438,0,0,0,.125,2.4l1.686.153a1.979,1.979,0,0,0,.128-.158" transform="translate(-85.505 -56.999)" fill="#baccda"/>
                  <path id="Trazado_1403812" data-name="Trazado 1403812" d="M248.174,105.853a11.4,11.4,0,0,0-2.341.608c-2.212.666-5.417,1.559-7.342-.317a5.592,5.592,0,0,1-1.725-4.615c.072-1.212.164-1.182-.817-1.955-2.158-1.7-4.189-4.214-3.384-7.209A7.148,7.148,0,0,1,240.226,87c1.659.162,3.282.651,4.931.909a34.725,34.725,0,0,0,4.095.317,18.544,18.544,0,0,0-1.276-3.19c-4.855.713-10.712-1.728-15.594.249a6.149,6.149,0,0,0-2.15,1.559c-.674.778-.6,1.771-1.144,2.55-1.289,1.236-6.094,1.6-4.752,4.332,1.122,2.065,2.477,1.471,2.911,3.91s.435,2.439,2.423,4c2.828,2.315,3.359.849,4.168,3.976.393,1.641.342,9.551,1.647,10.376a1.027,1.027,0,0,0,.412.165c1.653.242,2.8-4.635,3.639-5.39,1.645-1.5,2.2-.944,4.148-1.292,1.974-.5,3.988-.727,4.938-2.364a5.527,5.527,0,0,0,.445-1.122,3.715,3.715,0,0,0-.893-.131" transform="translate(-192.56 -78.239)" fill="#baccda"/>
                </g>
              </g>
            </g>
            <g id="Grupo_1207978" data-name="Grupo 1207978" transform="translate(18.345 0.353)" style="mix-blend-mode: color-burn;isolation: isolate">
              <g id="Grupo_1207977" data-name="Grupo 1207977">
                <g id="Grupo_1207976" data-name="Grupo 1207976" clip-path="url(#clip-path-5)">
                  <path id="Trazado_1403813" data-name="Trazado 1403813" d="M111.874,50.515c1.6-2.111,3.866-4.226,3.123-7.142-.525-2.064-1.929-3.82-2.286-5.94a7.307,7.307,0,0,1-.091-1,19.029,19.029,0,0,0-.111-3.441,5.885,5.885,0,0,0-2.825-3.589,17.48,17.48,0,0,0-3.9-1.847,6.173,6.173,0,0,1-3-1.756c-.666-.878-1.261-2.128-.483-3.137a7.877,7.877,0,0,1,1.073-1.032,5.742,5.742,0,0,0,1.087-1.449,3.279,3.279,0,0,1,2.623-1.966c1.275-.038,2.488.345,3.752.378,2.14.055,4.154-2.039,4.542-4.05a4.793,4.793,0,0,0-2.352-5.28c-1.463-.733-3.151-.768-4.583-1.575a7.247,7.247,0,0,1-2.555-2.869,17.376,17.376,0,0,0-2.1-3.265A31.482,31.482,0,0,0,80.613,18.088a15.643,15.643,0,0,0,.27,2.221,5.422,5.422,0,0,0,1.86,2.675c.768.64,1.668,1.029,2.451,1.621a4.425,4.425,0,0,1,1.272,1.556,3.885,3.885,0,0,0,1.04,1.592c1.485.944,3.1.526,4.736.752A2.474,2.474,0,0,1,94.4,29.732c.309.736.144,1.734.661,2.372a8.9,8.9,0,0,1,1.248,1.73c.28.583-.067,1.44.332,1.948.729.931,1.913,1.31,2.571,2.338,1.474,2.3-.328,4.991-2.531,5.877-.965.389-2.29.723-2.928,1.616a3.7,3.7,0,0,0-.229,3.639c1.184,2.3,3.8,3.489,5.848,4.853a6.641,6.641,0,0,1,3.344,6.108,16.835,16.835,0,0,1-.494,3.186q.837.169,1.695.3a31.644,31.644,0,0,0,4.3.332c.006-.06.009-.119.016-.179a26.362,26.362,0,0,1,1.442-4.821,8.973,8.973,0,0,0,.561-3.043,8.433,8.433,0,0,1,.076-2.247,8.493,8.493,0,0,1,1.557-3.222m-2.527-2.625a8.977,8.977,0,0,1-1.387,2.254l-.025.031a2.994,2.994,0,0,1-.006.645,4.878,4.878,0,0,1-.945,2.223,2.807,2.807,0,0,1-3.933.438,2.75,2.75,0,0,1-.719-.858c-.031,0-.06.01-.091.012a2.849,2.849,0,0,1-3.112-3.182,5.416,5.416,0,0,1,2.487-3.919,3.738,3.738,0,0,1,.886-1.244c-.48.45.158-.207.2-.254q.2-.231.388-.465c.333-.4.659-.818,1.014-1.2a11.544,11.544,0,0,1,1.189-1.146,2.559,2.559,0,0,1-1.066-3.235c0-.028-.005-.054-.008-.081a5.7,5.7,0,0,1-.006-.691c-.032-.037-.066-.074-.1-.114a3.884,3.884,0,0,1-.46-.806,1.934,1.934,0,0,1-.265-.215c-.051-.046-.087-.078-.109-.1a8.468,8.468,0,0,1-2.108-1.734,2.09,2.09,0,0,1-.3-.426,1.541,1.541,0,0,1-.363-.373,2.648,2.648,0,0,1-.421-.955,1.285,1.285,0,0,1-1-.939,1.494,1.494,0,0,1-1.179-1.65c.041-.458-.337-.718-.555-1.1a3.112,3.112,0,0,1-.289-.669,2.136,2.136,0,0,1-.726-.873,1.378,1.378,0,0,1-.637-1.421c.038-.232-.138-.439-.274-.648a1.591,1.591,0,0,1-.986-1.012,2.823,2.823,0,0,1-3.9-2.114,5.5,5.5,0,0,1-.647.124,2.832,2.832,0,0,1-3.114-3.133c-1.87-.333-3.42-2.562-1.845-4.47a15.8,15.8,0,0,1,5.237-4.322c.561-.559,1.13-1.115,1.724-1.636a10.586,10.586,0,0,1,4.444-2.463,2.486,2.486,0,0,1,2.986,2.109c.049-.048.1-.1.147-.145,1.945-1.844,4.807.539,4.406,2.8l.012,0a1.478,1.478,0,0,1,1.771,1.161l.081-.015a2.309,2.309,0,0,1,.324-.056,1.471,1.471,0,0,1,.151-.007,10.678,10.678,0,0,1,3.383.121,1.5,1.5,0,0,1,.34,2.85c-1.024.425-1.979,1.139-3.143,1.054a1.972,1.972,0,0,1-1.434-.746,4.412,4.412,0,0,1-1.252.389,1.7,1.7,0,0,1-.33,0c-.3.12-.6.252-.893.394a6.771,6.771,0,0,1-.843,1.794,1.406,1.406,0,0,1-.189.279,15.668,15.668,0,0,1-1.286,1.556c-.348.446-.689.9-1.016,1.36l-.06.084q-.348.5-.684,1a1.244,1.244,0,0,1-.941.608l-.072.119a1.249,1.249,0,0,1,.16.557c.024.439.338.69.5,1.1.034.084.062.166.089.249a1.857,1.857,0,0,1,.441.885,1.576,1.576,0,0,1,.909,1.6s0,.005,0,.008c.051.073.1.146.157.215a4.377,4.377,0,0,1,.522.814.064.064,0,0,1,0,.012,1.615,1.615,0,0,1,1.024.817,1.521,1.521,0,0,1,1.347.679,3.074,3.074,0,0,1,2.706,1.087c-.44-.489.046-.062.376.2.061.031.148.078.244.132a2.656,2.656,0,0,1,2.474,2.121l.047.038a3.754,3.754,0,0,1,1.156,3.2,8.322,8.322,0,0,1-.136.858.912.912,0,0,0-.017.123c0,.02,0,.033,0,.047a4.864,4.864,0,0,1-.412,2.484,3.1,3.1,0,0,1-.291.512,2.84,2.84,0,0,1,1.138,1.324A2.765,2.765,0,0,1,109.564,45c0,.02-.007.042-.013.063a5.927,5.927,0,0,1-.226.711,2.926,2.926,0,0,1,.023,2.112" transform="translate(-80.613 -1.551)" fill="#99abbf"/>
                </g>
              </g>
            </g>
            <g id="Grupo_1207981" data-name="Grupo 1207981" transform="translate(50.349 17.33)" style="mix-blend-mode: color-burn;isolation: isolate">
              <g id="Grupo_1207980" data-name="Grupo 1207980">
                <g id="Grupo_1207979" data-name="Grupo 1207979" clip-path="url(#clip-path-6)">
                  <path id="Trazado_1403814" data-name="Trazado 1403814" d="M246.69,100c-1.25.794-3.122,1.575-4.568.726a5.826,5.826,0,0,1-.828-.588,13.4,13.4,0,0,1-2.56,1.4,2.829,2.829,0,0,1-2.18-.1l-.04.03a2.837,2.837,0,0,1-3.418-.059,2.959,2.959,0,0,1-1.02-2.592,6.033,6.033,0,0,1,.911-2.894,2.711,2.711,0,0,1-.575-1.363,5.32,5.32,0,0,1,.123-1.829c-.124.082-.249.162-.378.237-1.707,1-4.243.385-4.448-1.9a5.871,5.871,0,0,1,.017-1.174,2.913,2.913,0,0,1-.836-3.329c1.127-3.147,4.15-7.59,7.91-7.585a3.13,3.13,0,0,1,2.74,1.252,11.96,11.96,0,0,1,4.318-2.163A2.773,2.773,0,0,1,244.8,79.8c.837,2.192-.231,4.083-1.48,5.814a2.724,2.724,0,0,1,1.545,4.365c-.9,1.258-1.908,2.451-2.924,3.635a2.9,2.9,0,0,1,.173.235c.028,0,.054-.008.081-.01A3.036,3.036,0,0,1,244.848,95a2.672,2.672,0,0,1,2.416,1.086,2.762,2.762,0,0,1,.472,1.078c.174-.777.323-1.567.44-2.368a31.264,31.264,0,0,0-2.973-18.58c-2.563-.249-5.08.343-7.646.558a36.611,36.611,0,0,1-6.081-.266c-1.641-.132-3.566-.121-4.58,1.412a17.658,17.658,0,0,0-1.224,3.039,4.787,4.787,0,0,1-1.8,2.105c-.874.613-2.041.905-2.453,2-.612,1.63.54,3.409,1.3,4.785,1,1.8,1.127,4.542,2.937,5.786a14.988,14.988,0,0,1,3.147,2.24,5.957,5.957,0,0,1,1.3,2.859c.413,2.34-.076,4.77.534,7.078a26.366,26.366,0,0,0,1.1,3.721c.315.732,1.195,2.447,2.3,1.987.964-.4,1.441-1.589,1.864-2.47a22.014,22.014,0,0,1,1.867-3.573,6.778,6.778,0,0,1,3.449-2.69,10.837,10.837,0,0,1,3.806-.143,31.22,31.22,0,0,0,2.031-4.937,2.273,2.273,0,0,1-.361.292" transform="translate(-221.242 -76.152)" fill="#99abbf"/>
                </g>
              </g>
            </g>
            <path id="Trazado_1403815" data-name="Trazado 1403815" d="M92.321,68.786a3.939,3.939,0,0,0,1.542,2.055.808.808,0,1,0,.816-1.4,2.184,2.184,0,0,1-.8-1.089.828.828,0,0,0-.995-.565.816.816,0,0,0-.565.994" transform="translate(-71.284 -52.342)" fill="#fff"/>
            <path id="Trazado_1403816" data-name="Trazado 1403816" d="M106.742,80.336a.809.809,0,0,0,0-1.617.809.809,0,0,0,0,1.617" transform="translate(-81.847 -60.805)" fill="#fff"/>
            <path id="Trazado_1403817" data-name="Trazado 1403817" d="M255.975,100.632a2.075,2.075,0,0,1,.865-1.368.812.812,0,0,0,0-1.143.829.829,0,0,0-1.143,0,3.6,3.6,0,0,0-1.338,2.511.814.814,0,0,0,.809.808.826.826,0,0,0,.808-.808" transform="translate(-196.471 -75.614)" fill="#fff"/>
            <path id="Trazado_1403818" data-name="Trazado 1403818" d="M266.369,95.264a.809.809,0,0,0,0-1.617.809.809,0,0,0,0,1.617" transform="translate(-205.147 -72.336)" fill="#fff"/>
            <path id="Trazado_1403819" data-name="Trazado 1403819" d="M292.8,181.269a15.06,15.06,0,0,0,2.846-.46.809.809,0,0,0-.43-1.559,12.728,12.728,0,0,1-2.416.4c-1.034.063-1.041,1.681,0,1.617" transform="translate(-225.565 -138.435)" fill="#fff"/>
            <path id="Trazado_1403820" data-name="Trazado 1403820" d="M312.6,178.905l.066-.049a.778.778,0,0,0,.386-.805.6.6,0,0,0-.1-.3l-.126-.164a.809.809,0,0,0-.357-.208l-.215-.029a.8.8,0,0,0-.408.11l-.066.048a.779.779,0,0,0-.386.806.6.6,0,0,0,.1.3l.126.164a.809.809,0,0,0,.357.208l.215.029a.806.806,0,0,0,.408-.11" transform="translate(-240.518 -136.99)" fill="#fff"/>
            <path id="Trazado_1403821" data-name="Trazado 1403821" d="M96.36,201.957a19.571,19.571,0,0,1-5.726-6.972c-.5-.91-1.9-.1-1.4.816a21.251,21.251,0,0,0,6.306,7.552c.86.591,1.669-.81.816-1.4" transform="translate(-68.846 -150.305)" fill="#fff"/>
            <path id="Trazado_1403822" data-name="Trazado 1403822" d="M83.311,180.751a5.289,5.289,0,0,1-.543-1.377.809.809,0,0,0-1.559.43,6.961,6.961,0,0,0,.706,1.763.809.809,0,0,0,1.4-.816" transform="translate(-62.703 -138.112)" fill="#fff"/>
            <path id="Trazado_1403823" data-name="Trazado 1403823" d="M78.295,171.222a.809.809,0,0,0,0-1.617.809.809,0,0,0,0,1.617" transform="translate(-59.874 -131.008)" fill="#fff"/>
            <path id="Trazado_1403824" data-name="Trazado 1403824" d="M236.144,18.235a12.629,12.629,0,0,1,7.014,3.754c.753.718,1.9-.423,1.143-1.143a14.364,14.364,0,0,0-8.157-4.227c-1.032-.119-1.023,1.5,0,1.617" transform="translate(-181.809 -12.832)" fill="#fff"/>
            <path id="Trazado_1403825" data-name="Trazado 1403825" d="M275.475,42.433a3.635,3.635,0,0,1,1.13,1.164.808.808,0,1,0,1.4-.816,5.309,5.309,0,0,0-1.71-1.744.815.815,0,0,0-1.106.29.825.825,0,0,0,.29,1.106" transform="translate(-212.476 -31.609)" fill="#fff"/>
            <path id="Trazado_1403826" data-name="Trazado 1403826" d="M288.795,55.382a.809.809,0,0,0,0-1.617.809.809,0,0,0,0,1.617" transform="translate(-222.47 -41.53)" fill="#fff"/>
            <path id="Trazado_1403827" data-name="Trazado 1403827" d="M74.5,82.432l19.343-5.553-1.9,6.274-10.689,4a.335.335,0,0,0-.295.223c-.08.246.119.391.371.576.075.055.2.149.294.228-.141.082-.356.2-.555.315-.827.467-1.276.729-1.527.894Z" transform="translate(-57.543 -59.383)" fill="#f0b068"/>
            <path id="Trazado_1403828" data-name="Trazado 1403828" d="M91.725,75.828l-1.7,5.608L79.511,85.371A.626.626,0,0,0,79,85.8c-.135.414.157.671.41.86l-.163.092c-.613.346-1.023.582-1.3.753l-4.625-6.387Zm.89-.877L72.335,80.773l5.47,7.554c.121-.191,2.278-1.343,2.468-1.485.349-.261-1.027-.883-.637-.883h.008l10.866-4.067Z" transform="translate(-55.874 -57.894)" fill="#3c3c3b"/>
            <g id="Grupo_1207984" data-name="Grupo 1207984" transform="translate(21.111 19.334)" style="mix-blend-mode: multiply;isolation: isolate">
              <g id="Grupo_1207983" data-name="Grupo 1207983">
                <g id="Grupo_1207982" data-name="Grupo 1207982" clip-path="url(#clip-path-7)">
                  <path id="Trazado_1403829" data-name="Trazado 1403829" d="M95.425,93.69l10.866-4.067,1.414-4.663c-.193.108-.386.215-.576.325-2.466,1.434-4.809,3.1-7.235,4.6-2.186,1.355-4.319-2.193-5.714.072a9.774,9.774,0,0,0-.7,1.381,14.88,14.88,0,0,0-.713,3.585l.821,1.134c.121-.191,2.278-1.343,2.468-1.485.351-.262-1.044-.89-.629-.883" transform="translate(-92.765 -84.96)" fill="#99abbf"/>
                </g>
              </g>
            </g>
            <path id="Trazado_1403830" data-name="Trazado 1403830" d="M8.067,76.96l32.654-.534L22.7,81.6Z" transform="translate(-6.231 -59.033)" fill="#ffe878"/>
            <path id="Trazado_1403831" data-name="Trazado 1403831" d="M32.237,75.622,16.47,80.149,3.672,76.09Zm4.5-.671L0,75.552l16.461,5.221Z" transform="translate(0 -57.894)" fill="#3c3c3b"/>
            <path id="Trazado_1403832" data-name="Trazado 1403832" d="M102.825,84.734l13.047-7.52.093,13.86Z" transform="translate(-79.425 -59.642)" fill="#ffe878"/>
            <path id="Trazado_1403833" data-name="Trazado 1403833" d="M113.407,75.981l.087,12.867-12.2-5.885Zm.591-1.03L100.017,83.01,114.1,89.8Z" transform="translate(-77.256 -57.894)" fill="#3c3c3b"/>
            <path id="Trazado_1403834" data-name="Trazado 1403834" d="M98.706,112.314l4.823,2.323-5.511,2.089Z" transform="translate(-75.711 -86.754)" fill="#f0b068"/>
            <path id="Trazado_1403835" data-name="Trazado 1403835" d="M97.668,111.251,101.5,113.1l-4.38,1.66Zm-.466-.888-.83,5.317,6.642-2.517Z" transform="translate(-74.44 -85.247)" fill="#3c3c3b"/>
            <g id="Grupo_1207987" data-name="Grupo 1207987" transform="translate(21.932 26.352)" style="mix-blend-mode: multiply;isolation: isolate">
              <g id="Grupo_1207986" data-name="Grupo 1207986">
                <g id="Grupo_1207985" data-name="Grupo 1207985" clip-path="url(#clip-path-8)">
                  <path id="Trazado_1403836" data-name="Trazado 1403836" d="M99.769,115.794a1.869,1.869,0,0,1-2.154,1.98,1.923,1.923,0,0,1-.863-.34l-.381,2.44,6.642-2.518Z" transform="translate(-96.372 -115.794)" fill="#99abbf"/>
                </g>
              </g>
            </g>
            <path id="Trazado_1403837" data-name="Trazado 1403837" d="M151.571,115.408a8.076,8.076,0,0,0,.093-1.417.543.543,0,0,0-.152-.368.52.52,0,0,0-.887.368,7.349,7.349,0,0,1-.061,1.188l.018-.138c0,.03-.008.061-.013.091a.571.571,0,0,0,.052.4.52.52,0,0,0,.711.187.5.5,0,0,0,.239-.311" transform="translate(-116.293 -87.648)" fill="#3c3c3b"/>
            <path id="Trazado_1403838" data-name="Trazado 1403838" d="M151.889,107.7q.039-.26.076-.52a.394.394,0,0,0,.009-.207.387.387,0,0,0-.062-.193.582.582,0,0,0-.311-.239l-.138-.019a.517.517,0,0,0-.262.071l-.105.081a.52.52,0,0,0-.134.229q-.038.26-.076.52a.393.393,0,0,0-.009.207.387.387,0,0,0,.062.193.581.581,0,0,0,.311.239l.138.018a.519.519,0,0,0,.262-.071l.105-.081a.518.518,0,0,0,.134-.229" transform="translate(-116.534 -82.279)" fill="#3c3c3b"/>
            <path id="Trazado_1403839" data-name="Trazado 1403839" d="M151.85,102.568a.52.52,0,0,0,0-1.039.52.52,0,0,0,0,1.039" transform="translate(-116.905 -78.424)" fill="#3c3c3b"/>
            <path id="Trazado_1403840" data-name="Trazado 1403840" d="M51.556,84.07c.648-.046,1.3-.09,1.946-.09a.52.52,0,0,0,0-1.039c-.65,0-1.3.044-1.946.09a.52.52,0,0,0,0,1.039" transform="translate(-39.422 -64.066)" fill="#3c3c3b"/>
            <path id="Trazado_1403841" data-name="Trazado 1403841" d="M65.111,83.554a.52.52,0,0,0,0-1.039.52.52,0,0,0,0,1.039" transform="translate(-49.906 -63.737)" fill="#3c3c3b"/>
            <path id="Trazado_1403842" data-name="Trazado 1403842" d="M33.052,155.225a4.129,4.129,0,0,0,1.334,3.38.52.52,0,1,0,.735-.735c-.1-.09-.189-.183-.277-.281-.046-.051-.09-.1-.133-.157-.029-.035-.032-.044,0,0l-.066-.092a3.688,3.688,0,0,1-.2-.326q-.049-.089-.093-.18c-.013-.027-.024-.055-.038-.082-.037-.073.042.112-.009-.021a3.865,3.865,0,0,1-.2-.744c.013.076,0,.024,0-.022,0-.031-.006-.062-.009-.093q-.009-.105-.011-.211a3.9,3.9,0,0,1,.017-.432.521.521,0,0,0-.52-.52.533.533,0,0,0-.52.52" transform="translate(-25.517 -119.499)" fill="#3c3c3b"/>
            <path id="Trazado_1403843" data-name="Trazado 1403843" d="M39.353,124.449a4.115,4.115,0,0,0-2.026,3.008.574.574,0,0,0,.052.4.52.52,0,0,0,.95-.124,4.027,4.027,0,0,1,.19-.8c.007-.02.074-.175.069-.18s-.046.1,0,0l.041-.086a3.522,3.522,0,0,1,.2-.35q.052-.081.108-.158c.046-.063.01-.049,0,0,0-.02.046-.058.061-.075a3.438,3.438,0,0,1,.278-.3q.071-.068.146-.131l.076-.063c.048-.041-.074.053.005,0a4.329,4.329,0,0,1,.376-.244.52.52,0,0,0-.525-.9" transform="translate(-28.822 -96.075)" fill="#3c3c3b"/>
            <path id="Trazado_1403844" data-name="Trazado 1403844" d="M51.2,184.72a4.543,4.543,0,0,0,3.271,1.045.52.52,0,1,0,0-1.039,4.8,4.8,0,0,1-.761-.005c-.021,0-.216-.028-.094-.009-.061-.009-.122-.02-.184-.031-.114-.022-.227-.049-.338-.082s-.221-.072-.33-.112c-.056-.023-.057-.023,0,0l-.085-.038c-.057-.026-.112-.054-.168-.084a3.633,3.633,0,0,1-.326-.195c-.053-.036-.106-.073-.157-.112.078.058-.073-.06-.087-.071a.52.52,0,1,0-.735.735" transform="translate(-39.43 -142.001)" fill="#3c3c3b"/>
            <path id="Trazado_1403845" data-name="Trazado 1403845" d="M93.276,192.767a2.719,2.719,0,0,0,.663.023c.226-.023.451-.061.675-.1a.522.522,0,0,0,.311-.239.52.52,0,0,0-.186-.711l-.124-.053a.527.527,0,0,0-.276,0c-.131.023-.262.046-.393.065l.138-.018a2.49,2.49,0,0,1-.649.016l.138.018-.02,0a.394.394,0,0,0-.207-.009.387.387,0,0,0-.193.062.52.52,0,0,0-.187.711.5.5,0,0,0,.311.239" transform="translate(-71.755 -148.05)" fill="#3c3c3b"/>
            <path id="Trazado_1403846" data-name="Trazado 1403846" d="M61.914,115.369a3.837,3.837,0,0,0-1.1.483.52.52,0,0,0-.186.711.523.523,0,0,0,.311.239.546.546,0,0,0,.4-.052,5.813,5.813,0,0,1,.591-.309l-.124.052a2.046,2.046,0,0,1,.382-.122.52.52,0,0,0,.124-.95.572.572,0,0,0-.4-.052" transform="translate(-46.778 -89.103)" fill="#3c3c3b"/>
            <path id="Trazado_1403847" data-name="Trazado 1403847" d="M119.9,192.724a7.639,7.639,0,0,0,3.8-.184.52.52,0,1,0-.276-1,6.55,6.55,0,0,1-3.251.183.52.52,0,0,0-.276,1" transform="translate(-92.32 -147.936)" fill="#3c3c3b"/>
            <path id="Trazado_1403848" data-name="Trazado 1403848" d="M159.662,187.516a6.1,6.1,0,0,0,2.181-.419.571.571,0,0,0,.31-.239.53.53,0,0,0,.053-.4.525.525,0,0,0-.639-.363,5.12,5.12,0,0,1-.973.289c-.085.017-.17.03-.256.044-.128.021.119-.013-.009,0l-.148.017c-.173.017-.346.027-.519.031a.52.52,0,0,0,0,1.039" transform="translate(-122.926 -143.723)" fill="#3c3c3b"/>
            <path id="Trazado_1403849" data-name="Trazado 1403849" d="M196.233,173.921a6.04,6.04,0,0,0,2.977-1.074.532.532,0,0,0,.186-.711.525.525,0,0,0-.711-.186,4.852,4.852,0,0,1-.622.39c-.1.05-.193.095-.29.141-.055.024-.056.025,0,0l-.085.035q-.086.034-.172.065a5.782,5.782,0,0,1-.66.193q-.178.041-.357.071c-.022,0-.214.032-.085.015l-.178.02a.532.532,0,0,0-.52.52.525.525,0,0,0,.52.52" transform="translate(-151.174 -132.759)" fill="#3c3c3b"/>
            <path id="Trazado_1403850" data-name="Trazado 1403850" d="M222.674,162.611a3.929,3.929,0,0,0,1.768-1.076.52.52,0,0,0-.735-.735,4.97,4.97,0,0,1-.427.377l.105-.081a3.36,3.36,0,0,1-.745.444l.124-.052a2.617,2.617,0,0,1-.367.121.525.525,0,0,0-.363.639.53.53,0,0,0,.639.363" transform="translate(-171.49 -124.092)" fill="#3c3c3b"/>
            <path id="Trazado_1403851" data-name="Trazado 1403851" d="M251.821,142.147a4.178,4.178,0,0,0,1.54-1.109.52.52,0,1,0-.735-.735,7.621,7.621,0,0,1-.688.629l.105-.081a2.369,2.369,0,0,1-.5.3l.124-.052c-.039.016-.079.031-.119.045a.552.552,0,0,0-.311.239.52.52,0,0,0,.186.711.521.521,0,0,0,.4.052" transform="translate(-194.005 -108.26)" fill="#3c3c3b"/>
            <path id="Trazado_1403852" data-name="Trazado 1403852" d="M273.536,121.912a4.385,4.385,0,0,0,1.6-1.848.52.52,0,0,0-.9-.525,5.511,5.511,0,0,1-.532.862l.081-.105a3.443,3.443,0,0,1-.593.606l.105-.081a2.9,2.9,0,0,1-.286.194.52.52,0,1,0,.525.9" transform="translate(-210.682 -92.142)" fill="#3c3c3b"/>
            <path id="Trazado_1403853" data-name="Trazado 1403853" d="M292.884,103.255a7.808,7.808,0,0,0,1.23-1.571.52.52,0,0,0-.9-.525,6.717,6.717,0,0,1-.48.708l.081-.105a8.011,8.011,0,0,1-.669.758.52.52,0,0,0,.735.735" transform="translate(-225.548 -77.943)" fill="#3c3c3b"/>
            <path id="Trazado_1403854" data-name="Trazado 1403854" d="M308.335,78.984c.314-.453.589-.932.9-1.385a.52.52,0,0,0-.587-.763.583.583,0,0,0-.311.239c-.315.453-.589.932-.9,1.385a.52.52,0,0,0,.587.763.582.582,0,0,0,.311-.239" transform="translate(-237.419 -59.335)" fill="#3c3c3b"/>
            <path id="Trazado_1403855" data-name="Trazado 1403855" d="M320.657,53.454a8.987,8.987,0,0,0,.365-1.7.571.571,0,0,0-.052-.4.52.52,0,0,0-.711-.186.5.5,0,0,0-.239.311,9.007,9.007,0,0,1-.366,1.7.523.523,0,0,0,.363.639.533.533,0,0,0,.639-.363" transform="translate(-246.893 -39.472)" fill="#3c3c3b"/>
            <path id="Trazado_1403856" data-name="Trazado 1403856" d="M318.407,32.05a3.012,3.012,0,0,0-.274-1.072,4.366,4.366,0,0,0-.494-.809.565.565,0,0,0-.31-.239.53.53,0,0,0-.4.052.523.523,0,0,0-.239.311.505.505,0,0,0,.052.4,4.31,4.31,0,0,1,.515.858l-.052-.124a2.391,2.391,0,0,1,.167.6l-.019-.138q.01.079.014.158a.52.52,0,0,0,1.039,0" transform="translate(-244.606 -23.105)" fill="#3c3c3b"/>
            <path id="Trazado_1403857" data-name="Trazado 1403857" d="M300.929,17.6l-.108-.045.124.052c-.41-.173-.812-.364-1.223-.534a.519.519,0,0,0-.4.052.519.519,0,0,0-.186.711l.081.105a.518.518,0,0,0,.229.134l.108.045-.124-.052c.41.174.812.365,1.223.534a.521.521,0,0,0,.4-.052.52.52,0,0,0,.186-.711l-.081-.105a.518.518,0,0,0-.229-.134" transform="translate(-231.006 -13.175)" fill="#3c3c3b"/>
            <path id="Trazado_1403858" data-name="Trazado 1403858" d="M274.583,13.918a4.814,4.814,0,0,0-2.322.586.52.52,0,1,0,.525.9c.079-.046.16-.089.243-.129a.663.663,0,0,1,.116-.053q-.1.043-.024.011l.067-.026a3.873,3.873,0,0,1,.48-.144q.121-.028.244-.049a.426.426,0,0,1,.14-.022l-.068.009.071-.008c.175-.02.352-.03.528-.034a.52.52,0,0,0,0-1.039" transform="translate(-210.102 -10.75)" fill="#3c3c3b"/>
          </g>
        </g>
      </g>
    </g>
  </g>
</svg>
