<svg xmlns="http://www.w3.org/2000/svg" xmlns:xlink="http://www.w3.org/1999/xlink" width="83.499" height="118.732" viewBox="0 0 83.499 118.732">
  <defs>
    <clipPath id="clip-path">
      <rect id="Rectángulo_456684" data-name="Rectángulo 456684" width="83.499" height="84.288" fill="#dfdfa4"/>
    </clipPath>
    <clipPath id="clip-path-2">
      <rect id="Rectángulo_458613" data-name="Rectángulo 458613" width="66.449" height="99.626" fill="none"/>
    </clipPath>
  </defs>
  <g id="Grupo_1208300" data-name="Grupo 1208300" transform="translate(-707.711 -17308)">
    <g id="Grupo_1208132" data-name="Grupo 1208132" transform="translate(0 206.621)">
      <g id="Grupo_1207446" data-name="Grupo 1207446" transform="translate(707.711 17135.822)">
        <g id="Grupo_1206514" data-name="Grupo 1206514">
          <g id="Grupo_1206513" data-name="Grupo 1206513" clip-path="url(#clip-path)">
            <path id="Trazado_1294880" data-name="Trazado 1294880" d="M176.031,89.78c-.1-.657-.543-.29-.44-.308-.025.39.368.25.44.308" transform="translate(-92.532 -47.108)" fill="#dfdfa4"/>
            <path id="Trazado_1294881" data-name="Trazado 1294881" d="M172.186,75.475l.179.085-.554-.848Z" transform="translate(-90.548 -39.375)" fill="#dfdfa4"/>
            <path id="Trazado_1294882" data-name="Trazado 1294882" d="M170.225,67.512l.637.345c-.193-.615-.445-1.313-.706-1.954a6.487,6.487,0,0,1-.514-1.7c-.5.727.717,2.011.694,3.106Z" transform="translate(-89.342 -33.837)" fill="#dfdfa4"/>
            <path id="Trazado_1294883" data-name="Trazado 1294883" d="M170.37,57.373c-.052-.121-.118-.29-.213-.584-.17.284-.468-.57.2.735a1.123,1.123,0,0,1,.012-.151" transform="translate(-89.563 -29.921)" fill="#dfdfa4"/>
            <path id="Trazado_1294884" data-name="Trazado 1294884" d="M170.847,57.9c.253.592.052-.471,0,0" transform="translate(-90.04 -30.451)" fill="#dfdfa4"/>
            <path id="Trazado_1294885" data-name="Trazado 1294885" d="M168.683,51.778c-.478-.744-.541-.509-.569.047l.562.674c.07-.224-.211-.93.007-.72" transform="translate(-88.6 -27.041)" fill="#dfdfa4"/>
            <path id="Trazado_1294886" data-name="Trazado 1294886" d="M166.736,51.676c.027-.1,0-.213-.278-.346l.143.171.135.175" transform="translate(-87.727 -27.052)" fill="#dfdfa4"/>
            <path id="Trazado_1294887" data-name="Trazado 1294887" d="M167.2,52.413c-.212.016.036.1.327.4l-.57-.75c-.048.158-.242.261.243.352" transform="translate(-87.949 -27.437)" fill="#dfdfa4"/>
            <path id="Trazado_1294888" data-name="Trazado 1294888" d="M168.13,54.74c.065.485.194,1.08-.338.4.674,1.434,1.048,1.043.338-.4" transform="translate(-88.43 -28.849)" fill="#dfdfa4"/>
            <path id="Trazado_1294889" data-name="Trazado 1294889" d="M168.51,65.112a1.766,1.766,0,0,1-.162-.655c-.042-.252-.1-.462-.19-.412l0,.315c0,.157-.009.317-.009.317Z" transform="translate(-88.619 -33.749)" fill="#dfdfa4"/>
            <path id="Trazado_1294890" data-name="Trazado 1294890" d="M163.28,43.3c-.066-.332-.324-.887-.166-1.038-.15.032-.171.443-.294.591,0,0,.121.107.234.22l.226.227" transform="translate(-85.81 -22.272)" fill="#dfdfa4"/>
            <path id="Trazado_1294891" data-name="Trazado 1294891" d="M162.031,42.789l-.707-.646c.42.708.6.773.707.646" transform="translate(-85.021 -22.21)" fill="#dfdfa4"/>
            <path id="Trazado_1294892" data-name="Trazado 1294892" d="M165.3,52.028l.544.575-.607-.7c-.148-.177-.313-.344-.431-.471l-.2-.21.136.252s.292.271.557.559" transform="translate(-86.751 -26.993)" fill="#dfdfa4"/>
            <path id="Trazado_1294893" data-name="Trazado 1294893" d="M159.339,35.963l-.479-.239-.493-.221.392.224Z" transform="translate(-83.464 -18.711)" fill="#dfdfa4"/>
            <path id="Trazado_1294894" data-name="Trazado 1294894" d="M154.746,30.5c.47.123,0-.712.4-.5a4.949,4.949,0,0,0-1.5-.957,3.3,3.3,0,0,1,1.094,1.461" transform="translate(-80.978 -15.302)" fill="#dfdfa4"/>
            <path id="Trazado_1294895" data-name="Trazado 1294895" d="M151.959,28.207a6.326,6.326,0,0,0,.8.392,3.027,3.027,0,0,0-.8-.392" transform="translate(-80.086 -14.866)" fill="#dfdfa4"/>
            <path id="Trazado_1294896" data-name="Trazado 1294896" d="M159.279,37.542l-.117.533.206.3a1,1,0,0,0-.089-.833" transform="translate(-83.882 -19.785)" fill="#dfdfa4"/>
            <path id="Trazado_1294897" data-name="Trazado 1294897" d="M158.677,37.942l-.437-.652.433.67Z" transform="translate(-83.396 -19.653)" fill="#dfdfa4"/>
            <path id="Trazado_1294898" data-name="Trazado 1294898" d="M159.642,39.379l-.052-.076c-.012.052-.011.076.052.076" transform="translate(-84.104 -20.714)" fill="#dfdfa4"/>
            <path id="Trazado_1294899" data-name="Trazado 1294899" d="M161.079,46.152c.429.19.291-.443.987.085-.465-.357-1.221-1.182-.987-.085" transform="translate(-84.869 -24.034)" fill="#dfdfa4"/>
            <path id="Trazado_1294900" data-name="Trazado 1294900" d="M159.375,40.841s.121.21.229.429l.222.432c.079-.074.115-.307.353-.143l-.4-.363c-.2-.183-.4-.355-.4-.355" transform="translate(-83.994 -21.524)" fill="#dfdfa4"/>
            <path id="Trazado_1294901" data-name="Trazado 1294901" d="M158.572,40.179l.38.313-.18-.312Z" transform="translate(-83.571 -21.175)" fill="#dfdfa4"/>
            <path id="Trazado_1294902" data-name="Trazado 1294902" d="M152.547,30.385a5.37,5.37,0,0,1-1.11-.9c.335.453.68.918,1.038,1.334.146-.026.478.01.072-.437" transform="translate(-79.811 -15.541)" fill="#dfdfa4"/>
            <path id="Trazado_1294903" data-name="Trazado 1294903" d="M156.346,34.859l-.076-.06c.009.067.029.11.076.06" transform="translate(-82.358 -18.34)" fill="#dfdfa4"/>
            <path id="Trazado_1294904" data-name="Trazado 1294904" d="M143.543,22.024l.015.11.06-.041Z" transform="translate(-75.65 -11.607)" fill="#dfdfa4"/>
            <path id="Trazado_1294905" data-name="Trazado 1294905" d="M153.566,32.427a1.273,1.273,0,0,0,.706.594,8.444,8.444,0,0,1-.71-.714c-.066.011-.1.031,0,.12" transform="translate(-80.898 -17.027)" fill="#dfdfa4"/>
            <path id="Trazado_1294906" data-name="Trazado 1294906" d="M149.529,26.293c.1.211.231.437.362.675-.052-.249-.23-.7-.362-.675" transform="translate(-78.805 -13.857)" fill="#dfdfa4"/>
            <path id="Trazado_1294907" data-name="Trazado 1294907" d="M156.268,34.333c.018.013.035.023.053.038-.018-.163-.04-.123-.053-.038" transform="translate(-82.357 -18.055)" fill="#dfdfa4"/>
            <path id="Trazado_1294908" data-name="Trazado 1294908" d="M155.669,34.1a2.554,2.554,0,0,0-.537-.283,4.675,4.675,0,0,0,.538.464.631.631,0,0,1,0-.182" transform="translate(-81.758 -17.822)" fill="#dfdfa4"/>
            <path id="Trazado_1294909" data-name="Trazado 1294909" d="M144.921,23.242l.218.215L145,23.4l.319.24a5.516,5.516,0,0,1-.688-1.3c-.626-.3-.818-.281-.933-.216l.724.66.5.455" transform="translate(-75.734 -11.64)" fill="#dfdfa4"/>
            <path id="Trazado_1294910" data-name="Trazado 1294910" d="M148.409,26.619c-.5.052-1.309-.457-1.2.25.831.778.8.331,1.408.7-1.357-1.277.535.232-.232-.908a7.49,7.49,0,0,1,.779.661c-.2-.28-.38-.559-.54-.836l.012.049.007.005-.006,0c.02.095.017.136-.026.049a.14.14,0,0,1-.034-.023.4.4,0,0,1-.168.046c-.317-.454.016-.137.168-.046a.288.288,0,0,0,.059-.026v-.009s-.364-.306-.751-.587l-.76-.57a12,12,0,0,0,1.282,1.24" transform="translate(-77.539 -13.375)" fill="#dfdfa4"/>
            <path id="Trazado_1294911" data-name="Trazado 1294911" d="M158.426,45.8a.1.1,0,0,1,.05-.1c-.105-.071-.158-.09-.05.1" transform="translate(-83.463 -24.057)" fill="#dfdfa4"/>
            <path id="Trazado_1294912" data-name="Trazado 1294912" d="M158.718,41.72l.045-.1c-.024-.016-.039.022-.045.1" transform="translate(-83.648 -21.935)" fill="#dfdfa4"/>
            <path id="Trazado_1294913" data-name="Trazado 1294913" d="M158.6,43.5c.1.377-.167.1-.27.188.231.156.726.614.467-.179l-.116-.079a4.7,4.7,0,0,1-.295-1.6,3.017,3.017,0,0,0-.3,1.2.9.9,0,0,1,.511.468" transform="translate(-83.317 -22.046)" fill="#dfdfa4"/>
            <path id="Trazado_1294914" data-name="Trazado 1294914" d="M152.383,34.4l-.576-.512.237.813.137-.166c.488.717.562.417.76.4l-.172-.168c-.1-.1-.239-.236-.386-.363" transform="translate(-80.006 -17.862)" fill="#dfdfa4"/>
            <path id="Trazado_1294915" data-name="Trazado 1294915" d="M143.225,20.921s-.269-.038-.547-.058l-.549-.045.662.3Z" transform="translate(-74.905 -10.971)" fill="#dfdfa4"/>
            <path id="Trazado_1294916" data-name="Trazado 1294916" d="M140.013,18.161s-.142-.038-.288-.07l-.288-.067.291.391Z" transform="translate(-73.486 -9.499)" fill="#dfdfa4"/>
            <path id="Trazado_1294917" data-name="Trazado 1294917" d="M36.923,14.889l.4.229a2.545,2.545,0,0,1,.993-.564c-.751.065-1.7.029-1.395.335" transform="translate(-19.429 -7.67)" fill="#dfdfa4"/>
            <path id="Trazado_1294918" data-name="Trazado 1294918" d="M97.814,1.9A6.493,6.493,0,0,0,96.4,1.472c.674.322,1.18.744,1.411.429" transform="translate(-50.807 -0.776)" fill="#dfdfa4"/>
            <path id="Trazado_1294919" data-name="Trazado 1294919" d="M9.262,132.842c.2.209.338.271.413.219-.2-.215-.355-.32-.413-.219" transform="translate(-4.881 -69.99)" fill="#dfdfa4"/>
            <path id="Trazado_1294920" data-name="Trazado 1294920" d="M94.53,1.179a2.063,2.063,0,0,0-1.68-.14c.1.049.2.078.3.12a5.309,5.309,0,0,1,1.38.019" transform="translate(-48.934 -0.484)" fill="#dfdfa4"/>
            <path id="Trazado_1294921" data-name="Trazado 1294921" d="M173.616,102.7a2.579,2.579,0,0,0,.068-.782c0,.19-.037.494-.068.782" transform="translate(-91.5 -53.713)" fill="#dfdfa4"/>
            <path id="Trazado_1294922" data-name="Trazado 1294922" d="M125.312,9.49c.405.166.084-.015,0,0" transform="translate(-66.042 -5.001)" fill="#dfdfa4"/>
            <path id="Trazado_1294923" data-name="Trazado 1294923" d="M127.409,14.545a.27.27,0,0,0-.244.1.342.342,0,0,1,.244-.1" transform="translate(-67.019 -7.666)" fill="#dfdfa4"/>
            <path id="Trazado_1294924" data-name="Trazado 1294924" d="M125.886,10.062a3.56,3.56,0,0,0-.443-.362,4.15,4.15,0,0,0,.443.362" transform="translate(-66.111 -5.112)" fill="#dfdfa4"/>
            <path id="Trazado_1294925" data-name="Trazado 1294925" d="M126.395,10.014l.322.21c.08-.036.056-.1-.322-.21" transform="translate(-66.613 -5.278)" fill="#dfdfa4"/>
            <path id="Trazado_1294926" data-name="Trazado 1294926" d="M124.684,9.233,124.12,9a4.4,4.4,0,0,1,.626.331c-.066-.061-.089-.1-.062-.1" transform="translate(-65.414 -4.744)" fill="#dfdfa4"/>
            <path id="Trazado_1294927" data-name="Trazado 1294927" d="M82.116,48.987c-.142.369-.4-.071-.64-.03,0,0,.061-.141.147-.354l.317-.784.317-.793c.087-.218.132-.365.132-.365-.295-.249-.257-.886-.218-1.5s.031-1.211-.257-1.343l.088.756c-.342-.516-.736-.175-1.174.245l-.135.127c.042-.752.069-1.508.069-2.271A39.608,39.608,0,0,0,68.242,13.735a.326.326,0,0,0,.077.042l.12-.179c-.357-.324-.7-.47-.557-.207-.315-.289-.639-.567-.963-.846.805.269,1.167-.98.99-2.018-.13.111-.216.207-1.107-.207.155.351,1.3,1.717.482,1.455-1.059-.66-.7-.74-1.048-1.281.1.6-1.285-.2-1.733.125a39.685,39.685,0,0,0-6.3-3.788c.065-.032.089-.085.031-.177l-.655-.218c-.411-.636,1.426.023.708-.513A11,11,0,0,1,59.84,6.2a5.093,5.093,0,0,1,.825.291,4.32,4.32,0,0,1,.8.526l-.074.626c.062-.159-.578-.732-.987-.76.3.022.648.449,1.022.817s.776.694,1.229.54l-.285-.421c-.14-.215-.3-.411-.3-.411.489.107,1.049.22,1.622.381a3.538,3.538,0,0,1,1.564.844c-.12-.786-.257-.107-.587-1.154.168,1.093-2.6-1.7-2.049-.315a2.092,2.092,0,0,0-.793-1.082,4.546,4.546,0,0,1-1.055-1.1c-.056.186.2.511-.67-.038a1.034,1.034,0,0,1-.275.049l-.055-.044.04.046c-.052.006-.058.009.015.017a1.149,1.149,0,0,1,.328.495,3.043,3.043,0,0,1-1.345-.222A7.307,7.307,0,0,0,57.5,4.964c-.5-.327.313-.1.1-.42l-.434-.009-.438.009c.095-.42-1.22-1.24.194-.95l-1.187-.488a4.616,4.616,0,0,0-2.261-.931c-.561-.256-1.6.034-1-.143l-1-.143-1.007-.1.006-.107a17.735,17.735,0,0,0-3.04-.353A9.4,9.4,0,0,1,44.217.676c-.337.029-.678.06-1.072.066a7.39,7.39,0,0,1-1.4-.062L41.535.307A11.281,11.281,0,0,1,39.871.236c-.587-.044-1.116-.064-1.289.15a1.79,1.79,0,0,0-1.1-.371,6.071,6.071,0,0,0-1.573.11c-.558.1-1.132.2-1.656.332a8.841,8.841,0,0,1-1.389.252l.035.481a8.512,8.512,0,0,0-1.519.4c-.257.088-.519.184-.793.288s-.55.241-.846.373l.189.387a5.719,5.719,0,0,1-1.951.577c-.389.071-.8.141-1.22.231a8.335,8.335,0,0,0-1.231.4c.05-.194.479-.317.8-.341a3.584,3.584,0,0,0-1.6.3,8.8,8.8,0,0,0-1.4.856c-.452.306-.867.661-1.306.929a3.99,3.99,0,0,1-1.383.558,1.7,1.7,0,0,1-.992.565.332.332,0,0,0,.09-.078,1.877,1.877,0,0,0-.17.092,5.72,5.72,0,0,0-.677.15,3.325,3.325,0,0,0,.587-.1,7.771,7.771,0,0,0-1.137.918L17.9,7.448c-.034.029-.064.047-.1.079-.543.149-.238.409.189.542a2.564,2.564,0,0,0-.428.628c-.768-.345-1,.992-1.924.737-.027.264-.514.738-.955,1.244a2.428,2.428,0,0,0-.671,1.3A2.75,2.75,0,0,0,12.8,13.149l-.583-.244-.2.725-.166.736c-.788.315-1.172.421-.952-.456a14.393,14.393,0,0,1-.789,1.556,5.382,5.382,0,0,0-.589,1.4l-.242-.3c-.345.462-.508,1.481-.965,1.562a9.587,9.587,0,0,0-2.6,3.13c-.957,1.575-1.937,3.413-2.89,4.811.639-.07.361.225.032.607s-.706.861-.331,1.076c-.313.084-.622.467-.636-.118a10.7,10.7,0,0,1-.714,1.946A2.292,2.292,0,0,0,1,31.277c-.306.117-.268-.456-.464-.332.016.149.07.585-.129.716s-.143-.3-.177-.594A3.389,3.389,0,0,0,.1,32.119a1.447,1.447,0,0,0,.227.67,1.932,1.932,0,0,0,.946.647,2.188,2.188,0,0,0-.455.974,1.66,1.66,0,0,0,.253.932c-.295.248-.639.705-.538-.361l-.207.8-.141.586c-.038.207-.072.421-.1.632-.117.843-.151,1.628.161,1.688-.167.172-.108.829-.051.989-.072.665-.118,1.027-.131,1.388s-.029.718-.017,1.375l.108-.363c.7.523.16,1.082.274,2.135l-.076-.027a5.153,5.153,0,0,0-.128,1.228,1.754,1.754,0,0,0,.084.5,1.516,1.516,0,0,1,.07.5c-.007.246-.034.611-.1,1.224l.434-.183c.5.054.421.582.289,1.278a3.944,3.944,0,0,0,.058,2.2l.164-.541c.22.34.018.911-.241,1.519a4.17,4.17,0,0,0-.52,1.638c-.033.185-.21-.223-.326-.44,0,2.133.645.106,1.188,1.522-.224.361-.893-.113-.641.892-.04.284.444.919.928,1.652a4.538,4.538,0,0,1,1.022,2.3c.1-.381.2-.749.66-.189a11.147,11.147,0,0,1,.532,1.925c.2.7.451,1.368,1.044,1.591.009.151-.022.228-.072.263.3.3.682.85,1.116,1.314a3.512,3.512,0,0,0,1.165.964,1.123,1.123,0,0,0,.168,1.226A6.27,6.27,0,0,0,8.4,67.842a11.4,11.4,0,0,1,1.125,1.09c.262.316.34.6.063.831,0,0,.422.469.861.921l.9.885-.151.055a4.456,4.456,0,0,0,1.351,1.146,3.241,3.241,0,0,0,1.026.327c.212.315-.08.239-.155.275a8.26,8.26,0,0,0,1.759,1.662,7.253,7.253,0,0,0,2.066.783l-.107.5c.295.044.87.691,1.7,1.383.206.176.424.359.656.538s.488.335.746.492a5.624,5.624,0,0,0,1.651.722.379.379,0,0,1-.324.07,19.531,19.531,0,0,1,3.741,1.995c1.191.69,2.3,1.08,3.014.42,0,0,.434.046.875.053l.873.029c-2.056-.722.515-.624-.263-1.14a2.6,2.6,0,0,1,1.162.57c.263.219.294.416-.222.324l-.135-.127c-.61.791,2.549.943,2.375,1.5,2.132.409,4.252.738,6.364.961a32.264,32.264,0,0,0,6.266.061l-.271-.315-.268-.322s.088,0,.22-.014l.483-.047.7-.07c.389.113.573.473-.445.574.587.325,1.653-.543,1.647-.712,2-.073-.633.932-.034.842l.817-.2-.2-.046c.309-.2.463-.375.691-.523a3.258,3.258,0,0,1,1.123-.4c.782-.038.483.327.787.284.009.048.116.047.463-.087,0,0,.112-.018.276-.062l.6-.15.879-.219-.845-.328c.689-.47,1.616-.44.651-.8.707.281,2.329-.151,3.816-.765.748-.294,1.449-.662,2.03-.916a5.6,5.6,0,0,1,1.2-.5,5.7,5.7,0,0,1,.634-.581,7.738,7.738,0,0,1,.683-.518c.479-.326,1.02-.605,1.593-.959-.343.085-.83-.332.171-.885.164.639.7.489,1.327.155a4.182,4.182,0,0,1,2.025-.733c-.518.022.119-.525.683-1.056s1.016-1.092.245-.982c.8-.555.35.324,1.107.063a12.722,12.722,0,0,1,1.243-1.358l1.473-1.318c.254-.227.521-.447.774-.687l.752-.742a11.491,11.491,0,0,0,1.379-1.655c-.1-.136-.6.085-.418-.549l.249-.107c.152-.063.349-.153.541-.247l.781-.38c.259-.526-.464-.957.57-1.515-.2.048-.49.114-.33-.234a22.8,22.8,0,0,0,4.043-7.519c.975-2.726,1.735-5.47,2.948-8.206-.456.72-.394.2-.3-.389M66.805,12.447q-.591-.5-1.2-.985a1.954,1.954,0,0,1,1.2.985m-1.434-1.2c0,.008-.013.012-.021.018l-.088-.069.109.052M54.717,3.032a.207.207,0,0,0-.039.01c-.612-.394-.4-.248.039-.01m-7.35-.421a8.9,8.9,0,0,1,1.372-.117c1.548.1.544.639.829.577a4.941,4.941,0,0,0,1.617.219,4.833,4.833,0,0,0,1.043-.144,2.483,2.483,0,0,1,2.227.439c.736.787-.294.969-.213,1.383a3.752,3.752,0,0,1-1.4-.559,4.552,4.552,0,0,0-1.1-.537l.918.51a2.906,2.906,0,0,1-1.625-.305,1.388,1.388,0,0,0,.364.24,39.54,39.54,0,0,0-5.639-1.086,2.971,2.971,0,0,1,.5-.281,4.967,4.967,0,0,1,1.1-.34m-7.976-.042c-.041.138.1.3.214.409Q39,3,38.4,3.038a2.987,2.987,0,0,1,.993-.469m-8.259.313c.08.007.677.046,1.313.118a6.023,6.023,0,0,1,1.584.348.432.432,0,0,1,.187.189c-.481.083-.962.169-1.437.27l-.178-.7-.02.744c-.469.1-.938.205-1.4.324a2.1,2.1,0,0,1-.047-1.294M23.94,5.327l.44.143.55-.443c.276-.223.565-.423.565-.423-.212.444-.59,1.183-1,1.947q-1,.46-1.974.97A4.684,4.684,0,0,1,23.94,5.327m-9.931,6.651a.519.519,0,0,0,.035.182c-.081-.065-.224-.007-.035-.182M11.824,14.53a1.73,1.73,0,0,0,.614.575c-.236.245-.475.488-.7.739.012-.236.027-.457.041-.649.029-.4.049-.665.049-.665M1.542,33.863c.142-.176.307.035.493.353-.023-.121-.047-.236-.073-.327.14-.211.267-.273.384-.246-.061.265-.127.527-.184.794l-.127-.221c.028.129.053.271.082.417-.025.119-.043.241-.066.361a6.136,6.136,0,0,0-.517.572s-.006-.426-.013-.852.021-.851.021-.851M50.988,83.021l-.3-.052c.588-.271.444-.115.3.052" transform="translate(0 0)" fill="#dfdfa4"/>
            <path id="Trazado_1294928" data-name="Trazado 1294928" d="M132.726,13.455c.034-.089-.017-.273.137-.219-.081-.04-.211-.1-.351-.158l-.442-.186a1.64,1.64,0,0,1,.656.562" transform="translate(-69.604 -6.795)" fill="#dfdfa4"/>
            <path id="Trazado_1294929" data-name="Trazado 1294929" d="M133.841,13.665a.437.437,0,0,1,.039.02l-.039-.02" transform="translate(-70.537 -7.202)" fill="#dfdfa4"/>
            <path id="Trazado_1294930" data-name="Trazado 1294930" d="M133.747,13.619l.044.021a.455.455,0,0,0-.044-.021" transform="translate(-70.488 -7.178)" fill="#dfdfa4"/>
            <path id="Trazado_1294931" data-name="Trazado 1294931" d="M133.723,17.4c-.153.37.415.542.97.865a.753.753,0,0,1-.092-.065c.462-.335-.2-.59-.877-.8" transform="translate(-70.462 -9.172)" fill="#dfdfa4"/>
            <path id="Trazado_1294932" data-name="Trazado 1294932" d="M136.561,19.726c.187-.131-.17-.176-.488-.335a3.2,3.2,0,0,1,.488.335" transform="translate(-71.714 -10.219)" fill="#dfdfa4"/>
            <path id="Trazado_1294933" data-name="Trazado 1294933" d="M121.658,8.44c.244.219.377-.368.476-.152.515-.312-2.145-.306-.476.152" transform="translate(-63.823 -4.254)" fill="#dfdfa4"/>
            <path id="Trazado_1294934" data-name="Trazado 1294934" d="M132.715,19.648l.072-.516-.5.131Z" transform="translate(-69.716 -10.083)" fill="#dfdfa4"/>
            <path id="Trazado_1294935" data-name="Trazado 1294935" d="M124.531,14.335l.831.573c.024-.077.159-.06.315-.02-.543-.3-1.106-.69-1.147-.553" transform="translate(-65.631 -7.54)" fill="#dfdfa4"/>
            <path id="Trazado_1294936" data-name="Trazado 1294936" d="M127.7,15.866a4.167,4.167,0,0,0-.742-.33,2.357,2.357,0,0,0,.742.33" transform="translate(-66.909 -8.188)" fill="#dfdfa4"/>
            <path id="Trazado_1294937" data-name="Trazado 1294937" d="M101.214,7.035c.277-.066.689-.056.553-.239l-1.1-.059c-.136.141.14.291.55.3" transform="translate(-53.034 -3.551)" fill="#dfdfa4"/>
            <path id="Trazado_1294938" data-name="Trazado 1294938" d="M175.384,94.348s.072-.215.124-.432l.112-.435-.339.551Z" transform="translate(-92.377 -49.267)" fill="#dfdfa4"/>
            <path id="Trazado_1294939" data-name="Trazado 1294939" d="M174.723,90.743l-.543-.524c.023.194.066.574-.076.719Z" transform="translate(-91.757 -47.547)" fill="#dfdfa4"/>
          </g>
        </g>
      </g>
      <g id="Grupo_1208131" data-name="Grupo 1208131" transform="translate(716.711 17101.379)">
        <g id="Grupo_1208130" data-name="Grupo 1208130" clip-path="url(#clip-path-2)">
          <path id="Trazado_1404178" data-name="Trazado 1404178" d="M66.512,191.064v12.242a3.557,3.557,0,0,1-.126.946,1.818,1.818,0,0,1-1.621.971H2.242a1.817,1.817,0,0,1-1.616-.971,3.574,3.574,0,0,1-.126-.946V191.064a1.829,1.829,0,0,0,1.742,1.264H64.765a1.83,1.83,0,0,0,1.747-1.264m-2.256,6.4v-4.148H53.272v4.148H64.255Zm-18.79,3.124a2.422,2.422,0,0,0-2.357-2.335.767.767,0,0,0-.9.758v.331a36.73,36.73,0,0,1-9.62,1.507,18.526,18.526,0,0,1-7.79-1.507v-.331a.768.768,0,0,0-.884-.762c-.963.139-2.37.632-2.37,2.292a2.428,2.428,0,0,0,2.357,2.335.772.772,0,0,0,.9-.762s1.464,1.991,7.912,1.991c7.25,0,9.5-1.991,9.5-1.991a.768.768,0,0,0,.885.762c.963-.139,2.37-.632,2.37-2.287m-8.591-8.247H30.142v2.849h6.731ZM14.3,197.46v-4.148H3.314v4.148H14.3Z" transform="translate(-0.282 -107.646)" fill="#a6c490"/>
          <path id="Trazado_1404179" data-name="Trazado 1404179" d="M66.512,187.093v1.734a1.831,1.831,0,0,1-1.747,1.264H2.243A1.829,1.829,0,0,1,.5,188.827v-1.734a1.82,1.82,0,0,0,1.743,1.264H64.765a1.826,1.826,0,0,0,1.747-1.264" transform="translate(-0.282 -105.408)" fill="#fdebe0"/>
          <path id="Trazado_1404180" data-name="Trazado 1404180" d="M66.512,178.841v1.146a1.825,1.825,0,0,1-1.747,1.264H2.243A1.82,1.82,0,0,1,.5,179.987v-1.146a2.1,2.1,0,0,1,.109-.253l1.568-3.106a1.843,1.843,0,0,1,1.638-1H63.2a1.826,1.826,0,0,1,1.634,1l1.573,3.106a2.1,2.1,0,0,1,.109.253" transform="translate(-0.282 -98.302)" fill="#322222"/>
          <path id="Trazado_1404181" data-name="Trazado 1404181" d="M64.928,222.241a1.819,1.819,0,0,0,1.621-.971,3.733,3.733,0,0,1-3.625,2.8H4.414a3.733,3.733,0,0,1-3.625-2.8,1.817,1.817,0,0,0,1.616.971Z" transform="translate(-0.445 -124.664)" fill="#fdebe0"/>
          <path id="Trazado_1404182" data-name="Trazado 1404182" d="M66.945,102.406v24.227a4.637,4.637,0,0,1-4.631,4.631H8.544a4.637,4.637,0,0,1-4.631-4.631V102.406a4.637,4.637,0,0,1,4.631-4.631h53.77a4.637,4.637,0,0,1,4.631,4.631m-1.325,24.227V102.406A3.314,3.314,0,0,0,62.314,99.1H8.544a3.31,3.31,0,0,0-3.306,3.307v24.227a3.31,3.31,0,0,0,3.306,3.307h53.77a3.314,3.314,0,0,0,3.307-3.307" transform="translate(-2.205 -55.087)" fill="#fdebe0"/>
          <path id="Trazado_1404183" data-name="Trazado 1404183" d="M139.438,196.214v4.148h-5.494v-.706a1.37,1.37,0,1,0,0-2.741v-.7Z" transform="translate(-75.464 -110.547)" fill="#809d6a"/>
          <path id="Trazado_1404184" data-name="Trazado 1404184" d="M67.33,104.115v24.227a3.314,3.314,0,0,1-3.307,3.307H10.253a3.31,3.31,0,0,1-3.306-3.307V104.115a3.31,3.31,0,0,1,3.306-3.307h53.77a3.314,3.314,0,0,1,3.307,3.307" transform="translate(-3.914 -56.795)" fill="#fdebe0"/>
          <path id="Trazado_1404185" data-name="Trazado 1404185" d="M132.179,197.82a1.37,1.37,0,1,1-1.368,1.372,1.372,1.372,0,0,1,1.368-1.372" transform="translate(-73.699 -111.452)" fill="#fdebe0"/>
          <path id="Trazado_1404186" data-name="Trazado 1404186" d="M126.86,199.656v.706h-5.489v-4.148h5.489v.7a1.37,1.37,0,0,0,0,2.741" transform="translate(-68.381 -110.547)" fill="#809d6a"/>
          <path id="Trazado_1404187" data-name="Trazado 1404187" d="M96.933,207.506a2.422,2.422,0,0,1,2.357,2.335c0,1.655-1.407,2.148-2.37,2.287a.768.768,0,0,1-.885-.762v-3.1a.767.767,0,0,1,.9-.758" transform="translate(-54.106 -116.903)" fill="#fdebe0"/>
          <path id="Trazado_1404188" data-name="Trazado 1404188" d="M73.57,210.014v2.771s-2.248,1.991-9.5,1.991c-6.448,0-7.912-1.991-7.912-1.991v-2.771a18.518,18.518,0,0,0,7.789,1.508,36.721,36.721,0,0,0,9.62-1.508" transform="translate(-31.641 -118.322)" fill="#322222"/>
          <rect id="Rectángulo_458612" data-name="Rectángulo 458612" width="6.731" height="2.849" transform="translate(29.861 84.691)" fill="#809d6a"/>
          <path id="Trazado_1404189" data-name="Trazado 1404189" d="M51.961,208.592v2.771a.773.773,0,0,1-.9.763,2.429,2.429,0,0,1-2.357-2.335c0-1.66,1.407-2.152,2.37-2.292a.769.769,0,0,1,.885.763Z" transform="translate(-27.442 -116.9)" fill="#fdebe0"/>
          <path id="Trazado_1404190" data-name="Trazado 1404190" d="M25.023,196.214v4.148H19.529v-.706a1.37,1.37,0,1,0,0-2.741v-.7Z" transform="translate(-11.003 -110.547)" fill="#809d6a"/>
          <path id="Trazado_1404191" data-name="Trazado 1404191" d="M17.758,197.82a1.37,1.37,0,1,1-1.372,1.372,1.375,1.375,0,0,1,1.372-1.372" transform="translate(-9.232 -111.452)" fill="#fdebe0"/>
          <path id="Trazado_1404192" data-name="Trazado 1404192" d="M12.44,199.656v.706H6.946v-4.148H12.44v.7a1.37,1.37,0,1,0,0,2.741" transform="translate(-3.913 -110.547)" fill="#809d6a"/>
          <path id="Trazado_1404193" data-name="Trazado 1404193" d="M64.483,205.16H1.961a2.044,2.044,0,0,1-1.809-1.088.22.22,0,0,1-.017-.045,3.77,3.77,0,0,1-.134-1V190.782a.218.218,0,0,1,.426-.069,1.618,1.618,0,0,0,1.536,1.114H64.483a1.621,1.621,0,0,0,1.54-1.114.216.216,0,0,1,.242-.147.218.218,0,0,1,.183.215v12.242a3.793,3.793,0,0,1-.134,1,.2.2,0,0,1-.018.045,2.047,2.047,0,0,1-1.814,1.088M.549,203.888a1.608,1.608,0,0,0,1.412.835H64.483a1.591,1.591,0,0,0,1.417-.835,3.336,3.336,0,0,0,.112-.864V191.583a2.054,2.054,0,0,1-1.529.68H1.961a2.047,2.047,0,0,1-1.525-.68v11.44a3.352,3.352,0,0,0,.112.864" transform="translate(0 -107.363)" fill="#322222"/>
          <path id="Trazado_1404194" data-name="Trazado 1404194" d="M132.072,200.3H121.089a.218.218,0,0,1-.218-.218v-4.148a.218.218,0,0,1,.218-.218h10.983a.218.218,0,0,1,.218.218v4.148a.218.218,0,0,1-.218.218m-10.765-.437h10.546V196.15H121.308Z" transform="translate(-68.099 -110.265)" fill="#322222"/>
          <path id="Trazado_1404195" data-name="Trazado 1404195" d="M59.591,213.29c-5.044,0-7.1-1.207-7.789-1.783a.986.986,0,0,1-.25.326,1,1,0,0,1-.8.226c-1.64-.275-2.541-1.18-2.541-2.551A2.59,2.59,0,0,1,50.764,207a.987.987,0,0,1,1.134.979v.193A19.044,19.044,0,0,0,59.47,209.6a36.664,36.664,0,0,0,9.4-1.451v-.169a.985.985,0,0,1,1.152-.973,2.632,2.632,0,0,1,2.54,2.55,2.588,2.588,0,0,1-2.557,2.5.986.986,0,0,1-1.061-.6c-.811.525-3.429,1.835-9.352,1.835m-7.912-2.427a.218.218,0,0,1,.176.089c.014.017,1.519,1.9,7.736,1.9,7.051,0,9.331-1.917,9.353-1.937a.219.219,0,0,1,.362.164.546.546,0,0,0,.191.419.561.561,0,0,0,.443.127c1-.145,2.184-.621,2.184-2.072s-1.182-1.959-2.174-2.12a.555.555,0,0,0-.451.123.549.549,0,0,0-.193.42v.331a.218.218,0,0,1-.152.208,37.267,37.267,0,0,1-9.685,1.518,18.578,18.578,0,0,1-7.889-1.531.218.218,0,0,1-.119-.195v-.331a.544.544,0,0,0-.191-.419.556.556,0,0,0-.443-.127c-1,.145-2.184.621-2.184,2.076s1.182,1.954,2.175,2.12a.559.559,0,0,0,.451-.127.545.545,0,0,0,.193-.42.218.218,0,0,1,.15-.207.215.215,0,0,1,.068-.011" transform="translate(-27.16 -116.618)" fill="#322222"/>
          <path id="Trazado_1404196" data-name="Trazado 1404196" d="M74.844,196.764H68.113a.218.218,0,0,1-.218-.218V193.7a.218.218,0,0,1,.218-.218h6.731a.218.218,0,0,1,.218.218v2.849a.218.218,0,0,1-.218.218m-6.513-.437h6.294v-2.412H68.332Z" transform="translate(-38.252 -109.006)" fill="#322222"/>
          <path id="Trazado_1404197" data-name="Trazado 1404197" d="M17.652,200.3H6.664a.218.218,0,0,1-.218-.218v-4.148a.218.218,0,0,1,.218-.218H17.652a.218.218,0,0,1,.218.218v4.148a.218.218,0,0,1-.218.218m-10.769-.437H17.433V196.15H6.883Z" transform="translate(-3.632 -110.265)" fill="#322222"/>
          <path id="Trazado_1404198" data-name="Trazado 1404198" d="M64.483,190.028H1.961a2.054,2.054,0,0,1-1.95-1.413A.227.227,0,0,1,0,188.546v-1.734a.218.218,0,0,1,.184-.216.222.222,0,0,1,.242.148,1.6,1.6,0,0,0,1.536,1.113H64.483a1.6,1.6,0,0,0,1.54-1.113.223.223,0,0,1,.242-.148.219.219,0,0,1,.184.216v1.734a.228.228,0,0,1-.011.069,2.057,2.057,0,0,1-1.955,1.413M.437,188.51a1.618,1.618,0,0,0,1.525,1.081H64.483a1.621,1.621,0,0,0,1.529-1.081v-.9a2.054,2.054,0,0,1-1.529.679H1.961a2.025,2.025,0,0,1-1.525-.671Z" transform="translate(0 -105.127)" fill="#322222"/>
          <path id="Trazado_1404199" data-name="Trazado 1404199" d="M64.483,181.187H1.961a2.025,2.025,0,0,1-1.95-1.414A.214.214,0,0,1,0,179.705v-1.146a.214.214,0,0,1,.014-.076,2.328,2.328,0,0,1,.121-.279L1.7,175.1a2.048,2.048,0,0,1,1.833-1.122H62.915a2.036,2.036,0,0,1,1.829,1.123l1.572,3.106a2.25,2.25,0,0,1,.119.275.225.225,0,0,1,.014.076v1.146a.227.227,0,0,1-.011.068,2.054,2.054,0,0,1-1.955,1.414M.437,179.669a1.594,1.594,0,0,0,1.525,1.081H64.483a1.6,1.6,0,0,0,1.529-1.081V178.6a1.653,1.653,0,0,0-.084-.19l-1.574-3.11a1.6,1.6,0,0,0-1.439-.882H3.534a1.635,1.635,0,0,0-1.444.883L.522,178.4a1.733,1.733,0,0,0-.086.194Z" transform="translate(0 -98.02)" fill="#322222"/>
          <path id="Trazado_1404200" data-name="Trazado 1404200" d="M62.642,224.007H4.133A3.952,3.952,0,0,1,.3,221.042a.218.218,0,0,1,.4-.157,1.609,1.609,0,0,0,1.424.856H64.646a1.591,1.591,0,0,0,1.428-.856.218.218,0,0,1,.4.157,3.952,3.952,0,0,1-3.836,2.965M1.149,221.931a3.525,3.525,0,0,0,2.984,1.639h58.51a3.526,3.526,0,0,0,2.985-1.64,2.061,2.061,0,0,1-.981.247H2.124a2.047,2.047,0,0,1-.975-.246" transform="translate(-0.163 -124.381)" fill="#322222"/>
          <path id="Trazado_1404201" data-name="Trazado 1404201" d="M62.032,131.2H8.266a4.856,4.856,0,0,1-4.854-4.849V102.124a4.855,4.855,0,0,1,4.85-4.849h53.77a4.855,4.855,0,0,1,4.849,4.849v24.228a4.855,4.855,0,0,1-4.849,4.849M8.262,97.712a4.418,4.418,0,0,0-4.413,4.413v24.228a4.418,4.418,0,0,0,4.413,4.412h53.77a4.418,4.418,0,0,0,4.413-4.412V102.124a4.418,4.418,0,0,0-4.413-4.413Z" transform="translate(-1.922 -54.805)" fill="#322222"/>
          <path id="Trazado_1404202" data-name="Trazado 1404202" d="M63.741,131.586H9.971a3.529,3.529,0,0,1-3.525-3.525V103.833a3.529,3.529,0,0,1,3.525-3.525h53.77a3.529,3.529,0,0,1,3.525,3.525V128.06a3.529,3.529,0,0,1-3.525,3.525M9.971,100.745a3.092,3.092,0,0,0-3.089,3.089V128.06a3.092,3.092,0,0,0,3.089,3.089h53.77a3.092,3.092,0,0,0,3.088-3.089V103.833a3.092,3.092,0,0,0-3.088-3.089Z" transform="translate(-3.632 -56.514)" fill="#322222"/>
          <path id="Trazado_1404203" data-name="Trazado 1404203" d="M63.741,131.586H9.971a3.529,3.529,0,0,1-3.525-3.525V103.833a3.529,3.529,0,0,1,3.525-3.525h53.77a3.529,3.529,0,0,1,3.525,3.525V128.06a3.529,3.529,0,0,1-3.525,3.525M9.971,100.745a3.092,3.092,0,0,0-3.089,3.089V128.06a3.092,3.092,0,0,0,3.089,3.089h53.77a3.092,3.092,0,0,0,3.088-3.089V103.833a3.092,3.092,0,0,0-3.088-3.089Z" transform="translate(-3.632 -56.514)" fill="#322222"/>
          <path id="Trazado_1404204" data-name="Trazado 1404204" d="M131.9,200.5a1.588,1.588,0,1,1,1.591-1.586A1.588,1.588,0,0,1,131.9,200.5m0-2.74a1.152,1.152,0,1,0,1.154,1.154,1.153,1.153,0,0,0-1.154-1.154" transform="translate(-73.417 -111.171)" fill="#322222"/>
          <path id="Trazado_1404205" data-name="Trazado 1404205" d="M132.072,200.3H121.089a.218.218,0,0,1-.218-.218v-4.148a.218.218,0,0,1,.218-.218h10.983a.218.218,0,0,1,.218.218v4.148a.218.218,0,0,1-.218.218m-10.765-.437h10.546V196.15H121.308Z" transform="translate(-68.099 -110.265)" fill="#322222"/>
          <path id="Trazado_1404206" data-name="Trazado 1404206" d="M96.523,212.073a.986.986,0,0,1-.988-.989v-3.1a.985.985,0,0,1,1.151-.973,2.633,2.633,0,0,1,2.54,2.55,2.588,2.588,0,0,1-2.557,2.5.967.967,0,0,1-.146.011m0-4.641a.548.548,0,0,0-.551.55v3.1a.544.544,0,0,0,.191.419.56.56,0,0,0,.443.127c1-.145,2.184-.621,2.184-2.072s-1.182-1.958-2.174-2.119h0a.549.549,0,0,0-.093-.008" transform="translate(-53.824 -116.621)" fill="#322222"/>
          <path id="Trazado_1404207" data-name="Trazado 1404207" d="M63.791,214.712c-6.483,0-8.025-1.995-8.088-2.08a.218.218,0,0,1-.042-.129v-2.771a.219.219,0,0,1,.317-.195,18.51,18.51,0,0,0,7.691,1.484,36.8,36.8,0,0,0,9.554-1.5.218.218,0,0,1,.283.208V212.5a.217.217,0,0,1-.073.163c-.094.084-2.393,2.046-9.642,2.046M56.1,212.421c.281.295,2.038,1.854,7.693,1.854,6.359,0,8.838-1.559,9.279-1.88v-2.371a37.034,37.034,0,0,1-9.4,1.433,19.541,19.541,0,0,1-7.572-1.385Z" transform="translate(-31.359 -118.04)" fill="#322222"/>
          <path id="Trazado_1404208" data-name="Trazado 1404208" d="M74.844,196.764H68.113a.218.218,0,0,1-.218-.218V193.7a.218.218,0,0,1,.218-.218h6.731a.218.218,0,0,1,.218.218v2.849a.218.218,0,0,1-.218.218m-6.513-.437h6.294v-2.412H68.332Z" transform="translate(-38.252 -109.006)" fill="#322222"/>
          <path id="Trazado_1404209" data-name="Trazado 1404209" d="M50.905,212.072a1.007,1.007,0,0,1-.157-.013c-1.639-.275-2.541-1.18-2.541-2.551A2.59,2.59,0,0,1,50.764,207a.987.987,0,0,1,1.134.979v3.1a.99.99,0,0,1-.993.991m0-4.645a.586.586,0,0,0-.083.006c-1,.145-2.184.621-2.184,2.076s1.182,1.954,2.175,2.12a.556.556,0,0,0,.45-.127.544.544,0,0,0,.193-.42v-3.1a.546.546,0,0,0-.191-.419.552.552,0,0,0-.361-.134" transform="translate(-27.16 -116.618)" fill="#322222"/>
          <path id="Trazado_1404210" data-name="Trazado 1404210" d="M17.477,200.5a1.588,1.588,0,1,1,1.591-1.586,1.59,1.59,0,0,1-1.591,1.586m0-2.74a1.152,1.152,0,1,0,1.154,1.154,1.155,1.155,0,0,0-1.154-1.154" transform="translate(-8.95 -111.171)" fill="#322222"/>
          <path id="Trazado_1404211" data-name="Trazado 1404211" d="M17.652,200.3H6.664a.218.218,0,0,1-.218-.218v-4.148a.218.218,0,0,1,.218-.218H17.652a.218.218,0,0,1,.218.218v4.148a.218.218,0,0,1-.218.218m-10.769-.437H17.433V196.15H6.883Z" transform="translate(-3.632 -110.265)" fill="#322222"/>
          <path id="Trazado_1404212" data-name="Trazado 1404212" d="M69.222,176.2H32.112a7.528,7.528,0,0,1,7.3-5.716h.031a7.239,7.239,0,0,0,5.049-1.991,10.781,10.781,0,0,1,15.584.745,7.554,7.554,0,0,0,3.581,2.231,9.135,9.135,0,0,1,5.564,4.731" transform="translate(-18.092 -93.254)" fill="#5f3636"/>
          <path id="Trazado_1404213" data-name="Trazado 1404213" d="M68.94,176.139H31.83a.218.218,0,0,1-.212-.271,7.731,7.731,0,0,1,7.513-5.882h.035a7.03,7.03,0,0,0,4.894-1.931,11,11,0,0,1,15.9.761,7.338,7.338,0,0,0,3.478,2.164,9.357,9.357,0,0,1,5.7,4.844.218.218,0,0,1-.2.314M32.115,175.7H68.582a8.915,8.915,0,0,0-5.268-4.3,7.779,7.779,0,0,1-3.683-2.3,10.562,10.562,0,0,0-15.268-.73,7.447,7.447,0,0,1-5.164,2.051h-.037a7.3,7.3,0,0,0-7.047,5.279" transform="translate(-17.81 -92.972)" fill="#322222"/>
          <path id="Trazado_1404214" data-name="Trazado 1404214" d="M50.709,181.927a.436.436,0,0,0,0,.871.436.436,0,0,0,0-.871" transform="translate(-28.332 -102.498)" fill="#322222"/>
          <path id="Trazado_1404215" data-name="Trazado 1404215" d="M60.326,177.766a.436.436,0,0,0,0,.871.436.436,0,0,0,0-.871" transform="translate(-33.751 -100.153)" fill="#322222"/>
          <path id="Trazado_1404216" data-name="Trazado 1404216" d="M60.233,183.777a.436.436,0,0,0,0,.871.436.436,0,0,0,0-.871" transform="translate(-33.698 -103.54)" fill="#322222"/>
          <path id="Trazado_1404217" data-name="Trazado 1404217" d="M88.065,174.715a.436.436,0,0,0,0,.871.436.436,0,0,0,0-.871" transform="translate(-49.379 -98.435)" fill="#322222"/>
          <path id="Trazado_1404218" data-name="Trazado 1404218" d="M101.75,181.927a.436.436,0,0,0,0,.871.436.436,0,0,0,0-.871" transform="translate(-57.089 -102.498)" fill="#322222"/>
          <path id="Trazado_1404219" data-name="Trazado 1404219" d="M90.1,184.886a.436.436,0,0,0,0,.871.436.436,0,0,0,0-.871" transform="translate(-50.525 -104.165)" fill="#322222"/>
          <path id="Trazado_1404220" data-name="Trazado 1404220" d="M43.127,184.424a.436.436,0,0,0,0,.871.436.436,0,0,0,0-.871" transform="translate(-24.061 -103.905)" fill="#322222"/>
          <path id="Trazado_1404221" data-name="Trazado 1404221" d="M50.973,85.9a10.184,10.184,0,0,0-10.787.007,28.747,28.747,0,0,0,6.35,6.672A18.55,18.55,0,0,0,54.7,95.227,9.041,9.041,0,0,0,50.973,85.9" transform="translate(-22.641 -47.528)" fill="#809d6a"/>
          <path id="Trazado_1404222" data-name="Trazado 1404222" d="M54.421,95.172H54.4a18.514,18.514,0,0,1-8.264-2.682,28.812,28.812,0,0,1-6.4-6.721.218.218,0,0,1,.06-.318,10.445,10.445,0,0,1,11.022,0h0A9.211,9.211,0,0,1,54.634,95a.218.218,0,0,1-.213.172M40.226,85.7a27.775,27.775,0,0,0,6.15,6.429,17.914,17.914,0,0,0,7.871,2.586,8.77,8.77,0,0,0-3.676-8.9A9.982,9.982,0,0,0,40.226,85.7" transform="translate(-22.359 -47.256)" fill="#322222"/>
          <path id="Trazado_1404223" data-name="Trazado 1404223" d="M44.943,118.622a10.185,10.185,0,0,1,5.9,9.033,28.753,28.753,0,0,1-9.06-1.665A18.553,18.553,0,0,1,35.1,120.6a9.041,9.041,0,0,1,9.846-1.98" transform="translate(-19.774 -66.446)" fill="#809d6a"/>
          <path id="Trazado_1404224" data-name="Trazado 1404224" d="M50.556,127.579h-.015a28.8,28.8,0,0,1-9.129-1.682,18.513,18.513,0,0,1-6.765-5.449.218.218,0,0,1,.013-.293,9.209,9.209,0,0,1,10.087-2.028h0a10.438,10.438,0,0,1,6.028,9.227.218.218,0,0,1-.218.225m-15.446-7.257a17.909,17.909,0,0,0,6.47,5.172,27.785,27.785,0,0,0,8.747,1.632,9.981,9.981,0,0,0-5.753-8.6,8.767,8.767,0,0,0-9.464,1.794" transform="translate(-19.492 -66.15)" fill="#322222"/>
          <path id="Trazado_1404225" data-name="Trazado 1404225" d="M73.12,134.714s-.83-5.5,2.925-9.145,9.79-3.189,9.79-3.189.269,6.041-3.488,9.686-9.227,2.648-9.227,2.648" transform="translate(-41.152 -68.939)" fill="#809d6a"/>
          <path id="Trazado_1404226" data-name="Trazado 1404226" d="M74.54,134.763a11,11,0,0,1-1.733-.121.219.219,0,0,1-.177-.182c-.008-.056-.8-5.656,2.989-9.334s9.708-3.268,9.959-3.25a.218.218,0,0,1,.2.208c.011.251.231,6.181-3.554,9.852a10.992,10.992,0,0,1-7.685,2.827m-1.5-.527c.916.122,5.6.566,8.878-2.613s3.429-8.257,3.425-9.321c-1.063-.036-6.16-.028-9.423,3.137-3.281,3.182-2.976,7.878-2.88,8.8" transform="translate(-40.878 -68.653)" fill="#322222"/>
          <path id="Trazado_1404227" data-name="Trazado 1404227" d="M74.368,72.412a24.331,24.331,0,0,0-.823-9.77c-.255-.8-1.52-.458-1.263.348,1.861,5.846.573,12-.774,17.81a86.329,86.329,0,0,0-1.768,8.991,33.1,33.1,0,0,0,2.918,18.19c.357.763,1.487.1,1.131-.661A32.061,32.061,0,0,1,71,90.206c.67-6.013,2.775-11.765,3.367-17.794" transform="translate(-39.152 -35.036)" fill="#322222"/>
          <path id="Trazado_1404228" data-name="Trazado 1404228" d="M73.12,104.664s-.83-5.5,2.925-9.145,9.79-3.189,9.79-3.189.269,6.041-3.488,9.686-9.227,2.648-9.227,2.648" transform="translate(-41.152 -52.009)" fill="#809d6a"/>
          <path id="Trazado_1404229" data-name="Trazado 1404229" d="M74.541,104.714a11.071,11.071,0,0,1-1.734-.121.219.219,0,0,1-.177-.182c-.008-.056-.8-5.656,2.989-9.334s9.709-3.268,9.959-3.25a.218.218,0,0,1,.2.208c.011.251.231,6.181-3.554,9.852a10.992,10.992,0,0,1-7.684,2.827m-1.5-.527c.916.124,5.6.565,8.878-2.613s3.429-8.257,3.425-9.321c-1.063-.036-6.16-.028-9.423,3.137-3.281,3.182-2.976,7.878-2.88,8.8" transform="translate(-40.878 -51.723)" fill="#322222"/>
          <path id="Trazado_1404230" data-name="Trazado 1404230" d="M64.275,20.216A11.149,11.149,0,0,0,53.124,31.367s0,.1.011.291c.017.335.056.95.179,1.772.006.034.011.073.017.106.581,3.739,2.74,8.935,10.929,15.028,8.529-5.455,10.546-11.579,11.015-15.4v-.005a10.042,10.042,0,0,0,.14-1.649c.006-.117.006-.2.006-.218v-.006A11.15,11.15,0,0,0,64.275,20.216m0,17.646a7.082,7.082,0,1,1,7.082-7.082,7.085,7.085,0,0,1-7.082,7.082" transform="translate(-29.93 -11.39)" fill="#f0b068"/>
          <path id="Trazado_1404231" data-name="Trazado 1404231" d="M63.979,48.5a.219.219,0,0,1-.13-.043c-6.587-4.9-10.189-9.862-11.014-15.169l-.017-.1c-.093-.622-.152-1.208-.182-1.8-.011-.2-.011-.3-.011-.3a11.366,11.366,0,0,1,22.732-.08c0,.031,0,.113-.006.235a10.238,10.238,0,0,1-.143,1.674c-.747,6.079-4.486,11.311-11.113,15.55a.216.216,0,0,1-.117.034m.015-28.347A10.945,10.945,0,0,0,53.062,31.086s0,.1.01.278c.029.578.087,1.15.177,1.753l.016.1c.8,5.158,4.31,10,10.722,14.8,6.433-4.15,10.063-9.25,10.789-15.157a10.008,10.008,0,0,0,.138-1.628c.006-.122.006-.2.006-.218a10.961,10.961,0,0,0-10.927-10.86" transform="translate(-29.649 -11.109)" fill="#322222"/>
          <path id="Trazado_1404232" data-name="Trazado 1404232" d="M69.238,42.292a7.3,7.3,0,1,1,7.3-7.3,7.311,7.311,0,0,1-7.3,7.3m0-14.163A6.863,6.863,0,1,0,76.1,34.992a6.874,6.874,0,0,0-6.863-6.863" transform="translate(-34.893 -15.602)" fill="#322222"/>
          <path id="Trazado_1404233" data-name="Trazado 1404233" d="M77.57,7.5h0a.218.218,0,0,1-.217-.219L77.378.025,77.6,0l.218.026-.026,7.257a.218.218,0,0,1-.218.217" transform="translate(-43.58)" fill="#322222"/>
          <path id="Trazado_1404234" data-name="Trazado 1404234" d="M66.164,12.1a.218.218,0,0,1-.211-.163L64.706,7.154a.218.218,0,0,1,.423-.11l1.247,4.786a.218.218,0,0,1-.211.273" transform="translate(-36.451 -3.877)" fill="#322222"/>
          <path id="Trazado_1404235" data-name="Trazado 1404235" d="M52.481,24.663a.214.214,0,0,1-.125-.04l-1.9-1.336a.218.218,0,1,1,.251-.357l1.9,1.336a.218.218,0,0,1-.126.4" transform="translate(-28.376 -12.896)" fill="#322222"/>
          <path id="Trazado_1404236" data-name="Trazado 1404236" d="M57.31,17.757a.219.219,0,0,1-.185-.1l-2.3-3.625A.218.218,0,0,1,55.2,13.8l2.3,3.624a.219.219,0,0,1-.184.335" transform="translate(-30.871 -7.716)" fill="#322222"/>
          <path id="Trazado_1404237" data-name="Trazado 1404237" d="M86.1,10.573a.218.218,0,0,1-.211-.273l1.247-4.785a.218.218,0,0,1,.422.11L86.307,10.41a.218.218,0,0,1-.21.163" transform="translate(-48.384 -3.015)" fill="#322222"/>
          <path id="Trazado_1404238" data-name="Trazado 1404238" d="M98.939,23.132a.218.218,0,0,1-.126-.4l1.9-1.336a.218.218,0,0,1,.251.357l-1.9,1.336a.218.218,0,0,1-.125.04" transform="translate(-55.619 -12.034)" fill="#322222"/>
          <path id="Trazado_1404239" data-name="Trazado 1404239" d="M93.6,16.226a.215.215,0,0,1-.117-.034.218.218,0,0,1-.068-.3l2.3-3.624a.218.218,0,0,1,.369.234l-2.3,3.625a.219.219,0,0,1-.185.1" transform="translate(-52.609 -6.854)" fill="#322222"/>
        </g>
      </g>
    </g>
  </g>
</svg>
