<svg xmlns="http://www.w3.org/2000/svg" xmlns:xlink="http://www.w3.org/1999/xlink" width="94.057" height="89.148" viewBox="0 0 94.057 89.148">
  <defs>
    <clipPath id="clip-path">
      <rect id="Rectángulo_456684" data-name="Rectángulo 456684" width="88.313" height="89.148" fill="#dfdfa4"/>
    </clipPath>
  </defs>
  <g id="Grupo_1208300" data-name="Grupo 1208300" transform="translate(-723.369 -2141.08)">
    <rect id="Rectángulo_457267" data-name="Rectángulo 457267" width="94" height="81.3" transform="translate(723.426 2146.754)" fill="none"/>
    <g id="Grupo_1207169" data-name="Grupo 1207169" transform="translate(729.113 2141.08)">
      <g id="Grupo_1206514" data-name="Grupo 1206514">
        <g id="Grupo_1206513" data-name="Grupo 1206513" clip-path="url(#clip-path)">
          <path id="Trazado_1294880" data-name="Trazado 1294880" d="M176.057,89.8c-.11-.7-.574-.307-.466-.326-.027.412.389.264.466.326" transform="translate(-87.744 -44.67)" fill="#dfdfa4"/>
          <path id="Trazado_1294881" data-name="Trazado 1294881" d="M172.207,75.519l.19.09-.586-.9Z" transform="translate(-85.863 -37.338)" fill="#dfdfa4"/>
          <path id="Trazado_1294882" data-name="Trazado 1294882" d="M170.265,67.7l.674.365c-.2-.651-.471-1.389-.747-2.067a6.861,6.861,0,0,1-.543-1.8c-.525.769.758,2.127.734,3.285Z" transform="translate(-84.719 -32.086)" fill="#dfdfa4"/>
          <path id="Trazado_1294883" data-name="Trazado 1294883" d="M170.394,57.408c-.055-.128-.125-.307-.226-.617-.18.3-.495-.6.213.777a1.188,1.188,0,0,1,.013-.16" transform="translate(-84.928 -28.372)" fill="#dfdfa4"/>
          <path id="Trazado_1294884" data-name="Trazado 1294884" d="M170.847,57.911c.268.626.055-.5,0,0" transform="translate(-85.381 -28.875)" fill="#dfdfa4"/>
          <path id="Trazado_1294885" data-name="Trazado 1294885" d="M168.716,51.806c-.506-.787-.572-.538-.6.05l.594.712c.074-.237-.224-.983.007-.762" transform="translate(-84.015 -25.642)" fill="#dfdfa4"/>
          <path id="Trazado_1294886" data-name="Trazado 1294886" d="M166.752,51.7c.029-.1,0-.226-.294-.366l.152.181.143.185" transform="translate(-83.188 -25.652)" fill="#dfdfa4"/>
          <path id="Trazado_1294887" data-name="Trazado 1294887" d="M167.219,52.433c-.225.017.038.105.346.421l-.6-.793c-.051.167-.256.276.257.372" transform="translate(-83.398 -26.018)" fill="#dfdfa4"/>
          <path id="Trazado_1294888" data-name="Trazado 1294888" d="M168.149,54.74c.069.513.205,1.142-.357.425.713,1.516,1.109,1.1.357-.425" transform="translate(-83.854 -27.356)" fill="#dfdfa4"/>
          <path id="Trazado_1294889" data-name="Trazado 1294889" d="M168.531,65.174a1.867,1.867,0,0,1-.172-.693c-.045-.267-.1-.489-.2-.436l0,.333c0,.167-.01.335-.01.335Z" transform="translate(-84.034 -32.003)" fill="#dfdfa4"/>
          <path id="Trazado_1294890" data-name="Trazado 1294890" d="M163.307,43.358c-.07-.351-.343-.938-.176-1.1-.159.034-.181.468-.311.625,0,0,.128.114.248.233l.239.24" transform="translate(-81.37 -21.119)" fill="#dfdfa4"/>
          <path id="Trazado_1294891" data-name="Trazado 1294891" d="M162.072,42.826l-.748-.683c.444.748.635.817.748.683" transform="translate(-80.622 -21.061)" fill="#dfdfa4"/>
          <path id="Trazado_1294892" data-name="Trazado 1294892" d="M165.339,52.075l.576.608-.642-.745c-.156-.187-.331-.364-.456-.5l-.211-.222.144.266s.309.286.589.591" transform="translate(-82.262 -25.596)" fill="#dfdfa4"/>
          <path id="Trazado_1294893" data-name="Trazado 1294893" d="M159.4,35.99l-.506-.253-.521-.234.414.237Z" transform="translate(-79.145 -17.743)" fill="#dfdfa4"/>
          <path id="Trazado_1294894" data-name="Trazado 1294894" d="M154.809,30.58c.5.13,0-.753.428-.533a5.234,5.234,0,0,0-1.585-1.013,3.485,3.485,0,0,1,1.157,1.545" transform="translate(-76.788 -14.51)" fill="#dfdfa4"/>
          <path id="Trazado_1294895" data-name="Trazado 1294895" d="M151.959,28.207a6.69,6.69,0,0,0,.847.415,3.2,3.2,0,0,0-.847-.415" transform="translate(-75.942 -14.096)" fill="#dfdfa4"/>
          <path id="Trazado_1294896" data-name="Trazado 1294896" d="M159.286,37.542l-.124.564.218.317a1.061,1.061,0,0,0-.094-.881" transform="translate(-79.541 -18.762)" fill="#dfdfa4"/>
          <path id="Trazado_1294897" data-name="Trazado 1294897" d="M158.7,37.98l-.462-.69L158.7,38Z" transform="translate(-79.081 -18.636)" fill="#dfdfa4"/>
          <path id="Trazado_1294898" data-name="Trazado 1294898" d="M159.645,39.383l-.055-.08c-.013.055-.012.081.055.08" transform="translate(-79.752 -19.642)" fill="#dfdfa4"/>
          <path id="Trazado_1294899" data-name="Trazado 1294899" d="M161.082,46.184c.453.2.308-.468,1.043.09-.492-.377-1.291-1.251-1.043-.09" transform="translate(-80.478 -22.79)" fill="#dfdfa4"/>
          <path id="Trazado_1294900" data-name="Trazado 1294900" d="M159.375,40.841s.128.223.243.454l.235.457c.084-.078.122-.325.374-.152l-.423-.384c-.208-.193-.428-.376-.428-.376" transform="translate(-79.648 -20.41)" fill="#dfdfa4"/>
          <path id="Trazado_1294901" data-name="Trazado 1294901" d="M158.572,40.179l.4.331-.19-.33Z" transform="translate(-79.247 -20.08)" fill="#dfdfa4"/>
          <path id="Trazado_1294902" data-name="Trazado 1294902" d="M152.611,30.437a5.679,5.679,0,0,1-1.174-.949c.355.479.719.971,1.1,1.411.155-.027.506.011.077-.462" transform="translate(-75.681 -14.737)" fill="#dfdfa4"/>
          <path id="Trazado_1294903" data-name="Trazado 1294903" d="M156.351,34.862l-.081-.063c.01.071.031.117.081.063" transform="translate(-78.096 -17.391)" fill="#dfdfa4"/>
          <path id="Trazado_1294904" data-name="Trazado 1294904" d="M143.543,22.024l.016.117.063-.043Z" transform="translate(-71.736 -11.007)" fill="#dfdfa4"/>
          <path id="Trazado_1294905" data-name="Trazado 1294905" d="M153.57,32.434a1.346,1.346,0,0,0,.747.628,8.932,8.932,0,0,1-.751-.755c-.07.012-.1.033,0,.127" transform="translate(-76.712 -16.145)" fill="#dfdfa4"/>
          <path id="Trazado_1294906" data-name="Trazado 1294906" d="M149.529,26.293c.108.224.245.462.383.714-.056-.264-.243-.738-.383-.714" transform="translate(-74.727 -13.14)" fill="#dfdfa4"/>
          <path id="Trazado_1294907" data-name="Trazado 1294907" d="M156.268,34.337c.019.014.038.025.056.041-.019-.173-.043-.13-.056-.041" transform="translate(-78.095 -17.121)" fill="#dfdfa4"/>
          <path id="Trazado_1294908" data-name="Trazado 1294908" d="M155.7,34.116a2.7,2.7,0,0,0-.568-.3,4.943,4.943,0,0,0,.569.491.667.667,0,0,1,0-.192" transform="translate(-77.527 -16.9)" fill="#dfdfa4"/>
          <path id="Trazado_1294909" data-name="Trazado 1294909" d="M144.991,23.308l.23.228-.144-.056.338.254a5.835,5.835,0,0,1-.727-1.377c-.662-.317-.865-.3-.987-.229l.765.7.525.481" transform="translate(-71.815 -11.038)" fill="#dfdfa4"/>
          <path id="Trazado_1294910" data-name="Trazado 1294910" d="M148.483,26.69c-.527.055-1.385-.483-1.268.265.878.823.846.35,1.489.741-1.436-1.351.566.245-.246-.96a7.921,7.921,0,0,1,.824.7c-.209-.3-.4-.591-.571-.884l.013.052.007.006-.007,0c.022.1.018.144-.027.052a.148.148,0,0,1-.036-.024.424.424,0,0,1-.178.049c-.335-.48.017-.145.178-.049a.3.3,0,0,0,.063-.028V26.6s-.385-.324-.794-.621l-.8-.6a12.692,12.692,0,0,0,1.356,1.311" transform="translate(-73.527 -12.683)" fill="#dfdfa4"/>
          <path id="Trazado_1294911" data-name="Trazado 1294911" d="M158.43,45.805a.108.108,0,0,1,.053-.1c-.112-.076-.167-.1-.053.1" transform="translate(-79.144 -22.813)" fill="#dfdfa4"/>
          <path id="Trazado_1294912" data-name="Trazado 1294912" d="M158.718,41.726l.048-.1c-.026-.017-.041.024-.048.1" transform="translate(-79.32 -20.8)" fill="#dfdfa4"/>
          <path id="Trazado_1294913" data-name="Trazado 1294913" d="M158.63,43.595c.1.4-.177.107-.286.2.245.165.768.649.494-.189l-.123-.084a4.967,4.967,0,0,1-.312-1.69,3.191,3.191,0,0,0-.314,1.269.946.946,0,0,1,.54.495" transform="translate(-79.006 -20.905)" fill="#dfdfa4"/>
          <path id="Trazado_1294914" data-name="Trazado 1294914" d="M152.416,34.434l-.609-.542.251.86.145-.175c.516.758.594.441.8.419l-.182-.178c-.109-.107-.253-.25-.409-.384" transform="translate(-75.866 -16.938)" fill="#dfdfa4"/>
          <path id="Trazado_1294915" data-name="Trazado 1294915" d="M143.289,20.927s-.284-.04-.579-.062l-.581-.048.7.314Z" transform="translate(-71.029 -10.403)" fill="#dfdfa4"/>
          <path id="Trazado_1294916" data-name="Trazado 1294916" d="M140.046,18.169s-.15-.041-.3-.075l-.3-.071.308.413Z" transform="translate(-69.684 -9.007)" fill="#dfdfa4"/>
          <path id="Trazado_1294917" data-name="Trazado 1294917" d="M36.927,14.908l.425.243a2.692,2.692,0,0,1,1.051-.6c-.794.069-1.8.031-1.475.354" transform="translate(-18.423 -7.273)" fill="#dfdfa4"/>
          <path id="Trazado_1294918" data-name="Trazado 1294918" d="M97.9,1.925A6.867,6.867,0,0,0,96.4,1.472c.713.341,1.248.786,1.492.453" transform="translate(-48.178 -0.736)" fill="#dfdfa4"/>
          <path id="Trazado_1294919" data-name="Trazado 1294919" d="M9.262,132.844c.217.221.357.287.437.232-.216-.228-.376-.338-.437-.232" transform="translate(-4.629 -66.369)" fill="#dfdfa4"/>
          <path id="Trazado_1294920" data-name="Trazado 1294920" d="M94.627,1.194a2.182,2.182,0,0,0-1.777-.148c.106.052.211.082.318.127a5.615,5.615,0,0,1,1.46.021" transform="translate(-46.402 -0.458)" fill="#dfdfa4"/>
          <path id="Trazado_1294921" data-name="Trazado 1294921" d="M173.616,102.744a2.728,2.728,0,0,0,.072-.827c0,.2-.039.523-.072.827" transform="translate(-86.765 -50.933)" fill="#dfdfa4"/>
          <path id="Trazado_1294922" data-name="Trazado 1294922" d="M125.312,9.49c.429.175.089-.016,0,0" transform="translate(-62.625 -4.742)" fill="#dfdfa4"/>
          <path id="Trazado_1294923" data-name="Trazado 1294923" d="M127.423,14.545a.285.285,0,0,0-.258.105.362.362,0,0,1,.258-.105" transform="translate(-63.551 -7.269)" fill="#dfdfa4"/>
          <path id="Trazado_1294924" data-name="Trazado 1294924" d="M125.911,10.083a3.766,3.766,0,0,0-.468-.383,4.389,4.389,0,0,0,.468.383" transform="translate(-62.69 -4.848)" fill="#dfdfa4"/>
          <path id="Trazado_1294925" data-name="Trazado 1294925" d="M126.395,10.014l.341.222c.085-.038.059-.1-.341-.222" transform="translate(-63.166 -5.005)" fill="#dfdfa4"/>
          <path id="Trazado_1294926" data-name="Trazado 1294926" d="M124.716,9.247,124.12,9a4.652,4.652,0,0,1,.662.35c-.07-.064-.094-.1-.066-.105" transform="translate(-62.029 -4.499)" fill="#dfdfa4"/>
          <path id="Trazado_1294927" data-name="Trazado 1294927" d="M86.851,51.811c-.151.39-.427-.076-.677-.032,0,0,.064-.149.155-.374l.335-.829L87,49.737c.092-.23.14-.386.14-.386-.312-.263-.272-.937-.23-1.589s.033-1.281-.272-1.42l.094.8c-.362-.545-.779-.186-1.242.259l-.143.135c.045-.8.073-1.6.073-2.4A41.892,41.892,0,0,0,72.176,14.527a.345.345,0,0,0,.081.045l.127-.189c-.378-.343-.738-.5-.589-.219-.333-.305-.676-.6-1.019-.894.851.284,1.234-1.036,1.047-2.135-.137.118-.228.219-1.171-.219.164.371,1.379,1.816.51,1.539-1.12-.7-.742-.783-1.108-1.355.106.636-1.359-.217-1.832.133a41.973,41.973,0,0,0-6.668-4.006c.069-.034.094-.09.033-.187l-.693-.231c-.434-.673,1.508.024.748-.542a11.64,11.64,0,0,1,1.648.287,5.386,5.386,0,0,1,.873.308,4.569,4.569,0,0,1,.844.556l-.079.662c.066-.168-.611-.774-1.044-.8.32.023.685.475,1.081.864s.821.734,1.3.571l-.3-.445c-.149-.228-.313-.435-.313-.435.517.114,1.11.233,1.715.4a3.742,3.742,0,0,1,1.654.892c-.127-.831-.272-.114-.621-1.221.178,1.156-2.747-1.8-2.167-.333a2.212,2.212,0,0,0-.838-1.144,4.808,4.808,0,0,1-1.116-1.159c-.06.2.207.541-.708-.041a1.093,1.093,0,0,1-.291.052l-.058-.047.043.049c-.055.006-.062.01.016.018a1.215,1.215,0,0,1,.347.523A3.218,3.218,0,0,1,62.2,5.59a7.728,7.728,0,0,0-1.384-.34c-.532-.346.331-.105.106-.444l-.459-.01L60,4.806c.1-.444-1.291-1.312.206-1l-1.256-.516A4.882,4.882,0,0,0,56.562,2.3c-.594-.271-1.694.036-1.063-.151L54.439,2l-1.066-.1.006-.114a18.757,18.757,0,0,0-3.216-.374,9.94,9.94,0,0,1-3.4-.692c-.356.031-.717.064-1.134.07A7.816,7.816,0,0,1,44.154.719L43.929.325A11.932,11.932,0,0,1,42.17.249C41.549.2,40.989.181,40.806.408A1.894,1.894,0,0,0,39.64.015a6.421,6.421,0,0,0-1.663.117c-.59.107-1.2.217-1.752.351a9.351,9.351,0,0,1-1.469.267l.037.509a9,9,0,0,0-1.607.424c-.272.093-.549.194-.838.3s-.582.255-.895.395l.2.409a6.049,6.049,0,0,1-2.063.61c-.412.076-.848.149-1.29.245a8.815,8.815,0,0,0-1.3.427c.053-.205.507-.336.851-.36a3.79,3.79,0,0,0-1.694.321,9.312,9.312,0,0,0-1.482.9c-.478.324-.917.7-1.381.982a4.221,4.221,0,0,1-1.463.59,1.8,1.8,0,0,1-1.049.6.351.351,0,0,0,.1-.082,1.985,1.985,0,0,0-.18.1,6.05,6.05,0,0,0-.716.159,3.517,3.517,0,0,0,.621-.1,8.219,8.219,0,0,0-1.2.971l-.469-.272c-.036.031-.068.05-.1.084-.574.158-.252.433.2.573a2.711,2.711,0,0,0-.453.664c-.812-.365-1.063,1.049-2.035.78-.029.279-.544.78-1.01,1.316a2.568,2.568,0,0,0-.709,1.37,2.908,2.908,0,0,0-1.282,1.244l-.617-.258-.207.766-.176.779c-.833.333-1.24.445-1.006-.483a15.223,15.223,0,0,1-.835,1.645,5.692,5.692,0,0,0-.623,1.484l-.256-.316c-.365.488-.538,1.567-1.021,1.652-.7.316-1.712,1.664-2.752,3.31C5.03,24.154,3.994,26.1,2.986,27.577c.676-.074.382.238.034.642s-.746.911-.35,1.138c-.331.089-.658.494-.672-.125a11.318,11.318,0,0,1-.755,2.058,2.424,2.424,0,0,0-.184,1.79C.735,33.2.775,32.6.568,32.729c.017.158.074.619-.137.757S.28,33.17.244,32.858a3.585,3.585,0,0,0-.136,1.113,1.53,1.53,0,0,0,.24.708,2.043,2.043,0,0,0,1,.684,2.314,2.314,0,0,0-.482,1.031,1.756,1.756,0,0,0,.268.985c-.312.262-.675.746-.569-.382l-.219.85L.2,38.467c-.04.219-.077.446-.108.669-.124.892-.16,1.722.17,1.785C.083,41.1.145,41.8.206,41.967c-.077.7-.125,1.087-.139,1.468s-.031.76-.018,1.455l.115-.384c.744.553.17,1.145.29,2.259l-.08-.029a5.45,5.45,0,0,0-.136,1.3,1.855,1.855,0,0,0,.089.532,1.6,1.6,0,0,1,.074.525c-.008.261-.036.646-.108,1.294l.459-.193c.528.057.445.616.305,1.352a4.171,4.171,0,0,0,.061,2.327l.174-.572c.233.359.019.964-.255,1.606a4.411,4.411,0,0,0-.55,1.733c-.035.2-.222-.236-.345-.466-.005,2.256.682.113,1.256,1.609-.237.382-.945-.119-.678.943-.043.3.47.972.981,1.747A4.8,4.8,0,0,1,2.781,62.91c.105-.4.216-.792.7-.2a11.79,11.79,0,0,1,.563,2.037c.209.738.477,1.447,1.1,1.683.01.16-.023.241-.077.278.316.321.721.9,1.18,1.39a3.714,3.714,0,0,0,1.233,1.02,1.188,1.188,0,0,0,.178,1.3,6.632,6.632,0,0,0,1.223,1.34,12.052,12.052,0,0,1,1.19,1.153c.277.335.359.633.067.879,0,0,.446.5.91.974L12,75.7l-.16.059a4.713,4.713,0,0,0,1.429,1.212,3.429,3.429,0,0,0,1.086.346c.225.333-.085.253-.164.291a8.736,8.736,0,0,0,1.86,1.757,7.671,7.671,0,0,0,2.186.828l-.114.528c.312.047.92.73,1.8,1.463.218.186.449.38.694.569s.516.355.789.52a5.949,5.949,0,0,0,1.746.763.4.4,0,0,1-.343.074,20.656,20.656,0,0,1,3.957,2.11c1.26.729,2.438,1.142,3.188.445,0,0,.459.049.925.057l.923.031c-2.175-.764.545-.66-.278-1.206a2.754,2.754,0,0,1,1.229.6c.278.231.311.44-.235.342l-.143-.135c-.645.837,2.7,1,2.512,1.584,2.255.432,4.5.781,6.731,1.017a34.125,34.125,0,0,0,6.627.064l-.286-.333-.283-.341s.094,0,.233-.015l.511-.05.743-.074c.411.12.606.5-.471.607.621.344,1.748-.575,1.742-.753,2.12-.077-.67.986-.036.891l.864-.21-.211-.049c.327-.211.49-.4.73-.553a3.446,3.446,0,0,1,1.188-.42c.827-.04.511.346.832.3.01.051.123.05.489-.092,0,0,.119-.02.292-.066l.638-.159.93-.232-.893-.347c.729-.5,1.709-.465.689-.845.748.3,2.463-.16,4.036-.809.791-.311,1.533-.7,2.147-.969a5.921,5.921,0,0,1,1.272-.534,6.028,6.028,0,0,1,.671-.615,8.185,8.185,0,0,1,.723-.548c.507-.345,1.079-.64,1.685-1.014-.363.09-.878-.352.181-.936.173.676.739.517,1.4.164a4.423,4.423,0,0,1,2.142-.775c-.548.024.126-.555.722-1.117s1.075-1.155.26-1.039c.844-.587.371.343,1.171.067a13.454,13.454,0,0,1,1.314-1.436l1.558-1.394c.268-.24.551-.473.819-.726l.8-.785A12.154,12.154,0,0,0,78.3,72.062c-.111-.144-.636.09-.442-.581l.263-.113c.161-.067.369-.162.572-.262l.826-.4c.274-.556-.491-1.013.6-1.6-.208.051-.518.12-.349-.248A24.114,24.114,0,0,0,84.054,60.9c1.031-2.883,1.835-5.785,3.118-8.679-.482.761-.417.21-.321-.411M70.657,13.165q-.625-.534-1.272-1.042a2.067,2.067,0,0,1,1.272,1.042M69.141,11.9c0,.008-.014.013-.022.019l-.093-.073.115.055M57.872,3.206a.22.22,0,0,0-.042.011c-.647-.417-.42-.262.042-.011M50.1,2.761a9.416,9.416,0,0,1,1.451-.124c1.637.1.575.676.877.61a5.226,5.226,0,0,0,1.71.232,5.112,5.112,0,0,0,1.1-.152,2.626,2.626,0,0,1,2.356.464c.779.832-.311,1.025-.225,1.463A3.968,3.968,0,0,1,55.9,4.664,4.815,4.815,0,0,0,54.729,4.1l.97.54a3.074,3.074,0,0,1-1.718-.323,1.468,1.468,0,0,0,.385.254A41.82,41.82,0,0,0,48.4,3.418a3.143,3.143,0,0,1,.53-.3A5.253,5.253,0,0,1,50.1,2.761m-8.436-.044c-.044.146.11.319.227.432q-.641.023-1.277.064a3.16,3.16,0,0,1,1.05-.5m-8.735.331c.085.007.716.049,1.388.125a6.37,6.37,0,0,1,1.676.368.457.457,0,0,1,.2.2c-.509.088-1.018.179-1.52.285l-.189-.738-.022.787c-.5.108-.992.217-1.481.342a2.222,2.222,0,0,1-.05-1.368M25.32,5.634l.465.151.582-.469c.292-.236.6-.448.6-.448-.225.47-.624,1.252-1.062,2.06q-1.06.486-2.088,1.026a4.954,4.954,0,0,1,1.5-2.32m-10.5,7.034a.549.549,0,0,0,.037.192c-.086-.069-.237-.008-.037-.192m-2.311,2.7a1.83,1.83,0,0,0,.65.608c-.25.259-.5.516-.745.782.013-.25.029-.484.044-.686.031-.422.052-.7.052-.7M1.631,35.815c.151-.187.325.038.521.374-.025-.128-.05-.25-.078-.346.148-.223.282-.289.406-.26-.065.28-.135.558-.194.84l-.135-.234c.03.137.057.286.087.441-.026.126-.045.255-.07.382a6.489,6.489,0,0,0-.547.605s-.007-.451-.014-.9.023-.9.023-.9m52.3,51.993-.321-.056c.622-.286.469-.122.321.056" transform="translate(0 0)" fill="#dfdfa4"/>
          <path id="Trazado_1294928" data-name="Trazado 1294928" d="M132.764,13.488c.036-.094-.018-.289.145-.232-.086-.042-.223-.107-.372-.167l-.467-.2a1.734,1.734,0,0,1,.694.595" transform="translate(-66.002 -6.443)" fill="#dfdfa4"/>
          <path id="Trazado_1294929" data-name="Trazado 1294929" d="M133.841,13.665a.462.462,0,0,1,.042.021l-.042-.021" transform="translate(-66.887 -6.829)" fill="#dfdfa4"/>
          <path id="Trazado_1294930" data-name="Trazado 1294930" d="M133.747,13.619l.047.023a.48.48,0,0,0-.047-.023" transform="translate(-66.84 -6.806)" fill="#dfdfa4"/>
          <path id="Trazado_1294931" data-name="Trazado 1294931" d="M133.724,17.4c-.162.391.439.573,1.026.915a.8.8,0,0,1-.1-.069c.489-.354-.213-.624-.928-.846" transform="translate(-66.816 -8.697)" fill="#dfdfa4"/>
          <path id="Trazado_1294932" data-name="Trazado 1294932" d="M136.589,19.745c.2-.139-.18-.186-.516-.354a3.385,3.385,0,0,1,.516.354" transform="translate(-68.003 -9.691)" fill="#dfdfa4"/>
          <path id="Trazado_1294933" data-name="Trazado 1294933" d="M121.69,8.461c.258.231.4-.39.5-.161.544-.33-2.269-.324-.5.161" transform="translate(-60.52 -4.034)" fill="#dfdfa4"/>
          <path id="Trazado_1294934" data-name="Trazado 1294934" d="M132.74,19.678l.077-.546-.533.138Z" transform="translate(-66.109 -9.561)" fill="#dfdfa4"/>
          <path id="Trazado_1294935" data-name="Trazado 1294935" d="M124.531,14.337l.879.606c.025-.082.168-.064.334-.021-.574-.313-1.17-.73-1.213-.585" transform="translate(-62.235 -7.15)" fill="#dfdfa4"/>
          <path id="Trazado_1294936" data-name="Trazado 1294936" d="M127.741,15.885a4.408,4.408,0,0,0-.785-.349,2.493,2.493,0,0,0,.785.349" transform="translate(-63.446 -7.764)" fill="#dfdfa4"/>
          <path id="Trazado_1294937" data-name="Trazado 1294937" d="M101.247,7.053c.293-.07.728-.059.585-.253l-1.167-.063c-.144.149.148.308.581.316" transform="translate(-50.29 -3.367)" fill="#dfdfa4"/>
          <path id="Trazado_1294938" data-name="Trazado 1294938" d="M175.39,94.4s.077-.228.131-.457l.119-.46-.358.583Z" transform="translate(-87.597 -46.717)" fill="#dfdfa4"/>
          <path id="Trazado_1294939" data-name="Trazado 1294939" d="M174.759,90.773l-.574-.554c.024.206.07.607-.081.76Z" transform="translate(-87.009 -45.087)" fill="#dfdfa4"/>
        </g>
      </g>
    </g>
    <g id="Grupo_1207170" data-name="Grupo 1207170" transform="translate(723.369 2150.832)">
      <path id="Trazado_1294969" data-name="Trazado 1294969" d="M84.3,52.564c-1.373-.164-2.263.585-3.207,1.324a7.579,7.579,0,0,0-2.555,3.856c-.6,1.929-.327,3.261,1.537,4.516A9.516,9.516,0,0,0,85.9,63.829a3.732,3.732,0,0,0,1.932-.72,4.547,4.547,0,0,0,1.691-2.119,2.376,2.376,0,0,0-.137-2.553,1.91,1.91,0,0,1,.62-.227c1.034.054,2.066.143,3.192.227a25.836,25.836,0,0,1,.5,3.135,24.2,24.2,0,0,1,.376,3.1c.1,1.08.039,2.183.235,3.242a19.489,19.489,0,0,1,.242,3.073c-2.214.528-4.362,1.035-6.506,1.557-.376.091-.737.24-1.1.367a2.2,2.2,0,0,1-.36.147c-1.428.2-2.738.83-4.138,1.131-1.014.218-2.036.425-3.026.727a29.581,29.581,0,0,1-5.694,1.2,7.2,7.2,0,0,0-1.161.19,22.716,22.716,0,0,1-4.211.595,2.875,2.875,0,0,1-.185-.705c-.014-2.528-.251-5.041-.481-7.555-.052-.56-.057-1.126-.081-1.653.1-.092.145-.17.214-.2a7.227,7.227,0,0,0,1.556-.653,11.332,11.332,0,0,0,2-1.838,8.867,8.867,0,0,0,1.162-2.033c.267-.587.389-1.24.6-1.854a5.253,5.253,0,0,0-.166-3.324A9.468,9.468,0,0,0,69.383,51.8a.921.921,0,0,1-.188-.178c-.024-.029-.019-.083-.043-.213a6.617,6.617,0,0,1,1.571-1.426,8.556,8.556,0,0,0,2.271-2.312,1.518,1.518,0,0,0-.509-2.162c-.421-.305-.891-.541-1.33-.82-.915-.583-1.856-1.131-2.727-1.775a11.766,11.766,0,0,0-2.214-1.37,7.448,7.448,0,0,1-1.06-.694c-.173-1.027-.316-2.013-.509-2.989-.108-.55-.316-1.08-.446-1.626-.15-.626-.262-1.262-.379-1.839a1.235,1.235,0,0,1,1.035-.614,38.832,38.832,0,0,0,4.714-1.034c2.566-.485,5.119-1.033,7.677-1.561,1.062-.22,2.116-.492,3.184-.681a58.483,58.483,0,0,1,5.77-.956c.781-.06,1.557-.174,2.338-.246a4.428,4.428,0,0,1,.677.041,11.573,11.573,0,0,1,1.14,2.621,41.7,41.7,0,0,1,1.16,8.415c-.6.233-1.194-.067-1.769-.139a7.476,7.476,0,0,0-3.347.019,2.556,2.556,0,0,1-.649.03c-.66.029-.962.236-1.118.854a6.322,6.322,0,0,0-.2,1.284,70.683,70.683,0,0,0,0,7.694c.029.429.145.857.133,1.283a6.4,6.4,0,0,1-.268,1.162" transform="translate(-27.209 -12.489)" fill="#b28a56" fill-rule="evenodd"/>
      <path id="Trazado_1294970" data-name="Trazado 1294970" d="M43.223,63.567c.233,1.283.526,2.386.615,3.5.165,2.078.547,4.126.668,6.214.171,2.958.113,5.912.152,8.867.009.605.081,1.21.128,1.869-.747.349-1.387.875-2.3.692a2.7,2.7,0,0,0-1.01.162,12.221,12.221,0,0,1-3.742.1A10.831,10.831,0,0,0,36.3,84.9a1.193,1.193,0,0,1-1.034-.442,4.606,4.606,0,0,1-1.209-2.542c-.08-.817-.354-1.614-.455-2.43-.225-1.809-.63-3.587-.8-5.409a21.716,21.716,0,0,0-.521-3.462c-.141-.537-.017-1.1-.123-1.662-.217-1.152-.27-2.335-.418-3.5-.164-1.293-.37-2.581-.534-3.874-.065-.516-.037-1.043-.107-1.558-.134-.992-.247-1.992-.477-2.962a32.179,32.179,0,0,1-.937-9.332,16.942,16.942,0,0,0-.1-1.823c-.014-.293,0-.587,0-.883,1.072-.431,2.053-.891,3.074-1.226,2.147-.7,4.311-1.354,6.476-2a1.062,1.062,0,0,1,1.465.707,1.268,1.268,0,0,1,.079.249,25.878,25.878,0,0,1,.5,2.564,8.02,8.02,0,0,1-.305,3.855,27.688,27.688,0,0,0-.855,4.218c-.24,1.057-.465,2.119-.727,3.17-.556,2.231-1.14,4.454-1.7,6.687-.2.8-.36,1.613-.512,2.425a1.382,1.382,0,0,0,.048.639.518.518,0,0,0,.6.394,3.786,3.786,0,0,0,1.443-.561c1.295-.867,2.631-1.67,4.06-2.566" transform="translate(-12.608 -17.781)" fill="#b28a56" fill-rule="evenodd"/>
      <path id="Trazado_1294971" data-name="Trazado 1294971" d="M13.1,41.668a4.516,4.516,0,0,1,1.859.176c.8.217,1.586.464,2.377.7a2.456,2.456,0,0,1,1.109.625,4.63,4.63,0,0,0,1.708.885c.2.078.414.129.664.2a6,6,0,0,1,.253,1.9c0,1.085.075,2.171.11,3.257.012.39-.02.781-.005,1.171.037,1.033.067,2.066.146,3.1a8.315,8.315,0,0,0,.278,1.4c.383,1.518.252,3.1.693,4.627a12.541,12.541,0,0,1,.353,2.97,62.24,62.24,0,0,0,.92,7.478c.123.769.116,1.557.208,2.333.051.423.223.831.276,1.254.276,2.236.55,4.47.972,6.684a6.742,6.742,0,0,0,.238,1.531,7.194,7.194,0,0,0,1.785,2.972,2.757,2.757,0,0,1,.322.425,3.148,3.148,0,0,1-.947-.127,8.018,8.018,0,0,0-3.287-.659,5.938,5.938,0,0,1-1.766-.4c-1.17-.462-2.366-.861-3.563-1.25-.5-.162-.854-.394-.936-.953-.044-.3-.182-.583-.226-.882-.213-1.457-.37-2.922-.719-4.358a19.266,19.266,0,0,1-.447-2.3c-.317-2.677-.617-5.356-.878-8.039-.1-.994-.054-2-.095-3-.026-.649-.067-1.3-.141-1.946-.145-1.292-.269-2.591-.492-3.872-.265-1.532-.5-3.07-.806-4.6a35.4,35.4,0,0,1-.512-4.52,48.338,48.338,0,0,1,.371-6.508c0-.074.088-.144.178-.283" transform="translate(-5.337 -17.749)" fill="#b28a56" fill-rule="evenodd"/>
      <path id="Trazado_1294972" data-name="Trazado 1294972" d="M122.889,68.167a5.808,5.808,0,0,1-3.181,1.43,23.339,23.339,0,0,0-2.771.679,8.861,8.861,0,0,1-.975.13,1.424,1.424,0,0,1-.468-1.232c.022-.6-.02-1.212-.052-1.818s-.079-1.216-.14-1.821c-.048-.473-.127-.942-.2-1.412-.125-.855-.147-1.718-.3-2.576a32.8,32.8,0,0,1-.351-3.375c-.106-1.387-.155-2.778-.26-4.164-.228-3.039-.463-6.079-.725-9.116a14.257,14.257,0,0,0-.362-1.922c-.184-.8-.295-1.625-.465-2.424-.282-1.325-.387-2.664-.568-4-.116-.861-.149-1.737-.3-2.591A33.753,33.753,0,0,0,110,28.295a9.094,9.094,0,0,1,1.245-.317c2.16-.242,4.321-.462,6.488-.489a2.709,2.709,0,0,1,.721,1.551c.43,2.045.711,4.114.982,6.185.061.47.226.925.311,1.393a40.162,40.162,0,0,1,.735,6.733c0,.131-.014.263,0,.392.211,2.035.407,4.071.645,6.1a32.452,32.452,0,0,1,.45,5.061c-.028.725.127,1.435.057,2.18a9.237,9.237,0,0,0,.408,2.019c.135.9.19,1.816.288,2.724.065.6.142,1.208.215,1.811.01.087.033.171.042.259.1,1.035.213,2.071.3,3.109.032.388.005.781.005,1.159" transform="translate(-46.896 -11.72)" fill="#f8e67e" fill-rule="evenodd"/>
      <path id="Trazado_1294973" data-name="Trazado 1294973" d="M50.452,40.056c2.149-.505,4.122-1.17,6.231-1.544a4.517,4.517,0,0,1,.351.842c.312,1.618.8,3.2.977,4.847.139,1.336.471,2.651.65,3.985.243,1.809.424,3.627.628,5.442.091.817.157,1.637.264,2.452a11.16,11.16,0,0,1,.026,1.548,25.372,25.372,0,0,0,.283,2.97c.019.169.132.33.143.5.092,1.383.172,2.766.251,4.149.005.085-.04.176-.027.258.091.556.237,1.107.273,1.665s-.073,1.123-.056,1.683c.021.692.117,1.383.163,2.075q.248,3.778.482,7.555a13.677,13.677,0,0,1,.033,3.31,8.437,8.437,0,0,1-.955.36,9.47,9.47,0,0,0-2.586.879,1.843,1.843,0,0,1-1.275.069c-1.472-.2-1.541-.2-1.631-1.645-.094-1.516-.033-3.042-.042-4.563,0-.606-.01-1.212-.023-1.817-.016-.7-.029-1.392-.063-2.087-.074-1.517-.16-3.035-.242-4.552a1.872,1.872,0,0,0-.036-.391,36.077,36.077,0,0,1-.505-4.138q-.334-2.193-.634-4.39c-.142-1.036-.245-2.077-.387-3.112-.208-1.505-.439-3.007-.652-4.512-.042-.3-.038-.606-.073-.908-.164-1.425-.316-2.852-.508-4.273-.18-1.333-.4-2.66-.61-3.989-.135-.846-.285-1.689-.45-2.667" transform="translate(-21.509 -16.419)" fill="#f8e67e" fill-rule="evenodd"/>
      <path id="Trazado_1294974" data-name="Trazado 1294974" d="M125.835,26.013c.719-.145,1.434-.31,2.155-.426a4.3,4.3,0,0,1,4.092,2.231c.177.4.373.788.551,1.185a16.269,16.269,0,0,1,1.467,6.165,5.63,5.63,0,0,0,.115.9,46.836,46.836,0,0,1,.67,5.823c.142,2.127.182,4.26.365,6.383.24,2.773.3,5.554.462,8.329.054.909.122,1.82.232,2.723a10.383,10.383,0,0,1-.414,3.6,9.952,9.952,0,0,1-.959,2.131.9.9,0,0,1-.462.432c-.908.283-1.659.969-2.666,1a2.371,2.371,0,0,0-.705.267c-.1-.188-.223-.309-.206-.406a5.955,5.955,0,0,0-.187-2.063,10.235,10.235,0,0,1-.194-1.556,31.563,31.563,0,0,0-.465-3.881c-.066-.465-.077-.94-.114-1.423a2.6,2.6,0,0,1,1.463-.085,1,1,0,0,0,1.079-.755,8.806,8.806,0,0,0,.489-3.318c-.012-.214.007-.43.015-.644.018-.476.059-.951.056-1.425a40.023,40.023,0,0,1,.016-5.324c.06-.473-.024-.965.04-1.437a2.955,2.955,0,0,0-1.355-2.653,4.161,4.161,0,0,0-2-.9c-.421-.088-.835-.21-1.3-.328-.178-1.153-.368-2.263-.517-3.377-.236-1.766-.415-3.54-.675-5.3a25.682,25.682,0,0,0-1.08-5.622c-.027-.07.02-.168.032-.246" transform="translate(-53.631 -10.894)" fill="#b28a56" fill-rule="evenodd"/>
      <path id="Trazado_1294975" data-name="Trazado 1294975" d="M10.893,80.434a9.22,9.22,0,0,1-2.957-1.646,3.992,3.992,0,0,1-1.273-2.38c-.151-.856-.263-1.72-.39-2.58a1.215,1.215,0,0,0-.006-.13c-.294-1.138-.394-2.31-.622-3.456-.326-1.627-.464-3.272-.658-4.912q-.429-3.621-.856-7.241a1.182,1.182,0,0,0-.1-.377,7.315,7.315,0,0,1-.5-2.417c-.165-1.33-.492-2.651-.531-3.984-.041-1.352-.484-2.644-.4-4.014a9.683,9.683,0,0,0-.311-2.434c-.286-1.45-.341-2.925-.5-4.386a7.96,7.96,0,0,1,.122-1.686,2.037,2.037,0,0,1,.168-.468A22.257,22.257,0,0,1,7.58,39.9c-.133,1.107-.212,2.232-.411,3.334A21.84,21.84,0,0,0,7.2,50.757c.4,2.4.648,4.826,1.113,7.212.276,1.416.251,2.84.4,4.255.2,1.854.191,3.73.278,5.6.021.435.044.871.1,1.3.2,1.463.4,2.927.63,4.385.124.766.345,1.516.492,2.28s.247,1.533.382,2.3c.112.641.252,1.277.362,1.918a1.52,1.52,0,0,1-.07.432" transform="translate(-0.758 -16.339)" fill="#b28a56" fill-rule="evenodd"/>
      <path id="Trazado_1294976" data-name="Trazado 1294976" d="M86.32,22.184A5.775,5.775,0,0,1,88,23.6a3.265,3.265,0,0,1-.915.32,22.131,22.131,0,0,0-3.882.45c-.935.173-1.894.224-2.824.419-1.61.337-3.243.538-4.846.943-1.68.425-3.431.575-5.1,1.027a35.417,35.417,0,0,0-3.579.658c-1.1.418-2.246.693-3.375,1.026-.29.085-.587.151-.9.233a3.085,3.085,0,0,1-1.15-.99l1.652-1.537a1.758,1.758,0,0,0,.482-2.024,10.865,10.865,0,0,0-.511-1.193c-.172-.341-.391-.659-.644-1.077,2.191-.465,4.3-.908,6.4-1.364a7.881,7.881,0,0,0,1.125-.331,12.147,12.147,0,0,1,4.831-.974,8.629,8.629,0,0,0,1.222-.131,12.2,12.2,0,0,1,.616,1.249,3.412,3.412,0,0,0,1.533,1.882c.488.281.937.629,1.409.941a2.5,2.5,0,0,0,2.35.36c.521-.184,1.112-.162,1.644-.324.912-.279,1.8-.63,2.776-.978" transform="translate(-26.19 -8.124)" fill="#b28a56" fill-rule="evenodd"/>
      <path id="Trazado_1294977" data-name="Trazado 1294977" d="M77.825,14.466c-.113.123-.173.239-.224.235a3.365,3.365,0,0,1-3.165-3.185,4.1,4.1,0,0,0-.56-2.1,21.4,21.4,0,0,1-1.022-2.672c-.1-.286-.21-.573-.3-.863a1.213,1.213,0,0,0-1.25-.953,12.467,12.467,0,0,0-2.854.234c-1.256.325-2.54.539-3.807.824a8.987,8.987,0,0,0-1.882.528A34.256,34.256,0,0,1,58.031,8a3.735,3.735,0,0,0-.718.288c-.144.08-.325.221-.352.361-.164.871-.735,1.644-.388,2.643a34.724,34.724,0,0,1,.84,3.437c1.021.3,1.493,1.151,2.075,1.774-.057.515-.337.613-.668.683-.96-.645-1.944-1.28-2.9-1.958a1.941,1.941,0,0,1-.8-1.3c-.119-.682-.349-1.345-.472-2.026-.161-.9-.267-1.805-.392-2.709-.053-.389-.068-.784-.146-1.166a1.559,1.559,0,0,1,.671-1.716,12.692,12.692,0,0,1,2.035-1.157A25.835,25.835,0,0,1,60.7,3.66c1.262-.32,2.507-.7,3.766-1.034,1.383-.368,2.791-.6,4.194-.869a6.252,6.252,0,0,1,3.535.1,4.868,4.868,0,0,0,.579.73,11.151,11.151,0,0,1,2.067,2.661,14.69,14.69,0,0,1,1.346,3.238,4.57,4.57,0,0,1,.173.762c.144,1.078.283,2.155.409,3.235a2.418,2.418,0,0,0,.6,1.415c.168.182.311.388.457.573" transform="translate(-23.051 -0.66)" fill="#fff" fill-rule="evenodd"/>
      <path id="Trazado_1294978" data-name="Trazado 1294978" d="M26.7,25.261a4.211,4.211,0,0,1,2.123-1.089,12.7,12.7,0,0,0,2.482-.745,6.829,6.829,0,0,1,.861-.207,3.718,3.718,0,0,1,2.372.436c1.366.654,2.771,1.229,4.173,1.8a13.873,13.873,0,0,1,2.677,1.556c1.53,1.069,2.882,2.356,4.387,3.451.094.068.138.207.259.4a2.77,2.77,0,0,1-.684.292c-.9.111-1.819.135-2.715.281-.848.138-1.679.387-2.518.589q-.317.077-.631.164a1.119,1.119,0,0,1-1.28-.363,4.778,4.778,0,0,0-1.014-.808c-1.123-.736-2.261-1.451-3.393-2.174a1.9,1.9,0,0,0-.332-.207,34.462,34.462,0,0,1-4.117-2.217,11.514,11.514,0,0,0-2.136-.947c-.151-.045-.294-.119-.515-.211" transform="translate(-11.383 -9.877)" fill="#f8e67e" fill-rule="evenodd"/>
      <path id="Trazado_1294979" data-name="Trazado 1294979" d="M110.212,19.351a45.855,45.855,0,0,0-7.239.577c-.2-.293-.361-.544-.536-.785a7.273,7.273,0,0,0-1.6-1.687c-1.09-.788-2.1-1.685-3.156-2.523a8.181,8.181,0,0,0-2.637-1.5c-.254-.917-.515-1.862-.792-2.862a13.566,13.566,0,0,1,1.982-.049,19.626,19.626,0,0,0,2.2-.155,2.367,2.367,0,0,1,1.144.094,12.568,12.568,0,0,1,4.48,2.6c.555.487,1.123.962,1.653,1.475a10.994,10.994,0,0,1,1.318,1.434,8.671,8.671,0,0,0,1.945,1.9c.482.356.9.8,1.349,1.2l-.107.287" transform="translate(-40.182 -4.404)" fill="#f8e67e" fill-rule="evenodd"/>
      <path id="Trazado_1294980" data-name="Trazado 1294980" d="M15.9,36.559c.426-.3.654-.5.912-.637.684-.369,1.369-.739,2.076-1.061,1.027-.467,2.074-.891,3.112-1.333a8.873,8.873,0,0,0,.955-.419,3.112,3.112,0,0,1,1.731-.455,6.058,6.058,0,0,0,1.31-.233,28.691,28.691,0,0,1,3.675,2.127c.474.306.982.559,1.462.856.444.274.878.567,1.3.867a1.458,1.458,0,0,1,.248.353c-1.537.258-2.913.96-4.436,1.12a3.2,3.2,0,0,0-.708.313c-.319.123-.645.228-.971.333a2.356,2.356,0,0,0-.618.178c-1.108.757-2.339.538-3.54.437a4.371,4.371,0,0,1-1.2-.453,5.029,5.029,0,0,0-1.19-.493,6.556,6.556,0,0,1-1.84-.631c-.356-.155-.726-.276-1.089-.413-.321-.122-.641-.245-1.189-.454" transform="translate(-6.777 -13.822)" fill="#b28a56" fill-rule="evenodd"/>
      <path id="Trazado_1294981" data-name="Trazado 1294981" d="M99.928,76.544c.1.516.2,1.023.32,1.612a4.585,4.585,0,0,1-1.391,2.055,2.092,2.092,0,0,1-1.513.676,7.46,7.46,0,0,1-5.722-2.025,2.115,2.115,0,0,1-.593-2.252,9.514,9.514,0,0,1,2.27-3.743,3.238,3.238,0,0,1,2.052-1.042c.56-.069.8.127.887.686.1.64.184,1.283.314,1.917a1.958,1.958,0,0,0,1.769,1.656,3.582,3.582,0,0,1,1.606.46" transform="translate(-38.765 -30.616)" fill="#aee3d3" fill-rule="evenodd"/>
      <path id="Trazado_1294982" data-name="Trazado 1294982" d="M106.458,65.051c-.133-1.4-.263-2.654-.368-3.907q-.235-2.789-.437-5.581c-.034-.473-.005-.951-.005-1.477l4.466.842a6.384,6.384,0,0,1,.453,2.059c.053.778.151,1.553.192,2.332.024.47-.05.944-.038,1.416.032,1.216.1,2.431.125,3.647a8.7,8.7,0,0,1-.109,1.063l-4.278-.392" transform="translate(-45.036 -23.058)" fill="#a0e0a5" fill-rule="evenodd"/>
      <path id="Trazado_1294983" data-name="Trazado 1294983" d="M102.694,65.571a5,5,0,0,1-.574-1.827,54.5,54.5,0,0,1-.414-5.719c-.021-1.13-.132-2.26-.121-3.389.014-1.46.069-2.921.2-4.413,1.111-.086,2.144-.175,3.179-.241a2.381,2.381,0,0,1,.643.086c.759.167,1.516.342,2.337.53.065.253.151.539.208.831a1.3,1.3,0,0,1-.035.371,1.325,1.325,0,0,1-1.146.072c-.629-.175-1.268-.332-1.877-.563a2.1,2.1,0,0,0-1.7.063,2.066,2.066,0,0,0-.321,1.31c.042,1.214.2,2.433.138,3.641-.069,1.356.225,2.68.18,4.026a6.771,6.771,0,0,0,.5,2.809,1.722,1.722,0,0,0,1.195,1.112,8.67,8.67,0,0,0,1.539.244c.821.055,1.646.052,2.559.076.059.39.113.756.166,1.111a3.4,3.4,0,0,1-.361.26.488.488,0,0,1-.251.05c-1.47-.115-2.94-.239-4.41-.352-.519-.04-1.039-.057-1.63-.089" transform="translate(-43.309 -21.308)" fill="#fff" fill-rule="evenodd"/>
      <path id="Trazado_1294984" data-name="Trazado 1294984" d="M19.353,29.819c-.116.136-.182.29-.279.313a30.483,30.483,0,0,0-3.15,1.2,23.584,23.584,0,0,0-3.941,2.009c-.748.436-1.47.917-2.37,1.482a30.534,30.534,0,0,1-4.777-1.279c-.206-.333-.127-.559.159-.68a33.587,33.587,0,0,1,3.862-1.574c1.546-.438,3.069-.94,4.6-1.414.868-.268,1.75-.492,2.615-.77a1.868,1.868,0,0,1,1.275,0c.65.239,1.306.461,2,.706" transform="translate(-2.012 -12.363)" fill="#b28a56" fill-rule="evenodd"/>
      <path id="Trazado_1294985" data-name="Trazado 1294985" d="M48.223,55.921c.6,2.1.169,4.192.8,6.143.021,2.043.539,4.029.714,6.158-1.552,1-3.013,2.2-4.765,3.157a7.161,7.161,0,0,1,.345-2.078c.451-1.945.968-3.874,1.405-5.821.188-.839.215-1.712.364-2.561.269-1.537.573-3.067.869-4.6.015-.076.091-.141.268-.4" transform="translate(-19.171 -23.841)" fill="#dead6c" fill-rule="evenodd"/>
      <path id="Trazado_1294986" data-name="Trazado 1294986" d="M69.72,82.392a3.756,3.756,0,0,1-.414-1.841,19.521,19.521,0,0,0,1.4-1.724,4.8,4.8,0,0,0,.252-5.391,6.787,6.787,0,0,0-1.71-2.1,2.116,2.116,0,0,1-.9-1.629c-.011-.169-.017-.339-.029-.58a3.85,3.85,0,0,1,.746-.16,2.1,2.1,0,0,1,1.321.5,9.282,9.282,0,0,1,3,3.687,7.508,7.508,0,0,1,.375,4.446,6.088,6.088,0,0,1-1.831,3.071,5.971,5.971,0,0,1-2.209,1.718" transform="translate(-29.126 -29.405)" fill="#dc4b5e" fill-rule="evenodd"/>
      <path id="Trazado_1294987" data-name="Trazado 1294987" d="M67.6,60.714c-.147-1.537-.246-2.921-.422-4.3s-.329-2.743-.594-4.126c.223,0,.328-.033.388.005q1.706,1.079,3.4,2.174c.328.211.647.437.979.643.48.3.976.572,1.448.882.554.363.634.766.161,1.151-.781.636-1.407,1.426-2.149,2.086a12.221,12.221,0,0,1-2.3,1.462c-.228.124-.582.019-.91.019" transform="translate(-28.388 -22.288)" fill="#dead6c" fill-rule="evenodd"/>
      <path id="Trazado_1294988" data-name="Trazado 1294988" d="M115.088,16.412a20.9,20.9,0,0,1,6.067.29,4.071,4.071,0,0,1,1.832.9,10.79,10.79,0,0,1,2.322,2.627,1.148,1.148,0,0,1,.049.32,4.294,4.294,0,0,1-.856-.009,6.137,6.137,0,0,0-3.2.277,1.35,1.35,0,0,1-1.636-.365,6.873,6.873,0,0,0-1.134-.874,33.778,33.778,0,0,1-3.44-3.162" transform="translate(-49.066 -6.96)" fill="#b28a56" fill-rule="evenodd"/>
      <path id="Trazado_1294989" data-name="Trazado 1294989" d="M116.7,13.1l-3.139.136c-.3.014-.6.028-.9.038a1.222,1.222,0,0,1-1.143-.47c-.267-.37-.774-.533-.975-1.08a2.913,2.913,0,0,1,1.669-.147c.426.072.845.188,1.264.293.628.159,1.249.338,1.879.485.481.112.485.1,1.346.746" transform="translate(-47.13 -4.91)" fill="#b28a56" fill-rule="evenodd"/>
      <path id="Trazado_1294990" data-name="Trazado 1294990" d="M75.191,14.839c.122.361.243.722.389,1.152-.323.077-.606.169-.895.209-.817.113-1.643.173-2.454.317-.637.112-1.256.325-1.886.482a38.753,38.753,0,0,1-3.772.929c-1.191.175-2.347.586-3.521.882a7.543,7.543,0,0,1-1.146.217c-.4.036-.617-.163-.732-.581a4.406,4.406,0,0,1-.1-.511c-.018-.124-.014-.251-.022-.418a12.79,12.79,0,0,1,2.769-.674c1.1-.22,2.229-.352,3.315-.6,1.437-.324,2.884-.6,4.325-.894,1.1-.226,2.211-.39,3.32-.571a1.552,1.552,0,0,1,.414.057" transform="translate(-26.027 -6.3)" fill="#b28a56" fill-rule="evenodd"/>
      <path id="Trazado_1294991" data-name="Trazado 1294991" d="M132.761,68.026c-.507.227-.931-.088-1.377-.218a.476.476,0,0,1-.1-.761c1.052-.642,1.117-1.673,1.14-2.732a7.446,7.446,0,0,1,.053-1.173,21.411,21.411,0,0,0,.115-3.514c.018-.907-.071-1.816-.106-2.724a.951.951,0,0,0-.741-.948c-.536-.17-1.061-.374-1.629-.576a1.646,1.646,0,0,1-.129-1.342c.727.254,1.384.46,2.023.711.969.381,1.345.888,1.149,1.917-.232,1.214.127,2.433-.163,3.63a11.477,11.477,0,0,1,.144,2.444,21.9,21.9,0,0,1-.256,5.06.832.832,0,0,1-.119.226" transform="translate(-55.38 -23.039)" fill="#fff" fill-rule="evenodd"/>
      <path id="Trazado_1294992" data-name="Trazado 1294992" d="M49.4,21.06a3.128,3.128,0,0,1,.454,2.128l-2.164.7a7.779,7.779,0,0,0-2.179-.909,4.37,4.37,0,0,1-.985-.595L49.4,21.06" transform="translate(-18.985 -8.979)" fill="#b28a56" fill-rule="evenodd"/>
      <path id="Trazado_1294993" data-name="Trazado 1294993" d="M130.317,58.495l1.427.517a8.317,8.317,0,0,0-.071,3.431.84.84,0,0,1-.007.389,11.734,11.734,0,0,0-.16,3.12,7.6,7.6,0,0,1-.071.906,2.636,2.636,0,0,1-.128.435c-.111.022-.163.049-.194.033s-.04-.072-.044-.114q-.439-4.15-.87-8.3a1.766,1.766,0,0,1,.119-.418" transform="translate(-55.507 -24.939)" fill="#a0e0a5" fill-rule="evenodd"/>
      <path id="Trazado_1294994" data-name="Trazado 1294994" d="M57.638,29.062a1.474,1.474,0,0,1-1.1.846c-.334-.237-.725-.5-1.1-.781a6.287,6.287,0,0,0-2.457-1.392c-.45-.1-.494-.6-.135-.9a.864.864,0,0,1,.843-.213c.367.117.722.274,1.079.42.157.064.3.2.461.207.258.011.543-.069.732.148.507.581,1.383.778,1.676,1.67" transform="translate(-22.428 -11.332)" fill="#bc6854" fill-rule="evenodd"/>
      <path id="Trazado_1294995" data-name="Trazado 1294995" d="M68.945,74.735c1.1.6,1.322,1.645,1.721,2.568-.133,1.245.175,2.615-.936,3.584-.353-.038-.354-.3-.4-.481a4.017,4.017,0,0,1-.19-1.144,35.2,35.2,0,0,0-.311-4.107,1.918,1.918,0,0,1,.116-.418" transform="translate(-29.344 -31.862)" fill="#fff" fill-rule="evenodd"/>
      <path id="Trazado_1294996" data-name="Trazado 1294996" d="M95.674,17.545c1.151,1.057,2.295,1.86,2.869,3.187-.575.476-1.013.533-1.477.177-.379-.29-.741-.6-1.182-.961a3.891,3.891,0,0,1-.211-2.4" transform="translate(-40.745 -7.48)" fill="#bc6854" fill-rule="evenodd"/>
      <path id="Trazado_1294997" data-name="Trazado 1294997" d="M53.322,4.8c1.8.027,3.491.045,5.184.08a4.778,4.778,0,0,1,2.534.478,1.124,1.124,0,0,0,.607.091c.435-.018.869-.068,1.3-.114a14.28,14.28,0,0,1,3.242.13,19.63,19.63,0,0,1,3.741,1.09c.843.274,1.525.841,2.322,1.175a16.331,16.331,0,0,1,2.526,1.8,9.791,9.791,0,0,1,2.1,2.124,22.065,22.065,0,0,1,1.859,2.516,21.335,21.335,0,0,1,1.4,1.859,3.3,3.3,0,0,1,.259.718c.233,1.105.452,2.214.665,3.324.131.683.248,1.368.362,2.054.165.987.321,1.976.48,2.963.048.3.11.6.142.9.3,2.762.621,5.524.886,8.29a34.583,34.583,0,0,1,.241,4.427c-.048,1.428.122,2.851-.045,4.288a16.506,16.506,0,0,0,.088,3.387c.165,1.785.05,3.566.073,5.349.009.783,0,1.566,0,2.45a13.658,13.658,0,0,0-1.13,1.063,8.573,8.573,0,0,1-2.273,1.46,9.01,9.01,0,0,1-2.936,1.038,2,2,0,0,0-.7.33,13.122,13.122,0,0,1-4.183,1.394,1.355,1.355,0,0,0-.509.09,5.365,5.365,0,0,1-2.664.49.892.892,0,0,1-.388,0c-1.173-.507-2.295-.044-3.4.221-1.858.446-3.709.94-5.529,1.518a28.078,28.078,0,0,0-3.845,1.2,7.4,7.4,0,0,1-2.275.513c-1.516.188-2.994.547-4.487.848-1.79.361-3.6.606-5.406.91-.856.145-1.708.31-2.577.469A2.422,2.422,0,0,1,38.7,67.172c-1.976.015-3.873.594-5.824.783-.17.016-.386.126-.5.058-.617-.373-1.168-.072-1.753.081a16.165,16.165,0,0,1-5.8.594,1.869,1.869,0,0,0-1.144.115,2.42,2.42,0,0,1-2.143-.015,2,2,0,0,0-1.37-.158c-.7.2-1.357-.2-2.026-.368-.461-.117-.913-.271-1.361-.431a26.038,26.038,0,0,1-2.437-.925,8.161,8.161,0,0,0-1.859-.577,3.4,3.4,0,0,1-2.207-.96c-.271-.322-.859-.381-1.3-.556-.484-.191-.984-.349-1.45-.575a5.671,5.671,0,0,1-2.667-3.219,6.9,6.9,0,0,1-.493-2.008,17.118,17.118,0,0,1-.4-3.085.867.867,0,0,0-.053-.387,21.592,21.592,0,0,1-.886-4.457c-.154-.855-.215-1.727-.3-2.594a23.1,23.1,0,0,0-.511-3.882,9.4,9.4,0,0,0-.361-2.7c-.168-1.156-.285-2.318-.43-3.478a3.879,3.879,0,0,0-.138-.77,13.209,13.209,0,0,1-.508-3.994,4.121,4.121,0,0,0-.072-.905,19.635,19.635,0,0,1-.42-4.019c-.031-.648-.1-1.3-.2-1.941a16.227,16.227,0,0,1,0-3.52A7.151,7.151,0,0,0,.137,21.86a1.475,1.475,0,0,1,.585-1.376,11.974,11.974,0,0,1,1.392-.965c.255-.162.564-.239.819-.4a16.983,16.983,0,0,1,4.954-1.965c1.14-.291,2.225-.745,3.342-1.085a18.817,18.817,0,0,0,3.734-1.779,14.283,14.283,0,0,1,4.006-1.455c.722-.161,1.431-.379,2.146-.574a4.217,4.217,0,0,1,1.936-.048,7.414,7.414,0,0,0,1.681.016,17.309,17.309,0,0,0,3.44-.665c.669-.169,1.322-.408,2.042-.634-.073-.876-.142-1.684-.206-2.493-.021-.26-.034-.521-.033-.781A4.217,4.217,0,0,1,32.67,3.7c1.133-.562,2.35-.891,3.5-1.4a1.542,1.542,0,0,1,.37-.129,48.529,48.529,0,0,0,5-1.431A11.323,11.323,0,0,1,44.223.259c.822-.015,1.644-.138,2.464-.226a4.27,4.27,0,0,1,3.495,1.078A15.864,15.864,0,0,1,53.322,4.8M57.1,40.075a6.394,6.394,0,0,0,.268-1.162c.011-.426-.1-.854-.133-1.283a70.829,70.829,0,0,1,0-7.694,6.375,6.375,0,0,1,.2-1.285c.156-.618.458-.824,1.118-.854a2.5,2.5,0,0,0,.649-.03,7.485,7.485,0,0,1,3.347-.019c.575.072,1.167.373,1.769.139a41.709,41.709,0,0,0-1.16-8.415,11.61,11.61,0,0,0-1.14-2.621,4.5,4.5,0,0,0-.677-.04c-.781.072-1.557.186-2.338.246a58.353,58.353,0,0,0-5.771.956c-1.068.189-2.121.461-3.183.68-2.557.529-5.111,1.076-7.677,1.562a38.83,38.83,0,0,1-4.714,1.033,1.234,1.234,0,0,0-1.035.615c.117.577.229,1.212.379,1.839.13.547.337,1.077.446,1.626.193.976.337,1.963.509,2.989a7.5,7.5,0,0,0,1.06.694,11.781,11.781,0,0,1,2.214,1.37c.87.644,1.812,1.193,2.726,1.775.44.279.91.516,1.33.821a1.517,1.517,0,0,1,.509,2.161,8.542,8.542,0,0,1-2.271,2.313,6.613,6.613,0,0,0-1.57,1.426c.024.13.018.184.043.213a.937.937,0,0,0,.188.178A9.467,9.467,0,0,1,45.767,44.6a5.254,5.254,0,0,1,.166,3.324c-.212.615-.333,1.267-.6,1.855a8.9,8.9,0,0,1-1.162,2.033,11.337,11.337,0,0,1-2,1.838,7.2,7.2,0,0,1-1.556.652c-.069.029-.118.107-.214.2.025.527.03,1.092.082,1.653.23,2.514.467,5.027.481,7.555a2.9,2.9,0,0,0,.186.7,22.618,22.618,0,0,0,4.211-.595,7.264,7.264,0,0,1,1.161-.19,29.538,29.538,0,0,0,5.694-1.2c.99-.3,2.012-.509,3.026-.727,1.4-.3,2.71-.932,4.138-1.131a2.08,2.08,0,0,0,.36-.147c.367-.127.729-.275,1.1-.367,2.144-.521,4.292-1.029,6.506-1.557a19.5,19.5,0,0,0-.242-3.073c-.2-1.058-.14-2.161-.235-3.241a24.177,24.177,0,0,0-.376-3.1,25.707,25.707,0,0,0-.505-3.135c-1.126-.084-2.158-.174-3.192-.228a1.924,1.924,0,0,0-.619.228,2.375,2.375,0,0,1,.137,2.553A4.539,4.539,0,0,1,60.62,50.62a3.723,3.723,0,0,1-1.932.72,9.519,9.519,0,0,1-5.818-1.568c-1.864-1.256-2.134-2.588-1.537-4.516A7.588,7.588,0,0,1,53.888,41.4c.944-.739,1.834-1.488,3.207-1.323M30.614,45.786c-1.428.9-2.765,1.7-4.06,2.565a3.784,3.784,0,0,1-1.443.562.518.518,0,0,1-.6-.395,1.389,1.389,0,0,1-.048-.639c.153-.812.313-1.623.513-2.425.555-2.232,1.139-4.455,1.7-6.687.262-1.052.486-2.112.727-3.169a27.624,27.624,0,0,1,.854-4.219,8.025,8.025,0,0,0,.306-3.854c-.086-.863-.325-1.71-.5-2.564a1.315,1.315,0,0,0-.079-.25,1.062,1.062,0,0,0-1.465-.706c-2.164.648-4.329,1.3-6.476,2-1.022.335-2,.795-3.074,1.226,0,.3-.012.59,0,.883a17.083,17.083,0,0,1,.1,1.823,32.155,32.155,0,0,0,.936,9.331c.231.971.343,1.971.477,2.962.07.515.041,1.043.107,1.559.164,1.293.371,2.581.535,3.874.147,1.167.2,2.35.418,3.5.106.564-.018,1.126.123,1.663a21.7,21.7,0,0,1,.521,3.462c.173,1.821.579,3.6.8,5.409.1.816.376,1.613.455,2.429a4.606,4.606,0,0,0,1.209,2.542,1.192,1.192,0,0,0,1.034.441,10.933,10.933,0,0,1,1.428.08,12.2,12.2,0,0,0,3.742-.1,2.7,2.7,0,0,1,1.01-.162c.916.182,1.555-.344,2.3-.692-.047-.66-.12-1.264-.129-1.869-.039-2.955.019-5.909-.152-8.867-.12-2.088-.5-4.136-.668-6.214-.088-1.117-.382-2.22-.615-3.5M7.766,23.919c-.091.139-.174.209-.179.283a48.334,48.334,0,0,0-.371,6.507,35.508,35.508,0,0,0,.512,4.52c.305,1.528.541,3.065.807,4.6.223,1.281.346,2.58.492,3.873.073.646.114,1.3.141,1.946.041,1,0,2.007.095,3,.26,2.683.561,5.363.878,8.039a19.311,19.311,0,0,0,.447,2.3c.35,1.435.507,2.9.719,4.357.044.3.182.583.227.882.082.559.435.791.935.953,1.2.388,2.393.788,3.563,1.249a5.924,5.924,0,0,0,1.767.4,8.01,8.01,0,0,1,3.287.659,3.14,3.14,0,0,0,.947.127,2.69,2.69,0,0,0-.323-.425,7.206,7.206,0,0,1-1.785-2.973,6.733,6.733,0,0,1-.237-1.531c-.422-2.214-.7-4.449-.973-6.684-.052-.423-.225-.832-.275-1.255-.093-.775-.085-1.564-.209-2.332a62.262,62.262,0,0,1-.919-7.479,12.533,12.533,0,0,0-.353-2.97c-.44-1.523-.31-3.109-.692-4.627a8.368,8.368,0,0,1-.278-1.4c-.078-1.03-.108-2.065-.146-3.1-.014-.39.018-.781.006-1.171-.034-1.085-.115-2.171-.11-3.256a5.983,5.983,0,0,0-.252-1.9c-.25-.076-.462-.126-.664-.2a4.649,4.649,0,0,1-1.707-.885A2.457,2.457,0,0,0,12,24.794c-.791-.235-1.58-.482-2.377-.7a4.516,4.516,0,0,0-1.859-.176m68.227,32.53c0-.379.027-.771-.005-1.159-.086-1.038-.2-2.073-.3-3.109-.009-.087-.031-.172-.041-.258-.073-.6-.15-1.207-.215-1.811-.1-.908-.153-1.822-.288-2.724a9.208,9.208,0,0,1-.408-2.02c.069-.745-.085-1.455-.057-2.18a32.535,32.535,0,0,0-.45-5.061c-.239-2.031-.434-4.068-.645-6.1-.013-.129,0-.262,0-.392a40.108,40.108,0,0,0-.734-6.734c-.085-.468-.25-.922-.312-1.392-.271-2.071-.552-4.14-.982-6.185a2.71,2.71,0,0,0-.721-1.551c-2.166.026-4.328.247-6.488.489a9.04,9.04,0,0,0-1.246.317,33.738,33.738,0,0,1,1.772,5.664c.153.854.186,1.73.3,2.591.181,1.333.286,2.672.568,4,.17.8.281,1.62.465,2.425a14.34,14.34,0,0,1,.362,1.921c.262,3.038.5,6.077.725,9.117.1,1.387.154,2.778.26,4.164a32.785,32.785,0,0,0,.351,3.374c.156.858.178,1.721.3,2.576.069.47.148.939.2,1.412.061.6.107,1.213.14,1.82s.075,1.214.052,1.818a1.425,1.425,0,0,0,.468,1.232,8.98,8.98,0,0,0,.974-.13,23.391,23.391,0,0,1,2.771-.679,5.816,5.816,0,0,0,3.182-1.43M28.942,23.637c.165.978.316,1.821.45,2.668.211,1.328.431,2.656.61,3.989.192,1.421.344,2.848.508,4.273.034.3.03.608.072.908.213,1.5.444,3.007.652,4.512.143,1.035.246,2.076.388,3.112q.3,2.2.634,4.39a36.076,36.076,0,0,0,.5,4.138,1.872,1.872,0,0,1,.036.391c.083,1.517.169,3.035.243,4.552.033.7.046,1.391.062,2.087.013.606.02,1.212.024,1.817.009,1.521-.052,3.047.042,4.563.09,1.448.159,1.45,1.631,1.645a1.845,1.845,0,0,0,1.276-.069,9.483,9.483,0,0,1,2.586-.879,8.469,8.469,0,0,0,.954-.36,13.673,13.673,0,0,0-.032-3.309q-.228-3.778-.482-7.555c-.045-.692-.141-1.383-.162-2.076-.017-.56.091-1.126.056-1.683s-.183-1.109-.273-1.665c-.013-.082.032-.172.027-.258-.08-1.384-.159-2.767-.251-4.149-.011-.169-.124-.329-.144-.5a25.36,25.36,0,0,1-.283-2.97,11.161,11.161,0,0,0-.026-1.548c-.108-.815-.173-1.635-.264-2.452-.2-1.815-.385-3.633-.628-5.442-.179-1.334-.51-2.649-.65-3.985-.172-1.652-.665-3.229-.976-4.847a4.506,4.506,0,0,0-.351-.843c-2.109.375-4.083,1.039-6.231,1.544M72.2,15.119c-.012.077-.059.176-.032.246a25.693,25.693,0,0,1,1.079,5.623c.26,1.762.439,3.536.675,5.3.149,1.115.339,2.224.517,3.377.465.118.878.24,1.3.328a4.172,4.172,0,0,1,2,.9A2.955,2.955,0,0,1,79.1,33.548c-.064.472.02.964-.041,1.436a40.131,40.131,0,0,0-.015,5.325c0,.474-.037.949-.056,1.424-.009.215-.027.43-.015.644a8.807,8.807,0,0,1-.49,3.318,1,1,0,0,1-1.078.756,2.606,2.606,0,0,0-1.464.085c.037.484.049.957.115,1.423a31.774,31.774,0,0,1,.465,3.88,10.215,10.215,0,0,0,.194,1.556A5.96,5.96,0,0,1,76.9,55.46c-.017.1.106.218.206.406a2.383,2.383,0,0,1,.705-.268c1.006-.033,1.758-.721,2.666-1a.9.9,0,0,0,.462-.432,9.98,9.98,0,0,0,.959-2.131,10.4,10.4,0,0,0,.414-3.6c-.11-.9-.177-1.814-.232-2.723-.166-2.775-.222-5.557-.461-8.33-.183-2.122-.223-4.256-.365-6.383a46.94,46.94,0,0,0-.67-5.822,5.7,5.7,0,0,1-.116-.9A16.261,16.261,0,0,0,79,18.108c-.178-.4-.374-.788-.551-1.185a4.3,4.3,0,0,0-4.091-2.231c-.722.117-1.436.282-2.155.427M10.135,64.1a1.507,1.507,0,0,0,.071-.432c-.111-.642-.25-1.278-.363-1.918-.135-.765-.235-1.537-.381-2.3s-.368-1.513-.492-2.28c-.236-1.458-.432-2.921-.63-4.385-.059-.43-.082-.867-.1-1.3-.087-1.866-.08-3.741-.278-5.6-.151-1.415-.126-2.838-.4-4.255-.465-2.385-.718-4.811-1.114-7.212a21.851,21.851,0,0,1-.032-7.525c.2-1.1.279-2.228.411-3.335a22.281,22.281,0,0,0-5.5-1.574,2.042,2.042,0,0,0-.168.468,7.989,7.989,0,0,0-.121,1.685c.158,1.462.213,2.936.5,4.387a9.7,9.7,0,0,1,.311,2.434c-.085,1.37.357,2.662.4,4.014.04,1.332.367,2.653.531,3.983a7.341,7.341,0,0,0,.5,2.417,1.2,1.2,0,0,1,.1.377q.431,3.62.856,7.241c.194,1.641.332,3.285.658,4.913.229,1.146.328,2.318.622,3.455a1.232,1.232,0,0,1,.007.131c.127.86.238,1.724.39,2.58a3.989,3.989,0,0,0,1.273,2.38A9.219,9.219,0,0,0,10.135,64.1M60.129,14.061c-.974.348-1.864.7-2.776.978-.531.162-1.122.141-1.643.324A2.5,2.5,0,0,1,53.36,15c-.472-.311-.921-.659-1.409-.94a3.412,3.412,0,0,1-1.533-1.882,12.077,12.077,0,0,0-.616-1.249,8.532,8.532,0,0,1-1.221.131,12.148,12.148,0,0,0-4.831.975,7.874,7.874,0,0,1-1.124.331c-2.106.455-4.214.9-6.406,1.364.254.418.473.736.644,1.077A10.82,10.82,0,0,1,37.374,16a1.758,1.758,0,0,1-.482,2.024L35.24,19.562a3.077,3.077,0,0,0,1.149.99c.314-.081.61-.147.9-.232,1.128-.333,2.279-.609,3.375-1.026a35.448,35.448,0,0,1,3.579-.659c1.672-.451,3.422-.6,5.1-1.027,1.6-.405,3.236-.6,4.846-.942.93-.194,1.889-.246,2.824-.419A22.118,22.118,0,0,1,60.9,15.8a3.262,3.262,0,0,0,.914-.32,5.766,5.766,0,0,0-1.683-1.416m-5.355-.254c-.146-.184-.289-.39-.457-.573a2.418,2.418,0,0,1-.6-1.414c-.126-1.08-.265-2.158-.409-3.235a4.556,4.556,0,0,0-.173-.762,14.694,14.694,0,0,0-1.346-3.239,11.148,11.148,0,0,0-2.067-2.661,4.842,4.842,0,0,1-.579-.73,6.257,6.257,0,0,0-3.535-.1c-1.4.265-2.811.5-4.194.87-1.258.335-2.5.714-3.766,1.034a25.771,25.771,0,0,0-3.88,1.492A12.652,12.652,0,0,0,31.731,5.65a1.558,1.558,0,0,0-.671,1.715c.079.383.093.777.146,1.166.125.9.231,1.811.392,2.709.122.681.352,1.344.472,2.026a1.943,1.943,0,0,0,.8,1.3c.955.677,1.938,1.313,2.9,1.958.332-.07.611-.168.668-.683-.582-.624-1.054-1.471-2.075-1.774a34.537,34.537,0,0,0-.84-3.438c-.348-1,.224-1.771.388-2.643.026-.139.208-.281.352-.361a3.772,3.772,0,0,1,.718-.288,34.178,34.178,0,0,0,4.728-1.485,9.022,9.022,0,0,1,1.882-.528c1.267-.285,2.551-.5,3.807-.823a12.435,12.435,0,0,1,2.854-.234,1.212,1.212,0,0,1,1.25.953c.092.29.2.577.3.863a21.427,21.427,0,0,0,1.022,2.672,4.1,4.1,0,0,1,.56,2.1,3.366,3.366,0,0,0,3.165,3.186c.051,0,.111-.112.224-.235M15.317,15.383c.22.092.364.166.515.211a11.506,11.506,0,0,1,2.135.947,34.514,34.514,0,0,0,4.118,2.217,1.922,1.922,0,0,1,.332.207c1.132.723,2.269,1.438,3.393,2.174a4.743,4.743,0,0,1,1.013.808,1.12,1.12,0,0,0,1.28.363q.314-.088.631-.164c.838-.2,1.669-.452,2.518-.59.9-.146,1.812-.17,2.715-.28a2.755,2.755,0,0,0,.684-.293c-.12-.189-.164-.326-.258-.395-1.5-1.1-2.857-2.383-4.387-3.452a13.92,13.92,0,0,0-2.677-1.556c-1.4-.575-2.808-1.15-4.174-1.8a3.712,3.712,0,0,0-2.371-.436,6.8,6.8,0,0,0-.861.206,12.7,12.7,0,0,1-2.483.745,4.216,4.216,0,0,0-2.123,1.089m54.713-.437.107-.287c-.447-.4-.867-.844-1.349-1.2a8.659,8.659,0,0,1-1.945-1.9,11,11,0,0,0-1.318-1.434c-.531-.513-1.1-.988-1.654-1.475a12.57,12.57,0,0,0-4.48-2.6,2.364,2.364,0,0,0-1.143-.094,19.5,19.5,0,0,1-2.2.155,13.647,13.647,0,0,0-1.982.05c.277,1,.539,1.945.792,2.862a8.187,8.187,0,0,1,2.637,1.5c1.055.838,2.066,1.735,3.156,2.523a7.27,7.27,0,0,1,1.6,1.687c.176.241.337.493.536.785a45.855,45.855,0,0,1,7.239-.577M9.118,22.737l1.189.454c.364.137.734.258,1.089.413a6.556,6.556,0,0,0,1.84.631,5,5,0,0,1,1.189.493,4.374,4.374,0,0,0,1.2.453c1.2.1,2.431.32,3.54-.437a2.385,2.385,0,0,1,.618-.179c.326-.1.652-.209.971-.332a3.2,3.2,0,0,1,.708-.314c1.523-.159,2.9-.862,4.436-1.119a1.458,1.458,0,0,0-.249-.353c-.426-.3-.859-.593-1.3-.867-.481-.3-.988-.55-1.463-.856A28.657,28.657,0,0,0,19.215,18.6a6.062,6.062,0,0,1-1.31.232,3.113,3.113,0,0,0-1.731.456,8.98,8.98,0,0,1-.954.419c-1.038.442-2.085.866-3.113,1.333-.707.321-1.392.692-2.076,1.061a10.948,10.948,0,0,0-.913.637M61.163,45.929a3.575,3.575,0,0,0-1.606-.46,1.959,1.959,0,0,1-1.769-1.656c-.13-.634-.217-1.278-.314-1.918-.084-.558-.327-.754-.886-.685a3.24,3.24,0,0,0-2.053,1.042A9.519,9.519,0,0,0,52.264,46a2.115,2.115,0,0,0,.593,2.252,7.462,7.462,0,0,0,5.722,2.025,2.1,2.1,0,0,0,1.513-.677,4.574,4.574,0,0,0,1.391-2.055c-.116-.588-.217-1.1-.32-1.611m.259-3.936,4.278.392a8.809,8.809,0,0,0,.109-1.063c-.029-1.216-.094-2.431-.125-3.647-.012-.471.062-.945.038-1.416-.04-.778-.138-1.553-.192-2.331a6.387,6.387,0,0,0-.453-2.059l-4.466-.842c0,.526-.029,1,.005,1.477q.2,2.792.437,5.582c.1,1.252.235,2.5.368,3.907m-2.037,2.271c.592.032,1.112.049,1.631.089,1.47.113,2.94.236,4.41.351a.482.482,0,0,0,.251-.05,3.4,3.4,0,0,0,.361-.259l-.165-1.111c-.913-.024-1.739-.021-2.56-.076a8.724,8.724,0,0,1-1.539-.244,1.724,1.724,0,0,1-1.195-1.113,6.77,6.77,0,0,1-.5-2.809c.045-1.346-.249-2.67-.18-4.027.061-1.208-.1-2.426-.138-3.64a2.068,2.068,0,0,1,.321-1.31,2.1,2.1,0,0,1,1.7-.063c.609.232,1.247.389,1.876.563a1.325,1.325,0,0,0,1.146-.072,1.323,1.323,0,0,0,.035-.371c-.056-.293-.143-.578-.208-.831-.821-.188-1.578-.364-2.337-.53a2.359,2.359,0,0,0-.643-.087c-1.035.067-2.068.155-3.179.241-.133,1.492-.188,2.953-.2,4.413-.011,1.13.1,2.259.12,3.389a54.668,54.668,0,0,0,.414,5.72,5.018,5.018,0,0,0,.574,1.826M17.341,17.456c-.7-.245-1.354-.467-2-.707a1.875,1.875,0,0,0-1.275,0c-.865.278-1.747.5-2.615.77-1.533.473-3.056.976-4.6,1.414A33.587,33.587,0,0,0,2.982,20.5c-.286.121-.365.347-.159.68A30.535,30.535,0,0,0,7.6,22.464c.9-.565,1.622-1.046,2.37-1.482a23.541,23.541,0,0,1,3.941-2.009,30.482,30.482,0,0,1,3.15-1.2c.1-.023.162-.177.279-.313M29.051,32.08c-.177.259-.254.323-.269.4-.3,1.532-.6,3.062-.869,4.6-.149.849-.175,1.723-.363,2.561-.438,1.947-.955,3.877-1.405,5.821a7.142,7.142,0,0,0-.345,2.078c1.752-.957,3.214-2.158,4.765-3.157-.174-2.129-.692-4.115-.714-6.158-.632-1.95-.2-4.048-.8-6.143M40.593,52.987A5.964,5.964,0,0,0,42.8,51.269,6.087,6.087,0,0,0,44.633,48.2a7.507,7.507,0,0,0-.375-4.446,9.28,9.28,0,0,0-3-3.688,2.1,2.1,0,0,0-1.321-.5,3.88,3.88,0,0,0-.746.159c.011.241.018.411.029.58a2.118,2.118,0,0,0,.9,1.629,6.779,6.779,0,0,1,1.711,2.094,4.8,4.8,0,0,1-.252,5.391,19.606,19.606,0,0,1-1.4,1.724,3.764,3.764,0,0,0,.414,1.841M39.214,38.426c.328,0,.682.1.91-.02a12.229,12.229,0,0,0,2.3-1.462c.741-.66,1.368-1.45,2.149-2.085.473-.385.394-.788-.161-1.151-.473-.31-.969-.583-1.449-.882-.331-.207-.65-.432-.978-.643q-1.7-1.092-3.4-2.174c-.06-.038-.165-.005-.388-.005.266,1.383.418,2.756.595,4.126s.274,2.759.422,4.3M66.021,9.453a33.7,33.7,0,0,0,3.44,3.161,6.881,6.881,0,0,1,1.135.875,1.35,1.35,0,0,0,1.635.365,6.139,6.139,0,0,1,3.205-.277,4.288,4.288,0,0,0,.855.009,1.107,1.107,0,0,0-.049-.32,10.775,10.775,0,0,0-2.322-2.627,4.068,4.068,0,0,0-1.832-.9,20.9,20.9,0,0,0-6.067-.29M34.54,9.684a5.253,5.253,0,0,0,2.05-.106,40.426,40.426,0,0,0,5.274-1.4,18.442,18.442,0,0,1,3.426-.755c1.213-.159,2.435-.248,3.7-.372L48.54,5.536c-.42-.007-.8-.032-1.185-.019a36.6,36.6,0,0,0-6,1.113,22.847,22.847,0,0,0-2.373.691c-1.321.425-2.633.877-3.953,1.307-.522.172-.63.524-.489,1.055M49.163,8.539a1.552,1.552,0,0,0-.414-.057c-1.108.181-2.221.345-3.32.57-1.442.3-2.888.57-4.325.894-1.086.246-2.214.377-3.315.6a12.787,12.787,0,0,0-2.769.674c.008.167,0,.294.022.418a4.292,4.292,0,0,0,.1.511c.114.418.332.617.731.581a7.543,7.543,0,0,0,1.146-.217c1.174-.3,2.33-.707,3.521-.882a38.55,38.55,0,0,0,3.772-.93c.63-.157,1.249-.369,1.886-.482.811-.144,1.637-.2,2.454-.317.289-.04.572-.133.895-.209-.146-.431-.267-.791-.389-1.152M77.38,44.987a.832.832,0,0,0,.119-.226,21.871,21.871,0,0,0,.256-5.06,11.475,11.475,0,0,0-.144-2.444c.29-1.2-.069-2.416.163-3.63.2-1.029-.18-1.536-1.149-1.917-.639-.251-1.3-.457-2.023-.711a1.646,1.646,0,0,0,.129,1.342c.568.2,1.093.406,1.629.576a.951.951,0,0,1,.741.948c.035.908.124,1.817.106,2.724a21.412,21.412,0,0,1-.115,3.514,7.512,7.512,0,0,0-.053,1.173c-.024,1.059-.088,2.09-1.14,2.732a.476.476,0,0,0,.1.761c.446.13.871.445,1.377.218M30.418,12.082l-4.874,1.325A4.361,4.361,0,0,0,26.53,14a7.8,7.8,0,0,1,2.179.909l2.164-.7a3.127,3.127,0,0,0-.454-2.128M74.809,33.557a1.743,1.743,0,0,0-.119.418q.429,4.15.87,8.3c0,.041.018.1.045.114s.083-.011.194-.034a2.674,2.674,0,0,0,.128-.435A7.588,7.588,0,0,0,76,41.014a11.687,11.687,0,0,1,.16-3.12.848.848,0,0,0,.007-.389,8.3,8.3,0,0,1,.071-3.431l-1.427-.518M35.209,17.73c-.293-.891-1.169-1.089-1.676-1.67-.189-.217-.474-.137-.732-.148-.156-.006-.3-.142-.461-.207-.357-.146-.712-.3-1.079-.42a.863.863,0,0,0-.843.213c-.359.3-.314.807.135.9A6.292,6.292,0,0,1,33.011,17.8c.371.284.761.543,1.1.78a1.472,1.472,0,0,0,1.1-.846M39.6,42.873a1.964,1.964,0,0,0-.116.418A35.213,35.213,0,0,1,39.8,47.4a4.014,4.014,0,0,0,.189,1.144c.046.178.047.443.4.481,1.111-.968.8-2.338.936-3.584-.4-.922-.621-1.964-1.721-2.568M69.574,8.188c-.861-.65-.865-.634-1.346-.746-.63-.147-1.252-.327-1.879-.485-.419-.106-.838-.221-1.264-.293a2.913,2.913,0,0,0-1.669.147c.2.547.707.71.975,1.081a1.22,1.22,0,0,0,1.143.47c.3-.01.6-.025.9-.038l3.139-.136M54.929,10.065a3.891,3.891,0,0,0,.211,2.4c.442.36.8.671,1.182.961.464.356.9.3,1.477-.177-.575-1.326-1.719-2.13-2.869-3.187" transform="translate(0 0)" fill="#262626" fill-rule="evenodd"/>
    </g>
  </g>
</svg>
