<svg xmlns="http://www.w3.org/2000/svg" xmlns:xlink="http://www.w3.org/1999/xlink" width="83.499" height="84.288" viewBox="0 0 83.499 84.288">
  <defs>
    <clipPath id="clip-path">
      <rect id="Rectángulo_456684" data-name="Rectángulo 456684" width="83.499" height="84.288" fill="#dfdfa4"/>
    </clipPath>
    <clipPath id="clip-path-2">
      <rect id="Rectángulo_458529" data-name="Rectángulo 458529" width="70.254" height="63.428" fill="none"/>
    </clipPath>
  </defs>
  <g id="Grupo_1208302" data-name="Grupo 1208302" transform="translate(-708 -2771)">
    <g id="Grupo_1207936" data-name="Grupo 1207936" transform="translate(0 -28.939)">
      <g id="Grupo_1206676" data-name="Grupo 1206676" transform="translate(708 2799.939)">
        <g id="Grupo_1206514" data-name="Grupo 1206514">
          <g id="Grupo_1206513" data-name="Grupo 1206513" clip-path="url(#clip-path)">
            <path id="Trazado_1294880" data-name="Trazado 1294880" d="M176.031,89.78c-.1-.657-.543-.29-.44-.308-.025.39.368.25.44.308" transform="translate(-92.532 -47.108)" fill="#dfdfa4"/>
            <path id="Trazado_1294881" data-name="Trazado 1294881" d="M172.186,75.475l.179.085-.554-.848Z" transform="translate(-90.548 -39.375)" fill="#dfdfa4"/>
            <path id="Trazado_1294882" data-name="Trazado 1294882" d="M170.225,67.512l.637.345c-.193-.615-.445-1.313-.706-1.954a6.487,6.487,0,0,1-.514-1.7c-.5.727.717,2.011.694,3.106Z" transform="translate(-89.342 -33.837)" fill="#dfdfa4"/>
            <path id="Trazado_1294883" data-name="Trazado 1294883" d="M170.37,57.373c-.052-.121-.118-.29-.213-.584-.17.284-.468-.57.2.735a1.123,1.123,0,0,1,.012-.151" transform="translate(-89.563 -29.921)" fill="#dfdfa4"/>
            <path id="Trazado_1294884" data-name="Trazado 1294884" d="M170.847,57.9c.253.592.052-.471,0,0" transform="translate(-90.04 -30.451)" fill="#dfdfa4"/>
            <path id="Trazado_1294885" data-name="Trazado 1294885" d="M168.683,51.778c-.478-.744-.541-.509-.569.047l.562.674c.07-.224-.211-.93.007-.72" transform="translate(-88.6 -27.041)" fill="#dfdfa4"/>
            <path id="Trazado_1294886" data-name="Trazado 1294886" d="M166.736,51.676c.027-.1,0-.213-.278-.346l.143.171.135.175" transform="translate(-87.727 -27.052)" fill="#dfdfa4"/>
            <path id="Trazado_1294887" data-name="Trazado 1294887" d="M167.2,52.413c-.212.016.036.1.327.4l-.57-.75c-.048.158-.242.261.243.352" transform="translate(-87.949 -27.437)" fill="#dfdfa4"/>
            <path id="Trazado_1294888" data-name="Trazado 1294888" d="M168.13,54.74c.065.485.194,1.08-.338.4.674,1.434,1.048,1.043.338-.4" transform="translate(-88.43 -28.849)" fill="#dfdfa4"/>
            <path id="Trazado_1294889" data-name="Trazado 1294889" d="M168.51,65.112a1.766,1.766,0,0,1-.162-.655c-.042-.252-.1-.462-.19-.412l0,.315c0,.157-.009.317-.009.317Z" transform="translate(-88.619 -33.749)" fill="#dfdfa4"/>
            <path id="Trazado_1294890" data-name="Trazado 1294890" d="M163.28,43.3c-.066-.332-.324-.887-.166-1.038-.15.032-.171.443-.294.591,0,0,.121.107.234.22l.226.227" transform="translate(-85.81 -22.272)" fill="#dfdfa4"/>
            <path id="Trazado_1294891" data-name="Trazado 1294891" d="M162.031,42.789l-.707-.646c.42.708.6.773.707.646" transform="translate(-85.021 -22.21)" fill="#dfdfa4"/>
            <path id="Trazado_1294892" data-name="Trazado 1294892" d="M165.3,52.028l.544.575-.607-.7c-.148-.177-.313-.344-.431-.471l-.2-.21.136.252s.292.271.557.559" transform="translate(-86.751 -26.993)" fill="#dfdfa4"/>
            <path id="Trazado_1294893" data-name="Trazado 1294893" d="M159.339,35.963l-.479-.239-.493-.221.392.224Z" transform="translate(-83.464 -18.711)" fill="#dfdfa4"/>
            <path id="Trazado_1294894" data-name="Trazado 1294894" d="M154.746,30.5c.47.123,0-.712.4-.5a4.949,4.949,0,0,0-1.5-.957,3.3,3.3,0,0,1,1.094,1.461" transform="translate(-80.978 -15.302)" fill="#dfdfa4"/>
            <path id="Trazado_1294895" data-name="Trazado 1294895" d="M151.959,28.207a6.326,6.326,0,0,0,.8.392,3.027,3.027,0,0,0-.8-.392" transform="translate(-80.086 -14.866)" fill="#dfdfa4"/>
            <path id="Trazado_1294896" data-name="Trazado 1294896" d="M159.279,37.542l-.117.533.206.3a1,1,0,0,0-.089-.833" transform="translate(-83.882 -19.785)" fill="#dfdfa4"/>
            <path id="Trazado_1294897" data-name="Trazado 1294897" d="M158.677,37.942l-.437-.652.433.67Z" transform="translate(-83.396 -19.653)" fill="#dfdfa4"/>
            <path id="Trazado_1294898" data-name="Trazado 1294898" d="M159.642,39.379l-.052-.076c-.012.052-.011.076.052.076" transform="translate(-84.104 -20.714)" fill="#dfdfa4"/>
            <path id="Trazado_1294899" data-name="Trazado 1294899" d="M161.079,46.152c.429.19.291-.443.987.085-.465-.357-1.221-1.182-.987-.085" transform="translate(-84.869 -24.034)" fill="#dfdfa4"/>
            <path id="Trazado_1294900" data-name="Trazado 1294900" d="M159.375,40.841s.121.21.229.429l.222.432c.079-.074.115-.307.353-.143l-.4-.363c-.2-.183-.4-.355-.4-.355" transform="translate(-83.994 -21.524)" fill="#dfdfa4"/>
            <path id="Trazado_1294901" data-name="Trazado 1294901" d="M158.572,40.179l.38.313-.18-.312Z" transform="translate(-83.571 -21.175)" fill="#dfdfa4"/>
            <path id="Trazado_1294902" data-name="Trazado 1294902" d="M152.547,30.385a5.37,5.37,0,0,1-1.11-.9c.335.453.68.918,1.038,1.334.146-.026.478.01.072-.437" transform="translate(-79.811 -15.541)" fill="#dfdfa4"/>
            <path id="Trazado_1294903" data-name="Trazado 1294903" d="M156.346,34.859l-.076-.06c.009.067.029.11.076.06" transform="translate(-82.358 -18.34)" fill="#dfdfa4"/>
            <path id="Trazado_1294904" data-name="Trazado 1294904" d="M143.543,22.024l.015.11.06-.041Z" transform="translate(-75.65 -11.607)" fill="#dfdfa4"/>
            <path id="Trazado_1294905" data-name="Trazado 1294905" d="M153.566,32.427a1.273,1.273,0,0,0,.706.594,8.444,8.444,0,0,1-.71-.714c-.066.011-.1.031,0,.12" transform="translate(-80.898 -17.027)" fill="#dfdfa4"/>
            <path id="Trazado_1294906" data-name="Trazado 1294906" d="M149.529,26.293c.1.211.231.437.362.675-.052-.249-.23-.7-.362-.675" transform="translate(-78.805 -13.857)" fill="#dfdfa4"/>
            <path id="Trazado_1294907" data-name="Trazado 1294907" d="M156.268,34.333c.018.013.035.023.053.038-.018-.163-.04-.123-.053-.038" transform="translate(-82.357 -18.055)" fill="#dfdfa4"/>
            <path id="Trazado_1294908" data-name="Trazado 1294908" d="M155.669,34.1a2.554,2.554,0,0,0-.537-.283,4.675,4.675,0,0,0,.538.464.631.631,0,0,1,0-.182" transform="translate(-81.758 -17.822)" fill="#dfdfa4"/>
            <path id="Trazado_1294909" data-name="Trazado 1294909" d="M144.921,23.242l.218.215L145,23.4l.319.24a5.516,5.516,0,0,1-.688-1.3c-.626-.3-.818-.281-.933-.216l.724.66.5.455" transform="translate(-75.734 -11.64)" fill="#dfdfa4"/>
            <path id="Trazado_1294910" data-name="Trazado 1294910" d="M148.409,26.619c-.5.052-1.309-.457-1.2.25.831.778.8.331,1.408.7-1.357-1.277.535.232-.232-.908a7.49,7.49,0,0,1,.779.661c-.2-.28-.38-.559-.54-.836l.012.049.007.005-.006,0c.02.095.017.136-.026.049a.14.14,0,0,1-.034-.023.4.4,0,0,1-.168.046c-.317-.454.016-.137.168-.046a.288.288,0,0,0,.059-.026v-.009s-.364-.306-.751-.587l-.76-.57a12,12,0,0,0,1.282,1.24" transform="translate(-77.539 -13.375)" fill="#dfdfa4"/>
            <path id="Trazado_1294911" data-name="Trazado 1294911" d="M158.426,45.8a.1.1,0,0,1,.05-.1c-.105-.071-.158-.09-.05.1" transform="translate(-83.463 -24.057)" fill="#dfdfa4"/>
            <path id="Trazado_1294912" data-name="Trazado 1294912" d="M158.718,41.72l.045-.1c-.024-.016-.039.022-.045.1" transform="translate(-83.648 -21.935)" fill="#dfdfa4"/>
            <path id="Trazado_1294913" data-name="Trazado 1294913" d="M158.6,43.5c.1.377-.167.1-.27.188.231.156.726.614.467-.179l-.116-.079a4.7,4.7,0,0,1-.295-1.6,3.017,3.017,0,0,0-.3,1.2.9.9,0,0,1,.511.468" transform="translate(-83.317 -22.046)" fill="#dfdfa4"/>
            <path id="Trazado_1294914" data-name="Trazado 1294914" d="M152.383,34.4l-.576-.512.237.813.137-.166c.488.717.562.417.76.4l-.172-.168c-.1-.1-.239-.236-.386-.363" transform="translate(-80.006 -17.862)" fill="#dfdfa4"/>
            <path id="Trazado_1294915" data-name="Trazado 1294915" d="M143.225,20.921s-.269-.038-.547-.058l-.549-.045.662.3Z" transform="translate(-74.905 -10.971)" fill="#dfdfa4"/>
            <path id="Trazado_1294916" data-name="Trazado 1294916" d="M140.013,18.161s-.142-.038-.288-.07l-.288-.067.291.391Z" transform="translate(-73.486 -9.499)" fill="#dfdfa4"/>
            <path id="Trazado_1294917" data-name="Trazado 1294917" d="M36.923,14.889l.4.229a2.545,2.545,0,0,1,.993-.564c-.751.065-1.7.029-1.395.335" transform="translate(-19.429 -7.67)" fill="#dfdfa4"/>
            <path id="Trazado_1294918" data-name="Trazado 1294918" d="M97.814,1.9A6.493,6.493,0,0,0,96.4,1.472c.674.322,1.18.744,1.411.429" transform="translate(-50.807 -0.776)" fill="#dfdfa4"/>
            <path id="Trazado_1294919" data-name="Trazado 1294919" d="M9.262,132.842c.2.209.338.271.413.219-.2-.215-.355-.32-.413-.219" transform="translate(-4.881 -69.99)" fill="#dfdfa4"/>
            <path id="Trazado_1294920" data-name="Trazado 1294920" d="M94.53,1.179a2.063,2.063,0,0,0-1.68-.14c.1.049.2.078.3.12a5.309,5.309,0,0,1,1.38.019" transform="translate(-48.934 -0.484)" fill="#dfdfa4"/>
            <path id="Trazado_1294921" data-name="Trazado 1294921" d="M173.616,102.7a2.579,2.579,0,0,0,.068-.782c0,.19-.037.494-.068.782" transform="translate(-91.5 -53.713)" fill="#dfdfa4"/>
            <path id="Trazado_1294922" data-name="Trazado 1294922" d="M125.312,9.49c.405.166.084-.015,0,0" transform="translate(-66.042 -5.001)" fill="#dfdfa4"/>
            <path id="Trazado_1294923" data-name="Trazado 1294923" d="M127.409,14.545a.27.27,0,0,0-.244.1.342.342,0,0,1,.244-.1" transform="translate(-67.019 -7.666)" fill="#dfdfa4"/>
            <path id="Trazado_1294924" data-name="Trazado 1294924" d="M125.886,10.062a3.56,3.56,0,0,0-.443-.362,4.15,4.15,0,0,0,.443.362" transform="translate(-66.111 -5.112)" fill="#dfdfa4"/>
            <path id="Trazado_1294925" data-name="Trazado 1294925" d="M126.395,10.014l.322.21c.08-.036.056-.1-.322-.21" transform="translate(-66.613 -5.278)" fill="#dfdfa4"/>
            <path id="Trazado_1294926" data-name="Trazado 1294926" d="M124.684,9.233,124.12,9a4.4,4.4,0,0,1,.626.331c-.066-.061-.089-.1-.062-.1" transform="translate(-65.414 -4.744)" fill="#dfdfa4"/>
            <path id="Trazado_1294927" data-name="Trazado 1294927" d="M82.116,48.987c-.142.369-.4-.071-.64-.03,0,0,.061-.141.147-.354l.317-.784.317-.793c.087-.218.132-.365.132-.365-.295-.249-.257-.886-.218-1.5s.031-1.211-.257-1.343l.088.756c-.342-.516-.736-.175-1.174.245l-.135.127c.042-.752.069-1.508.069-2.271A39.608,39.608,0,0,0,68.242,13.735a.326.326,0,0,0,.077.042l.12-.179c-.357-.324-.7-.47-.557-.207-.315-.289-.639-.567-.963-.846.805.269,1.167-.98.99-2.018-.13.111-.216.207-1.107-.207.155.351,1.3,1.717.482,1.455-1.059-.66-.7-.74-1.048-1.281.1.6-1.285-.2-1.733.125a39.685,39.685,0,0,0-6.3-3.788c.065-.032.089-.085.031-.177l-.655-.218c-.411-.636,1.426.023.708-.513A11,11,0,0,1,59.84,6.2a5.093,5.093,0,0,1,.825.291,4.32,4.32,0,0,1,.8.526l-.074.626c.062-.159-.578-.732-.987-.76.3.022.648.449,1.022.817s.776.694,1.229.54l-.285-.421c-.14-.215-.3-.411-.3-.411.489.107,1.049.22,1.622.381a3.538,3.538,0,0,1,1.564.844c-.12-.786-.257-.107-.587-1.154.168,1.093-2.6-1.7-2.049-.315a2.092,2.092,0,0,0-.793-1.082,4.546,4.546,0,0,1-1.055-1.1c-.056.186.2.511-.67-.038a1.034,1.034,0,0,1-.275.049l-.055-.044.04.046c-.052.006-.058.009.015.017a1.149,1.149,0,0,1,.328.495,3.043,3.043,0,0,1-1.345-.222A7.307,7.307,0,0,0,57.5,4.964c-.5-.327.313-.1.1-.42l-.434-.009-.438.009c.095-.42-1.22-1.24.194-.95l-1.187-.488a4.616,4.616,0,0,0-2.261-.931c-.561-.256-1.6.034-1-.143l-1-.143-1.007-.1.006-.107a17.735,17.735,0,0,0-3.04-.353A9.4,9.4,0,0,1,44.217.676c-.337.029-.678.06-1.072.066a7.39,7.39,0,0,1-1.4-.062L41.535.307A11.281,11.281,0,0,1,39.871.236c-.587-.044-1.116-.064-1.289.15a1.79,1.79,0,0,0-1.1-.371,6.071,6.071,0,0,0-1.573.11c-.558.1-1.132.2-1.656.332a8.841,8.841,0,0,1-1.389.252l.035.481a8.512,8.512,0,0,0-1.519.4c-.257.088-.519.184-.793.288s-.55.241-.846.373l.189.387a5.719,5.719,0,0,1-1.951.577c-.389.071-.8.141-1.22.231a8.335,8.335,0,0,0-1.231.4c.05-.194.479-.317.8-.341a3.584,3.584,0,0,0-1.6.3,8.8,8.8,0,0,0-1.4.856c-.452.306-.867.661-1.306.929a3.99,3.99,0,0,1-1.383.558,1.7,1.7,0,0,1-.992.565.332.332,0,0,0,.09-.078,1.877,1.877,0,0,0-.17.092,5.72,5.72,0,0,0-.677.15,3.325,3.325,0,0,0,.587-.1,7.771,7.771,0,0,0-1.137.918L17.9,7.448c-.034.029-.064.047-.1.079-.543.149-.238.409.189.542a2.564,2.564,0,0,0-.428.628c-.768-.345-1,.992-1.924.737-.027.264-.514.738-.955,1.244a2.428,2.428,0,0,0-.671,1.3A2.75,2.75,0,0,0,12.8,13.149l-.583-.244-.2.725-.166.736c-.788.315-1.172.421-.952-.456a14.393,14.393,0,0,1-.789,1.556,5.382,5.382,0,0,0-.589,1.4l-.242-.3c-.345.462-.508,1.481-.965,1.562a9.587,9.587,0,0,0-2.6,3.13c-.957,1.575-1.937,3.413-2.89,4.811.639-.07.361.225.032.607s-.706.861-.331,1.076c-.313.084-.622.467-.636-.118a10.7,10.7,0,0,1-.714,1.946A2.292,2.292,0,0,0,1,31.277c-.306.117-.268-.456-.464-.332.016.149.07.585-.129.716s-.143-.3-.177-.594A3.389,3.389,0,0,0,.1,32.119a1.447,1.447,0,0,0,.227.67,1.932,1.932,0,0,0,.946.647,2.188,2.188,0,0,0-.455.974,1.66,1.66,0,0,0,.253.932c-.295.248-.639.705-.538-.361l-.207.8-.141.586c-.038.207-.072.421-.1.632-.117.843-.151,1.628.161,1.688-.167.172-.108.829-.051.989-.072.665-.118,1.027-.131,1.388s-.029.718-.017,1.375l.108-.363c.7.523.16,1.082.274,2.135l-.076-.027a5.153,5.153,0,0,0-.128,1.228,1.754,1.754,0,0,0,.084.5,1.516,1.516,0,0,1,.07.5c-.007.246-.034.611-.1,1.224l.434-.183c.5.054.421.582.289,1.278a3.944,3.944,0,0,0,.058,2.2l.164-.541c.22.34.018.911-.241,1.519a4.17,4.17,0,0,0-.52,1.638c-.033.185-.21-.223-.326-.44,0,2.133.645.106,1.188,1.522-.224.361-.893-.113-.641.892-.04.284.444.919.928,1.652a4.538,4.538,0,0,1,1.022,2.3c.1-.381.2-.749.66-.189a11.147,11.147,0,0,1,.532,1.925c.2.7.451,1.368,1.044,1.591.009.151-.022.228-.072.263.3.3.682.85,1.116,1.314a3.512,3.512,0,0,0,1.165.964,1.123,1.123,0,0,0,.168,1.226A6.27,6.27,0,0,0,8.4,67.842a11.4,11.4,0,0,1,1.125,1.09c.262.316.34.6.063.831,0,0,.422.469.861.921l.9.885-.151.055a4.456,4.456,0,0,0,1.351,1.146,3.241,3.241,0,0,0,1.026.327c.212.315-.08.239-.155.275a8.26,8.26,0,0,0,1.759,1.662,7.253,7.253,0,0,0,2.066.783l-.107.5c.295.044.87.691,1.7,1.383.206.176.424.359.656.538s.488.335.746.492a5.624,5.624,0,0,0,1.651.722.379.379,0,0,1-.324.07,19.531,19.531,0,0,1,3.741,1.995c1.191.69,2.3,1.08,3.014.42,0,0,.434.046.875.053l.873.029c-2.056-.722.515-.624-.263-1.14a2.6,2.6,0,0,1,1.162.57c.263.219.294.416-.222.324l-.135-.127c-.61.791,2.549.943,2.375,1.5,2.132.409,4.252.738,6.364.961a32.264,32.264,0,0,0,6.266.061l-.271-.315-.268-.322s.088,0,.22-.014l.483-.047.7-.07c.389.113.573.473-.445.574.587.325,1.653-.543,1.647-.712,2-.073-.633.932-.034.842l.817-.2-.2-.046c.309-.2.463-.375.691-.523a3.258,3.258,0,0,1,1.123-.4c.782-.038.483.327.787.284.009.048.116.047.463-.087,0,0,.112-.018.276-.062l.6-.15.879-.219-.845-.328c.689-.47,1.616-.44.651-.8.707.281,2.329-.151,3.816-.765.748-.294,1.449-.662,2.03-.916a5.6,5.6,0,0,1,1.2-.5,5.7,5.7,0,0,1,.634-.581,7.738,7.738,0,0,1,.683-.518c.479-.326,1.02-.605,1.593-.959-.343.085-.83-.332.171-.885.164.639.7.489,1.327.155a4.182,4.182,0,0,1,2.025-.733c-.518.022.119-.525.683-1.056s1.016-1.092.245-.982c.8-.555.35.324,1.107.063a12.722,12.722,0,0,1,1.243-1.358l1.473-1.318c.254-.227.521-.447.774-.687l.752-.742a11.491,11.491,0,0,0,1.379-1.655c-.1-.136-.6.085-.418-.549l.249-.107c.152-.063.349-.153.541-.247l.781-.38c.259-.526-.464-.957.57-1.515-.2.048-.49.114-.33-.234a22.8,22.8,0,0,0,4.043-7.519c.975-2.726,1.735-5.47,2.948-8.206-.456.72-.394.2-.3-.389M66.805,12.447q-.591-.5-1.2-.985a1.954,1.954,0,0,1,1.2.985m-1.434-1.2c0,.008-.013.012-.021.018l-.088-.069.109.052M54.717,3.032a.207.207,0,0,0-.039.01c-.612-.394-.4-.248.039-.01m-7.35-.421a8.9,8.9,0,0,1,1.372-.117c1.548.1.544.639.829.577a4.941,4.941,0,0,0,1.617.219,4.833,4.833,0,0,0,1.043-.144,2.483,2.483,0,0,1,2.227.439c.736.787-.294.969-.213,1.383a3.752,3.752,0,0,1-1.4-.559,4.552,4.552,0,0,0-1.1-.537l.918.51a2.906,2.906,0,0,1-1.625-.305,1.388,1.388,0,0,0,.364.24,39.54,39.54,0,0,0-5.639-1.086,2.971,2.971,0,0,1,.5-.281,4.967,4.967,0,0,1,1.1-.34m-7.976-.042c-.041.138.1.3.214.409Q39,3,38.4,3.038a2.987,2.987,0,0,1,.993-.469m-8.259.313c.08.007.677.046,1.313.118a6.023,6.023,0,0,1,1.584.348.432.432,0,0,1,.187.189c-.481.083-.962.169-1.437.27l-.178-.7-.02.744c-.469.1-.938.205-1.4.324a2.1,2.1,0,0,1-.047-1.294M23.94,5.327l.44.143.55-.443c.276-.223.565-.423.565-.423-.212.444-.59,1.183-1,1.947q-1,.46-1.974.97A4.684,4.684,0,0,1,23.94,5.327m-9.931,6.651a.519.519,0,0,0,.035.182c-.081-.065-.224-.007-.035-.182M11.824,14.53a1.73,1.73,0,0,0,.614.575c-.236.245-.475.488-.7.739.012-.236.027-.457.041-.649.029-.4.049-.665.049-.665M1.542,33.863c.142-.176.307.035.493.353-.023-.121-.047-.236-.073-.327.14-.211.267-.273.384-.246-.061.265-.127.527-.184.794l-.127-.221c.028.129.053.271.082.417-.025.119-.043.241-.066.361a6.136,6.136,0,0,0-.517.572s-.006-.426-.013-.852.021-.851.021-.851M50.988,83.021l-.3-.052c.588-.271.444-.115.3.052" transform="translate(0 0)" fill="#dfdfa4"/>
            <path id="Trazado_1294928" data-name="Trazado 1294928" d="M132.726,13.455c.034-.089-.017-.273.137-.219-.081-.04-.211-.1-.351-.158l-.442-.186a1.64,1.64,0,0,1,.656.562" transform="translate(-69.604 -6.795)" fill="#dfdfa4"/>
            <path id="Trazado_1294929" data-name="Trazado 1294929" d="M133.841,13.665a.437.437,0,0,1,.039.02l-.039-.02" transform="translate(-70.537 -7.202)" fill="#dfdfa4"/>
            <path id="Trazado_1294930" data-name="Trazado 1294930" d="M133.747,13.619l.044.021a.455.455,0,0,0-.044-.021" transform="translate(-70.488 -7.178)" fill="#dfdfa4"/>
            <path id="Trazado_1294931" data-name="Trazado 1294931" d="M133.723,17.4c-.153.37.415.542.97.865a.753.753,0,0,1-.092-.065c.462-.335-.2-.59-.877-.8" transform="translate(-70.462 -9.172)" fill="#dfdfa4"/>
            <path id="Trazado_1294932" data-name="Trazado 1294932" d="M136.561,19.726c.187-.131-.17-.176-.488-.335a3.2,3.2,0,0,1,.488.335" transform="translate(-71.714 -10.219)" fill="#dfdfa4"/>
            <path id="Trazado_1294933" data-name="Trazado 1294933" d="M121.658,8.44c.244.219.377-.368.476-.152.515-.312-2.145-.306-.476.152" transform="translate(-63.823 -4.254)" fill="#dfdfa4"/>
            <path id="Trazado_1294934" data-name="Trazado 1294934" d="M132.715,19.648l.072-.516-.5.131Z" transform="translate(-69.716 -10.083)" fill="#dfdfa4"/>
            <path id="Trazado_1294935" data-name="Trazado 1294935" d="M124.531,14.335l.831.573c.024-.077.159-.06.315-.02-.543-.3-1.106-.69-1.147-.553" transform="translate(-65.631 -7.54)" fill="#dfdfa4"/>
            <path id="Trazado_1294936" data-name="Trazado 1294936" d="M127.7,15.866a4.167,4.167,0,0,0-.742-.33,2.357,2.357,0,0,0,.742.33" transform="translate(-66.909 -8.188)" fill="#dfdfa4"/>
            <path id="Trazado_1294937" data-name="Trazado 1294937" d="M101.214,7.035c.277-.066.689-.056.553-.239l-1.1-.059c-.136.141.14.291.55.3" transform="translate(-53.034 -3.551)" fill="#dfdfa4"/>
            <path id="Trazado_1294938" data-name="Trazado 1294938" d="M175.384,94.348s.072-.215.124-.432l.112-.435-.339.551Z" transform="translate(-92.377 -49.267)" fill="#dfdfa4"/>
            <path id="Trazado_1294939" data-name="Trazado 1294939" d="M174.723,90.743l-.543-.524c.023.194.066.574-.076.719Z" transform="translate(-91.757 -47.547)" fill="#dfdfa4"/>
          </g>
        </g>
      </g>
      <g id="Grupo_1207935" data-name="Grupo 1207935" transform="translate(715 2811.072)">
        <g id="Grupo_1207934" data-name="Grupo 1207934" clip-path="url(#clip-path-2)">
          <path id="Trazado_1400600" data-name="Trazado 1400600" d="M70.866,29.66c-.2-2.168-.4-4.34-.407-6.52s.138-4.332.178-6.5c.023-1.221.008-2.443-.084-3.662a1.486,1.486,0,0,0-.495-1.005q0-.363,0-.725a1.192,1.192,0,0,0-.024-.231c.006-.213.009-.425.006-.638a1.046,1.046,0,0,0,.256-.483A3.783,3.783,0,0,0,70.3,8.429a1.283,1.283,0,0,0-.587-.764,1.371,1.371,0,0,0-.675-.175l-.008-.005a1.644,1.644,0,0,0-.975-.185h-.006c-.033-.02-.066-.04-.1-.063a1.151,1.151,0,0,0-.8-.164,33.837,33.837,0,0,0-4.84-1.333c-1.983-.413-3.982-.763-5.93-1.326a1.269,1.269,0,0,0-.865.075,22.973,22.973,0,0,0-3.8-1.275c-.69-.166-1.383-.32-2.069-.5-.341-.091-.681-.19-1.017-.3q-.252-.083-.5-.175l-.18-.069-.1-.042-.035-.015a1.446,1.446,0,0,0-.9-.149,1.3,1.3,0,0,0-1.739-.446,1.336,1.336,0,0,0-.127.093,1.267,1.267,0,0,0-.533.164c-.24.137-.482.269-.73.391q-.2.1-.4.188l-.178.079-.01,0a16.274,16.274,0,0,1-1.593.529c-.244.065-.488.13-.728.2a1.085,1.085,0,0,0-.728-.011c-1.313.448-2.579,1.023-3.844,1.589-.3.132-.59.264-.887.393l-.222.1c-.035.015-.291.12-.115.05s-.108.045-.115.048l-.224.092c-.613.249-1.235.475-1.868.668a1.377,1.377,0,0,0-.8.662,1.129,1.129,0,0,0-.153.036,22.913,22.913,0,0,0-4.853,2.157,1.181,1.181,0,0,0-.134.094,6.771,6.771,0,0,1-2.339-.954.6.6,0,0,1-.218-.228c-1.345-.179-2.7-.306-4.045-.446-.647-.067-1.293-.137-1.938-.218l-.259-.033-.06-.008c-.126-.016-.251-.035-.377-.053q-.517-.073-1.034-.154c-1.291-.2-2.579-.424-3.867-.641-1.538-.259-3.079-.5-4.627-.7a1.068,1.068,0,0,0-.611.158c-.214-.116-.428-.231-.647-.338a1.413,1.413,0,0,0-1.4.061,4.614,4.614,0,0,0-1.006-.35,1.437,1.437,0,0,0-.7.019c-.255-.146-.519-.277-.755-.415A1.25,1.25,0,0,0,2.5,4.576a.942.942,0,0,0-.2-.029.968.968,0,0,0-.51.023A1.278,1.278,0,0,0,.906,6.141c.026.082.061.159.1.239l.041.1q.2,3.588.394,7.177a1.439,1.439,0,0,0,.129.517L1.483,25.966l-.027,3.811a1.249,1.249,0,0,0,.193.661q0,5.49,0,10.98,0,1.564,0,3.127a1.369,1.369,0,0,0,.124.56l.067,7.779a1.5,1.5,0,0,0-.214.674q-.113,1.405-.225,2.811c-.085,1.066-.455,2.53.691,3.171a3.965,3.965,0,0,0,1.425.317l1.469.2,2.834.39a2.542,2.542,0,0,0,.416.03,1.248,1.248,0,0,0,.932.419q2.655.017,5.3.243a1.072,1.072,0,0,0,.771.614q5.744,1,11.506,1.879a1.4,1.4,0,0,0,.984-.129,1.369,1.369,0,0,0,.511-.553l.04-.018q.395-.2.8-.382c.129-.058.259-.114.388-.171l.255-.1c.562-.226,1.132-.435,1.7-.638,1.129-.4,2.267-.777,3.386-1.206,1.194-.458,2.372-.959,3.55-1.458l.819-.347.006,0,.144-.061.455-.191c.562-.234,1.125-.464,1.692-.684q.273-.107.548-.209a1.369,1.369,0,0,0,1.12-.069c.178-.088.358-.174.539-.256l.177-.078L44.063,57c.386-.151.779-.284,1.175-.4.025-.008.05-.016.074-.025a1.484,1.484,0,0,0,.368.184,56.12,56.12,0,0,0,8.986,2.479c.748.122,1.5.242,2.231.428s1.472.433,2.195.689c1.494.53,2.982,1.075,4.473,1.613l5.1,1.841a1.265,1.265,0,0,0,1.239-2.116q-.159-3.927.019-7.858a1.161,1.161,0,0,0-.21-.7,1.251,1.251,0,0,0,.3-.805q.017-2.128-.093-4.253a1.469,1.469,0,0,0,.2-1.079c0-.019-.01-.047-.018-.076l.006.018a1.679,1.679,0,0,1-.035-.3c-.019-.183-.034-.366-.046-.549-.024-.38-.034-.762-.034-1.143,0-.021.005-.041.007-.062q.386-5.923.216-11.864-.032-1.11-.085-2.22a1.18,1.18,0,0,0,.733-1.136M23.654,10.319c0,.023,0,.045,0,.068l-.088-.019c-.007-.022-.015-.043-.024-.064l.115.014m42.01,44q.1,1.663.19,3.326-3.755-.894-7.47-1.945c-1.363-.386-2.715-.832-4.092-1.167-1.308-.318-2.652-.441-3.938-.855q-.243-.078-.484-.166l-.218-.082a1.3,1.3,0,0,0-.257-.1l-.039-.017q-.128-.056-.254-.115-.253-.118-.5-.247a13.832,13.832,0,0,1-1.813-1.132,1.283,1.283,0,0,0-1.734.434,1.1,1.1,0,0,0-.583.171,22.956,22.956,0,0,1-2.156,1.239,1.408,1.408,0,0,0-1.226.023l-6.113,2.77-.054.027q-1.606.438-3.182.978c-1.331.456-2.638.972-3.932,1.524a1.276,1.276,0,0,0-.587.764,1.2,1.2,0,0,0-.039.228h0l-3.424-.7-1.66-.339c-.276-.056-.554-.109-.827-.176-.124-.031-.247-.064-.369-.1-.037-.012-.22-.1-.071-.018.173.091-.1-.05-.108-.055a1.36,1.36,0,0,0-1.554.2,17.115,17.115,0,0,0-3.487-.669l-5.278-.8-3.031-.458a1.824,1.824,0,0,0-.618-.009,1.452,1.452,0,0,0-.339-.308L6.363,56.5l-.213-.216c-.053-.089-.111-.174-.158-.267l-.016-.034-.008-.023c-.02-.076-.047-.15-.065-.226-.006-.026-.011-.052-.016-.079,0-.094-.006-.188,0-.282a1.258,1.258,0,0,0-.474-.989q-.165-6.415-.242-12.833Q5.085,34.695,5.1,27.84q.011-3.879.055-7.758a1.277,1.277,0,0,0-.321-.837c0-.235.006-.469.009-.7q.056-3.8.137-7.59a1.224,1.224,0,0,0-.218-.7q.039-.454.079-.908a32.521,32.521,0,0,1,3.748,1.008,1.164,1.164,0,0,0,.719-.013,1.074,1.074,0,0,0,.448.213c2.148.462,4.294.975,6.459,1.354,1.147.2,2.3.318,3.461.428.263.025.525.051.788.082l.21.025c.043.005.265.027.086.011s0,0,.033.005l.3.046c.523.082,1.042.18,1.56.287.585.121,1.168.254,1.75.388.282.065.565.126.844.2.12.033.239.068.357.109l.059.018c.05.023.1.047.148.073a1.3,1.3,0,0,0,1.748-.458,1.4,1.4,0,0,0,.156-.581,1.31,1.31,0,0,0,1.663.34q1.965-.962,3.97-1.841.5-.217.993-.428l.043-.018.221-.093.523-.217q1.024-.421,2.057-.82a2.258,2.258,0,0,0,.3-.139,1.544,1.544,0,0,0,.952-.121q.938-.412,1.88-.814L40.76,8.2l.087-.037.189-.079q.484-.2.97-.4c.607-.251,1.213-.5,1.825-.743.31-.121.623-.236.942-.331.143-.043.287-.082.432-.116.081-.019.162-.036.243-.052.046-.009.179-.028.2-.031a1.709,1.709,0,0,0,.251.218,22.2,22.2,0,0,0,5.762,2.932,20.774,20.774,0,0,0,3,.776c.6.108,1.2.188,1.808.269l.37.049.115.015h.007c.276.038.553.077.829.121q.355.057.709.125a14.387,14.387,0,0,0,2.575,1.076,1.323,1.323,0,0,0,1.418-.536,1.1,1.1,0,0,0,.146-.206,20.2,20.2,0,0,0,2.555.482.907.907,0,0,0,.3-.019q.013.928.07,1.854-.1,3.465-.092,6.932a1.338,1.338,0,0,0,.683,1.134c.008,1.137.046,2.274.107,3.41a1.268,1.268,0,0,0-1.033,1.244c.079,1.922.239,3.835.446,5.747a52.973,52.973,0,0,1,.3,5.737c0,.921-.016,1.843-.035,2.764a1,1,0,0,0-.154.632q.185,1.926.209,3.862c.015,1.281-.051,2.557-.1,3.837-.023.649-.033,1.3,0,1.948a8.568,8.568,0,0,0,.254,2,1.617,1.617,0,0,0,.183.4,1.2,1.2,0,0,0-.673,1.108" transform="translate(-0.679 -1.057)" fill="#f5f5e4"/>
          <path id="Trazado_1400601" data-name="Trazado 1400601" d="M279.128,235.785l0-.012-.01.019.007-.007" transform="translate(-220.967 -186.65)" fill="#5ea86a"/>
          <path id="Trazado_1400602" data-name="Trazado 1400602" d="M253.406,222.843q-.47-3.283-.689-6.6-.112-1.671-.161-3.346a10.132,10.132,0,0,1,0-1.658c.07-.512.235-1,.274-1.518a.632.632,0,0,0-.393-.584.656.656,0,0,0-.7.132,8.549,8.549,0,0,1-1.007.734,1.149,1.149,0,0,0-.933.047c-1.608.744-3.59,1.514-4.07,3.432a4.162,4.162,0,0,0-.1.753c-.006.093-.01.186-.015.28,0,.007,0,.013,0,.019-.005.025-.014.066-.023.1-.01.015-.026.037-.038.057l-.046.046,0,0c-.022.013-.088.061-.146.1l-.014,0-.1.037c-.08.028-.162.052-.244.073s-.165.04-.249.056l-.107.019a.259.259,0,0,0-.07.021c-.073.007-.159,0-.215.008q-.183.016-.366.026c-.244.014-.489.022-.734.026-1.1.017-2.207-.043-3.309.022a1.193,1.193,0,0,0-.664.254,1.234,1.234,0,0,0-.311-.038,2.341,2.341,0,0,0-1.665.581,1.844,1.844,0,0,0-.5,1.76c.325,1.193,1.719,1.311,2.731,1.571l.689.176a.658.658,0,0,0,.194.177,6.557,6.557,0,0,0,2.3.743.8.8,0,0,0,.248.006q1.679.571,3.4,1,1.223.307,2.463.543a.7.7,0,0,0,.451.469q1.671.617,3.337,1.246a.629.629,0,0,0,.621-.164.673.673,0,0,0,.164-.621" transform="translate(-187.424 -165.527)" fill="#5ea86a"/>
          <path id="Trazado_1400603" data-name="Trazado 1400603" d="M78.059,25.923a1.1,1.1,0,0,0-.658.247,5.066,5.066,0,0,0-.574-.393,2.04,2.04,0,0,0-1.019-.325,2.069,2.069,0,0,0-1.023.029,8.855,8.855,0,0,0-1.02-.334,13.235,13.235,0,0,0-1.373-.261c-.467-.067-.935-.123-1.4-.175q-1.038-.22-2.062-.5a2.815,2.815,0,0,0-1.2-.049c-.79-.215-1.568-.475-2.349-.737-.709-.238-1.4-.51-2.105-.768-.581-.214-1.2-.243-1.79-.412a3.451,3.451,0,0,1-.342-.223,2.473,2.473,0,0,0-1.491-.365,2.627,2.627,0,0,0-1.222-.725,2.775,2.775,0,0,0-2.113.276,3.241,3.241,0,0,0-.535.428,2.649,2.649,0,0,0-.77.2,3.321,3.321,0,0,0-.308.149,2.794,2.794,0,0,0-.679.39,2.989,2.989,0,0,0-.321.288,7.226,7.226,0,0,0-5.332,2.411,2.951,2.951,0,0,0-.794,1.74,17.837,17.837,0,0,0-1.462,1.958c-.532.844-.837,1.813-1.384,2.645a10.846,10.846,0,0,1-1.451,1.305,13.365,13.365,0,0,1-2.233,1.456,8.87,8.87,0,0,0-1.165.478,3.218,3.218,0,0,0-1.642,2.782,2.476,2.476,0,0,0,.02.318,1.786,1.786,0,0,0-.253.39,3.2,3.2,0,0,1-.158.294q-.079.083-.163.16a5.449,5.449,0,0,1-.527.3c-.994.356-2.048.513-3.061.809a3.029,3.029,0,0,0-.768-.129,7.5,7.5,0,0,0-1.98.237,5.322,5.322,0,0,0-1.2.005,10.1,10.1,0,0,0-1.8.292,5,5,0,0,0-1.937,1.1,3.844,3.844,0,0,0-1.11,1.89,2.845,2.845,0,0,0,.276,2.113l.026.04c-.034.1-.068.2-.1.293a3.1,3.1,0,0,0-.164.678,2.267,2.267,0,0,0-.27,1.188,4,4,0,0,0,.486,1.752c.06.106.126.21.2.311a2.8,2.8,0,0,0,1.257,1.629,3.253,3.253,0,0,0,.415.184,2.09,2.09,0,0,0,.058.222,7.125,7.125,0,0,0,.824,1.706c.161.245.318.489.454.745q.067.208.114.421a4.929,4.929,0,0,1,0,.5q-.05.226-.121.447-.1.2-.228.384c-.7.787-1.569,1.4-2.333,2.119-.89.837-1.743,1.689-2.7,2.452q-.282.212-.568.418-.657.3-1.29.649a2.688,2.688,0,0,0-.975.982c-.054.045-.108.089-.16.135a6.128,6.128,0,0,0-1.468,2.44,7.7,7.7,0,0,0-.482,1.79,2.093,2.093,0,0,0-.091.829.9.9,0,0,0-.1.391l-.059,1.7q-.015.424-.03.848a2.328,2.328,0,0,0,.041.8c.233.727,1.143.828,1.8.785.565-.037.925-.15,1.49-.138.394.009.783.07,1.173.113a.839.839,0,0,0,.792.565,27.518,27.518,0,0,1,7.42.908.886.886,0,0,0,1.086.191l.173-.133a.852.852,0,0,0,.219-.376l.03-.226a.846.846,0,0,0-.116-.43l-.077-.15a.644.644,0,0,0-.219-.239l-.021-.017c-.015-.325-.043-.649-.083-.972a3.236,3.236,0,0,0,.328-.7q.141-.205.288-.406a8.657,8.657,0,0,1,.975-1.013,7.26,7.26,0,0,1,1.049-.578,23.279,23.279,0,0,0,2.182-.954,2.491,2.491,0,0,0,1.423-.364,3.08,3.08,0,0,0,1.26-1.639q.451-1.24.96-2.459a19.4,19.4,0,0,1,1.97-3.735,13.173,13.173,0,0,1,1.837-1.821,14.841,14.841,0,0,1,2.618-1.521q.642-.253,1.3-.45a2.921,2.921,0,0,0,.851-.414,2.76,2.76,0,0,0,.467-.055,2.737,2.737,0,0,0,1.1-.063l.089-.027a3.532,3.532,0,0,0,1.014.524c.028.184.056.369.083.553l.008.056,0,.024c.01.085.021.17.031.255q.026.23.046.46a10.431,10.431,0,0,1,0,1.881c0,.02,0,.039-.006.055-.011.074-.023.148-.037.222-.007.041-.016.081-.025.121a1.292,1.292,0,0,0-.393.546,8.058,8.058,0,0,0-.562,3.8,1.912,1.912,0,0,0,1.408,1.813,1.67,1.67,0,0,0,1.9-1.29,7.6,7.6,0,0,0,.219-2.009c.019-.639.04-1.279.088-1.917.023-.3.054-.6.088-.9,0-.02,0-.036.006-.051s0-.013,0-.022c.013-.083.025-.166.038-.249q.04-.248.089-.494a10.346,10.346,0,0,1,.478-1.681c.02-.053.041-.1.062-.158-.088.224.007-.014.029-.063q.1-.231.223-.456a7.422,7.422,0,0,1,.435-.721q.059-.087.121-.171l.029-.039.005-.006a1.23,1.23,0,0,0,.811-.29c-.206.161.079-.037.125-.062.03-.016.061-.031.092-.046l.029-.011c.1-.027.2-.055.307-.081.044,0,.087-.006.13-.007s.154,0,.21,0a2.021,2.021,0,0,1,.231.061c.041.013.318.124.2.073.133.057.264.115.4.169,1.1.439,2.273-.1,3.317-.479a1.253,1.253,0,0,0,.361-.2.918.918,0,0,0,.385-.036c.071-.022.142-.041.215-.057.017,0,.078-.007.125-.008.081,0,.161,0,.242.007l.059,0,.055.011a9.613,9.613,0,0,1,.989.245l.025.007h0c.024.015.073.033.115.053l.008.007q.044.037.085.075l.043.04a1.278,1.278,0,0,0,.124.474A22.211,22.211,0,0,0,66.13,57.5a2.3,2.3,0,0,0,1.325,1.155,2.182,2.182,0,0,0,1.681-.36A7.915,7.915,0,0,0,70.619,56.9a1.354,1.354,0,0,0,.575-.121l.229-.1.026-.011.048-.02q.208-.086.416-.169.44-.175.887-.336.231-.083.464-.163a1.084,1.084,0,0,0,.137-.046c.108-.036.215-.073.324-.107a.844.844,0,0,0,.2.077,1.065,1.065,0,0,0,1.277-.725l1.329-3.67a1.052,1.052,0,0,0,.783-.661c.036-.032.075-.064.108-.1a4.99,4.99,0,0,0,.674-.523,1.886,1.886,0,0,0,.536-.938,3.774,3.774,0,0,0-.085-1.393c-.065-.375-.13-.75-.187-1.126-.013-.085-.025-.171-.038-.257,0-.011,0-.02,0-.027l-.007-.057c-.025-.205-.048-.411-.065-.617-.03-.359-.047-.719-.043-1.079,0-.051,0-.1,0-.155a1.023,1.023,0,0,0,.459-.85q.056-6.527.283-13.051.065-1.856.143-3.712a1.046,1.046,0,0,0-1.038-1.038" transform="translate(-14.448 -16.503)" fill="#5ea86a"/>
          <path id="Trazado_1400604" data-name="Trazado 1400604" d="M136.937,166.073a.686.686,0,0,0-.176-.523.856.856,0,0,0-.421-.767.871.871,0,0,0-1.165.306,9.861,9.861,0,0,0-1.529,4.62c-.019,0-.038.007-.057.013l-1.211.344c-.19.054-.382.109-.577.143.016-.006-.187.018-.184.018-.1,0-.189,0-.284-.008a2.239,2.239,0,0,0-1.288.3,5.82,5.82,0,0,0-1.069.809.818.818,0,0,0-.243.528.707.707,0,0,0-.13.068,5.321,5.321,0,0,1-2.145.9c-.008,0-.155.02-.161.023-.082.005-.163.008-.245.006l-.039,0-.069-.017c.034.007-.052-.028-.1-.052-.01-.016-.129-.12-.146-.138-.076-.078-.15-.158-.224-.238l-.474-.5a.849.849,0,0,0-.723-.238l-1.047-2.222a.748.748,0,0,0-.471-.378.786.786,0,0,0-.275-.259,2.475,2.475,0,0,0-2.352.1,2.872,2.872,0,0,0-1.454.385.824.824,0,0,0-.292.291c-.15.038-.3.078-.447.123-.1-.006-.2-.012-.3-.021a.717.717,0,0,0-.454.129c0-.008-.008-.016-.013-.024a1.764,1.764,0,0,0-2.7-.281,3.992,3.992,0,0,0-1.042,2.453q-.272,1.425-.511,2.856a7.285,7.285,0,0,0-.105,2.517,1.211,1.211,0,0,0-.108.552q0,.076.01.153a.662.662,0,0,0-.141.19q-.171.35-.367.687a.8.8,0,0,0-.094.257l0,0-.035.024a3.564,3.564,0,0,1-.557.32l-.06.022c-.074.024-.146.05-.221.071-.1.028-.2.049-.3.07l-.021,0c-.071.006-.141.012-.212.014a3.224,3.224,0,0,1-.386-.012.643.643,0,0,0-.218.021.881.881,0,0,0-.575-.348,6.083,6.083,0,0,0-.353-.744.8.8,0,0,0-.3-.3q.347-1.585.619-3.186c.156-.923.292-1.85.413-2.779a5.594,5.594,0,0,0,.05-2.38c-.589-1.838-3.037-1.487-4.45-.963a9.261,9.261,0,0,0-3.819,2.741,22.977,22.977,0,0,0-2.911,4.784,1,1,0,0,0-.088.6q-1.048,1.813-2.028,3.664a.939.939,0,0,0-.1.485l-.04.037-.037.036-.045.028c-.068.045-.135.091-.2.134-.127.079-.258.15-.39.219l-.044.023a.9.9,0,0,0-.152.024l-1.349.344c-.023,0-.045,0-.068-.008l-.1-.021a1.032,1.032,0,0,0-.319-.01,1.74,1.74,0,0,0-1.4.185,3.69,3.69,0,0,0-.932.877c-.114.141-.22.284-.318.431a.762.762,0,0,0-.328.465q-.029.126-.056.252a2.747,2.747,0,0,0-.2,1.269c-.029.288-.046.576-.048.864a1.627,1.627,0,0,0,.412,1.2,1.977,1.977,0,0,0,1.206.439l4.766.711a1.089,1.089,0,0,0,.574-.064.921.921,0,0,0,.221.1,1.135,1.135,0,0,0,.983-.212l.149-.1a1,1,0,0,0,.686-.066l5.966-2.624c1-.439,2-.873,3-1.318a2.2,2.2,0,0,0,.854-.643.815.815,0,0,0,.425-.227l.041-.04a.689.689,0,0,0,.485.005l6.469-2.4a4.846,4.846,0,0,0,1.587.752,2,2,0,0,0,.56.584,1.087,1.087,0,0,0,.544.174,1.1,1.1,0,0,0,.231.027.865.865,0,0,0,.609.257.878.878,0,0,0,.852-.852c-.022.165.013-.074.018-.107.014-.084.029-.167.046-.25a3.93,3.93,0,0,1,.135-.486c.009-.026.014-.042.016-.051s.017-.023.032-.047c.036-.057.067-.117.1-.173.025-.029.051-.056.078-.083s.049-.047.075-.069a2.529,2.529,0,0,1,.333-.188c-.014.009.136-.056.144-.059.077-.028.154-.055.232-.081.356-.121.706-.243,1.05-.4a.645.645,0,0,0,.278-.248.9.9,0,0,0,.324-.019,6.079,6.079,0,0,1,.942-.148.925.925,0,0,0,.74.442,8.256,8.256,0,0,0,2.042-.013,2.349,2.349,0,0,0,.594-.166,2.222,2.222,0,0,0,.883-.3.885.885,0,0,0,.37-.463c.028-.035.056-.071.082-.109a4.992,4.992,0,0,0,.831-2.486c.02-.02.039-.042.059-.062.116-.118.235-.234.359-.344a2.32,2.32,0,0,1,.248-.2,5.707,5.707,0,0,1,1.667-.721,8.244,8.244,0,0,0,1.755-.8,1.346,1.346,0,0,0,.186-.013c.858-.116,1.781-.506,1.843-1.485.024-.371-.015-.752-.019-1.124s0-.763,0-1.145a41.647,41.647,0,0,1,.341-4.671" transform="translate(-71.665 -130.364)" fill="#9ad3e2"/>
          <path id="Trazado_1400605" data-name="Trazado 1400605" d="M49.152,37.727l-1.161.654a.614.614,0,0,0-.1.071.582.582,0,0,0-.289.015q-3.143,1.012-6.191,2.292l-.027.013a.9.9,0,0,0-.3-.022,18.019,18.019,0,0,1-3.149-.011c-.525-.044-1.05-.1-1.573-.168l-.366-.047-.12-.016-.039-.005-.828-.114a46.79,46.79,0,0,1-6.047-1.028c-1.1-.3-2.195-.654-3.319-.878a1.364,1.364,0,0,0-.962.163q-.563-.179-1.121-.371a.977.977,0,0,0-.483-.034,10.879,10.879,0,0,0-1.3-.546,1.08,1.08,0,0,0-.908.125,1.321,1.321,0,0,0-.921-.324l-.08.006a1.171,1.171,0,0,0-.748-.044,1.184,1.184,0,0,0-.7.538l-.118.28a1.179,1.179,0,0,0,0,.623,1.785,1.785,0,0,0,.17.466q.215,5.361.1,10.728a14.737,14.737,0,0,0,.13,2.815v.006a10.762,10.762,0,0,0,.035,2.133,11.8,11.8,0,0,1,.117,2.021c-.038.653-.146,1.3-.2,1.95a6.8,6.8,0,0,0,.177,2.306,1.34,1.34,0,0,0,.082.223,2.684,2.684,0,0,0,.157.854,3.014,3.014,0,0,1,.079.32l0,.013c0,.007,0,.014,0,.019.013.255.019.508.01.764-.018.5-.059,1-.08,1.5q-.063,1.564-.005,3.131.064,1.719.275,3.427a1.628,1.628,0,0,0-.227.755,4.473,4.473,0,0,0,.214,1.529l-.009.03a4.844,4.844,0,0,0-.179.895,1.3,1.3,0,0,0,.232.784.729.729,0,0,0-.137.393q-.039.825-.13,1.645a.658.658,0,0,0,.577.654.668.668,0,0,0,.73-.477,7.16,7.16,0,0,1,.814-1.621c.015-.024.027-.047.039-.07a1.212,1.212,0,0,0,.375-.273,1.575,1.575,0,0,0,.4-.826l.011,0c0,.033,0,.024.011,0a1.081,1.081,0,0,0,.438-.327,2.857,2.857,0,0,1,.252-.28c.031-.029.1-.074.138-.114a5.426,5.426,0,0,1,.577-.33l.153-.071.011-.005.365-.145c.361-.141.722-.285,1.076-.444a11.735,11.735,0,0,0,2.963-2.119,7.278,7.278,0,0,0,1.325-1.43,4.464,4.464,0,0,0,.635-1.993,2.684,2.684,0,0,0-.682-2.235,5.152,5.152,0,0,0-1.289-.751c-.036-.075-.074-.15-.114-.223v0c-.01-.043-.018-.083-.022-.1a1.482,1.482,0,0,0-.867-.966,3.557,3.557,0,0,0-.414-1.087,1.455,1.455,0,0,0-.151-.2,2.013,2.013,0,0,0-.005-.9l-.148-.35a1.122,1.122,0,0,0-.222-.29,8.821,8.821,0,0,0,.2-4.406A1.825,1.825,0,0,0,26.463,56c.1-.152.206-.3.315-.449.055-.067.109-.134.165-.2a6.924,6.924,0,0,1,.712-.723c.049-.042.107-.081.156-.126l0,0a4.73,4.73,0,0,1,.463-.285c.064-.035.13-.066.2-.1l.067-.025c.188-.068.379-.124.57-.178a37.889,37.889,0,0,1,4.862-1.117l.078-.011.054-.008-.03,0a1.777,1.777,0,0,0,.594-.187,2.183,2.183,0,0,0,.647-.016l1.3-.2a5.033,5.033,0,0,0,1.429-.343c1.036-.478,1.215-1.7,1.5-2.686a1.417,1.417,0,0,0,.021-.672,1.3,1.3,0,0,0,.567-.3c.094-.084.187-.171.278-.258a1.389,1.389,0,0,0,.9-.1,17.738,17.738,0,0,0,4.868-3.69,1.172,1.172,0,0,0,.336-.888,15.252,15.252,0,0,0,1.358-2.343,5.505,5.505,0,0,1,.789-1.343,12.351,12.351,0,0,1,1.173-1.145c.483-.431-.135-1.183-.677-.878" transform="translate(-14.458 -29.617)" fill="#9ad3e2"/>
          <path id="Trazado_1400606" data-name="Trazado 1400606" d="M70.1,74.561s0-.008,0-.012q-4.6-1.738-9.21-3.475a86.121,86.121,0,0,0-9.172-3.006,41.156,41.156,0,0,0-4.857-.924q.1-1.5.157-3.009c.027-.719-1.091-.718-1.118,0q-.058,1.553-.163,3.1c-.012-.014-.025-.027-.039-.04q.015-1.478.164-2.95a.562.562,0,0,0-.559-.559.571.571,0,0,0-.559.559q-.15,1.478-.164,2.964a80.424,80.424,0,0,0-13.331,4.731c-1.29.561-2.575,1.136-3.859,1.711a.41.41,0,0,0-.144.108.413.413,0,0,0-.238-.125q-9.593-1.381-19.157-2.948-2.543-.417-5.084-.847.209-10.467.419-20.933c.071-3.533.21-7.072.167-10.606-.021-1.737-.143-3.463-.315-5.191s-.356-3.454-.419-5.191c-.142-3.939.165-7.89-.228-11.82a.575.575,0,0,0-.559-.559.563.563,0,0,0-.559.559c.35,3.5.145,7.027.2,10.542.05,3.478.617,6.914.736,10.387.121,3.524-.041,7.062-.112,10.585L1.88,58.179q-.12,5.983-.24,11.967a.525.525,0,0,0,.093.323.514.514,0,0,0,.385.391q9.555,1.62,19.141,3.054,2.724.408,5.45.8a.635.635,0,0,0,.573-.176.6.6,0,0,0,.67.08,119.231,119.231,0,0,1,13.569-5.413q1.565-.481,3.156-.868a.566.566,0,0,0,1.018-.28.451.451,0,0,0,.146-.176.622.622,0,0,0,.505.32c6.37.72,12.385,3.25,18.333,5.495l5.356,2.021.016,0c0-.383.04-.768.045-1.16" transform="translate(-1.005 -12.303)" fill="#dfdfa4"/>
          <path id="Trazado_1400607" data-name="Trazado 1400607" d="M209.874,2.311a.583.583,0,0,0-.551-.439.57.57,0,0,0-.559.559q-.122,1.653-.245,3.305a.564.564,0,0,0,.559.559.57.57,0,0,0,.559-.559l.194-2.615q-.046,1.2-.093,2.391c-.028.72,1.09.718,1.118,0q.06-1.541.12-3.083c.026-.677-.962-.716-1.1-.119" transform="translate(-165.074 -1.482)" fill="#dfdfa4"/>
          <path id="Trazado_1400608" data-name="Trazado 1400608" d="M121.762,37.026q-.108,1.266-.1,2.537a.346.346,0,0,0,.692,0q-.012-1.271.1-2.537c.038-.444-.654-.441-.692,0" transform="translate(-96.316 -29.049)" fill="#f3eeea"/>
          <path id="Trazado_1400609" data-name="Trazado 1400609" d="M127.112,36.657a.348.348,0,0,0-.426.242,12.8,12.8,0,0,0-.1,2.57c.029.442.721.445.692,0a11.937,11.937,0,0,1,.074-2.386.359.359,0,0,0-.242-.426" transform="translate(-100.193 -29.011)" fill="#f3eeea"/>
          <path id="Trazado_1400610" data-name="Trazado 1400610" d="M121.16,282.287a.355.355,0,0,0-.681.116,4.745,4.745,0,0,0,.127,1.387.379.379,0,0,0,.014.045q0,.834,0,1.668a.346.346,0,0,0,.692,0q0-1.466.008-2.931a.313.313,0,0,0-.156-.285" transform="translate(-95.372 -223.301)" fill="#f3eeea"/>
          <path id="Trazado_1400611" data-name="Trazado 1400611" d="M125.528,285.157a21.326,21.326,0,0,1-.02-2.765c.026-.445-.667-.444-.692,0a21.326,21.326,0,0,0,.02,2.765c.032.442.724.445.692,0" transform="translate(-98.782 -223.293)" fill="#f3eeea"/>
          <path id="Trazado_1400612" data-name="Trazado 1400612" d="M38.032,25.8,26.71,24.43,23.5,24.041a.348.348,0,0,0-.346.346.354.354,0,0,0,.346.346L34.82,26.1l3.212.389a.349.349,0,0,0,.346-.346.354.354,0,0,0-.346-.346" transform="translate(-18.328 -19.031)" fill="#f3eeea"/>
          <path id="Trazado_1400613" data-name="Trazado 1400613" d="M107.362,35a.346.346,0,0,0,0,.692.346.346,0,0,0,0-.692" transform="translate(-84.729 -27.709)" fill="#f3eeea"/>
          <path id="Trazado_1400614" data-name="Trazado 1400614" d="M140.626,18.459q-4.006,2.071-8.2,3.739c-.409.162-.231.832.184.667q4.275-1.7,8.367-3.809c.4-.2.046-.8-.349-.6" transform="translate(-104.651 -14.58)" fill="#f3eeea"/>
          <path id="Trazado_1400615" data-name="Trazado 1400615" d="M177.7,16.6a.346.346,0,0,0,0,.692.346.346,0,0,0,0-.692" transform="translate(-140.414 -13.145)" fill="#f3eeea"/>
          <path id="Trazado_1400616" data-name="Trazado 1400616" d="M265.65,18.595a59.224,59.224,0,0,1-11.219-2.408q-1.554-.495-3.078-1.074c-.417-.158-.6.511-.184.667a59.691,59.691,0,0,0,11.211,3.045q1.628.275,3.27.461c.442.05.438-.642,0-.692" transform="translate(-198.653 -11.945)" fill="#f3eeea"/>
          <path id="Trazado_1400617" data-name="Trazado 1400617" d="M328.394,33.649a.346.346,0,0,0,0,.692.346.346,0,0,0,0-.692" transform="translate(-259.709 -26.638)" fill="#f3eeea"/>
          <path id="Trazado_1400618" data-name="Trazado 1400618" d="M327.322,81.925q-.357,7.088-.6,14.182-.069,2.011-.128,4.023a.346.346,0,0,0,.692,0q.21-7.094.534-14.185.092-2.01.193-4.021c.022-.445-.67-.444-.692,0" transform="translate(-258.549 -64.592)" fill="#f3eeea"/>
          <path id="Trazado_1400619" data-name="Trazado 1400619" d="M328.124,186.776a.346.346,0,0,0,0,.692.346.346,0,0,0,0-.692" transform="translate(-259.495 -147.862)" fill="#f3eeea"/>
          <path id="Trazado_1400620" data-name="Trazado 1400620" d="M325.342,214.258a106.9,106.9,0,0,0-.136,12.283c.021.443.713.446.692,0a106.9,106.9,0,0,1,.136-12.283c.03-.445-.662-.443-.692,0" transform="translate(-257.359 -169.354)" fill="#f3eeea"/>
          <path id="Trazado_1400621" data-name="Trazado 1400621" d="M37.481,240.508a1.025,1.025,0,0,1,.025-.23q-5.252-.541-10.52-.907-1.24-.086-2.481-.161l.02-6-.015.085a1.028,1.028,0,0,1-1.052.766l-.019,5.651a.543.543,0,0,0,.532.532q3.664.219,7.323.523a.42.42,0,0,0,.22.244,11.012,11.012,0,0,0,2.914.48c1.048.157,2.086.391,3.126.6a.632.632,0,0,0,.233,0,4.013,4.013,0,0,1-.305-1.579" transform="translate(-18.555 -184.619)" fill="#478e50"/>
          <path id="Trazado_1400622" data-name="Trazado 1400622" d="M106.442,184.8a5.794,5.794,0,0,1,3.8-2.012.544.544,0,0,0-.649-.353,9.213,9.213,0,0,0-6.008,3.707,11.094,11.094,0,0,0-.911,1.848c-.278.67-.555,1.34-.856,2a40.925,40.925,0,0,1-1.976,3.868,1.582,1.582,0,0,1-.675.677,5.939,5.939,0,0,1-1,.327l-2.543.735a.533.533,0,0,0,.283,1.027l2.238-.647a5.7,5.7,0,0,0,1.905-.742,4.958,4.958,0,0,0,1.192-1.709q.532-.982,1.018-1.987.464-.959.885-1.939c.287-.667.541-1.351.853-2.007a6.6,6.6,0,0,1,2.236-2.654q.1-.071.207-.138" transform="translate(-75.405 -144.417)" fill="#478e50"/>
          <path id="Trazado_1400623" data-name="Trazado 1400623" d="M268.786,186.539a.544.544,0,0,0-.753,0c-.142.117-.422.068-.586.046-.305-.041-.605-.109-.913-.137a4.168,4.168,0,0,0-1.769.185,2.838,2.838,0,0,0-1.445,1.119c-.282.425-.491,1.179-1.016,1.376a.547.547,0,0,0-.372.655.537.537,0,0,0,.655.372,2.3,2.3,0,0,0,1.117-.959.537.537,0,0,0,.722-.194,2.456,2.456,0,0,1,1-1.043.474.474,0,0,0,.259-.446,3.906,3.906,0,0,1,1.129.039,2.244,2.244,0,0,0,1.974-.258.536.536,0,0,0,0-.753" transform="translate(-207.344 -147.554)" fill="#478e50"/>
          <path id="Trazado_1400624" data-name="Trazado 1400624" d="M246.419,228.664a2.755,2.755,0,0,1-1.969,2.5,1.09,1.09,0,0,1-1.06-.319,7.424,7.424,0,0,1-2.363-.042l-.282-.039-.185-.025c-.144-.018-.288-.035-.433-.047a5.626,5.626,0,0,0-1.088,0,.813.813,0,0,1-.549-.142,3.1,3.1,0,0,0-1.013.731c-.463.5.288,1.259.753.753,1.2-1.307,3.222-.659,4.723-.443a3.391,3.391,0,0,0,2.427-.324,3.175,3.175,0,0,0,1.156-2.117.584.584,0,0,0-.117-.493" transform="translate(-187.884 -181.022)" fill="#478e50"/>
          <path id="Trazado_1400625" data-name="Trazado 1400625" d="M49.5,173.714a.529.529,0,0,0-.678-.192,2.514,2.514,0,0,1,1.111,1.81A4.6,4.6,0,0,1,49.5,177.8a1.014,1.014,0,0,1-1.185.476q-.1.133-.2.259a7.359,7.359,0,0,1-3.176,2.074.783.783,0,0,1-.327.276,12.633,12.633,0,0,0-1.184.62,1.113,1.113,0,0,1-.106.053.513.513,0,0,0,.656.475,10.677,10.677,0,0,0,4.215-2.063,5.44,5.44,0,0,0,1.963-3.807,4.149,4.149,0,0,0-.653-2.448" transform="translate(-34.295 -137.328)" fill="#478e50"/>
          <path id="Trazado_1400626" data-name="Trazado 1400626" d="M100.7,97.425a.547.547,0,0,0-.532-.532h0a3.861,3.861,0,0,1-.309,1.6,1.142,1.142,0,0,1-.733.728,1.986,1.986,0,0,1-.342.178,5.374,5.374,0,0,1-2.85.17.548.548,0,0,0-.655.372.537.537,0,0,0,.372.655,6.409,6.409,0,0,0,3.68-.28,2.4,2.4,0,0,0,1.128-.993,3.216,3.216,0,0,0,.242-1.9" transform="translate(-75.413 -76.706)" fill="#478e50"/>
          <path id="Trazado_1400627" data-name="Trazado 1400627" d="M188.97,28.316a.342.342,0,0,0-.434.093,6.038,6.038,0,0,0-1.5-.538c-.653-.156-1.312-.288-1.969-.423-1.352-.279-2.708-.54-4.062-.812a77.855,77.855,0,0,1-7.927-1.917,35.726,35.726,0,0,1-3.911-1.462.547.547,0,0,0-1.02-.1.524.524,0,0,0-.1.12.563.563,0,0,0,.084.655l.428,12.359q.042,1.2.084,2.4a.534.534,0,0,0-.425-.174l-.232-7.813q-.107-3.615-.215-7.23a.544.544,0,0,0-1.033-.2.423.423,0,0,0-.086.019l-1.178.41a.585.585,0,0,0-.353.326q-2.861.926-5.657,2.038a.49.49,0,0,0-.71.016,9.045,9.045,0,0,0-1.371,2.358,11.764,11.764,0,0,1-.859,1.427.913.913,0,0,1-.037.2c-.166.544-.374,1.074-.585,1.6a.526.526,0,0,0,.624-.092,12.793,12.793,0,0,0,1.689-2.432,14.86,14.86,0,0,1,1.047-2.021.431.431,0,0,0,.349.022q3.511-1.405,7.13-2.515.172,5.8.345,11.6l.379,12.759q.022.753.045,1.506,0,.86,0,1.719a.529.529,0,0,0,.056.243l.09,3.035c-2.032-.362-3.413,2.045-3.75,3.736a20.211,20.211,0,0,0-.232,3.316q-.027.861-.053,1.722a11.888,11.888,0,0,1-.06,1.471c-.164,1.037-1.649.7-2.27.317a.478.478,0,0,0-.632.089,1.3,1.3,0,0,1,.335.5l-.037-.1h0a1.668,1.668,0,0,0,.091.194.39.39,0,0,1,.07.068c.037.041.074.081.113.121.147.152.3.295.454.441a3.011,3.011,0,0,0,1.8-.049.709.709,0,0,1,.083-.139,10.267,10.267,0,0,0,1.015-1.635.881.881,0,0,1,.064-.105c.019-.291.02-.586.028-.862.035-1.143.067-2.286.107-3.429a7.005,7.005,0,0,1,.63-3.038c.384-.745,1.168-1.8,2.145-1.554a1.672,1.672,0,0,0,1.186-.339l-.17-5.724q0-4.955.135-9.909c.1,2.86.186,5.72.23,8.581.038,2.424.042,4.849-.007,7.273a.536.536,0,0,0,.96.313l.026,0a.548.548,0,0,0,.178.079l.6.152a1.862,1.862,0,0,1,1.556-.583.49.49,0,0,0-.3-.2l-.466-.118c.21-.01.419-.006.611,0a4.628,4.628,0,0,1,1.6.274,1.161,1.161,0,0,1,.2-.086,1.073,1.073,0,0,1,1.3.739q.051.176.118.347l.02.04c.034.066.065.133.1.2.119.229.252.451.389.669.276.441.578.866.84,1.316.112.191.213.389.334.575l.057.084a1.634,1.634,0,0,1,.173.2c.023.023.046.044.07.066.078.028.1.058.088.061a1.05,1.05,0,0,0,.1.073c.027.016.054.031.082.046a.519.519,0,0,0-.068-.625,5.976,5.976,0,0,1-1.148-1.877,5.674,5.674,0,0,0-1.032-2.013,4.806,4.806,0,0,0-3.762-1.143,3.757,3.757,0,0,0-1.544.346c.055-3.961-.026-7.923-.148-11.882-.132-4.289-.291-8.578-.44-12.867q-.107-3.1-.215-6.191c4.734,2.007,9.832,2.881,14.852,3.9.763.154,1.525.312,2.285.479a5.41,5.41,0,0,1,1.97.72.4.4,0,0,0,.058.049l.543.375a.348.348,0,0,0,.508-.207c.076-.523.084-1.148-.461-1.428" transform="translate(-123.422 -18.087)" fill="#478e50"/>
          <path id="Trazado_1400628" data-name="Trazado 1400628" d="M62,124.835c.286-.338-.2-.83-.489-.489a3.036,3.036,0,0,0-.7,2.491,8.213,8.213,0,0,1,.255,1.4,3.078,3.078,0,0,1-.339,1.4c-.2.4.395.747.6.349a3.826,3.826,0,0,0,.31-2.7A3.212,3.212,0,0,1,61.48,126a2.315,2.315,0,0,1,.521-1.16" transform="translate(-48.045 -98.348)" fill="#7ac182"/>
          <path id="Trazado_1400629" data-name="Trazado 1400629" d="M69.757,121.305a.346.346,0,0,0,0,.692.346.346,0,0,0,0-.692" transform="translate(-54.959 -96.031)" fill="#7ac182"/>
          <path id="Trazado_1400630" data-name="Trazado 1400630" d="M120.392,109.875c-.021-3.826.052-7.654.082-11.479q.026-3.229.051-6.459a.346.346,0,0,0-.692,0l-.091,11.488c-.015,1.9-.038,3.808-.043,5.712s.094,3.815.239,5.722a63.832,63.832,0,0,1,.281,6.389.346.346,0,0,0,.692,0c.094-3.8-.5-7.575-.519-11.373" transform="translate(-94.76 -72.518)" fill="#7ac182"/>
          <path id="Trazado_1400631" data-name="Trazado 1400631" d="M125.754,106.214c-.081-3.557-.185-7.114-.168-10.672.01-2.024.06-4.048.174-6.069.025-.445-.667-.444-.692,0-.2,3.569-.2,7.145-.14,10.717s.181,7.115.215,10.674c.02,2.025.011,4.05-.05,6.075-.014.445.679.445.692,0,.108-3.574.05-7.151-.031-10.725" transform="translate(-98.872 -70.568)" fill="#7ac182"/>
          <path id="Trazado_1400632" data-name="Trazado 1400632" d="M175.553,177.548a2.714,2.714,0,0,0-2.548-.874c-.434.1-.25.766.184.667a2.025,2.025,0,0,1,1.929.759,3.031,3.031,0,0,1,.307,2.158c-.041.443.652.441.692,0a3.417,3.417,0,0,0-.564-2.711" transform="translate(-136.763 -139.82)" fill="#7ac182"/>
          <path id="Trazado_1400633" data-name="Trazado 1400633" d="M183.925,205.173a.346.346,0,0,0,0,.692.346.346,0,0,0,0-.692" transform="translate(-145.34 -162.426)" fill="#7ac182"/>
          <path id="Trazado_1400634" data-name="Trazado 1400634" d="M140.085,75.818a7.919,7.919,0,0,1-2.609,2.175c-.4.205-.046.8.349.6a8.393,8.393,0,0,0,2.75-2.283c.271-.347-.216-.84-.489-.489" transform="translate(-108.695 -59.926)" fill="#7ac182"/>
          <path id="Trazado_1400635" data-name="Trazado 1400635" d="M154.977,71.525a.346.346,0,0,0,0,.692.346.346,0,0,0,0-.692" transform="translate(-122.423 -56.623)" fill="#7ac182"/>
          <path id="Trazado_1400636" data-name="Trazado 1400636" d="M287.727,217.735a3.72,3.72,0,0,0-3.1,2.662c-.079.435.588.622.667.184a3.065,3.065,0,0,1,2.617-2.179c.434-.1.25-.767-.184-.667" transform="translate(-225.32 -172.363)" fill="#7ac182"/>
          <path id="Trazado_1400637" data-name="Trazado 1400637" d="M303.775,214.912a.346.346,0,0,0,0,.692.346.346,0,0,0,0-.692" transform="translate(-240.219 -170.136)" fill="#7ac182"/>
          <path id="Trazado_1400638" data-name="Trazado 1400638" d="M122.606,181.59a3.52,3.52,0,0,0-2.877,0c-.539.2-1.071.464-1.622.633a.517.517,0,0,0-.566-.2,3.845,3.845,0,0,1-1.509.344,6.93,6.93,0,0,0-1.413-.213,2.574,2.574,0,0,0-1.943,1.935c-.655,1.953-.442,4.06-.853,6.058-.13.631-.411,1.838-1.213,1.865-.683.023-.687,1.088,0,1.065,2.078-.07,2.345-2.9,2.488-4.433.1-1.024.128-2.058.309-3.072.136-.76.326-2,1.163-2.322a.762.762,0,0,1,.416-.033h0q-.252,5.363-.323,10.732c-4.615,1.568-9.146,3.353-13.617,5.295q-1.883.818-3.759,1.654a.544.544,0,0,0-.234-.151,13.15,13.15,0,0,0-3.2-.411,11.448,11.448,0,0,1-3.066-.722,2.43,2.43,0,0,1,1.076-2.977,6.754,6.754,0,0,1,2.117-.535,4.282,4.282,0,0,0,2.12-.952,6.553,6.553,0,0,0,1.263-1.648.568.568,0,0,0,.452-.387c.432-1.2.85-2.413,1.3-3.609a13.483,13.483,0,0,1,1.5-2.975,10.543,10.543,0,0,1,4.56-3.691,3.292,3.292,0,0,1,3.109-.033.532.532,0,0,0,.537-.919,3.876,3.876,0,0,0-3.293-.3,10.085,10.085,0,0,0-2.984,1.516,11.8,11.8,0,0,0-2.392,2.277,13.028,13.028,0,0,0-1.79,3.153c-.512,1.249-.946,2.532-1.4,3.806a.489.489,0,0,0-.3.243,6.784,6.784,0,0,1-1.317,1.815,4.065,4.065,0,0,1-2.123.759,4.961,4.961,0,0,0-2.234.782,3.466,3.466,0,0,0-.889,4.687.529.529,0,0,0,.766.146,12.384,12.384,0,0,0,2.793.613c.247.024.5.04.743.054a.513.513,0,0,0,.339.328,9.646,9.646,0,0,0,2.339.457.507.507,0,0,0,.466-.282c4.668-2.068,9.351-4.086,14.152-5.827q1.483-.538,2.977-1.046a.54.54,0,0,0,1.039-.179c0-.057,0-.115,0-.172l.092-.031a.583.583,0,0,0,.118-.055c.018.006.036.011.056.015.212.047.421.1.628.162,0,.027,0,.054,0,.081a.534.534,0,0,0,.99.263,10.2,10.2,0,0,1,2.094,1.159.537.537,0,0,0,.728-.191.544.544,0,0,0-.191-.728,10.861,10.861,0,0,0-2.53-1.346q.168-5.331.158-10.666a10.084,10.084,0,0,0,1.823-.637,2.919,2.919,0,0,1,2.386-.237c.606.318,1.145-.6.537-.919m-6.717,12.083a.432.432,0,0,0-.156-.04q.014-.946.034-1.893a.561.561,0,0,0,.466-.222q-.018,1.047-.025,2.094a.508.508,0,0,0-.318.061m.616-9.886c-.014.257-.026.514-.039.771a.548.548,0,0,0-.467-.15q.021-.487.043-.973a2.856,2.856,0,0,0,.629-.043l.026.008a.516.516,0,0,0-.192.388" transform="translate(-70.898 -143.512)" fill="#72b2c1"/>
          <path id="Trazado_1400639" data-name="Trazado 1400639" d="M269.906,164.848a.536.536,0,0,0-.655-.372,3.118,3.118,0,0,0-1.673,1.958,14.915,14.915,0,0,1-.778,2.3,1.578,1.578,0,0,1-.721.711,5.938,5.938,0,0,1-1.443.22,4.612,4.612,0,0,0-2.482,1.633A3.431,3.431,0,0,1,260.7,172.3a1.229,1.229,0,0,1-.374.367,1.083,1.083,0,0,1-.815.107,1.064,1.064,0,0,1-.507-.323.568.568,0,0,0,.249.585,2.4,2.4,0,0,0,2.757-.194c.811-.585,1.375-1.514,2.276-1.97a4.16,4.16,0,0,1,1.4-.258,2.615,2.615,0,0,0,1.412-.573,4.469,4.469,0,0,0,1.215-2.349c.2-.735.428-1.858,1.222-2.192a.55.55,0,0,0,.372-.655" transform="translate(-205.029 -130.185)" fill="#72b2c1"/>
          <path id="Trazado_1400640" data-name="Trazado 1400640" d="M250.736,226.637a3.658,3.658,0,0,1,.488-1.552,2.563,2.563,0,0,0-1.58,1.406c-.111.3-.136.65-.393.866a1.4,1.4,0,0,1-.818.275,11.55,11.55,0,0,1-2.459-.544,4.814,4.814,0,0,0-2.739.335.535.535,0,0,0-.191.728.547.547,0,0,0,.728.191,3.73,3.73,0,0,1,2.486-.094,6.164,6.164,0,0,0,2.4.429,2.123,2.123,0,0,0,1.766-1.152,7.577,7.577,0,0,1,.313-.841c0-.015,0-.031,0-.046" transform="translate(-192.353 -178.189)" fill="#72b2c1"/>
          <path id="Trazado_1400641" data-name="Trazado 1400641" d="M294.412,203.456a2.557,2.557,0,0,1-1.561,1.037,4.044,4.044,0,0,0-1.1.427,7.647,7.647,0,0,0-.94.712.532.532,0,0,0-.046.7q.134-.062.27-.119a1.284,1.284,0,0,1,.844-.085,3.6,3.6,0,0,1,.606-.4,11.1,11.1,0,0,1,1.1-.346,3.6,3.6,0,0,0,1.743-1.39c.382-.571-.54-1.1-.919-.537" transform="translate(-230.097 -160.875)" fill="#72b2c1"/>
          <path id="Trazado_1400642" data-name="Trazado 1400642" d="M36.331,56.078q-1.032-.029-2.064.014c.1-.114.2-.226.3-.34.453-.511-.3-1.267-.753-.753q-.29.327-.583.65-.1-1.435-.19-2.87a.545.545,0,0,0-.532-.532.537.537,0,0,0-.532.532q.078,1.172.155,2.343-.394-.24-.792-.473a.533.533,0,0,0-.537.919q.6.345,1.178.71a11.205,11.205,0,0,1-3.119.183.55.55,0,0,0-.655.372.536.536,0,0,0,.372.655,11.052,11.052,0,0,0,3.052-.106q-.384.406-.772.807c-.477.492.275,1.246.753.753q.363-.375.723-.755.09,1.354.179,2.707a.545.545,0,0,0,.532.532.537.537,0,0,0,.532-.532q-.122-1.843-.244-3.686l.069,0q.813.551,1.6,1.137a.536.536,0,0,0,.728-.191.545.545,0,0,0-.191-.728c-.13-.1-.261-.193-.393-.288q.588-.007,1.176.01a.533.533,0,0,0,0-1.065" transform="translate(-22.321 -41.361)" fill="#72b2c1"/>
          <path id="Trazado_1400643" data-name="Trazado 1400643" d="M72.472,95.513a.546.546,0,0,0-.655.372c-.287.7-.617,1.365-1.4,1.583a10.874,10.874,0,0,1-2.6.137c-.991.027-1.983.1-2.967.22a9.308,9.308,0,0,0-2.813.726,4.657,4.657,0,0,0-2.093,1.866.511.511,0,0,0,.221.724,2.362,2.362,0,0,1,.762-.612,1.252,1.252,0,0,1,.325-.115,6.16,6.16,0,0,1,4.035-1.575c1.029-.11,2.065-.17,3.1-.179a7.174,7.174,0,0,0,2.586-.256,3.539,3.539,0,0,0,1.869-2.235.536.536,0,0,0-.372-.655" transform="translate(-47.398 -75.597)" fill="#72b2c1"/>
          <path id="Trazado_1400644" data-name="Trazado 1400644" d="M49.336,37.916a.544.544,0,0,0-.728.191c-.088.123-.182.241-.278.357a.635.635,0,0,0-.434.042q-3.7,1.673-7.513,3.062a.553.553,0,0,0-.209-.046c-1.252-.036-2.509-.072-3.762-.155a.659.659,0,0,0-.4-.19c-1.446-.184-2.883-.426-4.311-.717a.578.578,0,0,0-.519.14c-1.221-.308-2.419-.7-3.644-.99-1.3-.31-2.619-.521-3.94-.708a.514.514,0,0,0-.489-.385c-1.474-.066-2.863-.7-4.352-.651a.5.5,0,0,0-.452.284.512.512,0,0,0-.394.368.546.546,0,0,0,.325.643q-.217,7.445.092,14.892.091,2.174.227,4.345a.529.529,0,0,0,.136.332q-.2,6.857.058,13.718.085,2.218.219,4.434a.524.524,0,0,0,.4.49q-.2.442-.368.9a.537.537,0,0,0,.372.655.543.543,0,0,0,.655-.372,9.629,9.629,0,0,1,3.381-4.522,16.349,16.349,0,0,1,2.939-1.588,11,11,0,0,0,2.744-1.475,2.987,2.987,0,0,0,.329-.328.73.73,0,0,1,.046-.183,6.258,6.258,0,0,0,.294-.932q.03-.132.055-.266c0-.021.025-.165.028-.179.013-.119.023-.238.029-.357a6.487,6.487,0,0,0-.025-.918c0-.006-.023-.16-.027-.182q-.021-.114-.047-.227c-.015-.067-.033-.134-.051-.2a.527.527,0,0,0-.471.506,6.011,6.011,0,0,1-.2,1.477,2.217,2.217,0,0,1-.772,1.088,12.868,12.868,0,0,1-2.729,1.376A14.8,14.8,0,0,0,22.7,73.239a10.963,10.963,0,0,0-2.114,2.1c-.06.079-.119.159-.177.239q.2-8.045.019-16.093-.057-2.486-.15-4.972a.51.51,0,0,0-.165-.37q-.2-5.9-.208-11.8,0-1.444.01-2.888c2.282.349,4.583.579,6.84,1.074,1.414.31,2.79.766,4.193,1.118a28.6,28.6,0,0,0,4.345.7c1.529.14,3.064.19,4.6.235a.5.5,0,0,0,.494.119q3.306-1.2,6.53-2.6a4.834,4.834,0,0,0-.447.7,7.59,7.59,0,0,0-.46,1.227,8.746,8.746,0,0,1-2.445,3.751,22.068,22.068,0,0,1-2.015,1.678.549.549,0,0,0-.191.728.536.536,0,0,0,.728.191,17.678,17.678,0,0,0,3.548-3.311,8.448,8.448,0,0,0,1.182-2.1c.157-.408.263-.832.41-1.243a3.923,3.923,0,0,1,.567-1.026c.538-.718,1.213-1.317,1.737-2.048a.537.537,0,0,0-.191-.728" transform="translate(-14.164 -29.959)" fill="#72b2c1"/>
          <path id="Trazado_1400645" data-name="Trazado 1400645" d="M.408,14.545c8.468,2.217,17.354,2.115,25.786,4.5a.32.32,0,0,0,.17-.616c-8.432-2.388-17.318-2.286-25.786-4.5a.32.32,0,0,0-.17.616" transform="translate(-0.144 -11.018)"/>
          <path id="Trazado_1400646" data-name="Trazado 1400646" d="M125.447,8.064A194.452,194.452,0,0,1,143.868.636c.385-.135.219-.753-.17-.616a196.141,196.141,0,0,0-18.574,7.492c-.372.175-.048.726.323.552" transform="translate(-98.925 0)"/>
          <path id="Trazado_1400647" data-name="Trazado 1400647" d="M214.052.648c8.058,2.506,16.274,4.46,24.514,6.259.4.088.572-.528.17-.616C230.5,4.492,222.28,2.539,214.222.032c-.393-.122-.562.494-.17.616" transform="translate(-169.279 -0.013)"/>
          <path id="Trazado_1400648" data-name="Trazado 1400648" d="M0,14.255Q.938,35.732.553,57.239.434,63.3.2,69.355c-.016.411.623.41.639,0q.835-21.482.232-42.986Q.906,20.31.639,14.255c-.018-.409-.657-.412-.639,0" transform="translate(0 -11.041)"/>
          <path id="Trazado_1400649" data-name="Trazado 1400649" d="M1.345,279.119c8.495,1.328,16.942,2.936,25.419,4.371.4.068.575-.548.17-.616-8.477-1.435-16.924-3.043-25.419-4.371-.4-.063-.575.553-.17.616" transform="translate(-0.882 -220.474)"/>
          <path id="Trazado_1400650" data-name="Trazado 1400650" d="M123.618,273.856c5.925-2.86,12.236-4.82,18.475-6.864.389-.127.223-.744-.17-.616-6.292,2.061-12.652,4.043-18.628,6.928-.37.179-.046.73.323.552" transform="translate(-97.478 -210.864)"/>
          <path id="Trazado_1400651" data-name="Trazado 1400651" d="M212.45,267.033a90.6,90.6,0,0,1,12.341,3.089q6.152,2.137,12.323,4.193c.391.13.559-.487.17-.616q-6.182-2.054-12.323-4.193a90.639,90.639,0,0,0-12.341-3.089c-.4-.079-.574.537-.17.616" transform="translate(-168.004 -210.904)"/>
          <path id="Trazado_1400652" data-name="Trazado 1400652" d="M330.472,30.316c1.2,14.674.055,29.385-.222,44.071-.078,4.162-.082,8.325.052,12.486.013.41.652.412.639,0-.475-14.707.832-29.394.7-44.1-.036-4.158-.194-8.314-.534-12.458-.033-.407-.673-.41-.639,0" transform="translate(-261.4 -23.757)"/>
          <path id="Trazado_1400653" data-name="Trazado 1400653" d="M212.646.347c-.705,7.121.051,14.318.361,21.442.315,7.255.481,14.523.219,21.783-.148,4.1-.44,8.2-.905,12.282-.046.408.593.4.639,0,1.648-14.455.928-28.964.221-43.451a81.778,81.778,0,0,1,.1-12.055c.041-.409-.6-.406-.639,0" transform="translate(-168.082 -0.033)"/>
          <path id="Trazado_1400654" data-name="Trazado 1400654" d="M123.522,36.295c-.411,6.838-.388,13.692-.386,20.54q0,10.923.007,21.847,0,6.242,0,12.484a.32.32,0,0,0,.639,0c0-14.381-.124-28.767.011-43.147.037-3.91.128-7.82.363-11.723.025-.411-.614-.409-.639,0" transform="translate(-97.48 -28.489)"/>
          <path id="Trazado_1400655" data-name="Trazado 1400655" d="M17.137,35.846q.258,12.106.516,24.213c.085,3.966.129,7.936.272,11.9a100.236,100.236,0,0,1,.049,11.732c-.033.41.606.408.639,0a98.031,98.031,0,0,0-.042-11.534c-.149-4.031-.194-8.067-.279-12.1l-.516-24.213a.32.32,0,0,0-.639,0" transform="translate(-13.566 -28.134)"/>
          <path id="Trazado_1400656" data-name="Trazado 1400656" d="M21.67,265.669a175.633,175.633,0,0,1,21.138,3.28c.4.09.571-.525.17-.616a177.092,177.092,0,0,0-21.307-3.3c-.409-.041-.406.6,0,.639" transform="translate(-16.913 -209.81)"/>
          <path id="Trazado_1400657" data-name="Trazado 1400657" d="M124.674,252.212q9.037-4.3,18.455-7.7c.384-.139.218-.756-.17-.616q-9.488,3.429-18.608,7.764c-.371.176-.047.728.323.552" transform="translate(-98.313 -193.064)"/>
          <path id="Trazado_1400658" data-name="Trazado 1400658" d="M214.849,244.674a83.217,83.217,0,0,0,11.026,4.127c3.264.963,6.764,1.491,9.833,3.023.367.183.691-.368.323-.552-2.9-1.449-6.167-2-9.264-2.878a81.666,81.666,0,0,1-11.6-4.272c-.371-.169-.7.381-.323.552" transform="translate(-169.954 -193.235)"/>
          <path id="Trazado_1400659" data-name="Trazado 1400659" d="M311.846,48.26a345.269,345.269,0,0,0-.066,48.015c.029.408.668.411.639,0a345.269,345.269,0,0,1,.066-48.015c.028-.41-.611-.409-.639,0" transform="translate(-246.185 -37.962)"/>
          <path id="Trazado_1400660" data-name="Trazado 1400660" d="M212.322,20.525a55.223,55.223,0,0,0,10.208,3.207c3.789.8,7.657,1.25,11.294,2.646.384.148.55-.47.17-.616-3.519-1.352-7.254-1.819-10.926-2.57a54.694,54.694,0,0,1-10.423-3.219c-.374-.16-.7.39-.323.552" transform="translate(-167.952 -15.789)"/>
          <path id="Trazado_1400661" data-name="Trazado 1400661" d="M124.82,27.274c6.168-2.09,12.262-4.385,18.3-6.822.376-.152.212-.77-.17-.616-6.039,2.436-12.133,4.732-18.3,6.822-.387.131-.221.749.17.616" transform="translate(-98.506 -15.684)"/>
          <path id="Trazado_1400662" data-name="Trazado 1400662" d="M17.364,36.254c3.711.009,7.408,1.311,11.012,2.074A59.636,59.636,0,0,0,39.731,39.8a.32.32,0,0,0,0-.639,60.856,60.856,0,0,1-11.955-1.611c-3.414-.745-6.891-1.923-10.413-1.931a.32.32,0,0,0,0,.639" transform="translate(-13.502 -28.195)"/>
          <path id="Trazado_1400663" data-name="Trazado 1400663" d="M88.812,240.941c-1.138-2.484.05-5.307,2.954-5.45a3.554,3.554,0,0,0,2.351-.559,3.931,3.931,0,0,0,.7-1.088c.262-.453.628-.83.883-1.289.2-.36-.352-.682-.552-.322-.274.493-.644.93-.947,1.4-.315.494-.53.969-1.136,1.125a5.443,5.443,0,0,1-1.142.085,4.449,4.449,0,0,0-2.87,1.006,4.573,4.573,0,0,0-.793,5.41c.171.373.722.049.552-.323" transform="translate(-69.456 -183.724)"/>
          <path id="Trazado_1400664" data-name="Trazado 1400664" d="M124.618,177.176a20.567,20.567,0,0,1,3.67-7.083,9.265,9.265,0,0,1,2.808-2.142c1.126-.546,2.92-1.088,4.136-.535,1.409.64.909,2.975.712,4.2-.188,1.169-.62,2.295-.77,3.467-.185,1.458.643,3.659,2.506,3.2,2.074-.508,1.792-3.271,1.914-4.851a17.651,17.651,0,0,1,.653-3.826,2.827,2.827,0,0,1,1.28-1.842c.905-.425,1.412.16,2.215.3,1.891.318,4.113-2.237,5.7-.418,1.082,1.236,1.232,3.717,3.245,3.935a3.368,3.368,0,0,0,2.53-1.246,6.72,6.72,0,0,1,1.685-1.3,5.458,5.458,0,0,1,1.96-.165,2.355,2.355,0,0,0,1.855-1.628c.457-1.167.265-4.2,2.245-3.932.4.055.576-.56.17-.616-2.411-.329-2.428,2.432-2.909,4.026a1.805,1.805,0,0,1-1.675,1.509,4.41,4.41,0,0,0-1.611.1,7.686,7.686,0,0,0-2.41,1.781c-.645.564-1.513,1.15-2.365.629a3.365,3.365,0,0,1-1.121-1.449,6.053,6.053,0,0,0-1.612-2.522c-1.661-1.17-3.317.439-4.979.66-1.034.138-1.829-.7-2.882-.368a2.966,2.966,0,0,0-1.731,1.778,13.635,13.635,0,0,0-.791,3.623c-.166,1.378.173,3.341-.643,4.528a1.339,1.339,0,0,1-2.385-.164,3.746,3.746,0,0,1,.008-2.716,23.2,23.2,0,0,0,.7-3.683,5.208,5.208,0,0,0-.191-2.7,2.555,2.555,0,0,0-2.482-1.119c-5.693-.039-8.438,5.865-10.056,10.4-.138.388.479.555.616.17" transform="translate(-98.15 -128.772)"/>
          <path id="Trazado_1400665" data-name="Trazado 1400665" d="M235.565,215.385a2.458,2.458,0,0,1,1.029-2.571c.98-.592,2.343-.358,3.408-.208,1.309.184,3.264.57,4.193-.686.473-.639.363-1.485.679-2.185a3.874,3.874,0,0,1,2.164-1.807c1.46-.624,3.017-.905,4.176-2.072a.32.32,0,0,0-.452-.452c-1.38,1.389-3.453,1.454-5.047,2.491a3.752,3.752,0,0,0-1.422,1.547,8.244,8.244,0,0,0-.324,1.305,1.773,1.773,0,0,1-1.845,1.4c-1.886.1-3.889-.858-5.7.041a3.048,3.048,0,0,0-1.472,3.362.32.32,0,0,0,.616-.17" transform="translate(-185.931 -162.534)"/>
          <path id="Trazado_1400666" data-name="Trazado 1400666" d="M22.734,120.946c.316-3.606,2.8-6.12,5.9-7.67,2.28-1.14,5.655-3.059,4.75-6.186a6.855,6.855,0,0,0-1.971-2.744c-1.247-1.256-2-2.252-1.715-4.1a5.184,5.184,0,0,0,.024-1.914,3.36,3.36,0,0,1,.346-2.62c1.115-1.75,3.84-2.171,5.732-2.368,1.029-.107,2.065-.145,3.1-.208a7.447,7.447,0,0,0,2.361-.34,2,2,0,0,0,1.174-1.2c.323-.889-.021-2.5,1.134-2.854.391-.121.224-.738-.17-.616-1.4.433-1.2,1.87-1.5,3.018-.353,1.359-1.876,1.289-3,1.357-1.033.063-2.067.1-3.1.208-2.7.278-6.756,1.167-6.857,4.571a20.708,20.708,0,0,1,.139,2.8,4.868,4.868,0,0,0-.038,2.006,6.678,6.678,0,0,0,2.009,2.81c1.289,1.3,2.4,2.73,1.421,4.617-.943,1.816-2.94,2.576-4.653,3.466a10.059,10.059,0,0,0-5.721,7.974c-.036.409.6.407.639,0" transform="translate(-17.491 -69.747)"/>
          <path id="Trazado_1400667" data-name="Trazado 1400667" d="M123.541,47.932a12,12,0,0,0,6.075-4.363,28.061,28.061,0,0,0,1.828-3.473c.6-1.051,1.38-1.985,1.931-3.069.186-.366-.365-.689-.552-.323a30.411,30.411,0,0,1-1.73,2.755c-.62.951-.883,2.067-1.5,3.028a11.4,11.4,0,0,1-6.226,4.828.32.32,0,0,0,.17.616" transform="translate(-97.488 -28.93)"/>
          <path id="Trazado_1400668" data-name="Trazado 1400668" d="M45.592,52.9q.283,4.221.567,8.442c.027.408.667.411.639,0q-.283-4.221-.567-8.442c-.027-.408-.666-.411-.639,0" transform="translate(-36.092 -41.638)"/>
          <path id="Trazado_1400669" data-name="Trazado 1400669" d="M28.66,71.439a39.282,39.282,0,0,0,7.507-.252c.4-.052.407-.692,0-.639a39.282,39.282,0,0,1-7.507.252c-.411-.025-.409.613,0,.639" transform="translate(-22.446 -55.847)"/>
          <path id="Trazado_1400670" data-name="Trazado 1400670" d="M38.021,65.761a29.317,29.317,0,0,0,3.993,2.567c.363.194.686-.358.323-.552a29.286,29.286,0,0,1-3.993-2.567c-.327-.249-.645.305-.323.552" transform="translate(-29.993 -51.573)"/>
          <path id="Trazado_1400671" data-name="Trazado 1400671" d="M42.938,63.931l-3,3.459c-.268.309.182.763.452.452l3-3.459c.268-.309-.182-.763-.452-.452" transform="translate(-31.556 -50.529)"/>
          <path id="Trazado_1400672" data-name="Trazado 1400672" d="M144.678,286.444a39.879,39.879,0,0,1,8.941-3.218c.4-.093.231-.709-.17-.616a40.6,40.6,0,0,0-9.094,3.283c-.367.185-.044.736.323.552" transform="translate(-114.152 -223.721)"/>
          <path id="Trazado_1400673" data-name="Trazado 1400673" d="M205.125,277.633a.32.32,0,0,0,0-.639.32.32,0,0,0,0,.639" transform="translate(-162.143 -219.283)"/>
        </g>
      </g>
    </g>
  </g>
</svg>
