<svg xmlns="http://www.w3.org/2000/svg" xmlns:xlink="http://www.w3.org/1999/xlink" width="203.872" height="196.871" viewBox="0 0 203.872 196.871">
  <defs>
    <clipPath id="clip-path">
      <rect id="Rectángulo_456684" data-name="Rectángulo 456684" width="153.946" height="155.402" fill="#dfdfa4"/>
    </clipPath>
    <clipPath id="clip-path-2">
      <path id="Unión_91" data-name="Unión 91" d="M10597.425,11890.063l-46.885,3.329-23.626-25.614s-12.839-35.471-20-40.475,20-4.622,20-4.622l25.671,5.653a77.882,77.882,0,0,1-.459-8.463,76.754,76.754,0,0,1,22.708-54.6c-3.141-2.152-5.76-3.876-7.284-4.733-6.735-3.789-1.684-30.924,0-42.442s18.275-15.006,30.23-17.052,34.948-.531,49.6,0,19.369,38.122,19.369,38.122l-3.066,11.881a77.019,77.019,0,0,1-66.26,139.021Z" transform="translate(-10236.914 -7174.371)" fill="#fff" stroke="#707070" stroke-width="1"/>
    </clipPath>
    <clipPath id="clip-path-3">
      <rect id="Rectángulo_458530" data-name="Rectángulo 458530" width="170.176" height="178.437" fill="none"/>
    </clipPath>
  </defs>
  <g id="Grupo_1208304" data-name="Grupo 1208304" transform="translate(-268.797 -4525.629)">
    <g id="Grupo_1206544" data-name="Grupo 1206544" transform="translate(44.201 -1534.42)">
      <g id="Grupo_1206514" data-name="Grupo 1206514" transform="translate(274.521 6099.42)">
        <g id="Grupo_1206513" data-name="Grupo 1206513" clip-path="url(#clip-path)">
          <path id="Trazado_1294880" data-name="Trazado 1294880" d="M176.416,90.112c-.191-1.212-1-.535-.812-.569-.046.719.678.46.812.569" transform="translate(-22.469 -11.439)" fill="#dfdfa4"/>
          <path id="Trazado_1294881" data-name="Trazado 1294881" d="M172.5,76.119l.331.156-1.021-1.563Z" transform="translate(-21.988 -9.561)" fill="#dfdfa4"/>
          <path id="Trazado_1294882" data-name="Trazado 1294882" d="M170.817,70.3l1.175.637c-.356-1.135-.821-2.421-1.3-3.6a11.96,11.96,0,0,1-.947-3.132c-.916,1.341,1.322,3.707,1.279,5.726Z" transform="translate(-21.695 -8.217)" fill="#dfdfa4"/>
          <path id="Trazado_1294883" data-name="Trazado 1294883" d="M170.731,57.88c-.1-.223-.217-.535-.393-1.076-.314.524-.862-1.051.372,1.355a2.073,2.073,0,0,1,.022-.279" transform="translate(-21.748 -7.266)" fill="#dfdfa4"/>
          <path id="Trazado_1294884" data-name="Trazado 1294884" d="M170.847,58.008c.467,1.092.1-.868,0,0" transform="translate(-21.864 -7.394)" fill="#dfdfa4"/>
          <path id="Trazado_1294885" data-name="Trazado 1294885" d="M169.163,52.175c-.882-1.373-1-.938-1.049.086L169.15,53.5c.128-.412-.39-1.714.013-1.328" transform="translate(-21.515 -6.566)" fill="#dfdfa4"/>
          <path id="Trazado_1294886" data-name="Trazado 1294886" d="M166.971,51.967c.051-.179.005-.393-.513-.637l.264.315.249.323" transform="translate(-21.303 -6.569)" fill="#dfdfa4"/>
          <path id="Trazado_1294887" data-name="Trazado 1294887" d="M167.472,52.71c-.392.03.067.183.6.734l-1.051-1.383c-.089.29-.446.48.447.649" transform="translate(-21.357 -6.663)" fill="#dfdfa4"/>
          <path id="Trazado_1294888" data-name="Trazado 1294888" d="M168.415,54.74c.12.895.358,1.991-.623.74,1.243,2.643,1.932,1.924.623-.74" transform="translate(-21.473 -7.005)" fill="#dfdfa4"/>
          <path id="Trazado_1294889" data-name="Trazado 1294889" d="M168.813,66.019a3.255,3.255,0,0,1-.3-1.208c-.078-.465-.179-.852-.35-.76l0,.581c0,.29-.017.584-.017.584Z" transform="translate(-21.519 -8.195)" fill="#dfdfa4"/>
          <path id="Trazado_1294890" data-name="Trazado 1294890" d="M163.668,44.173c-.122-.612-.6-1.636-.306-1.913-.276.059-.316.816-.542,1.089,0,0,.223.2.432.406l.417.418" transform="translate(-20.837 -5.408)" fill="#dfdfa4"/>
          <path id="Trazado_1294891" data-name="Trazado 1294891" d="M162.628,43.334l-1.3-1.191c.773,1.3,1.107,1.425,1.3,1.191" transform="translate(-20.646 -5.393)" fill="#dfdfa4"/>
          <path id="Trazado_1294892" data-name="Trazado 1294892" d="M165.884,52.712l1,1.06-1.119-1.3c-.272-.326-.576-.635-.8-.869s-.368-.387-.368-.387l.251.464s.539.5,1.027,1.03" transform="translate(-21.066 -6.555)" fill="#dfdfa4"/>
          <path id="Trazado_1294893" data-name="Trazado 1294893" d="M160.159,36.351l-.883-.44-.909-.408.722.413Z" transform="translate(-20.267 -4.544)" fill="#dfdfa4"/>
          <path id="Trazado_1294894" data-name="Trazado 1294894" d="M155.668,31.729c.867.227,0-1.312.746-.929a9.124,9.124,0,0,0-2.763-1.765,6.075,6.075,0,0,1,2.016,2.694" transform="translate(-19.664 -3.716)" fill="#dfdfa4"/>
          <path id="Trazado_1294895" data-name="Trazado 1294895" d="M151.959,28.207a11.664,11.664,0,0,0,1.476.723,5.581,5.581,0,0,0-1.476-.723" transform="translate(-19.447 -3.61)" fill="#dfdfa4"/>
          <path id="Trazado_1294896" data-name="Trazado 1294896" d="M159.377,37.542l-.215.983.379.553a1.85,1.85,0,0,0-.164-1.536" transform="translate(-20.369 -4.804)" fill="#dfdfa4"/>
          <path id="Trazado_1294897" data-name="Trazado 1294897" d="M159.045,38.493c-.4-.6-.685-1.023-.8-1.2.1.156.341.528.8,1.236Z" transform="translate(-20.251 -4.772)" fill="#dfdfa4"/>
          <path id="Trazado_1294898" data-name="Trazado 1294898" d="M159.69,39.443l-.1-.14c-.023.1-.02.14.1.14" transform="translate(-20.423 -5.03)" fill="#dfdfa4"/>
          <path id="Trazado_1294899" data-name="Trazado 1294899" d="M161.116,46.615c.79.351.536-.816,1.819.157-.858-.658-2.251-2.18-1.819-.157" transform="translate(-20.609 -5.836)" fill="#dfdfa4"/>
          <path id="Trazado_1294900" data-name="Trazado 1294900" d="M159.375,40.841s.223.388.423.791l.41.8c.146-.136.213-.566.651-.264l-.738-.669c-.363-.337-.746-.655-.746-.655" transform="translate(-20.396 -5.227)" fill="#dfdfa4"/>
          <path id="Trazado_1294901" data-name="Trazado 1294901" d="M158.572,40.179l.7.577-.331-.576Z" transform="translate(-20.293 -5.142)" fill="#dfdfa4"/>
          <path id="Trazado_1294902" data-name="Trazado 1294902" d="M153.484,31.142a9.9,9.9,0,0,1-2.047-1.654c.618.835,1.253,1.693,1.913,2.459.269-.047.882.018.133-.8" transform="translate(-19.38 -3.774)" fill="#dfdfa4"/>
          <path id="Trazado_1294903" data-name="Trazado 1294903" d="M156.41,34.909l-.14-.11c.017.123.053.2.14.11" transform="translate(-19.999 -4.453)" fill="#dfdfa4"/>
          <path id="Trazado_1294904" data-name="Trazado 1294904" d="M143.543,22.024c.01.069.018.133.028.2l.11-.075Z" transform="translate(-18.37 -2.819)" fill="#dfdfa4"/>
          <path id="Trazado_1294905" data-name="Trazado 1294905" d="M153.622,32.528a2.347,2.347,0,0,0,1.3,1.094,15.569,15.569,0,0,1-1.31-1.316c-.122.021-.182.058.008.221" transform="translate(-19.644 -4.135)" fill="#dfdfa4"/>
          <path id="Trazado_1294906" data-name="Trazado 1294906" d="M149.529,26.294c.188.39.426.8.668,1.245-.1-.46-.424-1.287-.668-1.245" transform="translate(-19.136 -3.365)" fill="#dfdfa4"/>
          <path id="Trazado_1294907" data-name="Trazado 1294907" d="M156.268,34.4a1.2,1.2,0,0,1,.1.071c-.033-.3-.074-.227-.1-.071" transform="translate(-19.999 -4.384)" fill="#dfdfa4"/>
          <path id="Trazado_1294908" data-name="Trazado 1294908" d="M156.123,34.338a4.71,4.71,0,0,0-.991-.521,8.617,8.617,0,0,0,.992.856,1.165,1.165,0,0,1,0-.335" transform="translate(-19.853 -4.328)" fill="#dfdfa4"/>
          <path id="Trazado_1294909" data-name="Trazado 1294909" d="M145.95,24.216l.4.4-.251-.1.589.443a10.171,10.171,0,0,1-1.268-2.4c-1.154-.553-1.508-.519-1.72-.4l1.334,1.217.915.838" transform="translate(-18.39 -2.827)" fill="#dfdfa4"/>
          <path id="Trazado_1294910" data-name="Trazado 1294910" d="M149.491,27.665c-.918.1-2.414-.842-2.21.461,1.531,1.434,1.475.61,2.6,1.291-2.5-2.354.986.427-.428-1.673a13.807,13.807,0,0,1,1.436,1.219c-.364-.515-.7-1.031-.995-1.541l.022.091.013.01-.011.006c.038.174.031.25-.047.09a.259.259,0,0,1-.062-.042.738.738,0,0,1-.31.085c-.584-.836.029-.253.31-.085a.53.53,0,0,0,.109-.048l0-.016s-.671-.565-1.384-1.082l-1.4-1.052a22.125,22.125,0,0,0,2.364,2.286" transform="translate(-18.829 -3.248)" fill="#dfdfa4"/>
          <path id="Trazado_1294911" data-name="Trazado 1294911" d="M158.477,45.923a.189.189,0,0,1,.092-.181c-.194-.132-.291-.167-.092.181" transform="translate(-20.267 -5.842)" fill="#dfdfa4"/>
          <path id="Trazado_1294912" data-name="Trazado 1294912" d="M158.718,41.8c.027-.058.054-.117.083-.177-.044-.03-.072.041-.083.177" transform="translate(-20.312 -5.326)" fill="#dfdfa4"/>
          <path id="Trazado_1294913" data-name="Trazado 1294913" d="M159.032,44.906c.177.7-.309.187-.5.347.426.287,1.339,1.132.862-.33l-.215-.146a8.658,8.658,0,0,1-.543-2.946,5.562,5.562,0,0,0-.548,2.212,1.649,1.649,0,0,1,.942.862" transform="translate(-20.232 -5.353)" fill="#dfdfa4"/>
          <path id="Trazado_1294914" data-name="Trazado 1294914" d="M152.868,34.836l-1.061-.944.437,1.5.253-.305c.9,1.321,1.036.768,1.4.73l-.317-.31c-.19-.187-.441-.436-.712-.669" transform="translate(-19.428 -4.337)" fill="#dfdfa4"/>
          <path id="Trazado_1294915" data-name="Trazado 1294915" d="M144.15,21.008s-.5-.07-1.009-.107l-1.012-.084,1.221.548Z" transform="translate(-18.189 -2.664)" fill="#dfdfa4"/>
          <path id="Trazado_1294916" data-name="Trazado 1294916" d="M140.5,18.277s-.262-.071-.53-.13l-.531-.124.536.72Z" transform="translate(-17.845 -2.307)" fill="#dfdfa4"/>
          <path id="Trazado_1294917" data-name="Trazado 1294917" d="M36.972,15.171l.74.423a4.693,4.693,0,0,1,1.831-1.04c-1.384.119-3.131.053-2.572.617" transform="translate(-4.718 -1.863)" fill="#dfdfa4"/>
          <path id="Trazado_1294918" data-name="Trazado 1294918" d="M99,2.262a11.971,11.971,0,0,0-2.6-.79c1.244.594,2.175,1.371,2.6.79" transform="translate(-12.337 -0.188)" fill="#dfdfa4"/>
          <path id="Trazado_1294919" data-name="Trazado 1294919" d="M9.262,132.875c.378.385.623.5.761.4-.377-.4-.655-.59-.761-.4" transform="translate(-1.185 -16.996)" fill="#dfdfa4"/>
          <path id="Trazado_1294920" data-name="Trazado 1294920" d="M95.948,1.4a3.8,3.8,0,0,0-3.1-.257c.184.091.367.143.554.221a9.788,9.788,0,0,1,2.545.036" transform="translate(-11.883 -0.117)" fill="#dfdfa4"/>
          <path id="Trazado_1294921" data-name="Trazado 1294921" d="M173.616,103.359a4.755,4.755,0,0,0,.126-1.442c0,.35-.068.911-.126,1.442" transform="translate(-22.219 -13.043)" fill="#dfdfa4"/>
          <path id="Trazado_1294922" data-name="Trazado 1294922" d="M125.312,9.491c.747.305.154-.027,0,0" transform="translate(-16.037 -1.214)" fill="#dfdfa4"/>
          <path id="Trazado_1294923" data-name="Trazado 1294923" d="M127.614,14.545a.5.5,0,0,0-.449.183.631.631,0,0,1,.449-.183" transform="translate(-16.274 -1.861)" fill="#dfdfa4"/>
          <path id="Trazado_1294924" data-name="Trazado 1294924" d="M126.259,10.368a6.563,6.563,0,0,0-.816-.668,7.653,7.653,0,0,0,.816.668" transform="translate(-16.054 -1.241)" fill="#dfdfa4"/>
          <path id="Trazado_1294925" data-name="Trazado 1294925" d="M126.395,10.014l.594.386c.147-.066.1-.179-.594-.386" transform="translate(-16.176 -1.282)" fill="#dfdfa4"/>
          <path id="Trazado_1294926" data-name="Trazado 1294926" d="M125.159,9.428,124.12,9a8.109,8.109,0,0,1,1.154.61c-.122-.112-.164-.178-.114-.183" transform="translate(-15.884 -1.152)" fill="#dfdfa4"/>
          <path id="Trazado_1294927" data-name="Trazado 1294927" d="M151.4,90.316c-.262.68-.745-.132-1.18-.056,0,0,.112-.26.27-.652s.371-.92.584-1.446l.585-1.462c.16-.4.243-.672.243-.672-.543-.459-.473-1.634-.4-2.77s.057-2.233-.474-2.476l.163,1.394c-.63-.951-1.358-.324-2.164.451l-.249.235c.078-1.387.126-2.781.126-4.187a73.025,73.025,0,0,0-23.085-53.35.6.6,0,0,0,.141.078l.221-.33c-.658-.6-1.287-.867-1.026-.382-.58-.532-1.178-1.046-1.775-1.559,1.484.5,2.151-1.806,1.825-3.721-.239.2-.4.381-2.041-.381.286.647,2.4,3.166.889,2.683-1.952-1.216-1.293-1.365-1.932-2.361.185,1.109-2.368-.378-3.194.231A73.166,73.166,0,0,0,107.3,12.6c.12-.059.164-.156.057-.326l-1.208-.4c-.757-1.173,2.629.042,1.3-.945a20.29,20.29,0,0,1,2.872.5,9.389,9.389,0,0,1,1.522.536,7.965,7.965,0,0,1,1.471.97l-.137,1.155c.114-.293-1.066-1.35-1.82-1.4.557.04,1.194.828,1.884,1.507s1.431,1.279,2.266.995l-.525-.776c-.259-.4-.545-.759-.545-.759.9.2,1.934.405,2.99.7a6.523,6.523,0,0,1,2.883,1.556c-.221-1.448-.474-.2-1.083-2.128.31,2.014-4.789-3.135-3.778-.58a3.857,3.857,0,0,0-1.462-1.994,8.382,8.382,0,0,1-1.945-2.02c-.1.343.361.943-1.235-.071a1.906,1.906,0,0,1-.507.09l-.1-.081.074.085c-.1.01-.107.017.028.031a2.118,2.118,0,0,1,.6.912,5.61,5.61,0,0,1-2.479-.41,13.472,13.472,0,0,0-2.413-.592c-.927-.6.577-.183.185-.773l-.8-.017-.808.016c.174-.773-2.25-2.286.358-1.751l-2.189-.9A8.51,8.51,0,0,0,98.6,4.01c-1.035-.472-2.953.062-1.852-.263L94.9,3.484,93.04,3.3l.01-.2a32.7,32.7,0,0,0-5.605-.651,17.328,17.328,0,0,1-5.923-1.207c-.621.054-1.25.111-1.976.122a13.625,13.625,0,0,1-2.578-.115L76.577.566A20.8,20.8,0,0,1,73.51.434C72.427.352,71.452.316,71.133.711A3.3,3.3,0,0,0,69.1.026a11.193,11.193,0,0,0-2.9.2c-1.028.186-2.088.378-3.054.611a16.3,16.3,0,0,1-2.561.465l.065.887a15.694,15.694,0,0,0-2.8.739c-.474.161-.957.338-1.462.53s-1.014.444-1.56.688l.348.713a10.545,10.545,0,0,1-3.6,1.064c-.718.132-1.478.26-2.249.426a15.366,15.366,0,0,0-2.269.745c.092-.358.883-.585,1.483-.628a6.607,6.607,0,0,0-2.954.559,16.233,16.233,0,0,0-2.583,1.577c-.833.564-1.6,1.219-2.408,1.713a7.357,7.357,0,0,1-2.55,1.028,3.135,3.135,0,0,1-1.829,1.041.612.612,0,0,0,.166-.143,3.46,3.46,0,0,0-.314.17,10.546,10.546,0,0,0-1.248.276,6.131,6.131,0,0,0,1.083-.179,14.327,14.327,0,0,0-2.1,1.693L33,13.732c-.063.053-.119.087-.182.146-1,.275-.439.754.348,1a4.726,4.726,0,0,0-.789,1.157c-1.415-.637-1.852,1.829-3.547,1.359-.05.487-.948,1.36-1.761,2.293a4.477,4.477,0,0,0-1.237,2.388,5.07,5.07,0,0,0-2.234,2.169l-1.075-.45s-.181.668-.36,1.336c-.153.679-.306,1.358-.306,1.358-1.453.581-2.161.776-1.755-.842a26.537,26.537,0,0,1-1.455,2.868A9.923,9.923,0,0,0,17.556,31.1l-.446-.55c-.637.851-.937,2.731-1.78,2.88-1.217.551-2.985,2.9-4.8,5.77-1.765,2.9-3.572,6.293-5.329,8.87,1.179-.129.665.415.059,1.12-.588.712-1.3,1.588-.61,1.984-.577.154-1.147.861-1.172-.218a19.729,19.729,0,0,1-1.317,3.588,4.225,4.225,0,0,0-.32,3.12c-.563.215-.494-.841-.855-.612.03.275.128,1.079-.238,1.32s-.264-.552-.327-1.1a6.249,6.249,0,0,0-.237,1.939,2.668,2.668,0,0,0,.418,1.235,3.562,3.562,0,0,0,1.744,1.193,4.033,4.033,0,0,0-.84,1.8,3.061,3.061,0,0,0,.467,1.718c-.543.457-1.177,1.3-.992-.665L.6,65.975c-.081.336-.169.7-.26,1.08-.07.382-.133.777-.187,1.166-.216,1.555-.278,3,.3,3.111-.308.317-.2,1.528-.093,1.823C.225,74.382.14,75.049.116,75.714S.063,77.039.085,78.25l.2-.669c1.3.964.3,2,.506,3.937l-.14-.05a9.5,9.5,0,0,0-.236,2.264,3.233,3.233,0,0,0,.154.927,2.8,2.8,0,0,1,.129.916C.685,86.03.636,86.7.51,87.831l.8-.337c.92.1.776,1.073.532,2.356a7.271,7.271,0,0,0,.106,4.057l.3-1c.405.626.033,1.68-.445,2.8s-1.066,2.3-.959,3.021c-.061.342-.387-.412-.6-.812-.009,3.932,1.189.2,2.19,2.805-.413.666-1.647-.208-1.182,1.645-.074.523.819,1.7,1.711,3.045a8.367,8.367,0,0,1,1.884,4.249c.183-.7.376-1.38,1.217-.349a20.551,20.551,0,0,1,.981,3.55c.365,1.286.831,2.523,1.925,2.933.017.278-.04.419-.133.484.55.559,1.257,1.568,2.057,2.422a6.475,6.475,0,0,0,2.149,1.777,2.07,2.07,0,0,0,.31,2.261,11.56,11.56,0,0,0,2.132,2.336,21.008,21.008,0,0,1,2.075,2.01c.482.583.626,1.1.117,1.533,0,0,.778.865,1.587,1.7l1.654,1.632-.279.1a8.215,8.215,0,0,0,2.491,2.113,5.976,5.976,0,0,0,1.892.6c.392.58-.148.441-.285.507a15.228,15.228,0,0,0,3.243,3.063,13.373,13.373,0,0,0,3.81,1.444l-.2.92c.543.082,1.6,1.273,3.14,2.55.379.324.782.663,1.209.991.439.311.9.618,1.375.907a10.37,10.37,0,0,0,3.043,1.331.7.7,0,0,1-.6.129c2.356.671,4.676,2.436,6.9,3.677,2.2,1.271,4.249,1.991,5.557.775,0,0,.8.085,1.612.1l1.609.054c-3.791-1.332.95-1.151-.485-2.1a4.8,4.8,0,0,1,2.143,1.051c.485.4.542.766-.41.6l-.249-.235c-1.125,1.459,4.7,1.738,4.379,2.761,3.931.753,7.839,1.361,11.733,1.772a59.486,59.486,0,0,0,11.553.112l-.5-.58L83.112,154s.163,0,.405-.026l.891-.087,1.3-.128c.717.208,1.056.872-.821,1.058,1.083.6,3.048-1,3.036-1.313,3.7-.134-1.168,1.719-.063,1.553l1.506-.365L89,154.6c.57-.367.854-.691,1.273-.964a6.007,6.007,0,0,1,2.07-.732c1.441-.07.89.6,1.451.523.017.089.215.087.853-.16,0,0,.207-.034.509-.114l1.113-.276,1.621-.4-1.557-.6c1.271-.867,2.98-.811,1.2-1.473,1.3.518,4.294-.278,7.035-1.41,1.38-.542,2.672-1.22,3.743-1.689a10.321,10.321,0,0,1,2.217-.93,10.506,10.506,0,0,1,1.169-1.072,14.264,14.264,0,0,1,1.26-.956c.883-.6,1.88-1.116,2.937-1.768-.633.157-1.53-.613.315-1.632.3,1.178,1.288.9,2.447.286s2.548-1.45,3.733-1.352c-.956.041.219-.967,1.258-1.947s1.873-2.013.453-1.811c1.471-1.024.646.6,2.041.117a23.453,23.453,0,0,1,2.291-2.5l2.715-2.43c.467-.418.961-.824,1.427-1.266l1.387-1.368a21.184,21.184,0,0,0,2.543-3.052c-.193-.25-1.108.156-.771-1.012l.459-.2c.281-.116.643-.282,1-.456l1.44-.7c.478-.97-.856-1.765,1.052-2.793-.363.088-.9.209-.608-.432,3.459-3.928,5.673-8.869,7.454-13.863,1.8-5.025,3.2-10.085,5.435-15.13-.841,1.327-.727.365-.56-.717M123.168,22.948q-1.09-.93-2.217-1.816a3.6,3.6,0,0,1,2.217,1.816m-2.643-2.213c-.007.014-.024.023-.038.032-.054-.042-.107-.085-.162-.127l.2.1M100.881,5.589a.383.383,0,0,0-.072.018c-1.128-.727-.732-.457.072-.018m-13.55-.776A16.414,16.414,0,0,1,89.86,4.6c2.853.181,1,1.179,1.529,1.063a9.11,9.11,0,0,0,2.981.4A8.911,8.911,0,0,0,96.294,5.8a4.578,4.578,0,0,1,4.106.809c1.358,1.45-.542,1.787-.392,2.551a6.917,6.917,0,0,1-2.572-1.03A8.393,8.393,0,0,0,95.4,7.138l1.692.941a5.358,5.358,0,0,1-3-.562,2.558,2.558,0,0,0,.671.443,72.9,72.9,0,0,0-10.4-2,5.478,5.478,0,0,1,.924-.519,9.157,9.157,0,0,1,2.033-.626M72.625,4.736c-.076.255.191.556.4.753q-1.117.039-2.225.112a5.508,5.508,0,0,1,1.83-.865M57.4,5.312c.147.012,1.248.085,2.42.217a11.1,11.1,0,0,1,2.921.642.8.8,0,0,1,.344.348c-.888.153-1.774.312-2.65.5L60.1,5.729,60.067,7.1c-.865.187-1.729.378-2.582.6A3.874,3.874,0,0,1,57.4,5.312M44.138,9.821l.811.263,1.014-.817c.509-.412,1.042-.78,1.042-.78-.392.819-1.087,2.182-1.85,3.59q-1.847.848-3.64,1.789a8.636,8.636,0,0,1,2.623-4.044M25.828,22.082a.957.957,0,0,0,.065.335c-.149-.12-.412-.013-.065-.335M21.8,26.788a3.189,3.189,0,0,0,1.133,1.06c-.436.452-.876.9-1.3,1.363.023-.436.051-.843.076-1.2.054-.735.091-1.226.091-1.226M2.844,62.432c.262-.325.566.065.909.651-.043-.222-.087-.435-.135-.6.258-.389.492-.5.708-.453-.113.488-.235.972-.338,1.464-.078-.135-.163-.284-.235-.407.051.238.1.5.152.768-.045.22-.078.445-.122.665a11.312,11.312,0,0,0-.954,1.055S2.817,64.786,2.8,64s.039-1.57.039-1.57m91.162,90.633-.559-.1c1.085-.5.818-.213.559.1" transform="translate(0 0)" fill="#dfdfa4"/>
          <path id="Trazado_1294928" data-name="Trazado 1294928" d="M133.28,13.93c.062-.164-.031-.5.252-.4-.15-.073-.389-.187-.648-.29l-.814-.343a3.023,3.023,0,0,1,1.21,1.037" transform="translate(-16.902 -1.65)" fill="#dfdfa4"/>
          <path id="Trazado_1294929" data-name="Trazado 1294929" d="M133.841,13.665a.806.806,0,0,1,.072.037l-.072-.037" transform="translate(-17.128 -1.749)" fill="#dfdfa4"/>
          <path id="Trazado_1294930" data-name="Trazado 1294930" d="M133.747,13.619l.082.039a.838.838,0,0,0-.082-.039" transform="translate(-17.116 -1.743)" fill="#dfdfa4"/>
          <path id="Trazado_1294931" data-name="Trazado 1294931" d="M133.744,17.4c-.282.682.765,1,1.788,1.595a1.387,1.387,0,0,1-.17-.12c.852-.617-.371-1.087-1.618-1.475" transform="translate(-17.11 -2.227)" fill="#dfdfa4"/>
          <path id="Trazado_1294932" data-name="Trazado 1294932" d="M136.972,20.008c.344-.242-.314-.324-.9-.617a5.9,5.9,0,0,1,.9.617" transform="translate(-17.414 -2.482)" fill="#dfdfa4"/>
          <path id="Trazado_1294933" data-name="Trazado 1294933" d="M122.128,8.751c.45.4.7-.679.878-.28.949-.576-3.955-.564-.878.28" transform="translate(-15.498 -1.033)" fill="#dfdfa4"/>
          <path id="Trazado_1294934" data-name="Trazado 1294934" d="M133.079,20.084l.133-.952-.93.241Z" transform="translate(-16.929 -2.448)" fill="#dfdfa4"/>
          <path id="Trazado_1294935" data-name="Trazado 1294935" d="M124.531,14.358l1.533,1.057c.044-.142.293-.111.582-.037-1-.545-2.039-1.272-2.115-1.02" transform="translate(-15.937 -1.831)" fill="#dfdfa4"/>
          <path id="Trazado_1294936" data-name="Trazado 1294936" d="M128.324,16.144a7.684,7.684,0,0,0-1.368-.608,4.346,4.346,0,0,0,1.368.608" transform="translate(-16.247 -1.988)" fill="#dfdfa4"/>
          <path id="Trazado_1294937" data-name="Trazado 1294937" d="M101.707,7.287c.51-.121,1.27-.1,1.02-.441l-2.034-.109c-.25.26.257.536,1.013.55" transform="translate(-12.878 -0.862)" fill="#dfdfa4"/>
          <path id="Trazado_1294938" data-name="Trazado 1294938" d="M175.47,95.079s.133-.4.228-.8.207-.8.207-.8l-.624,1.016Z" transform="translate(-22.432 -11.963)" fill="#dfdfa4"/>
          <path id="Trazado_1294939" data-name="Trazado 1294939" d="M175.245,91.185l-1-.966c.042.358.122,1.058-.14,1.325Z" transform="translate(-22.281 -11.546)" fill="#dfdfa4"/>
        </g>
      </g>
    </g>
    <g id="Enmascarar_grupo_1119340" data-name="Enmascarar grupo 1119340" clip-path="url(#clip-path-2)">
      <g id="Grupo_1207943" data-name="Grupo 1207943" transform="translate(290 4541.563)">
        <g id="Grupo_1207942" data-name="Grupo 1207942" clip-path="url(#clip-path-3)">
          <path id="Trazado_1400674" data-name="Trazado 1400674" d="M162.565,205.662a5.677,5.677,0,1,0-5.677,5.671,5.673,5.673,0,0,0,5.677-5.671m2.018,0a7.69,7.69,0,1,1-7.69-7.683,7.685,7.685,0,0,1,7.69,7.683m-28.935-86.525-1.6-6.449-3.324,1.274-2.089,4.88s-2.031,1.636-4.509,3.638c-3.409,2.753-7.668,6.194-8.692,7.03a15.066,15.066,0,0,0-3.606,5.645l6.272-1.493,6.191-1.189,19.2-3.678Zm83.836,41.844c.215-1.573,1.284-3.571-.143-8s-2.792-3.571-4.863-3c0,0-.354-.688-.944-1.841-1.186-2.3-3.333-6.467-5.534-10.7-1.972-3.8-3.995-7.664-5.413-10.3-3.78-7.03-7.873-12.589-9.341-13.112a11.751,11.751,0,0,0-1.181-.264c-3.391-.657-13.05-2.207-20.221-3.343-4.76-.755-8.42-1.323-8.42-1.323l-4.044-6.127-3.543,1.358,1.293,3.325-5,16.8,11.846-5.953,13.018,27.029a17.541,17.541,0,0,1,2.841-.224,12.3,12.3,0,0,1,3.5.407c1.516.554,2.348,2.207,3.109,3.937s3.109,1.448,4.764,3.034,1.727,4.831,1.727,4.831l25.352,8.321s2.336-.719,2.55-1.859-1.57-1.43-1.355-3m-76.835,33.826a2.424,2.424,0,0,1,2.505.916l4.393-1.537v-3.07l7.189-1.645,3.919,2.543,7.8-1.39-1.262-6.1,1.843-.465L151.6,188.429l-13.041-.992-.318,8.782a11.341,11.341,0,0,1,4.4-1.413m58.927,35.216H118.857a40.748,40.748,0,0,0,1.329-5.97c1.11-6.525,2.179-15.664,2.336-17.05.013-.116.022-.179.022-.179l-.931.818s-3.807-10.945-17.228-15.333l19.348-6,11.538.876,1.092,11.62c-.273,2.713,4.581,19.7,4.581,19.7l30.551-8.339-2.716-17.456c.98-3.325.729-8.773.729-8.773l13.555-3.405-.479-9.421a46.075,46.075,0,0,0,4.657-1.412c0,.1.04,1.984,2.823,2.762,0,0,1.481,1.716,3.78,3.969.121.987.264,2.176.42,3.481.416,3.455.917,7.691,1.293,10.989.22,1.966.832,6.145,1.58,11.066.671,4.379,1.449,9.345,2.165,13.872,1.226,7.74,2.272,14.189,2.272,14.189" transform="translate(-52.536 -51.825)" fill="#afc199"/>
          <path id="Trazado_1400675" data-name="Trazado 1400675" d="M113.5,202.439l-.546-1.975-4.2,1.033.693,2.037ZM112.34,213.21a7.69,7.69,0,1,0-7.69,7.682,7.686,7.686,0,0,0,7.69-7.682m-15.385-5.671a1.4,1.4,0,1,0-1.4-1.4,1.4,1.4,0,0,0,1.4,1.4m19.581-7.284,2.716,17.456L88.7,226.049s-4.854-16.986-4.581-19.7a3.545,3.545,0,0,1,1.888-2.583,11.311,11.311,0,0,1,4.4-1.412,2.423,2.423,0,0,1,2.5.916l4.393-1.537v-3.07l7.189-1.645,3.919,2.543,7.8-1.39Zm-39.869,22a2.352,2.352,0,0,0-2.152-.308,5.745,5.745,0,0,0-1.606.84,9.626,9.626,0,0,0,3.445-4.634,2.4,2.4,0,0,0-.085-2.235,1.847,1.847,0,0,0-2.183-.371,5.347,5.347,0,0,0-1.785,1.551,4.443,4.443,0,0,0,.528-1.573,1.52,1.52,0,0,0-.662-1.443,1.5,1.5,0,0,0-1.539.17,2.5,2.5,0,0,0-.349.3c-.156,1.385-1.226,10.525-2.336,17.05a9.567,9.567,0,0,0,9.041-5.846c.488-1.162.658-2.708-.317-3.5m34.541,9.533a6.842,6.842,0,0,0-1.852,2.882,19.593,19.593,0,0,0-1.176-3.481,1.9,1.9,0,0,0-.792-1.01,1.3,1.3,0,0,0-1.364.25,2.989,2.989,0,0,0-.778,1.22,9.37,9.37,0,0,0-.331,5.895c0,.009,0,.022.009.031h8.818a9.187,9.187,0,0,0,1.078-3.584,2.905,2.905,0,0,0-.47-2.154,2.361,2.361,0,0,0-3.141-.049M144.7,223.01a3.505,3.505,0,0,0-2.205,3.526,10.256,10.256,0,0,0,1.369,4.219,6.286,6.286,0,0,0-5.087-1.788,2.886,2.886,0,0,0-2.366,1.372,2.462,2.462,0,0,0,.121,2.11,7.267,7.267,0,0,0,1.324,1.725,4.146,4.146,0,0,0-5.431,1.578,4.816,4.816,0,0,0-.537,1.819h17.447s-1.047-6.449-2.272-14.19a3.03,3.03,0,0,0-2.362-.371m-7.516-35.341a4.406,4.406,0,0,0-1.856,4.818,3.892,3.892,0,0,0,4.3,2.655,6.19,6.19,0,0,0-3.288,2.114,4.618,4.618,0,0,0-.917,3.736,3.729,3.729,0,0,0,2.554,2.793,3.147,3.147,0,0,0,3.337-1.18,4.768,4.768,0,0,0-.2,4.563,4.424,4.424,0,0,0,3.78,2.342c-.747-4.92-1.36-9.1-1.58-11.065-.376-3.3-.877-7.535-1.293-10.99a5.06,5.06,0,0,0-4.84.215m18.574-42.683a5.022,5.022,0,0,0-3.556,3.182,3.183,3.183,0,0,0,.55,3.24,3.022,3.022,0,0,0,2.018.782,7.733,7.733,0,0,0,2.183-.326,2.68,2.68,0,0,0,.027,4.974,3.458,3.458,0,0,0,2.4-.036,6.918,6.918,0,0,0,1.915-1.113c-1.186-2.3-3.333-6.467-5.534-10.7m-20.766,5.626a2.72,2.72,0,0,0,2.876,3.253,112.281,112.281,0,0,1,.519-13.041l-.255.3a8.542,8.542,0,0,0-2.675-1.546,4.245,4.245,0,0,0-3.033.085,2.851,2.851,0,0,0-1.709,2.4,2.265,2.265,0,0,0,.854,1.8,2.744,2.744,0,0,0-2.483.773,3.318,3.318,0,0,0-.537,3.5,4.472,4.472,0,0,0,2.738,2.4,6.949,6.949,0,0,0,3.7.084m-12.075-24.49c1.754-.013,3.154-1.466,4.093-2.945a9.434,9.434,0,0,0,2.17,4.156c1.145,1.091,3.087,1.515,4.312.51,1.271-1.042,1.195-2.976,1.007-4.607a3.349,3.349,0,0,0,4.957-.733,2.817,2.817,0,0,0,.367-1.189c-3.391-.657-13.049-2.208-20.221-3.343a9.883,9.883,0,0,0-.5,4.312c.3,1.944,1.848,3.852,3.816,3.839m-50.865,13.9a2.8,2.8,0,0,0-2.926-2.776,8.37,8.37,0,0,0,2.984-2.431,4.019,4.019,0,0,0,.591-3.683,2.756,2.756,0,0,0-.814-1.1c-3.409,2.753-7.668,6.194-8.692,7.03a15.07,15.07,0,0,0-3.606,5.644l6.272-1.493Zm71.591,48.855a.436.436,0,0,0,0-.872.436.436,0,0,0,0,.872m-13.3-10.216.479,9.421-13.555,3.405-.474.121-17.429,4.376-13.041-1-3.3-.25-11.533-.876-19.348,6.006L40.3,203.539l-18.337-.925-7.239-.367-.291-5.828a12.01,12.01,0,0,1,2.424-1.81c1.687-1.019,2.21-2.5,1.28-3.169,0,0,3.463-.407,3.78-2.091s-1.136-2.646-3-3.137c0,0,2.067-.148,1.834-1.716s-2.818-3.915-10.178-4.568a2.24,2.24,0,0,0,1.816-2.467c-.3-1.953-3.239-3.66-6.813-3.95l-5-28.848,34.67,3.839,24.332-5.8,6.272-1.493,25.383-4.871,8.594-4.183L99.88,132l11.847-5.953,13.022,27.029a8.516,8.516,0,0,0-5.2,2.529c-2.9,3.45-4.147,11.043-4.147,11.043s-2.836,4.621-1.593,6.23,5.4-.519,6.384-1.194c0,0-3.633,3.477-2.129,5.394,1.208,1.542,6.4-.527,8.4-1.4-1.078.55-2.751,1.676-1.651,2.963.77.89,3.226.572,5.53.018" transform="translate(-0.294 -59.373)" fill="#fff"/>
          <path id="Trazado_1400676" data-name="Trazado 1400676" d="M16.854,159.67c1.687-1.019,2.21-2.5,1.28-3.169,0,0,3.463-.407,3.78-2.092s-1.136-2.645-3-3.137c0,0,2.067-.148,1.834-1.716s-2.818-3.915-10.178-4.567a2.241,2.241,0,0,0,1.816-2.467c-.3-1.953-3.239-3.66-6.813-3.95-.116-.009-.228-.022-.344-.027-3.731-.2-4.487.956-4.586,2.717s2.72,4.835,2.72,4.835-2.375.653-2.724,4.282.962,4.026.658,5.336a4.792,4.792,0,0,0,1.409,4.08c1.007.907-.3,4.683,3.024,6.8s8.987.719,8.987.719l-.291-5.827a11.85,11.85,0,0,1,2.425-1.815m153.195-11.048c-.4-3.553-2.438-8.4-4.008-10.176l-25.348-8.321s-.067-3.244-1.727-4.831-4.008-1.309-4.769-3.039-1.588-3.383-3.109-3.932a15.724,15.724,0,0,0-6.339-.183,8.514,8.514,0,0,0-5.2,2.529c-2.9,3.45-4.147,11.043-4.147,11.043s-2.836,4.621-1.593,6.23,5.4-.519,6.384-1.194c0,0-3.633,3.477-2.129,5.394,1.208,1.542,6.4-.528,8.4-1.4-1.078.549-2.751,1.676-1.651,2.963.76.889,3.217.572,5.52.018a46.458,46.458,0,0,0,4.653-1.417s-.04,1.966,2.823,2.766c0,0,1.481,1.716,3.785,3.969,3.7,3.611,9.515,8.594,14.789,10.087,8.567,2.422,11.072.97,11.8,0s2.273-6.949,1.866-10.5M103.593,76.939,102.26,73.5l-6.6-10.713c.085.031,1.047.3,3.525-4.205,2.6-4.724-2.59-9.519-6.08-8.411s-2.572,6.163-2.572,6.163c-4.084-2.4-5.4-7.785-5.4-7.785s-2.653,3.839-5.368,4.63-7.171-.376-9.7-.675-4.223-.188-6.675,2.338a26.252,26.252,0,0,0-3.436,4.254,40.209,40.209,0,0,0,1.078,4.612c2.062,7.11,7.529,19.851,20.122,18.918l.658,2.672.769,3.106.828,3.343,7.842,9.658,8.59-4.183.049-.156,5-16.8ZM69.37,180.25l-9.556,8.514c-6.37-1.028-12.736-5.425-18.449-8.795s-19.4-12.3-19.4-12.3l18.337.925,11.842-3.674C65.563,169.309,69.37,180.25,69.37,180.25" transform="translate(-0.293 -24.433)" fill="#f0b068"/>
          <path id="Trazado_1400677" data-name="Trazado 1400677" d="M160.342,143.315l.693,2.037,4.053-1.095-.546-1.975Zm-10.4,4.643a1.4,1.4,0,1,0-1.4,1.4,1.4,1.4,0,0,0,1.4-1.4m10.45-125.4-6.71,7.6a28.974,28.974,0,0,0-.832-5.233s-2.841,2.069-5.453.536-6.456-4.683-10.679-.156c0,0-2.653,3.839-5.368,4.63s-7.171-.376-9.7-.675-4.223-.188-6.674,2.338a26.222,26.222,0,0,0-3.436,4.254,40.131,40.131,0,0,0,1.078,4.612c-6.76,1.224-9.529-3.919-9.529-3.919l7.252-13.318S111.589,11,113.3,7.178,137.787,1.337,140.748,2.9s7.838,12.187,7.838,12.187c10.544,4.684,11.805,7.472,11.805,7.472" transform="translate(-51.884 -1.192)" fill="#366400"/>
          <path id="Trazado_1400678" data-name="Trazado 1400678" d="M117.891,161.965a24.6,24.6,0,0,0-5.409,1.5,10.122,10.122,0,0,0,.251-2.364,38.363,38.363,0,0,1,5.055-1.122.437.437,0,0,0,.3-.536.446.446,0,0,0-.537-.3,38.634,38.634,0,0,0-4.872,1.072c-.018-.192-.045-.379-.076-.567a8.147,8.147,0,0,0-.4-1.466q2.51-.563,5.02-1.131c.546-.125.317-.965-.233-.84q-2.57.577-5.144,1.157a7.848,7.848,0,0,0-1.391-1.931q3.033-.764,6.115-1.323c.55-.1.317-.938-.233-.84q-3.254.59-6.464,1.408a.5.5,0,0,0-.175.085,6.858,6.858,0,0,0-3.838-1.448c-.559-.031-.559.84,0,.871a6.59,6.59,0,0,1,5.9,5.685c.461,2.789-.523,6.462-3.3,7.709-.51.228-.067.979.439.751a6.358,6.358,0,0,0,3.266-3.817.539.539,0,0,0,.08-.022,23.991,23.991,0,0,1,5.869-1.689.433.433,0,1,0-.228-.836m-15.116,6.5a7.353,7.353,0,0,1-.134-14.189.436.436,0,0,0-.233-.84,8.224,8.224,0,0,0,.135,15.869.436.436,0,0,0,.232-.84m-6.2-19.007c-.55.1-.318.943.232.84q6.483-1.2,12.96-2.4c.55-.1.318-.943-.232-.84q-6.483,1.193-12.96,2.4m-3.4,1.868c-.107-.55-.948-.317-.841.232q1.986,10.19,4.21,20.325c.121.549.962.317.841-.232q-2.228-10.143-4.21-20.325m8.786,20.629c.058-.558-.814-.554-.873,0a57.576,57.576,0,0,0,.107,13.246c.067.55.94.554.872,0a57.549,57.549,0,0,1-.107-13.246M70.986,154.229c-.022-.076-.049-.152-.072-.228,0-.683.009-1.372,0-2.056q-.034-4.619-.38-9.228c-.04-.554-.913-.559-.873,0q.343,4.518.376,9.05a17.021,17.021,0,0,0-6.174-6.994c-.474-.3-.913.451-.439.751a16.1,16.1,0,0,1,6.617,8.59,133.516,133.516,0,0,1-1.816,20.813q-.744,4.451-1.789,8.844c-.13.545.711.778.841.232a135.277,135.277,0,0,0,3.632-29.393.406.406,0,0,0,.076-.38m-2.595-.452a16.439,16.439,0,0,0-7.251-6.878c-.506-.241-.949.51-.439.751a15.632,15.632,0,0,1,6.939,6.565c.264.492,1.02.054.752-.438m76.767-39.412a49.364,49.364,0,0,1,18.409-8.6c.546-.125.313-.97-.232-.84a49.937,49.937,0,0,0-18.619,8.683c-.444.335-.009,1.091.443.756m21.245-.215q-3.651.275-7.3.545c-1.167.085-2.335.179-3.5.259a13.568,13.568,0,0,1-2.255.013,29.72,29.72,0,0,1,12.965-2.547c.564.018.559-.854,0-.872a30.609,30.609,0,0,0-14.584,3.222.44.44,0,0,0,.1.8c2.246.67,4.764.188,7.055.018q3.757-.282,7.516-.559c.559-.045.564-.916,0-.876m-24.587.733c-.765-.648-.622-1.694-.752-2.6a7.093,7.093,0,0,0-2.3-4.452,5.628,5.628,0,0,0-.76-.518c0-.018.009-.027.009-.045a161.6,161.6,0,0,1,1.011-22.019c.063-.554-.81-.549-.873,0a161.6,161.6,0,0,0-1.015,21.617c-.264-.121-.528-.241-.792-.358a3.938,3.938,0,0,1-2.251-1.864c-.206-.514-1.051-.291-.841.232.747,1.868,2.666,2.23,4.245,3.137a5.92,5.92,0,0,1,2.693,4.335,6.388,6.388,0,0,0,.528,2.61,4.613,4.613,0,0,0,1.767,1.363c1.906,1.077,2.246,3.066,2.469,5.086.058.55.935.559.873,0-.2-1.806-.452-3.821-1.87-5.122-.64-.59-1.494-.849-2.147-1.408m2.514,10.145a7.118,7.118,0,0,1-4.406,2.561c-1.566.255-4.1.018-4.545-1.819a15.836,15.836,0,0,0,5.825-3.4c.416-.38-.206-1-.617-.617a14.988,14.988,0,0,1-7.015,3.611c-.55.116-.318.957.232.84.246-.054.492-.121.734-.183.483,2.131,3.181,2.677,5.064,2.485a7.916,7.916,0,0,0,5.342-2.856c.353-.438-.26-1.059-.613-.621m-7.6-6.587a38.73,38.73,0,0,0-11.587,5.622c-.452.322-.018,1.081.439.751a37.9,37.9,0,0,1,11.376-5.532.436.436,0,0,0-.228-.84m-3.753-6.48c-5.547,1.707-11.121,4.317-14.4,9.327-.309.469.447.907.752.438,3.14-4.813,8.558-7.293,13.873-8.929.537-.161.309-1-.228-.836m-18.333,5.157a19.255,19.255,0,0,1,15.694-8.621.436.436,0,0,0,0-.871,19.387,19.387,0,0,0-4.706.643,14.832,14.832,0,0,1,3.48-1.314c.546-.13.313-.97-.232-.84a15.643,15.643,0,0,0-6.5,3.312,0,0,0,0,1,0,0,20.032,20.032,0,0,0-8.482,7.24c-.308.478.448.916.752.447m-15.725,26c.063.549.935.558.873,0q-1.121-9.982-2.242-19.968,7.5-3.955,15-7.915c.5-.264.058-1.014-.438-.751q-7.321,3.861-14.642,7.727-1.986-13.226-3.216-26.546-.356-3.848-.644-7.7c-.04-.554-.912-.559-.872,0q1.033,13.688,2.863,27.3.483,3.593,1.024,7.182a145.7,145.7,0,0,1-21.63.21q-3.06-.2-6.111-.532-.919-11.087-1.843-22.171-.269-3.265-.541-6.525c-.045-.554-.917-.559-.873,0q.96,11.557,1.919,23.118.248,2.956.492,5.917-12.059,3-24.113,6.011l-6.245,1.555a202.056,202.056,0,0,1-1.212-24.79q.047-3.587.224-7.169c.027-.558-.845-.558-.872,0a201.463,201.463,0,0,0,.353,25.25c.175,2.265.394,4.527.644,6.784A116.351,116.351,0,0,0,16.233,124.3c-.55-.1-.783.738-.232.84a116.352,116.352,0,0,1,20.668,5.832,175.139,175.139,0,0,0,2.832,20c.112.549.953.317.841-.232a173.2,173.2,0,0,1-2.8-19.784q12.058-3,24.117-6.011,3.275-.818,6.549-1.631a.477.477,0,0,0,.649.067,46.775,46.775,0,0,1,2.009,17.335c-.04.559.832.559.873,0a47.434,47.434,0,0,0-2.062-17.648,146.351,146.351,0,0,0,21.222.616c1.937-.085,3.87-.219,5.8-.38q1.114,9.894,2.223,19.811m-80.046-4.035a25.95,25.95,0,0,0-13.206,2.869c-.5.259-.058,1.01.438.751a25.028,25.028,0,0,1,11.7-2.78c.465.885-.376,1.738-1.047,2.225-.832.6-1.7,1.153-2.564,1.707Q11.54,145.561,8.78,147.1c-.492.273-.049,1.028.439.751q3.214-1.8,6.3-3.817c1.306-.858,3.78-2.23,3.234-4.089a1.01,1.01,0,0,1,.116,0c.569.032.564-.839,0-.866m.716-4.871a21.583,21.583,0,0,0-15.094,1.046c-.51.232-.067.983.439.751a20.665,20.665,0,0,1,14.423-.961.434.434,0,0,0,.232-.835m-8.907-5.953a2.673,2.673,0,0,0,2.313-2.739,4.006,4.006,0,0,0-2.488-3.2A14.242,14.242,0,0,0,4.977,121c-.559-.027-.559.844,0,.871a12.92,12.92,0,0,1,5.225,1.269,3.609,3.609,0,0,1,1.686,1.546,1.85,1.85,0,0,1-.246,2.159c-.9.853-2.47.759-3.7.536a.322.322,0,0,0-.1-.018c-.174-.031-.34-.067-.492-.1a10.331,10.331,0,0,1-4.429-2.221c-.425-.362-1.042.25-.617.617a11.5,11.5,0,0,0,3.333,1.993,8.174,8.174,0,0,0-3.122,1.22,4.877,4.877,0,0,0-2.268,4.071c.022.559.9.563.873,0a4.047,4.047,0,0,1,2.013-3.437,10.3,10.3,0,0,1,4.581-1.274,7.874,7.874,0,0,0,2.966.023M59.193,26.1c9.815-.179,19.9-1.4,28.654-6.145a36.347,36.347,0,0,0,6.347-4.362c.425-.367-.192-.979-.617-.616-7.167,6.154-16.552,8.844-25.795,9.778-2.854.286-5.722.42-8.589.473a.436.436,0,0,0,0,.872m-.64,3.879a88.3,88.3,0,0,0,16.678-1.028c5.154-.666,10.4-1.274,15.2-3.388a20.657,20.657,0,0,0,6.513-4.406c.394-.4-.224-1.019-.617-.617-3.4,3.472-8.039,5.247-12.7,6.239-2.59.55-5.22.885-7.847,1.225-2.662.344-5.324.683-7.995.911a62.976,62.976,0,0,1-9.229.183c-.564-.027-.559.849,0,.881M79.128,82.662a26.718,26.718,0,0,0,5.189,3.119.444.444,0,0,0,.6-.156.436.436,0,0,0-.156-.595,26.954,26.954,0,0,1-4.867-2.887,25.043,25.043,0,0,1,1.843-2.435.5.5,0,0,0,.112-.384.421.421,0,0,0-.206-.443,21.478,21.478,0,0,1-5.068-3.334q.846-2.286,1.7-4.567a.44.44,0,0,0-.3-.536.446.446,0,0,0-.537.3q-.872,2.346-1.74,4.692a.349.349,0,0,0,0,.224.367.367,0,0,0,.121.38,22.343,22.343,0,0,0,5.029,3.41,27.161,27.161,0,0,0-1.83,2.458.366.366,0,0,0-.049.228.427.427,0,0,0,.17.523M107.365,71.53a.1.1,0,0,1-.022.013.444.444,0,0,0,0,.616A21.963,21.963,0,0,1,109.4,74.8a.435.435,0,0,0,.752-.438,24.368,24.368,0,0,0-1.973-2.561q1.732-3.419,3.118-6.99c.2-.523-.64-.751-.841-.232q-1.363,3.5-3.065,6.851a.423.423,0,0,0-.022.1M100.247,79.9q2.973-9.492,5.941-18.98c.17-.536-.676-.764-.841-.232q-2.973,9.492-5.941,18.98c-.17.54.671.768.841.232M82.483,70.815a.337.337,0,0,0-.215.08l.139.559c.125-.031.242-.072.367-.107a.33.33,0,0,0,.058-.183.348.348,0,0,0-.348-.349m-.7-2.248a.318.318,0,0,0-.089.018l.165.662a.341.341,0,0,0,.273-.335.345.345,0,0,0-.349-.344m.7-.728a.349.349,0,1,0,.349.349.349.349,0,0,0-.349-.349m0,1.457a.349.349,0,1,0,.349.349.349.349,0,0,0-.349-.349m-.7-1.488a.349.349,0,1,0-.349-.349.349.349,0,0,0,.349.349m-.635-1.435.134.545a.339.339,0,0,0,.085-.224.344.344,0,0,0-.219-.321m.635-.787a.349.349,0,1,0,.349.349.349.349,0,0,0-.349-.349m1.047-.38V65.2c-.228.076-.438.143-.631.2a.343.343,0,0,0,.631-.188m-.349,1.806a.348.348,0,1,0-.349-.348.349.349,0,0,0,.349.348M83.6,71.087c.193-.067.385-.139.568-.215a.355.355,0,0,0-.228-.089.343.343,0,0,0-.34.3M83.243,69.3a.349.349,0,1,0-.349-.349.349.349,0,0,0,.349.349m1.808,1.139a.349.349,0,0,0-.7,0,.34.34,0,0,0,.17.291c.175-.076.345-.156.515-.241a.183.183,0,0,0,.014-.049m-.761-.759a.349.349,0,1,0-.349.349.349.349,0,0,0,.349-.349m.412-1.109a.349.349,0,1,0,.349.349.349.349,0,0,0-.349-.349m-.76-.759a.349.349,0,1,0,.349.349.349.349,0,0,0-.349-.349m1.458.031a.349.349,0,1,0,.349.349.349.349,0,0,0-.349-.349m-2.156,2.909a.349.349,0,1,0-.349-.349.349.349,0,0,0,.349.349m2.156-.759a.349.349,0,1,0-.349-.349.349.349,0,0,0,.349.349m-2.156-4.367a.349.349,0,1,0,.349.349.349.349,0,0,0-.349-.349M84.7,67.807a.349.349,0,1,0-.349-.349.349.349,0,0,0,.349.349m-.76-.764a.349.349,0,1,0-.349-.349.349.349,0,0,0,.349.349m.76-.759a.349.349,0,1,0-.349-.349.349.349,0,0,0,.349.349m-.76-.76a.349.349,0,1,0-.349-.349.349.349,0,0,0,.349.349m1.458-.661a.349.349,0,1,0,.349.349.349.349,0,0,0-.349-.349m-2.156,2.909a.349.349,0,1,0-.349-.349.349.349,0,0,0,.349.349M85.4,66.314a.349.349,0,1,0,.349.349.349.349,0,0,0-.349-.349m-.7-1.488a.349.349,0,0,0,.349-.349.336.336,0,0,0-.067-.2c-.211.107-.412.206-.608.3a.335.335,0,0,0,.326.25m.778-.8a.359.359,0,0,0,.17-.094l-.17.094m.68,4.576a.349.349,0,1,0,.349.349.35.35,0,0,0-.349-.349m.353,1.046c.152-.1.3-.2.448-.3a.383.383,0,0,0-.1-.022.35.35,0,0,0-.345.322m.756-.729a.344.344,0,0,0,.045.165c.179-.139.358-.277.528-.425a.342.342,0,0,0-.573.259m-.062-.764a.349.349,0,1,0-.349.349.349.349,0,0,0,.349-.349m1.382-.17a.343.343,0,0,0-.277-.143.346.346,0,0,0-.228.608c.175-.152.345-.308.506-.465M86.16,66.314a.349.349,0,1,0-.349-.349.349.349,0,0,0,.349.349m1.807,1.144a.349.349,0,1,0-.349.349.349.349,0,0,0,.349-.349M86.858,66.35a.349.349,0,1,0,.349.349.349.349,0,0,0-.349-.349m.76-.067a.349.349,0,1,0-.349-.349.349.349,0,0,0,.349.349m-.76-1.457a.349.349,0,1,0,.349.349.349.349,0,0,0-.349-.349m1.458.036a.349.349,0,1,0,.349.349.349.349,0,0,0-.349-.349M86.16,67.078a.349.349,0,1,0,.349.349.35.35,0,0,0-.349-.349m2.156-.764a.349.349,0,1,0,.349.349.349.349,0,0,0-.349-.349m-.7-1.488a.349.349,0,1,0-.349-.349.349.349,0,0,0,.349.349m-.76-1.457a.349.349,0,1,0,.349.349.349.349,0,0,0-.349-.349m.76-.063a.346.346,0,0,0,.049-.688c-.13.094-.259.192-.384.277a.273.273,0,0,0-.013.058.35.35,0,0,0,.349.353m.9-1.35q-.262.215-.523.416a.347.347,0,1,0,.523-.416M86.16,64.795a.349.349,0,1,0-.349-.349.349.349,0,0,0,.349.349m2.156-1.457a.349.349,0,1,0,.349.349.349.349,0,0,0-.349-.349m.76,2.283a.349.349,0,1,0,.349.349.349.349,0,0,0-.349-.349m.917.814a.346.346,0,0,0-.573.264.337.337,0,0,0,.134.268c.152-.179.3-.353.439-.532m.193-.5a.316.316,0,0,0,.058.179c.13-.17.255-.34.376-.514a.261.261,0,0,0-.085-.018.355.355,0,0,0-.349.353m-.067-.76a.349.349,0,1,0-.349.349.349.349,0,0,0,.349-.349m.98-.29a.346.346,0,0,0-.22.322v0c.076-.107.152-.215.22-.326m-2.371,2.538a.347.347,0,0,0,.148.277c.161-.161.313-.331.465-.5a.344.344,0,0,0-.264-.13.352.352,0,0,0-.349.348m.349-4.084a.349.349,0,1,0-.349-.349.349.349,0,0,0,.349.349m1.808,1.139a.349.349,0,1,0-.349.349.349.349,0,0,0,.349-.349m-1.11-1.108a.349.349,0,1,0,.349.349.35.35,0,0,0-.349-.349m.76-.063a.349.349,0,1,0-.349-.349.349.349,0,0,0,.349.349m-.76-1.457a.349.349,0,1,0,.349.349.35.35,0,0,0-.349-.349m1.454.031a.349.349,0,1,0,.349.349.349.349,0,0,0-.349-.349m-2.152,2.914a.349.349,0,1,0-.349-.349.349.349,0,0,0,.349.349m2.5-1.109a.349.349,0,1,0-.349.349.349.349,0,0,0,.349-.349M90.186,61.5a.349.349,0,1,0,.349-.349.349.349,0,0,0-.349.349m-.121-.934c-.161.156-.322.313-.478.46a.335.335,0,0,0,.183.063.349.349,0,0,0,.349-.349.342.342,0,0,0-.054-.174m.819-.585a.337.337,0,0,0-.063-.188c-.152.165-.309.326-.461.482a.34.34,0,0,0,.524-.295m.613-.948c-.148.174-.3.344-.448.51a.331.331,0,0,0,.184.058.349.349,0,0,0,.349-.349.379.379,0,0,0-.085-.219M89.426,61.47a.351.351,0,0,0-.085-.219c-.174.156-.344.308-.519.455a.348.348,0,0,0,.6-.236m1.8-1.109a.349.349,0,1,0,.349.349.349.349,0,0,0-.349-.349m.416,2.628a.349.349,0,0,0,.349.349H92c.093-.183.183-.362.273-.545a.341.341,0,0,0-.282-.152.349.349,0,0,0-.349.349m1.064-1.135c-.009,0-.013,0-.022,0a.348.348,0,0,0-.246.595q.141-.3.268-.59m-.716-1.493a.349.349,0,1,0-.349-.349.349.349,0,0,0,.349.349m1.043.38a.349.349,0,1,0-.349.349.349.349,0,0,0,.349-.349m.067-.759a.351.351,0,0,0,.228.326c.08-.219.156-.438.228-.653a.307.307,0,0,0-.107-.022.346.346,0,0,0-.349.349m-.416-1.109a.349.349,0,1,0,.349.349.349.349,0,0,0-.349-.349m-.693,2.248a.349.349,0,1,0,.349.349.349.349,0,0,0-.349-.349m1.8-2.6a.349.349,0,1,0-.349.349.349.349,0,0,0,.349-.349m-1.034-1.09c-.125.17-.25.335-.371.5a.343.343,0,0,0,.3.183.349.349,0,0,0,.349-.349.345.345,0,0,0-.278-.335m.684-.777a.35.35,0,0,0-.179.054c-.054.076-.107.161-.161.237a.222.222,0,0,0-.013.058.349.349,0,0,0,.7,0,.34.34,0,0,0-.345-.349m1.038-.438a.342.342,0,0,0-.336-.291.349.349,0,1,0,.287.536c.013-.085.031-.165.049-.246m-2.147,2.275a.341.341,0,0,0-.166-.291c-.143.183-.286.362-.429.531a.352.352,0,0,0,.246.1.34.34,0,0,0,.349-.344m1.7-.434c.063-.228.121-.447.174-.662a.356.356,0,0,0-.067-.013.349.349,0,0,0-.349.349.337.337,0,0,0,.241.326m.3-3.021a.35.35,0,0,0,.152-.259c-.054.085-.1.174-.152.259m.469-.814c-.027.045-.049.085-.076.13a.232.232,0,0,0,.058.027c.009-.1.018-.156.018-.156m-.148,1.046a.352.352,0,0,0-.1.246.3.3,0,0,0,.036.143q.034-.208.067-.389m7.216-19.239c.009.107.022.215.031.322a.191.191,0,0,0,.04.058l.456-.518a.342.342,0,0,0-.206-.076.354.354,0,0,0-.322.214m.743-.38.447-.5a.334.334,0,0,0-.174-.054.343.343,0,0,0-.273.558m-.425-.59a.349.349,0,1,0-.349-.349.35.35,0,0,0,.349.349m0-1.519a.349.349,0,1,0-.349-.349.35.35,0,0,0,.349.349m.7-.729a.349.349,0,1,0-.349-.349.349.349,0,0,0,.349.349m0,1.457a.349.349,0,1,0-.349-.349.349.349,0,0,0,.349.349m-.7-2.186a.349.349,0,1,0-.349-.349.35.35,0,0,0,.349.349m-.76-.759a.349.349,0,0,0,.349-.349.34.34,0,0,0-.17-.291,5.877,5.877,0,0,0-.474.469.353.353,0,0,0,.3.17m1.11-1.108a.336.336,0,0,0-.067-.2c-.206.139-.394.273-.555.4a.341.341,0,0,0,.273.143.35.35,0,0,0,.349-.349m.68-.63c-.148.076-.287.152-.421.232a.318.318,0,0,0,.089.018.351.351,0,0,0,.331-.25m-.331,1.707a.349.349,0,1,0-.349-.349.349.349,0,0,0,.349.349m.76,2.279a.349.349,0,1,0-.349-.349.349.349,0,0,0,.349.349m.372.487.389-.442a.313.313,0,0,0-.063-.013.349.349,0,0,0-.349.349.307.307,0,0,0,.022.107M105.1,32.85a.345.345,0,0,0-.331.344c0,.009,0,.018,0,.027Zm-.743-.067a.349.349,0,1,0-.349-.349.35.35,0,0,0,.349.349m1.119-.358.259-.291a.338.338,0,0,0-.259.291m-1.7,1.931a.311.311,0,0,0-.112-.022.349.349,0,0,0-.349.349.346.346,0,0,0,.036.152Zm-.112-3.759a.349.349,0,1,0-.349-.349.349.349,0,0,0,.349.349m1.458,1.488a.349.349,0,1,0-.349-.349.349.349,0,0,0,.349.349m-.76-.759a.349.349,0,1,0-.349-.349.35.35,0,0,0,.349.349m.76-.76a.349.349,0,1,0-.349-.349.349.349,0,0,0,.349.349m-.76-.759a.349.349,0,0,0,0-.7c-.063.022-.134.04-.2.063a.34.34,0,0,0-.156.282.35.35,0,0,0,.349.353m1.458.031a.349.349,0,1,0-.349-.349.349.349,0,0,0,.349.349m-2.156,2.216a.349.349,0,1,0-.349-.349.349.349,0,0,0,.349.349m2.505-1.108a.349.349,0,1,0-.349.349.35.35,0,0,0,.349-.349m-1.047-1.837a.345.345,0,0,0,.336-.282c-.211.04-.416.085-.613.139a.362.362,0,0,0,.277.143m1.458,1.488a.349.349,0,1,0-.349-.349.349.349,0,0,0,.349.349m.7-.791a.349.349,0,1,0-.349-.349.349.349,0,0,0,.349.349m.761-.7a.346.346,0,0,0,.34-.3c-.228-.036-.46-.072-.68-.089,0,.013-.009.022-.009.036a.349.349,0,0,0,.349.349m-1.459-.031a.349.349,0,0,0,.349-.349.13.13,0,0,0-.009-.04,6.887,6.887,0,0,0-.689.036v0a.349.349,0,0,0,.349.349M53.319,44.72a.349.349,0,1,0-.349-.349.349.349,0,0,0,.349.349m-.7-.729a.349.349,0,0,0,.322-.215,5.575,5.575,0,0,1-.631-.286.34.34,0,0,0,.308.5m-.76-.759h.009c-.112-.072-.224-.152-.335-.237a.348.348,0,0,0,.326.237m2.219,2.248a.349.349,0,1,0-.349-.349.349.349,0,0,0,.349.349m1.459.791a.383.383,0,0,0-.121.022c.134.054.277.107.42.156a.348.348,0,0,0-.3-.179m-.761-.76a.344.344,0,0,0-.34.308c.183.1.371.2.573.3a.335.335,0,0,0,.116-.255.349.349,0,0,0-.349-.349m.761-.063a.349.349,0,1,0-.349-.349.349.349,0,0,0,.349.349m-.761-.759a.349.349,0,0,0,.349-.349.357.357,0,0,0-.1-.241,4.6,4.6,0,0,1-.5,0,.344.344,0,0,0-.1.246.349.349,0,0,0,.349.349m1.459.031a.349.349,0,1,0-.349-.349.349.349,0,0,0,.349.349m0,.759a.349.349,0,1,0,.349.349.349.349,0,0,0-.349-.349m.76,0a.349.349,0,1,0-.349-.349.349.349,0,0,0,.349.349m1.3,1.448.3.013a.343.343,0,0,0,.211-.317.349.349,0,0,0-.7,0,.355.355,0,0,0,.192.3m-.6-1.417a.349.349,0,1,0,.349.349.349.349,0,0,0-.349-.349m.76-.063a.349.349,0,1,0-.349-.349.349.349,0,0,0,.349.349m-.76-.759a.349.349,0,1,0-.349-.349.349.349,0,0,0,.349.349m1.458-.666a.349.349,0,1,0,.349.349.349.349,0,0,0-.349-.349m-1.9,2.789a.339.339,0,0,0,.085-.224.349.349,0,0,0-.7,0,.307.307,0,0,0,.022.107c.192.045.389.085.591.116m1.9-1.332a.349.349,0,1,0,.349.349.349.349,0,0,0-.349-.349m-.7-1.488a.349.349,0,1,0-.349-.349.349.349,0,0,0,.349.349m-1.11-.379a.084.084,0,0,0-.009-.036c-.2.08-.411.156-.631.224a.347.347,0,0,0,.287.161.351.351,0,0,0,.353-.349m1.924-1.086c-.134.094-.286.192-.46.3,0,.009,0,.013,0,.022a.349.349,0,1,0,.465-.326m.644,2.257a.349.349,0,1,0,.349.349.349.349,0,0,0-.349-.349m.7,1.426a.261.261,0,0,0,.085-.018c-.063-.228-.121-.447-.179-.662a.345.345,0,0,0-.26.331.356.356,0,0,0,.354.349m-.7.031a.349.349,0,0,0-.349.349.345.345,0,0,0,.2.313c.116-.009.232-.022.353-.036a.347.347,0,0,0,.148-.277.356.356,0,0,0-.353-.349m-.076-3.75c-.04-.224-.058-.344-.058-.344s-.067.058-.188.148a.358.358,0,0,0,.246.2m.076,1.47a.332.332,0,0,0,.206-.076c-.049-.219-.094-.42-.13-.6a.426.426,0,0,0-.08-.018.349.349,0,0,0-.349.349.355.355,0,0,0,.353.348m19.514-.531a1.49,1.49,0,1,0,1.49-1.488,1.489,1.489,0,0,0-1.49,1.488M68.082,48.385a1.443,1.443,0,1,0-1.445-1.443,1.447,1.447,0,0,0,1.445,1.443m27.079-8.6A1.736,1.736,0,0,1,95.3,40a2.714,2.714,0,0,1,.21.464,7.683,7.683,0,0,1,.291,1.229.44.44,0,0,0,.537.3.445.445,0,0,0,.3-.536,4.612,4.612,0,0,0-1.064-2.538,2.292,2.292,0,0,0-1.584-.693,1.975,1.975,0,0,1,2.389-.97.44.44,0,0,0,.536-.3.448.448,0,0,0-.3-.536,2.865,2.865,0,0,0-3.467,1.537,4.155,4.155,0,0,0-.26.7.452.452,0,0,0-.049.2,6.73,6.73,0,0,0,.372,3.616c.179.527,1.02.3.841-.232a6.148,6.148,0,0,1-.394-3.1s.009,0,.018,0c.045-.013.089-.022.134-.036.067-.018,0,0,.045-.009a1.679,1.679,0,0,1,.26,0h.036a.2.2,0,0,1,.036.009c.045.009.094.018.139.031a1.464,1.464,0,0,1,.734.5.7.7,0,0,1,.072.089c-.044-.04.036.067.036.067M84.916,51.446a8.391,8.391,0,0,1-4.939,5.841.45.45,0,0,0-.3.536.439.439,0,0,0,.537.3,9.287,9.287,0,0,0,5.547-6.453c.125-.541-.716-.773-.841-.228M72.623,40.836a40.722,40.722,0,0,0-.555,10.4c.1,1.3.55,2.485,1.964,2.757a6.563,6.563,0,0,0,4.259-.862c.492-.273.054-1.024-.438-.751a5.407,5.407,0,0,1-3.839.715C72.708,52.71,72.9,50.8,72.86,49.743a40.79,40.79,0,0,1,.608-8.67c.094-.554-.747-.791-.846-.237m10.361-4.724a1.372,1.372,0,0,0-1.342-1.341c-.962-.054-1.924-.134-2.876-.25l-.336-.04c-.027,0-.049,0-.076-.009s-.04,0-.076-.009c-.224-.031-.447-.063-.671-.1-.483-.076-.971-.161-1.449-.25a1.371,1.371,0,0,0-1.651.939,1.357,1.357,0,0,0,.939,1.649,47.528,47.528,0,0,0,6.2.759,1.364,1.364,0,0,0,1.338-1.35M67.309,37.748a1.364,1.364,0,0,0-1.834-.482,14.283,14.283,0,0,0-4.5,4.455,1.348,1.348,0,0,0,.483,1.832,1.37,1.37,0,0,0,1.834-.482c.188-.3.389-.577.6-.854a12.942,12.942,0,0,1,2.013-2c.3-.224.613-.442.93-.639a1.349,1.349,0,0,0,.479-1.828m42.844,123.569a5.677,5.677,0,1,0-5.677,5.671,5.674,5.674,0,0,0,5.677-5.671m4.625-21.147,1.262,6.1.322,2.087c.98-3.325.729-8.772.729-8.772l-.474.121ZM84.952,31.6s1.324,5.38,5.4,7.785c0,0-.908-5.05,2.576-6.163s8.679,3.687,6.08,8.406-3.534,4.205-3.534,4.205l6.608,10.713s.474-10.641-.058-18.641c-.031-.5-.072-.979-.112-1.452-.085-.974-.188-1.89-.313-2.726.022.161.049.317.072.482a.347.347,0,0,0,.112-.255.351.351,0,0,0-.192-.308c-.045-.3-.094-.59-.143-.867a.343.343,0,0,0,.335-.344.349.349,0,0,0-.349-.349.3.3,0,0,0-.125.027c-.072-.317-.143-.621-.224-.894,0,0-2.845,2.074-5.453.536S89.18,27.067,84.952,31.6m-2.1,111.243,3.3.25-.317,8.781a3.536,3.536,0,0,0-1.888,2.583Z" transform="translate(-0.124 -7.481)" fill="#4a2113"/>
        </g>
      </g>
    </g>
  </g>
</svg>
