<svg xmlns="http://www.w3.org/2000/svg" xmlns:xlink="http://www.w3.org/1999/xlink" width="83.499" height="94.918" viewBox="0 0 83.499 94.918">
  <defs>
    <clipPath id="clip-path">
      <rect id="Rectángulo_456684" data-name="Rectángulo 456684" width="83.499" height="84.288" fill="#eaefe5"/>
    </clipPath>
    <clipPath id="clip-path-2">
      <rect id="Rectángulo_458540" data-name="Rectángulo 458540" width="56.588" height="81.62" fill="none"/>
    </clipPath>
    <clipPath id="clip-path-4">
      <rect id="Rectángulo_458538" data-name="Rectángulo 458538" width="52.493" height="74.54" fill="none"/>
    </clipPath>
  </defs>
  <g id="Grupo_1208310" data-name="Grupo 1208310" transform="translate(-232.212 -7719.37)">
    <g id="Grupo_1207284" data-name="Grupo 1207284" transform="translate(232.212 7730)">
      <g id="Grupo_1206514" data-name="Grupo 1206514">
        <g id="Grupo_1206513" data-name="Grupo 1206513" clip-path="url(#clip-path)">
          <path id="Trazado_1294880" data-name="Trazado 1294880" d="M176.031,89.78c-.1-.657-.543-.29-.44-.308-.025.39.368.25.44.308" transform="translate(-92.532 -47.108)" fill="#eaefe5"/>
          <path id="Trazado_1294881" data-name="Trazado 1294881" d="M172.186,75.475l.179.085-.554-.848Z" transform="translate(-90.548 -39.375)" fill="#eaefe5"/>
          <path id="Trazado_1294882" data-name="Trazado 1294882" d="M170.225,67.512l.637.345c-.193-.615-.445-1.313-.706-1.954a6.487,6.487,0,0,1-.514-1.7c-.5.727.717,2.011.694,3.106Z" transform="translate(-89.342 -33.837)" fill="#eaefe5"/>
          <path id="Trazado_1294883" data-name="Trazado 1294883" d="M170.37,57.373c-.052-.121-.118-.29-.213-.584-.17.284-.468-.57.2.735a1.123,1.123,0,0,1,.012-.151" transform="translate(-89.563 -29.921)" fill="#eaefe5"/>
          <path id="Trazado_1294884" data-name="Trazado 1294884" d="M170.847,57.9c.253.592.052-.471,0,0" transform="translate(-90.04 -30.451)" fill="#eaefe5"/>
          <path id="Trazado_1294885" data-name="Trazado 1294885" d="M168.683,51.778c-.478-.744-.541-.509-.569.047l.562.674c.07-.224-.211-.93.007-.72" transform="translate(-88.6 -27.041)" fill="#eaefe5"/>
          <path id="Trazado_1294886" data-name="Trazado 1294886" d="M166.736,51.676c.027-.1,0-.213-.278-.346l.143.171.135.175" transform="translate(-87.727 -27.052)" fill="#eaefe5"/>
          <path id="Trazado_1294887" data-name="Trazado 1294887" d="M167.2,52.413c-.212.016.036.1.327.4l-.57-.75c-.048.158-.242.261.243.352" transform="translate(-87.949 -27.437)" fill="#eaefe5"/>
          <path id="Trazado_1294888" data-name="Trazado 1294888" d="M168.13,54.74c.065.485.194,1.08-.338.4.674,1.434,1.048,1.043.338-.4" transform="translate(-88.43 -28.849)" fill="#eaefe5"/>
          <path id="Trazado_1294889" data-name="Trazado 1294889" d="M168.51,65.112a1.766,1.766,0,0,1-.162-.655c-.042-.252-.1-.462-.19-.412l0,.315c0,.157-.009.317-.009.317Z" transform="translate(-88.619 -33.749)" fill="#eaefe5"/>
          <path id="Trazado_1294890" data-name="Trazado 1294890" d="M163.28,43.3c-.066-.332-.324-.887-.166-1.038-.15.032-.171.443-.294.591,0,0,.121.107.234.22l.226.227" transform="translate(-85.81 -22.272)" fill="#eaefe5"/>
          <path id="Trazado_1294891" data-name="Trazado 1294891" d="M162.031,42.789l-.707-.646c.42.708.6.773.707.646" transform="translate(-85.021 -22.21)" fill="#eaefe5"/>
          <path id="Trazado_1294892" data-name="Trazado 1294892" d="M165.3,52.028l.544.575-.607-.7c-.148-.177-.313-.344-.431-.471l-.2-.21.136.252s.292.271.557.559" transform="translate(-86.751 -26.993)" fill="#eaefe5"/>
          <path id="Trazado_1294893" data-name="Trazado 1294893" d="M159.339,35.963l-.479-.239-.493-.221.392.224Z" transform="translate(-83.464 -18.711)" fill="#eaefe5"/>
          <path id="Trazado_1294894" data-name="Trazado 1294894" d="M154.746,30.5c.47.123,0-.712.4-.5a4.949,4.949,0,0,0-1.5-.957,3.3,3.3,0,0,1,1.094,1.461" transform="translate(-80.978 -15.302)" fill="#eaefe5"/>
          <path id="Trazado_1294895" data-name="Trazado 1294895" d="M151.959,28.207a6.326,6.326,0,0,0,.8.392,3.027,3.027,0,0,0-.8-.392" transform="translate(-80.086 -14.866)" fill="#eaefe5"/>
          <path id="Trazado_1294896" data-name="Trazado 1294896" d="M159.279,37.542l-.117.533.206.3a1,1,0,0,0-.089-.833" transform="translate(-83.882 -19.785)" fill="#eaefe5"/>
          <path id="Trazado_1294897" data-name="Trazado 1294897" d="M158.677,37.942l-.437-.652.433.67Z" transform="translate(-83.396 -19.653)" fill="#eaefe5"/>
          <path id="Trazado_1294898" data-name="Trazado 1294898" d="M159.642,39.379l-.052-.076c-.012.052-.011.076.052.076" transform="translate(-84.104 -20.714)" fill="#eaefe5"/>
          <path id="Trazado_1294899" data-name="Trazado 1294899" d="M161.079,46.152c.429.19.291-.443.987.085-.465-.357-1.221-1.182-.987-.085" transform="translate(-84.869 -24.034)" fill="#eaefe5"/>
          <path id="Trazado_1294900" data-name="Trazado 1294900" d="M159.375,40.841s.121.21.229.429l.222.432c.079-.074.115-.307.353-.143l-.4-.363c-.2-.183-.4-.355-.4-.355" transform="translate(-83.994 -21.524)" fill="#eaefe5"/>
          <path id="Trazado_1294901" data-name="Trazado 1294901" d="M158.572,40.179l.38.313-.18-.312Z" transform="translate(-83.571 -21.175)" fill="#eaefe5"/>
          <path id="Trazado_1294902" data-name="Trazado 1294902" d="M152.547,30.385a5.37,5.37,0,0,1-1.11-.9c.335.453.68.918,1.038,1.334.146-.026.478.01.072-.437" transform="translate(-79.811 -15.541)" fill="#eaefe5"/>
          <path id="Trazado_1294903" data-name="Trazado 1294903" d="M156.346,34.859l-.076-.06c.009.067.029.11.076.06" transform="translate(-82.358 -18.34)" fill="#eaefe5"/>
          <path id="Trazado_1294904" data-name="Trazado 1294904" d="M143.543,22.024l.015.11.06-.041Z" transform="translate(-75.65 -11.607)" fill="#eaefe5"/>
          <path id="Trazado_1294905" data-name="Trazado 1294905" d="M153.566,32.427a1.273,1.273,0,0,0,.706.594,8.444,8.444,0,0,1-.71-.714c-.066.011-.1.031,0,.12" transform="translate(-80.898 -17.027)" fill="#eaefe5"/>
          <path id="Trazado_1294906" data-name="Trazado 1294906" d="M149.529,26.293c.1.211.231.437.362.675-.052-.249-.23-.7-.362-.675" transform="translate(-78.805 -13.857)" fill="#eaefe5"/>
          <path id="Trazado_1294907" data-name="Trazado 1294907" d="M156.268,34.333c.018.013.035.023.053.038-.018-.163-.04-.123-.053-.038" transform="translate(-82.357 -18.055)" fill="#eaefe5"/>
          <path id="Trazado_1294908" data-name="Trazado 1294908" d="M155.669,34.1a2.554,2.554,0,0,0-.537-.283,4.675,4.675,0,0,0,.538.464.631.631,0,0,1,0-.182" transform="translate(-81.758 -17.822)" fill="#eaefe5"/>
          <path id="Trazado_1294909" data-name="Trazado 1294909" d="M144.921,23.242l.218.215L145,23.4l.319.24a5.516,5.516,0,0,1-.688-1.3c-.626-.3-.818-.281-.933-.216l.724.66.5.455" transform="translate(-75.734 -11.64)" fill="#eaefe5"/>
          <path id="Trazado_1294910" data-name="Trazado 1294910" d="M148.409,26.619c-.5.052-1.309-.457-1.2.25.831.778.8.331,1.408.7-1.357-1.277.535.232-.232-.908a7.49,7.49,0,0,1,.779.661c-.2-.28-.38-.559-.54-.836l.012.049.007.005-.006,0c.02.095.017.136-.026.049a.14.14,0,0,1-.034-.023.4.4,0,0,1-.168.046c-.317-.454.016-.137.168-.046a.288.288,0,0,0,.059-.026v-.009s-.364-.306-.751-.587l-.76-.57a12,12,0,0,0,1.282,1.24" transform="translate(-77.539 -13.375)" fill="#eaefe5"/>
          <path id="Trazado_1294911" data-name="Trazado 1294911" d="M158.426,45.8a.1.1,0,0,1,.05-.1c-.105-.071-.158-.09-.05.1" transform="translate(-83.463 -24.057)" fill="#eaefe5"/>
          <path id="Trazado_1294912" data-name="Trazado 1294912" d="M158.718,41.72l.045-.1c-.024-.016-.039.022-.045.1" transform="translate(-83.648 -21.935)" fill="#eaefe5"/>
          <path id="Trazado_1294913" data-name="Trazado 1294913" d="M158.6,43.5c.1.377-.167.1-.27.188.231.156.726.614.467-.179l-.116-.079a4.7,4.7,0,0,1-.295-1.6,3.017,3.017,0,0,0-.3,1.2.9.9,0,0,1,.511.468" transform="translate(-83.317 -22.046)" fill="#eaefe5"/>
          <path id="Trazado_1294914" data-name="Trazado 1294914" d="M152.383,34.4l-.576-.512.237.813.137-.166c.488.717.562.417.76.4l-.172-.168c-.1-.1-.239-.236-.386-.363" transform="translate(-80.006 -17.862)" fill="#eaefe5"/>
          <path id="Trazado_1294915" data-name="Trazado 1294915" d="M143.225,20.921s-.269-.038-.547-.058l-.549-.045.662.3Z" transform="translate(-74.905 -10.971)" fill="#eaefe5"/>
          <path id="Trazado_1294916" data-name="Trazado 1294916" d="M140.013,18.161s-.142-.038-.288-.07l-.288-.067.291.391Z" transform="translate(-73.486 -9.499)" fill="#eaefe5"/>
          <path id="Trazado_1294917" data-name="Trazado 1294917" d="M36.923,14.889l.4.229a2.545,2.545,0,0,1,.993-.564c-.751.065-1.7.029-1.395.335" transform="translate(-19.429 -7.67)" fill="#eaefe5"/>
          <path id="Trazado_1294918" data-name="Trazado 1294918" d="M97.814,1.9A6.493,6.493,0,0,0,96.4,1.472c.674.322,1.18.744,1.411.429" transform="translate(-50.807 -0.776)" fill="#eaefe5"/>
          <path id="Trazado_1294919" data-name="Trazado 1294919" d="M9.262,132.842c.2.209.338.271.413.219-.2-.215-.355-.32-.413-.219" transform="translate(-4.881 -69.99)" fill="#eaefe5"/>
          <path id="Trazado_1294920" data-name="Trazado 1294920" d="M94.53,1.179a2.063,2.063,0,0,0-1.68-.14c.1.049.2.078.3.12a5.309,5.309,0,0,1,1.38.019" transform="translate(-48.934 -0.484)" fill="#eaefe5"/>
          <path id="Trazado_1294921" data-name="Trazado 1294921" d="M173.616,102.7a2.579,2.579,0,0,0,.068-.782c0,.19-.037.494-.068.782" transform="translate(-91.5 -53.713)" fill="#eaefe5"/>
          <path id="Trazado_1294922" data-name="Trazado 1294922" d="M125.312,9.49c.405.166.084-.015,0,0" transform="translate(-66.042 -5.001)" fill="#eaefe5"/>
          <path id="Trazado_1294923" data-name="Trazado 1294923" d="M127.409,14.545a.27.27,0,0,0-.244.1.342.342,0,0,1,.244-.1" transform="translate(-67.019 -7.666)" fill="#eaefe5"/>
          <path id="Trazado_1294924" data-name="Trazado 1294924" d="M125.886,10.062a3.56,3.56,0,0,0-.443-.362,4.15,4.15,0,0,0,.443.362" transform="translate(-66.111 -5.112)" fill="#eaefe5"/>
          <path id="Trazado_1294925" data-name="Trazado 1294925" d="M126.395,10.014l.322.21c.08-.036.056-.1-.322-.21" transform="translate(-66.613 -5.278)" fill="#eaefe5"/>
          <path id="Trazado_1294926" data-name="Trazado 1294926" d="M124.684,9.233,124.12,9a4.4,4.4,0,0,1,.626.331c-.066-.061-.089-.1-.062-.1" transform="translate(-65.414 -4.744)" fill="#eaefe5"/>
          <path id="Trazado_1294927" data-name="Trazado 1294927" d="M82.116,48.987c-.142.369-.4-.071-.64-.03,0,0,.061-.141.147-.354l.317-.784.317-.793c.087-.218.132-.365.132-.365-.295-.249-.257-.886-.218-1.5s.031-1.211-.257-1.343l.088.756c-.342-.516-.736-.175-1.174.245l-.135.127c.042-.752.069-1.508.069-2.271A39.608,39.608,0,0,0,68.242,13.735a.326.326,0,0,0,.077.042l.12-.179c-.357-.324-.7-.47-.557-.207-.315-.289-.639-.567-.963-.846.805.269,1.167-.98.99-2.018-.13.111-.216.207-1.107-.207.155.351,1.3,1.717.482,1.455-1.059-.66-.7-.74-1.048-1.281.1.6-1.285-.2-1.733.125a39.685,39.685,0,0,0-6.3-3.788c.065-.032.089-.085.031-.177l-.655-.218c-.411-.636,1.426.023.708-.513A11,11,0,0,1,59.84,6.2a5.093,5.093,0,0,1,.825.291,4.32,4.32,0,0,1,.8.526l-.074.626c.062-.159-.578-.732-.987-.76.3.022.648.449,1.022.817s.776.694,1.229.54l-.285-.421c-.14-.215-.3-.411-.3-.411.489.107,1.049.22,1.622.381a3.538,3.538,0,0,1,1.564.844c-.12-.786-.257-.107-.587-1.154.168,1.093-2.6-1.7-2.049-.315a2.092,2.092,0,0,0-.793-1.082,4.546,4.546,0,0,1-1.055-1.1c-.056.186.2.511-.67-.038a1.034,1.034,0,0,1-.275.049l-.055-.044.04.046c-.052.006-.058.009.015.017a1.149,1.149,0,0,1,.328.495,3.043,3.043,0,0,1-1.345-.222A7.307,7.307,0,0,0,57.5,4.964c-.5-.327.313-.1.1-.42l-.434-.009-.438.009c.095-.42-1.22-1.24.194-.95l-1.187-.488a4.616,4.616,0,0,0-2.261-.931c-.561-.256-1.6.034-1-.143l-1-.143-1.007-.1.006-.107a17.735,17.735,0,0,0-3.04-.353A9.4,9.4,0,0,1,44.217.676c-.337.029-.678.06-1.072.066a7.39,7.39,0,0,1-1.4-.062L41.535.307A11.281,11.281,0,0,1,39.871.236c-.587-.044-1.116-.064-1.289.15a1.79,1.79,0,0,0-1.1-.371,6.071,6.071,0,0,0-1.573.11c-.558.1-1.132.2-1.656.332a8.841,8.841,0,0,1-1.389.252l.035.481a8.512,8.512,0,0,0-1.519.4c-.257.088-.519.184-.793.288s-.55.241-.846.373l.189.387a5.719,5.719,0,0,1-1.951.577c-.389.071-.8.141-1.22.231a8.335,8.335,0,0,0-1.231.4c.05-.194.479-.317.8-.341a3.584,3.584,0,0,0-1.6.3,8.8,8.8,0,0,0-1.4.856c-.452.306-.867.661-1.306.929a3.99,3.99,0,0,1-1.383.558,1.7,1.7,0,0,1-.992.565.332.332,0,0,0,.09-.078,1.877,1.877,0,0,0-.17.092,5.72,5.72,0,0,0-.677.15,3.325,3.325,0,0,0,.587-.1,7.771,7.771,0,0,0-1.137.918L17.9,7.448c-.034.029-.064.047-.1.079-.543.149-.238.409.189.542a2.564,2.564,0,0,0-.428.628c-.768-.345-1,.992-1.924.737-.027.264-.514.738-.955,1.244a2.428,2.428,0,0,0-.671,1.3A2.75,2.75,0,0,0,12.8,13.149l-.583-.244-.2.725-.166.736c-.788.315-1.172.421-.952-.456a14.393,14.393,0,0,1-.789,1.556,5.382,5.382,0,0,0-.589,1.4l-.242-.3c-.345.462-.508,1.481-.965,1.562a9.587,9.587,0,0,0-2.6,3.13c-.957,1.575-1.937,3.413-2.89,4.811.639-.07.361.225.032.607s-.706.861-.331,1.076c-.313.084-.622.467-.636-.118a10.7,10.7,0,0,1-.714,1.946A2.292,2.292,0,0,0,1,31.277c-.306.117-.268-.456-.464-.332.016.149.07.585-.129.716s-.143-.3-.177-.594A3.389,3.389,0,0,0,.1,32.119a1.447,1.447,0,0,0,.227.67,1.932,1.932,0,0,0,.946.647,2.188,2.188,0,0,0-.455.974,1.66,1.66,0,0,0,.253.932c-.295.248-.639.705-.538-.361l-.207.8-.141.586c-.038.207-.072.421-.1.632-.117.843-.151,1.628.161,1.688-.167.172-.108.829-.051.989-.072.665-.118,1.027-.131,1.388s-.029.718-.017,1.375l.108-.363c.7.523.16,1.082.274,2.135l-.076-.027a5.153,5.153,0,0,0-.128,1.228,1.754,1.754,0,0,0,.084.5,1.516,1.516,0,0,1,.07.5c-.007.246-.034.611-.1,1.224l.434-.183c.5.054.421.582.289,1.278a3.944,3.944,0,0,0,.058,2.2l.164-.541c.22.34.018.911-.241,1.519a4.17,4.17,0,0,0-.52,1.638c-.033.185-.21-.223-.326-.44,0,2.133.645.106,1.188,1.522-.224.361-.893-.113-.641.892-.04.284.444.919.928,1.652a4.538,4.538,0,0,1,1.022,2.3c.1-.381.2-.749.66-.189a11.147,11.147,0,0,1,.532,1.925c.2.7.451,1.368,1.044,1.591.009.151-.022.228-.072.263.3.3.682.85,1.116,1.314a3.512,3.512,0,0,0,1.165.964,1.123,1.123,0,0,0,.168,1.226A6.27,6.27,0,0,0,8.4,67.842a11.4,11.4,0,0,1,1.125,1.09c.262.316.34.6.063.831,0,0,.422.469.861.921l.9.885-.151.055a4.456,4.456,0,0,0,1.351,1.146,3.241,3.241,0,0,0,1.026.327c.212.315-.08.239-.155.275a8.26,8.26,0,0,0,1.759,1.662,7.253,7.253,0,0,0,2.066.783l-.107.5c.295.044.87.691,1.7,1.383.206.176.424.359.656.538s.488.335.746.492a5.624,5.624,0,0,0,1.651.722.379.379,0,0,1-.324.07,19.531,19.531,0,0,1,3.741,1.995c1.191.69,2.3,1.08,3.014.42,0,0,.434.046.875.053l.873.029c-2.056-.722.515-.624-.263-1.14a2.6,2.6,0,0,1,1.162.57c.263.219.294.416-.222.324l-.135-.127c-.61.791,2.549.943,2.375,1.5,2.132.409,4.252.738,6.364.961a32.264,32.264,0,0,0,6.266.061l-.271-.315-.268-.322s.088,0,.22-.014l.483-.047.7-.07c.389.113.573.473-.445.574.587.325,1.653-.543,1.647-.712,2-.073-.633.932-.034.842l.817-.2-.2-.046c.309-.2.463-.375.691-.523a3.258,3.258,0,0,1,1.123-.4c.782-.038.483.327.787.284.009.048.116.047.463-.087,0,0,.112-.018.276-.062l.6-.15.879-.219-.845-.328c.689-.47,1.616-.44.651-.8.707.281,2.329-.151,3.816-.765.748-.294,1.449-.662,2.03-.916a5.6,5.6,0,0,1,1.2-.5,5.7,5.7,0,0,1,.634-.581,7.738,7.738,0,0,1,.683-.518c.479-.326,1.02-.605,1.593-.959-.343.085-.83-.332.171-.885.164.639.7.489,1.327.155a4.182,4.182,0,0,1,2.025-.733c-.518.022.119-.525.683-1.056s1.016-1.092.245-.982c.8-.555.35.324,1.107.063a12.722,12.722,0,0,1,1.243-1.358l1.473-1.318c.254-.227.521-.447.774-.687l.752-.742a11.491,11.491,0,0,0,1.379-1.655c-.1-.136-.6.085-.418-.549l.249-.107c.152-.063.349-.153.541-.247l.781-.38c.259-.526-.464-.957.57-1.515-.2.048-.49.114-.33-.234a22.8,22.8,0,0,0,4.043-7.519c.975-2.726,1.735-5.47,2.948-8.206-.456.72-.394.2-.3-.389M66.805,12.447q-.591-.5-1.2-.985a1.954,1.954,0,0,1,1.2.985m-1.434-1.2c0,.008-.013.012-.021.018l-.088-.069.109.052M54.717,3.032a.207.207,0,0,0-.039.01c-.612-.394-.4-.248.039-.01m-7.35-.421a8.9,8.9,0,0,1,1.372-.117c1.548.1.544.639.829.577a4.941,4.941,0,0,0,1.617.219,4.833,4.833,0,0,0,1.043-.144,2.483,2.483,0,0,1,2.227.439c.736.787-.294.969-.213,1.383a3.752,3.752,0,0,1-1.4-.559,4.552,4.552,0,0,0-1.1-.537l.918.51a2.906,2.906,0,0,1-1.625-.305,1.388,1.388,0,0,0,.364.24,39.54,39.54,0,0,0-5.639-1.086,2.971,2.971,0,0,1,.5-.281,4.967,4.967,0,0,1,1.1-.34m-7.976-.042c-.041.138.1.3.214.409Q39,3,38.4,3.038a2.987,2.987,0,0,1,.993-.469m-8.259.313c.08.007.677.046,1.313.118a6.023,6.023,0,0,1,1.584.348.432.432,0,0,1,.187.189c-.481.083-.962.169-1.437.27l-.178-.7-.02.744c-.469.1-.938.205-1.4.324a2.1,2.1,0,0,1-.047-1.294M23.94,5.327l.44.143.55-.443c.276-.223.565-.423.565-.423-.212.444-.59,1.183-1,1.947q-1,.46-1.974.97A4.684,4.684,0,0,1,23.94,5.327m-9.931,6.651a.519.519,0,0,0,.035.182c-.081-.065-.224-.007-.035-.182M11.824,14.53a1.73,1.73,0,0,0,.614.575c-.236.245-.475.488-.7.739.012-.236.027-.457.041-.649.029-.4.049-.665.049-.665M1.542,33.863c.142-.176.307.035.493.353-.023-.121-.047-.236-.073-.327.14-.211.267-.273.384-.246-.061.265-.127.527-.184.794l-.127-.221c.028.129.053.271.082.417-.025.119-.043.241-.066.361a6.136,6.136,0,0,0-.517.572s-.006-.426-.013-.852.021-.851.021-.851M50.988,83.021l-.3-.052c.588-.271.444-.115.3.052" transform="translate(0 0)" fill="#eaefe5"/>
          <path id="Trazado_1294928" data-name="Trazado 1294928" d="M132.726,13.455c.034-.089-.017-.273.137-.219-.081-.04-.211-.1-.351-.158l-.442-.186a1.64,1.64,0,0,1,.656.562" transform="translate(-69.604 -6.795)" fill="#eaefe5"/>
          <path id="Trazado_1294929" data-name="Trazado 1294929" d="M133.841,13.665a.437.437,0,0,1,.039.02l-.039-.02" transform="translate(-70.537 -7.202)" fill="#eaefe5"/>
          <path id="Trazado_1294930" data-name="Trazado 1294930" d="M133.747,13.619l.044.021a.455.455,0,0,0-.044-.021" transform="translate(-70.488 -7.178)" fill="#eaefe5"/>
          <path id="Trazado_1294931" data-name="Trazado 1294931" d="M133.723,17.4c-.153.37.415.542.97.865a.753.753,0,0,1-.092-.065c.462-.335-.2-.59-.877-.8" transform="translate(-70.462 -9.172)" fill="#eaefe5"/>
          <path id="Trazado_1294932" data-name="Trazado 1294932" d="M136.561,19.726c.187-.131-.17-.176-.488-.335a3.2,3.2,0,0,1,.488.335" transform="translate(-71.714 -10.219)" fill="#eaefe5"/>
          <path id="Trazado_1294933" data-name="Trazado 1294933" d="M121.658,8.44c.244.219.377-.368.476-.152.515-.312-2.145-.306-.476.152" transform="translate(-63.823 -4.254)" fill="#eaefe5"/>
          <path id="Trazado_1294934" data-name="Trazado 1294934" d="M132.715,19.648l.072-.516-.5.131Z" transform="translate(-69.716 -10.083)" fill="#eaefe5"/>
          <path id="Trazado_1294935" data-name="Trazado 1294935" d="M124.531,14.335l.831.573c.024-.077.159-.06.315-.02-.543-.3-1.106-.69-1.147-.553" transform="translate(-65.631 -7.54)" fill="#eaefe5"/>
          <path id="Trazado_1294936" data-name="Trazado 1294936" d="M127.7,15.866a4.167,4.167,0,0,0-.742-.33,2.357,2.357,0,0,0,.742.33" transform="translate(-66.909 -8.188)" fill="#eaefe5"/>
          <path id="Trazado_1294937" data-name="Trazado 1294937" d="M101.214,7.035c.277-.066.689-.056.553-.239l-1.1-.059c-.136.141.14.291.55.3" transform="translate(-53.034 -3.551)" fill="#eaefe5"/>
          <path id="Trazado_1294938" data-name="Trazado 1294938" d="M175.384,94.348s.072-.215.124-.432l.112-.435-.339.551Z" transform="translate(-92.377 -49.267)" fill="#eaefe5"/>
          <path id="Trazado_1294939" data-name="Trazado 1294939" d="M174.723,90.743l-.543-.524c.023.194.066.574-.076.719Z" transform="translate(-91.757 -47.547)" fill="#eaefe5"/>
        </g>
      </g>
    </g>
    <g id="Grupo_1207968" data-name="Grupo 1207968" transform="translate(247.643 7719.37)">
      <g id="Grupo_1207967" data-name="Grupo 1207967" clip-path="url(#clip-path-2)">
        <g id="Grupo_1207966" data-name="Grupo 1207966">
          <g id="Grupo_1207965" data-name="Grupo 1207965" clip-path="url(#clip-path-2)">
            <path id="Trazado_1403468" data-name="Trazado 1403468" d="M65.847,142.132a4.437,4.437,0,0,0-3.142-1.42,4.809,4.809,0,0,0-3.194.081,7.351,7.351,0,0,0-1.025.5,1.079,1.079,0,0,0-.536.069,4.117,4.117,0,0,0-2.454,2.455q-.143.15-.283.3c-2.5,2.686-4.9,5.466-7.345,8.2L43.684,157a1.659,1.659,0,0,0-.367.691q-3.267,3.417-6.372,6.984-1.554,1.786-3.065,3.609a1.173,1.173,0,0,0-.831.2,20.582,20.582,0,0,0-2.379,1.871,7.526,7.526,0,0,0-1.82,2.691,5.214,5.214,0,0,0-.213,3.095,4.752,4.752,0,0,0,1.93,2.67,10.706,10.706,0,0,0,2.513,1.236,3.118,3.118,0,0,0,1.96.148,4.59,4.59,0,0,0,1.483-.815,46.214,46.214,0,0,0,4.137-3.676,36.291,36.291,0,0,1,3.219-3.895c.638-.639,1.337-1.2,2.026-1.78a8.286,8.286,0,0,0,1.28-1.275,1.352,1.352,0,0,0-.41-.864q.779-.9,1.565-1.789a1.342,1.342,0,0,0,.278-.222q4.836-5.05,9.533-10.231,1.128-1.244,2.247-2.5,1.409-1.431,2.835-2.845a1.329,1.329,0,0,0,.193-.242,16.087,16.087,0,0,0,2.228-2.729c1-1.59,1.518-3.627.2-5.2" transform="translate(-21.755 -107.247)" fill="#fae5c8"/>
            <path id="Trazado_1403469" data-name="Trazado 1403469" d="M187.344,51.712c-.022.062-.044.124-.066.186a10.928,10.928,0,0,1-.524,1.349c.026-.054.1-.225.005-.015l-.083.191q-.083.19-.17.379-.173.378-.36.749-.219.434-.459.856l-.3.391a.967.967,0,0,0-.186.515,1.257,1.257,0,0,0-.591,1.083,1.329,1.329,0,0,0,1.306,1.306,1.356,1.356,0,0,0,1.266-.958,1.337,1.337,0,0,0,.406-.42q.182-.3.352-.6l.266-.35.283-.369.1-.123.092-.119q.571-.736,1.15-1.466c.177-.223.356-.445.535-.667a11.814,11.814,0,0,1-3.021-1.917" transform="translate(-140.941 -39.479)" fill="#e5b585"/>
            <path id="Trazado_1403470" data-name="Trazado 1403470" d="M211.069,11.471a1.332,1.332,0,0,0-1.306-1.306l-.046,0a5.562,5.562,0,0,0-2.13-1.159,1.109,1.109,0,0,0-.432-.043,1.143,1.143,0,0,0-.595-.818,1.322,1.322,0,0,0-1.787.468,43.2,43.2,0,0,0-1.808,4.767,1.682,1.682,0,0,1,.629.181A16.717,16.717,0,0,1,207.56,16.4c.139-.163.278-.327.418-.49a1.172,1.172,0,0,0,.58-.179,6.592,6.592,0,0,0,1.922-1.649,3.854,3.854,0,0,0,.59-2.612" transform="translate(-154.952 -6.098)" fill="#e5b585"/>
            <path id="Trazado_1403471" data-name="Trazado 1403471" d="M75.608,148.415a4.611,4.611,0,0,0-1.782-3.105.762.762,0,0,0-.443-.179,3.264,3.264,0,0,0-4.5.071,3.6,3.6,0,0,0-1.031,2.838.7.7,0,0,0,.352.568,3.4,3.4,0,0,0,2.719,1.324.466.466,0,0,0,.229-.033,2.5,2.5,0,0,0,.739.241.849.849,0,0,0,.317-.01.577.577,0,0,0,.09.122q-5.84,6.28-11.791,12.456-6.014,6.24-12.139,12.37-3.44,3.443-6.915,6.851a.643.643,0,0,0-.152.223,1.579,1.579,0,0,1,.49.437c-.153-.208.043.047.066.072.044.048.088.1.134.141s.114.11.174.162a.667.667,0,0,0,.19-.132l.183-.18a.8.8,0,0,0,.359.281,3.228,3.228,0,0,0,4.045-1.827.437.437,0,0,0,.028-.1l.036-.041a.625.625,0,0,0,.748-.11q5.913-7.026,12.25-13.68,1.79-1.879,3.612-3.725a.735.735,0,0,0,.075-.089l3.833-3.721a.589.589,0,0,0,.01-.86q1.295-1.359,2.586-2.723,1.133-1.151,2.218-2.349l.277-.294a.718.718,0,0,0,.083-.107q.707-.791,1.392-1.6a.655.655,0,0,0,0-.9.685.685,0,0,0-.594-.173.6.6,0,0,0,0-.09,2.765,2.765,0,0,0,.383-.044.573.573,0,0,0,.488.226,1.462,1.462,0,0,0,1.241-2.3M70,146.829a1.7,1.7,0,0,0-.216.591c-.005.021-.011.041-.016.062a1.806,1.806,0,0,0,.051.933.842.842,0,0,1-.573-.655c-.107-.864.855-1.367,1.55-1.641a1.86,1.86,0,0,0-.8.71m2.872.285-.026.034a1.3,1.3,0,0,0-.048-.263,1.319,1.319,0,0,0-1.306-.934,1.658,1.658,0,0,0-.492.087.677.677,0,0,0,.394-.508,1.68,1.68,0,0,1,.631.179,2.248,2.248,0,0,1,1.043,1.215.9.9,0,0,0-.2.191" transform="translate(-31.532 -110.139)" fill="#e5b585"/>
            <path id="Trazado_1403472" data-name="Trazado 1403472" d="M52.277,217.97,42.6,228.36l-2.73,2.93c-.346.372.211.931.558.559l9.681-10.39,2.73-2.93c.346-.372-.211-.931-.558-.559" transform="translate(-30.352 -166.314)" fill="#f3eeea"/>
            <path id="Trazado_1403473" data-name="Trazado 1403473" d="M107.953,188.1q-1.924,1.775-3.671,3.727c-.338.378.219.938.558.559q1.745-1.951,3.672-3.727c.374-.345-.185-.9-.559-.559" transform="translate(-79.533 -143.521)" fill="#f3eeea"/>
            <path id="Trazado_1403474" data-name="Trazado 1403474" d="M132.081,173.036a.4.4,0,0,0,0,.79.4.4,0,0,0,0-.79" transform="translate(-100.545 -132.103)" fill="#f3eeea"/>
            <path id="Trazado_1403475" data-name="Trazado 1403475" d="M153.875,168.236a1.453,1.453,0,0,1-.874-.681.4.4,0,0,0-.682.4A2.266,2.266,0,0,0,153.666,169a.4.4,0,0,0,.21-.761" transform="translate(-116.244 -127.772)" fill="#f3eeea"/>
            <path id="Trazado_1403476" data-name="Trazado 1403476" d="M149.754,161.888a.4.4,0,0,0,0,.79.4.4,0,0,0,0-.79" transform="translate(-114.037 -123.592)" fill="#f3eeea"/>
            <path id="Trazado_1403477" data-name="Trazado 1403477" d="M209.309,9.385a2.9,2.9,0,0,0-2.857-.314,3.517,3.517,0,0,0-1.444,2.414c-.181.76.99,1.084,1.171.323a2.607,2.607,0,0,1,.808-1.64c.535-.369,1.214,0,1.708.266.686.375,1.3-.674.613-1.049" transform="translate(-156.498 -6.723)" fill="#fae5c8"/>
            <path id="Trazado_1403478" data-name="Trazado 1403478" d="M204.558,24.771a.608.608,0,0,0,0,1.215.608.608,0,0,0,0-1.215" transform="translate(-155.72 -18.911)" fill="#fae5c8"/>
            <path id="Trazado_1403479" data-name="Trazado 1403479" d="M186.422,56.716a.612.612,0,0,0-.831.218,32.069,32.069,0,0,1-2.164,3.965c-.423.66.628,1.27,1.049.613a32,32,0,0,0,2.164-3.965.625.625,0,0,0-.218-.831" transform="translate(-139.961 -43.24)" fill="#fae5c8"/>
            <path id="Trazado_1403480" data-name="Trazado 1403480" d="M214.909,17.662a.608.608,0,0,0-1.171.323,3.881,3.881,0,0,1-.074,2.373,1.845,1.845,0,0,1-.669.778c-.336.245-.682.477-1.025.712q-1.12-.769-2.257-1.512c-.657-.428-1.266.623-.613,1.049q1.644,1.073,3.251,2.2a.613.613,0,0,0,.831-.218.606.606,0,0,0-.145-.772,4.213,4.213,0,0,0,1.74-1.769,5.079,5.079,0,0,0,.133-3.165" transform="translate(-159.421 -13.155)" fill="#ce9d6f"/>
            <path id="Trazado_1403481" data-name="Trazado 1403481" d="M192.445,54.518a10.4,10.4,0,0,1-1.847-1.3.622.622,0,0,0-.859,0,.613.613,0,0,0,0,.859,12.188,12.188,0,0,0,1.335,1.025,4.737,4.737,0,0,0-.527.521q-.5.555-1,1.112-1,1.112-2,2.226c-.52.581.336,1.443.859.859q.957-1.069,1.915-2.137l.959-1.067a2.579,2.579,0,0,1,.862-.749.478.478,0,0,0,.259-.3.6.6,0,0,0,.037-1.054" transform="translate(-143.062 -40.5)" fill="#ce9d6f"/>
            <g id="Grupo_1207964" data-name="Grupo 1207964" transform="translate(2.351 6.648)" opacity="0.74">
              <g id="Grupo_1207963" data-name="Grupo 1207963">
                <g id="Grupo_1207962" data-name="Grupo 1207962" clip-path="url(#clip-path-4)">
                  <path id="Trazado_1403482" data-name="Trazado 1403482" d="M62.342,33.378l-.066-.226A2.53,2.53,0,0,0,61.159,31.7a2.583,2.583,0,0,0-1.538-.317,7.154,7.154,0,0,1-.95-.559,7.016,7.016,0,0,1-.929-.962l.308.4a2.657,2.657,0,0,0-1.439-1.1,2.387,2.387,0,0,0-.542-.079,2.942,2.942,0,0,0-1.308-.89,1.842,1.842,0,0,0-.969-.044,1.809,1.809,0,0,0-.9.288l-.492.38a2.429,2.429,0,0,0-.625,1.072q-.031.233-.063.466a2.629,2.629,0,0,0-.341,1.249,2.473,2.473,0,0,0,.712,1.718,2.813,2.813,0,0,0,.329.26q-.047.117-.1.232a24.407,24.407,0,0,1-2.873,5,31.024,31.024,0,0,1-2.89,3.1,32.293,32.293,0,0,0-2.275,2.356,3.058,3.058,0,0,0-1.242-.007A19.6,19.6,0,0,0,31.86,50.607a20.382,20.382,0,0,0-2.094,2.843c-.627,1.041-1.131,2.149-1.666,3.239a64.308,64.308,0,0,1-3.741,6.588c-1.03,1.595-2.086,3.174-3.144,4.751a2.23,2.23,0,0,0-.933.9q-3.551,6.4-6.552,13.084a2.592,2.592,0,0,0-.977.906,20.905,20.905,0,0,0-1.39,2.524,16.428,16.428,0,0,0-1.179,3.132,7.359,7.359,0,0,0,.015,3.827,9.212,9.212,0,0,0,1.922,3.172,18.412,18.412,0,0,0,9.6,6.114,16.107,16.107,0,0,0,2.576.389,1.985,1.985,0,0,0,.782.133,3.31,3.31,0,0,0,.681-.1q.683-.018,1.364-.1a1.785,1.785,0,0,0,.845.177,2.009,2.009,0,0,0,.233.145,2.479,2.479,0,0,0,3.324-.872,51.89,51.89,0,0,0,4.14-8.369,2.711,2.711,0,0,0,.214-.168l.011-.021a74.419,74.419,0,0,1,4.974-8.319.769.769,0,0,1,.486-.311q.777-1.5,1.482-3.038a87.111,87.111,0,0,0,7.244-12.892l2.059-4.224a3.463,3.463,0,0,0,.244-.65,18.518,18.518,0,0,0,1.572-3.925,19.176,19.176,0,0,0,.577-3.454A2.392,2.392,0,0,0,53.32,54c-.159-.821-.311-1.643-.433-2.47a17.26,17.26,0,0,1-.076-3.856,10.762,10.762,0,0,1,.48-1.866,1.8,1.8,0,0,0,.233-.81,1.84,1.84,0,0,0-.043-.969c-.016-.058-.035-.116-.057-.174.3-.465.6-.925.9-1.384q1.811-2.729,3.627-5.455a1.793,1.793,0,0,0,.727.189,2.181,2.181,0,0,0,1.8-.478,1.819,1.819,0,0,0,.5-.482,2.315,2.315,0,0,0,.738-.5,2.438,2.438,0,0,0,.625-2.364M51.928,60.717a4.777,4.777,0,0,1-.833,1.431,1.248,1.248,0,0,1-.456.344,11.261,11.261,0,0,1-1.923,2.085,1.536,1.536,0,0,1-.23.61A18.657,18.657,0,0,1,45.6,68.511c-.616.577-1.251,1.133-1.882,1.694a1.5,1.5,0,0,1-.247.706,46.058,46.058,0,0,1-8.052,8.472c0,.042.005.083.005.123a1.983,1.983,0,0,1-.536,1.294,65.614,65.614,0,0,1-7.121,7.026c-.556.509-1.107,1.022-1.648,1.547a17.885,17.885,0,0,0-1.36,1.395l-.063.079-.13.173c-.144.193-.286.387-.432.579a12.8,12.8,0,0,1-1.24,1.486,3.869,3.869,0,0,1-3.941,1.172,7.07,7.07,0,0,1-1.968-1.207,8.138,8.138,0,0,1-1.48-1.56,4.292,4.292,0,0,1-.846-2.259,4.188,4.188,0,0,1,.707-2.386,20.061,20.061,0,0,1,2.8-3.072c1.1-1.143,2.192-2.3,3.238-3.5q.786-.9,1.536-1.825.213-.265.423-.532c.046-.059.092-.119.139-.178l-.036.045c-.083.106-.246.307,0,0l.025-.033q.341-.448.671-.9A2.093,2.093,0,0,1,25.259,76a1.422,1.422,0,0,1,.289-.061q.864-1.117,1.747-2.22,1.846-2.3,3.795-4.514c1.278-1.447,2.626-2.825,3.932-4.246,1.28-1.394,2.486-2.859,3.866-4.158,1.11-1.046,1.963-2.341,3.078-3.378a.712.712,0,0,1,.308-.665,7.9,7.9,0,0,1,1.427-.87.581.581,0,0,1,.309-.481,4.176,4.176,0,0,1,2.745-.515.463.463,0,0,1,.222.1,5.234,5.234,0,0,1,4.5,1.481.694.694,0,0,1,.168.6,1.062,1.062,0,0,1,.114.33,9.514,9.514,0,0,1,.1.995,1.747,1.747,0,0,1,.288.971,4.209,4.209,0,0,1-.218,1.342M56.244,36.4c-.6.787-1.058,1.673-1.625,2.482a4.651,4.651,0,0,1-2.451,2.131c-.734.166-1.638-.51-1.33-1.33.665-1.766,1.857-3.248,2.6-4.975a1.093,1.093,0,0,1,1.479-.388.917.917,0,0,1,.427.46,1.144,1.144,0,0,1,.517.141,1.084,1.084,0,0,1,.388,1.479" transform="translate(-9.939 -28.103)" fill="#84d5c2"/>
                </g>
              </g>
            </g>
            <path id="Trazado_1403483" data-name="Trazado 1403483" d="M57.528,64.8a1.027,1.027,0,0,0-1.417,0,15.361,15.361,0,0,0-4.843,8.918,21.276,21.276,0,0,0-.177,6.022,28.7,28.7,0,0,0,.515,3.12c.1.465.219.927.317,1.393q.07.335.125.673c0,.03.008.047.009.055.005.043.01.086.015.13q.024.226.035.453a7.229,7.229,0,0,1-.007.774c-.008.128-.019.256-.033.384,0,0-.008.058-.011.09s-.02.121-.022.134a10.972,10.972,0,0,1-.392,1.558,19.615,19.615,0,0,1-.912,2.259l-.2.213a1.01,1.01,0,0,0-.628.459c-.13.21-.257.42-.385.631q-4.86,5.224-9.741,10.429-5.73,6.115-11.47,12.219l-4.24,4.513a.893.893,0,0,0-.625.286l-.774.845a1.121,1.121,0,0,1-.513,1.172,4.087,4.087,0,0,1-2.709.466,6.164,6.164,0,0,1-3.819-2.49,4.966,4.966,0,0,1-1.073-3.771c-.028,0-.055,0-.083,0a1.027,1.027,0,0,0-.977.793,3.5,3.5,0,0,0-2.558-.014,5.286,5.286,0,0,0-1.107.6,1.186,1.186,0,0,1,.131.856,3.355,3.355,0,0,0,0,1.483,1.178,1.178,0,0,1,.022.119,1.025,1.025,0,0,0,.218-.161,4.273,4.273,0,0,1,1.32-.981l.019-.009.027-.009c.066-.023.131-.045.2-.064.084-.024.168-.044.253-.061.057-.011.15-.012.042-.006a2.642,2.642,0,0,1,.385,0c-.092,0,.341.105.211.048a1.187,1.187,0,0,0,1.023,0A7.44,7.44,0,0,0,16.4,122.1c1.564,1.2,3.946,2.511,5.87,1.378.094-.055.184-.116.272-.18a.925.925,0,0,0,.717-.286l.863-.919a.759.759,0,0,0,.17.107,14.858,14.858,0,0,1,2.644,1.544,12.791,12.791,0,0,1,1.059.882q.137.126.271.255a1.026,1.026,0,0,1,.453.267,3.688,3.688,0,0,1,.819,1.267c.019.033.039.066.057.1s.129.263.129.251q.029.071.053.143c-.024.066-.047.133-.07.2a2.935,2.935,0,0,1-.039.94c-.007.036-.017.07-.025.106.014.031.03.06.047.089-.026.043-.054.085-.083.127q.1-.125-.008.009l-.032.035a3.942,3.942,0,0,1-1.6,1.9,15.612,15.612,0,0,0,2.675-.142,4.465,4.465,0,0,0,.775-.907,3.2,3.2,0,0,0,.47-1.377.971.971,0,0,0,.554-.439,38.426,38.426,0,0,0,2.972-6.347.783.783,0,0,0,.041-.325c1.365-2.021,2.72-4.041,3.967-6.141,2.755-4.642,5.161-9.477,7.7-14.238,1.283-2.407,2.6-4.8,4.014-7.13l.4-.427a.855.855,0,0,0,.651-.465q.11-.235.218-.47l.235-.252a1.093,1.093,0,0,0,.275-.891,14.545,14.545,0,0,0,1.16-3.994c.236-2-.475-3.923-.8-5.871-.086-.507-.126-.8-.177-1.283s-.087-.961-.107-1.443a20.212,20.212,0,0,1,.085-2.941c.047-.449.1-.777.192-1.274q.125-.644.3-1.278.163-.588.371-1.162c.067-.184.137-.366.21-.547l.025-.062.026-.058q.068-.156.14-.312a14.248,14.248,0,0,1,1.4-2.391l.086-.117.071-.094.039-.049.122-.151q.231-.281.477-.549a12.63,12.63,0,0,1,1.012-.979,1.008,1.008,0,0,0,0-1.417m-15.5,40.974c-1.266,2.4-2.553,4.794-3.922,7.14-1.351,2.314-2.81,4.549-4.32,6.761a43.1,43.1,0,0,0-3.029,4.96,13.48,13.48,0,0,0-2.812-2.618,14.806,14.806,0,0,0-2.405-1.432l9.194-9.787q5.3-5.649,10.6-11.307c-1.113,2.089-2.2,4.191-3.3,6.284" transform="translate(-7.503 -49.252)" fill="#59b29e"/>
            <path id="Trazado_1403484" data-name="Trazado 1403484" d="M217.053,45.849a1.014,1.014,0,0,0-1.233.7,3.791,3.791,0,0,1-.115.51c-.021.069-.05.136-.07.206l0,.017-.012.024a4.941,4.941,0,0,1-.255.456c-.034.052-.07.1-.106.153-.026.032-.053.063-.081.094a3.948,3.948,0,0,1-.339.339c-.023.02-.119.093-.133.105-.038.026-.076.054-.115.079a4.162,4.162,0,0,1-.418.233l-.035.017-.047.015c-.083.027-.166.054-.25.078a1,1,0,0,0,.533,1.933,4.781,4.781,0,0,0,3.379-3.726,1.028,1.028,0,0,0-.7-1.233" transform="translate(-162.688 -34.984)" fill="#59b29e"/>
            <path id="Trazado_1403485" data-name="Trazado 1403485" d="M108.425,105.333a.558.558,0,0,0-.673-.382c-4.648.881-8.071,4.507-10.586,8.282-.772,1.159-1.487,2.356-2.2,3.553a.547.547,0,0,0,.944.552c2.29-3.856,4.76-7.917,8.814-10.135a11.271,11.271,0,0,1,3.317-1.2.552.552,0,0,0,.382-.673" transform="translate(-72.441 -80.115)" fill="#bef4e7"/>
            <path id="Trazado_1403486" data-name="Trazado 1403486" d="M126.811,119.1c-2.263.565-3.79,2.464-4.77,4.474-.307.63.636,1.185.944.552.857-1.759,2.121-3.473,4.116-3.971a.547.547,0,0,0-.291-1.054" transform="translate(-93.125 -90.909)" fill="#bef4e7"/>
            <path id="Trazado_1403487" data-name="Trazado 1403487" d="M115.929,147.38a.547.547,0,0,0,0,1.093.547.547,0,0,0,0-1.093" transform="translate(-88.102 -112.516)" fill="#bef4e7"/>
            <path id="Trazado_1403488" data-name="Trazado 1403488" d="M69.458,171.961l-4.914,8.647a.547.547,0,0,0,.944.552l4.914-8.647a.547.547,0,0,0-.944-.552" transform="translate(-49.218 -131.078)" fill="#bef4e7"/>
            <path id="Trazado_1403489" data-name="Trazado 1403489" d="M58.65,221.7a.547.547,0,0,0,0,1.093.547.547,0,0,0,0-1.093" transform="translate(-44.372 -169.254)" fill="#bef4e7"/>
            <path id="Trazado_1403490" data-name="Trazado 1403490" d="M195.291,33.749c-.811-.364-1.279-1.246-2.191-1.442-.827-.177-1.9.381-1.785,1.348a.564.564,0,0,0,.547.547.55.55,0,0,0,.547-.547c-.062-.521.683-.207.888-.064a9.422,9.422,0,0,0,1.443,1.1.563.563,0,0,0,.748-.2.551.551,0,0,0-.2-.748" transform="translate(-146.051 -24.64)" fill="#bef4e7"/>
            <path id="Trazado_1403491" data-name="Trazado 1403491" d="M214.173,43.335a.547.547,0,0,0,0,1.093.547.547,0,0,0,0-1.093" transform="translate(-163.105 -33.084)" fill="#bef4e7"/>
            <path id="Trazado_1403492" data-name="Trazado 1403492" d="M186.176,24.821c-3.135-2.169-4.63,2.176-5.231,4.5a.5.5,0,0,0,.229.562,40.4,40.4,0,0,1,6.682,3.841c.729.521,1.452,1.235,2.418,1.127a3.725,3.725,0,0,0,2.219-1.481c1.171-1.369,1.6-3.056.081-4.335a47.677,47.677,0,0,0-6.44-4.268.5.5,0,0,0-.5.859c1.516.9,3.005,1.846,4.46,2.843A7.515,7.515,0,0,1,192.41,30.3c.614,1.056-.407,2.234-1.12,2.908a1.443,1.443,0,0,1-1.926.4,7.763,7.763,0,0,1-1.006-.733q-1.047-.747-2.142-1.425a41.1,41.1,0,0,0-4.54-2.416l.228.562c.429-1.661,1.387-5.558,3.77-3.91.528.365,1.025-.5.5-.859" transform="translate(-138.13 -18.499)"/>
            <path id="Trazado_1403493" data-name="Trazado 1403493" d="M49.377,49.856c-2.066,3.819-4.364,8.047-8.4,10.083-2.185,1.1-4.656,1.44-6.781,2.694A18.319,18.319,0,0,0,29.515,66.8a122.575,122.575,0,0,0-7.9,11.512c-2.717,4.164-5.36,8.38-7.762,12.735a107.677,107.677,0,0,0-6.945,15.147c-.219.6.742.862.959.264,3.419-9.393,8.394-18.046,13.807-26.414,2.63-4.066,5.17-8.322,8.193-12.112A18.149,18.149,0,0,1,34.7,63.491c2.12-1.251,4.6-1.592,6.781-2.694,4.188-2.113,6.615-6.476,8.759-10.44.3-.563-.554-1.066-.859-.5" transform="translate(-5.251 -37.873)"/>
            <path id="Trazado_1403494" data-name="Trazado 1403494" d="M127.773,65.076c-1.722,3.487-4.78,6.419-4.891,10.522a27.624,27.624,0,0,0,.959,6.12,13.247,13.247,0,0,1-.44,7.256c-1.556,4.431-4.216,8.605-6.565,12.651-2.39,4.118-4.869,8.183-7.247,12.307a143.381,143.381,0,0,0-7.318,14.2c-.254.581.6,1.088.859.5,3.783-8.666,8.806-16.688,13.583-24.823,2.358-4.015,4.767-8.063,6.714-12.3a17.267,17.267,0,0,0,1.749-6.075,24.037,24.037,0,0,0-.895-6.382A10.584,10.584,0,0,1,125,71.59c1.087-2.078,2.587-3.906,3.628-6.012.282-.572-.575-1.077-.859-.5" transform="translate(-78.042 -49.488)"/>
            <path id="Trazado_1403495" data-name="Trazado 1403495" d="M11.715,280.76c-2.064-.6-6.041.215-5.066,3.15a16.575,16.575,0,0,0,6.5,8.07,20.456,20.456,0,0,0,10.932,3.841c2.649.06,7.412-.9,5.693-4.641a12.261,12.261,0,0,0-3.8-4.062,25.956,25.956,0,0,0-4.694-2.651c-.574-.276-1.079.581-.5.859,2.834,1.366,5.773,2.919,7.667,5.543.737,1.02,1.04,2.311-.129,3.158a5.4,5.4,0,0,1-2.6.745,15.651,15.651,0,0,1-6.114-.723,20.661,20.661,0,0,1-9.322-5.926c-1.059-1.21-2.461-3.014-2.719-4.646-.331-2.1,2.64-2.123,3.9-1.758a.5.5,0,0,0,.264-.959" transform="translate(-4.961 -214.204)"/>
            <path id="Trazado_1403496" data-name="Trazado 1403496" d="M152.357,143.293c2.144-1.786-.616-4.2-2.669-3.045-2.225,1.256-1.321,4.2.641,5.144,1.517.732,5.029,1.465,5.907-.615a7.522,7.522,0,0,0,.162-3.26,3.992,3.992,0,0,0-1.936-2.971c-2.549-1.6-6.6-1.359-8.732.792a.5.5,0,0,0,.7.7,6.312,6.312,0,0,1,5.853-1.309,4.22,4.22,0,0,1,2.74,1.706,5.367,5.367,0,0,1,.4,2.911c-.02,1.044-.329,1.615-1.449,1.736a6.367,6.367,0,0,1-2.692-.383,2.47,2.47,0,0,1-1.921-2.142,1.556,1.556,0,0,1,.846-1.416,1.412,1.412,0,0,1,1.265-.1,1.089,1.089,0,0,1,.182,1.54c-.492.41.215,1.11.7.7" transform="translate(-111.146 -104.98)"/>
            <path id="Trazado_1403497" data-name="Trazado 1403497" d="M54.75,144.8q-7.03,8.085-14.213,16.034-3.631,4.016-7.3,8-1.718,1.863-3.445,3.719a18.306,18.306,0,0,0-2.92,3.5c-1.287,2.373,0,4.521,1.914,6.075a9.2,9.2,0,0,0,3.164,1.685,2.666,2.666,0,0,0,2.963-.664c5.037-4.783,9.744-9.979,14.448-15.087q8.006-8.695,15.731-17.642c.418-.481-.282-1.188-.7-.7-8.255,9.5-16.662,18.882-25.432,27.915q-1.573,1.62-3.162,3.224c-.525.53-1.037,1.085-1.585,1.591-.895.826-1.914.513-2.922.066a8.184,8.184,0,0,1-3.263-2.595c-1.158-1.581-.677-3.058.477-4.479,1.868-2.3,4.054-4.4,6.062-6.577q3.277-3.56,6.522-7.149,7.264-8.031,14.368-16.205c.418-.481-.282-1.187-.7-.7" transform="translate(-20.119 -110.423)"/>
            <path id="Trazado_1403498" data-name="Trazado 1403498" d="M201.747,11.406a10.845,10.845,0,0,1,1.063-3.513c.871-1.378,2.829-.4,3.831.3s2.326,1.7,2.195,3.044c-.127,1.306-1.324,2.185-2.281,2.93-.5.393.2,1.092.7.7,1.262-.982,2.634-2.191,2.611-3.938-.021-1.6-1.524-2.778-2.726-3.6-1.144-.781-2.839-1.554-4.206-.888-1.527.743-1.855,3.237-2.148,4.7-.125.625.833.893.959.264" transform="translate(-153.281 -4.725)"/>
            <path id="Trazado_1403499" data-name="Trazado 1403499" d="M184.105,52.972a32.318,32.318,0,0,1-2.188,4.431,1.708,1.708,0,0,0,.81,2.543c1.075.664,1.731.084,2.43-.83a28.987,28.987,0,0,1,3.251-3.949c.471-.435-.233-1.137-.7-.7a17.645,17.645,0,0,0-1.978,2.13c-.5.647-1.738,3.207-2.71,2.322-.831-.756.415-2.243.846-3a12.6,12.6,0,0,0,1.2-2.679.5.5,0,0,0-.959-.264" transform="translate(-138.673 -40.175)"/>
            <path id="Trazado_1403500" data-name="Trazado 1403500" d="M2.321,237.8c-2.54-3.432-1.647-7.81-.051-11.438,1.653-3.757,3.655-7.383,5.5-11.049.211-.418-.418-.788-.629-.368C5.1,218.992,2.768,223,1.126,227.23c-1.374,3.537-1.816,7.721.566,10.94.276.373.909.01.629-.368" transform="translate(0 -163.959)"/>
            <path id="Trazado_1403501" data-name="Trazado 1403501" d="M38.916,200.54a.365.365,0,0,0,0-.729.365.365,0,0,0,0,.729" transform="translate(-29.441 -152.544)"/>
            <path id="Trazado_1403502" data-name="Trazado 1403502" d="M203.3,89.744a13.052,13.052,0,0,0-.44,7.906,35.041,35.041,0,0,1,.993,4.293,9.386,9.386,0,0,1-1.073,5.049c-.191.424.437.8.629.368a11.907,11.907,0,0,0,1.209-3.8,12.047,12.047,0,0,0-.511-4.031,22.845,22.845,0,0,1-.951-4.7,12.1,12.1,0,0,1,.847-4.89c.168-.438-.536-.628-.7-.194" transform="translate(-154.56 -68.327)"/>
            <path id="Trazado_1403503" data-name="Trazado 1403503" d="M198.246,175.525a.365.365,0,0,0,0-.729.365.365,0,0,0,0,.729" transform="translate(-151.08 -133.447)"/>
            <path id="Trazado_1403504" data-name="Trazado 1403504" d="M199.682,2.453A2.706,2.706,0,0,1,202.928.829a.365.365,0,0,0,.194-.7,3.447,3.447,0,0,0-4.143,2.133c-.163.44.541.63.7.194" transform="translate(-151.89 0)"/>
            <path id="Trazado_1403505" data-name="Trazado 1403505" d="M227.067,2.057a.365.365,0,0,0,0-.729.365.365,0,0,0,0,.729" transform="translate(-173.083 -1.014)"/>
          </g>
        </g>
      </g>
    </g>
  </g>
</svg>
