<svg xmlns="http://www.w3.org/2000/svg" xmlns:xlink="http://www.w3.org/1999/xlink" width="157.937" height="163.404" viewBox="0 0 157.937 163.404">
  <defs>
    <clipPath id="clip-path">
      <rect id="Rectángulo_458721" data-name="Rectángulo 458721" width="157.718" height="152.028" transform="matrix(0.038, -0.999, 0.999, 0.038, 0, 157.603)" fill="none"/>
    </clipPath>
    <clipPath id="clip-path-2">
      <rect id="Rectángulo_458725" data-name="Rectángulo 458725" width="157.937" height="163.405" fill="none"/>
    </clipPath>
  </defs>
  <g id="Grupo_1208318" data-name="Grupo 1208318" transform="translate(-216.063 -9914)">
    <g id="Grupo_1208262" data-name="Grupo 1208262" transform="translate(216.063 9914)">
      <g id="Grupo_1208259" data-name="Grupo 1208259" transform="translate(0 0)">
        <g id="Grupo_1208258" data-name="Grupo 1208258" transform="translate(0)" clip-path="url(#clip-path)">
          <path id="Trazado_1404745" data-name="Trazado 1404745" d="M177.24,411c-.4-.022-.8-.049-1.2-.071.228.116.47.225.709.336a7.063,7.063,0,0,0,.814-.075c-.109-.061-.214-.129-.325-.19" transform="translate(-115.306 -269.152)" fill="#ffe878"/>
          <path id="Trazado_1404746" data-name="Trazado 1404746" d="M221.032,410.6a.874.874,0,0,0-.791.437,9.051,9.051,0,0,0,3.387.815c.448-.115.678-.177.8-.209l-1.788-.757a3.2,3.2,0,0,0-1.6-.287" transform="translate(-144.256 -268.933)" fill="#ffe878"/>
          <path id="Trazado_1404747" data-name="Trazado 1404747" d="M232.359,413.55c.226.1.415.175.545.219s.207.074.207.074l-.424-.342-.185.011Z" transform="translate(-152.193 -270.839)" fill="#ffe878"/>
          <path id="Trazado_1404748" data-name="Trazado 1404748" d="M414.022,92.886a61.992,61.992,0,0,0-13.274-23.242,2.087,2.087,0,0,0-1.361-.795c-.275.1-.142.552.273,1.035a61.638,61.638,0,0,1,13.248,23.028,70.673,70.673,0,0,1,3.074,20.636c0,.426.229.783.543.8.268.022.531-.31.512-.707a70.649,70.649,0,0,0-3.015-20.76" transform="translate(-261.501 -45.093)" fill="#c8c893"/>
          <path id="Trazado_1404749" data-name="Trazado 1404749" d="M155.31,72.633a96.2,96.2,0,0,0-5.4-19.585,63.621,63.621,0,0,0-5.387-10.3,62.705,62.705,0,0,0-8.5-10.314c-.6-.7-1.236-1.391-1.909-2.066a19.663,19.663,0,0,0-2.236-1.971,68.857,68.857,0,0,0-5.774-3.948,65.024,65.024,0,0,0-15.739-7.581,74.568,74.568,0,0,0-20.246-3.549A84.551,84.551,0,0,0,71.72,14.633a83.241,83.241,0,0,0-15.061,4.235A78.6,78.6,0,0,1,74.606,13.01a81.99,81.99,0,0,1,23.628-1.227,78.211,78.211,0,0,1,12.885,2.3,74.182,74.182,0,0,1,11.4,4.022,82.906,82.906,0,0,1,15.62,9.172c1.081.873,2.184,1.249,2.531.916.281-.406-.324-1.429-1.441-2.323a78.083,78.083,0,0,0-10.189-6.882,76.408,76.408,0,0,0-15.12-6.512A84.149,84.149,0,0,0,95.19,9.062c-1.589-.136-3.06-.137-4.6-.176s-3.057-.026-4.479.052c-1.45.066-2.9.151-4.336.26-1.369.139-2.735.3-4.087.472A85.106,85.106,0,0,0,63.13,12.938c-2.242.682-4.237,1.464-6.273,2.258-1.94.825-3.9,1.664-5.676,2.589a72.745,72.745,0,0,0-9.98,6.047c-1.5,1.143-2.994,2.258-4.379,3.515l-1.035.928c-.335.306-.712.64-.966.9l-1.645,1.679a29.653,29.653,0,0,0-7.2,3.38c-1.184.77-2.383,1.64-3.581,2.6A43.928,43.928,0,0,0,19.046,39.9,37.776,37.776,0,0,0,10.13,54.144a22.643,22.643,0,0,0-1,9.674c.483-1.373.92-2.688,1.484-4.1A21.645,21.645,0,0,0,11.68,70.677a8.327,8.327,0,0,0-.263.821,24.536,24.536,0,0,0-1.152,2.661c-.34.914-.608,1.792-.847,2.691a40.888,40.888,0,0,0-1.033,5.587c-.471,3.923-.558,8.281-.667,12.847.632-.217,1.254-.474,1.882-.684-.334,1.658-1.37,2.721-1.428,4.657.4-.558.786-1.086,1.195-1.644l0,.114a9.673,9.673,0,0,0-.591,3.43,14.637,14.637,0,0,0,.1,1.912c.1.666.222,1.343.38,2.025a25.518,25.518,0,0,0,.227,10.912,27.952,27.952,0,0,0,.858,3.129,31.807,31.807,0,0,0,1.181,3.174,44.111,44.111,0,0,0,3.28,6.283c.189.3.39.593.588.89a1.263,1.263,0,0,1,.011.13,7.839,7.839,0,0,0,.759,2.235,14.4,14.4,0,0,0,1.8,2.588c.481.868,1.2,1.818,1.481,2.483,2.245,6.1,7.775,12.969,16.5,19.071-.728-.665-1.47-1.345-2.214-2.026-.7-.7-1.39-1.4-2.072-2.088a40.828,40.828,0,0,0,7.829,5.3c-.1-.371-.3-.781-.386-1.153A46.49,46.49,0,0,0,55.4,163.906c1.592.4,3.142.844,4.718,1.093,1.57.269,3.108.49,4.584.653,1.489.118,2.923.156,4.264.154.672,0,1.322-.022,1.944-.056.63-.054,1.232-.129,1.807-.216a13.158,13.158,0,0,0,4.966-1.541,2.276,2.276,0,0,0,1.284-2.26,4.485,4.485,0,0,0-2.047-2.556,29.035,29.035,0,0,0-5.114-2.7c-.4-.177-.8-.376-1.194-.57.57.083,1.135.157,1.7.2,1.553.118,3.049.2,4.464.168a20.182,20.182,0,0,0,7.177-1.4c1.685-.774,1.079-1.947,1.308-2.956,1.044-1.447-1.918-2.792-6.532-3.613-.579-.1-1.161-.181-1.742-.243s-1.137-.164-1.693-.217c-.07-.007-.132-.007-.2-.014a62.263,62.263,0,0,1-14.153-6.081,5.126,5.126,0,0,0-2.78-.848c-.716.08-.686.559.135,1.1a78.841,78.841,0,0,0,8.7,5.659c.35.02.7.033,1.062.033a4.978,4.978,0,0,1-.737.159c.286.159.594.3.885.462-.294-.013-.58-.027-.877-.045l-.066-.007c-.258-.108-.506-.222-.759-.338a13.644,13.644,0,0,1-2.021-.081,53.4,53.4,0,0,1-15.446-9.48c-.224-.214.923-.386.641-.864-.148-.238-.3-.48-.45-.735a22.542,22.542,0,0,0,2.436,1.913,79.414,79.414,0,0,0,7.905,2.135l.013.016.391.074c.592.125,1.1.236,1.848.4l.046-.046.479.087,1.766.818a4.265,4.265,0,0,0,1.953.437,2.992,2.992,0,0,0,.463.7c1.742.711,2.606,1.1,3.514,1.428.915.31,1.841.644,3.719,1.258a.912.912,0,0,0,.138-.387A19.771,19.771,0,0,1,77,146.1c1.508.288,1.506.228,5.116,1.029,0,0-.01.011-1.438-.87l1.327.657.007-.771.276.867,1.017-.531s.011.007,2.249,1.994c.266-.022.905-.093,2.49-.274,0,0,.249-.081.531-.2.371.119.741.231,1.126.329a19.456,19.456,0,0,0,10.391-.113,104.472,104.472,0,0,0,25.065-8.744,57.14,57.14,0,0,0,18.26-14.223,49.43,49.43,0,0,0,4.412-6.294,43.2,43.2,0,0,1-1.869,4.757,41.052,41.052,0,0,1-5.024,8.049,45.442,45.442,0,0,1-8.827,8.378,58.24,58.24,0,0,1-12.522,6.906,69.638,69.638,0,0,1-17.054,4.463c-6.695.821-12.361,1.311-11.513,2.421.441.559,2.44,1.09,5.4,1.365a42.142,42.142,0,0,0,4.859.115,47.566,47.566,0,0,0,5.343-.506,75.955,75.955,0,0,0,17.5-4.583,64.032,64.032,0,0,0,13.094-6.992,49.946,49.946,0,0,0,9.447-8.508,42.738,42.738,0,0,0,9.906-21.949c.3-1.979.43-3.686.549-5.431s.2-3.511.241-5.29c.13-5.069.015-9.8-.29-14.519a128.729,128.729,0,0,0-1.756-15.005M27,133.778a51.51,51.51,0,0,1-6.11-10.552c-.995-2.272-1.835-4.543-2.63-6.928-.78-2.352-1.432-4.666-2.055-6.955a13.639,13.639,0,0,1-.037-1.645q.5-1.217,1.011-2.444c.016.1.039.211.056.319q.1,1.51.2,3.027l.285-.611A57.52,57.52,0,0,0,19.39,113.9c.308,1,.729,2.023,1.134,3.041s.84,2.022,1.308,3a36.995,36.995,0,0,0,6.34,11.676,47.652,47.652,0,0,0,5.372,5.643c-2.287-1.194-4.475-2.364-6.548-3.491m10.767-11.211A48.529,48.529,0,0,1,32.778,111.2c.259.415.5.83.8,1.253.308.4.638,1.247,1.185.619a36.632,36.632,0,0,0,5.955,10.195,23.032,23.032,0,0,0,1.654,1.74,18.813,18.813,0,0,0,1.936,1.536,11.605,11.605,0,0,0,.243,2.762,10.619,10.619,0,0,0,1.072,3,69.986,69.986,0,0,1-7.858-9.743m32.755-57.18h0m6.854,75.742.636.589a2.3,2.3,0,0,1-.636-.589M148.59,70.884a56.99,56.99,0,0,0-5.822-15.976,42.538,42.538,0,0,0-5.849-12.55,3.93,3.93,0,0,0,2.6.27,1.768,1.768,0,0,0,.473-.274A53.566,53.566,0,0,1,145.851,53.7a78.717,78.717,0,0,1,4.4,19.1,21.38,21.38,0,0,0-1.662-1.91" transform="translate(-5.055 -5.811)" fill="#c8c893"/>
        </g>
      </g>
      <g id="Grupo_1208261" data-name="Grupo 1208261" transform="translate(0 0)">
        <g id="Grupo_1208260" data-name="Grupo 1208260" clip-path="url(#clip-path-2)">
          <path id="Trazado_1404750" data-name="Trazado 1404750" d="M103.509,178.842a66.407,66.407,0,1,1,12.558-1.195,66.9,66.9,0,0,1-12.558,1.195m.274-130.967a65.393,65.393,0,0,0-12.278,1.168,64.407,64.407,0,1,0,12.278-1.168" transform="translate(-24.512 -30.387)" fill="#366400"/>
          <path id="Trazado_1404751" data-name="Trazado 1404751" d="M110.676,182.164a62.5,62.5,0,1,1,11.75-1.117l-.139-.727.139.727a62.607,62.607,0,0,1-11.75,1.117m.111-123.545A61.088,61.088,0,0,0,50.762,131.1a60.976,60.976,0,1,0,60.026-72.484" transform="translate(-31.565 -37.425)" fill="#366400"/>
          <path id="Trazado_1404752" data-name="Trazado 1404752" d="M114.19,137.13s-7.072,9.05,3.124,16.357c0,0,6.617-9.741-3.124-16.357" transform="translate(-73.229 -89.819)" fill="#e6ea94"/>
          <path id="Trazado_1404753" data-name="Trazado 1404753" d="M115.907,152.821a.74.74,0,0,1-.431-.138c-3.333-2.389-5.256-5.22-5.716-8.416a12.906,12.906,0,0,1,2.44-9,.741.741,0,0,1,1-.157c10.234,6.952,3.39,17.282,3.32,17.386a.74.74,0,0,1-.483.313.75.75,0,0,1-.13.011m-2.937-16.055a11.3,11.3,0,0,0-1.743,7.3A10.865,10.865,0,0,0,115.7,151c1.2-2.163,4.193-9.05-2.725-14.232" transform="translate(-71.822 -88.414)" fill="#366400"/>
          <path id="Trazado_1404754" data-name="Trazado 1404754" d="M120.442,152.821a.74.74,0,0,1-.726-.6l-3.124-16.357a.74.74,0,0,1,1.454-.278l3.124,16.357a.742.742,0,0,1-.728.879" transform="translate(-76.358 -88.413)" fill="#366400"/>
          <path id="Trazado_1404755" data-name="Trazado 1404755" d="M79.238,168.87s1.4,11.4,13.775,9.357c0,0-2.209-11.566-13.775-9.357" transform="translate(-51.9 -110.424)" fill="#e6ea94"/>
          <path id="Trazado_1404756" data-name="Trazado 1404756" d="M88.765,177.809a11.424,11.424,0,0,1-7.03-2.165,12.907,12.907,0,0,1-4.638-8.088.74.74,0,0,1,.6-.817c6.345-1.213,10,1.575,11.952,4.127a15.314,15.314,0,0,1,2.689,5.818.74.74,0,0,1-.607.869,18.218,18.218,0,0,1-2.963.256M78.7,168.071a11.3,11.3,0,0,0,3.932,6.4,10.863,10.863,0,0,0,8.058,1.74c-.682-2.376-3.437-9.362-11.99-8.136m-.87-.6h0Z" transform="translate(-50.494 -109.021)" fill="#366400"/>
          <path id="Trazado_1404757" data-name="Trazado 1404757" d="M91.607,178.1a.739.739,0,0,1-.415-.128L77.416,168.61a.741.741,0,0,1,.832-1.225l13.775,9.357a.741.741,0,0,1-.417,1.353" transform="translate(-50.495 -109.552)" fill="#366400"/>
          <path id="Trazado_1404758" data-name="Trazado 1404758" d="M149.112,152.575s-11.4,1.4-9.357,13.775c0,0,11.566-2.209,9.357-13.775" transform="translate(-91.378 -99.935)" fill="#e6ea94"/>
          <path id="Trazado_1404759" data-name="Trazado 1404759" d="M138.348,165.686a.74.74,0,0,1-.73-.62c-.668-4.046-.026-7.408,1.91-9.992a12.906,12.906,0,0,1,8.088-4.638.742.742,0,0,1,.817.6c1.212,6.346-1.576,10-4.128,11.952a15.327,15.327,0,0,1-5.818,2.689.758.758,0,0,1-.139.013M147.1,152.04a11.3,11.3,0,0,0-6.4,3.932,10.865,10.865,0,0,0-1.74,8.058c2.377-.682,9.365-3.434,8.136-11.99" transform="translate(-89.971 -98.531)" fill="#366400"/>
          <path id="Trazado_1404760" data-name="Trazado 1404760" d="M138.813,165.685a.74.74,0,0,1-.612-1.156l9.357-13.775a.74.74,0,1,1,1.225.832l-9.357,13.775a.74.74,0,0,1-.613.324" transform="translate(-90.437 -98.53)" fill="#366400"/>
          <path id="Trazado_1404761" data-name="Trazado 1404761" d="M128.577,195.415a.74.74,0,0,1-.726-.6l-2.45-12.829a.74.74,0,1,1,1.454-.277l2.45,12.828a.742.742,0,0,1-.728.879" transform="translate(-82.128 -118.622)" fill="#366400"/>
          <path id="Trazado_1404762" data-name="Trazado 1404762" d="M131.405,197.268a.741.741,0,0,1-.726-.6c-.758-3.8,2.889-7.583,3.045-7.743a.74.74,0,0,1,1.059,1.035c-.045.046-3.255,3.39-2.651,6.418a.74.74,0,0,1-.581.871.754.754,0,0,1-.146.014" transform="translate(-85.526 -123.601)" fill="#366400"/>
          <path id="Trazado_1404763" data-name="Trazado 1404763" d="M121.321,200.258a.741.741,0,0,1-.727-.608c-.555-3.043-4.787-4.97-4.829-4.99a.74.74,0,0,1,.6-1.352c.2.09,4.987,2.261,5.683,6.076a.741.741,0,0,1-.6.861.775.775,0,0,1-.134.012" transform="translate(-75.537 -126.573)" fill="#366400"/>
          <path id="Trazado_1404764" data-name="Trazado 1404764" d="M288.846,103.772s-7.073,9.05,3.124,16.357c0,0,6.617-9.741-3.124-16.357" transform="translate(-187.627 -67.97)" fill="#e6ea94"/>
          <path id="Trazado_1404765" data-name="Trazado 1404765" d="M290.563,119.464a.742.742,0,0,1-.431-.138c-3.333-2.389-5.256-5.22-5.716-8.416a12.908,12.908,0,0,1,2.44-9,.741.741,0,0,1,1-.157c10.235,6.952,3.391,17.282,3.321,17.386a.74.74,0,0,1-.483.313.748.748,0,0,1-.13.011m-2.937-16.055a11.3,11.3,0,0,0-1.742,7.3,10.865,10.865,0,0,0,4.468,6.928c1.2-2.163,4.193-9.05-2.726-14.232" transform="translate(-186.22 -66.564)" fill="#366400"/>
          <path id="Trazado_1404766" data-name="Trazado 1404766" d="M295.1,119.463a.74.74,0,0,1-.726-.6L291.248,102.5a.74.74,0,0,1,1.454-.278l3.124,16.357a.742.742,0,0,1-.728.879" transform="translate(-190.756 -66.563)" fill="#366400"/>
          <path id="Trazado_1404767" data-name="Trazado 1404767" d="M253.894,135.512s1.4,11.4,13.775,9.358c0,0-2.209-11.566-13.775-9.358" transform="translate(-166.298 -88.575)" fill="#e6ea94"/>
          <path id="Trazado_1404768" data-name="Trazado 1404768" d="M263.42,144.446a11.423,11.423,0,0,1-7.03-2.165,12.908,12.908,0,0,1-4.638-8.088.74.74,0,0,1,.6-.817c12.157-2.324,14.618,9.822,14.641,9.946a.74.74,0,0,1-.607.869,18.213,18.213,0,0,1-2.963.255m-10.063-9.738a11.3,11.3,0,0,0,3.932,6.4,10.863,10.863,0,0,0,8.058,1.74c-.682-2.376-3.435-9.365-11.99-8.136m-.87-.6h0Z" transform="translate(-164.892 -87.167)" fill="#366400"/>
          <path id="Trazado_1404769" data-name="Trazado 1404769" d="M266.262,144.737a.739.739,0,0,1-.415-.128l-13.776-9.357a.741.741,0,0,1,.832-1.225l13.776,9.357a.741.741,0,0,1-.417,1.353" transform="translate(-164.892 -87.703)" fill="#366400"/>
          <path id="Trazado_1404770" data-name="Trazado 1404770" d="M323.767,119.217s-11.4,1.4-9.357,13.775c0,0,11.566-2.209,9.357-13.775" transform="translate(-205.775 -78.086)" fill="#e6ea94"/>
          <path id="Trazado_1404771" data-name="Trazado 1404771" d="M313,132.327a.74.74,0,0,1-.73-.62c-.668-4.046-.026-7.408,1.91-9.993a12.906,12.906,0,0,1,8.088-4.638.74.74,0,0,1,.817.6c1.212,6.346-1.575,10-4.128,11.952a15.327,15.327,0,0,1-5.818,2.689.755.755,0,0,1-.139.013m8.752-13.646a11.3,11.3,0,0,0-6.4,3.932,10.866,10.866,0,0,0-1.74,8.058c2.377-.682,9.364-3.434,8.136-11.99" transform="translate(-204.369 -76.68)" fill="#366400"/>
          <path id="Trazado_1404772" data-name="Trazado 1404772" d="M313.469,132.328a.741.741,0,0,1-.612-1.157l9.357-13.775a.74.74,0,1,1,1.225.832L314.083,132a.741.741,0,0,1-.613.324" transform="translate(-204.835 -76.682)" fill="#366400"/>
          <path id="Trazado_1404773" data-name="Trazado 1404773" d="M303.233,162.058a.74.74,0,0,1-.726-.6l-2.45-12.829a.74.74,0,1,1,1.454-.277l2.45,12.828a.742.742,0,0,1-.728.879" transform="translate(-196.526 -96.774)" fill="#366400"/>
          <path id="Trazado_1404774" data-name="Trazado 1404774" d="M306.062,163.91a.741.741,0,0,1-.726-.6c-.759-3.8,2.888-7.583,3.044-7.743a.74.74,0,0,1,1.059,1.035c-.045.046-3.255,3.39-2.651,6.418a.74.74,0,0,1-.581.871.751.751,0,0,1-.146.014" transform="translate(-199.925 -101.752)" fill="#366400"/>
          <path id="Trazado_1404775" data-name="Trazado 1404775" d="M295.976,166.9a.741.741,0,0,1-.727-.608c-.555-3.043-4.787-4.971-4.83-4.99a.74.74,0,0,1,.6-1.352c.2.09,4.987,2.262,5.683,6.076a.741.741,0,0,1-.6.861.776.776,0,0,1-.134.012" transform="translate(-189.935 -104.724)" fill="#366400"/>
          <path id="Trazado_1404776" data-name="Trazado 1404776" d="M202.313,112.945s-7.669,9.813,3.388,17.737c0,0,7.174-10.562-3.388-17.737" transform="translate(-130.817 -73.978)" fill="#e6ea94"/>
          <path id="Trazado_1404777" data-name="Trazado 1404777" d="M204.292,130.016a.744.744,0,0,1-.431-.138c-3.6-2.58-5.676-5.636-6.172-9.084a13.924,13.924,0,0,1,2.632-9.71.74.74,0,0,1,1-.157c11.046,7.5,3.66,18.653,3.584,18.765a.741.741,0,0,1-.613.324m-3.2-17.437a12.341,12.341,0,0,0-1.934,8.018c.41,2.821,2.063,5.373,4.919,7.594a15.374,15.374,0,0,0,1.755-5.24c.539-4.153-1.055-7.638-4.741-10.372" transform="translate(-129.409 -72.573)" fill="#366400"/>
          <path id="Trazado_1404778" data-name="Trazado 1404778" d="M209.21,130.016a.74.74,0,0,1-.726-.6L205.1,111.678a.74.74,0,0,1,1.454-.278l3.387,17.736a.742.742,0,0,1-.728.879" transform="translate(-134.327 -72.572)" fill="#366400"/>
          <path id="Trazado_1404779" data-name="Trazado 1404779" d="M164.413,147.362s1.516,12.361,14.937,10.146c0,0-2.4-12.541-14.937-10.146" transform="translate(-107.689 -96.321)" fill="#e6ea94"/>
          <path id="Trazado_1404780" data-name="Trazado 1404780" d="M174.862,157.112a12.33,12.33,0,0,1-7.586-2.335,13.928,13.928,0,0,1-5-8.727.74.74,0,0,1,.6-.817c6.85-1.31,10.8,1.7,12.9,4.452a16.535,16.535,0,0,1,2.9,6.282.74.74,0,0,1-.606.869,19.646,19.646,0,0,1-3.2.276m-10.988-10.549a12.345,12.345,0,0,0,4.3,7.037c2.286,1.706,5.263,2.339,8.856,1.89-.711-2.526-3.69-10.327-13.158-8.927m-.867-.6h0Z" transform="translate(-106.283 -94.919)" fill="#366400"/>
          <path id="Trazado_1404781" data-name="Trazado 1404781" d="M177.943,157.421a.739.739,0,0,1-.415-.128l-14.937-10.146a.74.74,0,0,1,.832-1.225l14.937,10.146a.741.741,0,0,1-.417,1.353" transform="translate(-106.283 -95.494)" fill="#366400"/>
          <path id="Trazado_1404782" data-name="Trazado 1404782" d="M240.178,129.693s-12.361,1.516-10.146,14.937c0,0,12.541-2.4,10.146-14.937" transform="translate(-150.495 -84.948)" fill="#e6ea94"/>
          <path id="Trazado_1404783" data-name="Trazado 1404783" d="M228.626,143.964a.74.74,0,0,1-.73-.62c-.721-4.37-.028-8,2.059-10.788a13.93,13.93,0,0,1,8.727-5,.74.74,0,0,1,.817.6c2.505,13.117-10.6,15.777-10.734,15.8a.754.754,0,0,1-.139.013m9.542-14.81a12.344,12.344,0,0,0-7.037,4.3c-1.706,2.286-2.341,5.263-1.89,8.856,2.527-.711,10.325-3.692,8.927-13.158" transform="translate(-149.089 -83.542)" fill="#366400"/>
          <path id="Trazado_1404784" data-name="Trazado 1404784" d="M229.13,143.966a.741.741,0,0,1-.612-1.157l10.146-14.936a.741.741,0,1,1,1.225.832l-10.146,14.937a.74.74,0,0,1-.613.324" transform="translate(-149.594 -83.543)" fill="#366400"/>
          <path id="Trazado_1404785" data-name="Trazado 1404785" d="M218.031,176.2a.74.74,0,0,1-.727-.6l-2.657-13.91a.74.74,0,0,1,1.454-.277l2.657,13.91a.74.74,0,0,1-.589.866.733.733,0,0,1-.139.013" transform="translate(-140.584 -105.33)" fill="#366400"/>
          <path id="Trazado_1404786" data-name="Trazado 1404786" d="M221.1,178.21a.741.741,0,0,1-.726-.6c-.816-4.091,3.117-8.168,3.285-8.34a.74.74,0,0,1,1.059,1.035c-.036.037-3.554,3.693-2.891,7.015a.74.74,0,0,1-.581.871.751.751,0,0,1-.145.014" transform="translate(-144.268 -110.728)" fill="#366400"/>
          <path id="Trazado_1404787" data-name="Trazado 1404787" d="M210.162,181.452a.741.741,0,0,1-.727-.608c-.61-3.344-5.226-5.435-5.272-5.455a.74.74,0,1,1,.6-1.352c.219.1,5.377,2.438,6.127,6.542a.741.741,0,0,1-.6.861.776.776,0,0,1-.134.012" transform="translate(-133.437 -113.951)" fill="#366400"/>
          <path id="Trazado_1404788" data-name="Trazado 1404788" d="M97.793,254.163l-3.28.626-.227,2.265-2.7.515,1.492-11.716,1.371-.262v.007l.006-.009,1.371-.262,5.712,10.34-2.7.515Zm-3.064-1.456,2.1-.4-1.684-3.227-.045.009Z" transform="translate(-59.991 -160.688)" fill="#60462a"/>
          <path id="Trazado_1404789" data-name="Trazado 1404789" d="M129.314,244.212l.046-.009,1.018-8.195,3.386-.647,2.107,11.029-2.561.489-1.357-7.105h-.047l-1.073,7.577-1.72.328-3.724-6.551-.044.016,1.337,7-2.561.489-2.106-11.029,3.356-.641Z" transform="translate(-79.919 -154.16)" fill="#60462a"/>
          <path id="Trazado_1404790" data-name="Trazado 1404790" d="M168.664,242.765l-2.106-11.029,3.613-.69a5.862,5.862,0,0,1,3.346.15,2.589,2.589,0,0,1,1.58,2.05,2.725,2.725,0,0,1-.1,1.467,2.281,2.281,0,0,1-.961,1.138,2.334,2.334,0,0,1,1.626.6,2.636,2.636,0,0,1,.767,1.447,2.928,2.928,0,0,1-.618,2.646,5.133,5.133,0,0,1-2.948,1.419ZM170,235.845l1.007-.193a2.438,2.438,0,0,0,1.318-.585,1.117,1.117,0,0,0,.271-1.045,1.208,1.208,0,0,0-.635-.943,2.327,2.327,0,0,0-1.41-.065l-1.053.2Zm.324,1.7.528,2.765,1.644-.314a2,2,0,0,0,1.166-.557,1.2,1.2,0,0,0,.22-1.067,1.483,1.483,0,0,0-.563-1,1.72,1.72,0,0,0-1.26-.16l-.083.016Z" transform="translate(-109.094 -151.225)" fill="#60462a"/>
          <rect id="Rectángulo_458722" data-name="Rectángulo 458722" width="2.599" height="11.228" transform="translate(69.377 78.235) rotate(-10.813)" fill="#60462a"/>
          <path id="Trazado_1404791" data-name="Trazado 1404791" d="M227.088,225.716l-3.886.742.525,2.75,4.659-.89.376,1.969-7.219,1.379-2.107-11.029,7.227-1.38.376,1.969-4.666.891.453,2.371,3.886-.742Z" transform="translate(-143.729 -143.612)" fill="#60462a"/>
          <path id="Trazado_1404792" data-name="Trazado 1404792" d="M261.23,223.373l-2.552.487-5.363-6.167-.042.024,1.322,6.924-2.561.489L249.927,214.1l2.561-.489,5.361,6.16.043-.024-1.321-6.916,2.553-.487Z" transform="translate(-163.7 -139.084)" fill="#60462a"/>
          <path id="Trazado_1404793" data-name="Trazado 1404793" d="M293.219,208.184l-2.916.557,1.73,9.06-2.56.489-1.731-9.06-2.864.547-.376-1.969,8.34-1.593Z" transform="translate(-186.347 -135.068)" fill="#60462a"/>
          <path id="Trazado_1404794" data-name="Trazado 1404794" d="M324.557,210.852l-3.28.626-.227,2.266-2.7.515,1.492-11.716,1.371-.262v.007l.006-.009,1.371-.262,5.712,10.34-2.7.515Zm-3.065-1.456,2.1-.4-1.684-3.227-.045.009Z" transform="translate(-208.519 -132.32)" fill="#60462a"/>
          <path id="Trazado_1404795" data-name="Trazado 1404795" d="M353.068,206.2l4.734-.9.376,1.969-7.295,1.393-2.107-11.029,2.56-.489Z" transform="translate(-228.447 -129.123)" fill="#60462a"/>
          <rect id="Rectángulo_458723" data-name="Rectángulo 458723" width="121.262" height="1.48" transform="matrix(0.982, -0.188, 0.188, 0.982, 17.233, 81.189)" fill="#366400"/>
          <rect id="Rectángulo_458724" data-name="Rectángulo 458724" width="121.262" height="1.48" transform="matrix(0.982, -0.188, 0.188, 0.982, 21.533, 103.702)" fill="#366400"/>
          <path id="Trazado_1404796" data-name="Trazado 1404796" d="M267.756,284.514a.756.756,0,0,1-.176-.021.741.741,0,0,1-.544-.895,5.563,5.563,0,0,1,1.228-2.7,4.383,4.383,0,0,1,4.174-2,3.406,3.406,0,0,1,1.063.369,1.927,1.927,0,0,0,.649.229,1.321,1.321,0,0,0,1.016-.313,5.355,5.355,0,0,0,1.728-3.257,6.117,6.117,0,0,0-.424-3.918,2.669,2.669,0,0,0-.887.062c-.734.123-1.843.309-2.386-.673a2.01,2.01,0,0,1-.18-1.185,13.355,13.355,0,0,1,6.832-10.41,26.818,26.818,0,0,1,2.879-1.287,12.19,12.19,0,0,0,4.693-2.71c1.326-1.452,1.864-3.547,2.338-5.4a.74.74,0,0,1,1.434.368c-.492,1.916-1.1,4.3-2.678,6.027a13.473,13.473,0,0,1-5.237,3.086,25.607,25.607,0,0,0-2.72,1.212,12.02,12.02,0,0,0-6.066,9.242.912.912,0,0,0,0,.338,2.836,2.836,0,0,0,.845-.073c.715-.12,1.793-.3,2.384.59a.737.737,0,0,1,.064.119,7.579,7.579,0,0,1,.576,4.8,6.8,6.8,0,0,1-2.31,4.251,2.8,2.8,0,0,1-2.135.588,3.348,3.348,0,0,1-1.084-.371,1.99,1.99,0,0,0-.643-.23,2.983,2.983,0,0,0-2.715,1.392,4.324,4.324,0,0,0-1,2.2.74.74,0,0,1-.719.565" transform="translate(-174.892 -163.652)" fill="#366400"/>
          <path id="Trazado_1404797" data-name="Trazado 1404797" d="M223.64,333.725a7.773,7.773,0,0,1-1.831-.226,16,16,0,0,1-3.956-1.713,5.371,5.371,0,0,1-1.874-1.478,2.4,2.4,0,0,1-.1-2.82,3.148,3.148,0,0,1,.692-.627l3.053-2.215a11.677,11.677,0,0,1,7.139-2.574l6.257-.788c1.3-.163,2.2.261,2.431,1.134h0a2.037,2.037,0,0,1-.644,1.811l-5.822,6.573a9.481,9.481,0,0,1-2.64,2.306,5.887,5.887,0,0,1-2.707.617m9.906-11a2.758,2.758,0,0,0-.339.023l-6.257.788a10.293,10.293,0,0,0-6.454,2.3l-3.053,2.214a1.971,1.971,0,0,0-.384.326.98.98,0,0,0,.125,1.059,4.122,4.122,0,0,0,1.391,1.048,14.742,14.742,0,0,0,3.585,1.568,5.085,5.085,0,0,0,3.51-.268,8.232,8.232,0,0,0,2.21-1.972l5.822-6.573a1.438,1.438,0,0,0,.313-.444,1.158,1.158,0,0,0-.467-.073m.492.089h0Z" transform="translate(-141.131 -210.415)" fill="#366400"/>
          <path id="Trazado_1404798" data-name="Trazado 1404798" d="M167.934,297.774a.74.74,0,0,1-.544-1.242c.807-.874.716-2.123.528-3.546a6.329,6.329,0,0,0-.973-2.342l-.187-.326a1.771,1.771,0,0,1-.12-1.493,1.749,1.749,0,0,1,1.05-1.043c.131-.047.264-.091.393-.127a1.533,1.533,0,0,1,1.884,1.03,3.884,3.884,0,0,0,1.112,2,2.888,2.888,0,0,0,2.721.217,10.026,10.026,0,0,0,2.775-1.858l1.931-1.624c1.163-.978,2.057-1.821,2.1-3a1.23,1.23,0,0,0-.818-1.276c-.385-.1-.711.079-1.253.4a5.664,5.664,0,0,1-.95.489,2.241,2.241,0,0,1-2.229-.469,1.369,1.369,0,0,1-.343-1.468.737.737,0,0,1,.332-.391,7.8,7.8,0,0,0,3.53-4.289l.047-.143a3.322,3.322,0,0,1,.566-1.168,3.361,3.361,0,0,1,1.484-.913l4.47-1.684c.1-.038.209-.072.32-.108a2.476,2.476,0,0,0,.41-.152.74.74,0,0,1,1.394.494,1.787,1.787,0,0,1-1.361,1.072c-.084.026-.166.052-.241.08l-4.471,1.684a2.184,2.184,0,0,0-.867.473,2.159,2.159,0,0,0-.295.676l-.051.154a9.308,9.308,0,0,1-3.633,4.759.726.726,0,0,0,.424,0,4.474,4.474,0,0,0,.7-.37,2.969,2.969,0,0,1,2.385-.568,2.672,2.672,0,0,1,1.927,2.767c-.076,1.929-1.552,3.171-2.63,4.078l-1.931,1.623a11.314,11.314,0,0,1-3.208,2.111,4.322,4.322,0,0,1-4.153-.437,5.185,5.185,0,0,1-1.619-2.74.045.045,0,0,0-.059-.028c-.1.028-.2.061-.3.1a.268.268,0,0,0-.162.163.29.29,0,0,0,.019.247l.183.317a7.659,7.659,0,0,1,1.157,2.888c.22,1.664.332,3.4-.907,4.744a.739.739,0,0,1-.544.238" transform="translate(-109.074 -178.671)" fill="#366400"/>
          <path id="Trazado_1404799" data-name="Trazado 1404799" d="M165.047,283.775a3,3,0,0,1-2.146-.976,6.266,6.266,0,0,1-1.248-2.889.74.74,0,0,1,1.442-.337,5.063,5.063,0,0,0,.9,2.233c.382.423,1.1.658,1.5.34a2.332,2.332,0,0,0,.262-.277,2.236,2.236,0,0,1,1.8-.93l.2-.024c1.682-.234,2.976-1.781,4.157-3.345a.74.74,0,1,1,1.182.892c-1.368,1.812-2.892,3.607-5.134,3.919-.079.011-.16.02-.24.029a1.59,1.59,0,0,0-.526.11,1.569,1.569,0,0,0-.313.311,3.448,3.448,0,0,1-.455.465,2.16,2.16,0,0,1-1.381.478" transform="translate(-105.868 -181.613)" fill="#366400"/>
          <path id="Trazado_1404800" data-name="Trazado 1404800" d="M201.377,345.685a2.119,2.119,0,0,1-1.75-1.027,3.562,3.562,0,0,1-.345-2.254h0a3.368,3.368,0,0,1,1.042-2.311,2.017,2.017,0,0,1,1.777-.37,1.584,1.584,0,0,1,1.1.965,2.3,2.3,0,0,1,.009,1.334c-.021.1-.042.195-.055.292a5.5,5.5,0,0,0-.024.744,2.456,2.456,0,0,1-.926,2.4,1.633,1.633,0,0,1-.83.224m-.623-3.116a2.141,2.141,0,0,0,.146,1.333c.133.225.439.352.56.281.187-.109.2-.529.192-1.109a6.583,6.583,0,0,1,.037-.958c.018-.131.045-.264.073-.4a1.337,1.337,0,0,0,.053-.512.166.166,0,0,0-.1-.054.549.549,0,0,0-.454.085,1.972,1.972,0,0,0-.509,1.331" transform="translate(-130.501 -222.471)" fill="#366400"/>
          <path id="Trazado_1404801" data-name="Trazado 1404801" d="M219.647,295.7a.74.74,0,0,1-.635-.361l-2-3.337a6.8,6.8,0,0,1-.964-2.177,2.808,2.808,0,0,1,.787-2.662,3.779,3.779,0,0,1,1.836-.74,1.831,1.831,0,0,1,1.629.3,1.8,1.8,0,0,1,.5,1.078l1,5.652a2.092,2.092,0,0,1-.038,1.14c-.268.709-.977,1.083-2.109,1.112Zm-.36-7.865a1.84,1.84,0,0,0-.33.042,2.581,2.581,0,0,0-1.144.4,1.36,1.36,0,0,0-.308,1.266,5.6,5.6,0,0,0,.781,1.7l1.76,2.942c.283-.046.344-.119.344-.12a1.335,1.335,0,0,0-.034-.357l-1-5.652c-.008-.047-.028-.154-.048-.221h-.017" transform="translate(-141.472 -187.563)" fill="#366400"/>
          <path id="Trazado_1404802" data-name="Trazado 1404802" d="M235.966,294.359a1.556,1.556,0,0,1-.7-.165,1.961,1.961,0,0,1-.8-.8,3.568,3.568,0,0,1-.138-3.3h0a2.232,2.232,0,0,1,2.425-1.362,2.069,2.069,0,0,1,1.454,1.853,4.634,4.634,0,0,1-.3,1.868c-.385,1.212-1,1.854-1.836,1.909-.034,0-.068,0-.1,0m-.3-3.632a2.1,2.1,0,0,0,.08,1.915.577.577,0,0,0,.189.228.059.059,0,0,0,.037.007c.092-.006.305-.2.522-.879a3.407,3.407,0,0,0,.243-1.273.655.655,0,0,0-.347-.565c-.217-.058-.552.21-.723.567" transform="translate(-153.262 -189.078)" fill="#366400"/>
          <path id="Trazado_1404803" data-name="Trazado 1404803" d="M156.351,284.7a43.159,43.159,0,0,1-18.973-4.4,43.947,43.947,0,0,1-19.388-18.66.74.74,0,1,1,1.307-.7,42.453,42.453,0,0,0,18.73,18.026,42.106,42.106,0,0,0,49.668-9.656A42.418,42.418,0,0,0,198.338,245.3a.741.741,0,0,1,1.474.146A43.913,43.913,0,0,1,188.8,270.3a43.188,43.188,0,0,1-24.18,13.609,44.028,44.028,0,0,1-8.264.788" transform="translate(-77.225 -160.229)" fill="#366400"/>
          <path id="Trazado_1404804" data-name="Trazado 1404804" d="M145.434,105.095l-.661-.994a2.335,2.335,0,0,0,.589,0,3.965,3.965,0,0,0,.637-.13,4.768,4.768,0,0,0,.614-.224,3.569,3.569,0,0,0,.521-.282,2.311,2.311,0,0,0,.97-1.061,1.3,1.3,0,0,0-.633-1.507,1.74,1.74,0,0,0-.616-.159,4.2,4.2,0,0,0-.761.014q-.417.042-.893.1-.5.06-.959.081a3.639,3.639,0,0,1-.854-.055,2.153,2.153,0,0,1-.734-.283,2.187,2.187,0,0,1-.956-1.607,2.213,2.213,0,0,1,.169-.977,3.091,3.091,0,0,1,.567-.884,4.381,4.381,0,0,1,.839-.723,4.205,4.205,0,0,1,1.721-.775l.63.948a3.368,3.368,0,0,0-1.929.646,3.221,3.221,0,0,0-.514.424,1.881,1.881,0,0,0-.367.515,1.317,1.317,0,0,0-.128.57,1.074,1.074,0,0,0,.2.592,1.238,1.238,0,0,0,.42.408,1.407,1.407,0,0,0,.547.165,3.638,3.638,0,0,0,.7,0q.392-.036.892-.1t1-.086a4.033,4.033,0,0,1,.917.063,2.509,2.509,0,0,1,.791.292,1.913,1.913,0,0,1,.627.611,2.169,2.169,0,0,1,.39,1.039,2.053,2.053,0,0,1-.164.973,2.952,2.952,0,0,1-.593.876,5.431,5.431,0,0,1-.9.75,4.808,4.808,0,0,1-.44.253q-.269.139-.565.26a5.024,5.024,0,0,1-.581.2,1.838,1.838,0,0,1-.489.076" transform="translate(-92.81 -62.636)" fill="#60462a"/>
          <path id="Trazado_1404805" data-name="Trazado 1404805" d="M173.447,90.39l-4.227,1.761L165.9,84.176l4.049-1.687.352.845-3.114,1.3,1.105,2.653,2.881-1.2.35.84-2.88,1.2,1.163,2.792,3.292-1.372Z" transform="translate(-108.661 -54.03)" fill="#60462a"/>
          <path id="Trazado_1404806" data-name="Trazado 1404806" d="M199.2,84.956l-4.382.944-1.82-8.445.99-.213,1.626,7.551L199,84.06Z" transform="translate(-126.41 -50.592)" fill="#60462a"/>
          <path id="Trazado_1404807" data-name="Trazado 1404807" d="M224.767,81.985l-4.48.159-.307-8.634,1.012-.036.274,7.719,3.468-.123Z" transform="translate(-144.085 -48.125)" fill="#60462a"/>
          <path id="Trazado_1404808" data-name="Trazado 1404808" d="M245.961,83.819a3.8,3.8,0,0,1-2.692-1.7,4.49,4.49,0,0,1-.549-3.294,4.756,4.756,0,0,1,1.68-3.084,3.934,3.934,0,0,1,3.234-.7,3.708,3.708,0,0,1,2.634,1.681,4.508,4.508,0,0,1,.538,3.292,4.776,4.776,0,0,1-1.677,3.1,3.864,3.864,0,0,1-3.167.7m1.444-7.882a2.786,2.786,0,0,0-2.346.589,4.369,4.369,0,0,0-.9,5.068,2.7,2.7,0,0,0,1.961,1.329,2.835,2.835,0,0,0,2.367-.53,3.794,3.794,0,0,0,1.252-2.418,3.963,3.963,0,0,0-.331-2.742,2.725,2.725,0,0,0-2-1.3" transform="translate(-158.92 -49.102)" fill="#60462a"/>
          <path id="Trazado_1404809" data-name="Trazado 1404809" d="M281.154,86.86a1.006,1.006,0,1,0-.8,1.175,1.005,1.005,0,0,0,.8-1.175" transform="translate(-182.848 -56.356)" fill="#366400"/>
          <path id="Trazado_1404810" data-name="Trazado 1404810" d="M126.768,116.346a1.006,1.006,0,1,0-.8,1.175,1.005,1.005,0,0,0,.8-1.175" transform="translate(-81.726 -75.669)" fill="#366400"/>
          <path id="Trazado_1404811" data-name="Trazado 1404811" d="M119.952,346.429a5.071,5.071,0,0,1-2.1-1.244,3.848,3.848,0,0,1-1.367-2.874,4.377,4.377,0,0,1,1.3-3.042,4.588,4.588,0,0,1,3.187-1.618,4.235,4.235,0,0,1,3.192,1.2,5.065,5.065,0,0,1,1.257,1.642l-.731.793a4.129,4.129,0,0,0-1.155-1.77,3.143,3.143,0,0,0-2.448-.9,3.745,3.745,0,0,0-2.481,1.327,3.557,3.557,0,0,0-1.069,2.436,2.941,2.941,0,0,0,1.033,2.226,4.256,4.256,0,0,0,2.049,1.1Z" transform="translate(-76.298 -221.154)" fill="#60462a"/>
          <path id="Trazado_1404812" data-name="Trazado 1404812" d="M142.489,362.725a3.792,3.792,0,0,1-1.915-2.541,4.492,4.492,0,0,1,.654-3.275,4.759,4.759,0,0,1,2.665-2.287,3.933,3.933,0,0,1,3.271.494,3.708,3.708,0,0,1,1.867,2.506,4.512,4.512,0,0,1-.665,3.269A4.778,4.778,0,0,1,145.7,363.2a3.86,3.86,0,0,1-3.208-.471m4.145-6.858a2.784,2.784,0,0,0-2.4-.281A4.365,4.365,0,0,0,141.59,360a2.7,2.7,0,0,0,1.362,1.938,2.835,2.835,0,0,0,2.4.344,3.791,3.791,0,0,0,2.028-1.817,3.962,3.962,0,0,0,.663-2.681,2.727,2.727,0,0,0-1.411-1.921" transform="translate(-92.019 -232.167)" fill="#60462a"/>
          <path id="Trazado_1404813" data-name="Trazado 1404813" d="M174.975,375.967l-4.228-1.489,2.869-8.149.955.336-2.565,7.285,3.273,1.153Z" transform="translate(-111.838 -239.942)" fill="#60462a"/>
          <path id="Trazado_1404814" data-name="Trazado 1404814" d="M198.673,382.619a3.791,3.791,0,0,1-2.731-1.634,4.492,4.492,0,0,1-.625-3.28,4.76,4.76,0,0,1,1.608-3.121,3.937,3.937,0,0,1,3.217-.772,3.707,3.707,0,0,1,2.672,1.62,4.507,4.507,0,0,1,.613,3.278,4.773,4.773,0,0,1-1.6,3.14,3.86,3.86,0,0,1-3.15.77m1.261-7.913a2.784,2.784,0,0,0-2.333.643,4.369,4.369,0,0,0-.785,5.088,2.7,2.7,0,0,0,1.991,1.283,2.836,2.836,0,0,0,2.354-.585,3.79,3.79,0,0,0,1.2-2.446,3.958,3.958,0,0,0-.394-2.734,2.727,2.727,0,0,0-2.03-1.249" transform="translate(-127.886 -244.803)" fill="#60462a"/>
          <path id="Trazado_1404815" data-name="Trazado 1404815" d="M240.135,382.4l-1,.1-.589-5.766q-.07-.684-.087-1.681l-.024,0a5.494,5.494,0,0,1-.173.859l-2.263,6.9-.491.05-3.6-6.258a5.216,5.216,0,0,1-.347-.855l-.024,0q.1.51.22,1.679l.587,5.754-.971.1-.877-8.594,1.33-.136,3.249,5.725a7.7,7.7,0,0,1,.5.99l.036,0q.186-.733.306-1.1L238,373.929l1.259-.129Z" transform="translate(-150.972 -244.836)" fill="#60462a"/>
          <path id="Trazado_1404816" data-name="Trazado 1404816" d="M269.812,377.033l-2.773-8.182,2.328-.789a2.685,2.685,0,0,1,1.859-.051,1.772,1.772,0,0,1,1.081,1.142,2.1,2.1,0,0,1,.033,1.337,2.141,2.141,0,0,1-.791,1.082l.008.023a2.2,2.2,0,0,1,1.536.176,2.032,2.032,0,0,1,.962,1.2,2.26,2.26,0,0,1-.177,1.956,2.96,2.96,0,0,1-1.679,1.294Zm-1.52-7.64.9,2.642.981-.333a1.966,1.966,0,0,0,1.11-.8,1.394,1.394,0,0,0,.088-1.223q-.4-1.192-1.973-.66Zm1.187,3.5,1,2.944,1.3-.441a2.056,2.056,0,0,0,1.174-.844,1.443,1.443,0,0,0,.094-1.253q-.491-1.449-2.466-.78Z" transform="translate(-174.908 -240.951)" fill="#60462a"/>
          <path id="Trazado_1404817" data-name="Trazado 1404817" d="M291.568,358.589l.4.77-.749.389,3.179,6.129.749-.388.4.77-2.4,1.243-.4-.77.749-.388-3.179-6.129-.749.388-.4-.77Z" transform="translate(-189.405 -234.873)" fill="#60462a"/>
          <path id="Trazado_1404818" data-name="Trazado 1404818" d="M318.622,352.852l-.9.668-2.179-1.4-2.941,2.184.752,2.459-.9.671-2.492-8.911.842-.625Zm-3.887-1.263-3.284-2.147a3.485,3.485,0,0,1-.451-.385l-.02.015a3.258,3.258,0,0,1,.234.547l1.116,3.757Z" transform="translate(-203.02 -227.871)" fill="#60462a"/>
          <path id="Trazado_1404819" data-name="Trazado 1404819" d="M337.572,326.53l-.814.937-8.115-1.159a2.864,2.864,0,0,1-.591-.146l-.024.027a8.984,8.984,0,0,1,.928.742l4.712,4.092-.663.764-6.524-5.665.862-.992,7.953,1.178q.5.072.666.115l.016-.018a9.225,9.225,0,0,1-1-.788l-4.594-3.99.664-.765Z" transform="translate(-213.843 -210.164)" fill="#60462a"/>
          <path id="Trazado_1404820" data-name="Trazado 1404820" d="M357.574,302.148a3.794,3.794,0,0,1-2.447,2.036,4.49,4.49,0,0,1-3.3-.5,4.762,4.762,0,0,1-2.414-2.551,3.936,3.936,0,0,1,.337-3.291,3.708,3.708,0,0,1,2.413-1.986,4.508,4.508,0,0,1,3.3.506,4.774,4.774,0,0,1,2.432,2.554,3.863,3.863,0,0,1-.316,3.227m-7.05-3.81a2.786,2.786,0,0,0-.165,2.414,4.366,4.366,0,0,0,4.541,2.425,2.7,2.7,0,0,0,1.87-1.454,2.838,2.838,0,0,0,.228-2.415,3.8,3.8,0,0,0-1.912-1.939,3.963,3.963,0,0,0-2.71-.533,2.729,2.729,0,0,0-1.851,1.5" transform="translate(-228.717 -193.705)" fill="#60462a"/>
          <path id="Trazado_1404821" data-name="Trazado 1404821" d="M372.3,278.474a1.006,1.006,0,1,0-.8,1.175,1.005,1.005,0,0,0,.8-1.175" transform="translate(-242.547 -181.862)" fill="#366400"/>
          <path id="Trazado_1404822" data-name="Trazado 1404822" d="M106.2,329.3a1.006,1.006,0,1,0-.8,1.175,1.005,1.005,0,0,0,.8-1.175" transform="translate(-68.251 -215.151)" fill="#366400"/>
        </g>
      </g>
    </g>
  </g>
</svg>
