<svg xmlns="http://www.w3.org/2000/svg" xmlns:xlink="http://www.w3.org/1999/xlink" width="85.189" height="87.857" viewBox="0 0 85.189 87.857">
  <defs>
    <clipPath id="clip-path">
      <rect id="Rectángulo_456684" data-name="Rectángulo 456684" width="83.499" height="84.288" fill="#f0b068"/>
    </clipPath>
    <clipPath id="clip-path-2">
      <rect id="Rectángulo_458528" data-name="Rectángulo 458528" width="80.189" height="86.043" fill="none"/>
    </clipPath>
  </defs>
  <g id="Grupo_1208299" data-name="Grupo 1208299" transform="translate(-223.711 -1940.838)">
    <g id="Grupo_1206676" data-name="Grupo 1206676" transform="translate(223.711 1944.406)">
      <g id="Grupo_1206514" data-name="Grupo 1206514">
        <g id="Grupo_1206513" data-name="Grupo 1206513" clip-path="url(#clip-path)">
          <path id="Trazado_1294880" data-name="Trazado 1294880" d="M176.031,89.78c-.1-.657-.543-.29-.44-.308-.025.39.368.25.44.308" transform="translate(-92.532 -47.108)" fill="#f0b068"/>
          <path id="Trazado_1294881" data-name="Trazado 1294881" d="M172.186,75.475l.179.085-.554-.848Z" transform="translate(-90.548 -39.375)" fill="#f0b068"/>
          <path id="Trazado_1294882" data-name="Trazado 1294882" d="M170.225,67.512l.637.345c-.193-.615-.445-1.313-.706-1.954a6.487,6.487,0,0,1-.514-1.7c-.5.727.717,2.011.694,3.106Z" transform="translate(-89.342 -33.837)" fill="#f0b068"/>
          <path id="Trazado_1294883" data-name="Trazado 1294883" d="M170.37,57.373c-.052-.121-.118-.29-.213-.584-.17.284-.468-.57.2.735a1.123,1.123,0,0,1,.012-.151" transform="translate(-89.563 -29.921)" fill="#f0b068"/>
          <path id="Trazado_1294884" data-name="Trazado 1294884" d="M170.847,57.9c.253.592.052-.471,0,0" transform="translate(-90.04 -30.451)" fill="#f0b068"/>
          <path id="Trazado_1294885" data-name="Trazado 1294885" d="M168.683,51.778c-.478-.744-.541-.509-.569.047l.562.674c.07-.224-.211-.93.007-.72" transform="translate(-88.6 -27.041)" fill="#f0b068"/>
          <path id="Trazado_1294886" data-name="Trazado 1294886" d="M166.736,51.676c.027-.1,0-.213-.278-.346l.143.171.135.175" transform="translate(-87.727 -27.052)" fill="#f0b068"/>
          <path id="Trazado_1294887" data-name="Trazado 1294887" d="M167.2,52.413c-.212.016.036.1.327.4l-.57-.75c-.048.158-.242.261.243.352" transform="translate(-87.949 -27.437)" fill="#f0b068"/>
          <path id="Trazado_1294888" data-name="Trazado 1294888" d="M168.13,54.74c.065.485.194,1.08-.338.4.674,1.434,1.048,1.043.338-.4" transform="translate(-88.43 -28.849)" fill="#f0b068"/>
          <path id="Trazado_1294889" data-name="Trazado 1294889" d="M168.51,65.112a1.766,1.766,0,0,1-.162-.655c-.042-.252-.1-.462-.19-.412l0,.315c0,.157-.009.317-.009.317Z" transform="translate(-88.619 -33.749)" fill="#f0b068"/>
          <path id="Trazado_1294890" data-name="Trazado 1294890" d="M163.28,43.3c-.066-.332-.324-.887-.166-1.038-.15.032-.171.443-.294.591,0,0,.121.107.234.22l.226.227" transform="translate(-85.81 -22.272)" fill="#f0b068"/>
          <path id="Trazado_1294891" data-name="Trazado 1294891" d="M162.031,42.789l-.707-.646c.42.708.6.773.707.646" transform="translate(-85.021 -22.21)" fill="#f0b068"/>
          <path id="Trazado_1294892" data-name="Trazado 1294892" d="M165.3,52.028l.544.575-.607-.7c-.148-.177-.313-.344-.431-.471l-.2-.21.136.252s.292.271.557.559" transform="translate(-86.751 -26.993)" fill="#f0b068"/>
          <path id="Trazado_1294893" data-name="Trazado 1294893" d="M159.339,35.963l-.479-.239-.493-.221.392.224Z" transform="translate(-83.464 -18.711)" fill="#f0b068"/>
          <path id="Trazado_1294894" data-name="Trazado 1294894" d="M154.746,30.5c.47.123,0-.712.4-.5a4.949,4.949,0,0,0-1.5-.957,3.3,3.3,0,0,1,1.094,1.461" transform="translate(-80.978 -15.302)" fill="#f0b068"/>
          <path id="Trazado_1294895" data-name="Trazado 1294895" d="M151.959,28.207a6.326,6.326,0,0,0,.8.392,3.027,3.027,0,0,0-.8-.392" transform="translate(-80.086 -14.866)" fill="#f0b068"/>
          <path id="Trazado_1294896" data-name="Trazado 1294896" d="M159.279,37.542l-.117.533.206.3a1,1,0,0,0-.089-.833" transform="translate(-83.882 -19.785)" fill="#f0b068"/>
          <path id="Trazado_1294897" data-name="Trazado 1294897" d="M158.677,37.942l-.437-.652.433.67Z" transform="translate(-83.396 -19.653)" fill="#f0b068"/>
          <path id="Trazado_1294898" data-name="Trazado 1294898" d="M159.642,39.379l-.052-.076c-.012.052-.011.076.052.076" transform="translate(-84.104 -20.714)" fill="#f0b068"/>
          <path id="Trazado_1294899" data-name="Trazado 1294899" d="M161.079,46.152c.429.19.291-.443.987.085-.465-.357-1.221-1.182-.987-.085" transform="translate(-84.869 -24.034)" fill="#f0b068"/>
          <path id="Trazado_1294900" data-name="Trazado 1294900" d="M159.375,40.841s.121.21.229.429l.222.432c.079-.074.115-.307.353-.143l-.4-.363c-.2-.183-.4-.355-.4-.355" transform="translate(-83.994 -21.524)" fill="#f0b068"/>
          <path id="Trazado_1294901" data-name="Trazado 1294901" d="M158.572,40.179l.38.313-.18-.312Z" transform="translate(-83.571 -21.175)" fill="#f0b068"/>
          <path id="Trazado_1294902" data-name="Trazado 1294902" d="M152.547,30.385a5.37,5.37,0,0,1-1.11-.9c.335.453.68.918,1.038,1.334.146-.026.478.01.072-.437" transform="translate(-79.811 -15.541)" fill="#f0b068"/>
          <path id="Trazado_1294903" data-name="Trazado 1294903" d="M156.346,34.859l-.076-.06c.009.067.029.11.076.06" transform="translate(-82.358 -18.34)" fill="#f0b068"/>
          <path id="Trazado_1294904" data-name="Trazado 1294904" d="M143.543,22.024l.015.11.06-.041Z" transform="translate(-75.65 -11.607)" fill="#f0b068"/>
          <path id="Trazado_1294905" data-name="Trazado 1294905" d="M153.566,32.427a1.273,1.273,0,0,0,.706.594,8.444,8.444,0,0,1-.71-.714c-.066.011-.1.031,0,.12" transform="translate(-80.898 -17.027)" fill="#f0b068"/>
          <path id="Trazado_1294906" data-name="Trazado 1294906" d="M149.529,26.293c.1.211.231.437.362.675-.052-.249-.23-.7-.362-.675" transform="translate(-78.805 -13.857)" fill="#f0b068"/>
          <path id="Trazado_1294907" data-name="Trazado 1294907" d="M156.268,34.333c.018.013.035.023.053.038-.018-.163-.04-.123-.053-.038" transform="translate(-82.357 -18.055)" fill="#f0b068"/>
          <path id="Trazado_1294908" data-name="Trazado 1294908" d="M155.669,34.1a2.554,2.554,0,0,0-.537-.283,4.675,4.675,0,0,0,.538.464.631.631,0,0,1,0-.182" transform="translate(-81.758 -17.822)" fill="#f0b068"/>
          <path id="Trazado_1294909" data-name="Trazado 1294909" d="M144.921,23.242l.218.215L145,23.4l.319.24a5.516,5.516,0,0,1-.688-1.3c-.626-.3-.818-.281-.933-.216l.724.66.5.455" transform="translate(-75.734 -11.64)" fill="#f0b068"/>
          <path id="Trazado_1294910" data-name="Trazado 1294910" d="M148.409,26.619c-.5.052-1.309-.457-1.2.25.831.778.8.331,1.408.7-1.357-1.277.535.232-.232-.908a7.49,7.49,0,0,1,.779.661c-.2-.28-.38-.559-.54-.836l.012.049.007.005-.006,0c.02.095.017.136-.026.049a.14.14,0,0,1-.034-.023.4.4,0,0,1-.168.046c-.317-.454.016-.137.168-.046a.288.288,0,0,0,.059-.026v-.009s-.364-.306-.751-.587l-.76-.57a12,12,0,0,0,1.282,1.24" transform="translate(-77.539 -13.375)" fill="#f0b068"/>
          <path id="Trazado_1294911" data-name="Trazado 1294911" d="M158.426,45.8a.1.1,0,0,1,.05-.1c-.105-.071-.158-.09-.05.1" transform="translate(-83.463 -24.057)" fill="#f0b068"/>
          <path id="Trazado_1294912" data-name="Trazado 1294912" d="M158.718,41.72l.045-.1c-.024-.016-.039.022-.045.1" transform="translate(-83.648 -21.935)" fill="#f0b068"/>
          <path id="Trazado_1294913" data-name="Trazado 1294913" d="M158.6,43.5c.1.377-.167.1-.27.188.231.156.726.614.467-.179l-.116-.079a4.7,4.7,0,0,1-.295-1.6,3.017,3.017,0,0,0-.3,1.2.9.9,0,0,1,.511.468" transform="translate(-83.317 -22.046)" fill="#f0b068"/>
          <path id="Trazado_1294914" data-name="Trazado 1294914" d="M152.383,34.4l-.576-.512.237.813.137-.166c.488.717.562.417.76.4l-.172-.168c-.1-.1-.239-.236-.386-.363" transform="translate(-80.006 -17.862)" fill="#f0b068"/>
          <path id="Trazado_1294915" data-name="Trazado 1294915" d="M143.225,20.921s-.269-.038-.547-.058l-.549-.045.662.3Z" transform="translate(-74.905 -10.971)" fill="#f0b068"/>
          <path id="Trazado_1294916" data-name="Trazado 1294916" d="M140.013,18.161s-.142-.038-.288-.07l-.288-.067.291.391Z" transform="translate(-73.486 -9.499)" fill="#f0b068"/>
          <path id="Trazado_1294917" data-name="Trazado 1294917" d="M36.923,14.889l.4.229a2.545,2.545,0,0,1,.993-.564c-.751.065-1.7.029-1.395.335" transform="translate(-19.429 -7.67)" fill="#f0b068"/>
          <path id="Trazado_1294918" data-name="Trazado 1294918" d="M97.814,1.9A6.493,6.493,0,0,0,96.4,1.472c.674.322,1.18.744,1.411.429" transform="translate(-50.807 -0.776)" fill="#f0b068"/>
          <path id="Trazado_1294919" data-name="Trazado 1294919" d="M9.262,132.842c.2.209.338.271.413.219-.2-.215-.355-.32-.413-.219" transform="translate(-4.881 -69.99)" fill="#f0b068"/>
          <path id="Trazado_1294920" data-name="Trazado 1294920" d="M94.53,1.179a2.063,2.063,0,0,0-1.68-.14c.1.049.2.078.3.12a5.309,5.309,0,0,1,1.38.019" transform="translate(-48.934 -0.484)" fill="#f0b068"/>
          <path id="Trazado_1294921" data-name="Trazado 1294921" d="M173.616,102.7a2.579,2.579,0,0,0,.068-.782c0,.19-.037.494-.068.782" transform="translate(-91.5 -53.713)" fill="#f0b068"/>
          <path id="Trazado_1294922" data-name="Trazado 1294922" d="M125.312,9.49c.405.166.084-.015,0,0" transform="translate(-66.042 -5.001)" fill="#f0b068"/>
          <path id="Trazado_1294923" data-name="Trazado 1294923" d="M127.409,14.545a.27.27,0,0,0-.244.1.342.342,0,0,1,.244-.1" transform="translate(-67.019 -7.666)" fill="#f0b068"/>
          <path id="Trazado_1294924" data-name="Trazado 1294924" d="M125.886,10.062a3.56,3.56,0,0,0-.443-.362,4.15,4.15,0,0,0,.443.362" transform="translate(-66.111 -5.112)" fill="#f0b068"/>
          <path id="Trazado_1294925" data-name="Trazado 1294925" d="M126.395,10.014l.322.21c.08-.036.056-.1-.322-.21" transform="translate(-66.613 -5.278)" fill="#f0b068"/>
          <path id="Trazado_1294926" data-name="Trazado 1294926" d="M124.684,9.233,124.12,9a4.4,4.4,0,0,1,.626.331c-.066-.061-.089-.1-.062-.1" transform="translate(-65.414 -4.744)" fill="#f0b068"/>
          <path id="Trazado_1294927" data-name="Trazado 1294927" d="M82.116,48.987c-.142.369-.4-.071-.64-.03,0,0,.061-.141.147-.354l.317-.784.317-.793c.087-.218.132-.365.132-.365-.295-.249-.257-.886-.218-1.5s.031-1.211-.257-1.343l.088.756c-.342-.516-.736-.175-1.174.245l-.135.127c.042-.752.069-1.508.069-2.271A39.608,39.608,0,0,0,68.242,13.735a.326.326,0,0,0,.077.042l.12-.179c-.357-.324-.7-.47-.557-.207-.315-.289-.639-.567-.963-.846.805.269,1.167-.98.99-2.018-.13.111-.216.207-1.107-.207.155.351,1.3,1.717.482,1.455-1.059-.66-.7-.74-1.048-1.281.1.6-1.285-.2-1.733.125a39.685,39.685,0,0,0-6.3-3.788c.065-.032.089-.085.031-.177l-.655-.218c-.411-.636,1.426.023.708-.513A11,11,0,0,1,59.84,6.2a5.093,5.093,0,0,1,.825.291,4.32,4.32,0,0,1,.8.526l-.074.626c.062-.159-.578-.732-.987-.76.3.022.648.449,1.022.817s.776.694,1.229.54l-.285-.421c-.14-.215-.3-.411-.3-.411.489.107,1.049.22,1.622.381a3.538,3.538,0,0,1,1.564.844c-.12-.786-.257-.107-.587-1.154.168,1.093-2.6-1.7-2.049-.315a2.092,2.092,0,0,0-.793-1.082,4.546,4.546,0,0,1-1.055-1.1c-.056.186.2.511-.67-.038a1.034,1.034,0,0,1-.275.049l-.055-.044.04.046c-.052.006-.058.009.015.017a1.149,1.149,0,0,1,.328.495,3.043,3.043,0,0,1-1.345-.222A7.307,7.307,0,0,0,57.5,4.964c-.5-.327.313-.1.1-.42l-.434-.009-.438.009c.095-.42-1.22-1.24.194-.95l-1.187-.488a4.616,4.616,0,0,0-2.261-.931c-.561-.256-1.6.034-1-.143l-1-.143-1.007-.1.006-.107a17.735,17.735,0,0,0-3.04-.353A9.4,9.4,0,0,1,44.217.676c-.337.029-.678.06-1.072.066a7.39,7.39,0,0,1-1.4-.062L41.535.307A11.281,11.281,0,0,1,39.871.236c-.587-.044-1.116-.064-1.289.15a1.79,1.79,0,0,0-1.1-.371,6.071,6.071,0,0,0-1.573.11c-.558.1-1.132.2-1.656.332a8.841,8.841,0,0,1-1.389.252l.035.481a8.512,8.512,0,0,0-1.519.4c-.257.088-.519.184-.793.288s-.55.241-.846.373l.189.387a5.719,5.719,0,0,1-1.951.577c-.389.071-.8.141-1.22.231a8.335,8.335,0,0,0-1.231.4c.05-.194.479-.317.8-.341a3.584,3.584,0,0,0-1.6.3,8.8,8.8,0,0,0-1.4.856c-.452.306-.867.661-1.306.929a3.99,3.99,0,0,1-1.383.558,1.7,1.7,0,0,1-.992.565.332.332,0,0,0,.09-.078,1.877,1.877,0,0,0-.17.092,5.72,5.72,0,0,0-.677.15,3.325,3.325,0,0,0,.587-.1,7.771,7.771,0,0,0-1.137.918L17.9,7.448c-.034.029-.064.047-.1.079-.543.149-.238.409.189.542a2.564,2.564,0,0,0-.428.628c-.768-.345-1,.992-1.924.737-.027.264-.514.738-.955,1.244a2.428,2.428,0,0,0-.671,1.3A2.75,2.75,0,0,0,12.8,13.149l-.583-.244-.2.725-.166.736c-.788.315-1.172.421-.952-.456a14.393,14.393,0,0,1-.789,1.556,5.382,5.382,0,0,0-.589,1.4l-.242-.3c-.345.462-.508,1.481-.965,1.562a9.587,9.587,0,0,0-2.6,3.13c-.957,1.575-1.937,3.413-2.89,4.811.639-.07.361.225.032.607s-.706.861-.331,1.076c-.313.084-.622.467-.636-.118a10.7,10.7,0,0,1-.714,1.946A2.292,2.292,0,0,0,1,31.277c-.306.117-.268-.456-.464-.332.016.149.07.585-.129.716s-.143-.3-.177-.594A3.389,3.389,0,0,0,.1,32.119a1.447,1.447,0,0,0,.227.67,1.932,1.932,0,0,0,.946.647,2.188,2.188,0,0,0-.455.974,1.66,1.66,0,0,0,.253.932c-.295.248-.639.705-.538-.361l-.207.8-.141.586c-.038.207-.072.421-.1.632-.117.843-.151,1.628.161,1.688-.167.172-.108.829-.051.989-.072.665-.118,1.027-.131,1.388s-.029.718-.017,1.375l.108-.363c.7.523.16,1.082.274,2.135l-.076-.027a5.153,5.153,0,0,0-.128,1.228,1.754,1.754,0,0,0,.084.5,1.516,1.516,0,0,1,.07.5c-.007.246-.034.611-.1,1.224l.434-.183c.5.054.421.582.289,1.278a3.944,3.944,0,0,0,.058,2.2l.164-.541c.22.34.018.911-.241,1.519a4.17,4.17,0,0,0-.52,1.638c-.033.185-.21-.223-.326-.44,0,2.133.645.106,1.188,1.522-.224.361-.893-.113-.641.892-.04.284.444.919.928,1.652a4.538,4.538,0,0,1,1.022,2.3c.1-.381.2-.749.66-.189a11.147,11.147,0,0,1,.532,1.925c.2.7.451,1.368,1.044,1.591.009.151-.022.228-.072.263.3.3.682.85,1.116,1.314a3.512,3.512,0,0,0,1.165.964,1.123,1.123,0,0,0,.168,1.226A6.27,6.27,0,0,0,8.4,67.842a11.4,11.4,0,0,1,1.125,1.09c.262.316.34.6.063.831,0,0,.422.469.861.921l.9.885-.151.055a4.456,4.456,0,0,0,1.351,1.146,3.241,3.241,0,0,0,1.026.327c.212.315-.08.239-.155.275a8.26,8.26,0,0,0,1.759,1.662,7.253,7.253,0,0,0,2.066.783l-.107.5c.295.044.87.691,1.7,1.383.206.176.424.359.656.538s.488.335.746.492a5.624,5.624,0,0,0,1.651.722.379.379,0,0,1-.324.07,19.531,19.531,0,0,1,3.741,1.995c1.191.69,2.3,1.08,3.014.42,0,0,.434.046.875.053l.873.029c-2.056-.722.515-.624-.263-1.14a2.6,2.6,0,0,1,1.162.57c.263.219.294.416-.222.324l-.135-.127c-.61.791,2.549.943,2.375,1.5,2.132.409,4.252.738,6.364.961a32.264,32.264,0,0,0,6.266.061l-.271-.315-.268-.322s.088,0,.22-.014l.483-.047.7-.07c.389.113.573.473-.445.574.587.325,1.653-.543,1.647-.712,2-.073-.633.932-.034.842l.817-.2-.2-.046c.309-.2.463-.375.691-.523a3.258,3.258,0,0,1,1.123-.4c.782-.038.483.327.787.284.009.048.116.047.463-.087,0,0,.112-.018.276-.062l.6-.15.879-.219-.845-.328c.689-.47,1.616-.44.651-.8.707.281,2.329-.151,3.816-.765.748-.294,1.449-.662,2.03-.916a5.6,5.6,0,0,1,1.2-.5,5.7,5.7,0,0,1,.634-.581,7.738,7.738,0,0,1,.683-.518c.479-.326,1.02-.605,1.593-.959-.343.085-.83-.332.171-.885.164.639.7.489,1.327.155a4.182,4.182,0,0,1,2.025-.733c-.518.022.119-.525.683-1.056s1.016-1.092.245-.982c.8-.555.35.324,1.107.063a12.722,12.722,0,0,1,1.243-1.358l1.473-1.318c.254-.227.521-.447.774-.687l.752-.742a11.491,11.491,0,0,0,1.379-1.655c-.1-.136-.6.085-.418-.549l.249-.107c.152-.063.349-.153.541-.247l.781-.38c.259-.526-.464-.957.57-1.515-.2.048-.49.114-.33-.234a22.8,22.8,0,0,0,4.043-7.519c.975-2.726,1.735-5.47,2.948-8.206-.456.72-.394.2-.3-.389M66.805,12.447q-.591-.5-1.2-.985a1.954,1.954,0,0,1,1.2.985m-1.434-1.2c0,.008-.013.012-.021.018l-.088-.069.109.052M54.717,3.032a.207.207,0,0,0-.039.01c-.612-.394-.4-.248.039-.01m-7.35-.421a8.9,8.9,0,0,1,1.372-.117c1.548.1.544.639.829.577a4.941,4.941,0,0,0,1.617.219,4.833,4.833,0,0,0,1.043-.144,2.483,2.483,0,0,1,2.227.439c.736.787-.294.969-.213,1.383a3.752,3.752,0,0,1-1.4-.559,4.552,4.552,0,0,0-1.1-.537l.918.51a2.906,2.906,0,0,1-1.625-.305,1.388,1.388,0,0,0,.364.24,39.54,39.54,0,0,0-5.639-1.086,2.971,2.971,0,0,1,.5-.281,4.967,4.967,0,0,1,1.1-.34m-7.976-.042c-.041.138.1.3.214.409Q39,3,38.4,3.038a2.987,2.987,0,0,1,.993-.469m-8.259.313c.08.007.677.046,1.313.118a6.023,6.023,0,0,1,1.584.348.432.432,0,0,1,.187.189c-.481.083-.962.169-1.437.27l-.178-.7-.02.744c-.469.1-.938.205-1.4.324a2.1,2.1,0,0,1-.047-1.294M23.94,5.327l.44.143.55-.443c.276-.223.565-.423.565-.423-.212.444-.59,1.183-1,1.947q-1,.46-1.974.97A4.684,4.684,0,0,1,23.94,5.327m-9.931,6.651a.519.519,0,0,0,.035.182c-.081-.065-.224-.007-.035-.182M11.824,14.53a1.73,1.73,0,0,0,.614.575c-.236.245-.475.488-.7.739.012-.236.027-.457.041-.649.029-.4.049-.665.049-.665M1.542,33.863c.142-.176.307.035.493.353-.023-.121-.047-.236-.073-.327.14-.211.267-.273.384-.246-.061.265-.127.527-.184.794l-.127-.221c.028.129.053.271.082.417-.025.119-.043.241-.066.361a6.136,6.136,0,0,0-.517.572s-.006-.426-.013-.852.021-.851.021-.851M50.988,83.021l-.3-.052c.588-.271.444-.115.3.052" transform="translate(0 0)" fill="#f0b068"/>
          <path id="Trazado_1294928" data-name="Trazado 1294928" d="M132.726,13.455c.034-.089-.017-.273.137-.219-.081-.04-.211-.1-.351-.158l-.442-.186a1.64,1.64,0,0,1,.656.562" transform="translate(-69.604 -6.795)" fill="#f0b068"/>
          <path id="Trazado_1294929" data-name="Trazado 1294929" d="M133.841,13.665a.437.437,0,0,1,.039.02l-.039-.02" transform="translate(-70.537 -7.202)" fill="#f0b068"/>
          <path id="Trazado_1294930" data-name="Trazado 1294930" d="M133.747,13.619l.044.021a.455.455,0,0,0-.044-.021" transform="translate(-70.488 -7.178)" fill="#f0b068"/>
          <path id="Trazado_1294931" data-name="Trazado 1294931" d="M133.723,17.4c-.153.37.415.542.97.865a.753.753,0,0,1-.092-.065c.462-.335-.2-.59-.877-.8" transform="translate(-70.462 -9.172)" fill="#f0b068"/>
          <path id="Trazado_1294932" data-name="Trazado 1294932" d="M136.561,19.726c.187-.131-.17-.176-.488-.335a3.2,3.2,0,0,1,.488.335" transform="translate(-71.714 -10.219)" fill="#f0b068"/>
          <path id="Trazado_1294933" data-name="Trazado 1294933" d="M121.658,8.44c.244.219.377-.368.476-.152.515-.312-2.145-.306-.476.152" transform="translate(-63.823 -4.254)" fill="#f0b068"/>
          <path id="Trazado_1294934" data-name="Trazado 1294934" d="M132.715,19.648l.072-.516-.5.131Z" transform="translate(-69.716 -10.083)" fill="#f0b068"/>
          <path id="Trazado_1294935" data-name="Trazado 1294935" d="M124.531,14.335l.831.573c.024-.077.159-.06.315-.02-.543-.3-1.106-.69-1.147-.553" transform="translate(-65.631 -7.54)" fill="#f0b068"/>
          <path id="Trazado_1294936" data-name="Trazado 1294936" d="M127.7,15.866a4.167,4.167,0,0,0-.742-.33,2.357,2.357,0,0,0,.742.33" transform="translate(-66.909 -8.188)" fill="#f0b068"/>
          <path id="Trazado_1294937" data-name="Trazado 1294937" d="M101.214,7.035c.277-.066.689-.056.553-.239l-1.1-.059c-.136.141.14.291.55.3" transform="translate(-53.034 -3.551)" fill="#f0b068"/>
          <path id="Trazado_1294938" data-name="Trazado 1294938" d="M175.384,94.348s.072-.215.124-.432l.112-.435-.339.551Z" transform="translate(-92.377 -49.267)" fill="#f0b068"/>
          <path id="Trazado_1294939" data-name="Trazado 1294939" d="M174.723,90.743l-.543-.524c.023.194.066.574-.076.719Z" transform="translate(-91.757 -47.547)" fill="#f0b068"/>
        </g>
      </g>
    </g>
    <g id="Grupo_1207933" data-name="Grupo 1207933" transform="translate(-189 -166)">
      <g id="Grupo_1207932" data-name="Grupo 1207932" transform="translate(417.711 2106.838)">
        <g id="Grupo_1207931" data-name="Grupo 1207931" clip-path="url(#clip-path-2)">
          <path id="Trazado_1400507" data-name="Trazado 1400507" d="M214.561,57.612a2.531,2.531,0,0,0-2.259-2.234,1.626,1.626,0,0,0-1.687.65,2,2,0,0,0-1.31,2.384,2.039,2.039,0,0,0,1.386,1.427,3.862,3.862,0,0,0,1.715-.011,3.064,3.064,0,0,0,1.415-.55,1.94,1.94,0,0,0,.74-1.667" transform="translate(-158.79 -42.002)" fill="#e5d06c"/>
          <path id="Trazado_1400508" data-name="Trazado 1400508" d="M167.745,123.139c-.086.04-.146.085,0,0" transform="translate(-127.235 -93.451)" fill="#9ad3e2"/>
          <path id="Trazado_1400509" data-name="Trazado 1400509" d="M230.48,70.51c.034-.04.068-.082.1-.12l.006-.009c-.1.086-.119.127-.11.13" transform="translate(-174.911 -53.412)" fill="#9ad3e2"/>
          <path id="Trazado_1400510" data-name="Trazado 1400510" d="M148.587,46.687q-.585-1.1-1.114-2.232-.257-.552-.5-1.111c-.031-.071-.068-.145-.1-.22-.007-.023-.021-.062-.043-.115q-.122-.295-.241-.591a47.234,47.234,0,0,1-1.6-4.723,1.479,1.479,0,0,0-.281-.532q-.146-.951-.361-1.888-.088-.384-.189-.765a3.514,3.514,0,0,0-.116-.487c-.028-.089-.06-.177-.095-.263a3.371,3.371,0,0,0-.759-1.463,2.113,2.113,0,0,0-2.174-.526,14.946,14.946,0,0,0-1.632.709,1.246,1.246,0,0,0-.571.584,1.891,1.891,0,0,0-.894.19q-.521.227-1.044.45l-.207.088-.04.017-.663.276q-1.051.434-2.109.849-.838.328-1.681.644a1.485,1.485,0,0,0-.849-.022,59.892,59.892,0,0,0-6.777,2.231q-1.472.585-2.915,1.239-.475.133-.952.263a26.875,26.875,0,0,0-5.106,1.688,1.253,1.253,0,0,0-.473.425c-.336.066-.672.128-1.009.189a1.136,1.136,0,0,0-.354.13,1.509,1.509,0,0,0-2.271,1.918q1.59,3.12,2.988,6.332.166.381.328.763l.068.16.172.411q.33.795.648,1.594.647,1.627,1.244,3.273.54,1.49,1.037,2.994a1.459,1.459,0,0,0-.109.557V60.96a1.5,1.5,0,0,0,3.009,0v-.542a1.443,1.443,0,0,0,.317-.9c.016-.046.032-.091.049-.137q.059-.157.12-.314c.01-.025.042-.108.063-.164.168-.412.376-.813.582-1.206a24.538,24.538,0,0,1,1.482-2.448c.126-.185.257-.366.386-.549l.013-.019c.063-.077.126-.154.191-.228a5.126,5.126,0,0,1,.456-.462l.051-.046c.082-.052.161-.108.246-.157s.171-.081.25-.129l-.1.059a.622.622,0,0,1,.082-.033c.046-.013.243-.039.256-.048h.064a.428.428,0,0,1,.049,0l-.092-.028c.078.024.17.039.251.059l.049.028a1.519,1.519,0,0,0,2.491-.684q.386-1.5.907-2.953.256-.714.545-1.414l.03-.073.022-.051c.047-.107.093-.214.14-.32q.1-.228.206-.454,3.35.62,6.653,1.46.911.233,1.817.482a17.076,17.076,0,0,0,1.742.468,2.526,2.526,0,0,0,1.61-.238c.267-.132.51-.311.773-.452q.161-.087.327-.166l.09-.041a2.436,2.436,0,0,0,.375-.144q.223-.077.451-.14c.269-.075.541-.129.815-.179.073,0,.159-.02.229-.026q.235-.02.471-.026a7.739,7.739,0,0,1,.943.033l.1.011.02,0c.172.032.343.065.514.1a1.523,1.523,0,0,0,1.7-2.21M135.151,39.87a1.6,1.6,0,0,0,.031-.208q.041-.186.1-.368c.014-.046.029-.091.045-.136.006-.016.02-.053.033-.089.035-.068.068-.136.1-.2q.091-.167.2-.325c.017-.025.041-.053.061-.081l.024-.028a1.746,1.746,0,0,0,.427-1.208l.382-.155a1.506,1.506,0,0,0,1.944.385c.092-.059.184-.117.277-.174l1.457,1.168a1.727,1.727,0,0,0,.115.695.8.8,0,0,0,.022.083c.013.043.027.085.04.128.027.091.045.184.067.277,0,.008,0,.016,0,.026a3.339,3.339,0,0,1,0,.358c0,.021,0,.043,0,.064-.019.08-.027.166-.047.244-.026.1-.059.2-.09.3l0,.008-.021.044c-.047.093-.1.184-.155.272l-.034.052.034-.03c-.014.012-.027.026-.041.04l-.034.051c-.03.047-.062.072-.07.069-.012.013-.023.027-.035.039-.034.034-.07.066-.1.1-.081.046-.162.11-.24.158a.139.139,0,0,1-.03.007.473.473,0,0,0-.13.015c-.158.005-.316,0-.474,0-1.121-.028-2.242-.064-3.362-.1-.041-.007-.086-.011-.118-.018s-.075-.023-.113-.033l-.043-.031-.01-.016c-.018-.031-.033-.063-.05-.094-.028-.086-.059-.171-.083-.259s-.047-.185-.065-.278c0-.015-.007-.061-.012-.1-.009-.215-.006-.425.005-.637" transform="translate(-84.447 -24.029)" fill="#9ad3e2"/>
          <path id="Trazado_1400511" data-name="Trazado 1400511" d="M169.9,122.813c.223.065.119.014,0,0" transform="translate(-128.935 -93.203)" fill="#9ad3e2"/>
          <path id="Trazado_1400512" data-name="Trazado 1400512" d="M217.175,60.774a1.525,1.525,0,0,0-1.813-1.062,2.152,2.152,0,0,0-2.013,0,1.768,1.768,0,0,0-.821,1.72,1.733,1.733,0,0,0,1.12,1.387,1.626,1.626,0,0,0,1.159.152,1.486,1.486,0,0,0,.318-.132l.125.05a1.482,1.482,0,0,0,1.464-.387,1.758,1.758,0,0,0,.46-1.73" transform="translate(-161.277 -45.124)" fill="#ffe878"/>
          <path id="Trazado_1400513" data-name="Trazado 1400513" d="M100.249,253.172a1.545,1.545,0,0,0-1.851-1.051l-1.411.259a1.992,1.992,0,0,0-.81-.249c.421.054.086.009-.013-.01q-.179-.034-.356-.079a6.61,6.61,0,0,1-.647-.2,1.221,1.221,0,0,0-.666-.039,6.59,6.59,0,0,0-.627-.242c-.852-.274-1.765-.25-2.621-.5-.072-.021-.142-.047-.214-.071l-.006,0c-.064-.037-.131-.068-.195-.106-.044-.026-.187-.145-.169-.121l-.011-.011,0,0c-.007-.016-.051-.074-.083-.12,0-.014-.008-.028-.011-.042a1.5,1.5,0,0,0-2.9.8,3.751,3.751,0,0,0,2.378,2.43,10.828,10.828,0,0,0,2.273.474,1.439,1.439,0,0,0,1.065,1.194c.246.056.49.177.734.23.064.033.128.064.191.1q.179.1.349.211c.041.027.082.057.122.085.091.084.186.167.28.247a2.177,2.177,0,0,0,1.512.625,2.041,2.041,0,0,0,1.4-.651,3.923,3.923,0,0,0,.392-.519,1.636,1.636,0,0,0,.2-.293c.028-.031.056-.062.085-.092.049-.05.1-.1.152-.144.016-.01.09-.068.116-.084.055-.035.112-.068.169-.1.041-.023.083-.043.125-.064l.01,0a1.536,1.536,0,0,0,1.051-1.851" transform="translate(-66.48 -189.32)" fill="#fbb158"/>
          <path id="Trazado_1400514" data-name="Trazado 1400514" d="M172.448,329.232l-.021.026a.093.093,0,0,0,0,.013.265.265,0,0,0,.015-.025l.007-.014" transform="translate(-130.855 -249.855)" fill="#fcfcf6"/>
          <path id="Trazado_1400515" data-name="Trazado 1400515" d="M172.575,329.031l0-.005c-.017.013-.014.013,0,.005" transform="translate(-130.961 -249.699)" fill="#fcfcf6"/>
          <path id="Trazado_1400516" data-name="Trazado 1400516" d="M85.551,43.523c.373.267.022-.011-.122-.144l-.041-.061c-.052-.079-.1-.161-.148-.244a10.827,10.827,0,0,1-.519-1.119l-1.156-2.732a.978.978,0,0,0-.262-.338,1.512,1.512,0,0,0-.194-.629c-.479-.85-.964-1.7-1.441-2.548a1.876,1.876,0,0,0,.007-.731,20.07,20.07,0,0,0-2.038-5.83,1.358,1.358,0,0,0-.574-.557c-.023-.1-.046-.2-.07-.3-.274-1.119-.6-2.224-.962-3.318-.778-2.356-1.711-4.654-2.619-6.962a1.527,1.527,0,0,0-.027-.646q-1.09-4.233-2.4-8.4a1.646,1.646,0,0,0-.744-.919q-.05-.264-.1-.528-.041-.237-.077-.474c-.018-.119-.061-.609-.029-.182-.049-.642-.142-1.279-.177-1.923a1.53,1.53,0,0,0-1.5-1.5,1.681,1.681,0,0,0-.8.252,1.514,1.514,0,0,0-1.258.1c-.409.226-.828.428-1.254.618l-.01,0-.027.011c-.1.039-.2.08-.3.119q-.326.126-.657.242c-.322.113-.647.219-.973.321a1.216,1.216,0,0,0-.815.005,15.993,15.993,0,0,1-3.118.8,1.491,1.491,0,0,0-.878.657l-.027.009Q55.23,7.8,50.215,9.024c-3.707.91-7.359,1.966-10.97,3.2-2.006.687-4,1.409-5.994,2.131a1.822,1.822,0,0,0-.559.325,2.155,2.155,0,0,0-.263-.114,2.121,2.121,0,0,0-1.714.243c-.119.063-.239.133-.354.206a1.563,1.563,0,0,0-1.188.781,1.322,1.322,0,0,0-.554.044,1.52,1.52,0,0,0-1.051,1.851q3.919,9.608,8.272,19.031,1.21,2.616,2.455,5.217a1.184,1.184,0,0,0,.358.43,10.742,10.742,0,0,0-3.013-.688c-3.263-.388-6.555-.6-9.837-.738q-2.79-.115-5.582-.125a1.527,1.527,0,0,0-1.009.4,1.344,1.344,0,0,0-.724-.186,1.538,1.538,0,0,0-1.5,1.5q-.263,5.268-.692,10.525a1.181,1.181,0,0,0-.638.864C14.636,61.247,13.58,68.565,12.6,75.892a23.653,23.653,0,0,0-.221,6.015,1.531,1.531,0,0,0,1.3,1.478,1.442,1.442,0,0,0,1.225-.4,1.084,1.084,0,0,0,.489.2l7.26,1.071c2.482.366,4.964.792,7.464,1.011,2.374.208,4.759.235,7.137.381.609.037,1.217.083,1.824.141q.425.041.848.09c.141.016.282.035.423.052l.051.006.153.024c1.27.19,2.521.507,3.8.617a7.307,7.307,0,0,0,.977.015,1.845,1.845,0,0,0,.326.15,5.941,5.941,0,0,0,1.626.239l1.5.085,2.622.149.323.131a1.34,1.34,0,0,0,.844-.017,1.5,1.5,0,0,0,2.72-.407l3.285-23.9q.468-3.406.936-6.811a1.658,1.658,0,0,0-.152-1.159c-.012-.021-.026-.041-.039-.062q2.986-1.1,5.994-2.14a1.719,1.719,0,0,0,.439-.228,1.824,1.824,0,0,0,.886.05,13.576,13.576,0,0,0,4.571-1.845c.253-.151.5-.3.757-.456a1.67,1.67,0,0,0,1.2-.122q1.238-.593,2.494-1.143l.6-.26.082-.035.273-.114q.634-.263,1.272-.514,1.646-.648,3.321-1.22a1.218,1.218,0,0,0,.745-.026A11.473,11.473,0,0,1,83.5,46.5c.214-.046.434-.093.653-.121l.171-.015c.157-.015.314-.027.471-.036a1.542,1.542,0,0,0,1.451-1.1,1.583,1.583,0,0,0-.691-1.7m-55.23-28.48c-.123.079-.177.03,0-.014,0,0,0,0,.012.005l-.015.009m6.444,29.864c.131.034.261.071.39.112.056.018.113.037.169.057l.009,0,.049.027q-.338-.106-.679-.2c-.032-.013-.064-.025-.1-.036l.161.039M19.791,46.154l.045,0c-.023.121-.045.242-.067.363.007-.123.014-.245.022-.368M49.328,83.441c0-.04,0-.081,0-.122q.052.071.108.14l-.11-.018M50.943,81.9l-.015.031.008-.006v0l-.009.006-.021.045.023-.027,0,.013c-.024.078-.041.081-.041.053-.043.065-.1.117,0-.013a.257.257,0,0,1,.069-.137l-.009.031m.989-.131-.018-.017L51.9,81.74l-.028-.041a.33.33,0,0,1,.086.087l-.028-.016m-.785-7.278q-.436,2.055-.9,4.1c-.138,0-.276-.005-.413-.014-.153-.009-.3-.028-.457-.041l-.177-.028c-.325-.054-.647-.122-.967-.2a30.04,30.04,0,0,0-4.116-.821,1.3,1.3,0,0,0-.927.318l-1.219-.231L35.4,76.337a1.746,1.746,0,0,0-1.374.3,17.226,17.226,0,0,0-2.171-.72c-.853-.211-1.721-.357-2.588-.5q-2.554-.408-5.117-.763-2.759-.383-5.526-.711a1.025,1.025,0,0,0,.035-.149q1.7-11.322,3.409-22.643c.234-1.554.442-3.118.756-4.659a1.931,1.931,0,0,0,.841.287,45.715,45.715,0,0,0,4.893.2,1.27,1.27,0,0,0,.543.265,40.045,40.045,0,0,0,7.986.921,19.5,19.5,0,0,0,3.162.745,1.314,1.314,0,0,0,1.016-.394q1.36,3.1,2.844,6.147c.151.311.3.623.442.938.048.106.1.213.148.322-.007-.014,0,.007.041.11s.071.178.1.267a11.244,11.244,0,0,1,.58,2.031,1.512,1.512,0,0,0,1.851,1.051,1.492,1.492,0,0,0,1-.96,2.9,2.9,0,0,0,.339-.123l.295-.127.117-.049.221-.093q.442-.184.885-.366l.429-.173a1.316,1.316,0,0,0,1.368.323q1.181-.47,2.367-.929Q53,65.741,51.147,74.49m25.964-30.9h0c.066-.067.125-.084.134-.074a.438.438,0,0,0-.132.073m-11.952-.619q-1.9.936-3.763,1.949a1.2,1.2,0,0,0-.139.088q-3.99,1.389-8,2.724-2.966.987-5.942,1.943L42.065,37.341,40.812,34.4Q38.14,27.711,35.6,20.972a2.017,2.017,0,0,0,.349-.233l.123-.1c.13-.109-.093.072-.094.073.054-.086.218-.155.3-.212.192-.127.391-.244.593-.354s.41-.214.62-.311c.1-.045.2-.087.292-.132l.028-.013.106-.042q.368-.148.739-.289a1.436,1.436,0,0,0,1.174.174c4.07-1.162,7.894-3.055,11.991-4.129.556-.146,1.117-.276,1.682-.386q.438-.085.878-.154l.2-.03.224-.026a1.22,1.22,0,0,0,.926-.2l.028-.02a1.355,1.355,0,0,0,.271-.187,13.936,13.936,0,0,1,2.083-1.123l.018-.008.027-.011.306-.122q.333-.13.67-.25c.432-.155.868-.3,1.306-.439,1.954-.627,3.917-1.229,5.876-1.843l1.46-.457,8.54,22.142,2.019,5.236a108.438,108.438,0,0,0-13.185,5.448" transform="translate(-9.311 -2.604)" fill="#fcfcf6"/>
          <path id="Trazado_1400517" data-name="Trazado 1400517" d="M78.923,194.131a1.243,1.243,0,0,0-.358-.864,1.229,1.229,0,0,0-.864-.358,1.323,1.323,0,0,0-.756.249,1.173,1.173,0,0,0-.883.582l-.007.012a1.416,1.416,0,0,0-.86.127c-.12.056-.243.108-.363.165l-.036.016-.145.059q-.318.126-.641.237a14.279,14.279,0,0,1-1.422.406q-.333.077-.669.138-.2.036-.393.066l-.095.014-.088.011c-.492.05-.982.087-1.476.095a1.2,1.2,0,0,0-.155.013q-.209-.463-.412-.928-.082-.191-.164-.382l-.081-.2q-.158-.382-.312-.765-.6-1.508-1.125-3.045t-.966-3.1a1.958,1.958,0,0,0-1.285-1.573,5.979,5.979,0,0,0-1.807-.094l-.044,0a20.653,20.653,0,0,0-5.807-1.452,24.8,24.8,0,0,0-3.231-.12,25.386,25.386,0,0,1-3.191-.044c-.228-.038-.454-.083-.679-.138a1.853,1.853,0,0,0-.471-.052,1.111,1.111,0,0,0-.986-.531,1.384,1.384,0,0,0-.654.207,1.135,1.135,0,0,0-.667-.2,1.255,1.255,0,0,0-1.222,1.222q-.329,3.564-.623,7.13a1.08,1.08,0,0,0-.217.439,55.8,55.8,0,0,0-1.44,10.215,1.231,1.231,0,0,0,1.222,1.222,1.249,1.249,0,0,0,1.222-1.222q.037-.772.1-1.543a1.261,1.261,0,0,0,.224-.079q-.014,1.942.047,3.883a1.222,1.222,0,1,0,2.445,0c-.008-.265-.015-.53-.021-.8a1.423,1.423,0,0,0,.353-.126,1.293,1.293,0,0,0,.531-.062,1.212,1.212,0,0,0,.7.351,1.227,1.227,0,0,0,.408-.012c.012.134.025.268.039.4a1.989,1.989,0,0,0,.984,1.738,1.229,1.229,0,0,0,1.8-1.381c-.015-.085-.03-.169-.045-.254a1.083,1.083,0,0,0,.6-.013,1.248,1.248,0,0,0,.854-1.5l-.6-2.485-.293-1.212-.049-.205a1.081,1.081,0,0,0,.259.2,10.3,10.3,0,0,0,4.809,1.239,1.172,1.172,0,0,0,.52-.122,40.388,40.388,0,0,0,7.7,1.719c-.012.043-.023.085-.036.127s-.033.1-.051.151l-.016.034c-.07.133-.14.264-.218.393-.293.479-.621.939-.934,1.4l-2.018,3a1.231,1.231,0,0,0,.439,1.672,1.252,1.252,0,0,0,1.672-.439l1.952-2.907a1.2,1.2,0,0,0,1.236.016c.048-.028.359-.167.227-.123.073-.026.146-.051.221-.072.1-.027.2-.046.3-.066.06-.005.119-.009.179-.011.1,0,.2,0,.307,0,.057,0,.39.054.267.027a5,5,0,0,1,.565.143c.09.029.179.061.267.1.023.013.175.082.19.09a7.084,7.084,0,0,1,.661.376c.215.137.423.285.627.437l.042.031.056.046c.113.092.226.184.338.277a1.531,1.531,0,0,0,.6.323,1,1,0,0,0,.681.266,1.046,1.046,0,0,0,1.034-1.035,1.129,1.129,0,0,0-.177-.559c.357-1.761.649-3.534.887-5.315q.185-1.387.32-2.78c.02-.208.038-.416.059-.624.011-.108.024-.215.034-.322-.026.283.011-.066.017-.1q.023-.133.052-.266a.792.792,0,0,0,.248-.2l.411-.521a1.362,1.362,0,0,0,.358-.864" transform="translate(-33.64 -138.636)" fill="#ffe878"/>
          <path id="Trazado_1400518" data-name="Trazado 1400518" d="M96.059,253.175a1.818,1.818,0,1,0-1.818,1.818,1.85,1.85,0,0,0,1.818-1.818" transform="translate(-70.139 -190.756)" fill="#fbb158"/>
          <path id="Trazado_1400519" data-name="Trazado 1400519" d="M72.7,263.239a1.052,1.052,0,0,0-1.034-1.035c-.026,0-.052,0-.078,0a1.551,1.551,0,0,0-.3-.14,4,4,0,0,0-.368-.435,4.3,4.3,0,0,0-2.146-1.2,5.414,5.414,0,0,0-4.584,1.32,1.918,1.918,0,0,0-.431.058c-.117.029-.234.055-.351.077a7.162,7.162,0,0,1-1.329-.022c-.661-.108-1.312-.268-1.961-.435a1.915,1.915,0,0,0-1.24.115l-.088-.071q-.126-.107-.248-.218c-.191-.172-.378-.35-.564-.527a11.24,11.24,0,0,0-2.4-1.894,5.163,5.163,0,0,0-3.47-.57,3.7,3.7,0,0,0-1.466.644,3.983,3.983,0,0,0-1.069,1.158c-.242-.246-.48-.5-.719-.746a18.643,18.643,0,0,0-1.62-1.555,9.411,9.411,0,0,0-2.486-1.508,4.216,4.216,0,0,0-3.785.2,1.849,1.849,0,0,0-.652,2.487,1.949,1.949,0,0,0,.218.278q-.471,2.188-.9,4.386a1.854,1.854,0,0,0,.325,1.585,1.753,1.753,0,0,0,1.428.716q2.169-.083,4.336.03a1.655,1.655,0,0,0,.344.127,44.945,44.945,0,0,0,8.653,1.261,1.384,1.384,0,0,0,.182,0,12.686,12.686,0,0,0,4.4.837c1.526.074,3.043.168,4.559.36a44.719,44.719,0,0,1,4.428.859,1.807,1.807,0,0,0,.226.04c.073.058.149.116.229.177a1.713,1.713,0,0,0,1.618.092,1.886,1.886,0,0,0,1.052-1.178,2.408,2.408,0,0,0,.078-1.272,1.416,1.416,0,0,0,.436-.8q.091-.521.2-1.036c.125-.291.239-.587.341-.886a1.561,1.561,0,0,0,.049-.7.925.925,0,0,0,.182-.583m-17.383.185c-.049-.047-.1-.091-.15-.139.007,0,.055.031.159.145l-.009-.006" transform="translate(-30.04 -194.212)" fill="#9ad3e2"/>
          <path id="Trazado_1400520" data-name="Trazado 1400520" d="M192.469,100.078a21.628,21.628,0,0,1-2.953-.9.778.778,0,0,1-.488-.492,12.942,12.942,0,0,0-1.58-.219c-.833-.155-1.594-.543-2.43-.686a4.246,4.246,0,0,0-1.276-.05,1.814,1.814,0,0,0-1.118-.388,1.838,1.838,0,0,0-1.818,1.818c.005.054.008.106.009.157-.13.512-.385,1-.54,1.5a11.979,11.979,0,0,0-.425,2.246,1.8,1.8,0,0,0,.533,1.285,1.946,1.946,0,0,0,1.285.533c.3.011.6.034.9.066q.513.082,1.016.208a1.512,1.512,0,0,0,.824,1.076,7.082,7.082,0,0,0,2.491.785,2.181,2.181,0,0,0,1.908-1.042c.169-.249.313-.516.474-.771q.5-.784,1.055-1.529l.1-.128c.093-.115.184-.231.278-.345q.322-.392.66-.769a2.049,2.049,0,0,0,.329-.5,1.748,1.748,0,0,0,.813-1.5,2.032,2.032,0,0,0-.047-.353" transform="translate(-136.484 -73.876)" fill="#9c9c72"/>
          <path id="Trazado_1400521" data-name="Trazado 1400521" d="M170.531,132.169a3.894,3.894,0,0,1-1.97-.871c-1.136-.81-2.545-1.134-3.6-2.071a.617.617,0,0,1-.225-.439q-.135-.043-.269-.09-.213-.075-.424-.159l-.124-.05c-.231-.1-.462-.207-.692-.314-1.183-.552-2.368-1.092-3.576-1.589a53.943,53.943,0,0,0-6.756-2.266,1.7,1.7,0,0,0-.206-.04,1.505,1.505,0,0,0-.254-.17,1.853,1.853,0,0,0-2.487.652,68.865,68.865,0,0,0-3.437,6.512,5.313,5.313,0,0,0-.715,2.314,8.184,8.184,0,0,0,.586,2.255l1.194,3.7a1.835,1.835,0,0,0,2.236,1.27l15.967-6.171,4.545-1.756a1.973,1.973,0,0,0,1.086-.836c.014-.024.027-.049.041-.074a1.768,1.768,0,0,1-.922.194" transform="translate(-110.646 -94.012)" fill="#5ea86a"/>
          <path id="Trazado_1400522" data-name="Trazado 1400522" d="M230.884,110.075c-.165-.157-.314-.325-.464-.5l-.051-.071q-.109-.157-.208-.32c-.125-.2-.239-.415-.345-.631-.041-.085-.081-.171-.12-.257l.015.042c-.008-.022-.017-.044-.026-.066l-.032-.07a.818.818,0,0,1-.041-.116c-.361-.946-.613-1.928-.9-2.9a7.9,7.9,0,0,0-.645-1.667,3.4,3.4,0,0,0-1.8-1.537,6.836,6.836,0,0,0-2.073-.278,9.418,9.418,0,0,0-2.127.15,5.424,5.424,0,0,0-1.8.682,1.452,1.452,0,0,0-.885.469l-5.128,5.747a1.7,1.7,0,0,0-.466,1.422,1.774,1.774,0,0,0,.808,1.237,14.248,14.248,0,0,0,3.919,1.867l.167.063c.121.065.255.114.377.177a7.428,7.428,0,0,1,.8.479l.119.085c.034.084.28.231.351.3a7.821,7.821,0,0,1,.681.712,1.7,1.7,0,0,0,2.394,0l.034-.039a17.118,17.118,0,0,1,1.575-.834c.111-.052.223-.1.335-.15l.183-.074q.442-.173.892-.321a16.877,16.877,0,0,1,1.722-.467q.463-.1.932-.174l.139-.021c.154-.016.308-.035.463-.05a1.729,1.729,0,0,0,1.547-1.04,1.69,1.69,0,0,0-.35-1.849m-10.9,4.013.091.065c.189.135-.051-.009-.091-.065" transform="translate(-162.236 -77.181)" fill="#366400"/>
          <path id="Trazado_1400523" data-name="Trazado 1400523" d="M279.527,128.355l.011.024c-.074-.213-.091-.242-.083-.21s.017.047.026.071c.015.039.031.077.047.115" transform="translate(-212.077 -97.259)" fill="#366400"/>
          <path id="Trazado_1400524" data-name="Trazado 1400524" d="M113.413,226.124a13.232,13.232,0,0,1-1.206-.873,15.942,15.942,0,0,1-1.21-1.108,61.937,61.937,0,0,1-1.837-.936,1.067,1.067,0,0,0-.723,1.273c.058.389.108.721.146,1.024.046.375.085.751.109,1.128s.033.751.02,1.126a6.13,6.13,0,0,1-.1,1.018,1.066,1.066,0,0,0,.475,1.168,1.055,1.055,0,0,0,1.253-.162c.119-.129.243-.253.374-.369.041-.037.084-.072.126-.108.015-.011.092-.07.118-.088a5.369,5.369,0,0,1,.861-.484l.06-.027.2-.085c.19-.08.382-.158.57-.244a4.463,4.463,0,0,0,.972-.627,1.044,1.044,0,0,0-.209-1.625" transform="translate(-82.28 -169.363)" fill="#fcfcf6"/>
          <path id="Trazado_1400525" data-name="Trazado 1400525" d="M56.77,252.823a6.677,6.677,0,0,0-2.21,1.243,10.814,10.814,0,0,0-3.2-2.9c-1.384-.792-3.345-1.458-4.82-.528-.545.343-.042,1.212.506.866,1.205-.759,2.885-.031,3.975.627a10.147,10.147,0,0,1,3.029,2.942.509.509,0,0,0,.788.1,5.539,5.539,0,0,1,2.194-1.381c.609-.2.348-1.173-.267-.967" transform="translate(-35.145 -189.864)" fill="#e5d06c"/>
          <path id="Trazado_1400526" data-name="Trazado 1400526" d="M110.742,198.029a.86.86,0,0,1-.01-.264l-.03-.019a50.079,50.079,0,0,0-7.512,2.3.74.74,0,0,1-.874-.132l-.312.1q-2.208-5.025-4.521-10c-.858-.106-1.713-.244-2.569-.368a1.438,1.438,0,0,0,.129.453q2.749,5.884,5.353,11.835a1.1,1.1,0,0,0,1.14.545.958.958,0,0,0,.344-.048q3-1,6.025-1.888l-1.519,9.483a6.749,6.749,0,0,0-3.343-1.3,4.57,4.57,0,0,0-2.63.756,6.624,6.624,0,0,1-1.467.632,12.532,12.532,0,0,0,1.144-1.494,4.665,4.665,0,0,0,.755-1.432,1.1,1.1,0,0,0-.655-1.175,12.049,12.049,0,0,0-3.288-.84l-1.678-.328a15.173,15.173,0,0,0,3.005-2.318c.475-.439-.236-1.147-.709-.709a10.866,10.866,0,0,1-3.581,2.516.5.5,0,0,0-.266.209l-.393-.077a.518.518,0,0,0-.25.01.431.431,0,0,0-.334-.283q-2.876-.645-5.709-1.46a.5.5,0,0,0-.267.967q2.832.816,5.709,1.461a.514.514,0,0,0,.247,0,.417.417,0,0,0,.337.276l3.139.613c.982.192,2,.333,2.955.621a2.827,2.827,0,0,1,.613.232c.14.082.185.074.088.211-.26.371-.447.8-.7,1.181a11.5,11.5,0,0,1-1.792,2.048.441.441,0,0,0-.041.639.421.421,0,0,0,.471.356,7.19,7.19,0,0,0,2.633-.693c.422-.2.808-.479,1.236-.673a2.856,2.856,0,0,1,1.214-.245,6.3,6.3,0,0,1,3.57,1.514.987.987,0,0,0,.706.615,1.133,1.133,0,0,0,.153.023c.1.074.2.147.3.218a.506.506,0,0,0,.686-.18.469.469,0,0,0,.037-.41.843.843,0,0,0,.214-.44L110.2,200.4a1.512,1.512,0,0,0-.007-.519l.253-.072a1.078,1.078,0,0,0,.317-.15,5.539,5.539,0,0,0-.022-1.629" transform="translate(-65.547 -143.919)" fill="#e5d06c"/>
          <path id="Trazado_1400527" data-name="Trazado 1400527" d="M103.56,260.723l-.946,1.515a7.4,7.4,0,0,1-.81,1.181,1,1,0,0,1-.945.4,3.622,3.622,0,0,1-1.239-.746,11.969,11.969,0,0,0-5.538-2.562.536.536,0,0,0-.533.533.546.546,0,0,0,.533.533,8.021,8.021,0,0,1,3.018,1.1c.94.541,1.765,1.24,2.681,1.812a2.257,2.257,0,0,0,1.576.387,2.194,2.194,0,0,0,1.2-.7,7.817,7.817,0,0,0,.879-1.24l1.044-1.671c.364-.583-.557-1.119-.92-.538" transform="translate(-70.995 -197.673)" fill="#f69419"/>
          <path id="Trazado_1400528" data-name="Trazado 1400528" d="M217.331,57.851a2.943,2.943,0,0,0-1.223-1.907.547.547,0,0,0-.753,0,.537.537,0,0,0,0,.754,2.223,2.223,0,0,1,.907,1.158,1.176,1.176,0,0,1-.539,1.087,2.29,2.29,0,0,1-1.509.311c-.379-.028-1.009-.075-1.211-.456-.321-.606-1.241-.068-.92.538A2.311,2.311,0,0,0,214,60.3a3.3,3.3,0,0,0,2.334-.49,2.262,2.262,0,0,0,1-1.957" transform="translate(-160.9 -42.342)" fill="#fff6c9"/>
          <path id="Trazado_1400529" data-name="Trazado 1400529" d="M85.636,273.906c-.852.162-1.578-.808-2.109-1.328l-2.09-2.047c-.375-.367-.952.208-.576.576l2.445,2.4a2.91,2.91,0,0,0,2.546,1.189c.515-.1.3-.883-.217-.786" transform="translate(-61.273 -205.218)" fill="#72b2c1"/>
          <path id="Trazado_1400530" data-name="Trazado 1400530" d="M133.977,280.41a.411.411,0,0,0-.576,0l-.209.242a.368.368,0,0,0-.077-.032.388.388,0,0,0-.422.146,2.384,2.384,0,0,0-.179-.235c-.345-.4-.919.182-.576.576a1.5,1.5,0,0,1,.1,1.783c-.285.442.42.851.7.411a2.249,2.249,0,0,0,.348-1.394.343.343,0,0,0,.192-.115l.7-.808a.418.418,0,0,0,0-.576" transform="translate(-100.047 -212.714)" fill="#72b2c1"/>
          <path id="Trazado_1400531" data-name="Trazado 1400531" d="M72.079,281.182a1.051,1.051,0,0,1-.793.02c0-.009,0-.018,0-.027a.41.41,0,0,0-.407-.407.417.417,0,0,0-.407.407q-.386,3.254-1,6.475l-22.5-3.239L40.3,283.45a.422.422,0,0,0-.5.285.41.41,0,0,0,.285.5l23.856,3.434,6.06.872a.432.432,0,0,0,.548.079l.066.009a.4.4,0,0,0,.481-.552q.791-3.165,1.27-6.4a.421.421,0,0,0-.284-.5" transform="translate(-30.193 -213.075)" fill="#72b2c1"/>
          <path id="Trazado_1400532" data-name="Trazado 1400532" d="M191.737,107.424q-1.217,1.346-2.329,2.782-.551.711-1.077,1.441-.273.38-.538.766c-.074.107-.182.328-.292.47-.169-.059-.354-.178-.491-.238l-.8-.347-1.6-.695-3.192-1.39a.647.647,0,0,0-.858.225.631.631,0,0,0,.225.858l3.648,1.588,1.71.745c.55.24,1.339.787,1.933.421a2.225,2.225,0,0,0,.595-.714q.263-.388.533-.771.506-.717,1.04-1.415c.75-.98,1.546-1.925,2.374-2.841.54-.6-.344-1.487-.887-.887" transform="translate(-136.972 -81.373)" fill="#868662"/>
          <path id="Trazado_1400533" data-name="Trazado 1400533" d="M57.323,184.665c-2.389-.453-4.784-.874-7.179-1.294a.423.423,0,0,0-.224.019c-.055-.418-.765-.382-.814.1q-.693,6.838-1.866,13.615c-.089.513.7.733.786.217q1.136-6.559,1.828-13.184a.43.43,0,0,0,.073.02c2.4.42,4.79.841,7.179,1.294.513.1.732-.688.217-.786" transform="translate(-35.845 -138.955)" fill="#e5d06c"/>
          <path id="Trazado_1400534" data-name="Trazado 1400534" d="M99.831,190.033a.408.408,0,0,0,0,.815.408.408,0,0,0,0-.815" transform="translate(-75.463 -144.217)" fill="#e5d06c"/>
          <path id="Trazado_1400535" data-name="Trazado 1400535" d="M95.416,250.758c-2.046-.2-3.9-1.234-5.92-1.568a.549.549,0,0,0-.655.372.537.537,0,0,0,.372.656c2.119.351,4.051,1.4,6.2,1.606a.537.537,0,0,0,.533-.533.544.544,0,0,0-.533-.533" transform="translate(-67.409 -189.104)" fill="#fcfcf6"/>
          <path id="Trazado_1400536" data-name="Trazado 1400536" d="M121.108,258.247a.533.533,0,0,0,0,1.066.533.533,0,0,0,0-1.066" transform="translate(-91.519 -195.985)" fill="#fcfcf6"/>
          <path id="Trazado_1400537" data-name="Trazado 1400537" d="M57.246,264.717c-1.325-.96-2.14-2.443-3.319-3.555a4.338,4.338,0,0,0-4.4-1.278c-.56.213-.317,1.123.25.907,1.475-.562,2.88.375,3.861,1.416a24,24,0,0,0,3.131,3.322.474.474,0,0,0,.643-.169.48.48,0,0,0-.169-.643" transform="translate(-37.348 -197.07)" fill="#bef4e7"/>
          <path id="Trazado_1400538" data-name="Trazado 1400538" d="M85.875,285.028a.47.47,0,0,0,0,.94.47.47,0,0,0,0-.94" transform="translate(-64.826 -216.309)" fill="#bef4e7"/>
          <path id="Trazado_1400539" data-name="Trazado 1400539" d="M103.064,272.863a2.844,2.844,0,0,1-1.263-.449,7.962,7.962,0,0,1-.862-.866,4.545,4.545,0,0,0-2.3-1.315c-.59-.13-.842.777-.25.907a4.056,4.056,0,0,1,2.153,1.356,4.718,4.718,0,0,0,.945.836,3.775,3.775,0,0,0,1.331.438c.592.109.845-.8.25-.907" transform="translate(-74.408 -205.071)" fill="#bef4e7"/>
          <path id="Trazado_1400540" data-name="Trazado 1400540" d="M125.519,282.826a.47.47,0,0,0,0,.94.47.47,0,0,0,0-.94" transform="translate(-94.912 -214.638)" fill="#bef4e7"/>
          <path id="Trazado_1400541" data-name="Trazado 1400541" d="M144.019,278.051a9.329,9.329,0,0,0-3.064,3.533.471.471,0,0,0,.812.475,8.4,8.4,0,0,1,2.727-3.2.471.471,0,0,0-.474-.812" transform="translate(-106.919 -210.963)" fill="#bef4e7"/>
          <path id="Trazado_1400542" data-name="Trazado 1400542" d="M159.29,277.687a.47.47,0,0,0,0,.94.47.47,0,0,0,0-.94" transform="translate(-120.541 -210.738)" fill="#bef4e7"/>
          <path id="Trazado_1400543" data-name="Trazado 1400543" d="M191.795,103.134c-1.361-.272-2.72-.55-4.082-.817-.564-.11-1.137-.1-1.432.484a5.792,5.792,0,0,0-.522,1.789.486.486,0,0,0,.328.578.473.473,0,0,0,.578-.328,5.714,5.714,0,0,1,.4-1.495c.086-.2.1-.176.339-.134.265.046.528.106.792.158l3.351.671c.591.118.844-.788.25-.907" transform="translate(-140.968 -77.608)" fill="#c8c893"/>
          <path id="Trazado_1400544" data-name="Trazado 1400544" d="M214.9,107.181a.47.47,0,0,0,0,.94.47.47,0,0,0,0-.94" transform="translate(-162.745 -81.34)" fill="#c8c893"/>
          <path id="Trazado_1400545" data-name="Trazado 1400545" d="M59.087,218.24q-.205.107-.414.208c-.02,0-.039,0-.059,0a.624.624,0,0,0-.524.274,17.887,17.887,0,0,1-3.146,1.05.574.574,0,0,0-.433.364l-.268.088c-.8.26-.459,1.531.35,1.269q1.649-.534,3.256-1.177c-.352,3.684-.965,7.337-1.618,10.978-.732,4.078-1.507,8.15-2.038,12.26-.241,1.862-.426,3.732-.535,5.607-5.36-.545-10.768-.324-16.122-.948-5.276-.614-10.444-1.9-15.688-2.721a56.08,56.08,0,0,0-9.037-.776.659.659,0,0,0,0,1.316c5.352-.035,10.611,1.025,15.843,2.033,2.635.508,5.274,1,7.936,1.347,2.717.356,5.449.5,8.185.6,2.942.1,5.889.169,8.819.463v.008c-.031.847,1.285.846,1.317,0a93.346,93.346,0,0,1,1.406-12.207c.693-4.068,1.5-8.118,2.123-12.2.326-2.135.6-4.279.787-6.431q.264-.128.524-.263c.752-.391.087-1.528-.664-1.137" transform="translate(-9.24 -165.562)" fill="#fcfcf6"/>
          <path id="Trazado_1400546" data-name="Trazado 1400546" d="M116.583,169.095a4.416,4.416,0,0,1,1.57.222,1.6,1.6,0,0,1,.43.241.688.688,0,0,0,.113-.807l-3.171-6.513a.665.665,0,0,0-.9-.236,4.228,4.228,0,0,0-.9.91q.469,1.69,1.031,3.353a12.509,12.509,0,0,0,1.236,2.988,1.226,1.226,0,0,1,.591-.157" transform="translate(-86.286 -122.878)" fill="#fcfcf6"/>
          <path id="Trazado_1400547" data-name="Trazado 1400547" d="M115.284,236.541a.665.665,0,0,0-.931,0,2.012,2.012,0,0,1-.164.184c-.026.025-.056.048-.081.074l-.007.009-.01.007a2.172,2.172,0,0,1-.186.115l-.064.032-.081.031a.756.756,0,0,0-.322.217l-2.56,1.475a.659.659,0,0,0,.664,1.137l3.329-1.918a.638.638,0,0,0,.252-.254,2.154,2.154,0,0,0,.161-.177.675.675,0,0,0,0-.931" transform="translate(-83.903 -179.367)" fill="#fcfcf6"/>
          <path id="Trazado_1400548" data-name="Trazado 1400548" d="M191.485,44.934c-.1-.425-.177-.853-.248-1.284a.86.86,0,0,0-.085.011l-.062.012q-.418-.446-.783-.921a.742.742,0,0,0-.036-.583l-2.35-4.887a.587.587,0,0,0-.433-.308c-.861-2.713-1.418-5.577-2.357-8.185a24.65,24.65,0,0,0-1.84-3.955q-.214-.373-.435-.742a.613.613,0,0,0,.087-.751,17.685,17.685,0,0,1-1.484-3.068,25.711,25.711,0,0,0-.967-3.26.63.63,0,0,0-.618-.319c-.213-1.323-.389-2.647-.732-3.948-.447-1.693-1-3.36-1.522-5.033l-1.6-5.191c-.249-.807-1.521-.463-1.269.35.956,3.093,1.95,6.176,2.862,9.282a33.057,33.057,0,0,1,.928,4.437,17.58,17.58,0,0,0,1.118,4.351c1.1,2.59,2.887,4.823,3.925,7.448,1.082,2.736,1.647,5.635,2.5,8.443a20.453,20.453,0,0,0,3.514,7.132,132.348,132.348,0,0,0-14.307,3.825c-5.214,1.681-10.352,3.585-15.485,5.5l-8.921,3.321a.676.676,0,0,0-.46.81.663.663,0,0,0,.81.46l2.974-1.11a.594.594,0,0,0,.659.206q1.846-.519,3.644-1.187a.792.792,0,0,0,.34-.242q1.34-.562,2.7-1.061a.613.613,0,0,0,.657.2,84.472,84.472,0,0,1,11.445-3.62.573.573,0,0,0,.46-.47c1.473-.431,2.942-.871,4.4-1.34,1.944-.626,3.871-1.3,5.763-2.074a.686.686,0,0,0,.472-.754c2.229-.563,4.474-1.063,6.735-1.484" transform="translate(-114.139 -1.565)" fill="#fcfcf6"/>
          <path id="Trazado_1400549" data-name="Trazado 1400549" d="M29.871,164.431a86.11,86.11,0,0,0-1.032,8.657c-.231,2.939-.437,5.881-.653,8.822q-.183,2.5-.367,4.992c-.038.523.777.521.815,0q.321-4.368.643-8.736c.212-2.879.395-5.762.7-8.633.172-1.636.39-3.266.684-4.885.093-.513-.692-.733-.786-.217" transform="translate(-21.111 -124.564)" fill="#f3eeea"/>
          <path id="Trazado_1400550" data-name="Trazado 1400550" d="M21.891,278.219a22.482,22.482,0,0,1-.46,3.742c-.107.512.678.731.786.217a23.825,23.825,0,0,0,.489-3.959c.02-.524-.795-.524-.815,0" transform="translate(-16.257 -210.843)" fill="#f3eeea"/>
          <path id="Trazado_1400551" data-name="Trazado 1400551" d="M20.452,306.12a.408.408,0,0,0,0,.815.408.408,0,0,0,0-.815" transform="translate(-15.222 -232.316)" fill="#f3eeea"/>
          <path id="Trazado_1400552" data-name="Trazado 1400552" d="M56.181,163.639a53.231,53.231,0,0,0-6.548-.493.408.408,0,0,0,0,.815,51.5,51.5,0,0,1,6.331.464.422.422,0,0,0,.5-.285.41.41,0,0,0-.284-.5" transform="translate(-37.367 -123.812)" fill="#f3eeea"/>
          <path id="Trazado_1400553" data-name="Trazado 1400553" d="M91.48,165.164a.408.408,0,0,0,0,.815.408.408,0,0,0,0-.815" transform="translate(-69.126 -125.344)" fill="#f3eeea"/>
          <path id="Trazado_1400554" data-name="Trazado 1400554" d="M102.868,30.005q-7.86,2.826-15.834,5.319-2.265.708-4.539,1.388a.408.408,0,0,0,.217.786q8-2.4,15.9-5.128,2.243-.776,4.476-1.579c.49-.176.278-.964-.217-.786" transform="translate(-62.389 -22.751)" fill="#f3eeea"/>
          <path id="Trazado_1400555" data-name="Trazado 1400555" d="M186.283,20.883l-4.31,1.408c-.5.162-.284.949.217.786l4.31-1.408c.5-.162.284-.949-.217-.786" transform="translate(-137.886 -15.831)" fill="#f3eeea"/>
          <path id="Trazado_1400556" data-name="Trazado 1400556" d="M216.469,14.847a.408.408,0,0,0,0,.815.408.408,0,0,0,0-.815" transform="translate(-163.98 -11.267)" fill="#f3eeea"/>
          <path id="Trazado_1400557" data-name="Trazado 1400557" d="M100.151,102.008a42.205,42.205,0,0,1-3.336-7.269c-.445-1.28-.844-2.575-1.393-3.816-.507-1.148-1.117-2.246-1.693-3.36a18.319,18.319,0,0,1-1.592-3.909.408.408,0,0,0-.786.217c.624,2.478,2.036,4.633,3.118,6.919a35.863,35.863,0,0,1,1.443,3.827q.646,1.895,1.456,3.726a43.01,43.01,0,0,0,2.078,4.076.408.408,0,0,0,.7-.411" transform="translate(-69.316 -63.265)" fill="#f3eeea"/>
          <path id="Trazado_1400558" data-name="Trazado 1400558" d="M131.334,172.972l-.136-.2a.434.434,0,0,0-.243-.187.408.408,0,0,0-.5.285.406.406,0,0,0,.041.314l.135.2a.437.437,0,0,0,.244.187.417.417,0,0,0,.314-.041.41.41,0,0,0,.187-.244.4.4,0,0,0-.041-.314" transform="translate(-98.992 -130.967)" fill="#f3eeea"/>
          <path id="Trazado_1400559" data-name="Trazado 1400559" d="M230.477,112.5l-.2-.265a.7.7,0,0,0-.375-.288.6.6,0,0,0-.081-.015q-2.036-4.321-3.632-8.828a.643.643,0,0,0-.771-.438.632.632,0,0,0-.438.771q1.541,4.351,3.486,8.545a19.518,19.518,0,0,0-5.146,1.883c-.479.233-.955.493-1.448.7a.568.568,0,0,1-.481.045,8.826,8.826,0,0,1-.778-.42l-3.128-1.7-3.621-1.971c-.709-.386-1.342.7-.633,1.083l6.475,3.524a5.776,5.776,0,0,0,1.571.755,2.861,2.861,0,0,0,1.727-.467c.967-.464,1.924-.956,2.916-1.367a11.5,11.5,0,0,1,3.463-.921l.01.014a.7.7,0,0,0,.375.288.64.64,0,0,0,.483-.063.632.632,0,0,0,.288-.374.608.608,0,0,0-.063-.483" transform="translate(-161.588 -77.896)" fill="#2b5000"/>
          <path id="Trazado_1400560" data-name="Trazado 1400560" d="M168.844,156.87c-.037-.045-.07-.09-.1-.135q-7.938,2.815-15.769,5.92-2.035.808-4.062,1.635-1.254-3.148-2.717-6.207a.633.633,0,0,0-.858-.225.64.64,0,0,0-.225.858q1.544,3.224,2.847,6.555c.112.286.432.577.771.438q8.049-3.293,16.22-6.28,2.317-.847,4.644-1.668a.735.735,0,0,0,.206-.113,3.024,3.024,0,0,1-.955-.778" transform="translate(-110.068 -118.947)" fill="#478e50"/>
          <path id="Trazado_1400561" data-name="Trazado 1400561" d="M171.677,132.3c-2.021-.59-3.818-1.74-5.818-2.384a9.376,9.376,0,0,0-1.509-.358,3.183,3.183,0,0,0-1.55.043,2.175,2.175,0,0,0-1.07,1.014c-.31.511-.61,1.028-.915,1.542a.439.439,0,0,0,.758.443c.288-.486.575-.974.865-1.459.241-.4.466-.738.972-.777a6.794,6.794,0,0,1,2.706.567c1.808.663,3.472,1.672,5.328,2.214a.439.439,0,0,0,.233-.846" transform="translate(-121.994 -98.266)" fill="#7ac182"/>
          <path id="Trazado_1400562" data-name="Trazado 1400562" d="M216.1,145.487a.439.439,0,0,0,0,.878.439.439,0,0,0,0-.878" transform="translate(-163.676 -110.411)" fill="#7ac182"/>
          <path id="Trazado_1400563" data-name="Trazado 1400563" d="M224.633,128.693a.439.439,0,0,0,0,.878.439.439,0,0,0,0-.878" transform="translate(-170.153 -97.666)" fill="#264600"/>
          <path id="Trazado_1400564" data-name="Trazado 1400564" d="M234.987,108.527a4.232,4.232,0,0,0-3.12.715,7.775,7.775,0,0,0-2.07,2.941c-.265.5.493.942.758.443a7.5,7.5,0,0,1,1.688-2.576,3.336,3.336,0,0,1,2.51-.677.453.453,0,0,0,.54-.306.442.442,0,0,0-.306-.54" transform="translate(-174.352 -82.322)" fill="#264600"/>
          <path id="Trazado_1400565" data-name="Trazado 1400565" d="M147.887,47.531l-.039-.019a.449.449,0,0,0,.04-.451,60.889,60.889,0,0,1-3.138-8.724.43.43,0,0,0-.649-.246c-.3-1.019-.6-2.038-.906-3.052-.377-1.232-.774-2.458-1.218-3.668-.189-.515-1.008-.307-.856.2l-.618.232a.342.342,0,0,0-.231,0q-5.674,2.264-11.447,4.272T117.2,39.831q-3.3.983-6.634,1.882a.439.439,0,0,0,.233.846l.333-.091.008.011a70.009,70.009,0,0,0,2.525,7.107q1.5,3.728,3,7.452l1.6,3.962-.078.186a.442.442,0,0,0,.307.54.4.4,0,0,0,.418-.117l.014,0a.441.441,0,0,0,.306-.54l-.024-.06c.79-1.874,1.607-3.744,2.506-5.568a.369.369,0,0,0,.547-.167,5.035,5.035,0,0,1,1.835-2.473.488.488,0,0,0,.078-.054c.225.023.45.054.673.09.31.051.616.116.921.189a.5.5,0,0,0,.446.116c.072.02.144.039.216.06a.439.439,0,0,0,.247-.841l.99-3.092c.174-.542.327-1.1.53-1.628a1.24,1.24,0,0,1,.887-.893,2.943,2.943,0,0,1,1.36.175c.58.172,1.155.362,1.732.543l3.635,1.144,4.112,1.294c.422.133.656-.356.48-.657a4.783,4.783,0,0,1,3.041-1.277,14.015,14.015,0,0,1,2.077.009,10.288,10.288,0,0,1,1.314.11l.064.126a.4.4,0,0,0,.637.11c.465.139.834-.548.359-.791m-2.136-.417a14.551,14.551,0,0,0-2.432-.014,5.535,5.535,0,0,0-3.682,1.67.485.485,0,0,0-.069.1L132.342,46.6c-.618-.194-1.233-.408-1.858-.578a3.629,3.629,0,0,0-1.552-.137c-1.212.205-1.549,1.372-1.874,2.387l-1.238,3.866q-.484-.11-.976-.184a3.18,3.18,0,0,0-1.6-.016A2.96,2.96,0,0,0,122.126,53a10.4,10.4,0,0,0-.893,1.437c-.923,1.757-1.721,3.592-2.494,5.426L116.21,53.58c-.984-2.444-2-4.878-2.916-7.349-.453-1.223-.872-2.459-1.233-3.712a98.049,98.049,0,0,0,11.375-3.192c3.924-1.325,7.8-2.79,11.7-4.171,2.147-.76,4.3-1.493,6.479-2.165,1.308,3.879,2.24,7.88,3.714,11.7q.481,1.249,1.046,2.464c-.208-.018-.417-.031-.625-.045" transform="translate(-83.67 -23.583)" fill="#72b2c1"/>
          <path id="Trazado_1400566" data-name="Trazado 1400566" d="M216.094,58.169a2.725,2.725,0,0,0-1.6-2.483c-.539-.174-.769.673-.233.846.745.241.9,1.2.985,1.87a1.732,1.732,0,0,1-.11,1.128,1.6,1.6,0,0,1-.8.562c-1.384.559-3.35.642-4.145-.886-.261-.5-1.018-.058-.758.443,1.057,2.031,3.779,2.007,5.581,1.095a2.008,2.008,0,0,0,1.012-1.053,3.02,3.02,0,0,0,.065-1.523" transform="translate(-158.901 -42.243)" fill="#72b2c1"/>
          <path id="Trazado_1400567" data-name="Trazado 1400567" d="M72.445,54.453C77.21,69.46,85.715,82.9,91.077,97.664c.193.532,1.049.3.854-.236C86.569,82.66,78.063,69.223,73.3,54.218c-.172-.541-1.027-.31-.854.236" transform="translate(-54.961 -40.912)"/>
          <path id="Trazado_1400568" data-name="Trazado 1400568" d="M150.28,191.5q10.487-2.906,20.783-6.451c3.353-1.151,6.706-2.322,10.01-3.607a66.036,66.036,0,0,1,10.117-3.47c.557-.118.321-.972-.235-.854a66.1,66.1,0,0,0-10.117,3.47c-3.3,1.285-6.656,2.457-10.009,3.607q-10.293,3.533-20.783,6.451a.443.443,0,0,0,.236.854" transform="translate(-113.632 -134.408)"/>
          <path id="Trazado_1400569" data-name="Trazado 1400569" d="M271.87,42.938A221.484,221.484,0,0,1,256.59.383a.443.443,0,0,0-.854.235,222.616,222.616,0,0,0,15.369,42.766c.246.514,1.01.065.765-.447" transform="translate(-194.068 -0.051)"/>
          <path id="Trazado_1400570" data-name="Trazado 1400570" d="M73.217,13.82c7.465-2.136,14.91-4.356,22.354-6.563,7.29-2.161,14.311-4.982,21.816-6.395.559-.105.322-.959-.236-.854C109.646,1.422,102.625,4.242,95.336,6.4c-7.444,2.207-14.889,4.427-22.354,6.563a.443.443,0,0,0,.236.854" transform="translate(-55.15 0)"/>
          <path id="Trazado_1400571" data-name="Trazado 1400571" d="M108.634,73.77l11.291,29.065c.2.526,1.061.3.854-.236L109.488,73.535c-.2-.525-1.061-.3-.854.236" transform="translate(-82.419 -55.58)"/>
          <path id="Trazado_1400572" data-name="Trazado 1400572" d="M156.045,157.577c5.338-1.747,10.56-3.823,15.748-5.97,2.545-1.053,5.083-2.124,7.624-3.185,2.483-1.036,5-2.334,7.722-2.565.564-.048.569-.934,0-.886a23.982,23.982,0,0,0-7.152,2.261q-4,1.678-8.011,3.347c-5.326,2.208-10.685,4.349-16.167,6.143-.539.176-.308,1.032.236.854" transform="translate(-118.012 -110.018)"/>
          <path id="Trazado_1400573" data-name="Trazado 1400573" d="M240.347,28.643Q245.2,43,251.166,56.932c.223.522.987.072.765-.447q-5.915-13.822-10.73-28.077c-.182-.537-1.037-.306-.854.236" transform="translate(-182.38 -21.327)"/>
          <path id="Trazado_1400574" data-name="Trazado 1400574" d="M109.379,39.673a260.059,260.059,0,0,0,31.7-10.838c.519-.215.291-1.072-.236-.854a260.031,260.031,0,0,1-31.7,10.838.443.443,0,0,0,.236.854" transform="translate(-82.592 -21.208)"/>
          <path id="Trazado_1400575" data-name="Trazado 1400575" d="M144.428,130.959a34.141,34.141,0,0,1,3.349-7.123q.5-.8,1.048-1.579a1.429,1.429,0,0,1,1.459-.8,3.537,3.537,0,0,1,.748.234c1.231.4,2.445.847,3.643,1.336a76.69,76.69,0,0,1,13.8,7.429c.474.319.918-.448.447-.765a74.437,74.437,0,0,0-15.941-8.265c-.97-.354-2.31-1.07-3.368-.952-1.032.115-1.642,1.439-2.143,2.2a34.955,34.955,0,0,0-3.893,8.044c-.183.541.672.773.854.236" transform="translate(-108.94 -91.422)"/>
          <path id="Trazado_1400576" data-name="Trazado 1400576" d="M210.964,109.7c1.674-2.185,3.244-4.559,5.1-6.592s5.265-1.848,7.8-1.636c.568.048.565-.838,0-.886-2.468-.207-5.9-.367-7.9,1.376a20.764,20.764,0,0,0-2.575,3.131l-3.188,4.159c-.346.452.422.894.765.447" transform="translate(-159.454 -76.239)"/>
          <path id="Trazado_1400577" data-name="Trazado 1400577" d="M178.417,102.177c.272-1.316.592-2.62.977-3.907.238-.794.334-1.992,1.384-2.048a8.226,8.226,0,0,1,1.961.44,81.206,81.206,0,0,1,7.924,2.327c.539.188.771-.667.235-.854-1.687-.588-3.39-1.127-5.113-1.6a33.879,33.879,0,0,0-5.055-1.213c-1.115-.126-1.454.475-1.785,1.437a42.2,42.2,0,0,0-1.382,5.187c-.115.556.738.794.854.236" transform="translate(-134.745 -72.324)"/>
          <path id="Trazado_1400578" data-name="Trazado 1400578" d="M208.823,55.26c-.48,1.684-.034,3.2,1.827,3.579,1.473.3,3.613-.074,4.282-1.6,1.435-3.275-5.193-5.665-6.146-1.969a.443.443,0,0,0,.854.236c.761-2.95,5.985-.152,4.211,1.783a3.345,3.345,0,0,1-2.67.738c-1.5-.141-1.9-1.153-1.505-2.529a.443.443,0,0,0-.854-.236" transform="translate(-158.341 -40.525)"/>
          <path id="Trazado_1400579" data-name="Trazado 1400579" d="M53.194,156.986a66.124,66.124,0,0,0-20.645-.967c-.56.062-.567.948,0,.886a65.348,65.348,0,0,1,20.41.935c.556.115.794-.739.236-.854" transform="translate(-24.381 -118.099)"/>
          <path id="Trazado_1400580" data-name="Trazado 1400580" d="M14.727,158l-5.1,41.675c-.069.564.817.559.886,0q2.549-20.837,5.1-41.675c.069-.564-.817-.559-.886,0" transform="translate(-7.305 -119.59)"/>
          <path id="Trazado_1400581" data-name="Trazado 1400581" d="M10.086,331.1c6.942,1.266,13.876,2.781,20.929,3.277,7.393.521,14.7,1.39,22.054,2.28.564.068.56-.818,0-.886-7.207-.872-14.363-1.788-21.611-2.25-7.126-.454-14.128-2-21.137-3.276-.557-.1-.8.752-.236.854" transform="translate(-7.412 -250.619)"/>
          <path id="Trazado_1400582" data-name="Trazado 1400582" d="M188.3,250.9l4.82-32.685c.082-.558-.771-.8-.854-.236l-4.82,32.685c-.082.558.771.8.854.236" transform="translate(-142.251 -165.182)"/>
          <path id="Trazado_1400583" data-name="Trazado 1400583" d="M53.386,181.623l19.036,2.467c.564.073.558-.813,0-.886l-19.036-2.467c-.564-.073-.558.813,0,.886" transform="translate(-40.195 -137.159)"/>
          <path id="Trazado_1400584" data-name="Trazado 1400584" d="M40.979,181.317c-1.094,9.03-2.253,18.056-3.814,27.019-.1.557.756.8.854.236,1.575-9.041,2.743-18.146,3.846-27.255.068-.565-.818-.56-.886,0" transform="translate(-28.199 -137.282)"/>
          <path id="Trazado_1400585" data-name="Trazado 1400585" d="M37.388,294.421c10.595,1.572,21.205,3.035,31.8,4.608.558.083.8-.771.236-.854-10.595-1.572-21.205-3.035-31.8-4.608-.558-.083-.8.771-.236.854" transform="translate(-28.131 -222.785)"/>
          <path id="Trazado_1400586" data-name="Trazado 1400586" d="M169.729,244.944q2.428-10.741,4.017-21.65c.082-.558-.771-.8-.854-.236q-1.611,10.893-4.017,21.65c-.125.555.728.792.854.236" transform="translate(-128.15 -169.036)"/>
          <path id="Trazado_1400587" data-name="Trazado 1400587" d="M79.408,266.572a3.721,3.721,0,0,1,4.654-1.367c1.408.495,2.489,1.561,3.783,2.264a8.211,8.211,0,0,0,6.895.32c.521-.212.293-1.07-.235-.854a7.593,7.593,0,0,1-4.812.325c-1.679-.447-2.88-1.685-4.386-2.468-2.276-1.183-5.265-1.09-6.662,1.333a.443.443,0,0,0,.765.447" transform="translate(-59.635 -200.39)"/>
          <path id="Trazado_1400588" data-name="Trazado 1400588" d="M85.437,249.041c.45,1.259.917,2.512,1.367,3.771.19.533,1.046.3.854-.236-.45-1.259-.917-2.512-1.367-3.771-.19-.533-1.046-.3-.854.236" transform="translate(-64.817 -188.59)"/>
          <path id="Trazado_1400589" data-name="Trazado 1400589" d="M85.809,247.6c4.263.956,8.764,3.252,13.209,2.884l-.382-.666a15.206,15.206,0,0,1-2.829,4.28c-.39.416.235,1.043.626.626a15.9,15.9,0,0,0,2.967-4.46c.122-.276-.013-.7-.382-.666a19.657,19.657,0,0,1-6.908-1.161c-2.016-.58-4.017-1.231-6.065-1.691-.555-.125-.792.729-.236.854" transform="translate(-64.88 -187.247)"/>
          <path id="Trazado_1400590" data-name="Trazado 1400590" d="M106.989,219.717c-.018,2.537.183,5.07.024,7.606-.036.569.85.567.886,0,.159-2.536-.042-5.069-.024-7.606a.443.443,0,0,0-.886,0" transform="translate(-81.193 -166.419)"/>
          <path id="Trazado_1400591" data-name="Trazado 1400591" d="M108,220.305a33.006,33.006,0,0,1,2.865,1.854c.5.363,2.471,1.508,2.347,2.191-.1.531-1.607,1.3-2.111,1.575a17.206,17.206,0,0,1-2.75,1.113c-.536.183-.306,1.039.236.854a16.5,16.5,0,0,0,3.368-1.44c.657-.4,2.062-1.213,2.246-2.026.214-.945-1.207-1.736-1.779-2.189a33.66,33.66,0,0,0-3.974-2.7.443.443,0,0,0-.447.765" transform="translate(-81.797 -166.562)"/>
          <path id="Trazado_1400592" data-name="Trazado 1400592" d="M44.175,256.009c2.8-1.864,5.576.854,7.306,2.866,1.56,1.815,3.216,3.694,5.7,4.088.557.088.8-.765.235-.854-3.332-.528-4.845-3.791-7.171-5.822-1.783-1.556-4.386-2.461-6.519-1.043-.473.314-.029,1.082.447.765" transform="translate(-33.032 -193.169)"/>
          <path id="Trazado_1400593" data-name="Trazado 1400593" d="M133.488,276.6c1.214-1.578,2.289-4.393,4.618-4.531,2.016-.12,2.782,2.129,4.622,2.251.569.038.567-.848,0-.886-1.033-.069-2.022-1.514-3.012-1.933a3.582,3.582,0,0,0-2.754-.064c-2.072.814-2.971,3.069-4.239,4.715-.347.451.421.893.765.447" transform="translate(-100.657 -205.81)"/>
          <path id="Trazado_1400594" data-name="Trazado 1400594" d="M279.262,174.111c3.077-1.8,6.769-1.919,9.919-3.542a4.123,4.123,0,0,0,2.46-2.736,7.328,7.328,0,0,0-1.079-4.34c-.223-.43-.872-.05-.65.38.73,1.41,1.647,3.6.409,4.97A8.9,8.9,0,0,1,286.3,170.9c-2.514.773-5.12,1.219-7.418,2.565a.376.376,0,0,0,.38.65" transform="translate(-211.507 -123.932)"/>
          <path id="Trazado_1400595" data-name="Trazado 1400595" d="M320.354,152.005a.376.376,0,0,0,0-.752.376.376,0,0,0,0,.752" transform="translate(-242.842 -114.786)"/>
          <path id="Trazado_1400596" data-name="Trazado 1400596" d="M1.626,276.538Q.96,280.763.538,285.021.31,287.358.162,289.7c-.058.918-.414,2.309.162,3.125.5.711,1.556.787,2.335.939q2,.391,4.024.654a66.207,66.207,0,0,0,9.1.55.376.376,0,0,0,0-.752,66.464,66.464,0,0,1-7.473-.356q-2.044-.217-4.07-.567C3.231,293.12,1.074,293.13.8,291.9a7.041,7.041,0,0,1,.085-1.731q.056-.938.125-1.874.138-1.873.326-3.743.395-3.922,1.015-7.816c.074-.474-.65-.677-.725-.2" transform="translate(0 -209.659)"/>
          <path id="Trazado_1400597" data-name="Trazado 1400597" d="M78.085,352.978a.376.376,0,0,0,0-.752.376.376,0,0,0,0,.752" transform="translate(-58.983 -267.306)"/>
          <path id="Trazado_1400598" data-name="Trazado 1400598" d="M66.745,45.965a52.274,52.274,0,0,1-2.338-5.393c-.57-1.644-2-5.237.044-6.245a28.591,28.591,0,0,1,5.462-1.493l6.144-1.575a.376.376,0,0,0-.2-.725l-7.509,1.925c-1.547.4-4.244.569-5.291,2.007-1.029,1.413-.094,4.035.359,5.5a47.342,47.342,0,0,0,2.679,6.38c.209.436.858.055.65-.38" transform="translate(-47.501 -23.162)"/>
          <path id="Trazado_1400599" data-name="Trazado 1400599" d="M133.146,27.017a.376.376,0,0,0,0-.752.376.376,0,0,0,0,.752" transform="translate(-100.769 -19.933)"/>
        </g>
      </g>
    </g>
  </g>
</svg>
