<svg xmlns="http://www.w3.org/2000/svg" width="116.943" height="140.176" viewBox="0 0 116.943 140.176">
  <g id="Grupo_1206266" data-name="Grupo 1206266" transform="matrix(0.985, 0.174, -0.174, 0.985, 10855.672, 14316.746)">
    <g id="Grupo_1206263" data-name="Grupo 1206263" transform="translate(-13155.4 -12217.953)">
      <path id="Trazado_1279036" data-name="Trazado 1279036" d="M835.029,400.126a.408.408,0,0,0,.169.109.419.419,0,0,0,.2.046.6.6,0,0,0,.373-.155.529.529,0,0,0,.135-.232c.045-.134.091-.266.135-.4.023-.068.046-.134.068-.2a.771.771,0,0,0-.011-.409.4.4,0,0,0-.24-.269.389.389,0,0,0-.367.022.755.755,0,0,0-.286.275c-.029.063-.058.126-.088.19l-.177.381a.533.533,0,0,0-.072.266c.008.048.014.094.02.14a.513.513,0,0,0,.135.233" transform="translate(-822.632 -368.824)" fill="#315200"/>
      <path id="Trazado_1279037" data-name="Trazado 1279037" d="M835.029,400.126a.408.408,0,0,0,.169.109.419.419,0,0,0,.2.046.6.6,0,0,0,.373-.155.529.529,0,0,0,.135-.232c.045-.134.091-.266.135-.4.023-.068.046-.134.068-.2a.771.771,0,0,0-.011-.409.4.4,0,0,0-.24-.269.389.389,0,0,0-.367.022.755.755,0,0,0-.286.275c-.029.063-.058.126-.088.19l-.177.381a.533.533,0,0,0-.072.266c.008.048.014.094.02.14a.513.513,0,0,0,.135.233" transform="translate(-822.632 -368.824)" fill="#1a2c00"/>
      <path id="Trazado_1279034" data-name="Trazado 1279034" d="M840.843,421.078c-1.238-.573-2.861.038-4,.6a8.564,8.564,0,0,0-1.775,1.189,5.4,5.4,0,0,0-1.4,1.654,1.831,1.831,0,0,0-.135.416c-.037.068-.072.137-.1.207a1.411,1.411,0,0,0,.732,1.967,2.553,2.553,0,0,0,1.9-.217c.335-.149.663-.312.987-.484a9.14,9.14,0,0,0,3.027-1.871,2.636,2.636,0,0,0,.3-.347,3.357,3.357,0,0,0,1.229-1.4,1.387,1.387,0,0,0-.765-1.716" transform="translate(-823.483 -356.895)" fill="#263e00"/>
      <path id="Trazado_1279027" data-name="Trazado 1279027" d="M849.954,419.138c-1.027-.63-2.4-.227-3.517.3a.442.442,0,0,0-.484-.149,6.22,6.22,0,0,0-3.578,2.938,2.8,2.8,0,0,0-.355,2.324,1.852,1.852,0,0,0,2,1.09,6.866,6.866,0,0,0,2.4-.878,16.437,16.437,0,0,0,2.247-1.422,5.6,5.6,0,0,0,1.866-1.914,1.743,1.743,0,0,0-.571-2.288m-.7,1.189a.322.322,0,0,1,.109.33.577.577,0,0,0-.324-.086,1.2,1.2,0,0,0-.114-.353.616.616,0,0,1,.329.109" transform="translate(-818.873 -357.984)" fill="#263e00"/>
      <path id="Trazado_1279038" data-name="Trazado 1279038" d="M833.872,418.338a1.784,1.784,0,0,0-1.886-.014c-.1.052-.206.115-.307.175a2.009,2.009,0,0,0-1.643,1.152c-.031.071-.054.144-.083.217-.014.017-.031.032-.045.049-.461.561-1.034,1.351-.74,2.115a1.41,1.41,0,0,0,1.821.763,4.335,4.335,0,0,0,1.6-.981c.035-.032.069-.068.1-.1a6.854,6.854,0,0,0,1.129-1.218,2.377,2.377,0,0,0,.47-.937,1.225,1.225,0,0,0-.419-1.218" transform="translate(-825.732 -358.389)" fill="#263e00"/>
      <path id="Trazado_1279028" data-name="Trazado 1279028" d="M852.725,416.86a1.582,1.582,0,0,0-1.594-1.322,1.728,1.728,0,0,0-1.609,1.221,1.415,1.415,0,0,0-.043.519c-.02.023-.035.051-.054.075a.906.906,0,0,0-.332.373c.006-.017-.035.1-.049.137l-.018.037a.483.483,0,0,0,.412.716.261.261,0,0,1,.037.006.993.993,0,0,0,.175.144,1.442,1.442,0,0,0,1.032.132,3.942,3.942,0,0,0,.792-.22,2.156,2.156,0,0,0,.981-.746,1.509,1.509,0,0,0,.27-1.072" transform="translate(-815.078 -359.741)" fill="#263e00"/>
      <path id="Trazado_1279014" data-name="Trazado 1279014" d="M898.343,415.523l.1.026,1.433-7.96c.068,0,.132.011.2.011a13.859,13.859,0,1,0-9.393-3.7l-1.358-.9-1.536,7.679-.41.206a46.856,46.856,0,1,0,10.959,4.646M892.4,393.779a7.679,7.679,0,1,1,7.679,7.679,7.68,7.68,0,0,1-7.679-7.679" transform="translate(-826.369 -378.803)" fill="#ee9c53"/>
      <path id="Trazado_1279018" data-name="Trazado 1279018" d="M912.876,443.572a40.1,40.1,0,1,0-40.1,40.1,40.1,40.1,0,0,0,40.1-40.1" transform="translate(-823.807 -366.204)" fill="#fffefc"/>
      <path id="Trazado_1279019" data-name="Trazado 1279019" d="M844.9,425.707c1.536,0,15.358,4.607,15.358,4.607V421.1l4.607,6.143,10.75-12.286-4.607,16.893,12.286-3.071-10.75,6.143,13.822,10.75-16.893-4.607,3.072,10.75L866.4,442.6l-9.215,15.358,3.072-18.429L847.971,442.6l10.75-7.679Z" transform="translate(-817.261 -360.052)" fill="#ffe060"/>
      <path id="Trazado_1279015" data-name="Trazado 1279015" d="M887.242,409.327l1.952-4.858a15.158,15.158,0,1,1,12.188,5.007l-1.963,4.864a48.295,48.295,0,0,1-42.454,86.507c-.408-.177-.822-.353-1.235-.527a48.311,48.311,0,0,1,31.512-90.993m25.24-10.1a12.957,12.957,0,1,0-16.913,7.132l-.418,1.026.451-1.009a12.98,12.98,0,0,0,16.879-7.149M899.021,409.45a15.231,15.231,0,0,1-4.251-1.035l-.032-.014a15.432,15.432,0,0,1-3.844-2.284l-1.534,3.816a49.358,49.358,0,0,1,5.366,2.007c.938.418,1.837.9,2.735,1.371Zm-66.782,63.342A46.1,46.1,0,1,0,898.095,416.1a1.162,1.162,0,0,1-.551-.049v-.008a1.061,1.061,0,0,1-.545-.516c-1.037-.551-2.075-1.1-3.161-1.577-.392-.177-.788-.342-1.179-.5a46.106,46.106,0,0,0-60.42,59.342" transform="translate(-826.902 -379.206)"/>
      <path id="Trazado_1279032" data-name="Trazado 1279032" d="M874.375,400.613a9.108,9.108,0,0,1,7.048-16.8c0,.006.143.066.149.069a9.106,9.106,0,0,1,4.782,11.959,9.2,9.2,0,0,1-11.979,4.769m9.959-5.635a6.907,6.907,0,0,0-3.623-9.076l.287-1.066-.415,1.017a6.908,6.908,0,1,0,3.75,9.125" transform="translate(-804.412 -377.093)"/>
      <path id="Trazado_1279020" data-name="Trazado 1279020" d="M889.346,405.759c20.536,9.056,29.678,33.39,20.435,54.349s-33.381,30.6-53.928,21.55c-20.524-9.059-29.679-33.4-20.424-54.353s33.393-30.606,53.917-21.545m-32.484,73.593c19.44,8.574,42.295-.556,51.05-20.4s.094-42.884-19.337-51.458-42.289.556-51.058,20.395c-8.751,19.842-.087,42.883,19.344,51.46" transform="translate(-824.269 -366.804)"/>
      <path id="Trazado_1279021" data-name="Trazado 1279021" d="M857.924,436.558,843.912,427.6a1.1,1.1,0,0,1,.849-2l15.89,3.861-2.012-10.869a1.1,1.1,0,0,1,2.041-.748l5.453,9.586,9.506-13.806a1.067,1.067,0,0,1,1.368-.373,1.092,1.092,0,0,1,.59,1.285L873.165,430.7l11.441-2.316a1.085,1.085,0,0,1,1.241.694,1.1,1.1,0,0,1-.479,1.341l-9.887,5.607,14.094,9.348a1.1,1.1,0,0,1-.9,1.969l-16.62-4.583,2.769,11.547a1.112,1.112,0,0,1-.653,1.273,1.069,1.069,0,0,1-.837,0,1.1,1.1,0,0,1-.524-.436l-6.215-10.07-8.745,14.207a1.09,1.09,0,0,1-1.345.453,1.1,1.1,0,0,1-.651-1.278l3.849-16.273-10.825,2.379a1.064,1.064,0,0,1-.644-.054,1.087,1.087,0,0,1-.607-.613,1.1,1.1,0,0,1,.447-1.345Zm4.059-11.982,1.008,5.455,1.158.284.6-.875Zm16.31,7.327-5.773,1.175-.232.832,1.147.753Zm-7.2,16.264-1.451-6.076-1.03-.286-.723,1.176Zm-11.526,4.146,6.132-9.965,0-.006,1.464-2.388a1.1,1.1,0,0,1,1.235-.481l14.217,3.922-12.2-8.095a1.111,1.111,0,0,1-.456-1.212l3.809-13.865-8.232,11.957a1.1,1.1,0,0,1-1.17.445l-13.72-3.334,11.828,7.567a1.116,1.116,0,0,1,.476,1.178l-.683,2.893c-.006,0-.006.011-.006.015Zm.7-12.507.366-1.511-.653-.416L854.848,441Z" transform="translate(-818.063 -361.028)"/>
      <path id="Trazado_1279029" data-name="Trazado 1279029" d="M869.192,416.717a.257.257,0,0,0-.028-.017.744.744,0,0,1-.385-.99,42.441,42.441,0,0,0,1-4.139c-.154.106-.309.2-.462.3a29.734,29.734,0,0,1-4.08,2.423.76.76,0,0,1-1.041-.923c.622-1.9,1.106-4.05,1.467-5.705a.757.757,0,0,1,.908-.585.747.747,0,0,1,.574.9c-.253,1.212-.584,2.663-.98,4.108.786-.47,1.565-.977,2.313-1.479.657-.445,1.321-.871,1.981-1.285a.766.766,0,0,1,.828.023.734.734,0,0,1,.319.749,54.091,54.091,0,0,1-1.428,6.209.77.77,0,0,1-.988.408" transform="translate(-806.94 -364.28)"/>
      <path id="Trazado_1279031" data-name="Trazado 1279031" d="M838.531,424.207a17.851,17.851,0,0,0,3.138,1.344c.319-.639.64-1.3.954-1.961l-2.127-.854a.759.759,0,1,1,.562-1.41l2.21.885c.289-.634.58-1.273.845-1.918a18.867,18.867,0,0,1-2.883-1.365.77.77,0,0,1-.215-1.049.759.759,0,0,1,1.052-.229,23.165,23.165,0,0,0,3.326,1.525.755.755,0,0,1,.424.986c-.915,2.305-2.007,4.537-3.056,6.622a.768.768,0,0,1-.854.4,11.456,11.456,0,0,1-1.814-.568c-.707-.281-1.405-.628-2.235-1.041a.76.76,0,0,1,.673-1.364" transform="translate(-821.257 -358.674)"/>
      <path id="Trazado_1279024" data-name="Trazado 1279024" d="M851.857,448.347a5.344,5.344,0,0,0,1.114.1c.617-.055.9-.23.943-.364.068-.164-.061-.533-.419-.9a2.736,2.736,0,0,0-2.757-.753.756.756,0,1,1-.485-1.433,4.216,4.216,0,0,1,4.334,1.126,2.45,2.45,0,0,1,.762,2.486c-.2.539-.756,1.219-2.235,1.358a6.512,6.512,0,0,1-1.493-.117c-1.622-.246-2.351-.209-2.671.571-.032.129-.16.51.448,1a3.278,3.278,0,0,0,2.8.63.759.759,0,0,1,.722,1.336,4.128,4.128,0,0,1-3.265-.088,4.607,4.607,0,0,1-1.218-.7,2.411,2.411,0,0,1-.911-2.678c.832-2.1,3.028-1.768,4.335-1.566" transform="translate(-815.916 -344.073)"/>
      <path id="Trazado_1279022" data-name="Trazado 1279022" d="M875.365,433.767a.755.755,0,0,1,.657.846c-.1.792-.244,1.642-.4,2.509-.134.717-.255,1.444-.359,2.182a16.038,16.038,0,0,0,2.09-2.388.753.753,0,0,1,1.35.591,10.025,10.025,0,0,0-.094,3.159c.034-.034.06-.075.089-.111a16.709,16.709,0,0,0,2.393-3.7.815.815,0,0,1,1-.395.762.762,0,0,1,.387,1A17.768,17.768,0,0,1,879.9,441.5c-.375.479-.734.932-1.037,1.379a.753.753,0,0,1-.739.326.737.737,0,0,1-.619-.527,11.178,11.178,0,0,1-.49-2.967,11.059,11.059,0,0,1-2.3,1.9.78.78,0,0,1-.677.049c-.034-.015-.072-.032-.112-.055a.768.768,0,0,1-.358-.7,39.522,39.522,0,0,1,.556-4.056c.149-.834.293-1.643.387-2.416a.768.768,0,0,1,.854-.667" transform="translate(-801.902 -349.977)"/>
      <path id="Trazado_1279025" data-name="Trazado 1279025" d="M877.939,422.63a.738.738,0,0,1-.473-.032.776.776,0,0,1-.453-.505.763.763,0,0,1,.534-.935,9.8,9.8,0,0,0,2.079-.757.767.767,0,0,1,1,.4.757.757,0,0,1-.4,1,12.193,12.193,0,0,1-2.288.837" transform="translate(-800.07 -357.169)"/>
      <path id="Trazado_1279030" data-name="Trazado 1279030" d="M852.824,411.421a.788.788,0,0,1-.352-.281c-.2-.3-.359-.579-.519-.865-.138-.244-.283-.49-.464-.757a.751.751,0,0,1,.193-1.054.776.776,0,0,1,1.064.2,9.069,9.069,0,0,1,.524.872c.143.243.281.49.464.754a.761.761,0,0,1-.2,1.057.743.743,0,0,1-.711.078" transform="translate(-813.803 -363.601)"/>
      <path id="Trazado_1279023" data-name="Trazado 1279023" d="M866.593,448.63a13.31,13.31,0,0,0,.445,1.318c.172.482.355.963.479,1.447a.744.744,0,0,1-.533.929.773.773,0,0,1-.481-.021.738.738,0,0,1-.445-.519c-.123-.427-.287-.872-.453-1.316-.177-.476-.353-.961-.487-1.441a.77.77,0,0,1,.548-.932.76.76,0,0,1,.926.536" transform="translate(-806.44 -342.313)"/>
      <path id="Trazado_1279033" data-name="Trazado 1279033" d="M838.45,436.626a6.056,6.056,0,0,0,.987-.192.764.764,0,0,1,1,.4.755.755,0,0,1-.4,1,5.708,5.708,0,0,1-1.364.3,6.838,6.838,0,0,0-.991.2.806.806,0,0,1-.587,0,.766.766,0,0,1-.009-1.407,6.5,6.5,0,0,1,1.367-.3" transform="translate(-821.694 -348.578)"/>
    </g>
  </g>
</svg>
