<svg xmlns="http://www.w3.org/2000/svg" xmlns:xlink="http://www.w3.org/1999/xlink" width="153.946" height="155.402" viewBox="0 0 153.946 155.402">
  <defs>
    <clipPath id="clip-path">
      <rect id="Rectángulo_456684" data-name="Rectángulo 456684" width="153.946" height="155.402" fill="#dfdfa4"/>
    </clipPath>
    <clipPath id="clip-path-2">
      <circle id="Elipse_13786" data-name="Elipse 13786" cx="73.5" cy="73.5" r="73.5" transform="translate(724.883 4551.172)" fill="#fff" stroke="#707070" stroke-width="1"/>
    </clipPath>
    <clipPath id="clip-path-3">
      <rect id="Rectángulo_458531" data-name="Rectángulo 458531" width="163.777" height="252.892" fill="none"/>
    </clipPath>
  </defs>
  <g id="Grupo_1208306" data-name="Grupo 1208306" transform="translate(-1136.723 -4549)">
    <g id="Grupo_1206544" data-name="Grupo 1206544" transform="translate(862.201 -1550.42)">
      <g id="Grupo_1206514" data-name="Grupo 1206514" transform="translate(274.521 6099.42)">
        <g id="Grupo_1206513" data-name="Grupo 1206513" clip-path="url(#clip-path)">
          <path id="Trazado_1294880" data-name="Trazado 1294880" d="M176.416,90.112c-.191-1.212-1-.535-.812-.569-.046.719.678.46.812.569" transform="translate(-22.469 -11.439)" fill="#dfdfa4"/>
          <path id="Trazado_1294881" data-name="Trazado 1294881" d="M172.5,76.119l.331.156-1.021-1.563Z" transform="translate(-21.988 -9.561)" fill="#dfdfa4"/>
          <path id="Trazado_1294882" data-name="Trazado 1294882" d="M170.817,70.3l1.175.637c-.356-1.135-.821-2.421-1.3-3.6a11.96,11.96,0,0,1-.947-3.132c-.916,1.341,1.322,3.707,1.279,5.726Z" transform="translate(-21.695 -8.217)" fill="#dfdfa4"/>
          <path id="Trazado_1294883" data-name="Trazado 1294883" d="M170.731,57.88c-.1-.223-.217-.535-.393-1.076-.314.524-.862-1.051.372,1.355a2.073,2.073,0,0,1,.022-.279" transform="translate(-21.748 -7.266)" fill="#dfdfa4"/>
          <path id="Trazado_1294884" data-name="Trazado 1294884" d="M170.847,58.008c.467,1.092.1-.868,0,0" transform="translate(-21.864 -7.394)" fill="#dfdfa4"/>
          <path id="Trazado_1294885" data-name="Trazado 1294885" d="M169.163,52.175c-.882-1.373-1-.938-1.049.086L169.15,53.5c.128-.412-.39-1.714.013-1.328" transform="translate(-21.515 -6.566)" fill="#dfdfa4"/>
          <path id="Trazado_1294886" data-name="Trazado 1294886" d="M166.971,51.967c.051-.179.005-.393-.513-.637l.264.315.249.323" transform="translate(-21.303 -6.569)" fill="#dfdfa4"/>
          <path id="Trazado_1294887" data-name="Trazado 1294887" d="M167.472,52.71c-.392.03.067.183.6.734l-1.051-1.383c-.089.29-.446.48.447.649" transform="translate(-21.357 -6.663)" fill="#dfdfa4"/>
          <path id="Trazado_1294888" data-name="Trazado 1294888" d="M168.415,54.74c.12.895.358,1.991-.623.74,1.243,2.643,1.932,1.924.623-.74" transform="translate(-21.473 -7.005)" fill="#dfdfa4"/>
          <path id="Trazado_1294889" data-name="Trazado 1294889" d="M168.813,66.019a3.255,3.255,0,0,1-.3-1.208c-.078-.465-.179-.852-.35-.76l0,.581c0,.29-.017.584-.017.584Z" transform="translate(-21.519 -8.195)" fill="#dfdfa4"/>
          <path id="Trazado_1294890" data-name="Trazado 1294890" d="M163.668,44.173c-.122-.612-.6-1.636-.306-1.913-.276.059-.316.816-.542,1.089,0,0,.223.2.432.406l.417.418" transform="translate(-20.837 -5.408)" fill="#dfdfa4"/>
          <path id="Trazado_1294891" data-name="Trazado 1294891" d="M162.628,43.334l-1.3-1.191c.773,1.3,1.107,1.425,1.3,1.191" transform="translate(-20.646 -5.393)" fill="#dfdfa4"/>
          <path id="Trazado_1294892" data-name="Trazado 1294892" d="M165.884,52.712l1,1.06-1.119-1.3c-.272-.326-.576-.635-.8-.869s-.368-.387-.368-.387l.251.464s.539.5,1.027,1.03" transform="translate(-21.066 -6.555)" fill="#dfdfa4"/>
          <path id="Trazado_1294893" data-name="Trazado 1294893" d="M160.159,36.351l-.883-.44-.909-.408.722.413Z" transform="translate(-20.267 -4.544)" fill="#dfdfa4"/>
          <path id="Trazado_1294894" data-name="Trazado 1294894" d="M155.668,31.729c.867.227,0-1.312.746-.929a9.124,9.124,0,0,0-2.763-1.765,6.075,6.075,0,0,1,2.016,2.694" transform="translate(-19.664 -3.716)" fill="#dfdfa4"/>
          <path id="Trazado_1294895" data-name="Trazado 1294895" d="M151.959,28.207a11.664,11.664,0,0,0,1.476.723,5.581,5.581,0,0,0-1.476-.723" transform="translate(-19.447 -3.61)" fill="#dfdfa4"/>
          <path id="Trazado_1294896" data-name="Trazado 1294896" d="M159.377,37.542l-.215.983.379.553a1.85,1.85,0,0,0-.164-1.536" transform="translate(-20.369 -4.804)" fill="#dfdfa4"/>
          <path id="Trazado_1294897" data-name="Trazado 1294897" d="M159.045,38.493c-.4-.6-.685-1.023-.8-1.2.1.156.341.528.8,1.236Z" transform="translate(-20.251 -4.772)" fill="#dfdfa4"/>
          <path id="Trazado_1294898" data-name="Trazado 1294898" d="M159.69,39.443l-.1-.14c-.023.1-.02.14.1.14" transform="translate(-20.423 -5.03)" fill="#dfdfa4"/>
          <path id="Trazado_1294899" data-name="Trazado 1294899" d="M161.116,46.615c.79.351.536-.816,1.819.157-.858-.658-2.251-2.18-1.819-.157" transform="translate(-20.609 -5.836)" fill="#dfdfa4"/>
          <path id="Trazado_1294900" data-name="Trazado 1294900" d="M159.375,40.841s.223.388.423.791l.41.8c.146-.136.213-.566.651-.264l-.738-.669c-.363-.337-.746-.655-.746-.655" transform="translate(-20.396 -5.227)" fill="#dfdfa4"/>
          <path id="Trazado_1294901" data-name="Trazado 1294901" d="M158.572,40.179l.7.577-.331-.576Z" transform="translate(-20.293 -5.142)" fill="#dfdfa4"/>
          <path id="Trazado_1294902" data-name="Trazado 1294902" d="M153.484,31.142a9.9,9.9,0,0,1-2.047-1.654c.618.835,1.253,1.693,1.913,2.459.269-.047.882.018.133-.8" transform="translate(-19.38 -3.774)" fill="#dfdfa4"/>
          <path id="Trazado_1294903" data-name="Trazado 1294903" d="M156.41,34.909l-.14-.11c.017.123.053.2.14.11" transform="translate(-19.999 -4.453)" fill="#dfdfa4"/>
          <path id="Trazado_1294904" data-name="Trazado 1294904" d="M143.543,22.024c.01.069.018.133.028.2l.11-.075Z" transform="translate(-18.37 -2.819)" fill="#dfdfa4"/>
          <path id="Trazado_1294905" data-name="Trazado 1294905" d="M153.622,32.528a2.347,2.347,0,0,0,1.3,1.094,15.569,15.569,0,0,1-1.31-1.316c-.122.021-.182.058.008.221" transform="translate(-19.644 -4.135)" fill="#dfdfa4"/>
          <path id="Trazado_1294906" data-name="Trazado 1294906" d="M149.529,26.294c.188.39.426.8.668,1.245-.1-.46-.424-1.287-.668-1.245" transform="translate(-19.136 -3.365)" fill="#dfdfa4"/>
          <path id="Trazado_1294907" data-name="Trazado 1294907" d="M156.268,34.4a1.2,1.2,0,0,1,.1.071c-.033-.3-.074-.227-.1-.071" transform="translate(-19.999 -4.384)" fill="#dfdfa4"/>
          <path id="Trazado_1294908" data-name="Trazado 1294908" d="M156.123,34.338a4.71,4.71,0,0,0-.991-.521,8.617,8.617,0,0,0,.992.856,1.165,1.165,0,0,1,0-.335" transform="translate(-19.853 -4.328)" fill="#dfdfa4"/>
          <path id="Trazado_1294909" data-name="Trazado 1294909" d="M145.95,24.216l.4.4-.251-.1.589.443a10.171,10.171,0,0,1-1.268-2.4c-1.154-.553-1.508-.519-1.72-.4l1.334,1.217.915.838" transform="translate(-18.39 -2.827)" fill="#dfdfa4"/>
          <path id="Trazado_1294910" data-name="Trazado 1294910" d="M149.491,27.665c-.918.1-2.414-.842-2.21.461,1.531,1.434,1.475.61,2.6,1.291-2.5-2.354.986.427-.428-1.673a13.807,13.807,0,0,1,1.436,1.219c-.364-.515-.7-1.031-.995-1.541l.022.091.013.01-.011.006c.038.174.031.25-.047.09a.259.259,0,0,1-.062-.042.738.738,0,0,1-.31.085c-.584-.836.029-.253.31-.085a.53.53,0,0,0,.109-.048l0-.016s-.671-.565-1.384-1.082l-1.4-1.052a22.125,22.125,0,0,0,2.364,2.286" transform="translate(-18.829 -3.248)" fill="#dfdfa4"/>
          <path id="Trazado_1294911" data-name="Trazado 1294911" d="M158.477,45.923a.189.189,0,0,1,.092-.181c-.194-.132-.291-.167-.092.181" transform="translate(-20.267 -5.842)" fill="#dfdfa4"/>
          <path id="Trazado_1294912" data-name="Trazado 1294912" d="M158.718,41.8c.027-.058.054-.117.083-.177-.044-.03-.072.041-.083.177" transform="translate(-20.312 -5.326)" fill="#dfdfa4"/>
          <path id="Trazado_1294913" data-name="Trazado 1294913" d="M159.032,44.906c.177.7-.309.187-.5.347.426.287,1.339,1.132.862-.33l-.215-.146a8.658,8.658,0,0,1-.543-2.946,5.562,5.562,0,0,0-.548,2.212,1.649,1.649,0,0,1,.942.862" transform="translate(-20.232 -5.353)" fill="#dfdfa4"/>
          <path id="Trazado_1294914" data-name="Trazado 1294914" d="M152.868,34.836l-1.061-.944.437,1.5.253-.305c.9,1.321,1.036.768,1.4.73l-.317-.31c-.19-.187-.441-.436-.712-.669" transform="translate(-19.428 -4.337)" fill="#dfdfa4"/>
          <path id="Trazado_1294915" data-name="Trazado 1294915" d="M144.15,21.008s-.5-.07-1.009-.107l-1.012-.084,1.221.548Z" transform="translate(-18.189 -2.664)" fill="#dfdfa4"/>
          <path id="Trazado_1294916" data-name="Trazado 1294916" d="M140.5,18.277s-.262-.071-.53-.13l-.531-.124.536.72Z" transform="translate(-17.845 -2.307)" fill="#dfdfa4"/>
          <path id="Trazado_1294917" data-name="Trazado 1294917" d="M36.972,15.171l.74.423a4.693,4.693,0,0,1,1.831-1.04c-1.384.119-3.131.053-2.572.617" transform="translate(-4.718 -1.863)" fill="#dfdfa4"/>
          <path id="Trazado_1294918" data-name="Trazado 1294918" d="M99,2.262a11.971,11.971,0,0,0-2.6-.79c1.244.594,2.175,1.371,2.6.79" transform="translate(-12.337 -0.188)" fill="#dfdfa4"/>
          <path id="Trazado_1294919" data-name="Trazado 1294919" d="M9.262,132.875c.378.385.623.5.761.4-.377-.4-.655-.59-.761-.4" transform="translate(-1.185 -16.996)" fill="#dfdfa4"/>
          <path id="Trazado_1294920" data-name="Trazado 1294920" d="M95.948,1.4a3.8,3.8,0,0,0-3.1-.257c.184.091.367.143.554.221a9.788,9.788,0,0,1,2.545.036" transform="translate(-11.883 -0.117)" fill="#dfdfa4"/>
          <path id="Trazado_1294921" data-name="Trazado 1294921" d="M173.616,103.359a4.755,4.755,0,0,0,.126-1.442c0,.35-.068.911-.126,1.442" transform="translate(-22.219 -13.043)" fill="#dfdfa4"/>
          <path id="Trazado_1294922" data-name="Trazado 1294922" d="M125.312,9.491c.747.305.154-.027,0,0" transform="translate(-16.037 -1.214)" fill="#dfdfa4"/>
          <path id="Trazado_1294923" data-name="Trazado 1294923" d="M127.614,14.545a.5.5,0,0,0-.449.183.631.631,0,0,1,.449-.183" transform="translate(-16.274 -1.861)" fill="#dfdfa4"/>
          <path id="Trazado_1294924" data-name="Trazado 1294924" d="M126.259,10.368a6.563,6.563,0,0,0-.816-.668,7.653,7.653,0,0,0,.816.668" transform="translate(-16.054 -1.241)" fill="#dfdfa4"/>
          <path id="Trazado_1294925" data-name="Trazado 1294925" d="M126.395,10.014l.594.386c.147-.066.1-.179-.594-.386" transform="translate(-16.176 -1.282)" fill="#dfdfa4"/>
          <path id="Trazado_1294926" data-name="Trazado 1294926" d="M125.159,9.428,124.12,9a8.109,8.109,0,0,1,1.154.61c-.122-.112-.164-.178-.114-.183" transform="translate(-15.884 -1.152)" fill="#dfdfa4"/>
          <path id="Trazado_1294927" data-name="Trazado 1294927" d="M151.4,90.316c-.262.68-.745-.132-1.18-.056,0,0,.112-.26.27-.652s.371-.92.584-1.446l.585-1.462c.16-.4.243-.672.243-.672-.543-.459-.473-1.634-.4-2.77s.057-2.233-.474-2.476l.163,1.394c-.63-.951-1.358-.324-2.164.451l-.249.235c.078-1.387.126-2.781.126-4.187a73.025,73.025,0,0,0-23.085-53.35.6.6,0,0,0,.141.078l.221-.33c-.658-.6-1.287-.867-1.026-.382-.58-.532-1.178-1.046-1.775-1.559,1.484.5,2.151-1.806,1.825-3.721-.239.2-.4.381-2.041-.381.286.647,2.4,3.166.889,2.683-1.952-1.216-1.293-1.365-1.932-2.361.185,1.109-2.368-.378-3.194.231A73.166,73.166,0,0,0,107.3,12.6c.12-.059.164-.156.057-.326l-1.208-.4c-.757-1.173,2.629.042,1.3-.945a20.29,20.29,0,0,1,2.872.5,9.389,9.389,0,0,1,1.522.536,7.965,7.965,0,0,1,1.471.97l-.137,1.155c.114-.293-1.066-1.35-1.82-1.4.557.04,1.194.828,1.884,1.507s1.431,1.279,2.266.995l-.525-.776c-.259-.4-.545-.759-.545-.759.9.2,1.934.405,2.99.7a6.523,6.523,0,0,1,2.883,1.556c-.221-1.448-.474-.2-1.083-2.128.31,2.014-4.789-3.135-3.778-.58a3.857,3.857,0,0,0-1.462-1.994,8.382,8.382,0,0,1-1.945-2.02c-.1.343.361.943-1.235-.071a1.906,1.906,0,0,1-.507.09l-.1-.081.074.085c-.1.01-.107.017.028.031a2.118,2.118,0,0,1,.6.912,5.61,5.61,0,0,1-2.479-.41,13.472,13.472,0,0,0-2.413-.592c-.927-.6.577-.183.185-.773l-.8-.017-.808.016c.174-.773-2.25-2.286.358-1.751l-2.189-.9A8.51,8.51,0,0,0,98.6,4.01c-1.035-.472-2.953.062-1.852-.263L94.9,3.484,93.04,3.3l.01-.2a32.7,32.7,0,0,0-5.605-.651,17.328,17.328,0,0,1-5.923-1.207c-.621.054-1.25.111-1.976.122a13.625,13.625,0,0,1-2.578-.115L76.577.566A20.8,20.8,0,0,1,73.51.434C72.427.352,71.452.316,71.133.711A3.3,3.3,0,0,0,69.1.026a11.193,11.193,0,0,0-2.9.2c-1.028.186-2.088.378-3.054.611a16.3,16.3,0,0,1-2.561.465l.065.887a15.694,15.694,0,0,0-2.8.739c-.474.161-.957.338-1.462.53s-1.014.444-1.56.688l.348.713a10.545,10.545,0,0,1-3.6,1.064c-.718.132-1.478.26-2.249.426a15.366,15.366,0,0,0-2.269.745c.092-.358.883-.585,1.483-.628a6.607,6.607,0,0,0-2.954.559,16.233,16.233,0,0,0-2.583,1.577c-.833.564-1.6,1.219-2.408,1.713a7.357,7.357,0,0,1-2.55,1.028,3.135,3.135,0,0,1-1.829,1.041.612.612,0,0,0,.166-.143,3.46,3.46,0,0,0-.314.17,10.546,10.546,0,0,0-1.248.276,6.131,6.131,0,0,0,1.083-.179,14.327,14.327,0,0,0-2.1,1.693L33,13.732c-.063.053-.119.087-.182.146-1,.275-.439.754.348,1a4.726,4.726,0,0,0-.789,1.157c-1.415-.637-1.852,1.829-3.547,1.359-.05.487-.948,1.36-1.761,2.293a4.477,4.477,0,0,0-1.237,2.388,5.07,5.07,0,0,0-2.234,2.169l-1.075-.45s-.181.668-.36,1.336c-.153.679-.306,1.358-.306,1.358-1.453.581-2.161.776-1.755-.842a26.537,26.537,0,0,1-1.455,2.868A9.923,9.923,0,0,0,17.556,31.1l-.446-.55c-.637.851-.937,2.731-1.78,2.88-1.217.551-2.985,2.9-4.8,5.77-1.765,2.9-3.572,6.293-5.329,8.87,1.179-.129.665.415.059,1.12-.588.712-1.3,1.588-.61,1.984-.577.154-1.147.861-1.172-.218a19.729,19.729,0,0,1-1.317,3.588,4.225,4.225,0,0,0-.32,3.12c-.563.215-.494-.841-.855-.612.03.275.128,1.079-.238,1.32s-.264-.552-.327-1.1a6.249,6.249,0,0,0-.237,1.939,2.668,2.668,0,0,0,.418,1.235,3.562,3.562,0,0,0,1.744,1.193,4.033,4.033,0,0,0-.84,1.8,3.061,3.061,0,0,0,.467,1.718c-.543.457-1.177,1.3-.992-.665L.6,65.975c-.081.336-.169.7-.26,1.08-.07.382-.133.777-.187,1.166-.216,1.555-.278,3,.3,3.111-.308.317-.2,1.528-.093,1.823C.225,74.382.14,75.049.116,75.714S.063,77.039.085,78.25l.2-.669c1.3.964.3,2,.506,3.937l-.14-.05a9.5,9.5,0,0,0-.236,2.264,3.233,3.233,0,0,0,.154.927,2.8,2.8,0,0,1,.129.916C.685,86.03.636,86.7.51,87.831l.8-.337c.92.1.776,1.073.532,2.356a7.271,7.271,0,0,0,.106,4.057l.3-1c.405.626.033,1.68-.445,2.8s-1.066,2.3-.959,3.021c-.061.342-.387-.412-.6-.812-.009,3.932,1.189.2,2.19,2.805-.413.666-1.647-.208-1.182,1.645-.074.523.819,1.7,1.711,3.045a8.367,8.367,0,0,1,1.884,4.249c.183-.7.376-1.38,1.217-.349a20.551,20.551,0,0,1,.981,3.55c.365,1.286.831,2.523,1.925,2.933.017.278-.04.419-.133.484.55.559,1.257,1.568,2.057,2.422a6.475,6.475,0,0,0,2.149,1.777,2.07,2.07,0,0,0,.31,2.261,11.56,11.56,0,0,0,2.132,2.336,21.008,21.008,0,0,1,2.075,2.01c.482.583.626,1.1.117,1.533,0,0,.778.865,1.587,1.7l1.654,1.632-.279.1a8.215,8.215,0,0,0,2.491,2.113,5.976,5.976,0,0,0,1.892.6c.392.58-.148.441-.285.507a15.228,15.228,0,0,0,3.243,3.063,13.373,13.373,0,0,0,3.81,1.444l-.2.92c.543.082,1.6,1.273,3.14,2.55.379.324.782.663,1.209.991.439.311.9.618,1.375.907a10.37,10.37,0,0,0,3.043,1.331.7.7,0,0,1-.6.129c2.356.671,4.676,2.436,6.9,3.677,2.2,1.271,4.249,1.991,5.557.775,0,0,.8.085,1.612.1l1.609.054c-3.791-1.332.95-1.151-.485-2.1a4.8,4.8,0,0,1,2.143,1.051c.485.4.542.766-.41.6l-.249-.235c-1.125,1.459,4.7,1.738,4.379,2.761,3.931.753,7.839,1.361,11.733,1.772a59.486,59.486,0,0,0,11.553.112l-.5-.58L83.112,154s.163,0,.405-.026l.891-.087,1.3-.128c.717.208,1.056.872-.821,1.058,1.083.6,3.048-1,3.036-1.313,3.7-.134-1.168,1.719-.063,1.553l1.506-.365L89,154.6c.57-.367.854-.691,1.273-.964a6.007,6.007,0,0,1,2.07-.732c1.441-.07.89.6,1.451.523.017.089.215.087.853-.16,0,0,.207-.034.509-.114l1.113-.276,1.621-.4-1.557-.6c1.271-.867,2.98-.811,1.2-1.473,1.3.518,4.294-.278,7.035-1.41,1.38-.542,2.672-1.22,3.743-1.689a10.321,10.321,0,0,1,2.217-.93,10.506,10.506,0,0,1,1.169-1.072,14.264,14.264,0,0,1,1.26-.956c.883-.6,1.88-1.116,2.937-1.768-.633.157-1.53-.613.315-1.632.3,1.178,1.288.9,2.447.286s2.548-1.45,3.733-1.352c-.956.041.219-.967,1.258-1.947s1.873-2.013.453-1.811c1.471-1.024.646.6,2.041.117a23.453,23.453,0,0,1,2.291-2.5l2.715-2.43c.467-.418.961-.824,1.427-1.266l1.387-1.368a21.184,21.184,0,0,0,2.543-3.052c-.193-.25-1.108.156-.771-1.012l.459-.2c.281-.116.643-.282,1-.456l1.44-.7c.478-.97-.856-1.765,1.052-2.793-.363.088-.9.209-.608-.432,3.459-3.928,5.673-8.869,7.454-13.863,1.8-5.025,3.2-10.085,5.435-15.13-.841,1.327-.727.365-.56-.717M123.168,22.948q-1.09-.93-2.217-1.816a3.6,3.6,0,0,1,2.217,1.816m-2.643-2.213c-.007.014-.024.023-.038.032-.054-.042-.107-.085-.162-.127l.2.1M100.881,5.589a.383.383,0,0,0-.072.018c-1.128-.727-.732-.457.072-.018m-13.55-.776A16.414,16.414,0,0,1,89.86,4.6c2.853.181,1,1.179,1.529,1.063a9.11,9.11,0,0,0,2.981.4A8.911,8.911,0,0,0,96.294,5.8a4.578,4.578,0,0,1,4.106.809c1.358,1.45-.542,1.787-.392,2.551a6.917,6.917,0,0,1-2.572-1.03A8.393,8.393,0,0,0,95.4,7.138l1.692.941a5.358,5.358,0,0,1-3-.562,2.558,2.558,0,0,0,.671.443,72.9,72.9,0,0,0-10.4-2,5.478,5.478,0,0,1,.924-.519,9.157,9.157,0,0,1,2.033-.626M72.625,4.736c-.076.255.191.556.4.753q-1.117.039-2.225.112a5.508,5.508,0,0,1,1.83-.865M57.4,5.312c.147.012,1.248.085,2.42.217a11.1,11.1,0,0,1,2.921.642.8.8,0,0,1,.344.348c-.888.153-1.774.312-2.65.5L60.1,5.729,60.067,7.1c-.865.187-1.729.378-2.582.6A3.874,3.874,0,0,1,57.4,5.312M44.138,9.821l.811.263,1.014-.817c.509-.412,1.042-.78,1.042-.78-.392.819-1.087,2.182-1.85,3.59q-1.847.848-3.64,1.789a8.636,8.636,0,0,1,2.623-4.044M25.828,22.082a.957.957,0,0,0,.065.335c-.149-.12-.412-.013-.065-.335M21.8,26.788a3.189,3.189,0,0,0,1.133,1.06c-.436.452-.876.9-1.3,1.363.023-.436.051-.843.076-1.2.054-.735.091-1.226.091-1.226M2.844,62.432c.262-.325.566.065.909.651-.043-.222-.087-.435-.135-.6.258-.389.492-.5.708-.453-.113.488-.235.972-.338,1.464-.078-.135-.163-.284-.235-.407.051.238.1.5.152.768-.045.22-.078.445-.122.665a11.312,11.312,0,0,0-.954,1.055S2.817,64.786,2.8,64s.039-1.57.039-1.57m91.162,90.633-.559-.1c1.085-.5.818-.213.559.1" transform="translate(0 0)" fill="#dfdfa4"/>
          <path id="Trazado_1294928" data-name="Trazado 1294928" d="M133.28,13.93c.062-.164-.031-.5.252-.4-.15-.073-.389-.187-.648-.29l-.814-.343a3.023,3.023,0,0,1,1.21,1.037" transform="translate(-16.902 -1.65)" fill="#dfdfa4"/>
          <path id="Trazado_1294929" data-name="Trazado 1294929" d="M133.841,13.665a.806.806,0,0,1,.072.037l-.072-.037" transform="translate(-17.128 -1.749)" fill="#dfdfa4"/>
          <path id="Trazado_1294930" data-name="Trazado 1294930" d="M133.747,13.619l.082.039a.838.838,0,0,0-.082-.039" transform="translate(-17.116 -1.743)" fill="#dfdfa4"/>
          <path id="Trazado_1294931" data-name="Trazado 1294931" d="M133.744,17.4c-.282.682.765,1,1.788,1.595a1.387,1.387,0,0,1-.17-.12c.852-.617-.371-1.087-1.618-1.475" transform="translate(-17.11 -2.227)" fill="#dfdfa4"/>
          <path id="Trazado_1294932" data-name="Trazado 1294932" d="M136.972,20.008c.344-.242-.314-.324-.9-.617a5.9,5.9,0,0,1,.9.617" transform="translate(-17.414 -2.482)" fill="#dfdfa4"/>
          <path id="Trazado_1294933" data-name="Trazado 1294933" d="M122.128,8.751c.45.4.7-.679.878-.28.949-.576-3.955-.564-.878.28" transform="translate(-15.498 -1.033)" fill="#dfdfa4"/>
          <path id="Trazado_1294934" data-name="Trazado 1294934" d="M133.079,20.084l.133-.952-.93.241Z" transform="translate(-16.929 -2.448)" fill="#dfdfa4"/>
          <path id="Trazado_1294935" data-name="Trazado 1294935" d="M124.531,14.358l1.533,1.057c.044-.142.293-.111.582-.037-1-.545-2.039-1.272-2.115-1.02" transform="translate(-15.937 -1.831)" fill="#dfdfa4"/>
          <path id="Trazado_1294936" data-name="Trazado 1294936" d="M128.324,16.144a7.684,7.684,0,0,0-1.368-.608,4.346,4.346,0,0,0,1.368.608" transform="translate(-16.247 -1.988)" fill="#dfdfa4"/>
          <path id="Trazado_1294937" data-name="Trazado 1294937" d="M101.707,7.287c.51-.121,1.27-.1,1.02-.441l-2.034-.109c-.25.26.257.536,1.013.55" transform="translate(-12.878 -0.862)" fill="#dfdfa4"/>
          <path id="Trazado_1294938" data-name="Trazado 1294938" d="M175.47,95.079s.133-.4.228-.8.207-.8.207-.8l-.624,1.016Z" transform="translate(-22.432 -11.963)" fill="#dfdfa4"/>
          <path id="Trazado_1294939" data-name="Trazado 1294939" d="M175.245,91.185l-1-.966c.042.358.122,1.058-.14,1.325Z" transform="translate(-22.281 -11.546)" fill="#dfdfa4"/>
        </g>
      </g>
    </g>
    <g id="Enmascarar_grupo_1119339" data-name="Enmascarar grupo 1119339" transform="translate(414.828 5.828)" clip-path="url(#clip-path-2)">
      <g id="Grupo_1207946" data-name="Grupo 1207946" transform="translate(712.664 4551.927)">
        <g id="Grupo_1207945" data-name="Grupo 1207945">
          <g id="Grupo_1207944" data-name="Grupo 1207944" clip-path="url(#clip-path-3)">
            <path id="Trazado_1400679" data-name="Trazado 1400679" d="M39.547,263.585H85.488l-.975-7.333-1.564-64.436,23.6,71.769h50.3L128.9,157.353,38.208,145.859s-9.334,36.166-5.947,64.406c2.05,17.091,5.153,38.822,7.286,53.32" transform="translate(-2.311 -10.693)" fill="#9c9c72"/>
            <path id="Trazado_1400680" data-name="Trazado 1400680" d="M84.039,150.416q.071,7.959.141,15.918c1.669.174,3.673.295,5.342.469.586-5.305,1.13-10.431,1.715-15.736" transform="translate(-6.161 -11.027)" fill="none" stroke="#000e29" stroke-linecap="round" stroke-linejoin="round" stroke-width="1"/>
            <path id="Trazado_1400681" data-name="Trazado 1400681" d="M84.383,198.191l-4.215,61.484" transform="translate(-5.877 -14.529)" fill="none" stroke="#000e29" stroke-linecap="round" stroke-linejoin="round" stroke-width="1"/>
            <path id="Trazado_1400682" data-name="Trazado 1400682" d="M101.417,48.24,76.726,50.975,66,102.078l.606,44.5,49.86,5,3.424-94.961Z" transform="translate(-4.838 -3.536)" fill="#fff"/>
            <path id="Trazado_1400683" data-name="Trazado 1400683" d="M88.707,52.085a13.593,13.593,0,0,0,13.652,14.17c5.525-.029,10.71-3.608,13.326-8.475" transform="translate(-6.502 -3.818)" fill="none" stroke="#000e29" stroke-linecap="round" stroke-linejoin="round" stroke-width="1"/>
            <path id="Trazado_1400684" data-name="Trazado 1400684" d="M116.362,182.4l.173-84.436,4.077-42.911s11.124,4.8,19.63,9.162,12.139,7.469,18.3,21.624,7.253,17.3,11.566,31.42,3.884,30.493-16.343,35.47l.835,8.526a11.707,11.707,0,0,1-2.982,9.011l-1.185,1.306-1.209,9.622Z" transform="translate(-8.53 -4.036)" fill="#ffe878"/>
            <path id="Trazado_1400685" data-name="Trazado 1400685" d="M119.424,74.746Q123.5,67,127.577,59.253" transform="translate(-8.755 -4.344)" fill="none" stroke="#000e29" stroke-linecap="round" stroke-linejoin="round" stroke-width="1"/>
            <path id="Trazado_1400686" data-name="Trazado 1400686" d="M143.525,100.017l26.892,21.606" transform="translate(-10.522 -7.332)" fill="none" stroke="#000e29" stroke-linecap="round" stroke-linejoin="round" stroke-width="1"/>
            <path id="Trazado_1400687" data-name="Trazado 1400687" d="M121.987,128.749l14.29,21.075c3.887,5.731,10.979,8.337,17.9,8.308" transform="translate(-8.943 -9.439)" fill="none" stroke="#000e29" stroke-linecap="round" stroke-linejoin="round" stroke-width="1"/>
            <path id="Trazado_1400688" data-name="Trazado 1400688" d="M144.593,67.591q.284,15.372.568,30.746" transform="translate(-10.6 -4.955)" fill="none" stroke="#000e29" stroke-linecap="round" stroke-linejoin="round" stroke-width="1"/>
            <path id="Trazado_1400689" data-name="Trazado 1400689" d="M123.346,143.133a37.929,37.929,0,0,0,20.132,19.056" transform="translate(-9.042 -10.493)" fill="none" stroke="#000e29" stroke-linecap="round" stroke-linejoin="round" stroke-width="1"/>
            <path id="Trazado_1400690" data-name="Trazado 1400690" d="M129.7,137.625a20.931,20.931,0,0,0,22.6-27.41" transform="translate(-9.508 -8.08)" fill="none" stroke="#000e29" stroke-linecap="round" stroke-linejoin="round" stroke-width="1"/>
            <path id="Trazado_1400691" data-name="Trazado 1400691" d="M175.37,135.019a21.132,21.132,0,0,0-7.894,17.1" transform="translate(-12.277 -9.898)" fill="none" stroke="#000e29" stroke-linecap="round" stroke-linejoin="round" stroke-width="1"/>
            <path id="Trazado_1400692" data-name="Trazado 1400692" d="M79.21,49.1l-8.623,40.52-8.822,86.769L24.7,170.452l.437-9.432a10.742,10.742,0,0,1-3.71-10.887l3.912-16.239C4.486,140.262-7.288,115.7,4.977,97.155S28.485,68.51,37.847,61.3,51.561,53.61,79.21,49.1" transform="translate(0 -3.6)" fill="#ffe878"/>
            <path id="Trazado_1400693" data-name="Trazado 1400693" d="M78.074,51.135l1.993,16.991" transform="translate(-5.724 -3.749)" fill="none" stroke="#000e29" stroke-linecap="round" stroke-linejoin="round" stroke-width="1"/>
            <path id="Trazado_1400694" data-name="Trazado 1400694" d="M27.605,139.584l26.266-18.546" transform="translate(-2.024 -8.873)" fill="none" stroke="#000e29" stroke-linecap="round" stroke-linejoin="round" stroke-width="1"/>
            <path id="Trazado_1400695" data-name="Trazado 1400695" d="M8.312,98.886A299.914,299.914,0,0,1,42.9,87" transform="translate(-0.609 -6.378)" fill="none" stroke="#000e29" stroke-linecap="round" stroke-linejoin="round" stroke-width="1"/>
            <path id="Trazado_1400696" data-name="Trazado 1400696" d="M52.089,55.83a6.938,6.938,0,0,1,7.17,9.7c-3.106,7.015-6.689,14.009-10.005,20.927" transform="translate(-3.611 -4.09)" fill="none" stroke="#000e29" stroke-linecap="round" stroke-linejoin="round" stroke-width="1"/>
            <line id="Línea_3825" data-name="Línea 3825" x2="37.31" y2="4.882" transform="translate(25.133 157.42)" fill="none" stroke="#000e29" stroke-linecap="round" stroke-linejoin="round" stroke-width="1"/>
            <path id="Trazado_1400697" data-name="Trazado 1400697" d="M41.722,152.786A26.169,26.169,0,0,0,61.847,141.52" transform="translate(-3.059 -10.375)" fill="none" stroke="#000e29" stroke-linecap="round" stroke-linejoin="round" stroke-width="1"/>
            <path id="Trazado_1400698" data-name="Trazado 1400698" d="M29.848,92.563a21.939,21.939,0,0,0,16.058,31.273" transform="translate(-2.028 -6.786)" fill="none" stroke="#000e29" stroke-linecap="round" stroke-linejoin="round" stroke-width="1"/>
            <path id="Trazado_1400699" data-name="Trazado 1400699" d="M2.792,111.31a15.467,15.467,0,0,1,10.646,9.515,15.465,15.465,0,0,1-1.948,14.144" transform="translate(-0.205 -8.16)" fill="none" stroke="#000e29" stroke-linecap="round" stroke-linejoin="round" stroke-width="1"/>
            <path id="Trazado_1400700" data-name="Trazado 1400700" d="M121.368,19.713a3.615,3.615,0,0,0-2.408-2.949c-4.951-1.623-10.68.351-15.463,2.42a31.52,31.52,0,0,0-12.247,9.451c-1.29.023-2.476-.123-3.766-.1-1.89.034-2.633,3.026-2.118,4.845a4.4,4.4,0,0,0,4.249,3.109l28.18-9.072a2.988,2.988,0,0,0,2.016-1.658,3.026,3.026,0,0,0-.111-2.625,3.615,3.615,0,0,0,1.669-3.42" transform="translate(-6.247 -1.185)" fill="#000e29"/>
            <path id="Trazado_1400701" data-name="Trazado 1400701" d="M113.98,53.158c-1.189-.619-2.557-1.389-3.746-2.008.321-2.259.586-4.532.906-6.79a10.656,10.656,0,0,0,7.291-4.717,11.256,11.256,0,0,0,1.429-8.518,31.511,31.511,0,0,0-3.975-9.651,5.149,5.149,0,0,1-3.381.606A4.827,4.827,0,0,1,109.7,20.31c-4.673,2.156-9.276,4.412-13.949,6.568a3.436,3.436,0,0,1-.961,4.647c-.861-.8-1.742-1.511-2.6-2.313a6.1,6.1,0,0,0,3.8,11.533c-.485,2.7-1.035,5.417-1.52,8.117-1.254.14-2.585.335-3.838.475a12.088,12.088,0,0,0,4.636,9.579A12.5,12.5,0,0,0,105.9,60.922c3.6-1,6.655-4.305,8.075-7.764" transform="translate(-6.491 -1.489)" fill="#ffc99f"/>
            <path id="Trazado_1400702" data-name="Trazado 1400702" d="M106.015,31.8a.927.927,0,1,0-.927.927.927.927,0,0,0,.927-.927" transform="translate(-7.636 -2.263)" fill="#000e29"/>
            <path id="Trazado_1400703" data-name="Trazado 1400703" d="M117.978,26.927a.927.927,0,1,0-.927.927.927.927,0,0,0,.927-.927" transform="translate(-8.513 -1.906)" fill="#000e29"/>
            <path id="Trazado_1400704" data-name="Trazado 1400704" d="M111.593,29.247l1.975,3.044c-.58.115-1.047.365-1.627.48" transform="translate(-8.181 -2.144)" fill="none" stroke="#000e29" stroke-linecap="round" stroke-linejoin="round" stroke-width="1"/>
            <path id="Trazado_1400705" data-name="Trazado 1400705" d="M108.326,34.891a1.209,1.209,0,1,0,2.353.536" transform="translate(-7.938 -2.558)" fill="none" stroke="#000e29" stroke-linecap="round" stroke-linejoin="round" stroke-width="1"/>
            <path id="Trazado_1400706" data-name="Trazado 1400706" d="M101.778,29.715a3.02,3.02,0,0,1,4.386-2.544" transform="translate(-7.461 -1.968)" fill="none" stroke="#000e29" stroke-linecap="round" stroke-linejoin="round" stroke-width="1"/>
            <path id="Trazado_1400707" data-name="Trazado 1400707" d="M114.187,23.59l2.494-1.334" transform="translate(-8.371 -1.632)" fill="none" stroke="#000e29" stroke-linecap="round" stroke-linejoin="round" stroke-width="1"/>
            <path id="Trazado_1400708" data-name="Trazado 1400708" d="M92.531,35.482l2.3-.744" transform="translate(-6.783 -2.547)" fill="none" stroke="#000e29" stroke-linecap="round" stroke-linejoin="round" stroke-width="1"/>
            <path id="Trazado_1400709" data-name="Trazado 1400709" d="M95.948,42.339l1.42-.648" transform="translate(-7.034 -3.056)" fill="none" stroke="#000e29" stroke-linecap="round" stroke-linejoin="round" stroke-width="1"/>
            <path id="Trazado_1400710" data-name="Trazado 1400710" d="M106.447,46.012a11.415,11.415,0,0,0,6.529.277" transform="translate(-7.804 -3.373)" fill="none" stroke="#000e29" stroke-linecap="round" stroke-linejoin="round" stroke-width="1"/>
            <path id="Trazado_1400711" data-name="Trazado 1400711" d="M78.624,34.689l47.891-21.674-12.93-1.634L103.074,0,83.8,9.513,85.574,25.02Z" transform="translate(-5.764 0)" fill="#366400"/>
            <path id="Trazado_1400712" data-name="Trazado 1400712" d="M86.43,25.947,114,12.5" transform="translate(-6.336 -0.916)" fill="none" stroke="#000e29" stroke-linecap="round" stroke-linejoin="round" stroke-width="1"/>
            <path id="Trazado_1400713" data-name="Trazado 1400713" d="M64.877,137.438h0a12.459,12.459,0,0,1-8.951-16.047L69.784,79.619A10.533,10.533,0,0,1,90.03,85.365L79.876,128.19a12.461,12.461,0,0,1-15,9.248" transform="translate(-4.053 -5.308)" fill="#366400"/>
            <path id="Trazado_1400714" data-name="Trazado 1400714" d="M91.043,143.572h0a12.46,12.46,0,0,0,15.2-10.32L112.619,89.7A10.533,10.533,0,0,0,91.948,85.75L81.794,128.573a12.459,12.459,0,0,0,9.248,15" transform="translate(-5.971 -5.692)" fill="#366400"/>
            <path id="Trazado_1400715" data-name="Trazado 1400715" d="M74.859,77.649A6.044,6.044,0,0,1,82.427,75.3" transform="translate(-5.488 -5.483)" fill="none" stroke="#fff" stroke-linecap="round" stroke-linejoin="round" stroke-width="1"/>
            <path id="Trazado_1400716" data-name="Trazado 1400716" d="M58.344,121.09a11.453,11.453,0,0,1,14.792-2.1" transform="translate(-4.277 -8.591)" fill="none" stroke="#000e29" stroke-linecap="round" stroke-linejoin="round" stroke-width="1"/>
            <path id="Trazado_1400717" data-name="Trazado 1400717" d="M82.839,130.7a11.744,11.744,0,0,1,16.7-6.18" transform="translate(-6.073 -9.022)" fill="none" stroke="#000e29" stroke-linecap="round" stroke-linejoin="round" stroke-width="1"/>
            <path id="Trazado_1400718" data-name="Trazado 1400718" d="M92.295,85.072q-4.875,20.069-9.748,40.139" transform="translate(-6.051 -6.237)" fill="none" stroke="#000e29" stroke-linecap="round" stroke-linejoin="round" stroke-width="1"/>
            <path id="Trazado_1400719" data-name="Trazado 1400719" d="M98.048,81.871a6.52,6.52,0,0,1,6.8-1.77" transform="translate(-7.188 -5.848)" fill="none" stroke="#fff" stroke-linecap="round" stroke-linejoin="round" stroke-width="1"/>
            <path id="Trazado_1400720" data-name="Trazado 1400720" d="M76.534,129.1a8.921,8.921,0,1,0-8.921,8.921,8.921,8.921,0,0,0,8.921-8.921" transform="translate(-4.303 -8.81)" fill="#000e29"/>
            <path id="Trazado_1400721" data-name="Trazado 1400721" d="M61.834,126.986a6.349,6.349,0,0,1,8.146-3.67" transform="translate(-4.533 -9.011)" fill="none" stroke="#fff" stroke-linecap="round" stroke-linejoin="round" stroke-width="1"/>
            <path id="Trazado_1400722" data-name="Trazado 1400722" d="M103.168,135.184a8.921,8.921,0,1,0-8.921,8.921,8.921,8.921,0,0,0,8.921-8.921" transform="translate(-6.255 -9.256)" fill="#000e29"/>
            <path id="Trazado_1400723" data-name="Trazado 1400723" d="M88.671,132.915a6.349,6.349,0,0,1,8.146-3.67" transform="translate(-6.5 -9.446)" fill="none" stroke="#fff" stroke-linecap="round" stroke-linejoin="round" stroke-width="1"/>
            <path id="Trazado_1400724" data-name="Trazado 1400724" d="M52.077,113.656c2.991-1.162,6.405-2.426,9.4-3.588a71.307,71.307,0,0,0,10.64,4.194,5.034,5.034,0,0,0,1.574.294c.536-.013.8-.5,1.117-.933-3.687-2.954-7.181-6.2-10.868-9.154a83.307,83.307,0,0,0,8.49,2.787s3.743,2.838,6.158,4.436c1.144.757,2.515,2.131,3.895.828A42.052,42.052,0,0,0,67.562,97.578c2.991.868,9.129,2.728,9.129,2.728l5.9,5.422a3.876,3.876,0,0,0,1.435.967,1.624,1.624,0,0,0,1.723-.535c-1.971-3.211-3.169-7.083-5.989-9.582a41.469,41.469,0,0,0-9.121-6.1c2.5.564,5.252,1.514,7.755,2.079l4.479,5.373a5.137,5.137,0,0,0,1.587,1.437,1.274,1.274,0,0,0,1.676-.176L81.19,88.33A128.856,128.856,0,0,0,69.7,80.853,80.068,80.068,0,0,0,44.963,87c-3.766,1.645-5.851,5.966-6.728,9.981a14.285,14.285,0,0,0,2.484,11.678c2.522,3.244,7.528,6.486,11.358,5" transform="translate(-2.778 -5.927)" fill="#ffc99f"/>
            <path id="Trazado_1400725" data-name="Trazado 1400725" d="M72.879,90.827l2.856,1.03" transform="translate(-5.343 -6.659)" fill="none" stroke="#000e29" stroke-linecap="round" stroke-linejoin="round" stroke-width="1"/>
            <path id="Trazado_1400726" data-name="Trazado 1400726" d="M69.741,99.078l2.4.975" transform="translate(-5.113 -7.263)" fill="none" stroke="#000e29" stroke-linecap="round" stroke-linejoin="round" stroke-width="1"/>
            <path id="Trazado_1400727" data-name="Trazado 1400727" d="M139.278,101.414C132.094,95.819,114.7,89.441,114.7,89.441s-8.956,1.805-13.406,2.66l-8,8.847a1.522,1.522,0,0,0,1.449,1.034,4.168,4.168,0,0,0,1.729-.615l6.781-3.621c2.574-1.374,5.759-.165,8.676-.272a74.75,74.75,0,0,0-21.536,12.2,1.578,1.578,0,0,0,1.4.94,4.2,4.2,0,0,0,1.659-.33l9.256-3.182c2.912-1,5.935-.92,8.989-1.3a68.414,68.414,0,0,0-19.282,8.055,1.559,1.559,0,0,0,1.286,1.024,5.07,5.07,0,0,0,1.811-.054l17.357-2.621c-4.707,1.232-9.686,2.695-14.392,3.927a1.317,1.317,0,0,0,.824,1.219,3.81,3.81,0,0,0,1.528.229l13.394.158c2.021,1.957,4.089,3.923,6.111,5.881,4.78,4.629,13.53,3.275,18.136-1.526s6.058-16.588.808-20.676" transform="translate(-6.627 -6.557)" fill="#ffc99f"/>
            <path id="Trazado_1400728" data-name="Trazado 1400728" d="M114.331,97.121l-2.725,1.744" transform="translate(-8.182 -7.12)" fill="none" stroke="#000e29" stroke-linecap="round" stroke-linejoin="round" stroke-width="1"/>
            <path id="Trazado_1400729" data-name="Trazado 1400729" d="M111.489,107.321l2.07-.436" transform="translate(-8.173 -7.836)" fill="none" stroke="#000e29" stroke-linecap="round" stroke-linejoin="round" stroke-width="1"/>
            <path id="Trazado_1400730" data-name="Trazado 1400730" d="M110.306,115.089l4.9-1.651" transform="translate(-8.087 -8.316)" fill="none" stroke="#000e29" stroke-linecap="round" stroke-linejoin="round" stroke-width="1"/>
          </g>
        </g>
      </g>
    </g>
  </g>
</svg>
