<svg xmlns="http://www.w3.org/2000/svg" xmlns:xlink="http://www.w3.org/1999/xlink" width="149.61" height="160.03" viewBox="0 0 149.61 160.03">
  <defs>
    <clipPath id="clip-path">
      <rect id="Rectángulo_458701" data-name="Rectángulo 458701" width="46.797" height="64.013" fill="none"/>
    </clipPath>
  </defs>
  <g id="Grupo_1208309" data-name="Grupo 1208309" transform="translate(-367.781 -3897.439)">
    <path id="Trazado_1294578" data-name="Trazado 1294578" d="M122.21,104.416c-2.038-.909-5.079-1.673-6.447-3.577-2.353-3.281.124-6.138,3.162-7.378,5.039-2.055,4.489-9.286-1.3-9.636-1.776-.107-4.83.233-7.031-.428-.046-.144-.1-.285-.141-.43-.738-3.606.1-8.405,2.975-10.432,4.008-2.832,1.629-10.653-3.6-8.53-.378.154-.739.322-1.1.489l-.009-.018c-.023.016-.041.034-.064.051-.3.137-.586.28-.873.426a5.113,5.113,0,0,0-.391-.955c-1.7-3.193-3.678-6.738-2.61-9.719a8.984,8.984,0,0,1,1.138-1.828,7.676,7.676,0,0,1,1.466-1.208c3.655-2.345,1.981-8.639-1.888-8.644-2.457-.6-5.332-.531-7.594-1.673a2.213,2.213,0,0,1-.922-2.119,10.123,10.123,0,0,1,5.475-6.648c5.311-2.907.646-10.582-4.69-8.022a21.118,21.118,0,0,0-2.6,1.481c-1.93-1.056-4.129-2.118-5.515-3.695-.313-3.927,2-7.547,6.225-9.234a3.154,3.154,0,0,0,2.116-3.724,14.735,14.735,0,0,0-1.784-5.128,3.238,3.238,0,0,0-4.416-1.158C87.477,5.556,83.346,8.77,81.181,13.138a71.812,71.812,0,0,1-3.663-6.752A3.41,3.41,0,0,0,72.87,5.168a16.757,16.757,0,0,0-3.491,2.961A3.588,3.588,0,0,0,69.27,12.8c-1.4,5.578-10.4,5.495-12.9.622-1.937-3.769-8.016-1.991-7.9,2.139.072,2.521-.549,5.3-3.156,6.375-2.341.962-3.16-.791-4.288-2.437-2.325-3.392-6.049-5.7-10.31-4.532-4.341,1.194-4.851,5.4-4.258,9.179a14.466,14.466,0,0,1,.247,1.734c-2.356.476-4.68,1.1-7.061,1.408a3.511,3.511,0,0,0-.226-.62c-1.351-2.851-2.023-4.376-5.293-5.378A15.132,15.132,0,0,0,4,21.375c-3.93,1.488-4.916,6.509-1.165,8.917,3.325,2.135,12.161,4.121,9.214,9.505C9.692,44.1,7.01,46.962,10.6,51.6c1.421,1.835,3.944,2.891,6.1,3.493a19,19,0,0,0,2.157.357,4.162,4.162,0,0,0-.848,3.81,9.1,9.1,0,0,1-.515,5.91c-1.333,1.573-2.6,2.883-3.242,3.52-3.994,3.976,1.333,9.336,5.668,6.853A3.994,3.994,0,0,0,21,75.977c4.046,1,12.561,10.458,4.568,11.438-4.784.587-6.855,8.054-1.24,9.162,2.111.417,5.306.487,6.641,2.441,1.892,2.771,3.036,7.669-.763,9.1-3.466,1.3-4.315,4.908-2.045,7.745a12.274,12.274,0,0,0,5.383,3.66c1.659.674,3.5.2,3.745,2.264.392,3.322-2.273,5.967-3.79,8.683a11.817,11.817,0,0,0-1.12,8.818c.437,1.807,2.483,3.612,4.437,3.378,4.75-.568,6.647-3.547,8.057-7.833.642-1.952.935-3.783,3.048-4.509,3.052-1.048,6.325,3.36,8.1,5.187,2.521,2.6,6.653,1.173,7.714-2.036.485-1.468,1.053-8.4,2.515-9,6.067-2.511,11.505,3.061,15.379,6.834,2.951,2.874,8.72.952,8.466-3.507-.138-2.423-.3-6.239,2.933-6.549,3.613-.347,6.635,2.228,8.729,4.86,1.888,2.372,6.512,1.707,7.764-1a18.793,18.793,0,0,0,1.817-6.034c.168-1.517-.335-4.718,1.034-5.7,3.422-2.457,6.345,3.33,8.617,5.223,2.686,2.239,7.312,1.713,8.231-2.174,1.393-5.885-1.849-9.7-7.012-12" transform="translate(385.441 3897.439) rotate(7)" fill="#dfe5d1"/>
    <path id="Trazado_1294584" data-name="Trazado 1294584" d="M47.439,11.079c2.923-.854,5.581-1.6,8.22-2.415,1.485-.457,2.346.321,2.625,2.046a11.41,11.41,0,0,0,1.376,4.559C61.3,17.669,64,17.926,66.7,16.387c1.822-1.038,2.536-3.4,1.779-5.879-1.2-3.941-1.195-3.906,2.832-4.778,1.808-.391,3.575-.966,5.365-1.442,2.041-.543,2.8.163,2.425,2.24-.5,2.762.211,4.37,2.047,5.578,2.5,1.648,3.974-.258,5.654-1.448C88.409,9.516,88.486,8,87.723,6.3c-.461-1.028-.839-2.093-1.384-3.47,1.972-.513,3.8-.98,5.627-1.468A13.5,13.5,0,0,0,94.808.5c1.683-.89,2.528-.673,3.006,1.215.4,1.579.588,3.212.841,4.825a51.682,51.682,0,0,1,.744,5.484c.028.582-.622,1.33-1.156,1.761a2.456,2.456,0,0,1-1.648.279c-3.671-.406-4.821,2.079-4.82,4.961,0,2.735,2.187,4.414,5.311,4.151,1.613-.135,3.215-.453,4.828-.508a2.416,2.416,0,0,1,1.749.783,7.009,7.009,0,0,1,.8,2.173c.61,1.883,1.182,3.778,1.825,5.65.413,1.2.813,2.072-1.16,2.283-2.608.279-5.321,2.735-3.93,5.917.781,1.786,3.3,2.906,5.729,2.2,2.7-.787,3.1-.5,3.765,2.264.518,2.149,1.161,4.269,1.794,6.388.52,1.74.275,2.626-1.894,2.655-3.741.049-5.2,1.388-5.555,4.537a4.36,4.36,0,0,0,3.965,4.849,15.064,15.064,0,0,0,4.242-.351,1.81,1.81,0,0,1,2.494,1.311,32.376,32.376,0,0,1,1.369,7.067c.034.9-1.3,2.081-2.271,2.76-3.227,2.252-4.246,4.821-2.378,8.177.848,1.523,1.874,2.28,3.564,2.106A17.316,17.316,0,0,0,118.762,83c2.873-.777,3.551-.417,3.988,2.536.279,1.888.263,3.821.551,5.708.195,1.28-.225,1.8-1.434,1.636-1.643-.221-2.367.576-2.59,2.084a35.412,35.412,0,0,0-.6,3.791c-.132,3.547,2.672,5.461,7.077,4.927,3.148-.381,4.472.586,5.3,3.728.359,1.359,1.046,2.645,1.3,4.017a44.91,44.91,0,0,1,.589,5.92c.012.251-.776.675-1.249.791-2.853.7-5.722,1.328-8.586,1.981l-.266.738a9.389,9.389,0,0,1-.861-2.274c-.294-2.824-2.817-6.023-5.49-6.768-1.582-.441-4.569,1.583-4.9,3.564a12.875,12.875,0,0,0,1.389,8.467c.3.55.636,1.493.386,1.822-.334.438-1.212.528-1.877.637a48.012,48.012,0,0,0-5.191.776c-2.287.638-3.889-.1-4.08-2.525-.395-5.022-5.292-6.307-9.3-3.866-2.365,1.44-3.043,5.518-1.5,7.9.341.525.725,1.021,1.4,1.96a49.745,49.745,0,0,1-5.03,1.931c-2.231.594-4.527.949-6.8,1.369-1.293.238-1.786-.471-1.93-1.668-.464-3.863-3.319-6.55-7.121-5.85a8.321,8.321,0,0,0-4.83,3.7,3.4,3.4,0,0,0,1.516,4.924c.346.177.476.777.705,1.182a5.215,5.215,0,0,1-1.19.627c-3.245.745-6.492,1.493-9.761,2.118a2.124,2.124,0,0,1-1.775-.634c-.85-1.21-1.227-2.824-2.236-3.833a18.227,18.227,0,0,0-4.6-3.146c-.834-.429-3.842,2.242-3.91,3.674-.131,2.769.1,5.556.189,8.793-1.3.23-3.274.646-5.268.906-1.4.184-2.834.1-4.244.235a3.615,3.615,0,0,1-4.3-2.847c-.848-2.618-2.091-5.106-3.1-7.673-.574-1.456-.453-2.246,1.563-2.432a6.528,6.528,0,0,0,6.193-7.5c-.271-2.141-2.754-4.88-4.872-5.079a3.868,3.868,0,0,0-2.258.873c-1.647,1.152-2.7.837-3.361-.985-.859-2.357-1.836-4.673-2.8-6.989-.442-1.058.477-2.261,2.034-2.575,3.574-.72,5.482-2.745,5.482-5.815a5.144,5.144,0,0,0-6.765-4.975c-2.36.708-3.365.131-4-2.292A61.8,61.8,0,0,0,18.539,90c-.763-1.974,0-2.374,1.719-2.54,3.679-.353,5.321-1.624,5.8-4.6a6.9,6.9,0,0,0-2.842-6.74c-1.857-1.46-3.848-1.288-5.945-.1-2.9,1.647-4.23.8-4.561-2.574a24.161,24.161,0,0,0-.623-4.2c-.437-1.54.043-2.134,1.513-2.627,4.078-1.367,5.577-3.8,4.911-7.538a4.862,4.862,0,0,0-6.941-3.35c-.5.258-1.865-.041-2.018-.414a70.4,70.4,0,0,1-3.041-8.744C6.382,46.1,7.787,44.9,8.69,44.519,11.81,43.2,12.8,41.885,12.6,38.69a4.224,4.224,0,0,0-5.527-4.011,10.7,10.7,0,0,1-1.832.571c-1.27.07-2.339-.211-2.689-1.764-.524-2.333-1.2-4.631-1.817-6.944A12.843,12.843,0,0,1,0,23.475a2.089,2.089,0,0,1,1.2-1.61c4-.665,7.987-1.246,11.7-3.086,1.339-.663,2.092.284,2.45,1.734.978,3.973,4.621,5.908,7.953,4.359a4.1,4.1,0,0,0,1.841-6.224c-1.072-1.539-.5-1.822,1-2.188,2.763-.673,5.476-1.561,8.192-2.414,2.037-.639,2.978-.183,3.619,1.823.783,2.455,2.118,4.219,4.926,4.718,4.49.8,6.412-3.318,5.552-6.378-.3-1.083-.684-2.144-1-3.13m-26.3,78.755c.28,1.24.562,2.4.8,3.568.44,2.145,1.441,3.229,3.926,3.18,3.406-.068,5.622,2.093,7,5.059a6.929,6.929,0,0,1-4.25,9.654c-1.947.527-2.263,1.334-1.449,2.993a12.872,12.872,0,0,0,.844,2.162c.378.5,1.329,1.126,1.7.962,1.753-.774,3.114.184,4.415.891,4.7,2.554,7.164,7.909,3.153,12.626-1.006,1.183-2.741,1.718-3.954,2.766a2.939,2.939,0,0,0-1.057,2.289,28.662,28.662,0,0,0,2.282,5.521,2.652,2.652,0,0,0,1.916,1.272A45.383,45.383,0,0,0,42.2,142.2c1.755-.239,2.454-1.351,1.632-2.887-1.566-2.924.045-7.065,2.627-8.691a6.631,6.631,0,0,1,4.758-.861,7.329,7.329,0,0,1,4.113,3.17c2.13,3.917,5.059,4.188,8.7,2.754.065-.026.143-.017.211-.037,1.192-.344,1.73-.773,1.234-2.294a8.473,8.473,0,0,1-.365-4.951c1.332-3.92,8.276-5.906,11.474-3.305,2.181,1.775,3.944,4.063,6.29,6.541l7.236-1.519c-.37-1.111-.613-1.842-.856-2.574-1.6-4.837.355-8.61,5.254-10.132,3.338-1.036,7.986,1.211,9.362,4.492.348.828.732,2.225,1.244,2.294a41.325,41.325,0,0,0,6.1-.039c-2.359-3.536-1.771-6.641-1.4-9.764.212-1.772,1.219-2.657,2.62-3.588,2.978-1.978,5.44-.4,7.92.883a6.209,6.209,0,0,1,2.012,2.179c.768,1.166,1.364,2.445,2.032,3.674l5.65-1.259c-.343-1.061-.659-1.993-.946-2.934a17.281,17.281,0,0,1-.866-3.09c-.332-3.115-1.593-4.61-5.1-4.4-3.378.206-5.643-1.994-6.718-5.164a10.178,10.178,0,0,1,1.373-9.346,2.929,2.929,0,0,1,1.434-.85,1.938,1.938,0,0,0,1.378-2.516c-.187-.878-.431-1.743-.612-2.461-2.077.239-4.053,1-5.679.542-3.5-.995-4.568-4.2-5.168-7.428a6.25,6.25,0,0,1,3.121-6.528,3.233,3.233,0,0,0,1.566-3.872c-.128-.7-.255-1.408-.332-2.118-.165-1.528-.879-2.089-2.423-1.6-4.057,1.292-7.894-2.031-8.392-5.484-.567-3.925.722-6.937,5.146-8.08,1.926-.5,2.056-1.427,1.614-2.916-.2-.682-.586-1.31-.777-1.994-.414-1.481-1-2.164-2.855-1.923a6.043,6.043,0,0,1-6.977-4.32c-1.059-3.495.044-6.109,3.382-8.032.364-.21.706-.457,1.185-.769-.394-1.456-.888-2.871-1.141-4.326-.273-1.572-1.124-1.74-2.458-1.454-4.465.955-7.85-.665-9.836-4.642a6.4,6.4,0,0,1,5.372-8.975c.515-.022,1.471-.529,1.448-.718-.329-2.7-.79-5.386-1.224-8.1A45.89,45.89,0,0,0,90.74,4.064c-.57.217-1.378,1.126-1.287,1.552.622,2.917-.47,5.026-2.513,7.019-2.4,2.343-5.3,2.843-7.643.443-1.528-1.567-2.373-3.8-3.722-6.07l-6.317,1.52c1.851,6.028-.279,8.951-3.806,10.176a6.942,6.942,0,0,1-4.728.145c-3.02-1.425-4.529-4.328-5.4-7.671-1.382.375-2.619.672-3.83,1.053-1.022.323-1.378.873-1.049,2.1.966,3.588-.72,6.545-4.26,7.863-3.711,1.38-6.233.655-8.575-2.509-.679-.917-1.222-1.941-1.945-2.818a1.7,1.7,0,0,0-1.355-.618c-1.9.561-3.744,1.3-5.621,1.931-.971.327-1.047.72-.962,1.847.242,3.2-.874,6.859-4.427,7.427a8.289,8.289,0,0,1-9.307-4.735c-.648-1.4-1.341-1.826-2.8-1.171A41.561,41.561,0,0,1,6.956,23c-1.5.484-3,.938-4.5,1.4q.858,2.4,1.716,4.8a1.343,1.343,0,0,1,.086.2c.358,2.015,1.485,2.673,3.585,2.8a7.139,7.139,0,0,1,6.833,6.019c.681,3.479-.483,5.662-3.861,7.733a2.863,2.863,0,0,0-1.317,2.111,12.581,12.581,0,0,0,1.377,4.673c.248.447,1.91.108,2.925.131a1.552,1.552,0,0,1,.21.04c3.146.549,6.745,4.187,6.9,7.364.168,3.483-.484,6.431-4.779,8.1A1.894,1.894,0,0,0,15.047,69.7a35.58,35.58,0,0,0,.587,4.174c7.651-2.621,11.555,2.256,12.951,7.5.972,3.647-1.222,6.228-7.451,8.459" transform="translate(385.441 3897.439) rotate(7)"/>
    <rect id="Rectángulo_456651" data-name="Rectángulo 456651" width="132.94" height="144.908" transform="translate(385.441 3897.439) rotate(7)" fill="none"/>
    <path id="Trazado_1404689" data-name="Trazado 1404689" d="M-6176.26-7763.383l63.522-8.735,15.806,83.54-66.527,11.824Z" transform="translate(6579.932 11700)" fill="#dfdfa4" stroke="#262626" stroke-width="2"/>
    <g id="Grupo_1208240" data-name="Grupo 1208240" transform="translate(414.469 3947.154) rotate(-9)">
      <g id="Grupo_1208239" data-name="Grupo 1208239" clip-path="url(#clip-path)">
        <path id="Trazado_1404688" data-name="Trazado 1404688" d="M15.137,28.368,16.273,16.4H18.9v2.02a.931.931,0,1,0,1.861,0V16.4h3.645v2.02a.934.934,0,0,0,1.868,0V16.4H28.9l1.135,11.971a1.806,1.806,0,0,1-1.812,1.99H16.949A1.806,1.806,0,0,1,15.137,28.368Zm5.626-14.691a1.823,1.823,0,0,1,3.645,0v.855H20.764ZM16.949,32.223H28.223a3.679,3.679,0,0,0,3.673-4.03L30.705,15.659a1.241,1.241,0,0,0-1.241-1.127H26.277v-.855a3.687,3.687,0,0,0-7.375,0v.855H15.709a1.246,1.246,0,0,0-1.241,1.127L13.283,28.193A3.67,3.67,0,0,0,16.949,32.223ZM8.009,11.637v11.12c0,8.6,7.163,14.124,14.094,19.462l.487.371c.155-.123.317-.246.479-.371C30,36.88,37.163,31.36,37.163,22.756V11.637c-5.484-.765-10.718-4.281-14.573-9.154C18.735,7.356,13.486,10.873,8.009,11.637ZM20.968,43.7c.353.269.7.539,1.05.808a.938.938,0,0,0,1.142,0C30.7,38.683,39.032,32.74,39.032,22.756V11.335a1.493,1.493,0,0,0-1.29-1.5C32.265,9.188,26.93,5.347,23.344.388a.935.935,0,0,0-1.516,0c-3.56,4.948-8.931,8.8-14.4,9.444a1.486,1.486,0,0,0-1.283,1.5V22.756C6.148,32.278,13.685,38.083,20.968,43.7ZM43.96,50.821l-.077.057-16.724,10.9a.77.77,0,0,1-.67.1L16.153,58.988a2.626,2.626,0,0,0-1.431,0l-3.631.989v-10.6l5.38-1.488,9.864,2.644A2.158,2.158,0,0,1,25.22,54.7L15.1,51.988a.932.932,0,0,0-.48,1.8L24.733,56.5a3.986,3.986,0,0,0,3.053-.405,4.031,4.031,0,0,0,1.734-2l13.8-6.2a1.27,1.27,0,0,1,1.579.867A2.147,2.147,0,0,1,43.96,50.821ZM9.229,61.4a.745.745,0,0,1-.747.745H2.609a.743.743,0,0,1-.74-.745V48.548a.744.744,0,0,1,.74-.747H8.482a.746.746,0,0,1,.747.747ZM46.71,48.323a3.125,3.125,0,0,0-4.16-2.13l-12.8,5.757a4.033,4.033,0,0,0-2.926-3.222L16.7,46.018a.914.914,0,0,0-.487,0L10.872,47.5a2.6,2.6,0,0,0-2.39-1.561H2.609A2.612,2.612,0,0,0,0,48.548V61.4a2.612,2.612,0,0,0,2.609,2.61H8.482a2.615,2.615,0,0,0,2.559-2.095l4.174-1.137a.743.743,0,0,1,.437,0l10.329,2.891a2.635,2.635,0,0,0,2.2-.337L44.9,52.44a2,2,0,0,0,.247-.183,4.012,4.012,0,0,0,1.565-3.934" transform="translate(0 0)" fill-rule="evenodd"/>
      </g>
    </g>
  </g>
</svg>
